<svg width="186" height="186" viewBox="0 0 186 186" fill="none" xmlns="http://www.w3.org/2000/svg" xmlns:xlink="http://www.w3.org/1999/xlink">
<path d="M142.333,87.783C142.333,89.694 140.784,91.243 138.872,91.243L138.872,95.118C142.924,95.118 146.208,91.834 146.208,87.783L142.333,87.783ZM138.872,91.243C136.961,91.243 135.412,89.694 135.412,87.783L131.537,87.783C131.537,91.834 134.821,95.118 138.872,95.118L138.872,91.243ZM135.412,87.783C135.412,85.872 136.961,84.322 138.872,84.322L138.872,80.447C134.821,80.447 131.537,83.731 131.537,87.783L135.412,87.783ZM138.872,84.322C140.784,84.322 142.333,85.872 142.333,87.783L146.208,87.783C146.208,83.731 142.924,80.447 138.872,80.447L138.872,84.322Z" fill="#010101"/>
<path d="M159.401,103.903C159.401,106.411 157.368,108.444 154.86,108.444L154.86,112.319C159.508,112.319 163.276,108.551 163.276,103.903L159.401,103.903ZM154.86,108.444C152.352,108.444 150.318,106.411 150.318,103.903L146.443,103.903C146.443,108.551 150.212,112.319 154.86,112.319L154.86,108.444ZM150.318,103.903C150.318,101.395 152.352,99.361 154.86,99.361L154.86,95.486C150.212,95.486 146.443,99.255 146.443,103.903L150.318,103.903ZM154.86,99.361C157.368,99.361 159.401,101.395 159.401,103.903L163.276,103.903C163.276,99.255 159.508,95.486 154.86,95.486L154.86,99.361Z" fill="#010101"/>
<path d="M46.659,38.642C45.605,38.458 44.601,39.162 44.416,40.216C44.231,41.271 44.936,42.275 45.99,42.459L46.659,38.642ZM89.793,50.132C90.847,50.316 91.851,49.612 92.036,48.558C92.221,47.504 91.516,46.499 90.462,46.315L89.793,50.132ZM59.582,54.186C58.528,53.999 57.523,54.702 57.336,55.755C57.149,56.809 57.852,57.814 58.906,58.001L59.582,54.186ZM87.367,63.046C88.421,63.233 89.427,62.53 89.613,61.477C89.8,60.423 89.097,59.418 88.044,59.231L87.367,63.046ZM51.304,65.283C50.25,65.099 49.246,65.804 49.062,66.858C48.878,67.913 49.584,68.916 50.638,69.1L51.304,65.283ZM85.354,75.157C86.408,75.341 87.412,74.635 87.595,73.581C87.779,72.527 87.074,71.523 86.02,71.339L85.354,75.157ZM109.249,124.141C109.336,125.207 110.271,126.001 111.338,125.915C112.404,125.828 113.198,124.893 113.112,123.826L109.249,124.141ZM110.107,110.793L112.038,110.636C112.035,110.592 112.029,110.548 112.023,110.504L110.107,110.793ZM80.436,105.848L82.18,106.692C82.207,106.636 82.232,106.579 82.253,106.521L80.436,105.848ZM20.691,137.434L20.456,135.51C19.886,135.58 19.377,135.899 19.065,136.381C18.753,136.863 18.671,137.458 18.841,138.007L20.691,137.434ZM100.739,156.992C101.397,156.148 101.245,154.93 100.401,154.273C99.557,153.615 98.34,153.766 97.682,154.61L100.739,156.992ZM45.99,42.459L89.793,50.132L90.462,46.315L46.659,38.642L45.99,42.459ZM58.906,58.001L87.367,63.046L88.044,59.231L59.582,54.186L58.906,58.001ZM50.638,69.1L85.354,75.157L86.02,71.339L51.304,65.283L50.638,69.1ZM113.112,123.826L112.038,110.636L108.176,110.95L109.249,124.141L113.112,123.826ZM112.023,110.504C110.57,100.862 104.195,94.588 97.005,93.262C89.704,91.915 82.1,95.765 78.619,105.176L82.253,106.521C85.146,98.7 91.034,96.1 96.302,97.072C101.681,98.065 106.955,102.88 108.191,111.082L112.023,110.504ZM78.692,105.005C75.421,111.765 67.782,118.571 57.331,124.136C46.936,129.672 33.993,133.853 20.456,135.51L20.927,139.357C34.921,137.643 48.323,133.324 59.153,127.556C69.927,121.819 78.395,114.517 82.18,106.692L78.692,105.005ZM18.841,138.007C24.744,157.071 43.408,164.45 60.911,165.887C69.725,166.611 78.445,165.858 85.511,164.25C89.043,163.445 92.204,162.418 94.776,161.228C97.305,160.059 99.446,158.651 100.739,156.992L97.682,154.61C96.947,155.553 95.46,156.643 93.15,157.711C90.883,158.759 87.992,159.711 84.65,160.471C77.967,161.993 69.644,162.716 61.228,162.025C44.273,160.633 27.733,153.624 22.542,136.86L18.841,138.007Z" fill="#010101"/>
<path d="M103.452,134.81L104.408,136.495C104.837,136.252 105.157,135.854 105.303,135.383L103.452,134.81ZM113.542,157.014L115.095,155.856C114.486,155.039 113.348,154.834 112.492,155.386L113.542,157.014ZM142.605,157.619L143.394,155.849C142.443,155.425 141.327,155.828 140.867,156.763L142.605,157.619ZM151.893,133.198L150.03,133.731C150.239,134.461 150.854,135.001 151.605,135.114L151.893,133.198ZM123.633,124.921L123.169,126.803C123.821,126.963 124.509,126.775 124.988,126.306L123.633,124.921ZM36.965,67.451C36.965,66.381 36.097,65.514 35.027,65.514C33.957,65.514 33.09,66.381 33.09,67.451L36.965,67.451ZM33.09,73.303C33.09,74.373 33.957,75.24 35.027,75.24C36.097,75.24 36.965,74.373 36.965,73.303L33.09,73.303ZM36.965,82.42C36.965,81.35 36.097,80.483 35.027,80.483C33.957,80.483 33.09,81.35 33.09,82.42L36.965,82.42ZM33.09,88.272C33.09,89.342 33.957,90.209 35.027,90.209C36.097,90.209 36.965,89.342 36.965,88.272L33.09,88.272ZM39.852,75.927C38.783,75.89 37.886,76.727 37.849,77.797C37.812,78.866 38.649,79.763 39.719,79.8L39.852,75.927ZM45.57,80.001C46.64,80.038 47.536,79.201 47.573,78.132C47.61,77.062 46.773,76.165 45.703,76.129L45.57,80.001ZM24.816,76.127C23.746,76.127 22.879,76.995 22.879,78.065C22.879,79.135 23.746,80.002 24.816,80.002L24.816,76.127ZM30.668,80.002C31.738,80.002 32.605,79.135 32.605,78.065C32.605,76.995 31.738,76.127 30.668,76.127L30.668,80.002ZM54.943,106.953C54.213,106.17 52.987,106.128 52.205,106.858C51.422,107.588 51.38,108.814 52.11,109.596L54.943,106.953ZM56.105,113.878C56.835,114.66 58.061,114.703 58.843,113.973C59.626,113.243 59.668,112.017 58.938,111.235L56.105,113.878ZM58.891,98.918C59.648,98.162 59.648,96.935 58.891,96.178C58.135,95.422 56.908,95.422 56.151,96.178L58.891,98.918ZM52.013,100.317C51.256,101.074 51.256,102.3 52.013,103.057C52.77,103.814 53.996,103.814 54.753,103.057L52.013,100.317ZM44.17,96.461C43.414,95.705 42.187,95.705 41.43,96.461C40.674,97.218 40.674,98.445 41.43,99.201L44.17,96.461ZM45.569,103.34C46.325,104.096 47.552,104.096 48.309,103.34C49.065,102.583 49.065,101.356 48.309,100.6L45.569,103.34ZM48.309,109.501C49.065,108.744 49.065,107.518 48.309,106.761C47.552,106.004 46.325,106.004 45.569,106.761L48.309,109.501ZM41.43,110.9C40.674,111.656 40.674,112.883 41.43,113.64C42.187,114.396 43.414,114.396 44.17,113.64L41.43,110.9ZM81.679,104.36C80.856,103.675 79.635,103.786 78.95,104.608C78.265,105.43 78.376,106.652 79.198,107.337L81.679,104.36ZM110.592,112.67C111.628,112.403 112.252,111.347 111.985,110.311C111.719,109.274 110.663,108.65 109.626,108.917L110.592,112.67ZM40.919,157.562C39.906,157.906 39.362,159.006 39.706,160.019C40.049,161.033 41.149,161.576 42.163,161.232L40.919,157.562ZM86.479,132.272C87.082,131.388 86.855,130.183 85.971,129.579C85.087,128.976 83.882,129.204 83.279,130.087L86.479,132.272ZM86.248,150.279C86.874,149.412 86.68,148.201 85.812,147.574C84.945,146.947 83.734,147.142 83.107,148.009L86.248,150.279ZM65.401,162.41C64.429,162.857 64.002,164.007 64.448,164.979C64.894,165.952 66.045,166.379 67.017,165.932L65.401,162.41ZM26.468,146.514C25.398,146.543 24.555,147.435 24.585,148.504C24.614,149.574 25.506,150.417 26.575,150.387L26.468,146.514ZM59.324,140.572C60.276,140.084 60.652,138.916 60.164,137.964C59.676,137.012 58.508,136.636 57.556,137.124L59.324,140.572ZM88.981,95.029C88.784,96.081 89.477,97.094 90.528,97.291C91.58,97.488 92.592,96.795 92.79,95.743L88.981,95.029ZM103.351,28.845L105.255,29.201C105.26,29.179 105.263,29.156 105.267,29.133L103.351,28.845ZM116.015,31.065L114.136,30.591C114.127,30.625 114.12,30.66 114.113,30.695L116.015,31.065ZM101.077,97.628C100.873,98.678 101.558,99.695 102.609,99.9C103.659,100.104 104.676,99.419 104.881,98.368L101.077,97.628ZM102.495,133.125C97.36,136.04 94.447,139.615 93.456,143.416C92.465,147.219 93.491,150.898 95.53,153.806C99.47,159.428 107.916,162.951 114.593,158.642L112.492,155.386C108.125,158.204 101.873,156.104 98.703,151.582C97.186,149.419 96.554,146.895 97.206,144.394C97.858,141.891 99.891,139.06 104.408,136.495L102.495,133.125ZM111.989,158.172C116.454,164.16 123.385,166.526 129.645,166.331C135.795,166.139 141.906,163.424 144.343,158.475L140.867,156.763C139.308,159.928 134.9,162.29 129.524,162.458C124.259,162.622 118.655,160.629 115.095,155.856L111.989,158.172ZM141.815,159.388C147.887,162.097 153.095,162.137 157.137,160.248C161.156,158.37 163.687,154.736 164.712,150.769C165.735,146.813 165.307,142.379 163.256,138.695C161.177,134.958 157.471,132.079 152.182,131.283L151.605,135.114C155.695,135.73 158.369,137.882 159.87,140.579C161.401,143.329 161.754,146.731 160.961,149.799C160.171,152.855 158.287,155.433 155.496,156.738C152.726,158.032 148.726,158.228 143.394,155.849L141.815,159.388ZM153.756,132.666C151.496,124.768 146.19,119.937 140.047,118.406C133.947,116.886 127.241,118.676 122.277,123.537L124.988,126.306C129.034,122.344 134.373,120.985 139.109,122.166C143.801,123.335 148.12,127.055 150.03,133.731L153.756,132.666ZM124.097,123.04C122.256,122.586 120.186,122.008 118.195,121.674C116.174,121.336 114.026,121.205 111.909,121.724C107.45,122.816 103.982,126.533 101.601,134.238L105.303,135.383C107.494,128.293 110.267,126.116 112.831,125.488C114.224,125.146 115.783,125.199 117.554,125.496C119.353,125.797 121.16,126.307 123.169,126.803L124.097,123.04ZM33.09,67.451L33.09,73.303L36.965,73.303L36.965,67.451L33.09,67.451ZM33.09,82.42L33.09,88.272L36.965,88.272L36.965,82.42L33.09,82.42ZM39.719,79.8L45.57,80.001L45.703,76.129L39.852,75.927L39.719,79.8ZM24.816,80.002L30.668,80.002L30.668,76.127L24.816,76.127L24.816,80.002ZM52.11,109.596L56.105,113.878L58.938,111.235L54.943,106.953L52.11,109.596ZM56.151,96.178L52.013,100.317L54.753,103.057L58.891,98.918L56.151,96.178ZM41.43,99.201L45.569,103.34L48.309,100.6L44.17,96.461L41.43,99.201ZM45.569,106.761L41.43,110.9L44.17,113.64L48.309,109.501L45.569,106.761ZM79.198,107.337C88.888,115.413 99.746,115.459 110.592,112.67L109.626,108.917C99.408,111.545 90.03,111.32 81.679,104.36L79.198,107.337ZM42.163,161.232C64.445,153.68 78.539,143.905 86.479,132.272L83.279,130.087C75.99,140.767 62.765,150.157 40.919,157.562L42.163,161.232ZM83.107,148.009C78.958,153.749 73.96,158.483 65.401,162.41L67.017,165.932C76.244,161.699 81.748,156.505 86.248,150.279L83.107,148.009ZM26.575,150.387C39.584,150.026 49.727,145.494 59.324,140.572L57.556,137.124C48.08,141.983 38.577,146.177 26.468,146.514L26.575,150.387ZM92.79,95.743L105.255,29.201L101.447,28.488L88.981,95.029L92.79,95.743ZM105.267,29.133C105.643,26.638 106.618,25.176 107.622,24.395C108.628,23.612 109.818,23.388 110.921,23.62C113.009,24.06 115.212,26.327 114.136,30.591L117.893,31.539C119.449,25.372 116.187,20.77 111.72,19.828C109.545,19.37 107.184,19.827 105.243,21.337C103.298,22.849 101.927,25.293 101.435,28.556L105.267,29.133ZM114.113,30.695L101.077,97.628L104.881,98.368L117.916,31.435L114.113,30.695Z" fill="#010101"/>
</svg>
