<svg width="50" height="50" viewBox="0 0 50 50" fill="none" xmlns="http://www.w3.org/2000/svg" xmlns:xlink="http://www.w3.org/1999/xlink">
<path d="M43,25C43,34.941 34.941,43 25,43L25,47C37.15,47 47,37.15 47,25L43,25ZM25,43C15.059,43 7,34.941 7,25L3,25C3,37.15 12.85,47 25,47L25,43ZM7,25C7,15.059 15.059,7 25,7L25,3C12.85,3 3,12.85 3,25L7,25ZM25,7C34.941,7 43,15.059 43,25L47,25C47,12.85 37.15,3 25,3L25,7Z" fill="#FFFFFF"/>
<path d="M31.586,26.414C32.367,27.195 33.633,27.195 34.414,26.414C35.195,25.633 35.195,24.367 34.414,23.586L31.586,26.414ZM25,17L26.414,15.586C25.633,14.805 24.367,14.805 23.586,15.586L25,17ZM15.586,23.586C14.805,24.367 14.805,25.633 15.586,26.414C16.367,27.195 17.633,27.195 18.414,26.414L15.586,23.586ZM34.414,23.586L26.414,15.586L23.586,18.414L31.586,26.414L34.414,23.586ZM23.586,15.586L15.586,23.586L18.414,26.414L26.414,18.414L23.586,15.586Z" fill="#FFFFFF"/>
<line x1="23" y1="17" x2="23" y2="33" stroke="#FFFFFF" stroke-width="2" stroke-miterlimit="3.999327" stroke-linecap="round" stroke-linejoin="round"/>
</svg>
