<svg width="48" height="48" viewBox="0 0 48 48" fill="none" xmlns="http://www.w3.org/2000/svg" xmlns:xlink="http://www.w3.org/1999/xlink">
<path d="M41,23C41,32.941 32.941,41 23,41L23,45C35.15,45 45,35.15 45,23L41,23ZM23,41C13.059,41 5,32.941 5,23L1,23C1,35.15 10.85,45 23,45L23,41ZM5,23C5,13.059 13.059,5 23,5L23,1C10.85,1 1,10.85 1,23L5,23ZM23,5C32.941,5 41,13.059 41,23L45,23C45,10.85 35.15,1 23,1L23,5Z" fill="#FFFFFF"/>
<path d="M29.586,24.414C30.367,25.195 31.633,25.195 32.414,24.414C33.195,23.633 33.195,22.367 32.414,21.586L29.586,24.414ZM23,15L24.414,13.586C23.633,12.805 22.367,12.805 21.586,13.586L23,15ZM13.586,21.586C12.805,22.367 12.805,23.633 13.586,24.414C14.367,25.195 15.633,25.195 16.414,24.414L13.586,21.586ZM32.414,21.586L24.414,13.586L21.586,16.414L29.586,24.414L32.414,21.586ZM21.586,13.586L13.586,21.586L16.414,24.414L24.414,16.414L21.586,13.586Z" fill="#FFFFFF"/>
<line x1="21" y1="15" x2="21" y2="31" stroke="#FFFFFF" stroke-width="2" stroke-miterlimit="3.999327" stroke-linecap="round" stroke-linejoin="round"/>
</svg>
