<svg width="20" height="18" viewBox="0 0 20 18" fill="none" xmlns="http://www.w3.org/2000/svg" xmlns:xlink="http://www.w3.org/1999/xlink">
<path d="M-0.19,9.244C-0.19,8.818 -0.008,8.372 0.275,8.092L6.841,1.356C7.165,1.023 7.539,0.857 7.913,0.857C8.804,0.857 9.411,1.491 9.411,2.331C9.411,2.809 9.208,3.172 8.925,3.452L6.629,5.819L4.534,7.801L6.72,7.676L16.507,7.676C17.458,7.676 18.095,8.309 18.095,9.244C18.095,10.178 17.458,10.8 16.507,10.8L6.72,10.8L4.534,10.686L6.629,12.658L8.925,15.014C9.208,15.305 9.411,15.668 9.411,16.135C9.411,16.976 8.804,17.619 7.913,17.619C7.539,17.619 7.165,17.453 6.851,17.132L0.275,10.385C-0.008,10.105 -0.19,9.659 -0.19,9.244Z" fill="#007AFF"/>
</svg>
