<svg width="32" height="32" viewBox="0 0 32 32" fill="none" xmlns="http://www.w3.org/2000/svg" xmlns:xlink="http://www.w3.org/1999/xlink">
<path d="M6.667,4.958L25.333,4.958L25.333,3.708L6.667,3.708L6.667,4.958ZM25.333,4.958C26.461,4.958 27.375,5.872 27.375,7L28.625,7C28.625,5.182 27.151,3.708 25.333,3.708L25.333,4.958ZM27.375,7L27.375,25.666L28.625,25.666L28.625,7L27.375,7ZM27.375,25.666C27.375,26.794 26.461,27.708 25.333,27.708L25.333,28.958C27.151,28.958 28.625,27.484 28.625,25.666L27.375,25.666ZM25.333,27.708L6.667,27.708L6.667,28.958L25.333,28.958L25.333,27.708ZM6.667,27.708C5.539,27.708 4.625,26.794 4.625,25.666L3.375,25.666C3.375,27.484 4.849,28.958 6.667,28.958L6.667,27.708ZM4.625,25.666L4.625,7L3.375,7L3.375,25.666L4.625,25.666ZM4.625,7C4.625,5.872 5.539,4.958 6.667,4.958L6.667,3.708C4.849,3.708 3.375,5.182 3.375,7L4.625,7Z" fill="#010101"/>
<line x1="20.708" y1="1.667" x2="20.708" y2="7" stroke="#010101" stroke-width="0.625" stroke-miterlimit="3.999327" stroke-linecap="round" stroke-linejoin="round"/>
<line x1="10.042" y1="1.667" x2="10.042" y2="7" stroke="#010101" stroke-width="0.625" stroke-miterlimit="3.999327" stroke-linecap="round" stroke-linejoin="round"/>
<line x1="4" y1="11.708" x2="28" y2="11.708" stroke="#010101" stroke-width="0.625" stroke-miterlimit="3.999327" stroke-linecap="round" stroke-linejoin="round"/>
</svg>
