<svg width="32" height="32" viewBox="0 0 32 32" fill="none" xmlns="http://www.w3.org/2000/svg" xmlns:xlink="http://www.w3.org/1999/xlink">
<path d="M6.667,4.957L25.333,4.957L25.333,3.707L6.667,3.707L6.667,4.957ZM25.333,4.957C26.461,4.957 27.375,5.871 27.375,6.999L28.625,6.999C28.625,5.181 27.151,3.707 25.333,3.707L25.333,4.957ZM27.375,6.999L27.375,25.665L28.625,25.665L28.625,6.999L27.375,6.999ZM27.375,25.665C27.375,26.793 26.461,27.707 25.333,27.707L25.333,28.957C27.151,28.957 28.625,27.483 28.625,25.665L27.375,25.665ZM25.333,27.707L6.667,27.707L6.667,28.957L25.333,28.957L25.333,27.707ZM6.667,27.707C5.539,27.707 4.625,26.793 4.625,25.665L3.375,25.665C3.375,27.483 4.849,28.957 6.667,28.957L6.667,27.707ZM4.625,25.665L4.625,6.999L3.375,6.999L3.375,25.665L4.625,25.665ZM4.625,6.999C4.625,5.871 5.539,4.957 6.667,4.957L6.667,3.707C4.849,3.707 3.375,5.181 3.375,6.999L4.625,6.999Z" fill="#010101"/>
<line x1="20.708" y1="1.668" x2="20.708" y2="7.001" stroke="#010101" stroke-width="0.625" stroke-miterlimit="3.999327" stroke-linecap="round" stroke-linejoin="round"/>
<line x1="10.042" y1="1.668" x2="10.042" y2="7.001" stroke="#010101" stroke-width="0.625" stroke-miterlimit="3.999327" stroke-linecap="round" stroke-linejoin="round"/>
<line x1="4" y1="11.707" x2="28" y2="11.707" stroke="#010101" stroke-width="0.625" stroke-miterlimit="3.999327" stroke-linecap="round" stroke-linejoin="round"/>
</svg>
