<svg width="32" height="32" viewBox="0 0 32 32" fill="none" xmlns="http://www.w3.org/2000/svg" xmlns:xlink="http://www.w3.org/1999/xlink">
<path d="M5.667,4.959L24.333,4.959L24.333,3.709L5.667,3.709L5.667,4.959ZM24.333,4.959C25.461,4.959 26.375,5.873 26.375,7.001L27.625,7.001C27.625,5.183 26.151,3.709 24.333,3.709L24.333,4.959ZM26.375,7.001L26.375,25.667L27.625,25.667L27.625,7.001L26.375,7.001ZM26.375,25.667C26.375,26.795 25.461,27.709 24.333,27.709L24.333,28.959C26.151,28.959 27.625,27.485 27.625,25.667L26.375,25.667ZM24.333,27.709L5.667,27.709L5.667,28.959L24.333,28.959L24.333,27.709ZM5.667,27.709C4.539,27.709 3.625,26.795 3.625,25.667L2.375,25.667C2.375,27.485 3.849,28.959 5.667,28.959L5.667,27.709ZM3.625,25.667L3.625,7.001L2.375,7.001L2.375,25.667L3.625,25.667ZM3.625,7.001C3.625,5.873 4.539,4.959 5.667,4.959L5.667,3.709C3.849,3.709 2.375,5.183 2.375,7.001L3.625,7.001Z" fill="#010101"/>
<line x1="19.708" y1="1.666" x2="19.708" y2="6.999" stroke="#010101" stroke-width="0.625" stroke-miterlimit="3.999327" stroke-linecap="round" stroke-linejoin="round"/>
<line x1="9.042" y1="1.666" x2="9.042" y2="6.999" stroke="#010101" stroke-width="0.625" stroke-miterlimit="3.999327" stroke-linecap="round" stroke-linejoin="round"/>
<line x1="3" y1="11.709" x2="27" y2="11.709" stroke="#010101" stroke-width="0.625" stroke-miterlimit="3.999327" stroke-linecap="round" stroke-linejoin="round"/>
</svg>
