<svg width="24" height="24" viewBox="0 0 24 24" fill="none" xmlns="http://www.w3.org/2000/svg" xmlns:xlink="http://www.w3.org/1999/xlink">
<path d="M5,4L19,4L19,2L5,2L5,4ZM19,4C19.552,4 20,4.448 20,5L22,5C22,3.343 20.657,2 19,2L19,4ZM20,5L20,19L22,19L22,5L20,5ZM20,19C20,19.552 19.552,20 19,20L19,22C20.657,22 22,20.657 22,19L20,19ZM19,20L5,20L5,22L19,22L19,20ZM5,20C4.448,20 4,19.552 4,19L2,19C2,20.657 3.343,22 5,22L5,20ZM4,19L4,5L2,5L2,19L4,19ZM4,5C4,4.448 4.448,4 5,4L5,2C3.343,2 2,3.343 2,5L4,5Z" fill="#010101"/>
<line x1="15" y1="1" x2="15" y2="5" stroke="#010101" stroke-width="1" stroke-miterlimit="3.999327" stroke-linecap="round" stroke-linejoin="round"/>
<line x1="7" y1="1" x2="7" y2="5" stroke="#010101" stroke-width="1" stroke-miterlimit="3.999327" stroke-linecap="round" stroke-linejoin="round"/>
<line x1="3" y1="8" x2="21" y2="8" stroke="#010101" stroke-width="1" stroke-miterlimit="3.999327" stroke-linecap="round" stroke-linejoin="round"/>
</svg>
