<svg width="32" height="34" viewBox="0 0 32 34" fill="none" xmlns="http://www.w3.org/2000/svg" xmlns:xlink="http://www.w3.org/1999/xlink">
<path d="M6.667,6.958L25.333,6.958L25.333,5.708L6.667,5.708L6.667,6.958ZM25.333,6.958C26.461,6.958 27.375,7.872 27.375,9L28.625,9C28.625,7.182 27.151,5.708 25.333,5.708L25.333,6.958ZM27.375,9L27.375,27.666L28.625,27.666L28.625,9L27.375,9ZM27.375,27.666C27.375,28.794 26.461,29.708 25.333,29.708L25.333,30.958C27.151,30.958 28.625,29.484 28.625,27.666L27.375,27.666ZM25.333,29.708L6.667,29.708L6.667,30.958L25.333,30.958L25.333,29.708ZM6.667,29.708C5.539,29.708 4.625,28.794 4.625,27.666L3.375,27.666C3.375,29.484 4.849,30.958 6.667,30.958L6.667,29.708ZM4.625,27.666L4.625,9L3.375,9L3.375,27.666L4.625,27.666ZM4.625,9C4.625,7.872 5.539,6.958 6.667,6.958L6.667,5.708C4.849,5.708 3.375,7.182 3.375,9L4.625,9Z" fill="#010101"/>
<line x1="20.708" y1="3.667" x2="20.708" y2="9" stroke="#010101" stroke-width="0.625" stroke-miterlimit="3.999327" stroke-linecap="round" stroke-linejoin="round"/>
<line x1="10.042" y1="3.667" x2="10.042" y2="9" stroke="#010101" stroke-width="0.625" stroke-miterlimit="3.999327" stroke-linecap="round" stroke-linejoin="round"/>
<line x1="4" y1="13.708" x2="28" y2="13.708" stroke="#010101" stroke-width="0.625" stroke-miterlimit="3.999327" stroke-linecap="round" stroke-linejoin="round"/>
</svg>
