<svg width="32" height="32" viewBox="0 0 32 32" fill="none" xmlns="http://www.w3.org/2000/svg" xmlns:xlink="http://www.w3.org/1999/xlink">
<path d="M6.667,4.959L25.333,4.959L25.333,3.709L6.667,3.709L6.667,4.959ZM25.333,4.959C26.461,4.959 27.375,5.873 27.375,7.001L28.625,7.001C28.625,5.183 27.151,3.709 25.333,3.709L25.333,4.959ZM27.375,7.001L27.375,25.667L28.625,25.667L28.625,7.001L27.375,7.001ZM27.375,25.667C27.375,26.795 26.461,27.709 25.333,27.709L25.333,28.959C27.151,28.959 28.625,27.485 28.625,25.667L27.375,25.667ZM25.333,27.709L6.667,27.709L6.667,28.959L25.333,28.959L25.333,27.709ZM6.667,27.709C5.539,27.709 4.625,26.795 4.625,25.667L3.375,25.667C3.375,27.485 4.849,28.959 6.667,28.959L6.667,27.709ZM4.625,25.667L4.625,7.001L3.375,7.001L3.375,25.667L4.625,25.667ZM4.625,7.001C4.625,5.873 5.539,4.959 6.667,4.959L6.667,3.709C4.849,3.709 3.375,5.183 3.375,7.001L4.625,7.001Z" fill="#010101"/>
<line x1="20.709" y1="1.666" x2="20.709" y2="6.999" stroke="#010101" stroke-width="0.625" stroke-miterlimit="3.999327" stroke-linecap="round" stroke-linejoin="round"/>
<line x1="10.041" y1="1.666" x2="10.041" y2="6.999" stroke="#010101" stroke-width="0.625" stroke-miterlimit="3.999327" stroke-linecap="round" stroke-linejoin="round"/>
<line x1="4" y1="11.709" x2="28" y2="11.709" stroke="#010101" stroke-width="0.625" stroke-miterlimit="3.999327" stroke-linecap="round" stroke-linejoin="round"/>
</svg>
