<svg width="24" height="26" viewBox="0 0 24 26" fill="none" xmlns="http://www.w3.org/2000/svg" xmlns:xlink="http://www.w3.org/1999/xlink">
<path d="M5,6L19,6L19,4L5,4L5,6ZM19,6C19.552,6 20,6.448 20,7L22,7C22,5.343 20.657,4 19,4L19,6ZM20,7L20,21L22,21L22,7L20,7ZM20,21C20,21.552 19.552,22 19,22L19,24C20.657,24 22,22.657 22,21L20,21ZM19,22L5,22L5,24L19,24L19,22ZM5,22C4.448,22 4,21.552 4,21L2,21C2,22.657 3.343,24 5,24L5,22ZM4,21L4,7L2,7L2,21L4,21ZM4,7C4,6.448 4.448,6 5,6L5,4C3.343,4 2,5.343 2,7L4,7Z" fill="#010101"/>
<line x1="15" y1="3" x2="15" y2="7" stroke="#010101" stroke-width="1" stroke-miterlimit="3.999327" stroke-linecap="round" stroke-linejoin="round"/>
<line x1="7" y1="3" x2="7" y2="7" stroke="#010101" stroke-width="1" stroke-miterlimit="3.999327" stroke-linecap="round" stroke-linejoin="round"/>
<line x1="3" y1="10" x2="21" y2="10" stroke="#010101" stroke-width="1" stroke-miterlimit="3.999327" stroke-linecap="round" stroke-linejoin="round"/>
</svg>
