<svg width="48" height="48" viewBox="0 0 48 48" fill="none" xmlns="http://www.w3.org/2000/svg" xmlns:xlink="http://www.w3.org/1999/xlink">
<path d="M24,3C19.847,3 15.786,4.232 12.333,6.539C8.88,8.847 6.188,12.126 4.599,15.964C3.009,19.801 2.593,24.023 3.404,28.097C4.214,32.17 6.214,35.912 9.151,38.849C12.088,41.786 15.83,43.786 19.903,44.596C23.977,45.407 28.199,44.991 32.036,43.401C35.874,41.812 39.153,39.12 41.461,35.667C43.768,32.214 45,28.153 45,24C45,18.43 42.788,13.089 38.849,9.151C34.911,5.212 29.57,3 24,3ZM24,42C20.44,42 16.96,40.944 14,38.966C11.04,36.989 8.733,34.177 7.37,30.888C6.008,27.599 5.651,23.98 6.346,20.488C7.04,16.997 8.755,13.789 11.272,11.272C13.789,8.755 16.997,7.04 20.488,6.346C23.98,5.651 27.599,6.008 30.888,7.37C34.177,8.733 36.989,11.04 38.966,14C40.944,16.96 42,20.44 42,24C42,28.774 40.104,33.352 36.728,36.728C33.352,40.104 28.774,42 24,42Z" fill="#010101"/>
<circle cx="24" cy="35.25" r="2.25" fill="#010101"/>
<path d="M25.5,12L23.25,12C22.363,11.998 21.484,12.171 20.665,12.51C19.845,12.848 19.1,13.345 18.473,13.973C17.845,14.6 17.348,15.345 17.01,16.165C16.671,16.984 16.498,17.863 16.5,18.75L16.5,19.5L19.5,19.5L19.5,18.75C19.5,17.755 19.895,16.802 20.598,16.098C21.302,15.395 22.255,15 23.25,15L25.5,15C26.495,15 27.448,15.395 28.152,16.098C28.855,16.802 29.25,17.755 29.25,18.75C29.25,19.745 28.855,20.698 28.152,21.402C27.448,22.105 26.495,22.5 25.5,22.5L22.5,22.5L22.5,29.25L25.5,29.25L25.5,25.5C27.29,25.5 29.007,24.789 30.273,23.523C31.539,22.257 32.25,20.54 32.25,18.75C32.25,16.96 31.539,15.243 30.273,13.977C29.007,12.711 27.29,12 25.5,12Z" fill="#010101"/>
</svg>
