<svg width="40" height="22" viewBox="0 0 40 22" fill="none" xmlns="http://www.w3.org/2000/svg" xmlns:xlink="http://www.w3.org/1999/xlink">
<path d="M36.16,-0.667L33.952,-0.667C32.733,-0.667 31.744,0.229 31.744,1.333L31.744,18.667C31.744,19.771 32.733,20.667 33.952,20.667L36.16,20.667C37.379,20.667 38.368,19.771 38.368,18.667L38.368,1.333C38.368,0.229 37.379,-0.667 36.16,-0.667ZM23.648,4L25.856,4C27.075,4 28.064,4.896 28.064,6L28.064,18.667C28.064,19.771 27.075,20.667 25.856,20.667L23.648,20.667C22.429,20.667 21.44,19.771 21.44,18.667L21.44,6C21.44,4.896 22.429,4 23.648,4ZM15.552,8.667L13.344,8.667C12.125,8.667 11.136,9.562 11.136,10.667L11.136,18.667C11.136,19.771 12.125,20.667 13.344,20.667L15.552,20.667C16.772,20.667 17.76,19.771 17.76,18.667L17.76,10.667C17.76,9.562 16.772,8.667 15.552,8.667ZM5.248,12.667L3.04,12.667C1.821,12.667 0.832,13.562 0.832,14.667L0.832,18.667C0.832,19.771 1.821,20.667 3.04,20.667L5.248,20.667C6.467,20.667 7.456,19.771 7.456,18.667L7.456,14.667C7.456,13.562 6.467,12.667 5.248,12.667Z" clip-rule="evenodd" fill-rule="evenodd" fill="#010101"/>
</svg>
