<svg width="34" height="22" viewBox="0 0 34 22" fill="none" xmlns="http://www.w3.org/2000/svg" xmlns:xlink="http://www.w3.org/1999/xlink">
<path d="M30.191,-0.667L28.342,-0.667C27.32,-0.667 26.492,0.229 26.492,1.333L26.492,18.667C26.492,19.771 27.32,20.667 28.342,20.667L30.191,20.667C31.212,20.667 32.04,19.771 32.04,18.667L32.04,1.333C32.04,0.229 31.212,-0.667 30.191,-0.667ZM19.711,4L21.56,4C22.582,4 23.41,4.896 23.41,6L23.41,18.667C23.41,19.771 22.582,20.667 21.56,20.667L19.711,20.667C18.69,20.667 17.862,19.771 17.862,18.667L17.862,6C17.862,4.896 18.69,4 19.711,4ZM12.93,8.667L11.081,8.667C10.06,8.667 9.232,9.562 9.232,10.667L9.232,18.667C9.232,19.771 10.06,20.667 11.081,20.667L12.93,20.667C13.952,20.667 14.78,19.771 14.78,18.667L14.78,10.667C14.78,9.562 13.952,8.667 12.93,8.667ZM4.3,12.667L2.45,12.667C1.429,12.667 0.601,13.562 0.601,14.667L0.601,18.667C0.601,19.771 1.429,20.667 2.45,20.667L4.3,20.667C5.321,20.667 6.149,19.771 6.149,18.667L6.149,14.667C6.149,13.562 5.321,12.667 4.3,12.667Z" clip-rule="evenodd" fill-rule="evenodd" fill="#FFFFFF"/>
</svg>
