<svg width="34" height="22" viewBox="0 0 34 22" fill="none" xmlns="http://www.w3.org/2000/svg" xmlns:xlink="http://www.w3.org/1999/xlink">
<path d="M30.192,-0.666L28.342,-0.666C27.321,-0.666 26.493,0.229 26.493,1.334L26.493,18.667C26.493,19.772 27.321,20.667 28.342,20.667L30.192,20.667C31.213,20.667 32.041,19.772 32.041,18.667L32.041,1.334C32.041,0.229 31.213,-0.666 30.192,-0.666ZM19.711,4.001L21.561,4.001C22.582,4.001 23.41,4.896 23.41,6.001L23.41,18.667C23.41,19.772 22.582,20.667 21.561,20.667L19.711,20.667C18.69,20.667 17.862,19.772 17.862,18.667L17.862,6.001C17.862,4.896 18.69,4.001 19.711,4.001ZM12.931,8.667L11.082,8.667C10.06,8.667 9.232,9.563 9.232,10.667L9.232,18.667C9.232,19.772 10.06,20.667 11.082,20.667L12.931,20.667C13.952,20.667 14.78,19.772 14.78,18.667L14.78,10.667C14.78,9.563 13.952,8.667 12.931,8.667ZM4.3,12.667L2.451,12.667C1.43,12.667 0.602,13.563 0.602,14.667L0.602,18.667C0.602,19.772 1.43,20.667 2.451,20.667L4.3,20.667C5.322,20.667 6.15,19.772 6.15,18.667L6.15,14.667C6.15,13.563 5.322,12.667 4.3,12.667Z" clip-rule="evenodd" fill-rule="evenodd" fill="#000000"/>
</svg>
