<svg width="40" height="22" viewBox="0 0 40 22" fill="none" xmlns="http://www.w3.org/2000/svg" xmlns:xlink="http://www.w3.org/1999/xlink">
<path d="M36.16,-0.666L33.952,-0.666C32.733,-0.666 31.744,0.229 31.744,1.334L31.744,18.667C31.744,19.772 32.733,20.667 33.952,20.667L36.16,20.667C37.379,20.667 38.368,19.772 38.368,18.667L38.368,1.334C38.368,0.229 37.379,-0.666 36.16,-0.666ZM23.648,4.001L25.856,4.001C27.075,4.001 28.064,4.896 28.064,6.001L28.064,18.667C28.064,19.772 27.075,20.667 25.856,20.667L23.648,20.667C22.429,20.667 21.44,19.772 21.44,18.667L21.44,6.001C21.44,4.896 22.429,4.001 23.648,4.001ZM15.552,8.667L13.344,8.667C12.124,8.667 11.136,9.563 11.136,10.667L11.136,18.667C11.136,19.772 12.124,20.667 13.344,20.667L15.552,20.667C16.771,20.667 17.76,19.772 17.76,18.667L17.76,10.667C17.76,9.563 16.771,8.667 15.552,8.667ZM5.248,12.667L3.04,12.667C1.82,12.667 0.832,13.563 0.832,14.667L0.832,18.667C0.832,19.772 1.82,20.667 3.04,20.667L5.248,20.667C6.467,20.667 7.456,19.772 7.456,18.667L7.456,14.667C7.456,13.563 6.467,12.667 5.248,12.667Z" clip-rule="evenodd" fill-rule="evenodd" fill="#010101"/>
</svg>
