<svg width="40" height="22" viewBox="0 0 40 22" fill="none" xmlns="http://www.w3.org/2000/svg" xmlns:xlink="http://www.w3.org/1999/xlink">
<path d="M37.431,-0.668L35.149,-0.668C33.888,-0.668 32.866,0.227 32.866,1.332L32.866,18.665C32.866,19.77 33.888,20.665 35.149,20.665L37.431,20.665C38.692,20.665 39.714,19.77 39.714,18.665L39.714,1.332C39.714,0.227 38.692,-0.668 37.431,-0.668ZM24.495,4.004L26.778,4.004C28.039,4.004 29.061,4.899 29.061,6.004L29.061,18.67C29.061,19.775 28.039,20.67 26.778,20.67L24.495,20.67C23.235,20.67 22.213,19.775 22.213,18.67L22.213,6.004C22.213,4.899 23.235,4.004 24.495,4.004ZM16.127,8.66L13.844,8.66C12.583,8.66 11.561,9.555 11.561,10.66L11.561,18.66C11.561,19.764 12.583,20.66 13.844,20.66L16.127,20.66C17.387,20.66 18.409,19.764 18.409,18.66L18.409,10.66C18.409,9.555 17.387,8.66 16.127,8.66ZM5.473,12.66L3.191,12.66C1.93,12.66 0.908,13.556 0.908,14.66L0.908,18.66C0.908,19.765 1.93,20.66 3.191,20.66L5.473,20.66C6.734,20.66 7.756,19.765 7.756,18.66L7.756,14.66C7.756,13.556 6.734,12.66 5.473,12.66Z" clip-rule="evenodd" fill-rule="evenodd" fill="#FFFFFF"/>
</svg>
