<svg width="40" height="22" viewBox="0 0 40 22" fill="none" xmlns="http://www.w3.org/2000/svg" xmlns:xlink="http://www.w3.org/1999/xlink">
<path d="M36.16,-0.667L33.952,-0.667C32.733,-0.667 31.744,0.228 31.744,1.333L31.744,18.666C31.744,19.771 32.733,20.666 33.952,20.666L36.16,20.666C37.379,20.666 38.368,19.771 38.368,18.666L38.368,1.333C38.368,0.228 37.379,-0.667 36.16,-0.667ZM23.648,4L25.856,4C27.075,4 28.064,4.895 28.064,6L28.064,18.666C28.064,19.771 27.075,20.666 25.856,20.666L23.648,20.666C22.429,20.666 21.44,19.771 21.44,18.666L21.44,6C21.44,4.895 22.429,4 23.648,4ZM15.552,8.666L13.344,8.666C12.125,8.666 11.136,9.562 11.136,10.666L11.136,18.666C11.136,19.771 12.125,20.666 13.344,20.666L15.552,20.666C16.772,20.666 17.76,19.771 17.76,18.666L17.76,10.666C17.76,9.562 16.772,8.666 15.552,8.666ZM5.248,12.666L3.04,12.666C1.821,12.666 0.832,13.562 0.832,14.666L0.832,18.666C0.832,19.771 1.821,20.666 3.04,20.666L5.248,20.666C6.467,20.666 7.456,19.771 7.456,18.666L7.456,14.666C7.456,13.562 6.467,12.666 5.248,12.666Z" clip-rule="evenodd" fill-rule="evenodd" fill="#FFFFFF"/>
</svg>
