<svg width="48" height="48" viewBox="0 0 48 48" fill="none" xmlns="http://www.w3.org/2000/svg" xmlns:xlink="http://www.w3.org/1999/xlink">
<path d="M34.213,17.659L32.013,17.659L32.013,11.799C32.013,9.497 31.099,7.289 29.471,5.661C27.843,4.034 25.635,3.119 23.333,3.119C21.031,3.119 18.823,4.034 17.195,5.661C15.568,7.289 14.653,9.497 14.653,11.799L14.653,17.659L12.453,17.659C11.127,17.659 9.855,18.186 8.918,19.124C7.98,20.061 7.453,21.333 7.453,22.659L7.453,37.879C7.457,39.204 7.985,40.474 8.922,41.411C9.859,42.348 11.128,42.876 12.453,42.879L34.213,42.879C35.538,42.876 36.808,42.348 37.745,41.411C38.682,40.474 39.21,39.204 39.213,37.879L39.213,22.659C39.213,21.333 38.686,20.061 37.749,19.124C36.811,18.186 35.539,17.659 34.213,17.659ZM16.653,11.799C16.653,10.028 17.357,8.328 18.61,7.076C19.862,5.823 21.561,5.119 23.333,5.119C25.105,5.119 26.804,5.823 28.057,7.076C29.309,8.328 30.013,10.028 30.013,11.799L30.013,17.659L16.653,17.659L16.653,11.799ZM37.213,37.879C37.208,38.673 36.89,39.433 36.329,39.995C35.767,40.556 35.007,40.874 34.213,40.879L12.453,40.879C11.659,40.874 10.899,40.556 10.338,39.995C9.776,39.433 9.458,38.673 9.453,37.879L9.453,22.659C9.453,21.864 9.769,21.1 10.332,20.538C10.894,19.975 11.657,19.659 12.453,19.659L34.213,19.659C35.009,19.659 35.772,19.975 36.335,20.538C36.897,21.1 37.213,21.864 37.213,22.659L37.213,37.879Z" fill="#010101" stroke="#010101" stroke-width="0.3" stroke-miterlimit="3.999327"/>
<path d="M25.334,28.9C25.336,29.25 25.244,29.594 25.068,29.897C24.893,30.199 24.639,30.449 24.334,30.62L24.334,33.62C24.334,33.886 24.229,34.14 24.041,34.327C23.854,34.515 23.599,34.62 23.334,34.62C23.069,34.62 22.814,34.515 22.627,34.327C22.439,34.14 22.334,33.886 22.334,33.62L22.334,30.62C22.029,30.449 21.775,30.199 21.6,29.897C21.424,29.594 21.332,29.25 21.334,28.9C21.334,28.37 21.545,27.861 21.92,27.486C22.295,27.111 22.804,26.9 23.334,26.9C23.864,26.9 24.373,27.111 24.748,27.486C25.123,27.861 25.334,28.37 25.334,28.9Z" fill="#010101"/>
</svg>
