<svg width="48" height="48" viewBox="0 0 48 48" fill="none" xmlns="http://www.w3.org/2000/svg" xmlns:xlink="http://www.w3.org/1999/xlink">
<path d="M34.879,17.659L32.679,17.659L32.679,11.799C32.679,9.497 31.765,7.289 30.137,5.661C28.509,4.034 26.301,3.119 23.999,3.119C21.697,3.119 19.489,4.034 17.861,5.661C16.234,7.289 15.319,9.497 15.319,11.799L15.319,17.659L13.119,17.659C11.793,17.659 10.521,18.186 9.584,19.124C8.646,20.061 8.119,21.333 8.119,22.659L8.119,37.879C8.123,39.204 8.651,40.474 9.588,41.411C10.525,42.348 11.794,42.876 13.119,42.879L34.879,42.879C36.204,42.876 37.474,42.348 38.411,41.411C39.348,40.474 39.876,39.204 39.879,37.879L39.879,22.659C39.879,21.333 39.352,20.061 38.415,19.124C37.477,18.186 36.205,17.659 34.879,17.659ZM17.319,11.799C17.319,10.028 18.023,8.328 19.276,7.076C20.528,5.823 22.228,5.119 23.999,5.119C25.771,5.119 27.47,5.823 28.723,7.076C29.975,8.328 30.679,10.028 30.679,11.799L30.679,17.659L17.319,17.659L17.319,11.799ZM37.879,37.879C37.874,38.673 37.556,39.433 36.995,39.995C36.433,40.556 35.673,40.874 34.879,40.879L13.119,40.879C12.325,40.874 11.565,40.556 11.004,39.995C10.442,39.433 10.124,38.673 10.119,37.879L10.119,22.659C10.119,21.864 10.435,21.1 10.998,20.538C11.56,19.975 12.324,19.659 13.119,19.659L34.879,19.659C35.675,19.659 36.438,19.975 37.001,20.538C37.563,21.1 37.879,21.864 37.879,22.659L37.879,37.879Z" fill="#010101" stroke="#010101" stroke-width="0.3" stroke-miterlimit="3.999327"/>
<path d="M26,28.9C26.002,29.25 25.91,29.594 25.734,29.897C25.559,30.199 25.305,30.449 25,30.62L25,33.62C25,33.886 24.895,34.14 24.707,34.327C24.52,34.515 24.265,34.62 24,34.62C23.735,34.62 23.48,34.515 23.293,34.327C23.105,34.14 23,33.886 23,33.62L23,30.62C22.695,30.449 22.441,30.199 22.266,29.897C22.09,29.594 21.998,29.25 22,28.9C22,28.37 22.211,27.861 22.586,27.486C22.961,27.111 23.47,26.9 24,26.9C24.53,26.9 25.039,27.111 25.414,27.486C25.789,27.861 26,28.37 26,28.9Z" fill="#010101"/>
</svg>
