<svg width="36" height="36" viewBox="0 0 36 36" fill="none" xmlns="http://www.w3.org/2000/svg" xmlns:xlink="http://www.w3.org/1999/xlink">
<path d="M31.542,17C31.542,24.479 25.479,30.542 18,30.542L18,33.458C27.09,33.458 34.458,26.09 34.458,17L31.542,17ZM18,30.542C10.521,30.542 4.458,24.479 4.458,17L1.542,17C1.542,26.09 8.91,33.458 18,33.458L18,30.542ZM4.458,17C4.458,9.521 10.521,3.458 18,3.458L18,0.542C8.91,0.542 1.542,7.91 1.542,17L4.458,17ZM18,3.458C25.479,3.458 31.542,9.521 31.542,17L34.458,17C34.458,7.91 27.09,0.542 18,0.542L18,3.458Z" fill="#5C5C5C"/>
<path d="M19.458,8C19.458,7.195 18.805,6.542 18,6.542C17.195,6.542 16.542,7.195 16.542,8L19.458,8ZM18,17L16.542,17C16.542,17.552 16.854,18.057 17.348,18.304L18,17ZM23.348,21.304C24.068,21.665 24.944,21.373 25.304,20.652C25.665,19.932 25.373,19.056 24.652,18.696L23.348,21.304ZM16.542,8L16.542,17L19.458,17L19.458,8L16.542,8ZM17.348,18.304L23.348,21.304L24.652,18.696L18.652,15.696L17.348,18.304Z" fill="#5C5C5C"/>
</svg>
