<svg width="452" height="828" viewBox="0 0 452 828" fill="none" xmlns="http://www.w3.org/2000/svg" xmlns:xlink="http://www.w3.org/1999/xlink">
<mask id="mask_0_1010_20556" style="mask-type:alpha" maskUnits="userSpaceOnUse" x="0" y="-1" width="225.200211" height="414.368347">
<path d="M0,53.048C0,23.198 24.198,-1 54.048,-1L396.352,-1C426.202,-1 450.4,23.198 450.4,53.048L450.4,537.678C425.526,537.678 405.36,557.844 405.36,582.718C405.36,607.594 425.526,627.758 450.4,627.758L450.4,773.688C450.4,803.538 426.202,827.736 396.352,827.736L54.048,827.736C24.198,827.736 0,803.538 0,773.688L0,627.758C24.875,627.758 45.04,607.594 45.04,582.718C45.04,557.844 24.875,537.678 0,537.678L0,53.048Z" fill="#C4C4C4"/>
</mask>
<path d="M0,53.048C0,23.198 24.198,-1 54.048,-1L396.352,-1C426.202,-1 450.4,23.198 450.4,53.048L450.4,537.678C425.526,537.678 405.36,557.844 405.36,582.718C405.36,607.594 425.526,627.758 450.4,627.758L450.4,773.688C450.4,803.538 426.202,827.736 396.352,827.736L54.048,827.736C24.198,827.736 0,803.538 0,773.688L0,627.758C24.875,627.758 45.04,607.594 45.04,582.718C45.04,557.844 24.875,537.678 0,537.678L0,53.048Z" stroke="#FFFFFF" stroke-opacity="0.3" stroke-width="1.735" stroke-miterlimit="3.999327"/>
<path d="M0,53.048C0,23.198 24.198,-1 54.048,-1L396.352,-1C426.202,-1 450.4,23.198 450.4,53.048L450.4,537.678C425.526,537.678 405.36,557.844 405.36,582.718C405.36,607.594 425.526,627.758 450.4,627.758L450.4,773.688C450.4,803.538 426.202,827.736 396.352,827.736L54.048,827.736C24.198,827.736 0,803.538 0,773.688L0,627.758C24.875,627.758 45.04,607.594 45.04,582.718C45.04,557.844 24.875,537.678 0,537.678L0,53.048Z" fill="url(#pattern_0_1010_20557)"/>
</svg>
