<svg width="20" height="20" viewBox="0 0 20 20" fill="none" xmlns="http://www.w3.org/2000/svg" xmlns:xlink="http://www.w3.org/1999/xlink">
<path d="M19.414,3.414C20.195,2.633 20.195,1.367 19.414,0.586C18.633,-0.195 17.367,-0.195 16.586,0.586L19.414,3.414ZM0.586,16.586C-0.195,17.367 -0.195,18.633 0.586,19.414C1.367,20.195 2.633,20.195 3.414,19.414L0.586,16.586ZM16.586,0.586L0.586,16.586L3.414,19.414L19.414,3.414L16.586,0.586Z" fill="#FFFFFF"/>
<path d="M3.414,0.586C2.633,-0.195 1.367,-0.195 0.586,0.586C-0.195,1.367 -0.195,2.633 0.586,3.414L3.414,0.586ZM16.586,19.414C17.367,20.195 18.633,20.195 19.414,19.414C20.195,18.633 20.195,17.367 19.414,16.586L16.586,19.414ZM0.586,3.414L16.586,19.414L19.414,16.586L3.414,0.586L0.586,3.414Z" fill="#FFFFFF"/>
</svg>
