<svg width="36" height="44" viewBox="0 0 36 44" fill="none" xmlns="http://www.w3.org/2000/svg" xmlns:xlink="http://www.w3.org/1999/xlink">
<line x1="0" y1="8.5" x2="36" y2="8.5" stroke="#010101" stroke-width="1.5" stroke-miterlimit="3.999327" stroke-linecap="round" stroke-linejoin="round"/>
<path d="M33.5,10C33.5,9.172 32.828,8.5 32,8.5C31.172,8.5 30.5,9.172 30.5,10L33.5,10ZM4,38L2.5,38L4,38ZM5.5,10C5.5,9.172 4.828,8.5 4,8.5C3.172,8.5 2.5,9.172 2.5,10L5.5,10ZM8.5,10C8.5,10.828 9.172,11.5 10,11.5C10.828,11.5 11.5,10.828 11.5,10L8.5,10ZM14,2L14,0.5L14,2ZM22,2L22,0.5L22,2ZM24.5,10C24.5,10.828 25.172,11.5 26,11.5C26.828,11.5 27.5,10.828 27.5,10L24.5,10ZM30.5,10L30.5,38L33.5,38L33.5,10L30.5,10ZM30.5,38C30.5,38.663 30.237,39.299 29.768,39.768L31.889,41.889C32.921,40.858 33.5,39.459 33.5,38L30.5,38ZM29.768,39.768C29.299,40.237 28.663,40.5 28,40.5L28,43.5C29.459,43.5 30.858,42.921 31.889,41.889L29.768,39.768ZM28,40.5L8,40.5L8,43.5L28,43.5L28,40.5ZM8,40.5C7.337,40.5 6.701,40.237 6.232,39.768L4.111,41.889C5.142,42.921 6.541,43.5 8,43.5L8,40.5ZM6.232,39.768C5.763,39.299 5.5,38.663 5.5,38L2.5,38C2.5,39.459 3.079,40.858 4.111,41.889L6.232,39.768ZM5.5,38L5.5,10L2.5,10L2.5,38L5.5,38ZM11.5,10L11.5,6L8.5,6L8.5,10L11.5,10ZM11.5,6C11.5,5.337 11.763,4.701 12.232,4.232L10.111,2.111C9.079,3.142 8.5,4.541 8.5,6L11.5,6ZM12.232,4.232C12.701,3.763 13.337,3.5 14,3.5L14,0.5C12.541,0.5 11.142,1.079 10.111,2.111L12.232,4.232ZM14,3.5L22,3.5L22,0.5L14,0.5L14,3.5ZM22,3.5C22.663,3.5 23.299,3.763 23.768,4.232L25.889,2.111C24.858,1.079 23.459,0.5 22,0.5L22,3.5ZM23.768,4.232C24.237,4.701 24.5,5.337 24.5,6L27.5,6C27.5,4.541 26.921,3.142 25.889,2.111L23.768,4.232ZM24.5,6L24.5,10L27.5,10L27.5,6L24.5,6Z" fill="#010101"/>
</svg>
