<svg width="34" height="44" viewBox="0 0 34 44" fill="none" xmlns="http://www.w3.org/2000/svg" xmlns:xlink="http://www.w3.org/1999/xlink">
<path d="M7,25L19,25L19,28L7,28L7,25ZM7,17.5L25,17.5L25,20.5L7,20.5L7,17.5ZM7,32.5L14.5,32.5L14.5,35.5L7,35.5L7,32.5Z" fill="#010101"/>
<path d="M29.5,5.5L25,5.5L25,4C25,3.204 24.684,2.441 24.121,1.879C23.559,1.316 22.796,1 22,1L10,1C9.204,1 8.441,1.316 7.879,1.879C7.316,2.441 7,3.204 7,4L7,5.5L2.5,5.5C1.704,5.5 0.941,5.816 0.379,6.379C-0.184,6.941 -0.5,7.704 -0.5,8.5L-0.5,40C-0.5,40.796 -0.184,41.559 0.379,42.121C0.941,42.684 1.704,43 2.5,43L29.5,43C30.296,43 31.059,42.684 31.621,42.121C32.184,41.559 32.5,40.796 32.5,40L32.5,8.5C32.5,7.704 32.184,6.941 31.621,6.379C31.059,5.816 30.296,5.5 29.5,5.5ZM10,4L22,4L22,10L10,10L10,4ZM29.5,40L2.5,40L2.5,8.5L7,8.5L7,13L25,13L25,8.5L29.5,8.5L29.5,40Z" fill="#010101"/>
</svg>
