<svg width="450" height="828" viewBox="0 0 450 828" fill="none" xmlns="http://www.w3.org/2000/svg" xmlns:xlink="http://www.w3.org/1999/xlink">
<mask id="mask_0_1010_20503" style="mask-type:alpha" maskUnits="userSpaceOnUse" x="0" y="-1" width="225" height="414">
<path d="M0,53C0,23.177 24.177,-1 54,-1L396,-1C425.824,-1 450,23.177 450,53L450,537.2C425.148,537.2 405,557.348 405,582.2C405,607.052 425.148,627.2 450,627.2L450,773C450,802.824 425.824,827 396,827L54,827C24.177,827 0,802.824 0,773L0,627.2C24.853,627.2 45,607.052 45,582.2C45,557.348 24.853,537.2 0,537.2L0,53Z" fill="#C4C4C4"/>
</mask>
<path d="M0,53C0,23.177 24.177,-1 54,-1L396,-1C425.824,-1 450,23.177 450,53L450,537.2C425.148,537.2 405,557.348 405,582.2C405,607.052 425.148,627.2 450,627.2L450,773C450,802.824 425.824,827 396,827L54,827C24.177,827 0,802.824 0,773L0,627.2C24.853,627.2 45,607.052 45,582.2C45,557.348 24.853,537.2 0,537.2L0,53Z" stroke="#FFFFFF" stroke-opacity="0.3" stroke-width="1.8" stroke-miterlimit="3.999327"/>
<path d="M0,53C0,23.177 24.177,-1 54,-1L396,-1C425.824,-1 450,23.177 450,53L450,537.2C425.148,537.2 405,557.348 405,582.2C405,607.052 425.148,627.2 450,627.2L450,773C450,802.824 425.824,827 396,827L54,827C24.177,827 0,802.824 0,773L0,627.2C24.853,627.2 45,607.052 45,582.2C45,557.348 24.853,537.2 0,537.2L0,53Z" fill="url(#pattern_0_1010_20504)"/>
</svg>
