<svg width="772" height="1422" viewBox="0 0 772 1422" fill="none" xmlns="http://www.w3.org/2000/svg" xmlns:xlink="http://www.w3.org/1999/xlink">
<mask id="mask_0_851_8611" style="mask-type:alpha" maskUnits="userSpaceOnUse" x="-0.001953" y="0" width="385.495422" height="709.311584">
<path d="M-0.002,92.519C-0.002,41.422 41.42,0 92.517,0L678.47,0C729.566,0 770.988,41.422 770.988,92.519L770.988,922.106C728.408,922.106 693.89,956.624 693.89,999.204C693.89,1041.784 728.408,1076.304 770.988,1076.304L770.988,1326.104C770.988,1377.202 729.566,1418.624 678.47,1418.624L92.517,1418.624C41.42,1418.624 -0.002,1377.202 -0.002,1326.104L-0.002,1076.304C42.579,1076.304 77.097,1041.784 77.097,999.204C77.097,956.624 42.579,922.106 -0.002,922.106L-0.002,92.519Z" fill="#C4C4C4"/>
</mask>
<path d="M-0.002,92.519C-0.002,41.422 41.42,0 92.517,0L678.47,0C729.566,0 770.988,41.422 770.988,92.519L770.988,922.106C728.408,922.106 693.89,956.624 693.89,999.204C693.89,1041.784 728.408,1076.304 770.988,1076.304L770.988,1326.104C770.988,1377.202 729.566,1418.624 678.47,1418.624L92.517,1418.624C41.42,1418.624 -0.002,1377.202 -0.002,1326.104L-0.002,1076.304C42.579,1076.304 77.097,1041.784 77.097,999.204C77.097,956.624 42.579,922.106 -0.002,922.106L-0.002,92.519Z" stroke="url(#ps_0_851_8610)" stroke-width="3.074" stroke-miterlimit="3.999327"/>
<path d="M-0.002,92.519C-0.002,41.422 41.42,0 92.517,0L678.47,0C729.566,0 770.988,41.422 770.988,92.519L770.988,922.106C728.408,922.106 693.89,956.624 693.89,999.204C693.89,1041.784 728.408,1076.304 770.988,1076.304L770.988,1326.104C770.988,1377.202 729.566,1418.624 678.47,1418.624L92.517,1418.624C41.42,1418.624 -0.002,1377.202 -0.002,1326.104L-0.002,1076.304C42.579,1076.304 77.097,1041.784 77.097,999.204C77.097,956.624 42.579,922.106 -0.002,922.106L-0.002,92.519Z" fill="url(#pattern_0_851_8612)"/>
<path d="M-0.002,92.519C-0.002,41.422 41.42,0 92.517,0L678.47,0C729.566,0 770.988,41.422 770.988,92.519L770.988,922.106C728.408,922.106 693.89,956.624 693.89,999.204C693.89,1041.784 728.408,1076.304 770.988,1076.304L770.988,1326.104C770.988,1377.202 729.566,1418.624 678.47,1418.624L92.517,1418.624C41.42,1418.624 -0.002,1377.202 -0.002,1326.104L-0.002,1076.304C42.579,1076.304 77.097,1041.784 77.097,999.204C77.097,956.624 42.579,922.106 -0.002,922.106L-0.002,92.519Z" fill="url(#pattern_1_851_8612)"/>
<rect  x="-0.563" y="1009.792" width="771.552" height="411.904" fill="#FFFFFF" fill-opacity="0.6"/>
<line x1="94.728" y1="1009.808" x2="709.511" y2="1009.793" stroke="#000000" stroke-opacity="0.6" stroke-width="3.074" stroke-miterlimit="3.999327" stroke-dasharray="12.296 12.296 "/>
<defs>
<linearGradient id="ps_0_851_8610" x1="43.174" y1="0" x2="444.089" y2="527.358" gradientUnits="userSpaceOnUse">
<stop stop-color="#09FBD3"/>
<stop offset="1" stop-color="#09FBD3" stop-opacity="0"/>
</linearGradient>
</defs>
</svg>
