<svg width="466" height="242" viewBox="0 0 466 242" fill="none" xmlns="http://www.w3.org/2000/svg" xmlns:xlink="http://www.w3.org/1999/xlink">
<path d="M22,242L67,242L67,232L22,232L22,242ZM92,217L92,166L82,166L82,217L92,217ZM67,141L24,141L24,151L67,151L67,141ZM9,126L9,78L-1,78L-1,126L9,126ZM24,63L170,63L170,53L24,53L24,63ZM185,78L185,185L195,185L195,78L185,78ZM210,210L421,210L421,200L210,200L210,210ZM446,185L446,29L436,29L436,185L446,185ZM421,210C434.808,210 446,198.807 446,185L436,185C436,193.284 429.284,200 421,200L421,210ZM185,185C185,198.807 196.193,210 210,210L210,200C201.716,200 195,193.284 195,185L185,185ZM170,63C178.284,63 185,69.716 185,78L195,78C195,64.193 183.807,53 170,53L170,63ZM9,78C9,69.716 15.716,63 24,63L24,53C10.193,53 -1,64.193 -1,78L9,78ZM24,141C15.716,141 9,134.284 9,126L-1,126C-1,139.807 10.193,151 24,151L24,141ZM92,166C92,152.193 80.807,141 67,141L67,151C75.284,151 82,157.716 82,166L92,166ZM67,242C80.807,242 92,230.808 92,217L82,217C82,225.284 75.284,232 67,232L67,242Z" fill="#FF1515"/>
<path d="M459.9,22.453L457.12,22.453C456.757,18.672 455.089,15.136 452.403,12.45C449.717,9.764 446.181,8.096 442.4,7.733L442.4,4.953C442.4,4.555 442.242,4.174 441.961,3.892C441.679,3.611 441.298,3.453 440.9,3.453C440.502,3.453 440.121,3.611 439.839,3.892C439.558,4.174 439.4,4.555 439.4,4.953L439.4,7.733C435.636,8.115 432.12,9.791 429.454,12.475C426.788,15.16 425.136,18.686 424.78,22.453L422,22.453C421.803,22.453 421.608,22.492 421.426,22.567C421.244,22.643 421.079,22.753 420.939,22.892C420.8,23.032 420.69,23.197 420.614,23.379C420.539,23.561 420.5,23.756 420.5,23.953C420.5,24.15 420.539,24.345 420.614,24.527C420.69,24.709 420.8,24.875 420.939,25.014C421.079,25.153 421.244,25.264 421.426,25.339C421.608,25.414 421.803,25.453 422,25.453L424.78,25.453C425.143,29.234 426.811,32.771 429.497,35.456C432.182,38.142 435.719,39.81 439.5,40.173L439.5,42.953C439.5,43.351 439.658,43.733 439.939,44.014C440.221,44.295 440.602,44.453 441,44.453C441.398,44.453 441.779,44.295 442.061,44.014C442.342,43.733 442.5,43.351 442.5,42.953L442.5,40.173C446.279,39.806 449.814,38.137 452.499,35.452C455.184,32.767 456.853,29.233 457.22,25.453L460,25.453C460.197,25.453 460.392,25.414 460.574,25.339C460.756,25.264 460.921,25.153 461.061,25.014C461.2,24.875 461.31,24.709 461.386,24.527C461.461,24.345 461.5,24.15 461.5,23.953C461.5,23.756 461.461,23.561 461.386,23.379C461.31,23.197 461.2,23.032 461.061,22.892C460.921,22.753 460.756,22.643 460.574,22.567C460.392,22.492 460.197,22.453 460,22.453L459.9,22.453ZM440.9,37.233C438.273,37.233 435.706,36.454 433.522,34.995C431.338,33.536 429.636,31.462 428.631,29.035C427.626,26.609 427.363,23.938 427.875,21.362C428.388,18.786 429.652,16.42 431.51,14.563C433.367,12.706 435.733,11.441 438.309,10.928C440.885,10.416 443.555,10.679 445.982,11.684C448.409,12.689 450.483,14.391 451.942,16.575C453.401,18.759 454.18,21.327 454.18,23.953C454.18,27.477 452.782,30.857 450.292,33.351C447.802,35.844 444.424,37.248 440.9,37.253L440.9,37.233Z" fill="#010101"/>
<path d="M449.961,23.975C449.961,25.771 449.428,27.528 448.429,29.021C447.431,30.515 446.011,31.679 444.351,32.365C442.691,33.052 440.864,33.231 439.102,32.879C437.34,32.527 435.722,31.66 434.453,30.388C433.184,29.116 432.321,27.496 431.973,25.734C431.625,23.971 431.807,22.145 432.498,20.486C433.188,18.827 434.355,17.41 435.851,16.415C437.347,15.42 439.104,14.891 440.901,14.895C442.092,14.895 443.272,15.13 444.373,15.586C445.473,16.043 446.473,16.712 447.314,17.555C448.156,18.399 448.823,19.4 449.277,20.501C449.731,21.603 449.963,22.783 449.961,23.975Z" fill="#010101"/>
</svg>
