<svg width="42" height="42" viewBox="0 0 42 42" fill="none" xmlns="http://www.w3.org/2000/svg" xmlns:xlink="http://www.w3.org/1999/xlink">
<path d="M36,24C36,24.53 35.789,25.039 35.414,25.414C35.039,25.789 34.53,26 34,26C33.47,26 32.961,25.789 32.586,25.414C32.211,25.039 32,24.53 32,24C32,23.47 32.211,22.961 32.586,22.586C32.961,22.211 33.47,22 34,22C34.53,22 35.039,22.211 35.414,22.586C35.789,22.961 36,23.47 36,24Z" fill="#010101"/>
<path d="M39.7,16.5C40.274,16.479 40.845,16.588 41.37,16.82C41.156,13.608 40.566,11.132 38.718,9.282C37.22,7.786 35.322,7.122 32.978,6.806L32.894,6.796C32.873,6.78 32.852,6.765 32.83,6.75L25.358,1.796C24.062,0.95 22.548,0.5 21,0.5C19.452,0.5 17.938,0.95 16.642,1.796L9.172,6.75C9.15,6.765 9.128,6.78 9.106,6.796L9.022,6.806C6.678,7.122 4.78,7.786 3.282,9.282C1.786,10.78 1.122,12.678 0.806,15.022C0.5,17.302 0.5,20.212 0.5,23.888L0.5,24.112C0.5,27.788 0.5,30.7 0.806,32.978C1.122,35.322 1.786,37.22 3.282,38.718C4.78,40.214 6.678,40.878 9.022,41.194C11.302,41.5 14.212,41.5 17.888,41.5L24.112,41.5C27.788,41.5 30.7,41.5 32.978,41.194C35.322,40.878 37.22,40.214 38.718,38.718C40.566,36.868 41.156,34.392 41.37,31.178C40.966,31.358 40.53,31.466 40.078,31.494C39.96,31.5 39.832,31.5 39.698,31.5L38.336,31.5C38.108,34.184 37.594,35.6 36.596,36.596C35.75,37.442 34.59,37.95 32.578,38.22C30.524,38.496 27.814,38.5 24,38.5L18,38.5C14.186,38.5 11.478,38.496 9.42,38.22C7.41,37.95 6.25,37.442 5.404,36.596C4.558,35.75 4.05,34.59 3.78,32.578C3.504,30.524 3.5,27.814 3.5,24C3.5,20.186 3.504,17.478 3.78,15.42C4.05,13.41 4.558,12.25 5.404,11.404C6.25,10.558 7.41,10.05 9.422,9.78C11.478,9.504 14.186,9.5 18,9.5L24,9.5C27.814,9.5 30.524,9.504 32.58,9.78C34.59,10.05 35.75,10.558 36.596,11.404C37.594,12.4 38.108,13.818 38.336,16.5L39.666,16.5L39.7,16.5ZM17.888,6.5L24.112,6.5C25.146,6.5 26.118,6.5 27.032,6.506L23.7,4.296C22.1,3.236 19.9,3.236 18.3,4.296L14.966,6.506C15.882,6.5 16.854,6.5 17.886,6.5Z" clip-rule="evenodd" fill-rule="evenodd" fill="#010101"/>
<path d="M36,24C36,24.53 35.789,25.039 35.414,25.414C35.039,25.789 34.53,26 34,26C33.47,26 32.961,25.789 32.586,25.414C32.211,25.039 32,24.53 32,24C32,23.47 32.211,22.961 32.586,22.586C32.961,22.211 33.47,22 34,22C34.53,22 35.039,22.211 35.414,22.586C35.789,22.961 36,23.47 36,24Z" fill="#010101"/>
<path d="M10,14.5C9.602,14.5 9.221,14.658 8.939,14.939C8.658,15.221 8.5,15.602 8.5,16C8.5,16.398 8.658,16.779 8.939,17.061C9.221,17.342 9.602,17.5 10,17.5L18,17.5C18.398,17.5 18.779,17.342 19.061,17.061C19.342,16.779 19.5,16.398 19.5,16C19.5,15.602 19.342,15.221 19.061,14.939C18.779,14.658 18.398,14.5 18,14.5L10,14.5Z" fill="#010101"/>
</svg>
