<svg width="602" height="1108" viewBox="0 0 602 1108" fill="none" xmlns="http://www.w3.org/2000/svg" xmlns:xlink="http://www.w3.org/1999/xlink">
<mask id="mask_0_1010_20508" style="mask-type:alpha" maskUnits="userSpaceOnUse" x="0.001953" y="0" width="300.435608" height="552.801514">
<path d="M0.002,72.105C0.002,32.282 32.284,0 72.107,0L528.768,0C568.59,0 600.874,32.282 600.874,72.105L600.874,718.642C567.688,718.642 540.786,745.544 540.786,778.73C540.786,811.914 567.688,838.816 600.874,838.816L600.874,1033.498C600.874,1073.32 568.59,1105.604 528.768,1105.604L72.107,1105.604C32.284,1105.604 0.002,1073.32 0.002,1033.498L0.002,838.816C33.187,838.816 60.089,811.914 60.089,778.73C60.089,745.544 33.187,718.642 0.002,718.642L0.002,72.105Z" fill="#C4C4C4"/>
</mask>
<path d="M0.002,72.105C0.002,32.282 32.284,0 72.107,0L528.768,0C568.59,0 600.874,32.282 600.874,72.105L600.874,718.642C567.688,718.642 540.786,745.544 540.786,778.73C540.786,811.914 567.688,838.816 600.874,838.816L600.874,1033.498C600.874,1073.32 568.59,1105.604 528.768,1105.604L72.107,1105.604C32.284,1105.604 0.002,1073.32 0.002,1033.498L0.002,838.816C33.187,838.816 60.089,811.914 60.089,778.73C60.089,745.544 33.187,718.642 0.002,718.642L0.002,72.105Z" stroke="url(#ps_0_1010_20507)" stroke-width="2.396" stroke-miterlimit="3.999327"/>
<path d="M0.002,72C0.002,32.236 32.238,0 72.002,0L528.002,0C567.766,0 600.002,32.236 600.002,72L600.002,717.6C566.864,717.6 540.002,744.462 540.002,777.6C540.002,810.738 566.864,837.6 600.002,837.6L600.002,1032C600.002,1071.764 567.766,1104 528.002,1104L72.002,1104C32.238,1104 0.002,1071.764 0.002,1032L0.002,837.6C33.139,837.6 60.002,810.738 60.002,777.6C60.002,744.462 33.139,717.6 0.002,717.6L0.002,72Z" fill="url(#pattern_0_1010_20509)"/>
<path d="M0.002,72C0.002,32.236 32.238,0 72.002,0L528.002,0C567.766,0 600.002,32.236 600.002,72L600.002,717.6C566.864,717.6 540.002,744.462 540.002,777.6C540.002,810.738 566.864,837.6 600.002,837.6L600.002,1032C600.002,1071.764 567.766,1104 528.002,1104L72.002,1104C32.238,1104 0.002,1071.764 0.002,1032L0.002,837.6C33.139,837.6 60.002,810.738 60.002,777.6C60.002,744.462 33.139,717.6 0.002,717.6L0.002,72Z" fill="url(#pattern_1_1010_20509)"/>
<rect  x="-0.436" y="786.981" width="601.309" height="321.017" fill="#FFFFFF" fill-opacity="0.8"/>
<line x1="73.83" y1="786.993" x2="552.961" y2="786.981" stroke="#000000" stroke-opacity="0.6" stroke-width="2.396" stroke-miterlimit="3.999327" stroke-dasharray="9.583 9.583 "/>
<defs>
<linearGradient id="ps_0_1010_20507" x1="33.651" y1="0" x2="346.104" y2="410.996" gradientUnits="userSpaceOnUse">
<stop stop-color="#09FBD3"/>
<stop offset="1" stop-color="#09FBD3" stop-opacity="0"/>
</linearGradient>
</defs>
</svg>
