<svg width="34" height="44" viewBox="0 0 34 44" fill="none" xmlns="http://www.w3.org/2000/svg" xmlns:xlink="http://www.w3.org/1999/xlink">
<path d="M16,25C14.517,25 13.067,24.56 11.833,23.736C10.6,22.912 9.639,21.741 9.071,20.37C8.503,19 8.355,17.492 8.644,16.037C8.934,14.582 9.648,13.246 10.697,12.197C11.746,11.148 13.082,10.434 14.537,10.144C15.992,9.855 17.5,10.003 18.87,10.571C20.241,11.139 21.412,12.1 22.236,13.333C23.06,14.567 23.5,16.017 23.5,17.5C23.498,19.488 22.707,21.395 21.301,22.801C19.895,24.207 17.988,24.998 16,25ZM16,13C15.11,13 14.24,13.264 13.5,13.758C12.76,14.253 12.183,14.956 11.843,15.778C11.502,16.6 11.413,17.505 11.586,18.378C11.76,19.251 12.189,20.053 12.818,20.682C13.447,21.311 14.249,21.74 15.122,21.914C15.995,22.087 16.9,21.998 17.722,21.657C18.544,21.317 19.247,20.74 19.742,20C20.236,19.26 20.5,18.39 20.5,17.5C20.499,16.307 20.024,15.163 19.181,14.319C18.337,13.476 17.193,13.001 16,13Z" fill="#010101"/>
<path d="M16,43L3.346,28.076C3.17,27.852 2.996,27.627 2.824,27.4C0.664,24.552 -0.504,21.075 -0.5,17.5C-0.5,13.124 1.238,8.927 4.333,5.833C7.427,2.738 11.624,1 16,1C20.376,1 24.573,2.738 27.667,5.833C30.762,8.927 32.5,13.124 32.5,17.5C32.503,21.073 31.336,24.549 29.178,27.396L29.176,27.4C29.176,27.4 28.726,27.991 28.659,28.071L16,43ZM5.219,25.593C5.219,25.593 5.569,26.054 5.648,26.153L16,38.362L26.365,26.137C26.431,26.054 26.782,25.59 26.784,25.588C28.549,23.262 29.504,20.421 29.5,17.5C29.5,13.92 28.078,10.486 25.546,7.954C23.014,5.422 19.58,4 16,4C12.42,4 8.986,5.422 6.454,7.954C3.922,10.486 2.5,13.92 2.5,17.5C2.496,20.422 3.452,23.265 5.219,25.593Z" fill="#010101"/>
</svg>
