<svg width="18" height="20" viewBox="0 0 18 20" fill="none" xmlns="http://www.w3.org/2000/svg" xmlns:xlink="http://www.w3.org/1999/xlink">
<path d="M6.586,16.586C5.805,17.367 5.805,18.633 6.586,19.414C7.367,20.195 8.633,20.195 9.414,19.414L6.586,16.586ZM16,10L17.414,11.414C18.195,10.633 18.195,9.367 17.414,8.586L16,10ZM9.414,0.586C8.633,-0.195 7.367,-0.195 6.586,0.586C5.805,1.367 5.805,2.633 6.586,3.414L9.414,0.586ZM9.414,19.414L17.414,11.414L14.586,8.586L6.586,16.586L9.414,19.414ZM17.414,8.586L9.414,0.586L6.586,3.414L14.586,11.414L17.414,8.586Z" fill="#010101"/>
<line x1="0" y1="8" x2="16" y2="8" stroke="#010101" stroke-width="2" stroke-miterlimit="3.999327" stroke-linecap="round" stroke-linejoin="round"/>
</svg>
