<svg width="48" height="48" viewBox="0 0 48 48" fill="none" xmlns="http://www.w3.org/2000/svg" xmlns:xlink="http://www.w3.org/1999/xlink">
<path d="M5,10L41,10L41,6L5,6L5,10ZM41,10C42.105,10 43,10.895 43,12L47,12C47,8.686 44.314,6 41,6L41,10ZM43,12L43,36L47,36L47,12L43,12ZM43,36C43,37.105 42.105,38 41,38L41,42C44.314,42 47,39.314 47,36L43,36ZM41,38L5,38L5,42L41,42L41,38ZM5,38C3.895,38 3,37.105 3,36L-1,36C-1,39.314 1.686,42 5,42L5,38ZM3,36L3,12L-1,12L-1,36L3,36ZM3,12C3,10.895 3.895,10 5,10L5,6C1.686,6 -1,8.686 -1,12L3,12Z" fill="#5C5C5C"/>
<line x1="1" y1="18" x2="45" y2="18" stroke="#5C5C5C" stroke-width="2" stroke-miterlimit="3.999327" stroke-linecap="round" stroke-linejoin="round"/>
</svg>
