<svg width="26" height="26" viewBox="0 0 26 26" fill="none" xmlns="http://www.w3.org/2000/svg" xmlns:xlink="http://www.w3.org/1999/xlink">
<line x1="13" y1="20.583" x2="22.75" y2="20.583" stroke="#010101" stroke-width="1.083" stroke-miterlimit="3.999327" stroke-linecap="round" stroke-linejoin="round"/>
<path d="M17.875,3.792L17.109,3.026L17.875,3.792ZM19.5,3.119L19.5,2.036L19.5,3.119ZM21.798,5.417L20.715,5.417L21.798,5.417ZM21.125,7.042L20.359,6.276L21.125,7.042ZM7.583,20.584L7.846,21.635C8.037,21.587 8.211,21.489 8.349,21.35L7.583,20.584ZM3.25,21.667L2.199,21.405C2.107,21.774 2.215,22.164 2.484,22.433C2.753,22.702 3.144,22.811 3.513,22.718L3.25,21.667ZM4.333,17.334L3.567,16.568C3.428,16.707 3.33,16.881 3.282,17.071L4.333,17.334ZM18.641,4.558C18.869,4.33 19.178,4.202 19.5,4.202L19.5,2.036C18.603,2.036 17.743,2.392 17.109,3.026L18.641,4.558ZM19.5,4.202C19.66,4.202 19.817,4.234 19.965,4.295L20.794,2.293C20.384,2.123 19.944,2.036 19.5,2.036L19.5,4.202ZM19.965,4.295C20.112,4.356 20.246,4.445 20.359,4.558L21.891,3.026C21.577,2.712 21.204,2.463 20.794,2.293L19.965,4.295ZM20.359,4.558C20.472,4.671 20.561,4.805 20.622,4.952L22.624,4.123C22.454,3.713 22.205,3.34 21.891,3.026L20.359,4.558ZM20.622,4.952C20.683,5.1 20.715,5.258 20.715,5.417L22.881,5.417C22.881,4.973 22.794,4.533 22.624,4.123L20.622,4.952ZM20.715,5.417C20.715,5.577 20.683,5.735 20.622,5.882L22.624,6.711C22.794,6.301 22.881,5.861 22.881,5.417L20.715,5.417ZM20.622,5.882C20.561,6.029 20.472,6.163 20.359,6.276L21.891,7.808C22.205,7.494 22.454,7.122 22.624,6.711L20.622,5.882ZM20.359,6.276L6.817,19.818L8.349,21.35L21.891,7.808L20.359,6.276ZM7.321,19.533L2.987,20.616L3.513,22.718L7.846,21.635L7.321,19.533ZM4.301,21.93L5.384,17.597L3.282,17.071L2.199,21.405L4.301,21.93ZM5.099,18.1L18.641,4.558L17.109,3.026L3.567,16.568L5.099,18.1Z" fill="#010101"/>
</svg>
