<svg width="34" height="34" viewBox="0 0 34 34" fill="none" xmlns="http://www.w3.org/2000/svg" xmlns:xlink="http://www.w3.org/1999/xlink">
<path d="M26.274,26.541C26.896,26.067 27.016,25.178 26.542,24.556C26.068,23.933 25.179,23.813 24.557,24.288L26.274,26.541ZM17,28.333L17,29.75L17.023,29.749L17,28.333ZM1.417,16.999L0.169,16.33C-0.049,16.735 -0.056,17.221 0.15,17.633L1.417,16.999ZM9.445,9.71C10.067,9.235 10.186,8.346 9.711,7.725C9.236,7.103 8.347,6.984 7.726,7.458L9.445,9.71ZM13.702,4.627C12.941,4.805 12.468,5.567 12.646,6.329C12.824,7.091 13.586,7.564 14.348,7.385L13.702,4.627ZM17,5.666L16.997,7.083L17,7.083L17,5.666ZM32.584,16.999L33.833,17.667C34.05,17.262 34.056,16.777 33.851,16.366L32.584,16.999ZM28.44,20.606C27.936,21.205 28.013,22.099 28.612,22.603C29.21,23.106 30.104,23.029 30.608,22.431L28.44,20.606ZM21.04,20.968C21.573,20.396 21.542,19.5 20.969,18.966C20.397,18.433 19.501,18.465 18.967,19.037L21.04,20.968ZM14.963,15.032C15.535,14.499 15.567,13.603 15.033,13.03C14.5,12.458 13.604,12.426 13.031,12.96L14.963,15.032ZM24.557,24.288C22.375,25.95 19.719,26.871 16.977,26.916L17.023,29.749C20.37,29.694 23.612,28.57 26.274,26.541L24.557,24.288ZM17,26.916C12.608,26.916 9.061,24.404 6.523,21.697C5.268,20.358 4.301,19.013 3.647,18.002C3.322,17.497 3.076,17.08 2.915,16.792C2.834,16.648 2.774,16.537 2.735,16.464C2.716,16.428 2.702,16.401 2.693,16.384C2.689,16.376 2.686,16.37 2.685,16.367C2.684,16.365 2.683,16.365 2.683,16.364C2.683,16.364 2.683,16.364 2.683,16.365C2.684,16.365 2.684,16.365 2.684,16.365C2.684,16.365 2.684,16.366 1.417,16.999C0.15,17.633 0.15,17.633 0.15,17.634C0.151,17.634 0.151,17.635 0.151,17.635C0.151,17.636 0.152,17.637 0.153,17.638C0.154,17.641 0.156,17.644 0.158,17.648C0.162,17.656 0.167,17.666 0.174,17.68C0.187,17.706 0.206,17.743 0.231,17.789C0.28,17.882 0.352,18.015 0.445,18.181C0.632,18.513 0.907,18.981 1.267,19.539C1.987,20.653 3.056,22.141 4.456,23.635C7.232,26.595 11.476,29.749 17,29.749L17,26.916ZM2.665,17.669C4.332,14.563 6.644,11.85 9.445,9.71L7.726,7.458C4.603,9.843 2.026,12.868 0.169,16.33L2.665,17.669ZM14.348,7.385C15.216,7.182 16.105,7.081 16.997,7.083L17.004,4.249C15.892,4.247 14.785,4.373 13.702,4.627L14.348,7.385ZM17,7.083C21.393,7.083 24.94,9.595 27.477,12.302C28.733,13.641 29.7,14.986 30.353,15.997C30.679,16.501 30.924,16.919 31.086,17.207C31.167,17.351 31.227,17.462 31.265,17.535C31.285,17.571 31.299,17.598 31.307,17.615C31.311,17.623 31.314,17.629 31.316,17.632C31.317,17.633 31.317,17.634 31.317,17.634C31.317,17.634 31.317,17.634 31.317,17.634C31.317,17.634 31.317,17.634 31.317,17.634C31.317,17.633 31.317,17.633 32.584,16.999C33.851,16.366 33.851,16.365 33.85,16.365C33.85,16.365 33.85,16.364 33.85,16.364C33.849,16.363 33.849,16.362 33.848,16.36C33.847,16.358 33.845,16.355 33.843,16.351C33.839,16.343 33.834,16.332 33.827,16.319C33.814,16.293 33.794,16.256 33.77,16.209C33.72,16.116 33.649,15.984 33.556,15.818C33.369,15.486 33.094,15.018 32.733,14.46C32.014,13.346 30.945,11.858 29.544,10.364C26.769,7.404 22.525,4.249 17,4.249L17,7.083ZM31.334,16.332C30.521,17.853 29.551,19.286 28.44,20.606L30.608,22.431C31.846,20.959 32.927,19.363 33.833,17.667L31.334,16.332ZM18.967,19.037C18.708,19.315 18.395,19.539 18.047,19.693L19.201,22.281C19.896,21.972 20.521,21.525 21.04,20.968L18.967,19.037ZM18.047,19.693C17.7,19.848 17.325,19.932 16.944,19.938L16.994,22.771C17.755,22.758 18.506,22.591 19.201,22.281L18.047,19.693ZM16.944,19.938C16.564,19.945 16.186,19.875 15.833,19.733L14.772,22.36C15.478,22.645 16.233,22.785 16.994,22.771L16.944,19.938ZM15.833,19.733C15.48,19.59 15.16,19.378 14.891,19.109L12.887,21.112C13.425,21.65 14.066,22.075 14.772,22.36L15.833,19.733ZM14.891,19.109C14.622,18.84 14.41,18.519 14.267,18.167L11.64,19.228C11.925,19.933 12.349,20.574 12.887,21.112L14.891,19.109ZM14.267,18.167C14.125,17.814 14.055,17.436 14.061,17.055L11.229,17.005C11.215,17.766 11.355,18.522 11.64,19.228L14.267,18.167ZM14.061,17.055C14.068,16.675 14.151,16.3 14.306,15.952L11.718,14.799C11.408,15.494 11.242,16.245 11.229,17.005L14.061,17.055ZM14.306,15.952C14.461,15.605 14.684,15.292 14.963,15.032L13.031,12.96C12.474,13.478 12.028,14.104 11.718,14.799L14.306,15.952Z" fill="#FFFFFF"/>
<path d="M2.419,0.414C1.865,-0.139 0.969,-0.139 0.415,0.414C-0.138,0.968 -0.138,1.865 0.415,2.418L2.419,0.414ZM31.582,33.584C32.135,34.138 33.032,34.138 33.585,33.584C34.139,33.031 34.139,32.134 33.585,31.581L31.582,33.584ZM0.415,2.418L31.582,33.584L33.585,31.581L2.419,0.414L0.415,2.418Z" fill="#FFFFFF"/>
</svg>
