<svg width="34" height="36" viewBox="0 0 34 36" fill="none" xmlns="http://www.w3.org/2000/svg" xmlns:xlink="http://www.w3.org/1999/xlink">
<path d="M26.274,27.542C26.896,27.067 27.016,26.178 26.542,25.556C26.067,24.934 25.178,24.814 24.556,25.288L26.274,27.542ZM17,29.333L17,30.75L17.023,30.75L17,29.333ZM1.417,18L0.168,17.33C-0.049,17.736 -0.056,18.222 0.149,18.633L1.417,18ZM9.445,10.711C10.066,10.236 10.186,9.347 9.711,8.725C9.236,8.103 8.347,7.984 7.725,8.459L9.445,10.711ZM13.702,5.627C12.94,5.805 12.467,6.568 12.645,7.329C12.824,8.091 13.586,8.564 14.348,8.386L13.702,5.627ZM17,6.667L16.997,8.083L17,8.083L17,6.667ZM32.583,18L33.833,18.668C34.049,18.262 34.056,17.777 33.85,17.366L32.583,18ZM28.439,21.607C27.936,22.206 28.012,23.099 28.611,23.603C29.21,24.107 30.103,24.03 30.607,23.431L28.439,21.607ZM21.04,21.969C21.573,21.397 21.541,20.5 20.969,19.967C20.397,19.433 19.5,19.465 18.967,20.037L21.04,21.969ZM14.962,16.033C15.535,15.5 15.566,14.603 15.033,14.031C14.5,13.458 13.603,13.427 13.031,13.96L14.962,16.033ZM24.556,25.288C22.375,26.951 19.719,27.872 16.977,27.917L17.023,30.75C20.37,30.695 23.612,29.571 26.274,27.542L24.556,25.288ZM17,27.917C12.607,27.917 9.06,25.404 6.523,22.698C5.267,21.358 4.3,20.013 3.647,19.002C3.321,18.498 3.076,18.08 2.914,17.792C2.833,17.649 2.773,17.537 2.735,17.465C2.715,17.428 2.702,17.401 2.693,17.385C2.689,17.376 2.686,17.371 2.684,17.368C2.683,17.366 2.683,17.365 2.683,17.365C2.683,17.365 2.683,17.365 2.683,17.365C2.683,17.365 2.683,17.366 2.683,17.366C2.683,17.366 2.684,17.366 1.417,18C0.149,18.633 0.15,18.634 0.15,18.634C0.15,18.635 0.15,18.635 0.151,18.636C0.151,18.637 0.152,18.638 0.152,18.639C0.153,18.642 0.155,18.645 0.157,18.649C0.161,18.656 0.166,18.667 0.173,18.68C0.187,18.706 0.206,18.743 0.23,18.79C0.28,18.883 0.351,19.015 0.445,19.181C0.631,19.513 0.906,19.981 1.267,20.539C1.986,21.653 3.055,23.142 4.456,24.635C7.231,27.596 11.476,30.75 17,30.75L17,27.917ZM2.665,18.67C4.331,15.564 6.643,12.85 9.445,10.711L7.725,8.459C4.602,10.843 2.026,13.868 0.168,17.33L2.665,18.67ZM14.348,8.386C15.216,8.183 16.105,8.081 16.997,8.083L17.003,5.25C15.892,5.247 14.784,5.374 13.702,5.627L14.348,8.386ZM17,8.083C21.392,8.083 24.94,10.596 27.477,13.302C28.733,14.642 29.7,15.986 30.353,16.998C30.679,17.502 30.924,17.92 31.086,18.207C31.167,18.351 31.226,18.462 31.265,18.535C31.284,18.572 31.298,18.598 31.307,18.615C31.311,18.623 31.314,18.629 31.316,18.632C31.316,18.634 31.317,18.635 31.317,18.635C31.317,18.635 31.317,18.635 31.317,18.635C31.317,18.635 31.317,18.634 31.317,18.634C31.316,18.634 31.316,18.633 32.583,18C33.85,17.366 33.85,17.366 33.85,17.365C33.85,17.365 33.849,17.365 33.849,17.364C33.849,17.363 33.848,17.362 33.848,17.361C33.846,17.358 33.845,17.355 33.843,17.351C33.839,17.343 33.833,17.333 33.827,17.32C33.813,17.293 33.794,17.257 33.769,17.21C33.72,17.117 33.649,16.984 33.555,16.818C33.368,16.486 33.093,16.019 32.733,15.46C32.014,14.347 30.944,12.858 29.544,11.364C26.769,8.404 22.524,5.25 17,5.25L17,8.083ZM31.334,17.332C30.52,18.854 29.55,20.287 28.439,21.607L30.607,23.431C31.845,21.96 32.926,20.363 33.833,18.668L31.334,17.332ZM18.967,20.037C18.707,20.316 18.395,20.539 18.047,20.694L19.2,23.282C19.895,22.972 20.521,22.526 21.04,21.969L18.967,20.037ZM18.047,20.694C17.699,20.849 17.324,20.932 16.944,20.939L16.994,23.772C17.755,23.758 18.505,23.592 19.2,23.282L18.047,20.694ZM16.944,20.939C16.563,20.945 16.185,20.876 15.833,20.733L14.772,23.36C15.477,23.645 16.233,23.785 16.994,23.772L16.944,20.939ZM15.833,20.733C15.48,20.591 15.159,20.378 14.89,20.109L12.887,22.113C13.425,22.651 14.066,23.075 14.772,23.36L15.833,20.733ZM14.89,20.109C14.621,19.84 14.409,19.52 14.267,19.167L11.64,20.228C11.925,20.934 12.349,21.575 12.887,22.113L14.89,20.109ZM14.267,19.167C14.124,18.814 14.054,18.436 14.061,18.056L11.228,18.006C11.215,18.767 11.355,19.523 11.64,20.228L14.267,19.167ZM14.061,18.056C14.068,17.675 14.151,17.3 14.306,16.953L11.718,15.8C11.408,16.495 11.241,17.245 11.228,18.006L14.061,18.056ZM14.306,16.953C14.461,16.605 14.684,16.292 14.962,16.033L13.031,13.96C12.474,14.479 12.027,15.104 11.718,15.8L14.306,16.953Z" fill="#969696"/>
<path d="M2.418,1.415C1.865,0.862 0.968,0.862 0.415,1.415C-0.138,1.968 -0.138,2.865 0.415,3.418L2.418,1.415ZM31.582,34.585C32.135,35.138 33.032,35.138 33.585,34.585C34.138,34.032 34.138,33.135 33.585,32.582L31.582,34.585ZM0.415,3.418L31.582,34.585L33.585,32.582L2.418,1.415L0.415,3.418Z" fill="#969696"/>
</svg>
