<svg width="34" height="34" viewBox="0 0 34 34" fill="none" xmlns="http://www.w3.org/2000/svg" xmlns:xlink="http://www.w3.org/1999/xlink">
<path d="M1.417,16L0.149,15.366C-0.05,15.765 -0.05,16.235 0.149,16.633L1.417,16ZM32.583,16L33.85,16.633C34.05,16.235 34.05,15.765 33.85,15.366L32.583,16ZM1.417,16C2.684,16.633 2.683,16.634 2.683,16.634C2.683,16.634 2.683,16.634 2.683,16.635C2.683,16.635 2.683,16.635 2.683,16.635C2.683,16.635 2.683,16.634 2.684,16.632C2.686,16.629 2.689,16.623 2.693,16.615C2.702,16.598 2.715,16.572 2.735,16.535C2.773,16.462 2.833,16.351 2.914,16.207C3.076,15.92 3.321,15.502 3.647,14.998C4.3,13.986 5.267,12.641 6.523,11.302C9.06,8.596 12.607,6.083 17,6.083L17,3.25C11.476,3.25 7.231,6.404 4.456,9.364C3.055,10.858 1.986,12.347 1.267,13.46C0.906,14.019 0.631,14.486 0.445,14.818C0.351,14.984 0.28,15.117 0.23,15.21C0.206,15.257 0.187,15.293 0.173,15.32C0.166,15.333 0.161,15.343 0.157,15.351C0.155,15.355 0.153,15.358 0.152,15.361C0.152,15.362 0.151,15.363 0.151,15.364C0.15,15.364 0.15,15.365 0.15,15.365C0.15,15.366 0.149,15.366 1.417,16ZM17,6.083C21.392,6.083 24.94,8.596 27.477,11.302C28.733,12.641 29.7,13.986 30.353,14.998C30.679,15.502 30.924,15.92 31.086,16.207C31.167,16.351 31.226,16.462 31.265,16.535C31.284,16.572 31.298,16.598 31.307,16.615C31.311,16.623 31.314,16.629 31.316,16.632C31.316,16.634 31.317,16.635 31.317,16.635C31.317,16.635 31.317,16.635 31.317,16.635C31.317,16.634 31.317,16.634 31.317,16.634C31.316,16.634 31.316,16.633 32.583,16C33.85,15.366 33.85,15.366 33.85,15.365C33.85,15.365 33.849,15.364 33.849,15.364C33.849,15.363 33.848,15.362 33.848,15.361C33.846,15.358 33.845,15.355 33.843,15.351C33.839,15.343 33.833,15.333 33.827,15.32C33.813,15.293 33.794,15.257 33.769,15.21C33.72,15.117 33.649,14.984 33.555,14.818C33.368,14.486 33.093,14.019 32.733,13.46C32.014,12.347 30.944,10.858 29.544,9.364C26.769,6.404 22.524,3.25 17,3.25L17,6.083ZM32.583,16C31.316,15.366 31.316,15.366 31.317,15.366C31.317,15.365 31.317,15.365 31.317,15.365C31.317,15.365 31.317,15.365 31.317,15.365C31.317,15.365 31.316,15.366 31.316,15.367C31.314,15.371 31.311,15.376 31.307,15.385C31.298,15.401 31.284,15.428 31.265,15.465C31.226,15.537 31.167,15.648 31.086,15.792C30.924,16.08 30.679,16.498 30.353,17.002C29.7,18.013 28.733,19.358 27.477,20.698C24.94,23.404 21.392,25.917 17,25.917L17,28.75C22.524,28.75 26.769,25.596 29.544,22.635C30.944,21.141 32.014,19.653 32.733,18.539C33.093,17.981 33.368,17.513 33.555,17.181C33.649,17.015 33.72,16.883 33.769,16.79C33.794,16.743 33.813,16.706 33.827,16.68C33.833,16.667 33.839,16.656 33.843,16.649C33.845,16.645 33.846,16.641 33.848,16.639C33.848,16.638 33.849,16.637 33.849,16.636C33.849,16.635 33.85,16.635 33.85,16.634C33.85,16.634 33.85,16.633 32.583,16ZM17,25.917C12.607,25.917 9.06,23.404 6.523,20.698C5.267,19.358 4.3,18.013 3.647,17.002C3.321,16.498 3.076,16.08 2.914,15.792C2.833,15.648 2.773,15.537 2.735,15.465C2.715,15.428 2.702,15.401 2.693,15.385C2.689,15.376 2.686,15.371 2.684,15.367C2.683,15.366 2.683,15.365 2.683,15.365C2.683,15.365 2.683,15.365 2.683,15.365C2.683,15.365 2.683,15.365 2.683,15.366C2.683,15.366 2.684,15.366 1.417,16C0.149,16.633 0.15,16.634 0.15,16.634C0.15,16.635 0.15,16.635 0.151,16.636C0.151,16.637 0.152,16.638 0.152,16.639C0.153,16.641 0.155,16.645 0.157,16.649C0.161,16.656 0.166,16.667 0.173,16.68C0.187,16.706 0.206,16.743 0.23,16.79C0.28,16.883 0.351,17.015 0.445,17.181C0.631,17.513 0.906,17.981 1.267,18.539C1.986,19.653 3.055,21.141 4.456,22.635C7.231,25.596 11.476,28.75 17,28.75L17,25.917Z" fill="#969696"/>
<path d="M19.833,16C19.833,17.565 18.565,18.833 17,18.833L17,21.667C20.13,21.667 22.667,19.13 22.667,16L19.833,16ZM17,18.833C15.435,18.833 14.167,17.565 14.167,16L11.333,16C11.333,19.13 13.87,21.667 17,21.667L17,18.833ZM14.167,16C14.167,14.435 15.435,13.167 17,13.167L17,10.333C13.87,10.333 11.333,12.87 11.333,16L14.167,16ZM17,13.167C18.565,13.167 19.833,14.435 19.833,16L22.667,16C22.667,12.87 20.13,10.333 17,10.333L17,13.167Z" fill="#969696"/>
</svg>
