<svg width="34" height="34" viewBox="0 0 34 34" fill="none" xmlns="http://www.w3.org/2000/svg" xmlns:xlink="http://www.w3.org/1999/xlink">
<path d="M25.274,26.541C25.896,26.067 26.016,25.178 25.542,24.556C25.068,23.933 24.179,23.813 23.557,24.288L25.274,26.541ZM16,28.333L16,29.75L16.023,29.749L16,28.333ZM0.417,16.999L-0.831,16.33C-1.049,16.735 -1.056,17.221 -0.85,17.633L0.417,16.999ZM8.445,9.71C9.067,9.235 9.186,8.346 8.711,7.725C8.236,7.103 7.347,6.984 6.726,7.458L8.445,9.71ZM12.702,4.627C11.941,4.805 11.468,5.567 11.646,6.329C11.824,7.091 12.586,7.564 13.348,7.385L12.702,4.627ZM16,5.666L15.997,7.083L16,7.083L16,5.666ZM31.584,16.999L32.833,17.667C33.05,17.262 33.056,16.777 32.851,16.366L31.584,16.999ZM27.44,20.606C26.936,21.205 27.013,22.099 27.612,22.603C28.21,23.106 29.104,23.029 29.608,22.431L27.44,20.606ZM20.04,20.968C20.573,20.396 20.542,19.5 19.969,18.966C19.397,18.433 18.501,18.465 17.967,19.037L20.04,20.968ZM13.963,15.032C14.535,14.499 14.567,13.603 14.033,13.03C13.5,12.458 12.604,12.426 12.031,12.96L13.963,15.032ZM23.557,24.288C21.375,25.95 18.719,26.871 15.977,26.916L16.023,29.749C19.37,29.694 22.612,28.57 25.274,26.541L23.557,24.288ZM16,26.916C11.608,26.916 8.061,24.404 5.523,21.697C4.268,20.358 3.301,19.013 2.647,18.002C2.322,17.497 2.076,17.08 1.915,16.792C1.834,16.648 1.774,16.537 1.735,16.464C1.716,16.428 1.702,16.401 1.693,16.384C1.689,16.376 1.686,16.37 1.685,16.367C1.684,16.365 1.683,16.365 1.683,16.364C1.683,16.364 1.683,16.364 1.683,16.365C1.684,16.365 1.684,16.365 1.684,16.365C1.684,16.365 1.684,16.366 0.417,16.999C-0.85,17.633 -0.85,17.633 -0.85,17.634C-0.849,17.634 -0.849,17.635 -0.849,17.635C-0.849,17.636 -0.848,17.637 -0.847,17.638C-0.846,17.641 -0.844,17.644 -0.842,17.648C-0.838,17.656 -0.833,17.666 -0.826,17.68C-0.813,17.706 -0.794,17.743 -0.769,17.789C-0.72,17.882 -0.648,18.015 -0.555,18.181C-0.368,18.513 -0.093,18.981 0.267,19.539C0.987,20.653 2.056,22.141 3.456,23.635C6.232,26.595 10.476,29.749 16,29.749L16,26.916ZM1.665,17.669C3.332,14.563 5.644,11.85 8.445,9.71L6.726,7.458C3.603,9.843 1.026,12.868 -0.831,16.33L1.665,17.669ZM13.348,7.385C14.216,7.182 15.105,7.081 15.997,7.083L16.004,4.249C14.892,4.247 13.785,4.373 12.702,4.627L13.348,7.385ZM16,7.083C20.393,7.083 23.94,9.595 26.477,12.302C27.733,13.641 28.7,14.986 29.353,15.997C29.679,16.501 29.924,16.919 30.086,17.207C30.167,17.351 30.227,17.462 30.265,17.535C30.285,17.571 30.299,17.598 30.307,17.615C30.311,17.623 30.314,17.629 30.316,17.632C30.317,17.633 30.317,17.634 30.317,17.634C30.317,17.634 30.317,17.634 30.317,17.634C30.317,17.634 30.317,17.634 30.317,17.634C30.317,17.633 30.317,17.633 31.584,16.999C32.851,16.366 32.851,16.365 32.85,16.365C32.85,16.365 32.85,16.364 32.85,16.364C32.849,16.363 32.849,16.362 32.848,16.36C32.847,16.358 32.845,16.355 32.843,16.351C32.839,16.343 32.834,16.332 32.827,16.319C32.814,16.293 32.794,16.256 32.77,16.209C32.72,16.116 32.649,15.984 32.556,15.818C32.369,15.486 32.094,15.018 31.733,14.46C31.014,13.346 29.945,11.858 28.544,10.364C25.769,7.404 21.525,4.249 16,4.249L16,7.083ZM30.334,16.332C29.521,17.853 28.551,19.286 27.44,20.606L29.608,22.431C30.846,20.959 31.927,19.363 32.833,17.667L30.334,16.332ZM17.967,19.037C17.708,19.315 17.395,19.539 17.047,19.693L18.201,22.281C18.896,21.972 19.521,21.525 20.04,20.968L17.967,19.037ZM17.047,19.693C16.7,19.848 16.325,19.932 15.944,19.938L15.994,22.771C16.755,22.758 17.506,22.591 18.201,22.281L17.047,19.693ZM15.944,19.938C15.564,19.945 15.186,19.875 14.833,19.733L13.772,22.36C14.478,22.645 15.233,22.785 15.994,22.771L15.944,19.938ZM14.833,19.733C14.48,19.59 14.16,19.378 13.891,19.109L11.887,21.112C12.425,21.65 13.066,22.075 13.772,22.36L14.833,19.733ZM13.891,19.109C13.622,18.84 13.41,18.519 13.267,18.167L10.64,19.228C10.925,19.933 11.349,20.574 11.887,21.112L13.891,19.109ZM13.267,18.167C13.125,17.814 13.055,17.436 13.061,17.055L10.229,17.005C10.215,17.766 10.355,18.522 10.64,19.228L13.267,18.167ZM13.061,17.055C13.068,16.675 13.151,16.3 13.306,15.952L10.718,14.799C10.408,15.494 10.242,16.245 10.229,17.005L13.061,17.055ZM13.306,15.952C13.461,15.605 13.684,15.292 13.963,15.032L12.031,12.96C11.474,13.478 11.028,14.104 10.718,14.799L13.306,15.952Z" fill="#FFFFFF"/>
<path d="M1.419,0.414C0.865,-0.139 -0.031,-0.139 -0.585,0.414C-1.138,0.968 -1.138,1.865 -0.585,2.418L1.419,0.414ZM30.582,33.584C31.135,34.138 32.032,34.138 32.585,33.584C33.139,33.031 33.139,32.134 32.585,31.581L30.582,33.584ZM-0.585,2.418L30.582,33.584L32.585,31.581L1.419,0.414L-0.585,2.418Z" fill="#FFFFFF"/>
</svg>
