<svg width="48" height="48" viewBox="0 0 48 48" fill="none" xmlns="http://www.w3.org/2000/svg" xmlns:xlink="http://www.w3.org/1999/xlink">
<path d="M27,4L28.414,2.586C28.039,2.211 27.53,2 27,2L27,4ZM11,4L11,2L11,4ZM7,8L5,8L7,8ZM7,40L5,40L7,40ZM39,16L41,16C41,15.47 40.789,14.961 40.414,14.586L39,16ZM27,2L11,2L11,6L27,6L27,2ZM11,2C9.409,2 7.883,2.632 6.757,3.757L9.586,6.586C9.961,6.211 10.47,6 11,6L11,2ZM6.757,3.757C5.632,4.883 5,6.409 5,8L9,8C9,7.47 9.211,6.961 9.586,6.586L6.757,3.757ZM5,8L5,40L9,40L9,8L5,8ZM5,40C5,41.591 5.632,43.117 6.757,44.243L9.586,41.414C9.211,41.039 9,40.53 9,40L5,40ZM6.757,44.243C7.883,45.368 9.409,46 11,46L11,42C10.47,42 9.961,41.789 9.586,41.414L6.757,44.243ZM11,46L35,46L35,42L11,42L11,46ZM35,46C36.591,46 38.117,45.368 39.243,44.243L36.414,41.414C36.039,41.789 35.53,42 35,42L35,46ZM39.243,44.243C40.368,43.117 41,41.591 41,40L37,40C37,40.53 36.789,41.039 36.414,41.414L39.243,44.243ZM41,40L41,16L37,16L37,40L41,40ZM40.414,14.586L28.414,2.586L25.586,5.414L37.586,17.414L40.414,14.586Z" fill="#5C5C5C"/>
<path d="M29,4C29,2.895 28.105,2 27,2C25.895,2 25,2.895 25,4L29,4ZM27,16L25,16C25,17.105 25.895,18 27,18L27,16ZM39,18C40.105,18 41,17.105 41,16C41,14.895 40.105,14 39,14L39,18ZM25,4L25,16L29,16L29,4L25,4ZM27,18L39,18L39,14L27,14L27,18Z" fill="#5C5C5C"/>
<line x1="15" y1="24" x2="31" y2="24" stroke="#5C5C5C" stroke-width="2" stroke-miterlimit="3.999327" stroke-linecap="round" stroke-linejoin="round"/>
<line x1="15" y1="32" x2="31" y2="32" stroke="#5C5C5C" stroke-width="2" stroke-miterlimit="3.999327" stroke-linecap="round" stroke-linejoin="round"/>
<line x1="15" y1="16" x2="19" y2="16" stroke="#5C5C5C" stroke-width="2" stroke-miterlimit="3.999327" stroke-linecap="round" stroke-linejoin="round"/>
</svg>
