<svg width="26" height="34" viewBox="0 0 26 34" fill="none" xmlns="http://www.w3.org/2000/svg" xmlns:xlink="http://www.w3.org/1999/xlink">
<path d="M13.482,15.355C13.979,16.017 14.919,16.152 15.582,15.655C16.245,15.158 16.379,14.217 15.882,13.555L13.482,15.355ZM10.046,8.273L8.846,7.373C8.446,7.906 8.446,8.639 8.846,9.173L10.046,8.273ZM15.882,2.991C16.379,2.328 16.245,1.388 15.582,0.891C14.919,0.394 13.979,0.528 13.482,1.191L15.882,2.991ZM15.882,13.555L11.246,7.373L8.846,9.173L13.482,15.355L15.882,13.555ZM11.246,9.173L15.882,2.991L13.482,1.191L8.846,7.373L11.246,9.173Z" transform="rotate(180 12.364 8.273)" fill="#010101"/>
<path d="M13.482,30.809C13.979,31.472 14.919,31.606 15.582,31.109C16.244,30.612 16.379,29.672 15.882,29.009L13.482,30.809ZM10.045,23.727L8.845,22.827C8.445,23.361 8.445,24.094 8.845,24.627L10.045,23.727ZM15.882,18.445C16.379,17.783 16.244,16.842 15.582,16.345C14.919,15.848 13.979,15.983 13.482,16.645L15.882,18.445ZM15.882,29.009L11.245,22.827L8.845,24.627L13.482,30.809L15.882,29.009ZM11.245,24.627L15.882,18.445L13.482,16.645L8.845,22.827L11.245,24.627Z" transform="rotate(-180 12.364 23.727)" fill="#010101"/>
</svg>
