<svg width="26" height="34" viewBox="0 0 26 34" fill="none" xmlns="http://www.w3.org/2000/svg" xmlns:xlink="http://www.w3.org/1999/xlink">
<path d="M12.982,16.354C13.479,17.017 14.419,17.151 15.082,16.654C15.745,16.157 15.879,15.217 15.382,14.554L12.982,16.354ZM9.545,9.272L8.345,8.372C7.945,8.906 7.945,9.639 8.345,10.172L9.545,9.272ZM15.382,3.99C15.879,3.328 15.745,2.388 15.082,1.89C14.419,1.393 13.479,1.528 12.982,2.19L15.382,3.99ZM15.382,14.554L10.745,8.372L8.345,10.172L12.982,16.354L15.382,14.554ZM10.745,10.172L15.382,3.99L12.982,2.19L8.345,8.372L10.745,10.172Z" transform="rotate(180 11.864 9.272)" fill="#010101"/>
<path d="M12.982,31.81C13.479,32.472 14.419,32.607 15.082,32.11C15.744,31.612 15.879,30.672 15.382,30.01L12.982,31.81ZM9.545,24.728L8.345,23.828C7.945,24.361 7.945,25.094 8.345,25.628L9.545,24.728ZM15.382,19.446C15.879,18.783 15.744,17.843 15.082,17.346C14.419,16.849 13.479,16.983 12.982,17.646L15.382,19.446ZM15.382,30.01L10.745,23.828L8.345,25.628L12.982,31.81L15.382,30.01ZM10.745,25.628L15.382,19.446L12.982,17.646L8.345,23.828L10.745,25.628Z" transform="rotate(-180 11.863 24.728)" fill="#010101"/>
</svg>
