<svg width="26" height="34" viewBox="0 0 26 34" fill="none" xmlns="http://www.w3.org/2000/svg" xmlns:xlink="http://www.w3.org/1999/xlink">
<path d="M14.482,16.354C14.979,17.017 15.919,17.151 16.582,16.654C17.245,16.157 17.379,15.217 16.882,14.554L14.482,16.354ZM11.045,9.272L9.845,8.372C9.445,8.906 9.445,9.639 9.845,10.172L11.045,9.272ZM16.882,3.99C17.379,3.328 17.245,2.388 16.582,1.89C15.919,1.393 14.979,1.528 14.482,2.19L16.882,3.99ZM16.882,14.554L12.245,8.372L9.845,10.172L14.482,16.354L16.882,14.554ZM12.245,10.172L16.882,3.99L14.482,2.19L9.845,8.372L12.245,10.172Z" transform="rotate(180 13.364 9.272)" fill="#010101"/>
<path d="M14.482,31.81C14.979,32.472 15.919,32.607 16.582,32.11C17.244,31.612 17.379,30.672 16.882,30.01L14.482,31.81ZM11.045,24.728L9.845,23.828C9.445,24.361 9.445,25.094 9.845,25.628L11.045,24.728ZM16.882,19.446C17.379,18.783 17.244,17.843 16.582,17.346C15.919,16.849 14.979,16.983 14.482,17.646L16.882,19.446ZM16.882,30.01L12.245,23.828L9.845,25.628L14.482,31.81L16.882,30.01ZM12.245,25.628L16.882,19.446L14.482,17.646L9.845,23.828L12.245,25.628Z" transform="rotate(-180 13.363 24.728)" fill="#010101"/>
</svg>
