<svg width="26" height="34" viewBox="0 0 26 34" fill="none" xmlns="http://www.w3.org/2000/svg" xmlns:xlink="http://www.w3.org/1999/xlink">
<path d="M13.482,16.354C13.979,17.017 14.919,17.151 15.582,16.654C16.245,16.157 16.379,15.217 15.882,14.554L13.482,16.354ZM10.045,9.272L8.845,8.372C8.445,8.906 8.445,9.639 8.845,10.172L10.045,9.272ZM15.882,3.99C16.379,3.328 16.245,2.388 15.582,1.89C14.919,1.393 13.979,1.528 13.482,2.19L15.882,3.99ZM15.882,14.554L11.245,8.372L8.845,10.172L13.482,16.354L15.882,14.554ZM11.245,10.172L15.882,3.99L13.482,2.19L8.845,8.372L11.245,10.172Z" transform="rotate(180 12.364 9.272)" fill="#FFFFFF"/>
<path d="M13.482,31.81C13.979,32.472 14.919,32.607 15.582,32.11C16.245,31.612 16.379,30.672 15.882,30.01L13.482,31.81ZM10.045,24.728L8.845,23.828C8.445,24.361 8.445,25.094 8.845,25.628L10.045,24.728ZM15.882,19.446C16.379,18.783 16.245,17.843 15.582,17.346C14.919,16.849 13.979,16.983 13.482,17.646L15.882,19.446ZM15.882,30.01L11.245,23.828L8.845,25.628L13.482,31.81L15.882,30.01ZM11.245,25.628L15.882,19.446L13.482,17.646L8.845,23.828L11.245,25.628Z" transform="rotate(-180 12.364 24.728)" fill="#FFFFFF"/>
</svg>
