<svg width="26" height="34" viewBox="0 0 26 34" fill="none" xmlns="http://www.w3.org/2000/svg" xmlns:xlink="http://www.w3.org/1999/xlink">
<path d="M13.481,16.355C13.978,17.017 14.919,17.152 15.581,16.655C16.244,16.158 16.378,15.217 15.881,14.555L13.481,16.355ZM10.045,9.273L8.845,8.373C8.445,8.906 8.445,9.639 8.845,10.173L10.045,9.273ZM15.881,3.991C16.378,3.328 16.244,2.388 15.581,1.891C14.919,1.394 13.978,1.528 13.481,2.191L15.881,3.991ZM15.881,14.555L11.245,8.373L8.845,10.173L13.481,16.355L15.881,14.555ZM11.245,10.173L15.881,3.991L13.481,2.191L8.845,8.373L11.245,10.173Z" transform="rotate(180 12.363 9.273)" fill="#FFFFFF"/>
<path d="M13.482,31.809C13.979,32.472 14.919,32.606 15.582,32.109C16.244,31.612 16.379,30.672 15.882,30.009L13.482,31.809ZM10.045,24.727L8.845,23.827C8.445,24.361 8.445,25.094 8.845,25.627L10.045,24.727ZM15.882,19.445C16.379,18.783 16.244,17.842 15.582,17.345C14.919,16.848 13.979,16.983 13.482,17.645L15.882,19.445ZM15.882,30.009L11.245,23.827L8.845,25.627L13.482,31.809L15.882,30.009ZM11.245,25.627L15.882,19.445L13.482,17.645L8.845,23.827L11.245,25.627Z" transform="rotate(-180 12.363 24.727)" fill="#FFFFFF"/>
</svg>
