<svg width="48" height="50" viewBox="0 0 48 50" fill="none" xmlns="http://www.w3.org/2000/svg" xmlns:xlink="http://www.w3.org/1999/xlink">
<path d="M41,25C41,23.895 40.105,23 39,23C37.895,23 37,23.895 37,25L41,25ZM39,45L39,47C40.105,47 41,46.105 41,45L39,45ZM7,45L5,45C5,46.105 5.895,47 7,47L7,45ZM9,25C9,23.895 8.105,23 7,23C5.895,23 5,23.895 5,25L9,25ZM37,25L37,45L41,45L41,25L37,25ZM39,43L7,43L7,47L39,47L39,43ZM9,45L9,25L5,25L5,45L9,45Z" fill="#FFFFFF"/>
<path d="M3,15L3,13C1.895,13 1,13.895 1,15L3,15ZM43,15L45,15C45,13.895 44.105,13 43,13L43,15ZM43,25L43,27C44.105,27 45,26.105 45,25L43,25ZM3,25L1,25C1,26.105 1.895,27 3,27L3,25ZM3,17L43,17L43,13L3,13L3,17ZM41,15L41,25L45,25L45,15L41,15ZM43,23L3,23L3,27L43,27L43,23ZM5,25L5,15L1,15L1,25L5,25Z" fill="#FFFFFF"/>
<line x1="21" y1="15" x2="21" y2="45" stroke="#FFFFFF" stroke-width="2" stroke-miterlimit="3.999327" stroke-linecap="round" stroke-linejoin="round"/>
<path d="M23,15L23,17C23.599,17 24.167,16.731 24.547,16.268C24.927,15.805 25.079,15.195 24.961,14.608L23,15ZM14,15L14,13L14,15ZM9,10L7,10L9,10ZM14,5L14,3L14,5ZM23,13L14,13L14,17L23,17L23,13ZM14,13C13.204,13 12.441,12.684 11.879,12.121L9.05,14.95C10.363,16.263 12.143,17 14,17L14,13ZM11.879,12.121C11.316,11.559 11,10.796 11,10L7,10C7,11.857 7.737,13.637 9.05,14.95L11.879,12.121ZM11,10C11,9.204 11.316,8.441 11.879,7.879L9.05,5.05C7.737,6.363 7,8.143 7,10L11,10ZM11.879,7.879C12.441,7.316 13.204,7 14,7L14,3C12.143,3 10.363,3.737 9.05,5.05L11.879,7.879ZM14,7C16.388,7 18.115,8.677 19.373,10.964C19.978,12.065 20.4,13.185 20.671,14.041C20.806,14.466 20.9,14.816 20.96,15.055C20.99,15.175 21.011,15.266 21.024,15.324C21.03,15.353 21.035,15.373 21.037,15.385C21.038,15.391 21.039,15.394 21.039,15.395C21.04,15.396 21.04,15.396 21.04,15.396C21.039,15.395 21.039,15.395 21.039,15.394C21.039,15.394 21.039,15.394 21.039,15.393C21.039,15.393 21.039,15.392 23,15C24.961,14.608 24.961,14.607 24.961,14.606C24.961,14.606 24.961,14.605 24.961,14.605C24.96,14.604 24.96,14.602 24.96,14.601C24.959,14.598 24.958,14.594 24.958,14.59C24.956,14.582 24.954,14.571 24.951,14.558C24.945,14.532 24.938,14.496 24.928,14.452C24.908,14.363 24.879,14.239 24.841,14.085C24.764,13.778 24.647,13.347 24.485,12.834C24.162,11.815 23.647,10.435 22.877,9.036C21.385,6.323 18.612,3 14,3L14,7Z" fill="#FFFFFF"/>
<path d="M23,15L21.039,14.608C20.921,15.195 21.073,15.805 21.453,16.268C21.833,16.731 22.401,17 23,17L23,15ZM32,15L32,13L32,15ZM32,5L32,7L32,5ZM23,17L32,17L32,13L23,13L23,17ZM32,17C33.857,17 35.637,16.263 36.95,14.95L34.121,12.121C33.559,12.684 32.796,13 32,13L32,17ZM36.95,14.95C38.262,13.637 39,11.857 39,10L35,10C35,10.796 34.684,11.559 34.121,12.121L36.95,14.95ZM39,10C39,8.143 38.262,6.363 36.95,5.05L34.121,7.879C34.684,8.441 35,9.204 35,10L39,10ZM36.95,5.05C35.637,3.737 33.857,3 32,3L32,7C32.796,7 33.559,7.316 34.121,7.879L36.95,5.05ZM32,3C27.388,3 24.615,6.323 23.123,9.036C22.353,10.435 21.838,11.815 21.515,12.834C21.353,13.347 21.236,13.778 21.159,14.085C21.121,14.239 21.092,14.363 21.072,14.452C21.062,14.496 21.055,14.532 21.049,14.558C21.046,14.571 21.044,14.582 21.042,14.59C21.042,14.594 21.041,14.598 21.04,14.601C21.04,14.602 21.04,14.604 21.039,14.605C21.039,14.605 21.039,14.606 21.039,14.606C21.039,14.607 21.039,14.608 23,15C24.961,15.392 24.961,15.393 24.961,15.393C24.961,15.394 24.961,15.394 24.961,15.394C24.961,15.395 24.961,15.395 24.96,15.396C24.96,15.396 24.96,15.396 24.961,15.395C24.961,15.394 24.962,15.391 24.963,15.385C24.965,15.373 24.97,15.353 24.976,15.324C24.989,15.266 25.01,15.175 25.04,15.055C25.1,14.816 25.194,14.466 25.329,14.041C25.6,13.185 26.022,12.065 26.627,10.964C27.885,8.677 29.612,7 32,7L32,3Z" fill="#FFFFFF"/>
</svg>
