<svg width="50" height="50" viewBox="0 0 50 50" fill="none" xmlns="http://www.w3.org/2000/svg" xmlns:xlink="http://www.w3.org/1999/xlink">
<path d="M43,25C43,23.895 42.105,23 41,23C39.895,23 39,23.895 39,25L43,25ZM41,45L41,47C42.105,47 43,46.105 43,45L41,45ZM9,45L7,45C7,46.105 7.895,47 9,47L9,45ZM11,25C11,23.895 10.105,23 9,23C7.895,23 7,23.895 7,25L11,25ZM39,25L39,45L43,45L43,25L39,25ZM41,43L9,43L9,47L41,47L41,43ZM11,45L11,25L7,25L7,45L11,45Z" fill="#FFFFFF"/>
<path d="M5,15L5,13C3.895,13 3,13.895 3,15L5,15ZM45,15L47,15C47,13.895 46.105,13 45,13L45,15ZM45,25L45,27C46.105,27 47,26.105 47,25L45,25ZM5,25L3,25C3,26.105 3.895,27 5,27L5,25ZM5,17L45,17L45,13L5,13L5,17ZM43,15L43,25L47,25L47,15L43,15ZM45,23L5,23L5,27L45,27L45,23ZM7,25L7,15L3,15L3,25L7,25Z" fill="#FFFFFF"/>
<line x1="23" y1="15" x2="23" y2="45" stroke="#FFFFFF" stroke-width="2" stroke-miterlimit="3.999327" stroke-linecap="round" stroke-linejoin="round"/>
<path d="M25,15L25,17C25.599,17 26.167,16.731 26.547,16.268C26.927,15.805 27.079,15.195 26.961,14.608L25,15ZM16,15L16,13L16,15ZM11,10L9,10L11,10ZM16,5L16,3L16,5ZM25,13L16,13L16,17L25,17L25,13ZM16,13C15.204,13 14.441,12.684 13.879,12.121L11.05,14.95C12.363,16.263 14.143,17 16,17L16,13ZM13.879,12.121C13.316,11.559 13,10.796 13,10L9,10C9,11.857 9.737,13.637 11.05,14.95L13.879,12.121ZM13,10C13,9.204 13.316,8.441 13.879,7.879L11.05,5.05C9.737,6.363 9,8.143 9,10L13,10ZM13.879,7.879C14.441,7.316 15.204,7 16,7L16,3C14.143,3 12.363,3.737 11.05,5.05L13.879,7.879ZM16,7C18.388,7 20.115,8.677 21.373,10.964C21.978,12.065 22.4,13.185 22.671,14.041C22.806,14.466 22.9,14.816 22.96,15.055C22.99,15.175 23.011,15.266 23.024,15.324C23.03,15.353 23.035,15.373 23.037,15.385C23.038,15.391 23.039,15.394 23.039,15.395C23.04,15.396 23.04,15.396 23.04,15.396C23.039,15.395 23.039,15.395 23.039,15.394C23.039,15.394 23.039,15.394 23.039,15.393C23.039,15.393 23.039,15.392 25,15C26.961,14.608 26.961,14.607 26.961,14.606C26.961,14.606 26.961,14.605 26.961,14.605C26.96,14.604 26.96,14.602 26.96,14.601C26.959,14.598 26.958,14.594 26.958,14.59C26.956,14.582 26.954,14.571 26.951,14.558C26.945,14.532 26.938,14.496 26.928,14.452C26.908,14.363 26.879,14.239 26.841,14.085C26.764,13.778 26.647,13.347 26.485,12.834C26.162,11.815 25.647,10.435 24.877,9.036C23.385,6.323 20.612,3 16,3L16,7Z" fill="#FFFFFF"/>
<path d="M25,15L23.039,14.608C22.921,15.195 23.073,15.805 23.453,16.268C23.833,16.731 24.401,17 25,17L25,15ZM34,15L34,13L34,15ZM34,5L34,7L34,5ZM25,17L34,17L34,13L25,13L25,17ZM34,17C35.857,17 37.637,16.263 38.95,14.95L36.121,12.121C35.559,12.684 34.796,13 34,13L34,17ZM38.95,14.95C40.263,13.637 41,11.857 41,10L37,10C37,10.796 36.684,11.559 36.121,12.121L38.95,14.95ZM41,10C41,8.143 40.263,6.363 38.95,5.05L36.121,7.879C36.684,8.441 37,9.204 37,10L41,10ZM38.95,5.05C37.637,3.737 35.857,3 34,3L34,7C34.796,7 35.559,7.316 36.121,7.879L38.95,5.05ZM34,3C29.388,3 26.615,6.323 25.123,9.036C24.353,10.435 23.838,11.815 23.515,12.834C23.353,13.347 23.236,13.778 23.159,14.085C23.121,14.239 23.092,14.363 23.072,14.452C23.062,14.496 23.055,14.532 23.049,14.558C23.046,14.571 23.044,14.582 23.042,14.59C23.042,14.594 23.041,14.598 23.04,14.601C23.04,14.602 23.04,14.604 23.039,14.605C23.039,14.605 23.039,14.606 23.039,14.606C23.039,14.607 23.039,14.608 25,15C26.961,15.392 26.961,15.393 26.961,15.393C26.961,15.394 26.961,15.394 26.961,15.394C26.961,15.395 26.961,15.395 26.96,15.396C26.96,15.396 26.96,15.396 26.961,15.395C26.961,15.394 26.962,15.391 26.963,15.385C26.965,15.373 26.97,15.353 26.976,15.324C26.989,15.266 27.01,15.175 27.04,15.055C27.1,14.816 27.194,14.466 27.329,14.041C27.6,13.185 28.022,12.065 28.627,10.964C29.885,8.677 31.612,7 34,7L34,3Z" fill="#FFFFFF"/>
</svg>
