<svg width="30" height="36" viewBox="0 0 30 36" fill="none" xmlns="http://www.w3.org/2000/svg" xmlns:xlink="http://www.w3.org/1999/xlink">
<path d="M24.403,26.816C23.749,26.594 23.039,26.943 22.817,27.597C22.594,28.25 22.943,28.96 23.597,29.183L24.403,26.816ZM4.403,29.183C5.056,28.96 5.406,28.25 5.183,27.597C4.961,26.943 4.251,26.594 3.597,26.816L4.403,29.183ZM19,13.833L20.25,13.833L19,13.833ZM14,8.833L14,7.583L14,8.833ZM23.597,29.183C24.567,29.513 25.255,29.867 25.675,30.196C26.112,30.537 26.083,30.701 26.083,30.655L28.583,30.655C28.583,29.59 27.925,28.78 27.214,28.225C26.486,27.657 25.508,27.193 24.403,26.816L23.597,29.183ZM26.083,30.655C26.083,30.605 26.112,30.806 25.561,31.198C25.041,31.568 24.209,31.951 23.068,32.295C20.801,32.977 17.595,33.416 14,33.416L14,35.916C17.768,35.916 21.229,35.459 23.788,34.689C25.06,34.306 26.18,33.826 27.01,33.235C27.808,32.667 28.583,31.813 28.583,30.655L26.083,30.655ZM14,33.416C10.405,33.416 7.199,32.976 4.932,32.294C3.791,31.951 2.958,31.567 2.439,31.197C1.888,30.805 1.917,30.604 1.917,30.655L-0.583,30.655C-0.583,31.813 0.192,32.667 0.99,33.235C1.82,33.825 2.94,34.305 4.212,34.688C6.771,35.458 10.231,35.916 14,35.916L14,33.416ZM1.917,30.655C1.917,30.701 1.888,30.537 2.324,30.196C2.745,29.867 3.433,29.513 4.403,29.183L3.597,26.816C2.492,27.193 1.514,27.657 0.786,28.225C0.075,28.78 -0.583,29.59 -0.583,30.655L1.917,30.655ZM17.75,13.833C17.75,14.828 17.355,15.781 16.652,16.485L18.419,18.252C19.592,17.08 20.25,15.491 20.25,13.833L17.75,13.833ZM16.652,16.485C15.948,17.188 14.995,17.583 14,17.583L14,20.083C15.658,20.083 17.247,19.425 18.419,18.252L16.652,16.485ZM14,17.583C13.005,17.583 12.052,17.188 11.348,16.485L9.581,18.252C10.753,19.425 12.342,20.083 14,20.083L14,17.583ZM11.348,16.485C10.645,15.781 10.25,14.828 10.25,13.833L7.75,13.833C7.75,15.491 8.409,17.08 9.581,18.252L11.348,16.485ZM10.25,13.833C10.25,12.838 10.645,11.885 11.348,11.181L9.581,9.414C8.409,10.586 7.75,12.175 7.75,13.833L10.25,13.833ZM11.348,11.181C12.052,10.478 13.005,10.083 14,10.083L14,7.583C12.342,7.583 10.753,8.241 9.581,9.414L11.348,11.181ZM14,10.083C14.995,10.083 15.948,10.478 16.652,11.181L18.419,9.414C17.247,8.241 15.658,7.583 14,7.583L14,10.083ZM16.652,11.181C17.355,11.885 17.75,12.838 17.75,13.833L20.25,13.833C20.25,12.175 19.592,10.586 18.419,9.414L16.652,11.181Z" fill="#010101"/>
<path d="M15.288,29.321L15.912,30.405C15.925,30.397 15.938,30.39 15.95,30.382L15.288,29.321ZM12.712,29.321L12.044,30.378C12.059,30.387 12.073,30.396 12.088,30.405L12.712,29.321ZM14,2.583C20.067,2.583 25.25,7.729 25.25,13.978L27.75,13.978C27.75,6.364 21.463,0.083 14,0.083L14,2.583ZM25.25,13.978C25.25,20.288 20.007,24.903 14.627,28.261L15.95,30.382C21.337,27.02 27.75,21.752 27.75,13.978L25.25,13.978ZM14.665,28.238C14.463,28.354 14.233,28.416 14,28.416L14,30.916C14.671,30.916 15.33,30.739 15.912,30.405L14.665,28.238ZM14,28.416C13.767,28.416 13.537,28.354 13.335,28.238L12.088,30.405C12.67,30.739 13.329,30.916 14,30.916L14,28.416ZM13.379,28.264C7.998,24.866 2.75,20.311 2.75,13.978L0.25,13.978C0.25,21.779 6.679,26.99 12.044,30.378L13.379,28.264ZM2.75,13.978C2.75,7.729 7.933,2.583 14,2.583L14,0.083C6.537,0.083 0.25,6.364 0.25,13.978L2.75,13.978Z" fill="#010101"/>
</svg>
