<svg width="34" height="46" viewBox="0 0 34 46" fill="none" xmlns="http://www.w3.org/2000/svg" xmlns:xlink="http://www.w3.org/1999/xlink">
<line x1="-0.499" y1="25.001" x2="-0.499" y2="37" stroke="#010101" stroke-width="1.5" stroke-miterlimit="3.999327" stroke-linecap="round" stroke-linejoin="round"/>
<line x1="29.5" y1="25" x2="29.5" y2="37" stroke="#010101" stroke-width="1.5" stroke-miterlimit="3.999327" stroke-linecap="round" stroke-linejoin="round"/>
<line x1="7" y1="41.5" x2="25" y2="41.5" stroke="#010101" stroke-width="1.5" stroke-miterlimit="3.999327" stroke-linecap="round" stroke-linejoin="round"/>
<path d="M32.5,37C32.5,36.172 31.829,35.5 31,35.5C30.172,35.5 29.5,36.172 29.5,37L32.5,37ZM25,41.5C24.172,41.5 23.5,42.172 23.5,43C23.5,43.828 24.172,44.5 25,44.5L25,41.5ZM29.5,37C29.5,37.591 29.384,38.176 29.158,38.722L31.929,39.87C32.306,38.96 32.5,37.985 32.5,37L29.5,37ZM29.158,38.722C28.932,39.268 28.6,39.764 28.182,40.182L30.304,42.303C31,41.607 31.553,40.78 31.929,39.87L29.158,38.722ZM28.182,40.182C27.764,40.6 27.268,40.931 26.722,41.157L27.87,43.929C28.78,43.552 29.607,43 30.304,42.303L28.182,40.182ZM26.722,41.157C26.176,41.384 25.591,41.5 25,41.5L25,44.5C25.985,44.5 26.961,44.306 27.87,43.929L26.722,41.157Z" fill="#010101"/>
<path d="M2.501,37C2.501,36.172 1.829,35.5 1.001,35.5C0.172,35.5 -0.499,36.172 -0.499,37L2.501,37ZM7.001,44.5C7.829,44.5 8.501,43.828 8.501,43C8.501,42.172 7.829,41.5 7.001,41.5L7.001,44.5ZM-0.499,37C-0.499,38.989 0.291,40.897 1.697,42.303L3.819,40.182C2.975,39.338 2.501,38.193 2.501,37L-0.499,37ZM1.697,42.303C3.104,43.71 5.011,44.5 7.001,44.5L7.001,41.5C5.807,41.5 4.663,41.026 3.819,40.182L1.697,42.303Z" fill="#010101"/>
<line x1="14.5" y1="31" x2="14.5" y2="37" stroke="#010101" stroke-width="1.5" stroke-miterlimit="3.999327" stroke-linecap="round" stroke-linejoin="round"/>
<path d="M-0.501,25.001C-0.501,25.829 0.171,26.501 0.999,26.501C1.828,26.501 2.499,25.829 2.499,25.001L-0.501,25.001ZM3.999,23.501C4.828,23.501 5.499,22.829 5.499,22.001C5.499,21.173 4.828,20.501 3.999,20.501L3.999,23.501ZM2.499,25.001C2.499,24.603 2.657,24.222 2.939,23.94L0.817,21.819C-0.027,22.663 -0.501,23.807 -0.501,25.001L2.499,25.001ZM2.939,23.94C3.22,23.659 3.601,23.501 3.999,23.501L3.999,20.501C2.806,20.501 1.661,20.975 0.817,21.819L2.939,23.94Z" fill="#010101"/>
<path d="M29.5,25C29.5,25.828 30.172,26.5 31,26.5C31.829,26.5 32.5,25.828 32.5,25L29.5,25ZM28,20.5C27.172,20.5 26.5,21.172 26.5,22C26.5,22.828 27.172,23.5 28,23.5L28,20.5ZM32.5,25C32.5,23.807 32.026,22.662 31.182,21.818L29.061,23.939C29.342,24.221 29.5,24.602 29.5,25L32.5,25ZM31.182,21.818C30.338,20.974 29.194,20.5 28,20.5L28,23.5C28.398,23.5 28.78,23.658 29.061,23.939L31.182,21.818Z" fill="#010101"/>
<path d="M23.5,10C23.5,10.828 24.172,11.5 25,11.5C25.829,11.5 26.5,10.828 26.5,10L23.5,10ZM16,-0.5C15.172,-0.5 14.5,0.172 14.5,1C14.5,1.828 15.172,2.5 16,2.5L16,-0.5ZM26.5,10C26.5,7.215 25.394,4.544 23.425,2.575L21.304,4.697C22.71,6.103 23.5,8.011 23.5,10L26.5,10ZM23.425,2.575C21.456,0.606 18.785,-0.5 16,-0.5L16,2.5C17.99,2.5 19.897,3.29 21.304,4.697L23.425,2.575Z" fill="#010101"/>
<path d="M5.5,10C5.5,10.828 6.172,11.5 7,11.5C7.829,11.5 8.5,10.828 8.5,10L5.5,10ZM16,2.5C16.829,2.5 17.5,1.828 17.5,1C17.5,0.172 16.829,-0.5 16,-0.5L16,2.5ZM8.5,10C8.5,8.011 9.291,6.103 10.697,4.697L8.576,2.575C6.607,4.544 5.5,7.215 5.5,10L8.5,10ZM10.697,4.697C12.104,3.29 14.011,2.5 16,2.5L16,-0.5C13.216,-0.5 10.545,0.606 8.576,2.575L10.697,4.697Z" fill="#010101"/>
<line x1="5.5" y1="9.982" x2="5.5" y2="22" stroke="#010101" stroke-width="1.5" stroke-miterlimit="3.999327" stroke-linecap="round" stroke-linejoin="round"/>
<line x1="23.5" y1="10" x2="23.5" y2="22" stroke="#010101" stroke-width="1.5" stroke-miterlimit="3.999327" stroke-linecap="round" stroke-linejoin="round"/>
<line x1="4.001" y1="20.5" x2="28" y2="20.5" stroke="#010101" stroke-width="1.5" stroke-miterlimit="3.999327" stroke-linecap="round" stroke-linejoin="round"/>
</svg>
