<svg width="36" height="36" viewBox="0 0 36 36" fill="none" xmlns="http://www.w3.org/2000/svg" xmlns:xlink="http://www.w3.org/1999/xlink">
<path d="M20.005,22.882L18.893,22.31L18.891,22.314L20.005,22.882ZM22.24,20.812L22.985,21.815L22.986,21.815L22.24,20.812ZM23.073,20.192L22.328,19.188L22.327,19.189L23.073,20.192ZM31.26,20.192L32.006,19.189L32.006,19.188L31.26,20.192ZM32.093,20.812L31.347,21.815L31.348,21.815L32.093,20.812ZM19.667,34.667L18.417,34.667C18.417,35.357 18.976,35.917 19.667,35.917L19.667,34.667ZM20.917,25.838C20.917,24.183 20.948,23.783 21.118,23.45L18.891,22.314C18.385,23.307 18.417,24.434 18.417,25.838L20.917,25.838ZM21.117,23.453C21.191,23.309 21.313,23.145 21.605,22.886C21.914,22.612 22.337,22.297 22.985,21.815L21.495,19.808C20.88,20.265 20.355,20.653 19.947,21.015C19.522,21.391 19.159,21.793 18.893,22.31L21.117,23.453ZM22.986,21.815L23.819,21.195L22.327,19.189L21.494,19.809L22.986,21.815ZM23.819,21.195C24.826,20.447 25.496,19.951 26.052,19.631C26.579,19.328 26.892,19.25 27.167,19.25L27.167,16.75C26.298,16.75 25.547,17.037 24.805,17.464C24.092,17.875 23.287,18.475 22.328,19.188L23.819,21.195ZM27.167,19.25C27.441,19.25 27.754,19.328 28.281,19.631C28.837,19.951 29.507,20.447 30.514,21.195L32.006,19.188C31.046,18.475 30.241,17.875 29.528,17.464C28.786,17.037 28.036,16.75 27.167,16.75L27.167,19.25ZM30.514,21.195L31.347,21.815L32.839,19.809L32.006,19.189L30.514,21.195ZM31.348,21.815C31.996,22.297 32.419,22.612 32.728,22.886C33.019,23.144 33.141,23.308 33.214,23.451L35.44,22.313C35.174,21.794 34.811,21.392 34.386,21.015C33.978,20.653 33.454,20.265 32.839,19.808L31.348,21.815ZM33.214,23.451C33.383,23.782 33.417,24.184 33.417,25.838L35.917,25.838C35.917,24.432 35.947,23.304 35.44,22.313L33.214,23.451ZM33.417,25.838L33.417,28.297L35.917,28.297L35.917,25.838L33.417,25.838ZM33.417,28.297C33.417,29.835 33.414,30.858 33.307,31.618C33.206,32.336 33.034,32.631 32.827,32.829L34.553,34.638C35.323,33.904 35.639,32.983 35.782,31.966C35.92,30.991 35.917,29.761 35.917,28.297L33.417,28.297ZM32.827,32.829C32.611,33.035 32.277,33.209 31.498,33.31C30.689,33.414 29.605,33.417 28,33.417L28,35.917C29.538,35.917 30.811,35.919 31.817,35.789C32.853,35.656 33.792,35.363 34.553,34.638L32.827,32.829ZM28,33.417L19.667,33.417L19.667,35.917L28,35.917L28,33.417ZM20.917,34.667L20.917,25.838L18.417,25.838L18.417,34.667L20.917,34.667Z" fill="#010101"/>
<path d="M26.75,18C26.75,18.69 27.31,19.25 28,19.25C28.69,19.25 29.25,18.69 29.25,18L26.75,18ZM10.083,34.666C10.083,35.357 10.643,35.916 11.333,35.916C12.024,35.916 12.583,35.357 12.583,34.666L10.083,34.666ZM29.25,18L29.25,6.333L26.75,6.333L26.75,18L29.25,18ZM29.25,6.333C29.25,5.272 29.196,4.335 29.021,3.538C28.843,2.728 28.523,1.986 27.935,1.398C27.347,0.81 26.605,0.49 25.795,0.312C24.998,0.137 24.061,0.083 23,0.083L23,2.583C24.007,2.583 24.729,2.637 25.258,2.753C25.773,2.867 26.022,3.021 26.167,3.166C26.312,3.311 26.466,3.56 26.58,4.075C26.696,4.604 26.75,5.326 26.75,6.333L29.25,6.333ZM23,0.083L16.333,0.083L16.333,2.583L23,2.583L23,0.083ZM16.333,0.083C15.272,0.083 14.335,0.137 13.539,0.312C12.728,0.49 11.986,0.81 11.398,1.398C10.81,1.986 10.49,2.728 10.312,3.538C10.137,4.335 10.083,5.272 10.083,6.333L12.583,6.333C12.583,5.326 12.638,4.604 12.754,4.075C12.867,3.56 13.021,3.311 13.166,3.166C13.311,3.021 13.56,2.867 14.075,2.753C14.604,2.637 15.326,2.583 16.333,2.583L16.333,0.083ZM10.083,6.333L10.083,34.666L12.583,34.666L12.583,6.333L10.083,6.333Z" fill="#010101"/>
<path d="M5.083,21.333C5.083,22.01 4.876,22.574 4.601,22.94C4.326,23.307 4.042,23.417 3.833,23.417L3.833,25.917C5.005,25.917 5.971,25.28 6.601,24.44C7.231,23.601 7.583,22.498 7.583,21.333L5.083,21.333ZM3.833,23.417C3.625,23.417 3.34,23.307 3.066,22.94C2.79,22.574 2.583,22.01 2.583,21.333L0.083,21.333C0.083,22.498 0.436,23.601 1.066,24.44C1.696,25.28 2.661,25.917 3.833,25.917L3.833,23.417ZM2.583,21.333C2.583,20.657 2.79,20.093 3.066,19.726C3.34,19.36 3.625,19.25 3.833,19.25L3.833,16.75C2.661,16.75 1.696,17.386 1.066,18.226C0.436,19.066 0.083,20.169 0.083,21.333L2.583,21.333ZM3.833,19.25C4.042,19.25 4.326,19.36 4.601,19.726C4.876,20.093 5.083,20.657 5.083,21.333L7.583,21.333C7.583,20.169 7.231,19.066 6.601,18.226C5.971,17.386 5.005,16.75 3.833,16.75L3.833,19.25Z" fill="#010101"/>
<path d="M5.083,24.667C5.083,23.976 4.524,23.417 3.833,23.417C3.143,23.417 2.583,23.976 2.583,24.667L5.083,24.667ZM2.583,34.667C2.583,35.357 3.143,35.917 3.833,35.917C4.524,35.917 5.083,35.357 5.083,34.667L2.583,34.667ZM1.333,33.417C0.643,33.417 0.083,33.976 0.083,34.667C0.083,35.357 0.643,35.917 1.333,35.917L1.333,33.417ZM31.333,35.917C32.024,35.917 32.583,35.357 32.583,34.667C32.583,33.976 32.024,33.417 31.333,33.417L31.333,35.917ZM18,6.75C17.31,6.75 16.75,7.31 16.75,8C16.75,8.69 17.31,9.25 18,9.25L18,6.75ZM21.333,9.25C22.024,9.25 22.583,8.69 22.583,8C22.583,7.31 22.024,6.75 21.333,6.75L21.333,9.25ZM18,11.75C17.31,11.75 16.75,12.31 16.75,13C16.75,13.69 17.31,14.25 18,14.25L18,11.75ZM21.333,14.25C22.024,14.25 22.583,13.69 22.583,13C22.583,12.31 22.024,11.75 21.333,11.75L21.333,14.25ZM25.917,34.667C25.917,35.357 26.476,35.917 27.167,35.917C27.857,35.917 28.417,35.357 28.417,34.667L25.917,34.667ZM28.417,31.333C28.417,30.643 27.857,30.083 27.167,30.083C26.476,30.083 25.917,30.643 25.917,31.333L28.417,31.333ZM2.583,24.667L2.583,34.667L5.083,34.667L5.083,24.667L2.583,24.667ZM1.333,35.917L31.333,35.917L31.333,33.417L1.333,33.417L1.333,35.917ZM18,9.25L21.333,9.25L21.333,6.75L18,6.75L18,9.25ZM18,14.25L21.333,14.25L21.333,11.75L18,11.75L18,14.25ZM28.417,34.667L28.417,31.333L25.917,31.333L25.917,34.667L28.417,34.667Z" fill="#010101"/>
</svg>
