<svg width="40" height="40" viewBox="0 0 40 40" fill="none" xmlns="http://www.w3.org/2000/svg" xmlns:xlink="http://www.w3.org/1999/xlink">
<path d="M23.811,17.056C23.582,16.406 23.156,15.843 22.593,15.445C22.03,15.047 21.357,14.833 20.668,14.833L20.668,14L19.001,14L19.001,14.833C18.117,14.833 17.269,15.185 16.644,15.81C16.019,16.435 15.668,17.283 15.668,18.167C15.668,19.051 16.019,19.899 16.644,20.524C17.269,21.149 18.117,21.5 19.001,21.5L19.001,24.833C18.276,24.833 17.659,24.371 17.429,23.722C17.395,23.616 17.34,23.518 17.267,23.434C17.194,23.349 17.105,23.28 17.005,23.231C16.906,23.182 16.797,23.153 16.686,23.146C16.574,23.139 16.463,23.155 16.358,23.192C16.253,23.229 16.156,23.287 16.074,23.362C15.992,23.437 15.925,23.528 15.879,23.629C15.832,23.73 15.806,23.84 15.803,23.951C15.799,24.063 15.818,24.174 15.858,24.278C16.088,24.928 16.513,25.49 17.076,25.888C17.639,26.286 18.312,26.5 19.001,26.5L19.001,27.333L20.668,27.333L20.668,26.5C21.552,26.5 22.4,26.149 23.025,25.524C23.65,24.899 24.001,24.051 24.001,23.167C24.001,22.283 23.65,21.435 23.025,20.81C22.4,20.185 21.552,19.833 20.668,19.833L20.668,16.5C21.013,16.5 21.349,16.607 21.63,16.806C21.912,17.005 22.125,17.286 22.24,17.611C22.313,17.819 22.467,17.99 22.666,18.085C22.765,18.132 22.872,18.16 22.981,18.166C23.09,18.171 23.2,18.156 23.303,18.119C23.406,18.083 23.501,18.026 23.583,17.953C23.664,17.88 23.73,17.792 23.777,17.693C23.825,17.594 23.852,17.487 23.858,17.378C23.864,17.268 23.848,17.159 23.811,17.056ZM19.001,16.5C18.559,16.5 18.135,16.676 17.823,16.988C17.51,17.301 17.335,17.725 17.335,18.167C17.335,18.609 17.51,19.033 17.823,19.345C18.135,19.658 18.559,19.833 19.001,19.833L19.001,16.5ZM20.668,24.833C21.11,24.833 21.534,24.658 21.846,24.345C22.159,24.033 22.335,23.609 22.335,23.167C22.335,22.725 22.159,22.301 21.846,21.988C21.534,21.676 21.11,21.5 20.668,21.5L20.668,24.833Z" clip-rule="evenodd" fill-rule="evenodd" fill="#010101"/>
<path d="M8.454,1.548C10.84,0.381 14.754,-1 19.038,-1C23.232,-1 27.043,0.323 29.416,1.475L29.551,1.54C30.266,1.894 30.844,2.229 31.25,2.5L27.659,7.75C35.938,16.214 42.334,33.998 19.038,33.998C-4.258,33.998 1.965,16.537 10.317,7.75L6.749,2.5C7.024,2.32 7.373,2.111 7.789,1.889C7.995,1.779 8.217,1.664 8.454,1.548ZM25.351,7.681L28.225,3.478C25.552,3.671 22.371,4.299 19.308,5.185C17.121,5.817 14.69,5.721 12.439,5.306C11.872,5.201 11.309,5.076 10.751,4.931L12.617,7.679C16.618,9.103 21.349,9.103 25.351,7.681ZM11.494,9.335C16.176,11.143 21.802,11.143 26.483,9.333C28.437,11.393 30.071,13.734 31.333,16.278C32.647,18.959 33.363,21.639 33.246,23.949C33.133,26.179 32.256,28.083 30.254,29.499C28.166,30.974 24.655,32.053 19.037,32.053C13.413,32.053 9.885,30.992 7.778,29.534C5.761,28.137 4.875,26.258 4.75,24.058C4.619,21.774 5.319,19.107 6.628,16.407C7.878,13.832 9.621,11.354 11.494,9.335ZM10.376,2.807C11.154,3.039 11.967,3.24 12.791,3.393C14.882,3.778 16.978,3.834 18.767,3.316C20.851,2.708 22.972,2.231 25.115,1.886C23.326,1.347 21.234,0.944 19.037,0.944C15.688,0.944 12.564,1.879 10.376,2.807Z" clip-rule="evenodd" fill-rule="evenodd" fill="#010101"/>
</svg>
