<svg width="38" height="32" viewBox="0 0 38 32" fill="none" xmlns="http://www.w3.org/2000/svg" xmlns:xlink="http://www.w3.org/1999/xlink">
<path d="M16,10C16,12.209 14.209,14 12,14L12,16C15.314,16 18,13.314 18,10L16,10ZM12,14C9.791,14 8,12.209 8,10L6,10C6,13.314 8.686,16 12,16L12,14ZM8,10C8,7.791 9.791,6 12,6L12,4C8.686,4 6,6.686 6,10L8,10ZM12,6C14.209,6 16,7.791 16,10L18,10C18,6.686 15.314,4 12,4L12,6Z" fill="#010101"/>
<path d="M19.536,11L20.405,11.494L20.405,11.494L19.536,11ZM26.464,15L25.601,14.494L26.464,15ZM20.405,11.494C20.601,11.15 20.862,10.848 21.175,10.606L19.95,9.025C19.429,9.429 18.993,9.932 18.667,10.505L20.405,11.494ZM21.175,10.606C21.488,10.363 21.845,10.185 22.227,10.081L21.703,8.151C21.067,8.324 20.471,8.621 19.95,9.025L21.175,10.606ZM22.227,10.081C22.609,9.978 23.008,9.951 23.4,10.002L23.658,8.018C23.004,7.933 22.34,7.978 21.703,8.151L22.227,10.081ZM23.4,10.002C23.792,10.053 24.171,10.181 24.513,10.379L25.513,8.646C24.942,8.317 24.312,8.103 23.658,8.018L23.4,10.002ZM24.513,10.379C24.856,10.576 25.156,10.84 25.396,11.154L26.985,9.939C26.585,9.416 26.084,8.976 25.513,8.646L24.513,10.379ZM25.396,11.154C25.637,11.469 25.812,11.827 25.914,12.21L27.847,11.699C27.679,11.061 27.386,10.463 26.985,9.939L25.396,11.154ZM25.914,12.21C26.015,12.592 26.039,12.991 25.986,13.383L27.967,13.654C28.056,13.001 28.016,12.336 27.847,11.699L25.914,12.21ZM25.986,13.383C25.932,13.775 25.801,14.152 25.601,14.494L27.327,15.505C27.66,14.936 27.878,14.307 27.967,13.654L25.986,13.383ZM25.601,14.494C25.201,15.177 24.546,15.674 23.78,15.877L24.291,17.81C25.568,17.473 26.659,16.644 27.327,15.505L25.601,14.494ZM23.78,15.877C23.014,16.079 22.199,15.971 21.513,15.575L20.513,17.307C21.657,17.967 23.015,18.148 24.291,17.81L23.78,15.877ZM21.513,15.575C20.827,15.179 20.326,14.527 20.118,13.763L18.188,14.287C18.534,15.561 19.37,16.646 20.513,17.307L21.513,15.575ZM20.118,13.763C19.91,12.998 20.014,12.182 20.405,11.494L18.667,10.505C18.014,11.653 17.842,13.012 18.188,14.287L20.118,13.763Z" fill="#010101"/>
<path d="M21,30L3,30L3,32L21,32L21,30ZM2.176,29.172C2.436,27.544 3.06,25.23 4.528,23.342C5.958,21.502 8.238,20 12,20L12,18C7.602,18 4.748,19.8 2.948,22.114C1.188,24.382 0.486,27.074 0.202,28.856L2.176,29.172ZM12,20C15.762,20 18.04,21.5 19.472,23.342C20.94,25.23 21.564,27.542 21.824,29.172L23.798,28.856C23.514,27.076 22.814,24.382 21.052,22.116C19.252,19.8 16.398,18 12,18L12,20ZM3,30C2.416,30 2.114,29.566 2.176,29.172L0.202,28.856C-0.084,30.644 1.374,32 3,32L3,30ZM21,32C22.626,32 24.082,30.644 23.798,28.856L21.824,29.172C21.886,29.566 21.584,30 21,30L21,32Z" fill="#010101"/>
<path d="M19.6,21.962L19.064,21.118L18.034,21.772L18.878,22.652L19.6,21.962ZM28.79,30L21,30L21,32L28.79,32L28.79,30ZM29.624,29.076C29.73,29.506 29.416,30 28.79,30L28.79,32C30.53,32 32.03,30.456 31.564,28.59L29.624,29.076ZM23,22C25.056,22 26.5,23.006 27.556,24.414C28.636,25.85 29.268,27.664 29.624,29.076L31.564,28.59C31.18,27.062 30.464,24.958 29.156,23.212C27.826,21.44 25.84,20 23,20L23,22ZM20.136,22.806C20.916,22.312 21.852,22 23,22L23,20C21.464,20 20.158,20.424 19.064,21.118L20.136,22.806ZM18.878,22.652C20.772,24.632 21.53,27.33 21.824,29.172L23.798,28.856C23.478,26.856 22.632,23.684 20.324,21.27L18.878,22.652ZM21.824,29.172C21.886,29.566 21.584,30 21,30L21,32C22.626,32 24.082,30.644 23.798,28.856L21.824,29.172Z" fill="#010101"/>
<path d="M29,5L37,5L37,4L29,4L29,5ZM37,5L38,5C38,4.448 37.552,4 37,4L37,5ZM37,5L37,6C37.552,6 38,5.552 38,5L37,5ZM37,5L29,5L29,6L37,6L37,5ZM29,5L28,5C28,5.552 28.448,6 29,6L29,5ZM29,5L29,4C28.448,4 28,4.448 28,5L29,5Z" fill="#010101"/>
<path d="M29,5L37,5L37,4L29,4L29,5ZM37,5L38,5C38,4.448 37.552,4 37,4L37,5ZM37,5L37,6C37.552,6 38,5.552 38,5L37,5ZM37,5L29,5L29,6L37,6L37,5ZM29,5L28,5C28,5.552 28.448,6 29,6L29,5ZM29,5L29,4C28.448,4 28,4.448 28,5L29,5Z" transform="rotate(180 33 5)" fill="#010101"/>
</svg>
