<svg width="42" height="46" viewBox="0 0 42 46" fill="none" xmlns="http://www.w3.org/2000/svg" xmlns:xlink="http://www.w3.org/1999/xlink">
<path d="M32.5,22C32.5,22.828 33.172,23.5 34,23.5C34.828,23.5 35.5,22.828 35.5,22L32.5,22ZM34,9.498L32.5,9.497L32.5,9.498L34,9.498ZM33.648,8.648L32.587,9.709L32.588,9.709L33.648,8.648ZM27.352,2.352L26.291,3.412L26.291,3.413L27.352,2.352ZM26.504,2L26.505,0.5L26.504,0.5L26.504,2ZM2,40.8L3.5,40.8L2,40.8ZM3.2,42L3.2,43.5L3.2,42ZM20,43.5C20.828,43.5 21.5,42.828 21.5,42C21.5,41.172 20.828,40.5 20,40.5L20,43.5ZM10,16.5C9.172,16.5 8.5,17.172 8.5,18C8.5,18.828 9.172,19.5 10,19.5L10,16.5ZM26,19.5C26.828,19.5 27.5,18.828 27.5,18C27.5,17.172 26.828,16.5 26,16.5L26,19.5ZM10,8.5C9.172,8.5 8.5,9.172 8.5,10C8.5,10.828 9.172,11.5 10,11.5L10,8.5ZM18,11.5C18.828,11.5 19.5,10.828 19.5,10C19.5,9.172 18.828,8.5 18,8.5L18,11.5ZM10,24.5C9.172,24.5 8.5,25.172 8.5,26C8.5,26.828 9.172,27.5 10,27.5L10,24.5ZM16,27.5C16.828,27.5 17.5,26.828 17.5,26C17.5,25.172 16.828,24.5 16,24.5L16,27.5ZM35.5,22L35.5,9.498L32.5,9.498L32.5,22L35.5,22ZM35.5,9.499C35.5,9.144 35.43,8.792 35.295,8.464L32.523,9.612C32.508,9.575 32.5,9.536 32.5,9.497L35.5,9.499ZM35.295,8.464C35.159,8.136 34.959,7.838 34.708,7.587L32.588,9.709C32.56,9.681 32.538,9.648 32.523,9.612L35.295,8.464ZM34.709,7.587L28.413,1.291L26.291,3.413L32.587,9.709L34.709,7.587ZM28.413,1.292C27.907,0.786 27.221,0.501 26.505,0.5L26.503,3.5C26.423,3.5 26.347,3.468 26.291,3.412L28.413,1.292ZM26.504,0.5L3.2,0.5L3.2,3.5L26.504,3.5L26.504,0.5ZM3.2,0.5C2.484,0.5 1.797,0.784 1.291,1.291L3.412,3.412C3.356,3.468 3.28,3.5 3.2,3.5L3.2,0.5ZM1.291,1.291C0.784,1.797 0.5,2.484 0.5,3.2L3.5,3.2C3.5,3.28 3.468,3.356 3.412,3.412L1.291,1.291ZM0.5,3.2L0.5,40.8L3.5,40.8L3.5,3.2L0.5,3.2ZM0.5,40.8C0.5,41.516 0.784,42.203 1.291,42.709L3.412,40.588C3.468,40.644 3.5,40.72 3.5,40.8L0.5,40.8ZM1.291,42.709C1.797,43.216 2.484,43.5 3.2,43.5L3.2,40.5C3.28,40.5 3.356,40.532 3.412,40.588L1.291,42.709ZM3.2,43.5L20,43.5L20,40.5L3.2,40.5L3.2,43.5ZM10,19.5L26,19.5L26,16.5L10,16.5L10,19.5ZM10,11.5L18,11.5L18,8.5L10,8.5L10,11.5ZM10,27.5L16,27.5L16,24.5L10,24.5L10,27.5Z" fill="#010101"/>
<path d="M27.5,2C27.5,1.172 26.828,0.5 26,0.5C25.172,0.5 24.5,1.172 24.5,2L27.5,2ZM26,8.8L27.5,8.8L26,8.8ZM34,11.5C34.828,11.5 35.5,10.828 35.5,10C35.5,9.172 34.828,8.5 34,8.5L34,11.5ZM33.984,28.25L34.353,26.796L34.353,26.796L33.984,28.25ZM39.096,29.548L39.468,28.095L39.465,28.094L39.096,29.548ZM39.986,30.716L41.485,30.761L41.485,30.76L39.986,30.716ZM33,44L32.614,45.45C32.867,45.517 33.133,45.517 33.386,45.45L33,44ZM26.014,30.716L24.514,30.747L24.515,30.761L26.014,30.716ZM26.904,29.548L27.272,31.002L27.273,31.002L26.904,29.548ZM32.016,28.25L31.647,26.796L31.647,26.796L32.016,28.25ZM24.5,2L24.5,8.8L27.5,8.8L27.5,2L24.5,2ZM24.5,8.8C24.5,9.516 24.784,10.203 25.291,10.709L27.412,8.588C27.468,8.644 27.5,8.72 27.5,8.8L24.5,8.8ZM25.291,10.709C25.797,11.216 26.484,11.5 27.2,11.5L27.2,8.5C27.28,8.5 27.356,8.532 27.412,8.588L25.291,10.709ZM27.2,11.5L34,11.5L34,8.5L27.2,8.5L27.2,11.5ZM33.615,29.704L38.727,31.002L39.465,28.094L34.353,26.796L33.615,29.704ZM38.724,31.001C38.595,30.968 38.482,30.845 38.487,30.672L41.485,30.76C41.522,29.491 40.661,28.4 39.468,28.095L38.724,31.001ZM38.487,30.671C38.324,36.124 36.684,39.088 35.252,40.67C34.525,41.472 33.821,41.954 33.32,42.23C33.069,42.368 32.869,42.454 32.743,42.503C32.68,42.528 32.636,42.543 32.613,42.55C32.602,42.554 32.596,42.555 32.596,42.555C32.596,42.555 32.598,42.555 32.601,42.554C32.602,42.554 32.604,42.553 32.606,42.553C32.607,42.552 32.609,42.552 32.61,42.552C32.611,42.551 32.612,42.551 32.612,42.551C32.613,42.551 32.614,42.55 33,44C33.386,45.45 33.387,45.449 33.388,45.449C33.389,45.449 33.39,45.448 33.391,45.448C33.392,45.448 33.394,45.447 33.396,45.447C33.4,45.446 33.404,45.444 33.409,45.443C33.418,45.441 33.429,45.437 33.442,45.434C33.467,45.426 33.499,45.417 33.536,45.405C33.611,45.38 33.71,45.346 33.829,45.3C34.068,45.207 34.389,45.065 34.766,44.858C35.522,44.442 36.499,43.762 37.476,42.683C39.451,40.502 41.304,36.824 41.485,30.761L38.487,30.671ZM33,44C33.386,42.55 33.387,42.551 33.388,42.551C33.388,42.551 33.389,42.551 33.39,42.552C33.391,42.552 33.393,42.552 33.394,42.553C33.396,42.553 33.398,42.554 33.399,42.554C33.402,42.555 33.404,42.555 33.404,42.555C33.404,42.555 33.398,42.554 33.387,42.55C33.364,42.543 33.32,42.528 33.257,42.503C33.131,42.454 32.931,42.368 32.68,42.23C32.179,41.954 31.475,41.472 30.748,40.67C29.316,39.088 27.676,36.124 27.513,30.671L24.515,30.761C24.696,36.824 26.549,40.502 28.524,42.683C29.501,43.762 30.478,44.442 31.234,44.858C31.611,45.065 31.932,45.207 32.171,45.3C32.29,45.346 32.389,45.38 32.464,45.405C32.501,45.417 32.533,45.426 32.558,45.434C32.571,45.437 32.582,45.441 32.591,45.443C32.596,45.444 32.6,45.446 32.604,45.447C32.606,45.447 32.608,45.448 32.609,45.448C32.61,45.448 32.611,45.449 32.612,45.449C32.613,45.449 32.614,45.45 33,44ZM27.514,30.685C27.515,30.758 27.492,30.828 27.448,30.886L25.062,29.068C24.695,29.549 24.502,30.141 24.514,30.747L27.514,30.685ZM27.448,30.886C27.404,30.943 27.342,30.984 27.272,31.002L26.536,28.094C25.949,28.243 25.429,28.586 25.062,29.068L27.448,30.886ZM27.273,31.002L32.385,29.704L31.647,26.796L26.535,28.094L27.273,31.002ZM32.385,29.704C32.789,29.601 33.211,29.601 33.615,29.704L34.353,26.796C33.465,26.571 32.535,26.571 31.647,26.796L32.385,29.704Z" fill="#010101"/>
</svg>
