<svg width="36" height="38" viewBox="0 0 36 38" fill="none" xmlns="http://www.w3.org/2000/svg" xmlns:xlink="http://www.w3.org/1999/xlink">
<path d="M18.171,6.29L18.001,6.346L17.833,6.292C17.122,6.059 16.364,6.009 15.628,6.147C14.893,6.285 14.204,6.606 13.626,7.082C13.048,7.557 12.599,8.17 12.321,8.865C12.044,9.56 11.946,10.313 12.037,11.056L12.265,12.926C12.439,14.325 13.117,15.612 14.174,16.546C15.23,17.479 16.591,17.994 18.001,17.994C19.411,17.994 20.772,17.479 21.828,16.546C22.885,15.612 23.563,14.325 23.737,12.926L23.967,11.056C24.057,10.313 23.959,9.56 23.681,8.866C23.403,8.171 22.955,7.558 22.377,7.083C21.799,6.608 21.111,6.286 20.375,6.147C19.64,6.009 18.882,6.058 18.171,6.29ZM16.151,8.09C16.507,8.044 16.869,8.08 17.211,8.19L18.001,8.45L18.793,8.19C19.184,8.062 19.602,8.034 20.006,8.11C20.411,8.186 20.79,8.363 21.108,8.624C21.426,8.886 21.673,9.224 21.825,9.606C21.978,9.989 22.032,10.403 21.981,10.812L21.751,12.682C21.635,13.595 21.191,14.434 20.5,15.043C19.81,15.651 18.921,15.987 18.001,15.987C17.081,15.987 16.192,15.651 15.502,15.043C14.811,14.434 14.367,13.595 14.251,12.682L14.021,10.812C13.982,10.493 14.006,10.17 14.092,9.86C14.178,9.551 14.324,9.262 14.521,9.009C14.719,8.756 14.965,8.544 15.245,8.386C15.524,8.228 15.832,8.129 16.151,8.09Z" clip-rule="evenodd" fill-rule="evenodd" fill="#010101"/>
<path d="M21.74,16L13.808,16C12.755,16.001 11.72,16.279 10.808,16.806C7.619,18.648 5.258,20.722 3.729,23.024C3.238,23.764 2.74,24.44 2.274,25.07C0.244,27.82 -1.162,29.724 1.336,32.48C4.407,35.87 10.912,38 17.297,38C23.682,38 30.042,36.744 34.17,32.48C37.226,29.324 35.956,27.916 33.98,25.726C33.286,24.958 32.506,24.094 31.796,23.024C30.208,20.632 27.836,18.55 24.684,16.772C23.786,16.266 22.772,16 21.74,16ZM11.808,18.536C12.417,18.185 13.106,18 13.808,18L21.74,18C22.428,18.001 23.104,18.178 23.702,18.516C26.594,20.144 28.728,22.02 30.13,24.13C30.462,24.63 30.822,25.114 31.22,25.602C31.266,25.658 31.432,25.848 31.66,26.106C32.342,26.886 33.582,28.302 33.798,28.652C34.186,29.284 34.098,29.68 32.732,31.09C29.46,34.472 24.22,36 17.297,36C11.304,36 5.405,33.99 2.819,31.138C2.058,30.298 1.908,29.806 2.051,29.252C2.162,28.812 2.463,28.252 3.036,27.428C3.108,27.322 3.346,26.996 3.643,26.592C4.153,25.892 4.835,24.956 5.123,24.532L5.396,24.132C6.74,22.106 8.869,20.236 11.808,18.536Z" clip-rule="evenodd" fill-rule="evenodd" fill="#010101"/>
<path d="M11.073,2.372C11.021,2.249 10.994,2.118 10.994,1.985C10.993,1.852 11.019,1.72 11.07,1.597C11.121,1.474 11.196,1.362 11.291,1.269C11.386,1.175 11.498,1.102 11.622,1.052C11.745,1.003 11.877,0.978 12.01,0.981C12.143,0.983 12.275,1.012 12.396,1.065C12.518,1.119 12.628,1.196 12.72,1.293C12.811,1.389 12.882,1.503 12.929,1.628L14.929,6.628C15.022,6.873 15.014,7.144 14.909,7.383C14.804,7.623 14.609,7.811 14.366,7.909C14.123,8.006 13.852,8.004 13.61,7.904C13.368,7.804 13.176,7.613 13.073,7.372L11.073,2.372ZM23.073,1.628C23.12,1.503 23.192,1.389 23.283,1.293C23.375,1.196 23.484,1.119 23.606,1.065C23.728,1.012 23.859,0.983 23.992,0.981C24.125,0.978 24.258,1.003 24.381,1.052C24.505,1.102 24.617,1.175 24.712,1.269C24.806,1.362 24.881,1.474 24.933,1.597C24.984,1.72 25.01,1.852 25.009,1.985C25.008,2.118 24.981,2.249 24.929,2.372L22.929,7.372C22.882,7.496 22.811,7.61 22.72,7.707C22.628,7.803 22.518,7.881 22.396,7.934C22.275,7.988 22.143,8.017 22.01,8.019C21.877,8.021 21.745,7.997 21.622,7.947C21.498,7.898 21.386,7.824 21.291,7.731C21.196,7.637 21.121,7.526 21.07,7.403C21.019,7.28 20.993,7.148 20.994,7.015C20.994,6.882 21.021,6.75 21.073,6.628L23.073,1.628ZM17.001,23C17.001,22.734 17.107,22.48 17.294,22.293C17.482,22.105 17.736,22 18.001,22C18.267,22 18.521,22.105 18.708,22.293C18.896,22.48 19.001,22.734 19.001,23L19.001,31C19.001,31.265 18.896,31.519 18.708,31.707C18.521,31.894 18.267,32 18.001,32C17.736,32 17.482,31.894 17.294,31.707C17.107,31.519 17.001,31.265 17.001,31L17.001,23ZM12.169,22.446C12.24,22.332 12.333,22.234 12.443,22.157C12.552,22.08 12.676,22.026 12.807,21.998C12.937,21.97 13.072,21.968 13.204,21.993C13.335,22.018 13.46,22.069 13.572,22.143C13.683,22.217 13.779,22.313 13.852,22.424C13.926,22.536 13.976,22.661 14.001,22.793C14.025,22.925 14.023,23.06 13.994,23.19C13.965,23.321 13.911,23.445 13.833,23.554L9.833,29.554C9.683,29.766 9.456,29.911 9.2,29.959C8.944,30.006 8.68,29.952 8.463,29.808C8.247,29.663 8.095,29.441 8.04,29.186C7.985,28.932 8.032,28.666 8.169,28.446L12.169,22.446ZM23.833,22.446C23.762,22.332 23.67,22.234 23.56,22.157C23.451,22.08 23.327,22.026 23.196,21.998C23.065,21.97 22.93,21.968 22.799,21.993C22.667,22.018 22.542,22.069 22.431,22.143C22.319,22.217 22.224,22.313 22.15,22.424C22.077,22.536 22.026,22.661 22.002,22.793C21.977,22.925 21.98,23.06 22.008,23.19C22.037,23.321 22.092,23.445 22.169,23.554L26.169,29.554C26.32,29.766 26.547,29.911 26.803,29.959C27.059,30.006 27.323,29.952 27.539,29.808C27.756,29.663 27.908,29.441 27.963,29.186C28.017,28.932 27.971,28.666 27.833,28.446L23.833,22.446Z" fill="#010101"/>
</svg>
