<svg width="40" height="36" viewBox="0 0 40 36" fill="none" xmlns="http://www.w3.org/2000/svg" xmlns:xlink="http://www.w3.org/1999/xlink">
<path d="M22,10C22,11.105 22.895,12 24,12C25.105,12 26,11.105 26,10L22,10ZM20,2L20,0L20,2ZM6,2L6,0L6,2ZM2,6L0,6L2,6ZM2,30L0,30L2,30ZM26,26C26,24.895 25.105,24 24,24C22.895,24 22,24.895 22,26L26,26ZM26,10L26,6L22,6L22,10L26,10ZM26,6C26,4.409 25.368,2.883 24.243,1.757L21.414,4.586C21.789,4.961 22,5.47 22,6L26,6ZM24.243,1.757C23.117,0.632 21.591,0 20,0L20,4C20.53,4 21.039,4.211 21.414,4.586L24.243,1.757ZM20,0L6,0L6,4L20,4L20,0ZM6,0C4.409,0 2.883,0.632 1.757,1.757L4.586,4.586C4.961,4.211 5.47,4 6,4L6,0ZM1.757,1.757C0.632,2.883 0,4.409 0,6L4,6C4,5.47 4.211,4.961 4.586,4.586L1.757,1.757ZM0,6L0,30L4,30L4,6L0,6ZM0,30C0,31.591 0.632,33.117 1.757,34.243L4.586,31.414C4.211,31.039 4,30.53 4,30L0,30ZM1.757,34.243C2.883,35.368 4.409,36 6,36L6,32C5.47,32 4.961,31.789 4.586,31.414L1.757,34.243ZM6,36L20,36L20,32L6,32L6,36ZM20,36C21.591,36 23.117,35.368 24.243,34.243L21.414,31.414C21.039,31.789 20.53,32 20,32L20,36ZM24.243,34.243C25.368,33.117 26,31.591 26,30L22,30C22,30.53 21.789,31.039 21.414,31.414L24.243,34.243ZM26,30L26,26L22,26L22,30L26,30Z" fill="#010101"/>
<path d="M14,16C12.895,16 12,16.895 12,18C12,19.105 12.895,20 14,20L14,16ZM38,18L39.414,19.414C40.195,18.633 40.195,17.367 39.414,16.586L38,18ZM33.414,10.586C32.633,9.805 31.367,9.805 30.586,10.586C29.805,11.367 29.805,12.633 30.586,13.414L33.414,10.586ZM30.586,22.586C29.805,23.367 29.805,24.633 30.586,25.414C31.367,26.195 32.633,26.195 33.414,25.414L30.586,22.586ZM14,20L38,20L38,16L14,16L14,20ZM39.414,16.586L33.414,10.586L30.586,13.414L36.586,19.414L39.414,16.586ZM33.414,25.414L39.414,19.414L36.586,16.586L30.586,22.586L33.414,25.414Z" fill="#010101"/>
</svg>
