<svg width="36" height="38" viewBox="0 0 36 38" fill="none" xmlns="http://www.w3.org/2000/svg" xmlns:xlink="http://www.w3.org/1999/xlink">
<path d="M26.833,18.001C26.833,18.829 27.504,19.501 28.333,19.501C29.161,19.501 29.833,18.829 29.833,18.001L26.833,18.001ZM28.333,7.582L26.833,7.581L26.833,7.582L28.333,7.582ZM28.039,6.874L26.979,7.935L26.979,7.935L28.039,6.874ZM22.793,1.627L21.731,2.687L21.732,2.688L22.793,1.627ZM22.086,1.334L22.087,-0.166L22.086,-0.166L22.086,1.334ZM1.666,33.667L3.166,33.667L1.666,33.667ZM2.666,34.667L2.666,36.167L2.666,34.667ZM16.666,36.167C17.494,36.167 18.166,35.496 18.166,34.667C18.166,33.839 17.494,33.167 16.666,33.167L16.666,36.167ZM8.333,13.167C7.504,13.167 6.833,13.839 6.833,14.667C6.833,15.496 7.504,16.167 8.333,16.167L8.333,13.167ZM21.666,16.167C22.494,16.167 23.166,15.496 23.166,14.667C23.166,13.839 22.494,13.167 21.666,13.167L21.666,16.167ZM8.333,6.501C7.504,6.501 6.833,7.172 6.833,8.001C6.833,8.829 7.504,9.501 8.333,9.501L8.333,6.501ZM14.999,9.501C15.828,9.501 16.499,8.829 16.499,8.001C16.499,7.172 15.828,6.501 14.999,6.501L14.999,9.501ZM8.333,19.834C7.504,19.834 6.833,20.506 6.833,21.334C6.833,22.162 7.504,22.834 8.333,22.834L8.333,19.834ZM13.333,22.834C14.161,22.834 14.833,22.162 14.833,21.334C14.833,20.506 14.161,19.834 13.333,19.834L13.333,22.834ZM29.833,18.001L29.833,7.582L26.833,7.582L26.833,18.001L29.833,18.001ZM29.833,7.584C29.833,7.255 29.768,6.929 29.642,6.625L26.871,7.773C26.846,7.712 26.833,7.647 26.833,7.581L29.833,7.584ZM29.642,6.625C29.517,6.321 29.332,6.045 29.099,5.813L26.979,7.935C26.933,7.889 26.896,7.834 26.871,7.773L29.642,6.625ZM29.1,5.813L23.853,0.567L21.732,2.688L26.979,7.935L29.1,5.813ZM23.854,0.567C23.386,0.098 22.75,-0.165 22.087,-0.166L22.085,2.834C21.952,2.834 21.825,2.781 21.731,2.687L23.854,0.567ZM22.086,-0.166L2.666,-0.166L2.666,2.834L22.086,2.834L22.086,-0.166ZM2.666,-0.166C2.003,-0.166 1.367,0.097 0.898,0.566L3.02,2.688C2.926,2.781 2.799,2.834 2.666,2.834L2.666,-0.166ZM0.898,0.566C0.429,1.035 0.166,1.671 0.166,2.334L3.166,2.334C3.166,2.467 3.113,2.594 3.02,2.688L0.898,0.566ZM0.166,2.334L0.166,33.667L3.166,33.667L3.166,2.334L0.166,2.334ZM0.166,33.667C0.166,34.33 0.429,34.966 0.898,35.435L3.02,33.314C3.113,33.408 3.166,33.535 3.166,33.667L0.166,33.667ZM0.898,35.435C1.367,35.904 2.003,36.167 2.666,36.167L2.666,33.167C2.799,33.167 2.926,33.22 3.02,33.314L0.898,35.435ZM2.666,36.167L16.666,36.167L16.666,33.167L2.666,33.167L2.666,36.167ZM8.333,16.167L21.666,16.167L21.666,13.167L8.333,13.167L8.333,16.167ZM8.333,9.501L14.999,9.501L14.999,6.501L8.333,6.501L8.333,9.501ZM8.333,22.834L13.333,22.834L13.333,19.834L8.333,19.834L8.333,22.834Z" fill="#010101"/>
<path d="M23.166,1.334C23.166,0.506 22.494,-0.166 21.666,-0.166C20.838,-0.166 20.166,0.506 20.166,1.334L23.166,1.334ZM21.666,7.001L23.166,7.001L21.666,7.001ZM28.333,9.501C29.161,9.501 29.833,8.829 29.833,8.001C29.833,7.172 29.161,6.501 28.333,6.501L28.333,9.501ZM28.319,23.209L28.688,21.755L28.688,21.755L28.319,23.209ZM32.579,24.291L32.951,22.837L32.948,22.837L32.579,24.291ZM33.321,25.264L34.82,25.309L34.82,25.308L33.321,25.264ZM27.499,36.334L27.114,37.784C27.366,37.851 27.632,37.851 27.885,37.784L27.499,36.334ZM21.678,25.264L20.178,25.295L20.178,25.309L21.678,25.264ZM22.419,24.291L22.788,25.745L22.789,25.745L22.419,24.291ZM26.679,23.209L26.31,21.755L26.31,21.755L26.679,23.209ZM20.166,1.334L20.166,7.001L23.166,7.001L23.166,1.334L20.166,1.334ZM20.166,7.001C20.166,7.664 20.429,8.3 20.898,8.768L23.02,6.647C23.113,6.741 23.166,6.868 23.166,7.001L20.166,7.001ZM20.898,8.768C21.367,9.237 22.003,9.501 22.666,9.501L22.666,6.501C22.799,6.501 22.926,6.553 23.02,6.647L20.898,8.768ZM22.666,9.501L28.333,9.501L28.333,6.501L22.666,6.501L22.666,9.501ZM27.95,24.663L32.21,25.745L32.948,22.837L28.688,21.755L27.95,24.663ZM32.208,25.744C31.99,25.688 31.814,25.484 31.822,25.22L34.82,25.308C34.855,24.131 34.055,23.12 32.951,22.837L32.208,25.744ZM31.822,25.219C31.687,29.712 30.339,32.123 29.191,33.391C28.606,34.037 28.042,34.422 27.645,34.64C27.447,34.749 27.29,34.817 27.194,34.854C27.147,34.872 27.114,34.883 27.1,34.888C27.093,34.89 27.09,34.891 27.092,34.89C27.093,34.89 27.096,34.889 27.099,34.888C27.101,34.888 27.103,34.887 27.105,34.887C27.107,34.886 27.108,34.886 27.109,34.886C27.11,34.885 27.111,34.885 27.111,34.885C27.112,34.885 27.114,34.884 27.499,36.334C27.885,37.784 27.886,37.783 27.888,37.783C27.888,37.783 27.889,37.782 27.89,37.782C27.892,37.782 27.893,37.781 27.895,37.781C27.899,37.78 27.903,37.779 27.908,37.777C27.916,37.775 27.927,37.772 27.938,37.769C27.961,37.762 27.99,37.753 28.023,37.742C28.09,37.721 28.177,37.691 28.281,37.65C28.489,37.569 28.767,37.447 29.092,37.268C29.742,36.91 30.58,36.327 31.415,35.405C33.106,33.537 34.668,30.413 34.82,25.309L31.822,25.219ZM27.499,36.334C27.885,34.884 27.886,34.885 27.887,34.885C27.888,34.885 27.889,34.885 27.889,34.886C27.891,34.886 27.892,34.886 27.893,34.887C27.896,34.887 27.898,34.888 27.9,34.888C27.903,34.889 27.905,34.89 27.906,34.89C27.909,34.891 27.906,34.89 27.899,34.888C27.884,34.883 27.852,34.872 27.804,34.854C27.709,34.817 27.552,34.749 27.353,34.64C26.957,34.422 26.393,34.037 25.808,33.391C24.66,32.123 23.311,29.712 23.177,25.219L20.178,25.309C20.331,30.413 21.893,33.537 23.584,35.405C24.419,36.327 25.256,36.91 25.907,37.268C26.231,37.447 26.509,37.569 26.718,37.65C26.822,37.691 26.909,37.721 26.976,37.742C27.009,37.753 27.037,37.762 27.06,37.769C27.072,37.772 27.082,37.775 27.091,37.777C27.096,37.779 27.1,37.78 27.103,37.781C27.105,37.781 27.107,37.782 27.109,37.782C27.11,37.782 27.111,37.783 27.111,37.783C27.112,37.783 27.114,37.784 27.499,36.334ZM23.177,25.233C23.18,25.35 23.143,25.464 23.072,25.557L20.686,23.739C20.345,24.185 20.167,24.734 20.178,25.295L23.177,25.233ZM23.072,25.557C23.001,25.65 22.901,25.716 22.788,25.745L22.051,22.837C21.507,22.974 21.026,23.292 20.686,23.739L23.072,25.557ZM22.789,25.745L27.048,24.663L26.31,21.755L22.05,22.837L22.789,25.745ZM27.048,24.663C27.345,24.588 27.654,24.588 27.95,24.663L28.688,21.755C27.908,21.557 27.091,21.557 26.31,21.755L27.048,24.663Z" fill="#010101"/>
</svg>
