<svg width="36" height="36" viewBox="0 0 36 36" fill="none" xmlns="http://www.w3.org/2000/svg" xmlns:xlink="http://www.w3.org/1999/xlink">
<path d="M34,10C35.105,10 36,9.105 36,8C36,6.895 35.105,6 34,6L34,10ZM16,6C14.895,6 14,6.895 14,8C14,9.105 14.895,10 16,10L16,6ZM22,30C23.105,30 24,29.105 24,28C24,26.895 23.105,26 22,26L22,30ZM4,26C2.895,26 2,26.895 2,28C2,29.105 2.895,30 4,30L4,26ZM34,6L16,6L16,10L34,10L34,6ZM22,26L4,26L4,30L22,30L22,26Z" fill="#5F5F5F"/>
<path d="M32,28C32,30.209 30.209,32 28,32L28,36C32.418,36 36,32.418 36,28L32,28ZM28,32C25.791,32 24,30.209 24,28L20,28C20,32.418 23.582,36 28,36L28,32ZM24,28C24,25.791 25.791,24 28,24L28,20C23.582,20 20,23.582 20,28L24,28ZM28,24C30.209,24 32,25.791 32,28L36,28C36,23.582 32.418,20 28,20L28,24Z" fill="#5F5F5F"/>
<path d="M12,8C12,10.209 10.209,12 8,12L8,16C12.418,16 16,12.418 16,8L12,8ZM8,12C5.791,12 4,10.209 4,8L0,8C0,12.418 3.582,16 8,16L8,12ZM4,8C4,5.791 5.791,4 8,4L8,0C3.582,0 0,3.582 0,8L4,8ZM8,4C10.209,4 12,5.791 12,8L16,8C16,3.582 12.418,0 8,0L8,4Z" fill="#5F5F5F"/>
</svg>
