<svg width="40" height="44" viewBox="0 0 40 44" fill="none" xmlns="http://www.w3.org/2000/svg" xmlns:xlink="http://www.w3.org/1999/xlink">
<path d="M33.5,17.42L34.561,18.48L35,18.041L35,17.42L33.5,17.42ZM6.5,17.42L5,17.42L5,17.422L6.5,17.42ZM5.116,22.17L6.378,22.981L6.38,22.978L5.116,22.17ZM2.9,25.62L1.638,24.809L1.638,24.81L2.9,25.62ZM5.94,34.048L6.349,32.605L6.349,32.605L5.94,34.048ZM34.06,34.048L33.652,32.605L33.651,32.605L34.06,34.048ZM37.1,25.622L38.362,24.811L38.362,24.811L37.1,25.622ZM34.884,22.172L33.62,22.98L33.622,22.983L34.884,22.172ZM33.498,17.422L32.437,16.362L31.999,16.8L31.998,17.42L33.498,17.422ZM35,17.42L35,16.01L32,16.01L32,17.42L35,17.42ZM35,16.01C35,7.496 28.332,0.5 20,0.5L20,3.5C26.572,3.5 32,9.048 32,16.01L35,16.01ZM20,0.5C11.668,0.5 5,7.496 5,16.01L8,16.01C8,9.048 13.428,3.5 20,3.5L20,0.5ZM5,16.01L5,17.42L8,17.42L8,16.01L5,16.01ZM5,17.422C5.002,18.818 4.604,20.186 3.852,21.362L6.38,22.978C7.441,21.317 8.003,19.388 8,17.418L5,17.422ZM3.854,21.359L1.638,24.809L4.162,26.431L6.378,22.981L3.854,21.359ZM1.638,24.81C-0.899,28.762 0.993,34.206 5.532,35.491L6.349,32.605C3.851,31.898 2.655,28.778 4.162,26.43L1.638,24.81ZM5.531,35.491C14.991,38.173 25.01,38.173 34.469,35.491L33.651,32.605C24.726,35.135 15.274,35.135 6.349,32.605L5.531,35.491ZM34.469,35.491C39.006,34.207 40.9,28.762 38.362,24.811L35.838,26.433C37.345,28.778 36.15,31.897 33.652,32.605L34.469,35.491ZM38.362,24.811L36.146,21.361L33.622,22.983L35.838,26.433L38.362,24.811ZM36.148,21.364C35.396,20.188 34.997,18.82 34.998,17.424L31.998,17.42C31.996,19.391 32.559,21.32 33.62,22.98L36.148,21.364ZM34.559,18.482L34.561,18.48L32.439,16.36L32.437,16.362L34.559,18.482Z" fill="#010101"/>
<path d="M12.405,35.474C12.114,34.698 11.249,34.305 10.474,34.595C9.698,34.886 9.305,35.751 9.595,36.526L12.405,35.474ZM30.405,36.526C30.695,35.751 30.302,34.886 29.526,34.595C28.751,34.305 27.886,34.698 27.595,35.474L30.405,36.526ZM9.595,36.526C11.133,40.631 15.243,43.5 20,43.5L20,40.5C16.445,40.5 13.487,38.361 12.405,35.474L9.595,36.526ZM20,43.5C24.757,43.5 28.867,40.631 30.405,36.526L27.595,35.474C26.513,38.361 23.555,40.5 20,40.5L20,43.5Z" fill="#010101"/>
</svg>
