<svg width="48" height="48" viewBox="0 0 48 48" fill="none" xmlns="http://www.w3.org/2000/svg" xmlns:xlink="http://www.w3.org/1999/xlink">
<path d="M29.772,21.667C29.496,20.887 28.985,20.212 28.31,19.734C27.634,19.256 26.827,19 26,19L26,18L24,18L24,19C22.939,19 21.922,19.421 21.172,20.172C20.421,20.922 20,21.939 20,23C20,24.061 20.421,25.078 21.172,25.828C21.922,26.579 22.939,27 24,27L24,31C23.13,31 22.389,30.445 22.113,29.667C22.072,29.54 22.006,29.422 21.919,29.321C21.831,29.219 21.725,29.137 21.605,29.077C21.485,29.018 21.355,28.983 21.221,28.975C21.088,28.967 20.954,28.986 20.828,29.03C20.702,29.075 20.586,29.144 20.487,29.234C20.388,29.325 20.309,29.433 20.253,29.555C20.197,29.676 20.166,29.808 20.162,29.941C20.157,30.075 20.18,30.208 20.228,30.333C20.504,31.113 21.015,31.788 21.69,32.266C22.366,32.744 23.173,33 24,33L24,34L26,34L26,33C27.061,33 28.078,32.579 28.828,31.828C29.579,31.078 30,30.061 30,29C30,27.939 29.579,26.922 28.828,26.172C28.078,25.421 27.061,25 26,25L26,21C26.414,21 26.817,21.128 27.155,21.367C27.493,21.605 27.748,21.943 27.886,22.333C27.974,22.583 28.158,22.788 28.398,22.902C28.516,22.959 28.645,22.992 28.776,22.999C28.907,23.006 29.038,22.987 29.162,22.943C29.286,22.899 29.4,22.832 29.498,22.744C29.595,22.656 29.675,22.55 29.731,22.431C29.788,22.313 29.821,22.184 29.828,22.053C29.835,21.922 29.816,21.791 29.772,21.667ZM24,21C23.47,21 22.961,21.211 22.586,21.586C22.211,21.961 22,22.47 22,23C22,23.53 22.211,24.039 22.586,24.414C22.961,24.789 23.47,25 24,25L24,21ZM26,31C26.53,31 27.039,30.789 27.414,30.414C27.789,30.039 28,29.53 28,29C28,28.47 27.789,27.961 27.414,27.586C27.039,27.211 26.53,27 26,27L26,31Z" clip-rule="evenodd" fill-rule="evenodd" fill="#010101"/>
<path d="M11.346,3.058C14.209,1.657 18.906,0 24.046,0C29.079,0 33.652,1.588 36.5,2.97L36.661,3.049C37.52,3.473 38.213,3.875 38.701,4.2L34.391,10.5C44.326,20.657 52.001,41.997 24.046,41.997C-3.909,41.997 3.559,21.045 13.581,10.5L9.299,4.2C9.629,3.984 10.048,3.733 10.548,3.467C10.795,3.334 11.061,3.197 11.346,3.058ZM31.621,10.417L35.071,5.374C31.863,5.605 28.045,6.358 24.37,7.422C21.745,8.181 18.829,8.065 16.128,7.567C15.447,7.441 14.771,7.291 14.101,7.117L16.341,10.415C21.142,12.124 26.819,12.124 31.621,10.417ZM14.994,12.402C20.611,14.572 27.363,14.572 32.98,12.399C35.325,14.872 37.286,17.681 38.8,20.733C40.377,23.951 41.236,27.167 41.096,29.939C40.961,32.615 39.908,34.9 37.505,36.599C35,38.369 30.787,39.664 24.045,39.664C17.296,39.664 13.063,38.391 10.535,36.641C8.114,34.964 7.051,32.709 6.901,30.07C6.743,27.328 7.583,24.128 9.155,20.888C10.654,17.799 12.746,14.825 14.994,12.402ZM13.652,4.569C14.585,4.846 15.561,5.088 16.55,5.271C19.058,5.733 21.574,5.801 23.721,5.179C26.222,4.45 28.766,3.877 31.339,3.463C29.192,2.816 26.682,2.333 24.045,2.333C20.026,2.333 16.277,3.455 13.652,4.569Z" clip-rule="evenodd" fill-rule="evenodd" fill="#010101"/>
</svg>
