<svg width="38" height="32" viewBox="0 0 38 32" fill="none" xmlns="http://www.w3.org/2000/svg" xmlns:xlink="http://www.w3.org/1999/xlink">
<path d="M16,9C16,11.209 14.209,13 12,13L12,15C15.314,15 18,12.314 18,9L16,9ZM12,13C9.791,13 8,11.209 8,9L6,9C6,12.314 8.686,15 12,15L12,13ZM8,9C8,6.791 9.791,5 12,5L12,3C8.686,3 6,5.686 6,9L8,9ZM12,5C14.209,5 16,6.791 16,9L18,9C18,5.686 15.314,3 12,3L12,5Z" fill="#010101"/>
<path d="M19.536,10L20.406,10.494L20.406,10.494L19.536,10ZM26.464,14L25.602,13.494L26.464,14ZM20.406,10.494C20.601,10.15 20.863,9.848 21.176,9.606L19.95,8.025C19.429,8.429 18.993,8.932 18.667,9.505L20.406,10.494ZM21.176,9.606C21.488,9.363 21.846,9.185 22.228,9.081L21.704,7.151C21.067,7.324 20.471,7.621 19.95,8.025L21.176,9.606ZM22.228,9.081C22.609,8.978 23.008,8.951 23.4,9.002L23.658,7.018C23.004,6.933 22.34,6.978 21.704,7.151L22.228,9.081ZM23.4,9.002C23.793,9.053 24.171,9.181 24.514,9.379L25.514,7.646C24.943,7.317 24.312,7.103 23.658,7.018L23.4,9.002ZM24.514,9.379C24.856,9.576 25.156,9.84 25.397,10.154L26.986,8.939C26.585,8.416 26.085,7.976 25.514,7.646L24.514,9.379ZM25.397,10.154C25.637,10.469 25.813,10.827 25.914,11.21L27.848,10.699C27.679,10.061 27.386,9.463 26.986,8.939L25.397,10.154ZM25.914,11.21C26.015,11.592 26.04,11.991 25.986,12.383L27.968,12.654C28.057,12.001 28.016,11.336 27.848,10.699L25.914,11.21ZM25.986,12.383C25.932,12.775 25.802,13.152 25.602,13.494L27.327,14.505C27.661,13.936 27.878,13.307 27.968,12.654L25.986,12.383ZM25.602,13.494C25.201,14.177 24.546,14.674 23.78,14.877L24.292,16.81C25.568,16.473 26.659,15.644 27.327,14.505L25.602,13.494ZM23.78,14.877C23.015,15.079 22.2,14.971 21.514,14.575L20.514,16.307C21.657,16.967 23.015,17.148 24.292,16.81L23.78,14.877ZM21.514,14.575C20.828,14.179 20.326,13.527 20.118,12.763L18.188,13.287C18.534,14.561 19.37,15.646 20.514,16.307L21.514,14.575ZM20.118,12.763C19.911,11.998 20.014,11.182 20.406,10.494L18.667,9.505C18.015,10.653 17.842,12.012 18.188,13.287L20.118,12.763Z" fill="#010101"/>
<path d="M21,29L3,29L3,31L21,31L21,29ZM2.176,28.172C2.436,26.544 3.06,24.23 4.528,22.342C5.958,20.502 8.238,19 12,19L12,17C7.602,17 4.748,18.8 2.948,21.114C1.188,23.382 0.486,26.074 0.202,27.856L2.176,28.172ZM12,19C15.762,19 18.04,20.5 19.472,22.342C20.94,24.23 21.564,26.542 21.824,28.172L23.798,27.856C23.514,26.076 22.814,23.382 21.052,21.116C19.252,18.8 16.398,17 12,17L12,19ZM3,29C2.416,29 2.114,28.566 2.176,28.172L0.202,27.856C-0.084,29.644 1.374,31 3,31L3,29ZM21,31C22.626,31 24.082,29.644 23.798,27.856L21.824,28.172C21.886,28.566 21.584,29 21,29L21,31Z" fill="#010101"/>
<path d="M19.599,20.962L19.063,20.118L18.033,20.772L18.877,21.652L19.599,20.962ZM28.789,29L20.999,29L20.999,31L28.789,31L28.789,29ZM29.623,28.076C29.729,28.506 29.415,29 28.789,29L28.789,31C30.529,31 32.029,29.456 31.563,27.59L29.623,28.076ZM22.999,21C25.055,21 26.499,22.006 27.555,23.414C28.635,24.85 29.267,26.664 29.623,28.076L31.563,27.59C31.179,26.062 30.463,23.958 29.155,22.212C27.825,20.44 25.839,19 22.999,19L22.999,21ZM20.135,21.806C20.915,21.312 21.851,21 22.999,21L22.999,19C21.463,19 20.157,19.424 19.063,20.118L20.135,21.806ZM18.877,21.652C20.771,23.632 21.529,26.33 21.823,28.172L23.797,27.856C23.477,25.856 22.631,22.684 20.323,20.27L18.877,21.652ZM21.823,28.172C21.885,28.566 21.583,29 20.999,29L20.999,31C22.625,31 24.081,29.644 23.797,27.856L21.823,28.172Z" fill="#010101"/>
<path d="M29,4L37,4L37,3L29,3L29,4ZM37,4L38,4C38,3.448 37.552,3 37,3L37,4ZM37,4L37,5C37.552,5 38,4.552 38,4L37,4ZM37,4L29,4L29,5L37,5L37,4ZM29,4L28,4C28,4.552 28.448,5 29,5L29,4ZM29,4L29,3C28.448,3 28,3.448 28,4L29,4Z" fill="#010101"/>
<path d="M29,4L37,4L37,3L29,3L29,4ZM37,4L38,4C38,3.448 37.552,3 37,3L37,4ZM37,4L37,5C37.552,5 38,4.552 38,4L37,4ZM37,4L29,4L29,5L37,5L37,4ZM29,4L28,4C28,4.552 28.448,5 29,5L29,4ZM29,4L29,3C28.448,3 28,3.448 28,4L29,4Z" transform="rotate(180 33 4)" fill="#010101"/>
</svg>
