<svg width="34" height="46" viewBox="0 0 34 46" fill="none" xmlns="http://www.w3.org/2000/svg" xmlns:xlink="http://www.w3.org/1999/xlink">
<line x1="-0.498" y1="25.002" x2="-0.498" y2="37.001" stroke="#010101" stroke-width="1.5" stroke-miterlimit="3.999327" stroke-linecap="round" stroke-linejoin="round"/>
<line x1="29.502" y1="25" x2="29.502" y2="37" stroke="#010101" stroke-width="1.5" stroke-miterlimit="3.999327" stroke-linecap="round" stroke-linejoin="round"/>
<line x1="7.002" y1="41.5" x2="25.002" y2="41.5" stroke="#010101" stroke-width="1.5" stroke-miterlimit="3.999327" stroke-linecap="round" stroke-linejoin="round"/>
<path d="M32.502,37C32.502,36.172 31.83,35.5 31.002,35.5C30.173,35.5 29.502,36.172 29.502,37L32.502,37ZM25.002,41.5C24.174,41.5 23.502,42.172 23.502,43C23.502,43.828 24.174,44.5 25.002,44.5L25.002,41.5ZM29.502,37C29.502,37.591 29.386,38.176 29.159,38.722L31.931,39.87C32.308,38.96 32.502,37.985 32.502,37L29.502,37ZM29.159,38.722C28.933,39.268 28.602,39.764 28.184,40.182L30.305,42.303C31.002,41.607 31.554,40.78 31.931,39.87L29.159,38.722ZM28.184,40.182C27.766,40.6 27.27,40.931 26.724,41.157L27.872,43.929C28.782,43.552 29.609,43 30.305,42.303L28.184,40.182ZM26.724,41.157C26.178,41.384 25.593,41.5 25.002,41.5L25.002,44.5C25.987,44.5 26.962,44.306 27.872,43.929L26.724,41.157Z" fill="#010101"/>
<path d="M2.502,37C2.502,36.172 1.83,35.5 1.002,35.5C0.174,35.5 -0.498,36.172 -0.498,37L2.502,37ZM7.002,44.5C7.83,44.5 8.502,43.828 8.502,43C8.502,42.172 7.83,41.5 7.002,41.5L7.002,44.5ZM-0.498,37C-0.498,38.989 0.292,40.897 1.699,42.303L3.82,40.182C2.976,39.338 2.502,38.193 2.502,37L-0.498,37ZM1.699,42.303C3.105,43.71 5.013,44.5 7.002,44.5L7.002,41.5C5.808,41.5 4.664,41.026 3.82,40.182L1.699,42.303Z" fill="#010101"/>
<line x1="14.502" y1="31" x2="14.502" y2="37" stroke="#010101" stroke-width="1.5" stroke-miterlimit="3.999327" stroke-linecap="round" stroke-linejoin="round"/>
<path d="M-0.5,25.002C-0.5,25.83 0.172,26.502 1,26.502C1.828,26.502 2.5,25.83 2.5,25.002L-0.5,25.002ZM4,23.502C4.828,23.502 5.5,22.83 5.5,22.002C5.5,21.174 4.828,20.502 4,20.502L4,23.502ZM2.5,25.002C2.5,24.604 2.658,24.223 2.939,23.941L0.818,21.82C-0.026,22.664 -0.5,23.808 -0.5,25.002L2.5,25.002ZM2.939,23.941C3.221,23.66 3.602,23.502 4,23.502L4,20.502C2.807,20.502 1.662,20.976 0.818,21.82L2.939,23.941Z" fill="#010101"/>
<path d="M29.502,25C29.502,25.828 30.173,26.5 31.002,26.5C31.83,26.5 32.502,25.828 32.502,25L29.502,25ZM28.002,20.5C27.174,20.5 26.502,21.172 26.502,22C26.502,22.828 27.174,23.5 28.002,23.5L28.002,20.5ZM32.502,25C32.502,23.807 32.028,22.662 31.184,21.818L29.063,23.939C29.344,24.221 29.502,24.602 29.502,25L32.502,25ZM31.184,21.818C30.34,20.974 29.195,20.5 28.002,20.5L28.002,23.5C28.4,23.5 28.781,23.658 29.063,23.939L31.184,21.818Z" fill="#010101"/>
<path d="M23.502,10C23.502,10.828 24.173,11.5 25.002,11.5C25.83,11.5 26.502,10.828 26.502,10L23.502,10ZM16.002,-0.5C15.174,-0.5 14.502,0.172 14.502,1C14.502,1.828 15.174,2.5 16.002,2.5L16.002,-0.5ZM26.502,10C26.502,7.215 25.396,4.544 23.427,2.575L21.305,4.697C22.712,6.103 23.502,8.011 23.502,10L26.502,10ZM23.427,2.575C21.457,0.606 18.787,-0.5 16.002,-0.5L16.002,2.5C17.991,2.5 19.899,3.29 21.305,4.697L23.427,2.575Z" fill="#010101"/>
<path d="M5.502,10C5.502,10.828 6.174,11.5 7.002,11.5C7.83,11.5 8.502,10.828 8.502,10L5.502,10ZM16.002,2.5C16.83,2.5 17.502,1.828 17.502,1C17.502,0.172 16.83,-0.5 16.002,-0.5L16.002,2.5ZM8.502,10C8.502,8.011 9.292,6.103 10.699,4.697L8.577,2.575C6.608,4.544 5.502,7.215 5.502,10L8.502,10ZM10.699,4.697C12.105,3.29 14.013,2.5 16.002,2.5L16.002,-0.5C13.217,-0.5 10.546,0.606 8.577,2.575L10.699,4.697Z" fill="#010101"/>
<line x1="5.502" y1="9.982" x2="5.502" y2="22" stroke="#010101" stroke-width="1.5" stroke-miterlimit="3.999327" stroke-linecap="round" stroke-linejoin="round"/>
<line x1="23.502" y1="10" x2="23.502" y2="22" stroke="#010101" stroke-width="1.5" stroke-miterlimit="3.999327" stroke-linecap="round" stroke-linejoin="round"/>
<line x1="4.002" y1="20.5" x2="28.002" y2="20.5" stroke="#010101" stroke-width="1.5" stroke-miterlimit="3.999327" stroke-linecap="round" stroke-linejoin="round"/>
</svg>
