<svg width="34" height="38" viewBox="0 0 34 38" fill="none" xmlns="http://www.w3.org/2000/svg" xmlns:xlink="http://www.w3.org/1999/xlink">
<path d="M27.25,14.184L28.311,15.244L28.75,14.805L28.75,14.184L27.25,14.184ZM4.75,14.184L3.25,14.184L3.25,14.186L4.75,14.184ZM3.597,18.142L4.859,18.953L4.861,18.95L3.597,18.142ZM1.75,21.017L0.488,20.207L0.488,20.207L1.75,21.017ZM4.283,28.041L4.692,26.598L4.692,26.597L4.283,28.041ZM27.717,28.041L27.308,26.597L27.307,26.598L27.717,28.041ZM30.25,21.019L31.512,20.208L31.512,20.208L30.25,21.019ZM28.403,18.144L27.139,18.952L27.141,18.955L28.403,18.144ZM27.248,14.186L26.187,13.126L25.749,13.564L25.748,14.184L27.248,14.186ZM28.75,14.184L28.75,13.009L25.75,13.009L25.75,14.184L28.75,14.184ZM28.75,13.009C28.75,5.785 23.09,-0.166 16,-0.166L16,2.834C21.33,2.834 25.75,7.336 25.75,13.009L28.75,13.009ZM16,-0.166C8.91,-0.166 3.25,5.785 3.25,13.009L6.25,13.009C6.25,7.336 10.67,2.834 16,2.834L16,-0.166ZM3.25,13.009L3.25,14.184L6.25,14.184L6.25,13.009L3.25,13.009ZM3.25,14.186C3.252,15.302 2.933,16.395 2.333,17.335L4.861,18.95C5.77,17.526 6.252,15.871 6.25,14.182L3.25,14.186ZM2.335,17.332L0.488,20.207L3.012,21.828L4.859,18.953L2.335,17.332ZM0.488,20.207C-1.712,23.634 -0.077,28.365 3.875,29.484L4.692,26.597C2.78,26.056 1.842,23.651 3.012,21.828L0.488,20.207ZM3.874,29.484C11.802,31.731 20.198,31.731 28.126,29.484L27.307,26.598C19.915,28.693 12.085,28.693 4.692,26.598L3.874,29.484ZM28.125,29.484C32.077,28.365 33.712,23.634 31.512,20.208L28.988,21.83C30.157,23.651 29.22,26.056 27.308,26.597L28.125,29.484ZM31.512,20.208L29.665,17.333L27.141,18.955L28.988,21.83L31.512,20.208ZM29.667,17.336C29.066,16.396 28.747,15.303 28.748,14.187L25.748,14.184C25.746,15.874 26.229,17.528 27.139,18.952L29.667,17.336ZM28.309,15.246L28.311,15.244L26.189,13.124L26.187,13.126L28.309,15.246Z" fill="#010101"/>
<path d="M9.905,29.142C9.614,28.366 8.749,27.973 7.974,28.263C7.198,28.554 6.805,29.419 7.095,30.194L9.905,29.142ZM24.905,30.194C25.195,29.419 24.802,28.554 24.026,28.263C23.251,27.973 22.386,28.366 22.095,29.142L24.905,30.194ZM7.095,30.194C8.415,33.716 11.936,36.168 16,36.168L16,33.168C13.138,33.168 10.768,31.447 9.905,29.142L7.095,30.194ZM16,36.168C20.064,36.168 23.585,33.716 24.905,30.194L22.095,29.142C21.232,31.447 18.862,33.168 16,33.168L16,36.168Z" fill="#010101"/>
</svg>
