<svg width="36" height="32" viewBox="0 0 36 32" fill="none" xmlns="http://www.w3.org/2000/svg" xmlns:xlink="http://www.w3.org/1999/xlink">
<path d="M19.333,9.333C19.333,10.437 20.229,11.333 21.333,11.333C22.438,11.333 23.333,10.437 23.333,9.333L19.333,9.333ZM18,2.666L18,0.666L18,2.666ZM6.333,2.666L6.333,0.666L6.333,2.666ZM3,5.999L1,5.999L3,5.999ZM3,25.999L1,25.999L3,25.999ZM23.333,22.666C23.333,21.561 22.438,20.666 21.333,20.666C20.229,20.666 19.333,21.561 19.333,22.666L23.333,22.666ZM23.333,9.333L23.333,5.999L19.333,5.999L19.333,9.333L23.333,9.333ZM23.333,5.999C23.333,4.585 22.771,3.228 21.771,2.228L18.943,5.057C19.193,5.307 19.333,5.646 19.333,5.999L23.333,5.999ZM21.771,2.228C20.771,1.228 19.414,0.666 18,0.666L18,4.666C18.354,4.666 18.693,4.806 18.943,5.057L21.771,2.228ZM18,0.666L6.333,0.666L6.333,4.666L18,4.666L18,0.666ZM6.333,0.666C4.919,0.666 3.562,1.228 2.562,2.228L5.391,5.057C5.641,4.806 5.98,4.666 6.333,4.666L6.333,0.666ZM2.562,2.228C1.562,3.228 1,4.585 1,5.999L5,5.999C5,5.646 5.14,5.307 5.391,5.057L2.562,2.228ZM1,5.999L1,25.999L5,25.999L5,5.999L1,5.999ZM1,25.999C1,27.414 1.562,28.77 2.562,29.771L5.391,26.942C5.14,26.692 5,26.353 5,25.999L1,25.999ZM2.562,29.771C3.562,30.771 4.919,31.333 6.333,31.333L6.333,27.333C5.98,27.333 5.641,27.192 5.391,26.942L2.562,29.771ZM6.333,31.333L18,31.333L18,27.333L6.333,27.333L6.333,31.333ZM18,31.333C19.414,31.333 20.771,30.771 21.771,29.771L18.943,26.942C18.693,27.192 18.354,27.333 18,27.333L18,31.333ZM21.771,29.771C22.771,28.77 23.333,27.414 23.333,25.999L19.333,25.999C19.333,26.353 19.193,26.692 18.943,26.942L21.771,29.771ZM23.333,25.999L23.333,22.666L19.333,22.666L19.333,25.999L23.333,25.999Z" fill="#010101"/>
<path d="M13,14C11.895,14 11,14.895 11,16C11,17.105 11.895,18 13,18L13,14ZM33,16L34.414,17.414C35.195,16.633 35.195,15.367 34.414,14.586L33,16ZM29.414,9.586C28.633,8.805 27.367,8.805 26.586,9.586C25.805,10.367 25.805,11.633 26.586,12.414L29.414,9.586ZM26.586,19.586C25.805,20.367 25.805,21.633 26.586,22.414C27.367,23.195 28.633,23.195 29.414,22.414L26.586,19.586ZM13,18L33,18L33,14L13,14L13,18ZM34.414,14.586L29.414,9.586L26.586,12.414L31.586,17.414L34.414,14.586ZM29.414,22.414L34.414,17.414L31.586,14.586L26.586,19.586L29.414,22.414Z" fill="#010101"/>
</svg>
