<svg width="36" height="38" viewBox="0 0 36 38" fill="none" xmlns="http://www.w3.org/2000/svg" xmlns:xlink="http://www.w3.org/1999/xlink">
<path d="M33.8,11C34.904,11 35.8,10.105 35.8,9C35.8,7.895 34.904,7 33.8,7L33.8,11ZM15.8,7C14.695,7 13.8,7.895 13.8,9C13.8,10.105 14.695,11 15.8,11L15.8,7ZM21.8,31C22.904,31 23.8,30.105 23.8,29C23.8,27.895 22.904,27 21.8,27L21.8,31ZM3.8,27C2.695,27 1.8,27.895 1.8,29C1.8,30.105 2.695,31 3.8,31L3.8,27ZM33.8,7L15.8,7L15.8,11L33.8,11L33.8,7ZM21.8,27L3.8,27L3.8,31L21.8,31L21.8,27Z" fill="#FFFFFF"/>
<path d="M31.8,29C31.8,31.209 30.009,33 27.8,33L27.8,37C32.218,37 35.8,33.418 35.8,29L31.8,29ZM27.8,33C25.591,33 23.8,31.209 23.8,29L19.8,29C19.8,33.418 23.382,37 27.8,37L27.8,33ZM23.8,29C23.8,26.791 25.591,25 27.8,25L27.8,21C23.382,21 19.8,24.582 19.8,29L23.8,29ZM27.8,25C30.009,25 31.8,26.791 31.8,29L35.8,29C35.8,24.582 32.218,21 27.8,21L27.8,25Z" fill="#FFFFFF"/>
<path d="M11.8,9C11.8,11.209 10.009,13 7.8,13L7.8,17C12.218,17 15.8,13.418 15.8,9L11.8,9ZM7.8,13C5.591,13 3.8,11.209 3.8,9L-0.2,9C-0.2,13.418 3.382,17 7.8,17L7.8,13ZM3.8,9C3.8,6.791 5.591,5 7.8,5L7.8,1C3.382,1 -0.2,4.582 -0.2,9L3.8,9ZM7.8,5C10.009,5 11.8,6.791 11.8,9L15.8,9C15.8,4.582 12.218,1 7.8,1L7.8,5Z" fill="#FFFFFF"/>
</svg>
