<svg width="42" height="40" viewBox="0 0 42 40" fill="none" xmlns="http://www.w3.org/2000/svg" xmlns:xlink="http://www.w3.org/1999/xlink">
<path d="M25.81,17.056C25.58,16.406 25.155,15.843 24.592,15.445C24.029,15.047 23.356,14.833 22.667,14.833L22.667,14L21,14L21,14.833C20.116,14.833 19.268,15.185 18.643,15.81C18.018,16.435 17.667,17.283 17.667,18.167C17.667,19.051 18.018,19.899 18.643,20.524C19.268,21.149 20.116,21.5 21,21.5L21,24.833C20.275,24.833 19.657,24.371 19.427,23.722C19.393,23.616 19.338,23.518 19.266,23.434C19.193,23.349 19.104,23.28 19.004,23.231C18.904,23.182 18.796,23.153 18.684,23.146C18.573,23.139 18.462,23.155 18.357,23.192C18.252,23.229 18.155,23.287 18.073,23.362C17.99,23.437 17.924,23.528 17.877,23.629C17.831,23.73 17.805,23.84 17.801,23.951C17.798,24.063 17.817,24.174 17.857,24.278C18.086,24.928 18.512,25.49 19.075,25.888C19.638,26.286 20.311,26.5 21,26.5L21,27.333L22.667,27.333L22.667,26.5C23.551,26.5 24.399,26.149 25.024,25.524C25.649,24.899 26,24.051 26,23.167C26,22.283 25.649,21.435 25.024,20.81C24.399,20.185 23.551,19.833 22.667,19.833L22.667,16.5C23.011,16.5 23.348,16.607 23.629,16.806C23.91,17.005 24.123,17.286 24.238,17.611C24.312,17.819 24.465,17.99 24.665,18.085C24.763,18.132 24.871,18.16 24.98,18.166C25.089,18.171 25.198,18.156 25.302,18.119C25.405,18.083 25.5,18.026 25.581,17.953C25.663,17.88 25.729,17.792 25.776,17.693C25.823,17.594 25.851,17.487 25.856,17.378C25.862,17.268 25.846,17.159 25.81,17.056ZM21,16.5C20.558,16.5 20.134,16.676 19.821,16.988C19.509,17.301 19.333,17.725 19.333,18.167C19.333,18.609 19.509,19.033 19.821,19.345C20.134,19.658 20.558,19.833 21,19.833L21,16.5ZM22.667,24.833C23.109,24.833 23.533,24.658 23.845,24.345C24.158,24.033 24.333,23.609 24.333,23.167C24.333,22.725 24.158,22.301 23.845,21.988C23.533,21.676 23.109,21.5 22.667,21.5L22.667,24.833Z" clip-rule="evenodd" fill-rule="evenodd" fill="#010101"/>
<path d="M10.455,1.548C12.84,0.381 16.755,-1 21.038,-1C25.232,-1 29.044,0.323 31.417,1.475L31.551,1.54C32.267,1.894 32.844,2.229 33.25,2.5L29.659,7.75C37.939,16.214 44.334,33.998 21.038,33.998C-2.257,33.998 3.966,16.537 12.317,7.75L8.749,2.5C9.024,2.32 9.373,2.111 9.79,1.889C9.996,1.779 10.217,1.664 10.455,1.548ZM27.351,7.681L30.226,3.478C27.552,3.671 24.371,4.299 21.309,5.185C19.121,5.817 16.69,5.721 14.44,5.306C13.873,5.201 13.309,5.076 12.751,4.931L14.618,7.679C18.618,9.103 23.349,9.103 27.351,7.681ZM13.495,9.335C18.176,11.143 23.802,11.143 28.484,9.333C30.437,11.393 32.072,13.734 33.333,16.278C34.648,18.959 35.363,21.639 35.246,23.949C35.134,26.179 34.257,28.083 32.254,29.499C30.167,30.974 26.656,32.053 21.037,32.053C15.413,32.053 11.886,30.992 9.779,29.534C7.761,28.137 6.876,26.258 6.75,24.058C6.619,21.774 7.319,19.107 8.629,16.407C9.878,13.832 11.621,11.354 13.495,9.335ZM12.377,2.807C13.154,3.039 13.967,3.24 14.792,3.393C16.882,3.778 18.978,3.834 20.767,3.316C22.852,2.708 24.972,2.231 27.116,1.886C25.327,1.347 23.235,0.944 21.037,0.944C17.688,0.944 14.564,1.879 12.377,2.807Z" clip-rule="evenodd" fill-rule="evenodd" fill="#010101"/>
</svg>
