<svg width="44" height="36" viewBox="0 0 44 36" fill="none" xmlns="http://www.w3.org/2000/svg" xmlns:xlink="http://www.w3.org/1999/xlink">
<line x1="10" y1="8.406" x2="18" y2="8.406" stroke="#010101" stroke-width="1.594" stroke-miterlimit="3.999327" stroke-linecap="round" stroke-linejoin="round"/>
<path d="M39.986,23.997L40.077,25.588L40.083,25.588L39.986,23.997ZM41.996,22.131L43.586,22.242L43.587,22.23L41.996,22.131ZM41.996,13.871L43.587,13.772L43.586,13.757L41.996,13.871ZM39.986,12.005L40.083,10.414L40.08,10.414L39.986,12.005ZM39.666,10.407L34.462,10.407L34.462,13.595L39.666,13.595L39.666,10.407ZM34.462,10.407C30.125,10.407 26.406,13.698 26.406,18.001L29.594,18.001C29.594,15.676 31.659,13.595 34.462,13.595L34.462,10.407ZM26.406,18.001C26.406,22.304 30.127,25.595 34.46,25.595L34.46,22.407C31.661,22.407 29.594,20.326 29.594,18.001L26.406,18.001ZM34.46,25.595L39.666,25.595L39.666,22.407L34.46,22.407L34.46,25.595ZM39.666,25.595C39.812,25.595 39.95,25.595 40.077,25.588L39.895,22.406C39.896,22.406 39.885,22.406 39.847,22.407C39.806,22.407 39.753,22.407 39.666,22.407L39.666,25.595ZM40.083,25.588C41.867,25.479 43.454,24.133 43.586,22.242L40.406,22.02C40.398,22.133 40.265,22.383 39.889,22.406L40.083,25.588ZM43.587,22.23C43.595,22.104 43.594,21.964 43.594,21.835L40.406,21.835C40.406,21.915 40.406,21.963 40.406,22C40.405,22.035 40.405,22.039 40.405,22.032L43.587,22.23ZM43.594,21.835L43.594,14.167L40.406,14.167L40.406,21.835L43.594,21.835ZM43.594,14.167C43.594,14.038 43.595,13.898 43.587,13.772L40.405,13.97C40.405,13.963 40.405,13.967 40.406,14.002C40.406,14.039 40.406,14.087 40.406,14.167L43.594,14.167ZM43.586,13.757C43.45,11.871 41.87,10.523 40.083,10.414L39.889,13.596C40.262,13.619 40.398,13.867 40.406,13.985L43.586,13.757ZM40.08,10.414C39.953,10.407 39.81,10.407 39.666,10.407L39.666,13.595C39.753,13.595 39.807,13.595 39.848,13.595C39.887,13.596 39.896,13.596 39.892,13.596L40.08,10.414Z" fill="#010101"/>
<path d="M37.656,4.344L36.529,5.47L36.53,5.472L37.656,4.344ZM4.344,4.344L5.47,5.471L5.471,5.47L4.344,4.344ZM4.344,31.656L5.471,30.53L5.47,30.529L4.344,31.656ZM37.656,31.656L36.53,30.528L36.529,30.53L37.656,31.656ZM41.522,11.934C41.366,8.171 40.87,5.302 38.782,3.216L36.53,5.472C37.678,6.618 38.182,8.341 38.338,12.066L41.522,11.934ZM38.783,3.218C37.267,1.7 35.346,1.03 32.99,0.713C30.681,0.403 27.726,0.406 24,0.406L24,3.594C27.816,3.594 30.518,3.597 32.566,3.873C34.567,4.142 35.703,4.644 36.529,5.47L38.783,3.218ZM24,0.406L18,0.406L18,3.594L24,3.594L24,0.406ZM18,0.406C14.274,0.406 11.319,0.403 9.01,0.713C6.654,1.03 4.733,1.7 3.217,3.218L5.471,5.47C6.297,4.644 7.433,4.142 9.434,3.873C11.482,3.597 14.184,3.594 18,3.594L18,0.406ZM3.218,3.217C1.7,4.733 1.03,6.654 0.713,9.01C0.403,11.319 0.406,14.274 0.406,18L3.594,18C3.594,14.184 3.597,11.482 3.873,9.434C4.142,7.433 4.644,6.297 5.47,5.471L3.218,3.217ZM0.406,18C0.406,21.726 0.403,24.681 0.713,26.99C1.03,29.346 1.7,31.267 3.218,32.783L5.47,30.529C4.644,29.703 4.142,28.567 3.873,26.566C3.597,24.518 3.594,21.816 3.594,18L0.406,18ZM3.217,32.782C4.733,34.3 6.654,34.97 9.01,35.287C11.319,35.597 14.274,35.594 18,35.594L18,32.406C14.184,32.406 11.482,32.403 9.434,32.127C7.433,31.858 6.297,31.356 5.471,30.53L3.217,32.782ZM18,35.594L24,35.594L24,32.406L18,32.406L18,35.594ZM24,35.594C27.726,35.594 30.681,35.597 32.99,35.287C35.346,34.97 37.267,34.3 38.783,32.782L36.529,30.53C35.703,31.356 34.567,31.858 32.566,32.127C30.518,32.403 27.816,32.406 24,32.406L24,35.594ZM38.782,32.784C40.87,30.699 41.368,27.83 41.522,24.065L38.338,23.934C38.184,27.658 37.678,29.381 36.53,30.528L38.782,32.784Z" fill="#010101"/>
<line x1="33.981" y1="15.876" x2="34.004" y2="15.876" stroke="#010101" stroke-width="2.125" stroke-miterlimit="3.999327" stroke-linecap="round" stroke-linejoin="round"/>
</svg>
