<svg width="34" height="32" viewBox="0 0 34 32" fill="none" xmlns="http://www.w3.org/2000/svg" xmlns:xlink="http://www.w3.org/1999/xlink">
<path d="M18.333,9.333C18.333,10.437 19.229,11.333 20.333,11.333C21.438,11.333 22.333,10.437 22.333,9.333L18.333,9.333ZM17,2.666L17,0.666L17,2.666ZM5.333,2.666L5.333,0.666L5.333,2.666ZM2,5.999L0,5.999L2,5.999ZM2,25.999L0,25.999L2,25.999ZM22.333,22.666C22.333,21.561 21.438,20.666 20.333,20.666C19.229,20.666 18.333,21.561 18.333,22.666L22.333,22.666ZM22.333,9.333L22.333,5.999L18.333,5.999L18.333,9.333L22.333,9.333ZM22.333,5.999C22.333,4.585 21.771,3.228 20.771,2.228L17.943,5.057C18.193,5.307 18.333,5.646 18.333,5.999L22.333,5.999ZM20.771,2.228C19.771,1.228 18.414,0.666 17,0.666L17,4.666C17.354,4.666 17.693,4.806 17.943,5.057L20.771,2.228ZM17,0.666L5.333,0.666L5.333,4.666L17,4.666L17,0.666ZM5.333,0.666C3.919,0.666 2.562,1.228 1.562,2.228L4.391,5.057C4.641,4.806 4.98,4.666 5.333,4.666L5.333,0.666ZM1.562,2.228C0.562,3.228 0,4.585 0,5.999L4,5.999C4,5.646 4.14,5.307 4.391,5.057L1.562,2.228ZM0,5.999L0,25.999L4,25.999L4,5.999L0,5.999ZM0,25.999C0,27.414 0.562,28.77 1.562,29.771L4.391,26.942C4.14,26.692 4,26.353 4,25.999L0,25.999ZM1.562,29.771C2.562,30.771 3.919,31.333 5.333,31.333L5.333,27.333C4.98,27.333 4.641,27.192 4.391,26.942L1.562,29.771ZM5.333,31.333L17,31.333L17,27.333L5.333,27.333L5.333,31.333ZM17,31.333C18.414,31.333 19.771,30.771 20.771,29.771L17.943,26.942C17.693,27.192 17.354,27.333 17,27.333L17,31.333ZM20.771,29.771C21.771,28.77 22.333,27.414 22.333,25.999L18.333,25.999C18.333,26.353 18.193,26.692 17.943,26.942L20.771,29.771ZM22.333,25.999L22.333,22.666L18.333,22.666L18.333,25.999L22.333,25.999Z" fill="#010101"/>
<path d="M12,14C10.895,14 10,14.895 10,16C10,17.105 10.895,18 12,18L12,14ZM32,16L33.414,17.414C34.195,16.633 34.195,15.367 33.414,14.586L32,16ZM28.414,9.586C27.633,8.805 26.367,8.805 25.586,9.586C24.805,10.367 24.805,11.633 25.586,12.414L28.414,9.586ZM25.586,19.586C24.805,20.367 24.805,21.633 25.586,22.414C26.367,23.195 27.633,23.195 28.414,22.414L25.586,19.586ZM12,18L32,18L32,14L12,14L12,18ZM33.414,14.586L28.414,9.586L25.586,12.414L30.586,17.414L33.414,14.586ZM28.414,22.414L33.414,17.414L30.586,14.586L25.586,19.586L28.414,22.414Z" fill="#010101"/>
</svg>
