<svg width="34" height="38" viewBox="0 0 34 38" fill="none" xmlns="http://www.w3.org/2000/svg" xmlns:xlink="http://www.w3.org/1999/xlink">
<path d="M28.25,14.184L29.311,15.244L29.75,14.805L29.75,14.184L28.25,14.184ZM5.75,14.184L4.25,14.184L4.25,14.186L5.75,14.184ZM4.597,18.142L5.859,18.953L5.861,18.95L4.597,18.142ZM2.75,21.017L1.488,20.207L1.488,20.207L2.75,21.017ZM5.283,28.041L5.693,26.598L5.692,26.597L5.283,28.041ZM28.717,28.041L28.308,26.597L28.308,26.598L28.717,28.041ZM31.25,21.019L32.512,20.208L32.512,20.208L31.25,21.019ZM29.403,18.144L28.14,18.952L28.141,18.955L29.403,18.144ZM28.248,14.186L27.187,13.126L26.749,13.564L26.748,14.184L28.248,14.186ZM29.75,14.184L29.75,13.009L26.75,13.009L26.75,14.184L29.75,14.184ZM29.75,13.009C29.75,5.785 24.09,-0.166 17,-0.166L17,2.834C22.33,2.834 26.75,7.336 26.75,13.009L29.75,13.009ZM17,-0.166C9.91,-0.166 4.25,5.785 4.25,13.009L7.25,13.009C7.25,7.336 11.67,2.834 17,2.834L17,-0.166ZM4.25,13.009L4.25,14.184L7.25,14.184L7.25,13.009L4.25,13.009ZM4.25,14.186C4.252,15.302 3.933,16.395 3.333,17.335L5.861,18.95C6.77,17.526 7.253,15.871 7.25,14.182L4.25,14.186ZM3.335,17.332L1.488,20.207L4.012,21.828L5.859,18.953L3.335,17.332ZM1.488,20.207C-0.712,23.634 0.923,28.365 4.875,29.484L5.692,26.597C3.78,26.056 2.842,23.651 4.012,21.828L1.488,20.207ZM4.874,29.484C12.802,31.731 21.198,31.731 29.126,29.484L28.308,26.598C20.915,28.693 13.085,28.693 5.693,26.598L4.874,29.484ZM29.125,29.484C33.077,28.365 34.713,23.634 32.512,20.208L29.988,21.83C31.158,23.651 30.22,26.056 28.308,26.597L29.125,29.484ZM32.512,20.208L30.666,17.333L28.141,18.955L29.988,21.83L32.512,20.208ZM30.667,17.336C30.066,16.396 29.747,15.303 29.748,14.187L26.748,14.184C26.747,15.874 27.229,17.528 28.14,18.952L30.667,17.336ZM29.31,15.246L29.311,15.244L27.189,13.124L27.187,13.126L29.31,15.246Z" fill="#010101"/>
<path d="M10.905,29.142C10.614,28.366 9.749,27.973 8.974,28.263C8.198,28.554 7.805,29.419 8.095,30.194L10.905,29.142ZM25.905,30.194C26.195,29.419 25.802,28.554 25.026,28.263C24.251,27.973 23.386,28.366 23.095,29.142L25.905,30.194ZM8.095,30.194C9.415,33.716 12.936,36.168 17,36.168L17,33.168C14.138,33.168 11.768,31.447 10.905,29.142L8.095,30.194ZM17,36.168C21.064,36.168 24.585,33.716 25.905,30.194L23.095,29.142C22.232,31.447 19.862,33.168 17,33.168L17,36.168Z" fill="#010101"/>
</svg>
