<svg width="44" height="36" viewBox="0 0 44 36" fill="none" xmlns="http://www.w3.org/2000/svg" xmlns:xlink="http://www.w3.org/1999/xlink">
<path d="M4.344,3.344L5.404,4.405L5.405,4.404L4.344,3.344ZM39.656,3.344L38.595,4.404L38.596,4.405L39.656,3.344ZM39.656,30.656L38.596,29.595L38.595,29.596L39.656,30.656ZM4.344,30.656L5.405,29.596L5.404,29.595L4.344,30.656ZM3.5,17C3.5,13.187 3.503,10.477 3.78,8.422C4.05,6.41 4.558,5.251 5.404,4.405L3.284,2.283C1.786,3.779 1.122,5.677 0.806,8.022C0.497,10.324 0.5,13.271 0.5,17L3.5,17ZM5.405,4.404C6.251,3.558 7.41,3.05 9.422,2.78C11.477,2.503 14.187,2.5 18,2.5L18,-0.5C14.271,-0.5 11.324,-0.503 9.022,-0.194C6.677,0.122 4.779,0.786 3.283,2.284L5.405,4.404ZM18,2.5L26,2.5L26,-0.5L18,-0.5L18,2.5ZM26,2.5C29.813,2.5 32.523,2.503 34.578,2.78C36.59,3.05 37.749,3.558 38.595,4.404L40.717,2.284C39.221,0.786 37.323,0.122 34.978,-0.194C32.676,-0.503 29.729,-0.5 26,-0.5L26,2.5ZM38.596,4.405C39.442,5.251 39.95,6.41 40.22,8.422C40.497,10.477 40.5,13.187 40.5,17L43.5,17C43.5,13.271 43.503,10.324 43.194,8.022C42.878,5.677 42.214,3.779 40.716,2.283L38.596,4.405ZM40.5,17C40.5,20.813 40.497,23.523 40.22,25.578C39.95,27.59 39.442,28.749 38.596,29.595L40.716,31.717C42.214,30.221 42.878,28.323 43.194,25.978C43.503,23.676 43.5,20.729 43.5,17L40.5,17ZM38.595,29.596C37.749,30.442 36.59,30.95 34.578,31.22C32.523,31.497 29.813,31.5 26,31.5L26,34.5C29.729,34.5 32.676,34.503 34.978,34.194C37.323,33.878 39.221,33.214 40.717,31.716L38.595,29.596ZM26,31.5L18,31.5L18,34.5L26,34.5L26,31.5ZM18,31.5C14.187,31.5 11.477,31.497 9.422,31.22C7.41,30.95 6.251,30.442 5.405,29.596L3.283,31.716C4.779,33.214 6.677,33.878 9.022,34.194C11.324,34.503 14.271,34.5 18,34.5L18,31.5ZM5.404,29.595C4.558,28.749 4.05,27.59 3.78,25.578C3.503,23.523 3.5,20.813 3.5,17L0.5,17C0.5,20.729 0.497,23.676 0.806,25.978C1.122,28.323 1.786,30.221 3.284,31.717L5.404,29.595Z" fill="#010101"/>
<path d="M18,26.5C18.828,26.5 19.5,25.828 19.5,25C19.5,24.172 18.828,23.5 18,23.5L18,26.5ZM10,23.5C9.172,23.5 8.5,24.172 8.5,25C8.5,25.828 9.172,26.5 10,26.5L10,23.5ZM26,26.5C26.828,26.5 27.5,25.828 27.5,25C27.5,24.172 26.828,23.5 26,23.5L26,26.5ZM23,23.5C22.172,23.5 21.5,24.172 21.5,25C21.5,25.828 22.172,26.5 23,26.5L23,23.5ZM2,11.5C1.172,11.5 0.5,12.172 0.5,13C0.5,13.828 1.172,14.5 2,14.5L2,11.5ZM42,14.5C42.828,14.5 43.5,13.828 43.5,13C43.5,12.172 42.828,11.5 42,11.5L42,14.5ZM18,23.5L10,23.5L10,26.5L18,26.5L18,23.5ZM26,23.5L23,23.5L23,26.5L26,26.5L26,23.5ZM2,14.5L42,14.5L42,11.5L2,11.5L2,14.5Z" fill="#010101"/>
</svg>
