<svg width="34" height="38" viewBox="0 0 34 38" fill="none" xmlns="http://www.w3.org/2000/svg" xmlns:xlink="http://www.w3.org/1999/xlink">
<path d="M25.833,18.001C25.833,18.829 26.505,19.501 27.333,19.501C28.162,19.501 28.833,18.829 28.833,18.001L25.833,18.001ZM27.333,7.582L25.833,7.581L25.833,7.582L27.333,7.582ZM27.04,6.874L25.979,7.935L25.98,7.935L27.04,6.874ZM21.793,1.627L20.732,2.687L20.733,2.688L21.793,1.627ZM21.087,1.334L21.088,-0.166L21.087,-0.166L21.087,1.334ZM0.667,33.667L2.167,33.667L0.667,33.667ZM1.667,34.667L1.667,36.167L1.667,34.667ZM15.667,36.167C16.495,36.167 17.167,35.496 17.167,34.667C17.167,33.839 16.495,33.167 15.667,33.167L15.667,36.167ZM7.333,13.167C6.505,13.167 5.833,13.839 5.833,14.667C5.833,15.496 6.505,16.167 7.333,16.167L7.333,13.167ZM20.667,16.167C21.495,16.167 22.167,15.496 22.167,14.667C22.167,13.839 21.495,13.167 20.667,13.167L20.667,16.167ZM7.333,6.501C6.505,6.501 5.833,7.172 5.833,8.001C5.833,8.829 6.505,9.501 7.333,9.501L7.333,6.501ZM14,9.501C14.828,9.501 15.5,8.829 15.5,8.001C15.5,7.172 14.828,6.501 14,6.501L14,9.501ZM7.333,19.834C6.505,19.834 5.833,20.506 5.833,21.334C5.833,22.162 6.505,22.834 7.333,22.834L7.333,19.834ZM12.333,22.834C13.162,22.834 13.833,22.162 13.833,21.334C13.833,20.506 13.162,19.834 12.333,19.834L12.333,22.834ZM28.833,18.001L28.833,7.582L25.833,7.582L25.833,18.001L28.833,18.001ZM28.833,7.584C28.834,7.255 28.769,6.929 28.643,6.625L25.871,7.773C25.846,7.712 25.833,7.647 25.833,7.581L28.833,7.584ZM28.643,6.625C28.517,6.321 28.333,6.045 28.1,5.813L25.98,7.935C25.933,7.889 25.896,7.834 25.871,7.773L28.643,6.625ZM28.101,5.813L22.854,0.567L20.733,2.688L25.979,7.935L28.101,5.813ZM22.855,0.567C22.386,0.098 21.751,-0.165 21.088,-0.166L21.085,2.834C20.953,2.834 20.826,2.781 20.732,2.687L22.855,0.567ZM21.087,-0.166L1.667,-0.166L1.667,2.834L21.087,2.834L21.087,-0.166ZM1.667,-0.166C1.004,-0.166 0.368,0.097 -0.101,0.566L2.02,2.688C1.926,2.781 1.799,2.834 1.667,2.834L1.667,-0.166ZM-0.101,0.566C-0.57,1.035 -0.833,1.671 -0.833,2.334L2.167,2.334C2.167,2.467 2.114,2.594 2.02,2.688L-0.101,0.566ZM-0.833,2.334L-0.833,33.667L2.167,33.667L2.167,2.334L-0.833,2.334ZM-0.833,33.667C-0.833,34.33 -0.57,34.966 -0.101,35.435L2.02,33.314C2.114,33.408 2.167,33.535 2.167,33.667L-0.833,33.667ZM-0.101,35.435C0.368,35.904 1.004,36.167 1.667,36.167L1.667,33.167C1.799,33.167 1.926,33.22 2.02,33.314L-0.101,35.435ZM1.667,36.167L15.667,36.167L15.667,33.167L1.667,33.167L1.667,36.167ZM7.333,16.167L20.667,16.167L20.667,13.167L7.333,13.167L7.333,16.167ZM7.333,9.501L14,9.501L14,6.501L7.333,6.501L7.333,9.501ZM7.333,22.834L12.333,22.834L12.333,19.834L7.333,19.834L7.333,22.834Z" fill="#010101"/>
<path d="M22.167,1.334C22.167,0.506 21.495,-0.166 20.667,-0.166C19.838,-0.166 19.167,0.506 19.167,1.334L22.167,1.334ZM20.667,7.001L22.167,7.001L20.667,7.001ZM27.333,9.501C28.162,9.501 28.833,8.829 28.833,8.001C28.833,7.172 28.162,6.501 27.333,6.501L27.333,9.501ZM27.32,23.209L27.689,21.755L27.689,21.755L27.32,23.209ZM31.58,24.291L31.951,22.837L31.949,22.837L31.58,24.291ZM32.322,25.264L33.821,25.309L33.821,25.308L32.322,25.264ZM26.5,36.334L26.114,37.784C26.367,37.851 26.633,37.851 26.886,37.784L26.5,36.334ZM20.678,25.264L19.179,25.295L19.179,25.309L20.678,25.264ZM21.42,24.291L21.788,25.745L21.789,25.745L21.42,24.291ZM25.68,23.209L25.311,21.755L25.311,21.755L25.68,23.209ZM19.167,1.334L19.167,7.001L22.167,7.001L22.167,1.334L19.167,1.334ZM19.167,7.001C19.167,7.664 19.43,8.3 19.899,8.768L22.02,6.647C22.114,6.741 22.167,6.868 22.167,7.001L19.167,7.001ZM19.899,8.768C20.368,9.237 21.004,9.501 21.667,9.501L21.667,6.501C21.799,6.501 21.926,6.553 22.02,6.647L19.899,8.768ZM21.667,9.501L27.333,9.501L27.333,6.501L21.667,6.501L21.667,9.501ZM26.951,24.663L31.211,25.745L31.949,22.837L27.689,21.755L26.951,24.663ZM31.208,25.744C30.991,25.688 30.815,25.484 30.822,25.22L33.821,25.308C33.855,24.131 33.056,23.12 31.951,22.837L31.208,25.744ZM30.822,25.219C30.688,29.712 29.339,32.123 28.191,33.391C27.607,34.037 27.042,34.422 26.646,34.64C26.447,34.749 26.291,34.817 26.195,34.854C26.147,34.872 26.115,34.883 26.101,34.888C26.093,34.89 26.091,34.891 26.093,34.89C26.094,34.89 26.096,34.889 26.1,34.888C26.102,34.888 26.104,34.887 26.106,34.887C26.107,34.886 26.108,34.886 26.11,34.886C26.11,34.885 26.112,34.885 26.112,34.885C26.113,34.885 26.114,34.884 26.5,36.334C26.886,37.784 26.887,37.783 26.888,37.783C26.889,37.783 26.89,37.782 26.891,37.782C26.892,37.782 26.894,37.781 26.896,37.781C26.9,37.78 26.904,37.779 26.908,37.777C26.917,37.775 26.927,37.772 26.939,37.769C26.962,37.762 26.99,37.753 27.024,37.742C27.091,37.721 27.178,37.691 27.282,37.65C27.49,37.569 27.768,37.447 28.093,37.268C28.743,36.91 29.58,36.327 30.415,35.405C32.106,33.537 33.669,30.413 33.821,25.309L30.822,25.219ZM26.5,36.334C26.886,34.884 26.887,34.885 26.888,34.885C26.888,34.885 26.889,34.885 26.89,34.886C26.891,34.886 26.893,34.886 26.894,34.887C26.896,34.887 26.898,34.888 26.9,34.888C26.904,34.889 26.906,34.89 26.907,34.89C26.909,34.891 26.907,34.89 26.899,34.888C26.885,34.883 26.853,34.872 26.805,34.854C26.709,34.817 26.553,34.749 26.354,34.64C25.958,34.422 25.393,34.037 24.809,33.391C23.661,32.123 22.312,29.712 22.178,25.219L19.179,25.309C19.331,30.413 20.893,33.537 22.585,35.405C23.42,36.327 24.257,36.91 24.907,37.268C25.232,37.447 25.51,37.569 25.718,37.65C25.822,37.691 25.909,37.721 25.976,37.742C26.01,37.753 26.038,37.762 26.061,37.769C26.073,37.772 26.083,37.775 26.092,37.777C26.096,37.779 26.1,37.78 26.104,37.781C26.106,37.781 26.108,37.782 26.109,37.782C26.11,37.782 26.111,37.783 26.112,37.783C26.113,37.783 26.114,37.784 26.5,36.334ZM22.178,25.233C22.18,25.35 22.143,25.464 22.072,25.557L19.686,23.739C19.346,24.185 19.167,24.734 19.179,25.295L22.178,25.233ZM22.072,25.557C22.002,25.65 21.901,25.716 21.788,25.745L21.052,22.837C20.508,22.974 20.026,23.292 19.686,23.739L22.072,25.557ZM21.789,25.745L26.049,24.663L25.311,21.755L21.051,22.837L21.789,25.745ZM26.049,24.663C26.345,24.588 26.655,24.588 26.951,24.663L27.689,21.755C26.909,21.557 26.091,21.557 25.311,21.755L26.049,24.663Z" fill="#010101"/>
</svg>
