<svg width="36" height="38" viewBox="0 0 36 38" fill="none" xmlns="http://www.w3.org/2000/svg" xmlns:xlink="http://www.w3.org/1999/xlink">
<path d="M34,11C35.105,11 36,10.105 36,9C36,7.895 35.105,7 34,7L34,11ZM16,7C14.895,7 14,7.895 14,9C14,10.105 14.895,11 16,11L16,7ZM22,31C23.105,31 24,30.105 24,29C24,27.895 23.105,27 22,27L22,31ZM4,27C2.895,27 2,27.895 2,29C2,30.105 2.895,31 4,31L4,27ZM34,7L16,7L16,11L34,11L34,7ZM22,27L4,27L4,31L22,31L22,27Z" fill="#FFFFFF"/>
<path d="M32,29C32,31.209 30.209,33 28,33L28,37C32.418,37 36,33.418 36,29L32,29ZM28,33C25.791,33 24,31.209 24,29L20,29C20,33.418 23.582,37 28,37L28,33ZM24,29C24,26.791 25.791,25 28,25L28,21C23.582,21 20,24.582 20,29L24,29ZM28,25C30.209,25 32,26.791 32,29L36,29C36,24.582 32.418,21 28,21L28,25Z" fill="#FFFFFF"/>
<path d="M12,9C12,11.209 10.209,13 8,13L8,17C12.418,17 16,13.418 16,9L12,9ZM8,13C5.791,13 4,11.209 4,9L0,9C0,13.418 3.582,17 8,17L8,13ZM4,9C4,6.791 5.791,5 8,5L8,1C3.582,1 0,4.582 0,9L4,9ZM8,5C10.209,5 12,6.791 12,9L16,9C16,4.582 12.418,1 8,1L8,5Z" fill="#FFFFFF"/>
</svg>
