<svg width="36" height="36" viewBox="0 0 36 36" fill="none" xmlns="http://www.w3.org/2000/svg" xmlns:xlink="http://www.w3.org/1999/xlink">
<path d="M34,9C35.105,9 36,8.105 36,7C36,5.895 35.105,5 34,5L34,9ZM16,5C14.895,5 14,5.895 14,7C14,8.105 14.895,9 16,9L16,5ZM22,29C23.105,29 24,28.105 24,27C24,25.895 23.105,25 22,25L22,29ZM4,25C2.895,25 2,25.895 2,27C2,28.105 2.895,29 4,29L4,25ZM34,5L16,5L16,9L34,9L34,5ZM22,25L4,25L4,29L22,29L22,25Z" fill="#010101"/>
<path d="M32,27C32,29.209 30.209,31 28,31L28,35C32.418,35 36,31.418 36,27L32,27ZM28,31C25.791,31 24,29.209 24,27L20,27C20,31.418 23.582,35 28,35L28,31ZM24,27C24,24.791 25.791,23 28,23L28,19C23.582,19 20,22.582 20,27L24,27ZM28,23C30.209,23 32,24.791 32,27L36,27C36,22.582 32.418,19 28,19L28,23Z" fill="#010101"/>
<path d="M12,7C12,9.209 10.209,11 8,11L8,15C12.418,15 16,11.418 16,7L12,7ZM8,11C5.791,11 4,9.209 4,7L0,7C0,11.418 3.582,15 8,15L8,11ZM4,7C4,4.791 5.791,3 8,3L8,-1C3.582,-1 0,2.582 0,7L4,7ZM8,3C10.209,3 12,4.791 12,7L16,7C16,2.582 12.418,-1 8,-1L8,3Z" fill="#010101"/>
</svg>
