<svg width="48" height="48" viewBox="0 0 48 48" fill="none" xmlns="http://www.w3.org/2000/svg" xmlns:xlink="http://www.w3.org/1999/xlink">
<path d="M4,36C4,37.105 4.895,38 6,38C7.105,38 8,37.105 8,36L4,36ZM6,24L4,24L6,24ZM24,6L24,8L24,6ZM42,24L44,24L42,24ZM40,36C40,37.105 40.895,38 42,38C43.105,38 44,37.105 44,36L40,36ZM8,36L8,24L4,24L4,36L8,36ZM8,24C8,19.757 9.686,15.687 12.686,12.686L9.858,9.858C6.107,13.609 4,18.696 4,24L8,24ZM12.686,12.686C15.687,9.686 19.757,8 24,8L24,4C18.696,4 13.609,6.107 9.858,9.858L12.686,12.686ZM24,8C28.243,8 32.313,9.686 35.314,12.686L38.142,9.858C34.391,6.107 29.304,4 24,4L24,8ZM35.314,12.686C38.314,15.687 40,19.757 40,24L44,24C44,18.696 41.893,13.609 38.142,9.858L35.314,12.686ZM40,24L40,36L44,36L44,24L40,24Z" fill="#010101"/>
<path d="M32,38L34,38L32,38ZM32,32L34,32L32,32ZM36,28L36,30L36,28ZM42,28L44,28C44,26.895 43.105,26 42,26L42,28ZM6,38L4,38L6,38ZM16,38L18,38L16,38ZM16,32L18,32L16,32ZM6,28L6,26C4.895,26 4,26.895 4,28L6,28ZM40,38C40,38.53 39.789,39.039 39.414,39.414L42.243,42.243C43.368,41.117 44,39.591 44,38L40,38ZM39.414,39.414C39.039,39.789 38.53,40 38,40L38,44C39.591,44 41.117,43.368 42.243,42.243L39.414,39.414ZM38,40L36,40L36,44L38,44L38,40ZM36,40C35.47,40 34.961,39.789 34.586,39.414L31.757,42.243C32.883,43.368 34.409,44 36,44L36,40ZM34.586,39.414C34.211,39.039 34,38.53 34,38L30,38C30,39.591 30.632,41.117 31.757,42.243L34.586,39.414ZM34,38L34,32L30,32L30,38L34,38ZM34,32C34,31.47 34.211,30.961 34.586,30.586L31.757,27.757C30.632,28.883 30,30.409 30,32L34,32ZM34.586,30.586C34.961,30.211 35.47,30 36,30L36,26C34.409,26 32.883,26.632 31.757,27.757L34.586,30.586ZM36,30L42,30L42,26L36,26L36,30ZM40,28L40,38L44,38L44,28L40,28ZM4,38C4,39.591 4.632,41.117 5.757,42.243L8.586,39.414C8.211,39.039 8,38.53 8,38L4,38ZM5.757,42.243C6.883,43.368 8.409,44 10,44L10,40C9.47,40 8.961,39.789 8.586,39.414L5.757,42.243ZM10,44L12,44L12,40L10,40L10,44ZM12,44C13.591,44 15.117,43.368 16.243,42.243L13.414,39.414C13.039,39.789 12.53,40 12,40L12,44ZM16.243,42.243C17.368,41.117 18,39.591 18,38L14,38C14,38.53 13.789,39.039 13.414,39.414L16.243,42.243ZM18,38L18,32L14,32L14,38L18,38ZM18,32C18,30.409 17.368,28.883 16.243,27.757L13.414,30.586C13.789,30.961 14,31.47 14,32L18,32ZM16.243,27.757C15.117,26.632 13.591,26 12,26L12,30C12.53,30 13.039,30.211 13.414,30.586L16.243,27.757ZM12,26L6,26L6,30L12,30L12,26ZM4,28L4,38L8,38L8,28L4,28Z" fill="#010101"/>
</svg>
