<svg width="48" height="48" viewBox="0 0 48 48" fill="none" xmlns="http://www.w3.org/2000/svg" xmlns:xlink="http://www.w3.org/1999/xlink">
<path d="M29.5,41C29.5,41.828 30.172,42.5 31,42.5C31.828,42.5 32.5,41.828 32.5,41L29.5,41ZM31,37L32.5,37L31,37ZM23,29L23,27.5L23,29ZM9,29L9,27.5L9,29ZM1,37L-0.5,37L1,37ZM-0.5,41C-0.5,41.828 0.172,42.5 1,42.5C1.828,42.5 2.5,41.828 2.5,41L-0.5,41ZM32.5,41L32.5,37L29.5,37L29.5,41L32.5,41ZM32.5,37C32.5,34.48 31.499,32.064 29.718,30.282L27.596,32.404C28.815,33.623 29.5,35.276 29.5,37L32.5,37ZM29.718,30.282C27.936,28.501 25.52,27.5 23,27.5L23,30.5C24.724,30.5 26.377,31.185 27.596,32.404L29.718,30.282ZM23,27.5L9,27.5L9,30.5L23,30.5L23,27.5ZM9,27.5C6.48,27.5 4.064,28.501 2.282,30.282L4.404,32.404C5.623,31.185 7.276,30.5 9,30.5L9,27.5ZM2.282,30.282C0.501,32.064 -0.5,34.48 -0.5,37L2.5,37C2.5,35.276 3.185,33.623 4.404,32.404L2.282,30.282ZM-0.5,37L-0.5,41L2.5,41L2.5,37L-0.5,37Z" fill="#010101"/>
<path d="M22.5,13C22.5,16.59 19.59,19.5 16,19.5L16,22.5C21.247,22.5 25.5,18.247 25.5,13L22.5,13ZM16,19.5C12.41,19.5 9.5,16.59 9.5,13L6.5,13C6.5,18.247 10.753,22.5 16,22.5L16,19.5ZM9.5,13C9.5,9.41 12.41,6.5 16,6.5L16,3.5C10.753,3.5 6.5,7.753 6.5,13L9.5,13ZM16,6.5C19.59,6.5 22.5,9.41 22.5,13L25.5,13C25.5,7.753 21.247,3.5 16,3.5L16,6.5Z" fill="#010101"/>
<line x1="37.5" y1="15" x2="37.5" y2="27" stroke="#010101" stroke-width="1.5" stroke-miterlimit="3.999327" stroke-linecap="round" stroke-linejoin="round"/>
<line x1="33" y1="19.5" x2="45" y2="19.5" stroke="#010101" stroke-width="1.5" stroke-miterlimit="3.999327" stroke-linecap="round" stroke-linejoin="round"/>
</svg>
