<svg width="168" height="166" viewBox="0 0 168 166" fill="none" xmlns="http://www.w3.org/2000/svg" xmlns:xlink="http://www.w3.org/1999/xlink">
<path d="M146.25,83C146.25,117.379 118.379,145.25 84,145.25L84,159.083C126.019,159.083 160.083,125.019 160.083,83L146.25,83ZM84,145.25C49.62,145.25 21.75,117.379 21.75,83L7.916,83C7.916,125.019 41.98,159.083 84,159.083L84,145.25ZM21.75,83C21.75,48.62 49.62,20.75 84,20.75L84,6.916C41.98,6.916 7.916,40.98 7.916,83L21.75,83ZM84,20.75C118.379,20.75 146.25,48.62 146.25,83L160.083,83C160.083,40.98 126.019,6.916 84,6.916L84,20.75Z" fill="#010101"/>
<path d="M79.109,105.776C76.408,108.477 76.408,112.856 79.109,115.557C81.81,118.258 86.19,118.258 88.891,115.557L79.109,105.776ZM111.667,83L116.557,87.89C119.259,85.189 119.259,80.81 116.557,78.109L111.667,83ZM88.891,50.442C86.19,47.741 81.81,47.741 79.109,50.442C76.408,53.143 76.408,57.523 79.109,60.224L88.891,50.442ZM88.891,115.557L116.557,87.89L106.776,78.109L79.109,105.776L88.891,115.557ZM116.557,78.109L88.891,50.442L79.109,60.224L106.776,87.89L116.557,78.109Z" fill="#010101"/>
<line x1="56.333" y1="76.083" x2="111.666" y2="76.083" stroke="#010101" stroke-width="6.917" stroke-miterlimit="3.999327" stroke-linecap="round" stroke-linejoin="round"/>
</svg>
