<svg width="48" height="48" viewBox="0 0 48 48" fill="none" xmlns="http://www.w3.org/2000/svg" xmlns:xlink="http://www.w3.org/1999/xlink">
<path d="M30.5,41C30.5,41.828 31.172,42.5 32,42.5C32.828,42.5 33.5,41.828 33.5,41L30.5,41ZM32,37L33.5,37L32,37ZM24,29L24,27.5L24,29ZM10,29L10,27.5L10,29ZM2,37L0.5,37L2,37ZM0.5,41C0.5,41.828 1.172,42.5 2,42.5C2.828,42.5 3.5,41.828 3.5,41L0.5,41ZM33.5,41L33.5,37L30.5,37L30.5,41L33.5,41ZM33.5,37C33.5,34.48 32.499,32.064 30.718,30.282L28.596,32.404C29.815,33.623 30.5,35.276 30.5,37L33.5,37ZM30.718,30.282C28.936,28.501 26.52,27.5 24,27.5L24,30.5C25.724,30.5 27.377,31.185 28.596,32.404L30.718,30.282ZM24,27.5L10,27.5L10,30.5L24,30.5L24,27.5ZM10,27.5C7.48,27.5 5.064,28.501 3.282,30.282L5.404,32.404C6.623,31.185 8.276,30.5 10,30.5L10,27.5ZM3.282,30.282C1.501,32.064 0.5,34.48 0.5,37L3.5,37C3.5,35.276 4.185,33.623 5.404,32.404L3.282,30.282ZM0.5,37L0.5,41L3.5,41L3.5,37L0.5,37Z" fill="#010101"/>
<path d="M23.5,13C23.5,16.59 20.59,19.5 17,19.5L17,22.5C22.247,22.5 26.5,18.247 26.5,13L23.5,13ZM17,19.5C13.41,19.5 10.5,16.59 10.5,13L7.5,13C7.5,18.247 11.753,22.5 17,22.5L17,19.5ZM10.5,13C10.5,9.41 13.41,6.5 17,6.5L17,3.5C11.753,3.5 7.5,7.753 7.5,13L10.5,13ZM17,6.5C20.59,6.5 23.5,9.41 23.5,13L26.5,13C26.5,7.753 22.247,3.5 17,3.5L17,6.5Z" fill="#010101"/>
<line x1="38.5" y1="15" x2="38.5" y2="27" stroke="#010101" stroke-width="1.5" stroke-miterlimit="3.999327" stroke-linecap="round" stroke-linejoin="round"/>
<line x1="34" y1="19.5" x2="46" y2="19.5" stroke="#010101" stroke-width="1.5" stroke-miterlimit="3.999327" stroke-linecap="round" stroke-linejoin="round"/>
</svg>
