<svg width="32" height="32" viewBox="0 0 32 32" fill="none" xmlns="http://www.w3.org/2000/svg" xmlns:xlink="http://www.w3.org/1999/xlink">
<path d="M13.506,24.754C16.278,24.754 18.835,23.858 20.927,22.363L28.796,30.233C29.161,30.598 29.643,30.78 30.157,30.78C31.236,30.78 32,29.95 32,28.888C32,28.39 31.834,27.908 31.469,27.56L23.649,19.724C25.293,17.565 26.272,14.893 26.272,11.987C26.272,4.965 20.528,-0.779 13.506,-0.779C6.5,-0.779 0.739,4.948 0.739,11.987C0.739,19.01 6.483,24.754 13.506,24.754ZM13.506,21.998C8.027,21.998 3.495,17.466 3.495,11.987C3.495,6.509 8.027,1.977 13.506,1.977C18.984,1.977 23.517,6.509 23.517,11.987C23.517,17.466 18.984,21.998 13.506,21.998Z" fill="#010101"/>
</svg>
