<svg width="48" height="50" viewBox="0 0 48 50" fill="none" xmlns="http://www.w3.org/2000/svg" xmlns:xlink="http://www.w3.org/1999/xlink">
<path d="M30.5,43C30.5,43.828 31.172,44.5 32,44.5C32.828,44.5 33.5,43.828 33.5,43L30.5,43ZM32,39L33.5,39L32,39ZM24,31L24,29.5L24,31ZM10,31L10,29.5L10,31ZM2,39L0.5,39L2,39ZM0.5,43C0.5,43.828 1.172,44.5 2,44.5C2.828,44.5 3.5,43.828 3.5,43L0.5,43ZM33.5,43L33.5,39L30.5,39L30.5,43L33.5,43ZM33.5,39C33.5,36.48 32.499,34.064 30.718,32.282L28.596,34.404C29.815,35.623 30.5,37.276 30.5,39L33.5,39ZM30.718,32.282C28.936,30.501 26.52,29.5 24,29.5L24,32.5C25.724,32.5 27.377,33.185 28.596,34.404L30.718,32.282ZM24,29.5L10,29.5L10,32.5L24,32.5L24,29.5ZM10,29.5C7.48,29.5 5.064,30.501 3.282,32.282L5.404,34.404C6.623,33.185 8.276,32.5 10,32.5L10,29.5ZM3.282,32.282C1.501,34.064 0.5,36.48 0.5,39L3.5,39C3.5,37.276 4.185,35.623 5.404,34.404L3.282,32.282ZM0.5,39L0.5,43L3.5,43L3.5,39L0.5,39Z" fill="#565656"/>
<path d="M23.5,15C23.5,18.59 20.59,21.5 17,21.5L17,24.5C22.247,24.5 26.5,20.247 26.5,15L23.5,15ZM17,21.5C13.41,21.5 10.5,18.59 10.5,15L7.5,15C7.5,20.247 11.753,24.5 17,24.5L17,21.5ZM10.5,15C10.5,11.41 13.41,8.5 17,8.5L17,5.5C11.753,5.5 7.5,9.753 7.5,15L10.5,15ZM17,8.5C20.59,8.5 23.5,11.41 23.5,15L26.5,15C26.5,9.753 22.247,5.5 17,5.5L17,8.5Z" fill="#565656"/>
<path d="M37.061,15.939C36.475,15.354 35.525,15.354 34.939,15.939C34.354,16.525 34.354,17.475 34.939,18.061L37.061,15.939ZM44.939,28.061C45.525,28.646 46.475,28.646 47.061,28.061C47.646,27.475 47.646,26.525 47.061,25.939L44.939,28.061ZM34.939,18.061L44.939,28.061L47.061,25.939L37.061,15.939L34.939,18.061Z" fill="#565656"/>
<path d="M47.061,18.061C47.646,17.475 47.646,16.525 47.061,15.939C46.475,15.354 45.525,15.354 44.939,15.939L47.061,18.061ZM34.939,25.939C34.354,26.525 34.354,27.475 34.939,28.061C35.525,28.646 36.475,28.646 37.061,28.061L34.939,25.939ZM44.939,15.939L34.939,25.939L37.061,28.061L47.061,18.061L44.939,15.939Z" fill="#565656"/>
</svg>
