<svg width="36" height="32" viewBox="0 0 36 32" fill="none" xmlns="http://www.w3.org/2000/svg" xmlns:xlink="http://www.w3.org/1999/xlink">
<path d="M17.572,2.334C16.194,0.641 12.824,-0.887 9.056,-0.887C4.092,-0.887 0.107,1.653 -0.872,4.061L-0.872,28.996C-0.872,30.357 0.008,30.889 0.987,30.889C1.768,30.889 2.199,30.656 2.681,30.291C3.843,29.328 5.769,28.216 9.056,28.216C12.376,28.216 14.601,29.311 15.563,30.175C16.028,30.557 16.593,30.889 17.572,30.889C18.552,30.889 19.083,30.507 19.565,30.175C20.61,29.378 22.769,28.216 26.072,28.216C29.376,28.216 31.335,29.345 32.447,30.291C32.945,30.656 33.377,30.889 34.141,30.889C35.12,30.889 36,30.357 36,28.996L36,4.061C35.021,1.653 31.036,-0.887 26.072,-0.887C22.32,-0.887 18.95,0.641 17.572,2.334ZM2,4.907C2.398,3.795 5.005,1.803 9.056,1.803C13.14,1.803 15.779,3.812 16.128,4.907L16.128,27.552C14.401,26.273 11.828,25.543 9.056,25.543C6.283,25.543 3.71,26.273 2,27.618L2,4.907ZM33.128,4.907L33.128,27.618C31.418,26.273 28.845,25.543 26.072,25.543C23.3,25.543 20.743,26.273 19,27.552L19,4.907C19.349,3.812 22.005,1.803 26.072,1.803C30.14,1.803 32.73,3.795 33.128,4.907Z" fill="#010101"/>
</svg>
