<svg width="40" height="42" viewBox="0 0 40 42" fill="none" xmlns="http://www.w3.org/2000/svg" xmlns:xlink="http://www.w3.org/1999/xlink">
<path d="M29.875,19.333C29.875,25.708 24.708,30.875 18.333,30.875L18.333,34.458C26.687,34.458 33.458,27.687 33.458,19.333L29.875,19.333ZM18.333,30.875C11.959,30.875 6.792,25.708 6.792,19.333L3.208,19.333C3.208,27.687 9.98,34.458 18.333,34.458L18.333,30.875ZM6.792,19.333C6.792,12.959 11.959,7.792 18.333,7.792L18.333,4.208C9.98,4.208 3.208,10.98 3.208,19.333L6.792,19.333ZM18.333,7.792C24.708,7.792 29.875,12.959 29.875,19.333L33.458,19.333C33.458,10.98 26.687,4.208 18.333,4.208L18.333,7.792Z" fill="#5F5F5F"/>
<path d="M33.733,37.267C34.433,37.967 35.567,37.967 36.267,37.267C36.967,36.567 36.967,35.433 36.267,34.733L33.733,37.267ZM29.017,27.483C28.317,26.783 27.183,26.783 26.483,27.483C25.783,28.183 25.783,29.317 26.483,30.017L29.017,27.483ZM36.267,34.733L29.017,27.483L26.483,30.017L33.733,37.267L36.267,34.733Z" fill="#5F5F5F"/>
</svg>
