<svg width="40" height="40" viewBox="0 0 40 40" fill="none" xmlns="http://www.w3.org/2000/svg" xmlns:xlink="http://www.w3.org/1999/xlink">
<path d="M34.166,20.001C34.166,28.377 27.376,35.167 19,35.167L19,38.167C29.033,38.167 37.166,30.034 37.166,20.001L34.166,20.001ZM19,35.167C10.623,35.167 3.833,28.377 3.833,20.001L0.833,20.001C0.833,30.034 8.967,38.167 19,38.167L19,35.167ZM3.833,20.001C3.833,11.624 10.623,4.834 19,4.834L19,1.834C8.967,1.834 0.833,9.967 0.833,20.001L3.833,20.001ZM19,4.834C27.376,4.834 34.166,11.624 34.166,20.001L37.166,20.001C37.166,9.967 29.033,1.834 19,1.834L19,4.834Z" fill="#010101"/>
<path d="M12.735,14.503C12.46,15.285 12.871,16.141 13.653,16.416C14.434,16.691 15.29,16.28 15.565,15.499L12.735,14.503ZM23.867,16.668L22.367,16.665L22.367,16.668L23.867,16.668ZM18.393,20.245C17.607,20.507 17.182,21.356 17.444,22.142C17.706,22.928 18.555,23.353 19.341,23.091L18.393,20.245ZM15.565,15.499C15.84,14.719 16.381,14.061 17.094,13.643L15.574,11.056C14.25,11.834 13.245,13.055 12.735,14.503L15.565,15.499ZM17.094,13.643C17.806,13.224 18.644,13.071 19.459,13.211L19.966,10.254C18.453,9.994 16.897,10.279 15.574,11.056L17.094,13.643ZM19.459,13.211C20.273,13.35 21.012,13.774 21.545,14.406L23.84,12.474C22.851,11.3 21.479,10.513 19.966,10.254L19.459,13.211ZM21.545,14.406C22.077,15.038 22.368,15.839 22.367,16.665L25.367,16.67C25.369,15.135 24.828,13.649 23.84,12.474L21.545,14.406ZM22.367,16.668C22.367,17.538 21.694,18.397 20.535,19.17C20.001,19.526 19.456,19.799 19.039,19.984C18.833,20.076 18.663,20.144 18.548,20.188C18.491,20.21 18.447,20.225 18.421,20.235C18.407,20.24 18.398,20.243 18.393,20.244C18.391,20.245 18.39,20.246 18.39,20.246C18.39,20.246 18.39,20.246 18.39,20.245C18.391,20.245 18.391,20.245 18.391,20.245C18.391,20.245 18.392,20.245 18.392,20.245C18.392,20.245 18.393,20.245 18.867,21.668C19.341,23.091 19.342,23.09 19.342,23.09C19.342,23.09 19.343,23.09 19.343,23.09C19.344,23.09 19.345,23.089 19.346,23.089C19.347,23.089 19.349,23.088 19.352,23.087C19.356,23.086 19.362,23.084 19.369,23.081C19.384,23.076 19.402,23.07 19.426,23.061C19.472,23.045 19.536,23.021 19.616,22.991C19.775,22.931 19.995,22.842 20.258,22.726C20.778,22.495 21.483,22.143 22.199,21.666C23.54,20.772 25.367,19.131 25.367,16.668L22.367,16.668Z" fill="#010101"/>
<line x1="19" y1="26.834" x2="19.017" y2="26.834" stroke="#010101" stroke-width="1.5" stroke-miterlimit="3.999327" stroke-linecap="round" stroke-linejoin="round"/>
</svg>
