<svg width="48" height="48" viewBox="0 0 48 48" fill="none" xmlns="http://www.w3.org/2000/svg" xmlns:xlink="http://www.w3.org/1999/xlink">
<path d="M36,21C36,28.732 29.732,35 22,35L22,39C31.941,39 40,30.941 40,21L36,21ZM22,35C14.268,35 8,28.732 8,21L4,21C4,30.941 12.059,39 22,39L22,35ZM8,21C8,13.268 14.268,7 22,7L22,3C12.059,3 4,11.059 4,21L8,21ZM22,7C29.732,7 36,13.268 36,21L40,21C40,11.059 31.941,3 22,3L22,7Z" fill="#C9C9C9"/>
<path d="M40.585,42.414C41.366,43.195 42.632,43.195 43.413,42.414C44.194,41.633 44.194,40.367 43.413,39.586L40.585,42.414ZM34.713,30.886C33.932,30.105 32.666,30.105 31.885,30.886C31.104,31.667 31.104,32.933 31.885,33.714L34.713,30.886ZM43.413,39.586L34.713,30.886L31.885,33.714L40.585,42.414L43.413,39.586Z" fill="#C9C9C9"/>
</svg>
