<svg width="50" height="48" viewBox="0 0 50 48" fill="none" xmlns="http://www.w3.org/2000/svg" xmlns:xlink="http://www.w3.org/1999/xlink">
<path d="M31.5,41C31.5,41.828 32.172,42.5 33,42.5C33.828,42.5 34.5,41.828 34.5,41L31.5,41ZM33,37L34.5,37L33,37ZM25,29L25,27.5L25,29ZM11,29L11,27.5L11,29ZM3,37L1.5,37L3,37ZM1.5,41C1.5,41.828 2.172,42.5 3,42.5C3.828,42.5 4.5,41.828 4.5,41L1.5,41ZM34.5,41L34.5,37L31.5,37L31.5,41L34.5,41ZM34.5,37C34.5,34.48 33.499,32.064 31.718,30.282L29.596,32.404C30.815,33.623 31.5,35.276 31.5,37L34.5,37ZM31.718,30.282C29.936,28.501 27.52,27.5 25,27.5L25,30.5C26.724,30.5 28.377,31.185 29.596,32.404L31.718,30.282ZM25,27.5L11,27.5L11,30.5L25,30.5L25,27.5ZM11,27.5C8.48,27.5 6.064,28.501 4.282,30.282L6.404,32.404C7.623,31.185 9.276,30.5 11,30.5L11,27.5ZM4.282,30.282C2.501,32.064 1.5,34.48 1.5,37L4.5,37C4.5,35.276 5.185,33.623 6.404,32.404L4.282,30.282ZM1.5,37L1.5,41L4.5,41L4.5,37L1.5,37Z" fill="#010101"/>
<path d="M24.5,13C24.5,16.59 21.59,19.5 18,19.5L18,22.5C23.247,22.5 27.5,18.247 27.5,13L24.5,13ZM18,19.5C14.41,19.5 11.5,16.59 11.5,13L8.5,13C8.5,18.247 12.753,22.5 18,22.5L18,19.5ZM11.5,13C11.5,9.41 14.41,6.5 18,6.5L18,3.5C12.753,3.5 8.5,7.753 8.5,13L11.5,13ZM18,6.5C21.59,6.5 24.5,9.41 24.5,13L27.5,13C27.5,7.753 23.247,3.5 18,3.5L18,6.5Z" fill="#010101"/>
<line x1="39.5" y1="15" x2="39.5" y2="27" stroke="#010101" stroke-width="1.5" stroke-miterlimit="3.999327" stroke-linecap="round" stroke-linejoin="round"/>
<line x1="35" y1="19.5" x2="47" y2="19.5" stroke="#010101" stroke-width="1.5" stroke-miterlimit="3.999327" stroke-linecap="round" stroke-linejoin="round"/>
</svg>
