<svg width="50" height="48" viewBox="0 0 50 48" fill="none" xmlns="http://www.w3.org/2000/svg" xmlns:xlink="http://www.w3.org/1999/xlink">
<path d="M37,21C37,28.732 30.732,35 23,35L23,39C32.941,39 41,30.941 41,21L37,21ZM23,35C15.268,35 9,28.732 9,21L5,21C5,30.941 13.059,39 23,39L23,35ZM9,21C9,13.268 15.268,7 23,7L23,3C13.059,3 5,11.059 5,21L9,21ZM23,7C30.732,7 37,13.268 37,21L41,21C41,11.059 32.941,3 23,3L23,7Z" fill="#FFFFFF"/>
<path d="M41.585,42.415C42.366,43.196 43.633,43.196 44.414,42.415C45.195,41.634 45.195,40.368 44.414,39.587L41.585,42.415ZM35.714,30.887C34.933,30.106 33.666,30.106 32.885,30.887C32.104,31.668 32.104,32.934 32.885,33.715L35.714,30.887ZM44.414,39.587L35.714,30.887L32.885,33.715L41.585,42.415L44.414,39.587Z" fill="#FFFFFF"/>
</svg>
