<svg width="34" height="32" viewBox="0 0 34 32" fill="none" xmlns="http://www.w3.org/2000/svg" xmlns:xlink="http://www.w3.org/1999/xlink">
<path d="M20.833,28C20.833,28.828 21.505,29.5 22.333,29.5C23.161,29.5 23.833,28.828 23.833,28L20.833,28ZM22.333,25.333L23.833,25.333L22.333,25.333ZM17,20L17,18.5L17,20ZM7.666,20L7.666,18.5L7.666,20ZM2.333,25.333L0.833,25.333L2.333,25.333ZM0.833,28C0.833,28.828 1.505,29.5 2.333,29.5C3.161,29.5 3.833,28.828 3.833,28L0.833,28ZM23.833,28L23.833,25.333L20.833,25.333L20.833,28L23.833,28ZM23.833,25.333C23.833,23.521 23.113,21.783 21.832,20.501L19.71,22.623C20.429,23.342 20.833,24.317 20.833,25.333L23.833,25.333ZM21.832,20.501C20.55,19.22 18.812,18.5 17,18.5L17,21.5C18.016,21.5 18.991,21.904 19.71,22.623L21.832,20.501ZM17,18.5L7.666,18.5L7.666,21.5L17,21.5L17,18.5ZM7.666,18.5C5.854,18.5 4.116,19.22 2.834,20.501L4.956,22.623C5.675,21.904 6.65,21.5 7.666,21.5L7.666,18.5ZM2.834,20.501C1.553,21.783 0.833,23.521 0.833,25.333L3.833,25.333C3.833,24.317 4.237,23.342 4.956,22.623L2.834,20.501ZM0.833,25.333L0.833,28L3.833,28L3.833,25.333L0.833,25.333Z" fill="#010101"/>
<path d="M16.167,9.333C16.167,11.45 14.45,13.167 12.333,13.167L12.333,16.167C16.107,16.167 19.167,13.107 19.167,9.333L16.167,9.333ZM12.333,13.167C10.216,13.167 8.5,11.45 8.5,9.333L5.5,9.333C5.5,13.107 8.559,16.167 12.333,16.167L12.333,13.167ZM8.5,9.333C8.5,7.216 10.216,5.5 12.333,5.5L12.333,2.5C8.559,2.5 5.5,5.559 5.5,9.333L8.5,9.333ZM12.333,5.5C14.45,5.5 16.167,7.216 16.167,9.333L19.167,9.333C19.167,5.559 16.107,2.5 12.333,2.5L12.333,5.5Z" fill="#010101"/>
<line x1="26.167" y1="10.667" x2="26.167" y2="18.667" stroke="#010101" stroke-width="1.5" stroke-miterlimit="3.999327" stroke-linecap="round" stroke-linejoin="round"/>
<line x1="23.667" y1="13.167" x2="31.667" y2="13.167" stroke="#010101" stroke-width="1.5" stroke-miterlimit="3.999327" stroke-linecap="round" stroke-linejoin="round"/>
</svg>
