<svg width="40" height="40" viewBox="0 0 40 40" fill="none" xmlns="http://www.w3.org/2000/svg" xmlns:xlink="http://www.w3.org/1999/xlink">
<path d="M35.167,20.001C35.167,28.377 28.376,35.167 20,35.167L20,38.167C30.033,38.167 38.167,30.034 38.167,20.001L35.167,20.001ZM20,35.167C11.624,35.167 4.833,28.377 4.833,20.001L1.833,20.001C1.833,30.034 9.967,38.167 20,38.167L20,35.167ZM4.833,20.001C4.833,11.624 11.624,4.834 20,4.834L20,1.834C9.967,1.834 1.833,9.967 1.833,20.001L4.833,20.001ZM20,4.834C28.376,4.834 35.167,11.624 35.167,20.001L38.167,20.001C38.167,9.967 30.033,1.834 20,1.834L20,4.834Z" fill="#010101"/>
<path d="M13.735,14.503C13.46,15.285 13.871,16.141 14.652,16.416C15.434,16.691 16.29,16.28 16.565,15.499L13.735,14.503ZM24.867,16.668L23.367,16.665L23.367,16.668L24.867,16.668ZM19.392,20.245C18.606,20.507 18.182,21.356 18.444,22.142C18.706,22.928 19.555,23.353 20.341,23.091L19.392,20.245ZM16.565,15.499C16.839,14.719 17.381,14.061 18.093,13.643L16.573,11.056C15.25,11.834 14.244,13.055 13.735,14.503L16.565,15.499ZM18.093,13.643C18.806,13.224 19.644,13.071 20.458,13.211L20.966,10.254C19.453,9.994 17.897,10.279 16.573,11.056L18.093,13.643ZM20.458,13.211C21.273,13.35 22.012,13.774 22.544,14.406L24.839,12.474C23.851,11.3 22.479,10.513 20.966,10.254L20.458,13.211ZM22.544,14.406C23.077,15.038 23.368,15.839 23.367,16.665L26.367,16.67C26.369,15.135 25.828,13.649 24.839,12.474L22.544,14.406ZM23.367,16.668C23.367,17.538 22.694,18.397 21.535,19.17C21.001,19.526 20.456,19.799 20.039,19.984C19.832,20.076 19.662,20.144 19.548,20.188C19.49,20.21 19.447,20.225 19.42,20.235C19.407,20.24 19.398,20.243 19.393,20.244C19.391,20.245 19.389,20.246 19.389,20.246C19.389,20.246 19.389,20.246 19.39,20.245C19.39,20.245 19.391,20.245 19.391,20.245C19.391,20.245 19.391,20.245 19.392,20.245C19.392,20.245 19.392,20.245 19.867,21.668C20.341,23.091 20.341,23.09 20.342,23.09C20.342,23.09 20.343,23.09 20.343,23.09C20.344,23.09 20.344,23.089 20.345,23.089C20.347,23.089 20.349,23.088 20.351,23.087C20.356,23.086 20.362,23.084 20.369,23.081C20.383,23.076 20.402,23.07 20.425,23.061C20.472,23.045 20.536,23.021 20.616,22.991C20.774,22.931 20.995,22.842 21.257,22.726C21.778,22.495 22.483,22.143 23.199,21.666C24.539,20.772 26.367,19.131 26.367,16.668L23.367,16.668Z" fill="#010101"/>
<line x1="20" y1="26.834" x2="20.017" y2="26.834" stroke="#010101" stroke-width="1.5" stroke-miterlimit="3.999327" stroke-linecap="round" stroke-linejoin="round"/>
</svg>
