<svg width="48" height="20" viewBox="0 0 48 20" fill="none" xmlns="http://www.w3.org/2000/svg" xmlns:xlink="http://www.w3.org/1999/xlink">
<path d="M13.087,19.23C18.15,19.23 22.234,15.113 22.317,10.149C23.031,9.884 23.795,9.784 24.426,9.784C25.057,9.784 25.837,9.884 26.551,10.149C26.617,15.163 30.701,19.23 35.781,19.23C40.563,19.23 44.497,15.595 44.979,10.963L46.938,10.963C47.701,10.963 48,10.515 48,9.9L48,9.27C48,8.639 47.701,8.207 46.938,8.207L44.846,8.207C44.016,3.99 40.264,0.77 35.781,0.77C31.448,0.77 27.829,3.741 26.833,7.742C26.053,7.443 25.156,7.344 24.426,7.344C23.695,7.344 22.799,7.443 22.035,7.742C21.022,3.741 17.387,0.77 13.087,0.77C8.588,0.77 4.853,3.99 4.006,8.207L1.914,8.207C1.167,8.207 0.868,8.639 0.868,9.27L0.868,9.9C0.868,10.515 1.167,10.963 1.914,10.963L3.89,10.963C4.371,15.595 8.306,19.23 13.087,19.23ZM13.087,16.74C9.368,16.74 6.347,13.735 6.347,10C6.347,6.281 9.368,3.26 13.087,3.26C16.789,3.26 19.827,6.281 19.827,10C19.827,13.735 16.839,16.74 13.087,16.74ZM35.781,16.74C32.029,16.74 29.041,13.735 29.041,10C29.041,6.281 32.029,3.26 35.781,3.26C39.5,3.26 42.522,6.281 42.522,10C42.522,13.735 39.5,16.74 35.781,16.74Z" fill="#010101"/>
</svg>
