<svg width="40" height="40" viewBox="0 0 40 40" fill="none" xmlns="http://www.w3.org/2000/svg" xmlns:xlink="http://www.w3.org/1999/xlink">
<path d="M20,22.5C18.764,22.5 17.555,22.133 16.528,21.447C15.5,20.76 14.699,19.784 14.226,18.642C13.753,17.5 13.629,16.243 13.87,15.031C14.111,13.818 14.707,12.705 15.581,11.831C16.455,10.957 17.568,10.361 18.781,10.12C19.993,9.879 21.25,10.003 22.392,10.476C23.534,10.949 24.51,11.75 25.197,12.778C25.883,13.805 26.25,15.014 26.25,16.25C26.248,17.907 25.589,19.496 24.417,20.667C23.246,21.839 21.657,22.498 20,22.5ZM20,12.5C19.258,12.5 18.533,12.72 17.917,13.132C17.3,13.544 16.819,14.13 16.535,14.815C16.252,15.5 16.177,16.254 16.322,16.982C16.467,17.709 16.824,18.377 17.348,18.902C17.873,19.426 18.541,19.783 19.268,19.928C19.996,20.073 20.75,19.998 21.435,19.715C22.12,19.431 22.706,18.95 23.118,18.333C23.53,17.717 23.75,16.992 23.75,16.25C23.749,15.256 23.354,14.303 22.651,13.599C21.948,12.896 20.994,12.501 20,12.5Z" fill="#010101"/>
<path d="M20,37.5L9.455,25.064C9.308,24.877 9.163,24.689 9.02,24.5C7.22,22.127 6.247,19.229 6.25,16.25C6.25,12.603 7.699,9.106 10.277,6.527C12.856,3.949 16.353,2.5 20,2.5C23.647,2.5 27.144,3.949 29.723,6.527C32.301,9.106 33.75,12.603 33.75,16.25C33.753,19.227 32.78,22.124 30.981,24.496L30.98,24.5C30.98,24.5 30.605,24.993 30.549,25.059L20,37.5ZM11.016,22.994C11.016,22.994 11.307,23.379 11.374,23.461L20,33.635L28.638,23.447C28.693,23.379 28.985,22.991 28.986,22.99C30.458,21.051 31.253,18.684 31.25,16.25C31.25,13.266 30.065,10.405 27.955,8.295C25.845,6.185 22.984,5 20,5C17.016,5 14.155,6.185 12.045,8.295C9.935,10.405 8.75,13.266 8.75,16.25C8.747,18.685 9.543,21.054 11.016,22.994Z" fill="#010101"/>
</svg>
