<svg width="50" height="50" viewBox="0 0 50 50" fill="none" xmlns="http://www.w3.org/2000/svg" xmlns:xlink="http://www.w3.org/1999/xlink">
<path d="M31.5,43C31.5,43.828 32.172,44.5 33,44.5C33.828,44.5 34.5,43.828 34.5,43L31.5,43ZM33,39L34.5,39L33,39ZM25,31L25,29.5L25,31ZM11,31L11,29.5L11,31ZM3,39L1.5,39L3,39ZM1.5,43C1.5,43.828 2.172,44.5 3,44.5C3.828,44.5 4.5,43.828 4.5,43L1.5,43ZM34.5,43L34.5,39L31.5,39L31.5,43L34.5,43ZM34.5,39C34.5,36.48 33.499,34.064 31.718,32.282L29.596,34.404C30.815,35.623 31.5,37.276 31.5,39L34.5,39ZM31.718,32.282C29.936,30.501 27.52,29.5 25,29.5L25,32.5C26.724,32.5 28.377,33.185 29.596,34.404L31.718,32.282ZM25,29.5L11,29.5L11,32.5L25,32.5L25,29.5ZM11,29.5C8.48,29.5 6.064,30.501 4.282,32.282L6.404,34.404C7.623,33.185 9.276,32.5 11,32.5L11,29.5ZM4.282,32.282C2.501,34.064 1.5,36.48 1.5,39L4.5,39C4.5,37.276 5.185,35.623 6.404,34.404L4.282,32.282ZM1.5,39L1.5,43L4.5,43L4.5,39L1.5,39Z" fill="#010101"/>
<path d="M24.5,15C24.5,18.59 21.59,21.5 18,21.5L18,24.5C23.247,24.5 27.5,20.247 27.5,15L24.5,15ZM18,21.5C14.41,21.5 11.5,18.59 11.5,15L8.5,15C8.5,20.247 12.753,24.5 18,24.5L18,21.5ZM11.5,15C11.5,11.41 14.41,8.5 18,8.5L18,5.5C12.753,5.5 8.5,9.753 8.5,15L11.5,15ZM18,8.5C21.59,8.5 24.5,11.41 24.5,15L27.5,15C27.5,9.753 23.247,5.5 18,5.5L18,8.5Z" fill="#010101"/>
<line x1="39.5" y1="17" x2="39.5" y2="29" stroke="#010101" stroke-width="1.5" stroke-miterlimit="3.999327" stroke-linecap="round" stroke-linejoin="round"/>
<line x1="35" y1="21.5" x2="47" y2="21.5" stroke="#010101" stroke-width="1.5" stroke-miterlimit="3.999327" stroke-linecap="round" stroke-linejoin="round"/>
</svg>
