<svg width="40" height="40" viewBox="0 0 40 40" fill="none" xmlns="http://www.w3.org/2000/svg" xmlns:xlink="http://www.w3.org/1999/xlink">
<path d="M24.167,35C24.167,35.828 24.839,36.5 25.667,36.5C26.495,36.5 27.167,35.828 27.167,35L24.167,35ZM25.667,31.667L27.167,31.667L25.667,31.667ZM19,25L19,23.5L19,25ZM7.334,25L7.334,23.5L7.334,25ZM0.667,31.667L-0.833,31.667L0.667,31.667ZM-0.833,35C-0.833,35.828 -0.161,36.5 0.667,36.5C1.495,36.5 2.167,35.828 2.167,35L-0.833,35ZM27.167,35L27.167,31.667L24.167,31.667L24.167,35L27.167,35ZM27.167,31.667C27.167,29.501 26.307,27.424 24.775,25.892L22.654,28.013C23.623,28.982 24.167,30.296 24.167,31.667L27.167,31.667ZM24.775,25.892C23.243,24.36 21.166,23.5 19,23.5L19,26.5C20.371,26.5 21.685,27.044 22.654,28.013L24.775,25.892ZM19,23.5L7.334,23.5L7.334,26.5L19,26.5L19,23.5ZM7.334,23.5C5.168,23.5 3.09,24.36 1.559,25.892L3.68,28.013C4.649,27.044 5.963,26.5 7.334,26.5L7.334,23.5ZM1.559,25.892C0.027,27.424 -0.833,29.501 -0.833,31.667L2.167,31.667C2.167,30.296 2.711,28.982 3.68,28.013L1.559,25.892ZM-0.833,31.667L-0.833,35L2.167,35L2.167,31.667L-0.833,31.667Z" fill="#010101"/>
<path d="M18.333,11.667C18.333,14.52 16.02,16.833 13.167,16.833L13.167,19.833C17.677,19.833 21.333,16.177 21.333,11.667L18.333,11.667ZM13.167,16.833C10.313,16.833 8,14.52 8,11.667L5,11.667C5,16.177 8.656,19.833 13.167,19.833L13.167,16.833ZM8,11.667C8,8.813 10.313,6.5 13.167,6.5L13.167,3.5C8.656,3.5 5,7.156 5,11.667L8,11.667ZM13.167,6.5C16.02,6.5 18.333,8.813 18.333,11.667L21.333,11.667C21.333,7.156 17.677,3.5 13.167,3.5L13.167,6.5Z" fill="#010101"/>
<path d="M30.061,12.273C29.475,11.688 28.525,11.688 27.939,12.273C27.354,12.859 27.354,13.809 27.939,14.395L30.061,12.273ZM36.273,22.728C36.858,23.314 37.808,23.314 38.394,22.728C38.98,22.142 38.98,21.192 38.394,20.607L36.273,22.728ZM27.939,14.395L36.273,22.728L38.394,20.607L30.061,12.273L27.939,14.395Z" fill="#010101"/>
<path d="M38.394,14.395C38.98,13.809 38.98,12.859 38.394,12.273C37.808,11.688 36.858,11.688 36.273,12.273L38.394,14.395ZM27.939,20.607C27.354,21.192 27.354,22.142 27.939,22.728C28.525,23.314 29.475,23.314 30.061,22.728L27.939,20.607ZM36.273,12.273L27.939,20.607L30.061,22.728L38.394,14.395L36.273,12.273Z" fill="#010101"/>
</svg>
