<svg width="32" height="34" viewBox="0 0 32 34" fill="none" xmlns="http://www.w3.org/2000/svg" xmlns:xlink="http://www.w3.org/1999/xlink">
<path d="M20.302,29C20.302,29.57 20.763,30.031 21.333,30.031C21.903,30.031 22.364,29.57 22.364,29L20.302,29ZM21.333,26.333L22.364,26.333L21.333,26.333ZM16,21L16,19.969L16,21ZM6.666,21L6.666,19.969L6.666,21ZM1.333,26.333L0.302,26.333L1.333,26.333ZM0.302,29C0.302,29.57 0.763,30.031 1.333,30.031C1.903,30.031 2.364,29.57 2.364,29L0.302,29ZM22.364,29L22.364,26.333L20.302,26.333L20.302,29L22.364,29ZM22.364,26.333C22.364,24.645 21.694,23.026 20.5,21.833L19.042,23.291C19.849,24.098 20.302,25.192 20.302,26.333L22.364,26.333ZM20.5,21.833C19.307,20.639 17.688,19.969 16,19.969L16,22.031C17.141,22.031 18.235,22.485 19.042,23.291L20.5,21.833ZM16,19.969L6.666,19.969L6.666,22.031L16,22.031L16,19.969ZM6.666,19.969C4.978,19.969 3.359,20.639 2.166,21.833L3.624,23.291C4.431,22.485 5.525,22.031 6.666,22.031L6.666,19.969ZM2.166,21.833C0.972,23.026 0.302,24.645 0.302,26.333L2.364,26.333C2.364,25.192 2.818,24.098 3.624,23.291L2.166,21.833ZM0.302,26.333L0.302,29L2.364,29L2.364,26.333L0.302,26.333Z" fill="#010101"/>
<path d="M15.635,10.333C15.635,12.709 13.709,14.635 11.333,14.635L11.333,16.698C14.848,16.698 17.698,13.848 17.698,10.333L15.635,10.333ZM11.333,14.635C8.957,14.635 7.031,12.709 7.031,10.333L4.969,10.333C4.969,13.848 7.818,16.698 11.333,16.698L11.333,14.635ZM7.031,10.333C7.031,7.957 8.957,6.031 11.333,6.031L11.333,3.969C7.818,3.969 4.969,6.818 4.969,10.333L7.031,10.333ZM11.333,6.031C13.709,6.031 15.635,7.957 15.635,10.333L17.698,10.333C17.698,6.818 14.848,3.969 11.333,3.969L11.333,6.031Z" fill="#010101"/>
<path d="M24.729,10.938C24.326,10.535 23.674,10.535 23.271,10.938C22.868,11.341 22.868,11.993 23.271,12.396L24.729,10.938ZM29.937,19.063C30.34,19.466 30.993,19.466 31.396,19.063C31.799,18.66 31.799,18.007 31.396,17.604L29.937,19.063ZM23.271,12.396L29.937,19.063L31.396,17.604L24.729,10.938L23.271,12.396Z" fill="#010101"/>
<path d="M31.396,12.396C31.799,11.993 31.799,11.341 31.396,10.938C30.993,10.535 30.34,10.535 29.937,10.938L31.396,12.396ZM23.271,17.604C22.868,18.007 22.868,18.66 23.271,19.063C23.674,19.466 24.326,19.466 24.729,19.063L23.271,17.604ZM29.937,10.938L23.271,17.604L24.729,19.063L31.396,12.396L29.937,10.938Z" fill="#010101"/>
</svg>
