<svg width="40" height="40" viewBox="0 0 40 40" fill="none" xmlns="http://www.w3.org/2000/svg" xmlns:xlink="http://www.w3.org/1999/xlink">
<path d="M29.875,17.333C29.875,23.708 24.708,28.875 18.333,28.875L18.333,32.458C26.687,32.458 33.458,25.687 33.458,17.333L29.875,17.333ZM18.333,28.875C11.959,28.875 6.792,23.708 6.792,17.333L3.208,17.333C3.208,25.687 9.98,32.458 18.333,32.458L18.333,28.875ZM6.792,17.333C6.792,10.959 11.959,5.792 18.333,5.792L18.333,2.208C9.98,2.208 3.208,8.98 3.208,17.333L6.792,17.333ZM18.333,5.792C24.708,5.792 29.875,10.959 29.875,17.333L33.458,17.333C33.458,8.98 26.687,2.208 18.333,2.208L18.333,5.792Z" fill="#010101"/>
<path d="M33.733,35.267C34.433,35.967 35.567,35.967 36.267,35.267C36.967,34.567 36.967,33.433 36.267,32.733L33.733,35.267ZM29.017,25.483C28.317,24.783 27.183,24.783 26.483,25.483C25.783,26.183 25.783,27.317 26.483,28.017L29.017,25.483ZM36.267,32.733L29.017,25.483L26.483,28.017L33.733,35.267L36.267,32.733Z" fill="#010101"/>
</svg>
