<svg width="40" height="40" viewBox="0 0 40 40" fill="none" xmlns="http://www.w3.org/2000/svg" xmlns:xlink="http://www.w3.org/1999/xlink">
<line x1="4" y1="8.5" x2="34" y2="8.5" stroke="#010101" stroke-width="1.5" stroke-miterlimit="3.999327" stroke-linecap="round" stroke-linejoin="round"/>
<path d="M32.167,10.001C32.167,9.172 31.496,8.501 30.667,8.501C29.839,8.501 29.167,9.172 29.167,10.001L32.167,10.001ZM7.334,33.334L5.834,33.334L7.334,33.334ZM8.834,10.001C8.834,9.172 8.162,8.501 7.334,8.501C6.506,8.501 5.834,9.172 5.834,10.001L8.834,10.001ZM10.834,10.001C10.834,10.829 11.506,11.501 12.334,11.501C13.162,11.501 13.834,10.829 13.834,10.001L10.834,10.001ZM15.667,3.334L15.667,1.834L15.667,3.334ZM22.334,3.334L22.334,1.834L22.334,3.334ZM24.167,10.001C24.167,10.829 24.839,11.501 25.667,11.501C26.496,11.501 27.167,10.829 27.167,10.001L24.167,10.001ZM29.167,10.001L29.167,33.334L32.167,33.334L32.167,10.001L29.167,10.001ZM29.167,33.334C29.167,33.82 28.974,34.287 28.63,34.63L30.752,36.752C31.658,35.845 32.167,34.616 32.167,33.334L29.167,33.334ZM28.63,34.63C28.287,34.974 27.82,35.167 27.334,35.167L27.334,38.167C28.616,38.167 29.845,37.658 30.752,36.752L28.63,34.63ZM27.334,35.167L10.667,35.167L10.667,38.167L27.334,38.167L27.334,35.167ZM10.667,35.167C10.181,35.167 9.715,34.974 9.371,34.63L7.25,36.752C8.156,37.658 9.385,38.167 10.667,38.167L10.667,35.167ZM9.371,34.63C9.027,34.287 8.834,33.82 8.834,33.334L5.834,33.334C5.834,34.616 6.343,35.845 7.25,36.752L9.371,34.63ZM8.834,33.334L8.834,10.001L5.834,10.001L5.834,33.334L8.834,33.334ZM13.834,10.001L13.834,6.667L10.834,6.667L10.834,10.001L13.834,10.001ZM13.834,6.667C13.834,6.181 14.027,5.715 14.371,5.371L12.25,3.25C11.343,4.156 10.834,5.385 10.834,6.667L13.834,6.667ZM14.371,5.371C14.715,5.027 15.181,4.834 15.667,4.834L15.667,1.834C14.385,1.834 13.156,2.343 12.25,3.25L14.371,5.371ZM15.667,4.834L22.334,4.834L22.334,1.834L15.667,1.834L15.667,4.834ZM22.334,4.834C22.82,4.834 23.287,5.027 23.63,5.371L25.752,3.25C24.845,2.343 23.616,1.834 22.334,1.834L22.334,4.834ZM23.63,5.371C23.974,5.715 24.167,6.181 24.167,6.667L27.167,6.667C27.167,5.385 26.658,4.156 25.752,3.25L23.63,5.371ZM24.167,6.667L24.167,10.001L27.167,10.001L27.167,6.667L24.167,6.667Z" fill="#010101"/>
<line x1="14.166" y1="18.334" x2="14.166" y2="28.334" stroke="#010101" stroke-width="1.5" stroke-miterlimit="3.999327" stroke-linecap="round" stroke-linejoin="round"/>
<line x1="20.834" y1="18.334" x2="20.834" y2="28.334" stroke="#010101" stroke-width="1.5" stroke-miterlimit="3.999327" stroke-linecap="round" stroke-linejoin="round"/>
</svg>
