<svg width="86" height="80" viewBox="0 0 86 80" fill="none" xmlns="http://www.w3.org/2000/svg" xmlns:xlink="http://www.w3.org/1999/xlink">
<path d="M41.995,4.408C50.426,4.407 58.611,7.247 65.231,12.468C71.85,17.689 76.518,24.989 78.48,33.188C80.443,41.387 79.586,50.009 76.048,57.662C72.509,65.314 66.496,71.552 58.978,75.368C57.774,75.979 57.293,77.452 57.904,78.657C58.516,79.861 59.988,80.342 61.193,79.731C69.692,75.417 76.489,68.366 80.489,59.715C84.488,51.064 85.457,41.318 83.239,32.049C81.02,22.78 75.744,14.529 68.261,8.626C60.778,2.724 51.525,-0.486 41.994,-0.484C32.464,-0.483 23.211,2.729 15.73,8.633C8.248,14.538 2.974,22.79 0.758,32.06C-1.458,41.329 -0.487,51.075 3.515,59.725C7.517,68.375 14.316,75.424 22.816,79.736C24.021,80.347 25.493,79.866 26.104,78.661C26.716,77.456 26.234,75.984 25.029,75.372C17.51,71.558 11.496,65.322 7.956,57.67C4.415,50.019 3.556,41.397 5.517,33.197C7.477,24.997 12.143,17.697 18.761,12.474C25.379,7.251 33.564,4.409 41.995,4.408Z" fill="url(#pf_0_891_10278)"/>
<path d="M59.109,20.102C54.225,16.272 48.197,14.192 41.99,14.194C35.783,14.196 29.756,16.281 24.875,20.115C19.994,23.949 16.54,29.31 15.067,35.339C13.594,41.368 14.186,47.718 16.75,53.37C19.313,59.023 23.7,63.652 29.206,66.516C30.405,67.14 30.871,68.617 30.247,69.816C29.624,71.014 28.147,71.481 26.948,70.857C20.47,67.487 15.31,62.041 12.294,55.391C9.278,48.741 8.581,41.271 10.314,34.178C12.047,27.084 16.11,20.777 21.853,16.267C27.596,11.757 34.686,9.304 41.988,9.301C49.29,9.298 56.382,11.746 62.128,16.252C67.874,20.757 71.942,27.061 73.681,34.153C75.419,41.245 74.728,48.716 71.717,55.368C68.707,62.021 63.551,67.471 57.075,70.845C55.877,71.47 54.4,71.005 53.775,69.807C53.151,68.608 53.616,67.131 54.814,66.507C60.318,63.638 64.701,59.006 67.26,53.351C69.819,47.696 70.407,41.346 68.929,35.318C67.451,29.29 63.993,23.932 59.109,20.102Z" fill="url(#pf_0_891_10278)"/>
<path d="M41.991,23.979C45.978,23.977 49.853,25.303 53.003,27.749C56.152,30.194 58.398,33.619 59.384,37.483C60.37,41.346 60.041,45.428 58.448,49.084C56.856,52.74 54.091,55.761 50.59,57.67C49.404,58.317 48.966,59.803 49.613,60.989C50.26,62.175 51.746,62.612 52.932,61.966C57.388,59.536 60.907,55.691 62.934,51.038C64.961,46.385 65.38,41.19 64.124,36.273C62.869,31.355 60.012,26.996 56.003,23.884C51.994,20.772 47.063,19.084 41.988,19.087C36.913,19.09 31.983,20.783 27.978,23.9C23.973,27.017 21.12,31.379 19.871,36.298C18.621,41.217 19.046,46.412 21.078,51.062C23.111,55.713 26.634,59.553 31.092,61.978C32.279,62.623 33.765,62.185 34.41,60.998C35.056,59.811 34.617,58.325 33.43,57.68C29.927,55.775 27.158,52.757 25.562,49.103C23.965,45.449 23.631,41.367 24.613,37.503C25.595,33.638 27.836,30.21 30.983,27.761C34.13,25.312 38.003,23.982 41.991,23.979Z" fill="url(#pf_0_891_10278)"/>
<path d="M46.9,35.402C45.483,34.336 43.757,33.761 41.984,33.765C40.21,33.768 38.486,34.35 37.073,35.421C35.66,36.492 34.635,37.995 34.152,39.702C33.67,41.408 33.757,43.225 34.4,44.878C35.044,46.53 36.208,47.928 37.718,48.859C38.867,49.569 39.224,51.076 38.515,52.226C37.805,53.376 36.298,53.733 35.148,53.023C32.734,51.533 30.87,49.297 29.841,46.653C28.812,44.009 28.672,41.101 29.444,38.371C30.216,35.641 31.856,33.236 34.117,31.522C36.379,29.808 39.137,28.878 41.974,28.872C44.811,28.867 47.573,29.786 49.841,31.491C52.109,33.197 53.759,35.595 54.541,38.322C55.323,41.049 55.195,43.958 54.176,46.606C53.157,49.254 51.303,51.497 48.894,52.997C47.747,53.71 46.238,53.359 45.524,52.212C44.81,51.065 45.161,49.557 46.308,48.843C47.814,47.906 48.973,46.503 49.61,44.848C50.247,43.193 50.327,41.376 49.838,39.671C49.349,37.967 48.318,36.468 46.9,35.402Z" fill="url(#pf_0_891_10278)"/>
<path d="M45.262,41.919C45.262,43.721 43.801,45.181 42,45.181C40.198,45.181 38.738,43.721 38.738,41.919C38.738,40.118 40.198,38.658 42,38.658C43.801,38.658 45.262,40.118 45.262,41.919Z" fill="url(#pf_0_891_10278)"/>
<defs>
<linearGradient id="pf_0_891_10278" x1="66.463" y1="6.037" x2="28.952" y2="74.629" gradientUnits="userSpaceOnUse">
<stop stop-color="#1F97F5"/>
<stop offset="1" stop-color="#007AFF"/>
</linearGradient>
<linearGradient id="pf_0_891_10278" x1="66.463" y1="6.037" x2="28.952" y2="74.629" gradientUnits="userSpaceOnUse">
<stop stop-color="#1F97F5"/>
<stop offset="1" stop-color="#007AFF"/>
</linearGradient>
<linearGradient id="pf_0_891_10278" x1="66.463" y1="6.037" x2="28.952" y2="74.629" gradientUnits="userSpaceOnUse">
<stop stop-color="#1F97F5"/>
<stop offset="1" stop-color="#007AFF"/>
</linearGradient>
<linearGradient id="pf_0_891_10278" x1="66.463" y1="6.037" x2="28.952" y2="74.629" gradientUnits="userSpaceOnUse">
<stop stop-color="#1F97F5"/>
<stop offset="1" stop-color="#007AFF"/>
</linearGradient>
<linearGradient id="pf_0_891_10278" x1="66.463" y1="6.037" x2="28.952" y2="74.629" gradientUnits="userSpaceOnUse">
<stop stop-color="#1F97F5"/>
<stop offset="1" stop-color="#007AFF"/>
</linearGradient>
</defs>
</svg>
