<svg width="40" height="40" viewBox="0 0 40 40" fill="none" xmlns="http://www.w3.org/2000/svg" xmlns:xlink="http://www.w3.org/1999/xlink">
<path d="M25.166,34C25.166,34.828 25.838,35.5 26.666,35.5C27.494,35.5 28.166,34.828 28.166,34L25.166,34ZM26.666,30.667L28.166,30.667L26.666,30.667ZM19.999,24L19.999,22.5L19.999,24ZM8.333,24L8.333,22.5L8.333,24ZM1.666,30.667L0.166,30.667L1.666,30.667ZM0.166,34C0.166,34.828 0.838,35.5 1.666,35.5C2.494,35.5 3.166,34.828 3.166,34L0.166,34ZM28.166,34L28.166,30.667L25.166,30.667L25.166,34L28.166,34ZM28.166,30.667C28.166,28.501 27.306,26.424 25.774,24.892L23.653,27.013C24.622,27.982 25.166,29.296 25.166,30.667L28.166,30.667ZM25.774,24.892C24.242,23.36 22.165,22.5 19.999,22.5L19.999,25.5C21.37,25.5 22.684,26.044 23.653,27.013L25.774,24.892ZM19.999,22.5L8.333,22.5L8.333,25.5L19.999,25.5L19.999,22.5ZM8.333,22.5C6.167,22.5 4.09,23.36 2.558,24.892L4.679,27.013C5.648,26.044 6.962,25.5 8.333,25.5L8.333,22.5ZM2.558,24.892C1.026,26.424 0.166,28.501 0.166,30.667L3.166,30.667C3.166,29.296 3.71,27.982 4.679,27.013L2.558,24.892ZM0.166,30.667L0.166,34L3.166,34L3.166,30.667L0.166,30.667Z" fill="#010101"/>
<path d="M19.333,10.667C19.333,13.52 17.02,15.833 14.167,15.833L14.167,18.833C18.677,18.833 22.333,15.177 22.333,10.667L19.333,10.667ZM14.167,15.833C11.313,15.833 9,13.52 9,10.667L6,10.667C6,15.177 9.656,18.833 14.167,18.833L14.167,15.833ZM9,10.667C9,7.813 11.313,5.5 14.167,5.5L14.167,2.5C9.656,2.5 6,6.156 6,10.667L9,10.667ZM14.167,5.5C17.02,5.5 19.333,7.813 19.333,10.667L22.333,10.667C22.333,6.156 18.677,2.5 14.167,2.5L14.167,5.5Z" fill="#010101"/>
<line x1="31.834" y1="12.334" x2="31.834" y2="22.334" stroke="#010101" stroke-width="1.5" stroke-miterlimit="3.999327" stroke-linecap="round" stroke-linejoin="round"/>
<line x1="28.334" y1="15.834" x2="38.334" y2="15.834" stroke="#010101" stroke-width="1.5" stroke-miterlimit="3.999327" stroke-linecap="round" stroke-linejoin="round"/>
</svg>
