<svg width="40" height="40" viewBox="0 0 40 40" fill="none" xmlns="http://www.w3.org/2000/svg" xmlns:xlink="http://www.w3.org/1999/xlink">
<path d="M11.5,22.5L21.5,22.5L21.5,25L11.5,25L11.5,22.5ZM11.5,16.25L26.5,16.25L26.5,18.75L11.5,18.75L11.5,16.25ZM11.5,28.75L17.75,28.75L17.75,31.25L11.5,31.25L11.5,28.75Z" fill="#010101"/>
<path d="M30.25,6.25L26.5,6.25L26.5,5C26.5,4.337 26.237,3.701 25.768,3.232C25.299,2.763 24.663,2.5 24,2.5L14,2.5C13.337,2.5 12.701,2.763 12.232,3.232C11.763,3.701 11.5,4.337 11.5,5L11.5,6.25L7.75,6.25C7.087,6.25 6.451,6.513 5.982,6.982C5.513,7.451 5.25,8.087 5.25,8.75L5.25,35C5.25,35.663 5.513,36.299 5.982,36.768C6.451,37.237 7.087,37.5 7.75,37.5L30.25,37.5C30.913,37.5 31.549,37.237 32.018,36.768C32.487,36.299 32.75,35.663 32.75,35L32.75,8.75C32.75,8.087 32.487,7.451 32.018,6.982C31.549,6.513 30.913,6.25 30.25,6.25ZM14,5L24,5L24,10L14,10L14,5ZM30.25,35L7.75,35L7.75,8.75L11.5,8.75L11.5,12.5L26.5,12.5L26.5,8.75L30.25,8.75L30.25,35Z" fill="#010101"/>
</svg>
