<svg width="40" height="40" viewBox="0 0 40 40" fill="none" xmlns="http://www.w3.org/2000/svg" xmlns:xlink="http://www.w3.org/1999/xlink">
<path d="M26.971,28.696C27.723,29.448 28.942,29.448 29.695,28.696C30.447,27.943 30.447,26.724 29.695,25.972L26.971,28.696ZM13.028,9.305C12.276,8.553 11.056,8.553 10.304,9.305C9.552,10.057 9.552,11.277 10.304,12.029L13.028,9.305ZM29.695,25.972L13.028,9.305L10.304,12.029L26.971,28.696L29.695,25.972Z" fill="#010101"/>
<path d="M9.74,27.334C9.74,28.397 10.602,29.26 11.666,29.26C12.73,29.26 13.592,28.397 13.592,27.334L9.74,27.334ZM11.666,10.667L11.666,8.741C10.602,8.741 9.74,9.603 9.74,10.667L11.666,10.667ZM28.333,12.593C29.396,12.593 30.259,11.731 30.259,10.667C30.259,9.603 29.396,8.741 28.333,8.741L28.333,12.593ZM13.592,27.334L13.592,10.667L9.74,10.667L9.74,27.334L13.592,27.334ZM11.666,12.593L28.333,12.593L28.333,8.741L11.666,8.741L11.666,12.593Z" fill="#010101"/>
</svg>
