<svg width="42" height="40" viewBox="0 0 42 40" fill="none" xmlns="http://www.w3.org/2000/svg" xmlns:xlink="http://www.w3.org/1999/xlink">
<path d="M35.873,18.584L31.383,18.584C29.01,18.584 27.248,20.349 27.248,22.334C27.248,24.319 29.01,26.084 31.382,26.084L35.912,26.084C36.255,26.062 36.403,25.831 36.415,25.691L36.415,18.977C36.403,18.837 36.255,18.606 35.912,18.586L35.873,18.584ZM35.75,16.084C35.86,16.084 35.967,16.084 36.067,16.091C37.517,16.179 38.802,17.274 38.91,18.804C38.917,18.904 38.917,19.012 38.917,19.112L38.917,25.556C38.917,25.656 38.917,25.764 38.91,25.864C38.802,27.394 37.517,28.489 36.065,28.579C35.967,28.584 35.86,28.584 35.748,28.584L31.385,28.584C27.81,28.584 24.75,25.871 24.75,22.334C24.75,18.797 27.81,16.084 31.383,16.084L35.722,16.084L35.75,16.084Z" clip-rule="evenodd" fill-rule="evenodd" fill="#010101"/>
<path d="M32.667,22.333C32.667,22.775 32.491,23.199 32.179,23.511C31.866,23.824 31.442,23.999 31,23.999C30.558,23.999 30.134,23.824 29.821,23.511C29.509,23.199 29.333,22.775 29.333,22.333C29.333,21.891 29.509,21.467 29.821,21.154C30.134,20.842 30.558,20.666 31,20.666C31.442,20.666 31.866,20.842 32.179,21.154C32.491,21.467 32.667,21.891 32.667,22.333Z" fill="#010101"/>
<path d="M35.75,16.084C36.228,16.065 36.704,16.157 37.142,16.35C36.963,13.674 36.472,11.61 34.932,10.069C33.683,8.822 32.102,8.269 30.148,8.005L30.078,7.997C30.061,7.984 30.043,7.971 30.025,7.959L23.798,3.83C22.718,3.125 21.456,2.75 20.167,2.75C18.877,2.75 17.615,3.125 16.535,3.83L10.31,7.959C10.291,7.971 10.273,7.984 10.255,7.997L10.185,8.005C8.232,8.269 6.65,8.822 5.402,10.069C4.155,11.317 3.602,12.899 3.338,14.852C3.083,16.752 3.083,19.177 3.083,22.24L3.083,22.427C3.083,25.49 3.083,27.917 3.338,29.815C3.602,31.769 4.155,33.35 5.402,34.599C6.65,35.845 8.232,36.399 10.185,36.662C12.085,36.917 14.51,36.917 17.573,36.917L22.76,36.917C25.823,36.917 28.25,36.917 30.148,36.662C32.102,36.399 33.683,35.845 34.932,34.599C36.472,33.057 36.963,30.994 37.142,28.315C36.805,28.465 36.442,28.555 36.065,28.579C35.967,28.584 35.86,28.584 35.748,28.584L34.613,28.584C34.423,30.82 33.995,32 33.163,32.83C32.458,33.535 31.492,33.959 29.815,34.184C28.103,34.414 25.845,34.417 22.667,34.417L17.667,34.417C14.488,34.417 12.232,34.414 10.517,34.184C8.842,33.959 7.875,33.535 7.17,32.83C6.465,32.125 6.042,31.159 5.817,29.482C5.587,27.77 5.583,25.512 5.583,22.334C5.583,19.155 5.587,16.899 5.817,15.184C6.042,13.509 6.465,12.542 7.17,11.837C7.875,11.132 8.842,10.709 10.518,10.484C12.232,10.254 14.488,10.25 17.667,10.25L22.667,10.25C25.845,10.25 28.103,10.254 29.817,10.484C31.492,10.709 32.458,11.132 33.163,11.837C33.995,12.667 34.423,13.849 34.613,16.084L35.722,16.084L35.75,16.084ZM17.573,7.75L22.76,7.75C23.622,7.75 24.432,7.75 25.193,7.755L22.417,5.914C21.083,5.03 19.25,5.03 17.917,5.914L15.138,7.755C15.902,7.75 16.712,7.75 17.572,7.75Z" clip-rule="evenodd" fill-rule="evenodd" fill="#010101"/>
<path d="M11,14.416C10.668,14.416 10.351,14.548 10.116,14.782C9.882,15.017 9.75,15.334 9.75,15.666C9.75,15.998 9.882,16.315 10.116,16.55C10.351,16.784 10.668,16.916 11,16.916L17.667,16.916C17.998,16.916 18.316,16.784 18.551,16.55C18.785,16.315 18.917,15.998 18.917,15.666C18.917,15.334 18.785,15.017 18.551,14.782C18.316,14.548 17.998,14.416 17.667,14.416L11,14.416Z" fill="#010101"/>
<path d="M32.667,22.333C32.667,22.775 32.491,23.199 32.179,23.511C31.866,23.824 31.442,23.999 31,23.999C30.558,23.999 30.134,23.824 29.821,23.511C29.509,23.199 29.333,22.775 29.333,22.333C29.333,21.891 29.509,21.467 29.821,21.154C30.134,20.842 30.558,20.666 31,20.666C31.442,20.666 31.866,20.842 32.179,21.154C32.491,21.467 32.667,21.891 32.667,22.333Z" fill="#010101"/>
</svg>
