<svg width="40" height="42" viewBox="0 0 40 42" fill="none" xmlns="http://www.w3.org/2000/svg" xmlns:xlink="http://www.w3.org/1999/xlink">
<path d="M26.972,30.696C27.724,31.448 28.943,31.448 29.696,30.696C30.448,29.943 30.448,28.724 29.696,27.972L26.972,30.696ZM13.029,11.305C12.277,10.553 11.057,10.553 10.305,11.305C9.553,12.057 9.553,13.277 10.305,14.029L13.029,11.305ZM29.696,27.972L13.029,11.305L10.305,14.029L26.972,30.696L29.696,27.972Z" fill="#5F5F5F"/>
<path d="M9.741,29.334C9.741,30.397 10.603,31.26 11.667,31.26C12.731,31.26 13.593,30.397 13.593,29.334L9.741,29.334ZM11.667,12.667L11.667,10.741C10.603,10.741 9.741,11.603 9.741,12.667L11.667,12.667ZM28.334,14.593C29.397,14.593 30.26,13.731 30.26,12.667C30.26,11.603 29.397,10.741 28.334,10.741L28.334,14.593ZM13.593,29.334L13.593,12.667L9.741,12.667L9.741,29.334L13.593,29.334ZM11.667,14.593L28.334,14.593L28.334,10.741L11.667,10.741L11.667,14.593Z" fill="#5F5F5F"/>
</svg>
