<svg width="34" height="42" viewBox="0 0 34 42" fill="none" xmlns="http://www.w3.org/2000/svg" xmlns:xlink="http://www.w3.org/1999/xlink">
<path d="M0.05,35.672C0.05,39.142 1.76,40.885 5.196,40.885L20.802,40.885C24.238,40.885 25.948,39.125 25.948,35.672L25.948,32.601L28.854,32.601C32.273,32.601 34,30.841 34,27.388L34,13.907C34,11.865 33.585,10.57 32.34,9.292L23.956,0.775C22.777,-0.437 21.383,-0.885 19.606,-0.885L13.248,-0.885C9.828,-0.885 8.102,0.875 8.102,4.328L8.102,7.399L5.196,7.399C1.776,7.399 0.05,9.143 0.05,12.612L0.05,35.672ZM24.371,18.29L15.224,8.977C13.962,7.682 12.916,7.399 11.057,7.399L10.774,7.399L10.774,4.378C10.774,2.734 11.654,1.788 13.381,1.788L20.719,1.788L20.719,10.305C20.719,12.23 21.648,13.144 23.558,13.144L31.327,13.144L31.327,27.338C31.327,28.998 30.431,29.928 28.704,29.928L25.948,29.928L25.948,22.706C25.948,20.581 25.699,19.651 24.371,18.29ZM23.126,9.906L23.126,3.1L30.63,10.736L23.939,10.736C23.358,10.736 23.126,10.487 23.126,9.906ZM2.723,35.622L2.723,12.646C2.723,11.019 3.603,10.072 5.329,10.072L10.774,10.072L10.774,19.701C10.774,21.793 11.837,22.839 13.896,22.839L23.275,22.839L23.275,35.622C23.275,37.282 22.379,38.212 20.669,38.212L5.313,38.212C3.603,38.212 2.723,37.282 2.723,35.622ZM14.211,20.332C13.547,20.332 13.281,20.066 13.281,19.402L13.281,10.687L22.761,20.332L14.211,20.332Z" fill="#010101"/>
</svg>
