<svg width="32" height="32" viewBox="0 0 32 32" fill="none" xmlns="http://www.w3.org/2000/svg" xmlns:xlink="http://www.w3.org/1999/xlink">
<path d="M19.833,28C19.833,28.828 20.505,29.5 21.333,29.5C22.162,29.5 22.833,28.828 22.833,28L19.833,28ZM21.333,25.333L22.833,25.333L21.333,25.333ZM16,20L16,18.5L16,20ZM6.667,20L6.667,18.5L6.667,20ZM1.333,25.333L-0.167,25.333L1.333,25.333ZM-0.167,28C-0.167,28.828 0.505,29.5 1.333,29.5C2.162,29.5 2.833,28.828 2.833,28L-0.167,28ZM22.833,28L22.833,25.333L19.833,25.333L19.833,28L22.833,28ZM22.833,25.333C22.833,23.521 22.113,21.783 20.832,20.501L18.711,22.623C19.43,23.342 19.833,24.317 19.833,25.333L22.833,25.333ZM20.832,20.501C19.551,19.22 17.812,18.5 16,18.5L16,21.5C17.017,21.5 17.992,21.904 18.711,22.623L20.832,20.501ZM16,18.5L6.667,18.5L6.667,21.5L16,21.5L16,18.5ZM6.667,18.5C4.855,18.5 3.116,19.22 1.835,20.501L3.956,22.623C4.675,21.904 5.65,21.5 6.667,21.5L6.667,18.5ZM1.835,20.501C0.553,21.783 -0.167,23.521 -0.167,25.333L2.833,25.333C2.833,24.317 3.237,23.342 3.956,22.623L1.835,20.501ZM-0.167,25.333L-0.167,28L2.833,28L2.833,25.333L-0.167,25.333Z" fill="#010101"/>
<path d="M15.167,9.333C15.167,11.45 13.45,13.167 11.333,13.167L11.333,16.167C15.107,16.167 18.167,13.107 18.167,9.333L15.167,9.333ZM11.333,13.167C9.216,13.167 7.5,11.45 7.5,9.333L4.5,9.333C4.5,13.107 7.559,16.167 11.333,16.167L11.333,13.167ZM7.5,9.333C7.5,7.216 9.216,5.5 11.333,5.5L11.333,2.5C7.559,2.5 4.5,5.559 4.5,9.333L7.5,9.333ZM11.333,5.5C13.45,5.5 15.167,7.216 15.167,9.333L18.167,9.333C18.167,5.559 15.107,2.5 11.333,2.5L11.333,5.5Z" fill="#010101"/>
<line x1="25.167" y1="10.667" x2="25.167" y2="18.667" stroke="#010101" stroke-width="1.5" stroke-miterlimit="3.999327" stroke-linecap="round" stroke-linejoin="round"/>
<line x1="22.667" y1="13.167" x2="30.667" y2="13.167" stroke="#010101" stroke-width="1.5" stroke-miterlimit="3.999327" stroke-linecap="round" stroke-linejoin="round"/>
</svg>
