<svg width="40" height="40" viewBox="0 0 40 40" fill="none" xmlns="http://www.w3.org/2000/svg" xmlns:xlink="http://www.w3.org/1999/xlink">
<line x1="4" y1="8.5" x2="34" y2="8.5" stroke="#010101" stroke-width="1.5" stroke-miterlimit="3.999327" stroke-linecap="round" stroke-linejoin="round"/>
<path d="M32.166,10.001C32.166,9.172 31.495,8.501 30.666,8.501C29.838,8.501 29.166,9.172 29.166,10.001L32.166,10.001ZM7.333,33.334L5.833,33.334L7.333,33.334ZM8.833,10.001C8.833,9.172 8.161,8.501 7.333,8.501C6.505,8.501 5.833,9.172 5.833,10.001L8.833,10.001ZM10.833,10.001C10.833,10.829 11.505,11.501 12.333,11.501C13.161,11.501 13.833,10.829 13.833,10.001L10.833,10.001ZM15.666,3.334L15.666,1.834L15.666,3.334ZM22.333,3.334L22.333,1.834L22.333,3.334ZM24.166,10.001C24.166,10.829 24.838,11.501 25.666,11.501C26.495,11.501 27.166,10.829 27.166,10.001L24.166,10.001ZM29.166,10.001L29.166,33.334L32.166,33.334L32.166,10.001L29.166,10.001ZM29.166,33.334C29.166,33.82 28.973,34.287 28.629,34.63L30.751,36.752C31.657,35.845 32.166,34.616 32.166,33.334L29.166,33.334ZM28.629,34.63C28.286,34.974 27.819,35.167 27.333,35.167L27.333,38.167C28.615,38.167 29.844,37.658 30.751,36.752L28.629,34.63ZM27.333,35.167L10.666,35.167L10.666,38.167L27.333,38.167L27.333,35.167ZM10.666,35.167C10.18,35.167 9.714,34.974 9.37,34.63L7.249,36.752C8.155,37.658 9.384,38.167 10.666,38.167L10.666,35.167ZM9.37,34.63C9.026,34.287 8.833,33.82 8.833,33.334L5.833,33.334C5.833,34.616 6.342,35.845 7.249,36.752L9.37,34.63ZM8.833,33.334L8.833,10.001L5.833,10.001L5.833,33.334L8.833,33.334ZM13.833,10.001L13.833,6.667L10.833,6.667L10.833,10.001L13.833,10.001ZM13.833,6.667C13.833,6.181 14.026,5.715 14.37,5.371L12.249,3.25C11.342,4.156 10.833,5.385 10.833,6.667L13.833,6.667ZM14.37,5.371C14.714,5.027 15.18,4.834 15.666,4.834L15.666,1.834C14.384,1.834 13.155,2.343 12.249,3.25L14.37,5.371ZM15.666,4.834L22.333,4.834L22.333,1.834L15.666,1.834L15.666,4.834ZM22.333,4.834C22.819,4.834 23.286,5.027 23.629,5.371L25.751,3.25C24.844,2.343 23.615,1.834 22.333,1.834L22.333,4.834ZM23.629,5.371C23.973,5.715 24.166,6.181 24.166,6.667L27.166,6.667C27.166,5.385 26.657,4.156 25.751,3.25L23.629,5.371ZM24.166,6.667L24.166,10.001L27.166,10.001L27.166,6.667L24.166,6.667Z" fill="#010101"/>
<line x1="14.167" y1="18.334" x2="14.167" y2="28.334" stroke="#010101" stroke-width="1.5" stroke-miterlimit="3.999327" stroke-linecap="round" stroke-linejoin="round"/>
<line x1="20.833" y1="18.334" x2="20.833" y2="28.334" stroke="#010101" stroke-width="1.5" stroke-miterlimit="3.999327" stroke-linecap="round" stroke-linejoin="round"/>
</svg>
