<svg width="40" height="40" viewBox="0 0 40 40" fill="none" xmlns="http://www.w3.org/2000/svg" xmlns:xlink="http://www.w3.org/1999/xlink">
<path d="M12.5,22.5L22.5,22.5L22.5,25L12.5,25L12.5,22.5ZM12.5,16.25L27.5,16.25L27.5,18.75L12.5,18.75L12.5,16.25ZM12.5,28.75L18.75,28.75L18.75,31.25L12.5,31.25L12.5,28.75Z" fill="#010101"/>
<path d="M31.25,6.25L27.5,6.25L27.5,5C27.5,4.337 27.237,3.701 26.768,3.232C26.299,2.763 25.663,2.5 25,2.5L15,2.5C14.337,2.5 13.701,2.763 13.232,3.232C12.763,3.701 12.5,4.337 12.5,5L12.5,6.25L8.75,6.25C8.087,6.25 7.451,6.513 6.982,6.982C6.513,7.451 6.25,8.087 6.25,8.75L6.25,35C6.25,35.663 6.513,36.299 6.982,36.768C7.451,37.237 8.087,37.5 8.75,37.5L31.25,37.5C31.913,37.5 32.549,37.237 33.018,36.768C33.487,36.299 33.75,35.663 33.75,35L33.75,8.75C33.75,8.087 33.487,7.451 33.018,6.982C32.549,6.513 31.913,6.25 31.25,6.25ZM15,5L25,5L25,10L15,10L15,5ZM31.25,35L8.75,35L8.75,8.75L12.5,8.75L12.5,12.5L27.5,12.5L27.5,8.75L31.25,8.75L31.25,35Z" fill="#010101"/>
</svg>
