<svg width="40" height="40" viewBox="0 0 40 40" fill="none" xmlns="http://www.w3.org/2000/svg" xmlns:xlink="http://www.w3.org/1999/xlink">
<path d="M25.167,35C25.167,35.828 25.838,36.5 26.667,36.5C27.495,36.5 28.167,35.828 28.167,35L25.167,35ZM26.667,31.667L28.167,31.667L26.667,31.667ZM20,25L20,23.5L20,25ZM8.333,25L8.333,23.5L8.333,25ZM1.667,31.667L0.167,31.667L1.667,31.667ZM0.167,35C0.167,35.828 0.838,36.5 1.667,36.5C2.495,36.5 3.167,35.828 3.167,35L0.167,35ZM28.167,35L28.167,31.667L25.167,31.667L25.167,35L28.167,35ZM28.167,31.667C28.167,29.501 27.306,27.424 25.775,25.892L23.653,28.013C24.622,28.982 25.167,30.296 25.167,31.667L28.167,31.667ZM25.775,25.892C24.243,24.36 22.166,23.5 20,23.5L20,26.5C21.37,26.5 22.684,27.044 23.653,28.013L25.775,25.892ZM20,23.5L8.333,23.5L8.333,26.5L20,26.5L20,23.5ZM8.333,23.5C6.167,23.5 4.09,24.36 2.559,25.892L4.68,28.013C5.649,27.044 6.963,26.5 8.333,26.5L8.333,23.5ZM2.559,25.892C1.027,27.424 0.167,29.501 0.167,31.667L3.167,31.667C3.167,30.296 3.711,28.982 4.68,28.013L2.559,25.892ZM0.167,31.667L0.167,35L3.167,35L3.167,31.667L0.167,31.667Z" fill="#010101"/>
<path d="M19.333,11.667C19.333,14.52 17.02,16.833 14.167,16.833L14.167,19.833C18.677,19.833 22.333,16.177 22.333,11.667L19.333,11.667ZM14.167,16.833C11.313,16.833 9,14.52 9,11.667L6,11.667C6,16.177 9.656,19.833 14.167,19.833L14.167,16.833ZM9,11.667C9,8.813 11.313,6.5 14.167,6.5L14.167,3.5C9.656,3.5 6,7.156 6,11.667L9,11.667ZM14.167,6.5C17.02,6.5 19.333,8.813 19.333,11.667L22.333,11.667C22.333,7.156 18.677,3.5 14.167,3.5L14.167,6.5Z" fill="#010101"/>
<path d="M31.061,12.273C30.475,11.688 29.525,11.688 28.939,12.273C28.354,12.859 28.354,13.809 28.939,14.395L31.061,12.273ZM37.273,22.728C37.858,23.314 38.808,23.314 39.394,22.728C39.98,22.142 39.98,21.192 39.394,20.607L37.273,22.728ZM28.939,14.395L37.273,22.728L39.394,20.607L31.061,12.273L28.939,14.395Z" fill="#010101"/>
<path d="M39.394,14.395C39.98,13.809 39.98,12.859 39.394,12.273C38.808,11.688 37.858,11.688 37.273,12.273L39.394,14.395ZM28.939,20.607C28.354,21.192 28.354,22.142 28.939,22.728C29.525,23.314 30.475,23.314 31.061,22.728L28.939,20.607ZM37.273,12.273L28.939,20.607L31.061,22.728L39.394,14.395L37.273,12.273Z" fill="#010101"/>
</svg>
