<svg width="40" height="40" viewBox="0 0 40 40" fill="none" xmlns="http://www.w3.org/2000/svg" xmlns:xlink="http://www.w3.org/1999/xlink">
<path d="M33.873,18.584L29.383,18.584C27.01,18.584 25.248,20.349 25.248,22.334C25.248,24.319 27.01,26.084 29.382,26.084L33.912,26.084C34.255,26.062 34.403,25.831 34.415,25.691L34.415,18.977C34.403,18.837 34.255,18.606 33.912,18.586L33.873,18.584ZM33.75,16.084C33.86,16.084 33.967,16.084 34.067,16.091C35.517,16.179 36.802,17.274 36.91,18.804C36.917,18.904 36.917,19.012 36.917,19.112L36.917,25.556C36.917,25.656 36.917,25.764 36.91,25.864C36.802,27.394 35.517,28.489 34.065,28.579C33.967,28.584 33.86,28.584 33.748,28.584L29.385,28.584C25.81,28.584 22.75,25.871 22.75,22.334C22.75,18.797 25.81,16.084 29.383,16.084L33.722,16.084L33.75,16.084Z" clip-rule="evenodd" fill-rule="evenodd" fill="#010101"/>
<path d="M30.665,22.333C30.665,22.775 30.49,23.199 30.177,23.511C29.865,23.824 29.441,23.999 28.999,23.999C28.557,23.999 28.133,23.824 27.82,23.511C27.508,23.199 27.332,22.775 27.332,22.333C27.332,21.891 27.508,21.467 27.82,21.154C28.133,20.842 28.557,20.666 28.999,20.666C29.441,20.666 29.865,20.842 30.177,21.154C30.49,21.467 30.665,21.891 30.665,22.333Z" fill="#010101"/>
<path d="M33.751,16.084C34.229,16.065 34.705,16.157 35.142,16.35C34.964,13.674 34.472,11.61 32.932,10.069C31.684,8.822 30.102,8.269 28.149,8.005L28.079,7.997C28.062,7.984 28.044,7.971 28.026,7.959L21.799,3.83C20.719,3.125 19.457,2.75 18.167,2.75C16.878,2.75 15.616,3.125 14.536,3.83L8.311,7.959C8.292,7.971 8.274,7.984 8.256,7.997L8.186,8.005C6.232,8.269 4.651,8.822 3.402,10.069C2.156,11.317 1.602,12.899 1.339,14.852C1.084,16.752 1.084,19.177 1.084,22.24L1.084,22.427C1.084,25.49 1.084,27.917 1.339,29.815C1.602,31.769 2.156,33.35 3.402,34.599C4.651,35.845 6.232,36.399 8.186,36.662C10.086,36.917 12.511,36.917 15.574,36.917L20.761,36.917C23.824,36.917 26.251,36.917 28.149,36.662C30.102,36.399 31.684,35.845 32.932,34.599C34.472,33.057 34.964,30.994 35.142,28.315C34.806,28.465 34.442,28.555 34.066,28.579C33.967,28.584 33.861,28.584 33.749,28.584L32.614,28.584C32.424,30.82 31.996,32 31.164,32.83C30.459,33.535 29.492,33.959 27.816,34.184C26.104,34.414 23.846,34.417 20.667,34.417L15.667,34.417C12.489,34.417 10.232,34.414 8.517,34.184C6.842,33.959 5.876,33.535 5.171,32.83C4.466,32.125 4.042,31.159 3.817,29.482C3.587,27.77 3.584,25.512 3.584,22.334C3.584,19.155 3.587,16.899 3.817,15.184C4.042,13.509 4.466,12.542 5.171,11.837C5.876,11.132 6.842,10.709 8.519,10.484C10.232,10.254 12.489,10.25 15.667,10.25L20.667,10.25C23.846,10.25 26.104,10.254 27.817,10.484C29.492,10.709 30.459,11.132 31.164,11.837C31.996,12.667 32.424,13.849 32.614,16.084L33.722,16.084L33.751,16.084ZM15.574,7.75L20.761,7.75C21.622,7.75 22.432,7.75 23.194,7.755L20.417,5.914C19.084,5.03 17.251,5.03 15.917,5.914L13.139,7.755C13.902,7.75 14.712,7.75 15.572,7.75Z" clip-rule="evenodd" fill-rule="evenodd" fill="#010101"/>
<path d="M9,14.416C8.668,14.416 8.351,14.548 8.116,14.782C7.882,15.017 7.75,15.334 7.75,15.666C7.75,15.998 7.882,16.315 8.116,16.55C8.351,16.784 8.668,16.916 9,16.916L15.667,16.916C15.998,16.916 16.316,16.784 16.551,16.55C16.785,16.315 16.917,15.998 16.917,15.666C16.917,15.334 16.785,15.017 16.551,14.782C16.316,14.548 15.998,14.416 15.667,14.416L9,14.416Z" fill="#010101"/>
<path d="M30.665,22.333C30.665,22.775 30.49,23.199 30.177,23.511C29.865,23.824 29.441,23.999 28.999,23.999C28.557,23.999 28.133,23.824 27.82,23.511C27.508,23.199 27.332,22.775 27.332,22.333C27.332,21.891 27.508,21.467 27.82,21.154C28.133,20.842 28.557,20.666 28.999,20.666C29.441,20.666 29.865,20.842 30.177,21.154C30.49,21.467 30.665,21.891 30.665,22.333Z" fill="#010101"/>
</svg>
