<svg width="40" height="40" viewBox="0 0 40 40" fill="none" xmlns="http://www.w3.org/2000/svg" xmlns:xlink="http://www.w3.org/1999/xlink">
<line x1="5" y1="8.5" x2="35" y2="8.5" stroke="#010101" stroke-width="1.5" stroke-miterlimit="3.999327" stroke-linecap="round" stroke-linejoin="round"/>
<path d="M33.167,10.001C33.167,9.172 32.495,8.501 31.667,8.501C30.838,8.501 30.167,9.172 30.167,10.001L33.167,10.001ZM8.333,33.334L6.833,33.334L8.333,33.334ZM9.833,10.001C9.833,9.172 9.162,8.501 8.333,8.501C7.505,8.501 6.833,9.172 6.833,10.001L9.833,10.001ZM11.833,10.001C11.833,10.829 12.505,11.501 13.333,11.501C14.162,11.501 14.833,10.829 14.833,10.001L11.833,10.001ZM16.667,3.334L16.667,1.834L16.667,3.334ZM23.333,3.334L23.333,1.834L23.333,3.334ZM25.167,10.001C25.167,10.829 25.838,11.501 26.667,11.501C27.495,11.501 28.167,10.829 28.167,10.001L25.167,10.001ZM30.167,10.001L30.167,33.334L33.167,33.334L33.167,10.001L30.167,10.001ZM30.167,33.334C30.167,33.82 29.974,34.287 29.63,34.63L31.751,36.752C32.658,35.845 33.167,34.616 33.167,33.334L30.167,33.334ZM29.63,34.63C29.286,34.974 28.82,35.167 28.333,35.167L28.333,38.167C29.615,38.167 30.845,37.658 31.751,36.752L29.63,34.63ZM28.333,35.167L11.667,35.167L11.667,38.167L28.333,38.167L28.333,35.167ZM11.667,35.167C11.18,35.167 10.714,34.974 10.37,34.63L8.249,36.752C9.155,37.658 10.385,38.167 11.667,38.167L11.667,35.167ZM10.37,34.63C10.027,34.287 9.833,33.82 9.833,33.334L6.833,33.334C6.833,34.616 7.343,35.845 8.249,36.752L10.37,34.63ZM9.833,33.334L9.833,10.001L6.833,10.001L6.833,33.334L9.833,33.334ZM14.833,10.001L14.833,6.667L11.833,6.667L11.833,10.001L14.833,10.001ZM14.833,6.667C14.833,6.181 15.027,5.715 15.37,5.371L13.249,3.25C12.343,4.156 11.833,5.385 11.833,6.667L14.833,6.667ZM15.37,5.371C15.714,5.027 16.18,4.834 16.667,4.834L16.667,1.834C15.385,1.834 14.155,2.343 13.249,3.25L15.37,5.371ZM16.667,4.834L23.333,4.834L23.333,1.834L16.667,1.834L16.667,4.834ZM23.333,4.834C23.82,4.834 24.286,5.027 24.63,5.371L26.751,3.25C25.845,2.343 24.615,1.834 23.333,1.834L23.333,4.834ZM24.63,5.371C24.974,5.715 25.167,6.181 25.167,6.667L28.167,6.667C28.167,5.385 27.657,4.156 26.751,3.25L24.63,5.371ZM25.167,6.667L25.167,10.001L28.167,10.001L28.167,6.667L25.167,6.667Z" fill="#010101"/>
<line x1="15.167" y1="18.334" x2="15.167" y2="28.334" stroke="#010101" stroke-width="1.5" stroke-miterlimit="3.999327" stroke-linecap="round" stroke-linejoin="round"/>
<line x1="21.833" y1="18.334" x2="21.833" y2="28.334" stroke="#010101" stroke-width="1.5" stroke-miterlimit="3.999327" stroke-linecap="round" stroke-linejoin="round"/>
</svg>
