<svg width="42" height="64" viewBox="0 0 42 64" fill="none" xmlns="http://www.w3.org/2000/svg" xmlns:xlink="http://www.w3.org/1999/xlink">
<path d="M-0.327,31.183C-0.327,34.94 0.44,38.275 1.973,41.188C3.526,44.102 5.682,46.44 8.442,48.203C11.202,49.947 14.413,50.973 18.074,51.279L18.074,57.978L7.407,57.978C6.794,57.978 6.276,58.189 5.855,58.611C5.433,59.032 5.222,59.55 5.222,60.163C5.222,60.757 5.433,61.265 5.855,61.687C6.276,62.109 6.794,62.32 7.407,62.32L33.081,62.32C33.695,62.32 34.212,62.109 34.634,61.687C35.055,61.265 35.266,60.757 35.266,60.163C35.266,59.55 35.055,59.032 34.634,58.611C34.212,58.189 33.695,57.978 33.081,57.978L22.415,57.978L22.415,51.279C26.076,50.973 29.286,49.947 32.046,48.203C34.806,46.44 36.953,44.102 38.486,41.188C40.039,38.275 40.815,34.94 40.815,31.183L40.815,25.347C40.815,24.753 40.604,24.245 40.183,23.823C39.761,23.401 39.253,23.19 38.659,23.19C38.045,23.19 37.528,23.401 37.106,23.823C36.685,24.245 36.474,24.753 36.474,25.347L36.474,31.011C36.474,34.269 35.803,37.125 34.461,39.578C33.12,42.031 31.232,43.939 28.797,45.299C26.382,46.641 23.536,47.312 20.259,47.312C16.981,47.312 14.125,46.641 11.691,45.299C9.257,43.939 7.369,42.031 6.027,39.578C4.685,37.125 4.015,34.269 4.015,31.011L4.015,25.347C4.015,24.753 3.804,24.245 3.382,23.823C2.96,23.401 2.443,23.19 1.83,23.19C1.235,23.19 0.728,23.401 0.306,23.823C-0.116,24.245 -0.327,24.753 -0.327,25.347L-0.327,31.183ZM9.793,30.148C9.793,32.352 10.234,34.307 11.116,36.013C11.998,37.7 13.224,39.022 14.796,39.981C16.368,40.939 18.189,41.418 20.259,41.418C22.309,41.418 24.121,40.939 25.692,39.981C27.264,39.022 28.491,37.7 29.372,36.013C30.254,34.307 30.695,32.352 30.695,30.148L30.695,12.064C30.695,9.86 30.254,7.914 29.372,6.228C28.491,4.522 27.264,3.19 25.692,2.231C24.121,1.273 22.309,0.794 20.259,0.794C18.189,0.794 16.368,1.273 14.796,2.231C13.224,3.19 11.998,4.522 11.116,6.228C10.234,7.914 9.793,9.86 9.793,12.064L9.793,30.148ZM14.135,30.148L14.135,12.064C14.135,9.937 14.691,8.24 15.802,6.975C16.933,5.71 18.419,5.078 20.259,5.078C22.099,5.078 23.574,5.71 24.686,6.975C25.798,8.24 26.354,9.937 26.354,12.064L26.354,30.148C26.354,32.276 25.798,33.972 24.686,35.237C23.574,36.502 22.099,37.134 20.259,37.134C18.419,37.134 16.933,36.502 15.802,35.237C14.691,33.972 14.135,32.276 14.135,30.148Z" fill="#969696"/>
</svg>
