<svg width="42" height="64" viewBox="0 0 42 64" fill="none" xmlns="http://www.w3.org/2000/svg" xmlns:xlink="http://www.w3.org/1999/xlink">
<path d="M-0.326,31.184C-0.326,34.941 0.441,38.276 1.974,41.189C3.526,44.103 5.683,46.441 8.443,48.204C11.203,49.948 14.413,50.974 18.074,51.28L18.074,57.979L7.408,57.979C6.794,57.979 6.277,58.19 5.855,58.612C5.433,59.033 5.223,59.551 5.223,60.164C5.223,60.758 5.433,61.266 5.855,61.688C6.277,62.11 6.794,62.321 7.408,62.321L33.082,62.321C33.695,62.321 34.212,62.11 34.634,61.688C35.056,61.266 35.267,60.758 35.267,60.164C35.267,59.551 35.056,59.033 34.634,58.612C34.212,58.19 33.695,57.979 33.082,57.979L22.415,57.979L22.415,51.28C26.076,50.974 29.287,49.948 32.047,48.204C34.807,46.441 36.953,44.103 38.487,41.189C40.039,38.276 40.815,34.941 40.815,31.184L40.815,25.348C40.815,24.754 40.605,24.246 40.183,23.824C39.761,23.402 39.253,23.191 38.659,23.191C38.046,23.191 37.528,23.402 37.107,23.824C36.685,24.246 36.474,24.754 36.474,25.348L36.474,31.012C36.474,34.27 35.803,37.126 34.462,39.579C33.12,42.032 31.232,43.94 28.798,45.3C26.383,46.642 23.537,47.313 20.259,47.313C16.981,47.313 14.126,46.642 11.691,45.3C9.257,43.94 7.369,42.032 6.028,39.579C4.686,37.126 4.015,34.27 4.015,31.012L4.015,25.348C4.015,24.754 3.804,24.246 3.383,23.824C2.961,23.402 2.443,23.191 1.83,23.191C1.236,23.191 0.728,23.402 0.306,23.824C-0.115,24.246 -0.326,24.754 -0.326,25.348L-0.326,31.184ZM9.794,30.149C9.794,32.353 10.235,34.308 11.116,36.014C11.998,37.701 13.225,39.023 14.796,39.982C16.368,40.94 18.189,41.419 20.259,41.419C22.31,41.419 24.121,40.94 25.693,39.982C27.264,39.023 28.491,37.701 29.373,36.014C30.255,34.308 30.695,32.353 30.695,30.149L30.695,12.065C30.695,9.861 30.255,7.915 29.373,6.229C28.491,4.523 27.264,3.191 25.693,2.232C24.121,1.274 22.31,0.795 20.259,0.795C18.189,0.795 16.368,1.274 14.796,2.232C13.225,3.191 11.998,4.523 11.116,6.229C10.235,7.915 9.794,9.861 9.794,12.065L9.794,30.149ZM14.135,30.149L14.135,12.065C14.135,9.938 14.691,8.241 15.803,6.976C16.934,5.711 18.419,5.079 20.259,5.079C22.099,5.079 23.575,5.711 24.687,6.976C25.798,8.241 26.354,9.938 26.354,12.065L26.354,30.149C26.354,32.277 25.798,33.973 24.687,35.238C23.575,36.503 22.099,37.135 20.259,37.135C18.419,37.135 16.934,36.503 15.803,35.238C14.691,33.973 14.135,32.277 14.135,30.149Z" fill="#969696"/>
</svg>
