<svg width="60" height="60" viewBox="0 0 60 60" fill="none" xmlns="http://www.w3.org/2000/svg" xmlns:xlink="http://www.w3.org/1999/xlink">
<path d="M29.675,59.625C33.681,59.625 37.447,58.858 40.974,57.325C44.52,55.792 47.644,53.674 50.346,50.971C53.049,48.269 55.167,45.154 56.7,41.627C58.233,38.082 59,34.306 59,30.3C59,26.294 58.233,22.528 56.7,19.001C55.167,15.455 53.049,12.331 50.346,9.628C47.644,6.926 44.52,4.808 40.974,3.275C37.428,1.741 33.652,0.975 29.646,0.975C25.64,0.975 21.864,1.741 18.319,3.275C14.792,4.808 11.677,6.926 8.975,9.628C6.291,12.331 4.183,15.455 2.65,19.001C1.116,22.528 0.35,26.294 0.35,30.3C0.35,34.306 1.116,38.082 2.65,41.627C4.183,45.154 6.301,48.269 9.003,50.971C11.706,53.674 14.821,55.792 18.347,57.325C21.893,58.858 25.669,59.625 29.675,59.625ZM29.675,54.738C26.282,54.738 23.11,54.105 20.159,52.84C17.207,51.575 14.61,49.831 12.367,47.608C10.144,45.365 8.4,42.768 7.135,39.816C5.889,36.865 5.266,33.692 5.266,30.3C5.266,26.907 5.889,23.735 7.135,20.784C8.4,17.832 10.144,15.235 12.367,12.992C14.591,10.75 17.178,9.006 20.13,7.76C23.081,6.495 26.254,5.862 29.646,5.862C33.039,5.862 36.211,6.495 39.162,7.76C42.114,9.006 44.711,10.75 46.954,12.992C49.196,15.235 50.95,17.832 52.215,20.784C53.48,23.735 54.113,26.907 54.113,30.3C54.113,33.692 53.48,36.865 52.215,39.816C50.969,42.768 49.225,45.365 46.983,47.608C44.759,49.831 42.162,51.575 39.191,52.84C36.24,54.105 33.067,54.738 29.675,54.738ZM29.646,49.994C32.119,49.994 34.438,49.572 36.604,48.729C38.77,47.885 40.696,46.735 42.383,45.279C44.088,43.803 45.478,42.116 46.551,40.219C47.625,38.302 48.295,36.27 48.564,34.124C48.679,33.261 48.487,32.648 47.989,32.284C47.51,31.9 46.887,31.824 46.12,32.054C43.341,32.859 40.619,33.491 37.955,33.951C35.291,34.392 32.521,34.612 29.646,34.612C26.79,34.612 24.03,34.392 21.366,33.951C18.702,33.491 15.971,32.859 13.172,32.054C12.425,31.824 11.802,31.9 11.303,32.284C10.824,32.648 10.642,33.261 10.757,34.124C11.026,36.27 11.696,38.302 12.77,40.219C13.843,42.116 15.223,43.803 16.91,45.279C18.596,46.735 20.523,47.885 22.689,48.729C24.854,49.572 27.174,49.994 29.646,49.994ZM29.646,41.081C27.346,41.081 24.998,40.928 22.602,40.621C20.206,40.295 17.887,39.855 15.645,39.299C15.242,38.666 14.888,38.015 14.581,37.344C14.293,36.673 14.073,35.983 13.92,35.274C16.277,35.945 18.798,36.491 21.481,36.912C24.164,37.315 26.886,37.516 29.646,37.516C32.425,37.516 35.147,37.315 37.811,36.912C40.495,36.491 43.025,35.945 45.401,35.274C45.248,35.983 45.018,36.673 44.711,37.344C44.424,38.015 44.079,38.666 43.676,39.299C41.434,39.855 39.115,40.295 36.719,40.621C34.323,40.928 31.965,41.081 29.646,41.081ZM21.107,27.741C22.027,27.741 22.832,27.377 23.522,26.649C24.212,25.901 24.557,24.952 24.557,23.802C24.557,22.652 24.212,21.704 23.522,20.956C22.832,20.209 22.027,19.835 21.107,19.835C20.206,19.835 19.411,20.209 18.721,20.956C18.05,21.704 17.715,22.652 17.715,23.802C17.715,24.952 18.05,25.901 18.721,26.649C19.411,27.377 20.206,27.741 21.107,27.741ZM38.156,27.741C39.076,27.741 39.872,27.377 40.542,26.649C41.232,25.901 41.577,24.952 41.577,23.802C41.577,22.652 41.232,21.704 40.542,20.956C39.872,20.209 39.076,19.835 38.156,19.835C37.255,19.835 36.46,20.209 35.77,20.956C35.099,21.704 34.764,22.652 34.764,23.802C34.764,24.952 35.099,25.901 35.77,26.649C36.46,27.377 37.255,27.741 38.156,27.741Z" fill="#969696"/>
</svg>
