<svg width="84" height="82" viewBox="0 0 84 82" fill="none" xmlns="http://www.w3.org/2000/svg" xmlns:xlink="http://www.w3.org/1999/xlink">
<path d="M66.828,16.172C69.127,13.873 69.148,10.104 66.543,8.158C60.428,3.587 53.123,0.791 45.437,0.144C35.785,-0.668 26.157,1.964 18.26,7.572C10.363,13.181 4.706,21.404 2.293,30.785C-0.12,40.165 0.865,50.098 5.076,58.821C9.286,67.544 16.448,74.495 25.294,78.442C34.14,82.389 44.097,83.076 53.401,80.383C62.705,77.689 70.755,71.789 76.124,63.727C80.4,57.308 82.755,49.849 82.982,42.218C83.079,38.967 80.115,36.639 76.884,37.009L76.884,37.009C73.653,37.378 71.396,40.316 71.112,43.556C70.686,48.402 69.054,53.098 66.323,57.199C62.496,62.945 56.758,67.151 50.126,69.071C43.495,70.991 36.397,70.501 30.092,67.688C23.788,64.875 18.682,59.92 15.681,53.702C12.68,47.485 11.978,40.405 13.698,33.719C15.418,27.033 19.45,21.171 25.079,17.174C30.708,13.176 37.57,11.3 44.45,11.879C49.36,12.292 54.052,13.936 58.111,16.618C60.824,18.411 64.528,18.472 66.828,16.172L66.828,16.172Z" fill="#FF1515"/>
<circle cx="42" cy="41" r="14.76" fill="#FF1515"/>
</svg>
