<svg width="60" height="46" viewBox="0 0 60 46" fill="none" xmlns="http://www.w3.org/2000/svg" xmlns:xlink="http://www.w3.org/1999/xlink">
<path d="M60,36.572C60,41.661 55.819,45.806 50.685,45.806L0,45.806L0,9.234C0,4.144 4.181,0 9.315,0L60,0L60,36.572Z" fill="#FFFFFF"/>
<path d="M43.497,27.192L47.347,27.192C47.458,27.192 47.714,27.156 47.824,27.156C48.558,27.01 49.181,26.356 49.181,25.447C49.181,24.575 48.558,23.92 47.824,23.739C47.714,23.702 47.494,23.702 47.348,23.702L43.497,23.702L43.497,27.192Z" fill="#00D215"/>
<path d="M46.907,3.09C43.24,3.09 40.232,6.035 40.232,9.706L40.232,16.577L49.658,16.577C49.878,16.577 50.135,16.577 50.318,16.614C52.445,16.723 54.022,17.813 54.022,19.704C54.022,21.194 52.959,22.467 50.978,22.721L50.978,22.794C53.142,22.939 54.792,24.139 54.792,25.993C54.792,27.992 52.959,29.301 50.538,29.301L40.196,29.301L40.196,42.752L49.988,42.752C53.655,42.752 56.663,39.807 56.663,36.135L56.663,3.09L46.907,3.09Z" fill="#00D215"/>
<path d="M48.704,20.14C48.704,19.267 48.081,18.685 47.347,18.576C47.274,18.576 47.091,18.54 46.981,18.54L43.497,18.54L43.497,21.739L46.981,21.739C47.091,21.739 47.311,21.739 47.348,21.703C48.081,21.594 48.705,21.012 48.705,20.14Z" fill="#00D215"/>
<path d="M10.012,3.09C6.345,3.09 3.337,6.035 3.337,9.706L3.337,26.029C5.208,26.938 7.152,27.52 9.095,27.52C11.406,27.52 12.653,26.138 12.653,24.248L12.653,16.541L18.374,16.541L18.374,24.211C18.374,27.192 16.504,29.628 10.159,29.628C6.308,29.628 3.301,28.792 3.301,28.792L3.301,42.716L13.093,42.716C16.76,42.716 19.768,39.771 19.768,36.099L19.768,3.09L10.012,3.09Z" fill="url(#pf_0_990_20247)"/>
<path d="M28.459,3.09C24.792,3.09 21.784,6.035 21.784,9.706L21.784,18.359C23.471,16.941 26.405,16.032 31.136,16.25C33.667,16.359 36.381,17.05 36.381,17.05L36.381,19.849C35.024,19.158 33.41,18.54 31.32,18.395C27.726,18.14 25.562,19.885 25.562,22.939C25.562,26.029 27.726,27.774 31.32,27.483C33.41,27.338 35.024,26.684 36.381,26.029L36.381,28.828C36.381,28.828 33.704,29.519 31.136,29.628C26.405,29.846 23.471,28.937 21.784,27.52L21.784,42.788L31.577,42.788C35.244,42.788 38.251,39.844 38.251,36.172L38.251,3.09L28.459,3.09Z" fill="url(#pf_0_990_20248)"/>
<defs>
<linearGradient id="pf_0_990_20247" x1="6.199" y1="1984.615" x2="1679.792" y2="1984.615" gradientUnits="userSpaceOnUse">
<stop stop-color="#1F286F"/>
<stop offset="0.475" stop-color="#004E94"/>
<stop offset="0.826" stop-color="#0066B1"/>
<stop offset="1" stop-color="#006FBC"/>
</linearGradient>
<linearGradient id="pf_0_990_20248" x1="12.299" y1="1984.599" x2="1637.759" y2="1984.599" gradientUnits="userSpaceOnUse">
<stop stop-color="#6C2C2F"/>
<stop offset="0.174" stop-color="#882730"/>
<stop offset="0.573" stop-color="#BE1833"/>
<stop offset="0.859" stop-color="#DC0436"/>
<stop offset="1" stop-color="#E60039"/>
</linearGradient>
</defs>
</svg>
