<svg width="48" height="50" viewBox="0 0 48 50" fill="none" xmlns="http://www.w3.org/2000/svg" xmlns:xlink="http://www.w3.org/1999/xlink">
<path d="M36.928,10.072C38.218,8.782 38.23,6.668 36.768,5.576C33.338,3.012 29.239,1.444 24.928,1.081C19.514,0.625 14.113,2.102 9.682,5.248C5.252,8.394 2.079,13.007 0.725,18.27C-0.628,23.532 -0.075,29.104 2.286,33.997C4.648,38.891 8.666,42.79 13.628,45.004C18.591,47.218 24.176,47.604 29.396,46.093C34.615,44.582 39.131,41.272 42.143,36.749C44.541,33.148 45.863,28.964 45.99,24.683C46.044,22.86 44.382,21.554 42.569,21.761L42.569,21.761C40.757,21.968 39.491,23.617 39.331,25.434C39.092,28.152 38.177,30.787 36.645,33.087C34.498,36.311 31.279,38.67 27.559,39.747C23.838,40.824 19.857,40.549 16.32,38.971C12.783,37.393 9.919,34.614 8.236,31.126C6.552,27.638 6.158,23.666 7.123,19.915C8.088,16.165 10.35,12.877 13.508,10.634C16.665,8.391 20.515,7.339 24.374,7.664C27.129,7.896 29.761,8.818 32.038,10.322C33.56,11.328 35.638,11.362 36.928,10.072L36.928,10.072Z" fill="#FF1515"/>
<circle cx="23" cy="24" r="8.28" fill="#FF1515"/>
</svg>
