<svg width="136" height="134" viewBox="0 0 136 134" fill="none" xmlns="http://www.w3.org/2000/svg" xmlns:xlink="http://www.w3.org/1999/xlink">
<path d="M108.572,26.428C112.33,22.67 112.364,16.512 108.108,13.331C98.114,5.862 86.176,1.292 73.617,0.236C57.844,-1.091 42.111,3.209 29.206,12.374C16.3,21.539 7.057,34.977 3.113,50.307C-0.831,65.636 0.78,81.867 7.66,96.122C14.54,110.377 26.245,121.736 40.7,128.186C55.155,134.635 71.427,135.759 86.631,131.357C101.835,126.956 114.99,117.314 123.764,104.139C130.751,93.65 134.6,81.46 134.971,68.99C135.128,63.678 130.286,59.874 125.006,60.478L125.006,60.478C119.726,61.082 116.038,65.883 115.573,71.177C114.877,79.096 112.21,86.771 107.747,93.472C101.493,102.862 92.117,109.735 81.28,112.872C70.442,116.009 58.844,115.209 48.541,110.612C38.238,106.014 29.895,97.918 24.991,87.757C20.088,77.597 18.939,66.028 21.75,55.102C24.561,44.175 31.15,34.597 40.348,28.064C49.547,21.532 60.761,18.467 72.004,19.412C80.027,20.087 87.694,22.774 94.327,27.157C98.761,30.086 104.815,30.185 108.572,26.428L108.572,26.428Z" fill="#FFFFFF"/>
<circle cx="68" cy="67" r="24.12" fill="#FFFFFF"/>
</svg>
