<svg width="48" height="48" viewBox="0 0 48 48" fill="none" xmlns="http://www.w3.org/2000/svg" xmlns:xlink="http://www.w3.org/1999/xlink">
<path d="M41,20L43,20L41,20ZM23,46L21.891,47.664C22.562,48.112 23.438,48.112 24.109,47.664L23,46ZM5,20L3,20L5,20ZM23,2L23,4L23,2ZM39,20C39,26.196 34.969,32.208 30.548,36.875C28.379,39.164 26.203,41.039 24.567,42.342C23.75,42.992 23.072,43.496 22.602,43.836C22.368,44.005 22.185,44.133 22.063,44.218C22.003,44.26 21.957,44.291 21.928,44.311C21.913,44.321 21.903,44.328 21.897,44.332C21.893,44.334 21.891,44.335 21.89,44.336C21.89,44.336 21.89,44.337 21.89,44.337C21.89,44.337 21.89,44.336 21.89,44.336C21.89,44.336 21.891,44.336 23,46C24.109,47.664 24.11,47.664 24.11,47.663C24.111,47.663 24.111,47.663 24.112,47.662C24.113,47.662 24.115,47.661 24.116,47.66C24.12,47.657 24.124,47.654 24.13,47.651C24.141,47.643 24.156,47.633 24.175,47.62C24.214,47.593 24.27,47.555 24.341,47.506C24.483,47.408 24.687,47.264 24.944,47.078C25.459,46.707 26.187,46.164 27.058,45.471C28.797,44.086 31.121,42.086 33.452,39.625C38.031,34.792 43,27.804 43,20L39,20ZM23,46C24.109,44.336 24.11,44.336 24.11,44.336C24.11,44.336 24.11,44.337 24.11,44.337C24.11,44.337 24.11,44.336 24.11,44.336C24.109,44.335 24.107,44.334 24.103,44.332C24.097,44.328 24.087,44.321 24.072,44.311C24.043,44.291 23.997,44.26 23.937,44.218C23.815,44.133 23.632,44.005 23.398,43.836C22.928,43.496 22.25,42.992 21.433,42.342C19.797,41.039 17.621,39.164 15.452,36.875C11.031,32.208 7,26.196 7,20L3,20C3,27.804 7.969,34.792 12.548,39.625C14.879,42.086 17.203,44.086 18.942,45.471C19.813,46.164 20.541,46.707 21.056,47.078C21.313,47.264 21.517,47.408 21.659,47.506C21.73,47.555 21.786,47.593 21.825,47.62C21.844,47.633 21.859,47.643 21.87,47.651C21.876,47.654 21.88,47.657 21.884,47.66C21.885,47.661 21.887,47.662 21.888,47.662C21.889,47.663 21.889,47.663 21.89,47.663C21.89,47.664 21.891,47.664 23,46ZM7,20C7,15.757 8.686,11.687 11.686,8.686L8.858,5.858C5.107,9.609 3,14.696 3,20L7,20ZM11.686,8.686C14.687,5.686 18.757,4 23,4L23,0C17.696,0 12.609,2.107 8.858,5.858L11.686,8.686ZM23,4C27.243,4 31.313,5.686 34.314,8.686L37.142,5.858C33.391,2.107 28.304,0 23,0L23,4ZM34.314,8.686C37.314,11.687 39,15.757 39,20L43,20C43,14.696 40.893,9.609 37.142,5.858L34.314,8.686Z" fill="#FF1515"/>
<path d="M27,20C27,22.209 25.209,24 23,24L23,28C27.418,28 31,24.418 31,20L27,20ZM23,24C20.791,24 19,22.209 19,20L15,20C15,24.418 18.582,28 23,28L23,24ZM19,20C19,17.791 20.791,16 23,16L23,12C18.582,12 15,15.582 15,20L19,20ZM23,16C25.209,16 27,17.791 27,20L31,20C31,15.582 27.418,12 23,12L23,16Z" fill="#FF1515"/>
</svg>
