<svg width="36" height="38" viewBox="0 0 36 38" fill="none" xmlns="http://www.w3.org/2000/svg" xmlns:xlink="http://www.w3.org/1999/xlink">
<path d="M31.5,15L33.5,15L33.5,15L31.5,15ZM18,34.5L16.891,36.164C17.562,36.612 18.438,36.612 19.109,36.164L18,34.5ZM4.5,15L2.5,15L2.5,15L4.5,15ZM18,1.5L18,3.5L18,1.5ZM29.5,15C29.5,19.446 26.594,23.833 23.298,27.312C21.691,29.008 20.078,30.398 18.864,31.365C18.258,31.847 17.756,32.221 17.409,32.471C17.236,32.597 17.102,32.691 17.013,32.752C16.969,32.783 16.936,32.805 16.915,32.819C16.905,32.826 16.897,32.831 16.893,32.834C16.891,32.835 16.89,32.836 16.89,32.837C16.889,32.837 16.889,32.837 16.889,32.837C16.89,32.837 16.89,32.836 16.89,32.836C16.89,32.836 16.891,32.836 18,34.5C19.109,36.164 19.11,36.164 19.11,36.163C19.111,36.163 19.111,36.163 19.112,36.163C19.113,36.162 19.114,36.161 19.115,36.16C19.118,36.158 19.122,36.156 19.126,36.153C19.135,36.147 19.147,36.139 19.162,36.128C19.193,36.108 19.236,36.078 19.29,36.041C19.399,35.965 19.555,35.856 19.751,35.714C20.142,35.431 20.695,35.02 21.355,34.494C22.672,33.445 24.434,31.929 26.202,30.063C29.656,26.417 33.5,21.054 33.5,15L29.5,15ZM18,34.5C19.109,32.836 19.11,32.836 19.11,32.836C19.11,32.836 19.11,32.837 19.111,32.837C19.111,32.837 19.111,32.837 19.11,32.837C19.11,32.836 19.109,32.835 19.107,32.834C19.103,32.831 19.095,32.826 19.085,32.819C19.064,32.805 19.031,32.783 18.987,32.752C18.898,32.691 18.764,32.597 18.591,32.471C18.244,32.221 17.742,31.847 17.136,31.365C15.922,30.398 14.309,29.008 12.702,27.312C9.406,23.833 6.5,19.446 6.5,15L2.5,15C2.5,21.054 6.344,26.417 9.798,30.063C11.566,31.929 13.328,33.445 14.645,34.494C15.305,35.02 15.858,35.431 16.249,35.714C16.445,35.856 16.601,35.965 16.71,36.041C16.764,36.078 16.807,36.108 16.838,36.128C16.853,36.139 16.865,36.147 16.874,36.153C16.878,36.156 16.882,36.158 16.885,36.16C16.886,36.161 16.887,36.162 16.888,36.163C16.889,36.163 16.889,36.163 16.89,36.163C16.89,36.164 16.891,36.164 18,34.5ZM6.5,15C6.5,11.95 7.712,9.025 9.868,6.868L7.04,4.04C4.133,6.947 2.5,10.889 2.5,15L6.5,15ZM9.868,6.868C12.025,4.712 14.95,3.5 18,3.5L18,-0.5C13.889,-0.5 9.947,1.133 7.04,4.04L9.868,6.868ZM18,3.5C21.05,3.5 23.975,4.712 26.132,6.868L28.96,4.04C26.053,1.133 22.111,-0.5 18,-0.5L18,3.5ZM26.132,6.868C28.288,9.025 29.5,11.95 29.5,15L33.5,15C33.5,10.889 31.867,6.947 28.96,4.04L26.132,6.868Z" fill="#E1E1E1"/>
<path d="M20.5,15C20.5,16.381 19.381,17.5 18,17.5L18,21.5C21.59,21.5 24.5,18.59 24.5,15L20.5,15ZM18,17.5C16.619,17.5 15.5,16.381 15.5,15L11.5,15C11.5,18.59 14.41,21.5 18,21.5L18,17.5ZM15.5,15C15.5,13.619 16.619,12.5 18,12.5L18,8.5C14.41,8.5 11.5,11.41 11.5,15L15.5,15ZM18,12.5C19.381,12.5 20.5,13.619 20.5,15L24.5,15C24.5,11.41 21.59,8.5 18,8.5L18,12.5Z" fill="#E1E1E1"/>
</svg>
