<svg width="40" height="42" viewBox="0 0 40 42" fill="none" xmlns="http://www.w3.org/2000/svg" xmlns:xlink="http://www.w3.org/1999/xlink">
<path d="M35,17.667L37,17.667L37,17.667L35,17.667ZM20,39.334L18.891,40.998C19.562,41.446 20.438,41.446 21.109,40.998L20,39.334ZM5,17.667L3,17.667L3,17.667L5,17.667ZM20,2.667L20,4.667L20,2.667ZM33,17.667C33,22.696 29.719,27.626 26.048,31.5C24.254,33.394 22.453,34.946 21.098,36.024C20.422,36.562 19.861,36.98 19.474,37.26C19.28,37.4 19.129,37.505 19.03,37.574C18.98,37.609 18.943,37.634 18.919,37.65C18.908,37.658 18.899,37.664 18.894,37.667C18.892,37.669 18.89,37.67 18.89,37.67C18.89,37.67 18.889,37.67 18.89,37.67C18.89,37.67 18.89,37.67 18.89,37.67C18.89,37.67 18.891,37.67 20,39.334C21.109,40.998 21.11,40.997 21.11,40.997C21.111,40.997 21.111,40.996 21.112,40.996C21.113,40.995 21.114,40.995 21.116,40.994C21.119,40.992 21.123,40.989 21.127,40.986C21.137,40.979 21.15,40.97 21.167,40.959C21.2,40.936 21.247,40.904 21.307,40.863C21.427,40.78 21.599,40.659 21.816,40.503C22.248,40.19 22.859,39.735 23.59,39.153C25.047,37.993 26.996,36.315 28.952,34.251C32.781,30.209 37,24.304 37,17.667L33,17.667ZM20,39.334C21.109,37.67 21.11,37.67 21.11,37.67C21.11,37.67 21.11,37.67 21.11,37.67C21.111,37.67 21.111,37.67 21.11,37.67C21.11,37.67 21.108,37.669 21.106,37.667C21.101,37.664 21.092,37.658 21.081,37.65C21.057,37.634 21.02,37.609 20.97,37.574C20.871,37.505 20.72,37.4 20.526,37.26C20.139,36.98 19.578,36.562 18.902,36.024C17.547,34.946 15.746,33.394 13.952,31.5C10.281,27.626 7,22.696 7,17.667L3,17.667C3,24.304 7.219,30.209 11.048,34.251C13.004,36.315 14.953,37.993 16.41,39.153C17.141,39.735 17.752,40.19 18.184,40.503C18.401,40.659 18.573,40.78 18.693,40.863C18.753,40.904 18.8,40.936 18.833,40.959C18.85,40.97 18.863,40.979 18.873,40.986C18.877,40.989 18.881,40.992 18.884,40.994C18.886,40.995 18.887,40.995 18.888,40.996C18.889,40.996 18.889,40.997 18.89,40.997C18.89,40.997 18.891,40.998 20,39.334ZM7,17.667C7,14.219 8.37,10.913 10.808,8.475L7.979,5.646C4.791,8.834 3,13.158 3,17.667L7,17.667ZM10.808,8.475C13.246,6.037 16.552,4.667 20,4.667L20,0.667C15.491,0.667 11.167,2.458 7.979,5.646L10.808,8.475ZM20,4.667C23.448,4.667 26.754,6.037 29.192,8.475L32.021,5.646C28.833,2.458 24.509,0.667 20,0.667L20,4.667ZM29.192,8.475C31.63,10.913 33,14.219 33,17.667L37,17.667C37,13.158 35.209,8.834 32.021,5.646L29.192,8.475Z" fill="#FFFFFF"/>
<path d="M23,17.667C23,19.324 21.657,20.667 20,20.667L20,24.667C23.866,24.667 27,21.533 27,17.667L23,17.667ZM20,20.667C18.343,20.667 17,19.324 17,17.667L13,17.667C13,21.533 16.134,24.667 20,24.667L20,20.667ZM17,17.667C17,16.01 18.343,14.667 20,14.667L20,10.667C16.134,10.667 13,13.801 13,17.667L17,17.667ZM20,14.667C21.657,14.667 23,16.01 23,17.667L27,17.667C27,13.801 23.866,10.667 20,10.667L20,14.667Z" fill="#FFFFFF"/>
</svg>
