<svg width="24" height="26" viewBox="0 0 24 26" fill="none" xmlns="http://www.w3.org/2000/svg" xmlns:xlink="http://www.w3.org/1999/xlink">
<path d="M21,11L22,11L21,11ZM12,24L11.445,24.832C11.781,25.056 12.219,25.056 12.555,24.832L12,24ZM3,11L2,11L3,11ZM12,2L12,3L12,2ZM20,11C20,14.098 17.984,17.104 15.774,19.437C14.689,20.582 13.601,21.519 12.783,22.171C12.375,22.496 12.036,22.748 11.801,22.918C11.684,23.003 11.593,23.067 11.532,23.109C11.501,23.13 11.479,23.145 11.464,23.155C11.457,23.16 11.451,23.164 11.448,23.166C11.447,23.167 11.446,23.168 11.445,23.168C11.445,23.168 11.445,23.168 11.445,23.168C11.445,23.168 11.445,23.168 11.445,23.168C11.445,23.168 11.445,23.168 12,24C12.555,24.832 12.555,24.832 12.555,24.832C12.555,24.832 12.556,24.831 12.556,24.831C12.557,24.831 12.557,24.83 12.558,24.83C12.56,24.829 12.562,24.827 12.565,24.825C12.57,24.822 12.578,24.816 12.588,24.81C12.607,24.797 12.635,24.778 12.67,24.753C12.741,24.704 12.844,24.632 12.972,24.539C13.229,24.353 13.594,24.082 14.029,23.735C14.899,23.043 16.061,22.043 17.226,20.813C19.516,18.396 22,14.902 22,11L20,11ZM12,24C12.555,23.168 12.555,23.168 12.555,23.168C12.555,23.168 12.555,23.168 12.555,23.168C12.555,23.168 12.555,23.168 12.555,23.168C12.554,23.168 12.553,23.167 12.552,23.166C12.549,23.164 12.543,23.16 12.536,23.155C12.521,23.145 12.499,23.13 12.468,23.109C12.407,23.067 12.316,23.003 12.199,22.918C11.964,22.748 11.625,22.496 11.217,22.171C10.399,21.519 9.311,20.582 8.226,19.437C6.016,17.104 4,14.098 4,11L2,11C2,14.902 4.484,18.396 6.774,20.813C7.939,22.043 9.101,23.043 9.971,23.735C10.406,24.082 10.771,24.353 11.028,24.539C11.156,24.632 11.259,24.704 11.33,24.753C11.365,24.778 11.393,24.797 11.412,24.81C11.422,24.816 11.43,24.822 11.435,24.825C11.438,24.827 11.44,24.829 11.442,24.83C11.443,24.83 11.443,24.831 11.444,24.831C11.444,24.831 11.445,24.832 11.445,24.832C11.445,24.832 11.445,24.832 12,24ZM4,11C4,8.878 4.843,6.843 6.343,5.343L4.929,3.929C3.054,5.804 2,8.348 2,11L4,11ZM6.343,5.343C7.843,3.843 9.878,3 12,3L12,1C9.348,1 6.804,2.054 4.929,3.929L6.343,5.343ZM12,3C14.122,3 16.157,3.843 17.657,5.343L19.071,3.929C17.196,2.054 14.652,1 12,1L12,3ZM17.657,5.343C19.157,6.843 20,8.878 20,11L22,11C22,8.348 20.946,5.804 19.071,3.929L17.657,5.343Z" fill="#010101"/>
<path d="M14,11C14,12.105 13.105,13 12,13L12,15C14.209,15 16,13.209 16,11L14,11ZM12,13C10.895,13 10,12.105 10,11L8,11C8,13.209 9.791,15 12,15L12,13ZM10,11C10,9.895 10.895,9 12,9L12,7C9.791,7 8,8.791 8,11L10,11ZM12,9C13.105,9 14,9.895 14,11L16,11C16,8.791 14.209,7 12,7L12,9Z" fill="#010101"/>
</svg>
