<svg width="48" height="50" viewBox="0 0 48 50" fill="none" xmlns="http://www.w3.org/2000/svg" xmlns:xlink="http://www.w3.org/1999/xlink">
<path d="M42,21L44,21L42,21ZM24,47L22.891,48.664C23.562,49.112 24.438,49.112 25.109,48.664L24,47ZM6,21L4,21L6,21ZM24,3L24,5L24,3ZM40,21C40,27.196 35.969,33.208 31.548,37.875C29.379,40.164 27.203,42.039 25.567,43.342C24.75,43.992 24.072,44.496 23.602,44.836C23.368,45.005 23.185,45.133 23.063,45.218C23.003,45.26 22.957,45.291 22.928,45.311C22.913,45.321 22.903,45.328 22.897,45.332C22.893,45.334 22.891,45.335 22.89,45.336C22.89,45.336 22.89,45.337 22.89,45.337C22.89,45.337 22.89,45.336 22.89,45.336C22.89,45.336 22.891,45.336 24,47C25.109,48.664 25.11,48.664 25.11,48.663C25.111,48.663 25.111,48.663 25.112,48.662C25.113,48.662 25.115,48.661 25.116,48.66C25.12,48.657 25.124,48.654 25.13,48.651C25.141,48.643 25.156,48.633 25.175,48.62C25.214,48.593 25.27,48.555 25.341,48.506C25.483,48.408 25.687,48.264 25.944,48.078C26.459,47.707 27.187,47.164 28.058,46.471C29.797,45.086 32.121,43.086 34.452,40.625C39.031,35.792 44,28.804 44,21L40,21ZM24,47C25.109,45.336 25.11,45.336 25.11,45.336C25.11,45.336 25.11,45.337 25.11,45.337C25.11,45.337 25.11,45.336 25.11,45.336C25.109,45.335 25.107,45.334 25.103,45.332C25.097,45.328 25.087,45.321 25.072,45.311C25.043,45.291 24.997,45.26 24.937,45.218C24.815,45.133 24.632,45.005 24.398,44.836C23.928,44.496 23.25,43.992 22.433,43.342C20.797,42.039 18.621,40.164 16.452,37.875C12.031,33.208 8,27.196 8,21L4,21C4,28.804 8.969,35.792 13.548,40.625C15.879,43.086 18.203,45.086 19.942,46.471C20.813,47.164 21.541,47.707 22.056,48.078C22.313,48.264 22.517,48.408 22.659,48.506C22.73,48.555 22.786,48.593 22.825,48.62C22.844,48.633 22.859,48.643 22.87,48.651C22.876,48.654 22.88,48.657 22.884,48.66C22.885,48.661 22.887,48.662 22.888,48.662C22.889,48.663 22.889,48.663 22.89,48.663C22.89,48.664 22.891,48.664 24,47ZM8,21C8,16.757 9.686,12.687 12.686,9.686L9.858,6.858C6.107,10.609 4,15.696 4,21L8,21ZM12.686,9.686C15.687,6.686 19.757,5 24,5L24,1C18.696,1 13.609,3.107 9.858,6.858L12.686,9.686ZM24,5C28.243,5 32.313,6.686 35.314,9.686L38.142,6.858C34.391,3.107 29.304,1 24,1L24,5ZM35.314,9.686C38.314,12.687 40,16.757 40,21L44,21C44,15.696 41.893,10.609 38.142,6.858L35.314,9.686Z" fill="#010101"/>
<path d="M28,21C28,23.209 26.209,25 24,25L24,29C28.418,29 32,25.418 32,21L28,21ZM24,25C21.791,25 20,23.209 20,21L16,21C16,25.418 19.582,29 24,29L24,25ZM20,21C20,18.791 21.791,17 24,17L24,13C19.582,13 16,16.582 16,21L20,21ZM24,17C26.209,17 28,18.791 28,21L32,21C32,16.582 28.418,13 24,13L24,17Z" fill="#010101"/>
</svg>
