<svg width="40" height="42" viewBox="0 0 40 42" fill="none" xmlns="http://www.w3.org/2000/svg" xmlns:xlink="http://www.w3.org/1999/xlink">
<path d="M35,17.667L37,17.667L37,17.667L35,17.667ZM20,39.333L18.891,40.997C19.562,41.445 20.438,41.445 21.109,40.997L20,39.333ZM5,17.667L3,17.667L3,17.667L5,17.667ZM20,2.667L20,4.667L20,2.667ZM33,17.667C33,22.696 29.719,27.625 26.048,31.499C24.254,33.393 22.453,34.945 21.098,36.024C20.422,36.562 19.861,36.979 19.474,37.259C19.28,37.399 19.129,37.505 19.03,37.574C18.98,37.608 18.943,37.634 18.919,37.65C18.908,37.658 18.899,37.663 18.894,37.667C18.892,37.668 18.89,37.669 18.89,37.67C18.89,37.67 18.889,37.67 18.89,37.67C18.89,37.67 18.89,37.67 18.89,37.67C18.89,37.669 18.891,37.669 20,39.333C21.109,40.997 21.11,40.997 21.11,40.997C21.111,40.996 21.111,40.996 21.112,40.996C21.113,40.995 21.114,40.994 21.116,40.993C21.119,40.991 21.123,40.989 21.127,40.985C21.137,40.979 21.15,40.97 21.167,40.959C21.2,40.936 21.247,40.904 21.307,40.862C21.427,40.779 21.599,40.658 21.816,40.502C22.248,40.19 22.859,39.735 23.59,39.153C25.047,37.992 26.996,36.315 28.952,34.25C32.781,30.208 37,24.304 37,17.667L33,17.667ZM20,39.333C21.109,37.669 21.11,37.669 21.11,37.67C21.11,37.67 21.11,37.67 21.11,37.67C21.111,37.67 21.111,37.67 21.11,37.67C21.11,37.669 21.108,37.668 21.106,37.667C21.101,37.663 21.092,37.658 21.081,37.65C21.057,37.634 21.02,37.608 20.97,37.574C20.871,37.505 20.72,37.399 20.526,37.259C20.139,36.979 19.578,36.562 18.902,36.024C17.547,34.945 15.746,33.393 13.952,31.499C10.281,27.625 7,22.696 7,17.667L3,17.667C3,24.304 7.219,30.208 11.048,34.25C13.004,36.315 14.953,37.992 16.41,39.153C17.141,39.735 17.752,40.19 18.184,40.502C18.401,40.658 18.573,40.779 18.693,40.862C18.753,40.904 18.8,40.936 18.833,40.959C18.85,40.97 18.863,40.979 18.873,40.985C18.877,40.989 18.881,40.991 18.884,40.993C18.886,40.994 18.887,40.995 18.888,40.996C18.889,40.996 18.889,40.996 18.89,40.997C18.89,40.997 18.891,40.997 20,39.333ZM7,17.667C7,14.219 8.37,10.912 10.808,8.474L7.979,5.646C4.791,8.834 3,13.158 3,17.667L7,17.667ZM10.808,8.474C13.246,6.036 16.552,4.667 20,4.667L20,0.667C15.491,0.667 11.167,2.458 7.979,5.646L10.808,8.474ZM20,4.667C23.448,4.667 26.754,6.036 29.192,8.474L32.021,5.646C28.833,2.458 24.509,0.667 20,0.667L20,4.667ZM29.192,8.474C31.63,10.912 33,14.219 33,17.667L37,17.667C37,13.158 35.209,8.834 32.021,5.646L29.192,8.474Z" fill="#FFFFFF"/>
<path d="M23,17.667C23,19.323 21.657,20.667 20,20.667L20,24.667C23.866,24.667 27,21.533 27,17.667L23,17.667ZM20,20.667C18.343,20.667 17,19.323 17,17.667L13,17.667C13,21.533 16.134,24.667 20,24.667L20,20.667ZM17,17.667C17,16.01 18.343,14.667 20,14.667L20,10.667C16.134,10.667 13,13.801 13,17.667L17,17.667ZM20,14.667C21.657,14.667 23,16.01 23,17.667L27,17.667C27,13.801 23.866,10.667 20,10.667L20,14.667Z" fill="#FFFFFF"/>
</svg>
