<svg width="48" height="48" viewBox="0 0 48 48" fill="none" xmlns="http://www.w3.org/2000/svg" xmlns:xlink="http://www.w3.org/1999/xlink">
<path d="M16.063,36C16.063,37.07 16.93,37.937 18,37.937C19.07,37.937 19.937,37.07 19.937,36L16.063,36ZM18,10L17.682,8.089C16.748,8.245 16.063,9.053 16.063,10L18,10ZM42,6L43.937,6C43.937,5.431 43.686,4.89 43.252,4.522C42.818,4.154 42.243,3.996 41.682,4.089L42,6ZM40.063,32C40.063,33.07 40.93,33.937 42,33.937C43.07,33.937 43.937,33.07 43.937,32L40.063,32ZM19.937,36L19.937,10L16.063,10L16.063,36L19.937,36ZM18.318,11.911L42.318,7.911L41.682,4.089L17.682,8.089L18.318,11.911ZM40.063,6L40.063,32L43.937,32L43.937,6L40.063,6Z" fill="#010101"/>
<path d="M16.063,36C16.063,38.244 14.244,40.063 12,40.063L12,43.937C16.383,43.937 19.937,40.383 19.937,36L16.063,36ZM12,40.063C9.756,40.063 7.937,38.244 7.937,36L4.063,36C4.063,40.383 7.617,43.937 12,43.937L12,40.063ZM7.937,36C7.937,33.756 9.756,31.937 12,31.937L12,28.063C7.617,28.063 4.063,31.617 4.063,36L7.937,36ZM12,31.937C14.244,31.937 16.063,33.756 16.063,36L19.937,36C19.937,31.617 16.383,28.063 12,28.063L12,31.937Z" fill="#010101"/>
<path d="M40.063,32C40.063,34.244 38.244,36.063 36,36.063L36,39.937C40.383,39.937 43.937,36.383 43.937,32L40.063,32ZM36,36.063C33.756,36.063 31.937,34.244 31.937,32L28.063,32C28.063,36.383 31.617,39.937 36,39.937L36,36.063ZM31.937,32C31.937,29.756 33.756,27.937 36,27.937L36,24.063C31.617,24.063 28.063,27.617 28.063,32L31.937,32ZM36,27.937C38.244,27.937 40.063,29.756 40.063,32L43.937,32C43.937,27.617 40.383,24.063 36,24.063L36,27.937Z" fill="#010101"/>
</svg>
