<svg width="34" height="34" viewBox="0 0 34 34" fill="none" xmlns="http://www.w3.org/2000/svg" xmlns:xlink="http://www.w3.org/1999/xlink">
<circle cx="16" cy="16.685" r="15.236" fill="#D68F30"/>
<path d="M1.799,20.643L1.799,22.2C1.958,22.612 2.136,23.018 2.33,23.411L2.33,20.643L1.799,20.643ZM3.536,23.573L3.536,25.443C3.749,25.743 3.969,26.038 4.2,26.322L4.2,23.573L3.536,23.573ZM5.836,26.017L5.836,28.033C6.094,28.264 6.36,28.485 6.633,28.697L6.633,26.017L5.836,26.017ZM8.668,27.874L8.668,30.041C8.928,30.185 9.194,30.32 9.465,30.45L9.465,27.874L8.668,27.874ZM11.879,29.056L11.879,31.351C12.142,31.425 12.408,31.491 12.676,31.552L12.676,29.056L11.879,29.056ZM15.638,29.465L15.638,31.911C15.757,31.914 15.877,31.919 15.999,31.919C16.145,31.919 16.291,31.911 16.435,31.908L16.435,29.465L15.638,29.465ZM19.396,29.037L19.396,31.534C19.665,31.473 19.93,31.404 20.193,31.329L20.193,29.037L19.396,29.037ZM22.6,27.839L22.6,30.418C22.871,30.288 23.136,30.147 23.397,30.001L23.397,27.839L22.6,27.839ZM25.423,25.966L25.423,28.649C25.697,28.436 25.963,28.212 26.22,27.98L26.22,25.966L25.423,25.966ZM28.507,23.515L27.843,23.515L27.843,26.264C28.074,25.977 28.298,25.682 28.507,25.379L28.507,23.515ZM30.234,20.574L29.703,20.574L29.703,23.347C29.897,22.946 30.075,22.535 30.234,22.117L30.234,20.574Z" fill="#BC6F00"/>
<circle cx="16" cy="15.314" r="15.236" fill="#FFF176"/>
<circle cx="16" cy="15.314" r="13.879" fill="#F2BC1A"/>
<path d="M2.094,15.847C1.996,14.019 2.312,12.165 2.949,10.428C3.613,8.696 4.631,7.095 5.913,5.735C8.49,3.009 12.23,1.429 15.999,1.41C19.768,1.431 23.511,3.009 26.082,5.737C27.368,7.095 28.383,8.699 29.047,10.428C29.687,12.168 30.003,14.019 29.902,15.847L29.849,15.847C29.844,14.024 29.483,12.219 28.786,10.534C28.089,8.851 27.07,7.32 25.788,6.027C24.504,4.734 22.979,3.707 21.298,3.004C19.619,2.303 17.817,1.942 15.997,1.942C14.176,1.942 12.374,2.303 10.695,3.004C9.015,3.707 7.489,4.734 6.206,6.027C4.922,7.32 3.903,8.851 3.207,10.534C2.51,12.219 2.15,14.024 2.144,15.847L2.094,15.847Z" fill="#E08F00"/>
<path d="M16,0.082C7.585,0.082 0.764,6.903 0.764,15.318C0.764,23.733 7.585,30.554 16,30.554C24.415,30.554 31.236,23.733 31.236,15.318C31.236,6.903 24.415,0.082 16,0.082ZM16,29.197C8.334,29.197 2.121,22.984 2.121,15.318C2.121,7.65 8.334,1.437 16,1.437C23.666,1.437 29.879,7.65 29.879,15.316C29.879,22.982 23.666,29.197 16,29.197Z" fill="#FFF176"/>
<path d="M9.092,4.672L9.429,5.716L10.529,5.296L10.529,5.716L9.639,6.361L9.979,6.983L9.979,7.405L9.092,6.76L8.202,7.405L8.202,6.983L8.542,6.361L7.655,5.716L7.655,5.296L8.752,5.716L9.092,4.672ZM4.847,10.664L5.187,11.708L6.284,11.289L6.284,11.708L5.397,12.354L5.737,12.978L5.737,13.398L4.847,12.752L3.96,13.398L3.96,12.978L4.3,12.354L3.41,11.708L3.41,11.289L4.51,11.708L4.847,10.664ZM4.722,18.051L5.062,19.095L6.159,18.676L6.159,19.095L5.272,19.741L5.612,20.365L5.612,20.785L4.722,20.139L3.835,20.785L3.835,20.365L4.175,19.741L3.285,19.095L3.285,18.676L4.385,19.095L4.722,18.051ZM9.254,23.916L9.594,24.96L10.691,24.541L10.691,24.96L9.804,25.606L10.144,26.227L10.144,26.65L9.254,26.004L8.367,26.65L8.367,26.227L8.707,25.606L7.817,24.96L7.817,24.541L8.916,24.96L9.254,23.916ZM22.91,4.672L22.572,5.716L21.472,5.296L21.472,5.716L22.362,6.361L22.022,6.983L22.022,7.405L22.91,6.76L23.799,7.405L23.799,6.983L23.459,6.361L24.347,5.716L24.347,5.296L23.25,5.716L22.91,4.672ZM27.154,10.664L26.814,11.708L25.717,11.289L25.717,11.708L26.604,12.354L26.264,12.978L26.264,13.398L27.154,12.752L28.041,13.398L28.041,12.978L27.701,12.354L28.591,11.708L28.591,11.289L27.492,11.708L27.154,10.664ZM27.279,18.051L26.939,19.095L25.842,18.676L25.842,19.095L26.729,19.741L26.389,20.365L26.389,20.785L27.279,20.139L28.166,20.785L28.166,20.365L27.826,19.741L28.716,19.095L28.716,18.676L27.616,19.095L27.279,18.051ZM22.747,23.916L22.407,24.96L21.31,24.541L21.31,24.96L22.198,25.606L21.858,26.227L21.858,26.65L22.747,26.004L23.635,26.65L23.635,26.227L23.295,25.606L24.185,24.96L24.185,24.541L23.085,24.96L22.747,23.916Z" fill="#D38200"/>
<path d="M22.748,23.493L23.085,24.536L24.185,24.536L23.295,25.182L23.635,26.226L22.748,25.58L21.858,26.226L22.198,25.182L21.311,24.536L22.408,24.536L22.748,23.493ZM27.279,17.63L27.616,18.674L28.716,18.674L27.826,19.32L28.166,20.364L27.279,19.718L26.389,20.364L26.729,19.32L25.842,18.674L26.939,18.674L27.279,17.63ZM27.154,10.243L27.492,11.287L28.591,11.287L27.701,11.933L28.041,12.976L27.154,12.331L26.264,12.976L26.604,11.933L25.717,11.287L26.814,11.287L27.154,10.243ZM22.91,4.248L23.25,5.292L24.347,5.292L23.459,5.937L23.799,6.981L22.91,6.336L22.022,6.981L22.362,5.937L21.473,5.292L22.572,5.292L22.91,4.248Z" fill="#FFF176"/>
<path d="M16.013,26.227L16.353,27.27L17.45,26.851L17.45,27.27L16.563,27.916L16.903,28.54L16.903,28.96L16.013,28.314L15.126,28.96L15.126,28.54L15.466,27.916L14.576,27.27L14.576,26.851L15.676,27.27L16.013,26.227Z" fill="#D38200"/>
<path d="M16.013,25.668L16.353,26.712L17.45,26.712L16.563,27.357L16.903,28.401L16.013,27.756L15.126,28.401L15.466,27.357L14.576,26.712L15.676,26.712L16.013,25.668Z" fill="#FFF176"/>
<path d="M16.013,2.424L16.353,3.468L17.45,3.048L17.45,3.468L16.563,4.113L16.903,4.737L16.903,5.157L16.013,4.512L15.126,5.157L15.126,4.737L15.466,4.113L14.576,3.468L14.576,3.048L15.676,3.468L16.013,2.424Z" fill="#D38200"/>
<path d="M16.014,2.004L16.354,3.048L17.451,3.048L16.564,3.693L16.904,4.737L16.014,4.092L15.127,4.737L15.467,3.693L14.577,3.048L15.677,3.048L16.014,2.004ZM9.254,23.493L8.916,24.537L7.817,24.537L8.707,25.182L8.367,26.226L9.254,25.581L10.144,26.226L9.804,25.182L10.691,24.537L9.594,24.537L9.254,23.493ZM4.722,17.631L4.385,18.675L3.285,18.675L4.175,19.32L3.835,20.364L4.722,19.718L5.612,20.364L5.272,19.32L6.159,18.675L5.062,18.675L4.722,17.631ZM4.847,10.244L4.51,11.288L3.41,11.288L4.3,11.933L3.96,12.977L4.847,12.331L5.737,12.977L5.397,11.933L6.284,11.288L5.187,11.288L4.847,10.244ZM9.092,4.248L8.752,5.292L7.655,5.292L8.542,5.938L8.202,6.982L9.092,6.336L9.979,6.982L9.639,5.938L10.529,5.292L9.429,5.292L9.092,4.248Z" fill="#FFF176"/>
<path d="M24.293,11.803C24.293,11.71 7.723,11.803 7.723,11.803L7.575,12.249L7.575,13.012C7.575,13.15 7.686,13.261 7.824,13.261L24.176,13.261C24.314,13.261 24.426,13.15 24.426,13.012L24.426,12.271L24.293,11.803ZM24.317,21.711L7.792,21.711L6.688,22.266L6.701,22.981C6.703,23.058 6.767,23.121 6.847,23.121L25.156,23.121C25.233,23.121 25.3,23.06 25.303,22.981L25.316,22.279L24.317,21.711Z" fill="#D38200"/>
<path d="M10.456,19.539L9.506,19.539C9.349,19.539 9.221,19.045 9.221,18.888L10.738,18.84C10.738,18.997 10.611,19.539 10.456,19.539ZM10.781,14.41L9.179,14.41C9.059,14.41 8.956,14.33 8.921,14.216L8.796,13.172L11.142,13.172L11.036,14.216C11.004,14.33 10.9,14.41 10.781,14.41ZM9.179,19.855L10.781,19.855C10.9,19.855 11.136,19.929 11.168,20.044C11.168,20.044 11.16,20.54 11.16,20.737C11.16,20.933 11.081,21.077 10.903,21.077L9.057,21.077C8.879,21.077 8.799,20.917 8.799,20.737C8.799,20.556 8.791,20.049 8.791,20.049C8.826,19.935 9.059,19.855 9.179,19.855ZM22.808,19.539L21.857,19.539C21.7,19.539 21.573,19.045 21.573,18.888L23.09,18.84C23.09,18.997 22.965,19.539 22.808,19.539ZM23.132,14.41L21.53,14.41C21.411,14.41 21.307,14.33 21.273,14.216L21.148,13.172L23.493,13.172L23.387,14.216C23.355,14.33 23.252,14.41 23.132,14.41ZM21.53,19.855L23.132,19.855C23.252,19.855 23.488,19.929 23.52,20.044C23.52,20.044 23.512,20.54 23.512,20.737C23.512,20.933 23.432,21.077 23.254,21.077L21.408,21.077C21.23,21.077 21.151,20.917 21.151,20.737C21.151,20.556 21.143,20.049 21.143,20.049C21.177,19.935 21.411,19.855 21.53,19.855ZM18.691,19.539L17.74,19.539C17.583,19.539 17.456,19.045 17.456,18.888L18.972,18.84C18.972,18.997 18.848,19.539 18.691,19.539ZM19.015,14.41L17.413,14.41C17.294,14.41 17.19,14.33 17.156,14.216L17.031,13.172L19.376,13.172L19.27,14.216C19.238,14.33 19.134,14.41 19.015,14.41ZM17.413,19.855L19.015,19.855C19.134,19.855 19.371,19.929 19.403,20.044C19.403,20.044 19.395,20.54 19.395,20.737C19.395,20.933 19.315,21.077 19.137,21.077L17.291,21.077C17.113,21.077 17.033,20.917 17.033,20.737C17.033,20.556 17.025,20.049 17.025,20.049C17.06,19.935 17.294,19.855 17.413,19.855ZM14.574,19.539L13.623,19.539C13.466,19.539 13.339,19.045 13.339,18.888L14.855,18.84C14.855,18.997 14.73,19.539 14.574,19.539ZM14.898,14.41L13.296,14.41C13.176,14.41 13.073,14.33 13.038,14.216L12.914,13.172L15.259,13.172L15.153,14.216C15.121,14.33 15.017,14.41 14.898,14.41ZM13.296,19.855L14.898,19.855C15.017,19.855 15.254,19.929 15.286,20.044C15.286,20.044 15.278,20.54 15.278,20.737C15.278,20.933 15.198,21.077 15.02,21.077L13.174,21.077C12.996,21.077 12.916,20.917 12.916,20.737C12.916,20.556 12.908,20.049 12.908,20.049C12.943,19.935 13.176,19.855 13.296,19.855Z" fill="#D38200"/>
<path d="M24.412,11.091C24.412,10.998 24.364,10.91 24.293,10.868L16.01,6.166L7.718,10.862C7.638,10.91 7.588,10.998 7.588,11.091L7.574,12.251C7.574,12.398 7.694,12.517 7.84,12.517L24.157,12.517C24.303,12.517 24.423,12.398 24.423,12.251L24.412,11.091Z" fill="#FFF176"/>
<path d="M22.333,10.776L16,7.182L9.668,10.776L22.333,10.776Z" fill="#F2BC1A"/>
<path d="M20.003,10.336L16,8.063L11.997,10.336L20.003,10.336ZM23.807,20.786L8.194,20.786C8.04,20.786 7.894,20.852 7.79,20.967L6.717,22.165C6.642,22.247 6.701,22.377 6.812,22.377L25.188,22.377C25.297,22.377 25.356,22.247 25.284,22.165L24.208,20.967C24.107,20.852 23.959,20.786 23.807,20.786ZM22.808,19.057L21.857,19.057C21.701,19.057 21.573,18.929 21.573,18.772L21.573,14.528C21.573,14.371 21.701,14.244 21.857,14.244L22.808,14.244C22.965,14.244 23.093,14.371 23.093,14.528L23.093,18.775C23.093,18.932 22.965,19.057 22.808,19.057ZM23.135,13.928L21.533,13.928C21.414,13.928 21.31,13.848 21.276,13.734L21.154,13.311C21.103,13.141 21.233,12.971 21.411,12.971L23.257,12.971C23.435,12.971 23.563,13.141 23.515,13.311L23.393,13.734C23.358,13.848 23.252,13.928 23.135,13.928ZM21.531,19.375L23.132,19.375C23.252,19.375 23.356,19.455 23.39,19.569L23.512,19.992C23.563,20.162 23.433,20.332 23.255,20.332L21.409,20.332C21.231,20.332 21.103,20.162 21.151,19.992L21.273,19.569C21.308,19.452 21.414,19.375 21.531,19.375ZM10.457,19.057L9.506,19.057C9.349,19.057 9.222,18.929 9.222,18.772L9.222,14.528C9.222,14.371 9.349,14.244 9.506,14.244L10.457,14.244C10.614,14.244 10.741,14.371 10.741,14.528L10.741,18.775C10.738,18.932 10.611,19.057 10.457,19.057ZM10.781,13.928L9.179,13.928C9.06,13.928 8.956,13.848 8.922,13.734L8.799,13.311C8.749,13.141 8.879,12.971 9.057,12.971L10.903,12.971C11.081,12.971 11.209,13.141 11.161,13.311L11.039,13.734C11.004,13.848 10.9,13.928 10.781,13.928ZM9.179,19.375L10.781,19.375C10.9,19.375 11.004,19.455 11.039,19.569L11.161,19.992C11.211,20.162 11.081,20.332 10.903,20.332L9.057,20.332C8.879,20.332 8.752,20.162 8.799,19.992L8.922,19.569C8.956,19.452 9.06,19.375 9.179,19.375ZM14.574,19.057L13.623,19.057C13.466,19.057 13.339,18.929 13.339,18.772L13.339,14.528C13.339,14.371 13.466,14.244 13.623,14.244L14.574,14.244C14.731,14.244 14.858,14.371 14.858,14.528L14.858,18.775C14.858,18.85 14.827,18.922 14.774,18.974C14.721,19.027 14.649,19.057 14.574,19.057ZM14.898,13.928L13.296,13.928C13.177,13.928 13.073,13.848 13.039,13.734L12.917,13.311C12.866,13.141 12.996,12.971 13.174,12.971L15.02,12.971C15.198,12.971 15.326,13.141 15.278,13.311L15.156,13.734C15.121,13.848 15.018,13.928 14.898,13.928ZM13.296,19.375L14.898,19.375C15.018,19.375 15.121,19.455 15.156,19.569L15.278,19.992C15.328,20.162 15.198,20.332 15.02,20.332L13.174,20.332C12.996,20.332 12.869,20.162 12.917,19.992L13.039,19.569C13.073,19.452 13.177,19.375 13.296,19.375ZM18.691,19.057L17.74,19.057C17.584,19.057 17.456,18.929 17.456,18.772L17.456,14.528C17.456,14.371 17.584,14.244 17.74,14.244L18.691,14.244C18.848,14.244 18.975,14.371 18.975,14.528L18.975,18.775C18.975,18.85 18.944,18.922 18.891,18.974C18.838,19.027 18.766,19.057 18.691,19.057ZM19.015,13.928L17.414,13.928C17.294,13.928 17.19,13.848 17.156,13.734L17.034,13.311C16.983,13.141 17.113,12.971 17.291,12.971L19.137,12.971C19.315,12.971 19.443,13.141 19.395,13.311L19.273,13.734C19.238,13.848 19.135,13.928 19.015,13.928ZM17.414,19.375L19.015,19.375C19.135,19.375 19.238,19.455 19.273,19.569L19.395,19.992C19.446,20.162 19.315,20.332 19.137,20.332L17.291,20.332C17.113,20.332 16.986,20.162 17.034,19.992L17.156,19.569C17.19,19.452 17.297,19.375 17.414,19.375Z" fill="#FFF176"/>
</svg>
