<svg width="38" height="38" viewBox="0 0 38 38" fill="none" xmlns="http://www.w3.org/2000/svg" xmlns:xlink="http://www.w3.org/1999/xlink">
<circle cx="18.667" cy="18.766" r="17.029" fill="#D68F30"/>
<path d="M2.795,23.189L2.795,24.929C2.973,25.389 3.172,25.844 3.389,26.283L3.389,23.189L2.795,23.189ZM4.736,26.464L4.736,28.554C4.974,28.889 5.22,29.219 5.479,29.537L5.479,26.464L4.736,26.464ZM7.307,29.195L7.307,31.449C7.595,31.707 7.892,31.953 8.198,32.191L8.198,29.195L7.307,29.195ZM10.472,31.27L10.472,33.693C10.763,33.853 11.06,34.005 11.363,34.15L11.363,31.27L10.472,31.27ZM14.061,32.592L14.061,35.157C14.355,35.24 14.652,35.314 14.952,35.382L14.952,32.592L14.061,32.592ZM18.262,33.049L18.262,35.783C18.396,35.786 18.529,35.792 18.666,35.792C18.829,35.792 18.992,35.783 19.153,35.78L19.153,33.049L18.262,33.049ZM22.463,32.571L22.463,35.361C22.763,35.293 23.06,35.216 23.354,35.133L23.354,32.571L22.463,32.571ZM26.043,31.232L26.043,34.114C26.346,33.969 26.643,33.812 26.934,33.648L26.934,31.232L26.043,31.232ZM29.199,29.139L29.199,32.137C29.505,31.898 29.802,31.649 30.09,31.389L30.09,29.139L29.199,29.139ZM32.646,26.399L31.904,26.399L31.904,29.471C32.162,29.151 32.411,28.821 32.646,28.483L32.646,26.399ZM34.575,23.112L33.982,23.112L33.982,26.212C34.198,25.763 34.397,25.303 34.575,24.837L34.575,23.112Z" fill="#BC6F00"/>
<circle cx="18.667" cy="17.234" r="17.029" fill="#FFF176"/>
<circle cx="18.666" cy="17.234" r="15.512" fill="#F2BC1A"/>
<path d="M3.125,17.829C3.015,15.786 3.369,13.714 4.081,11.772C4.823,9.837 5.96,8.046 7.394,6.526C10.274,3.481 14.454,1.714 18.667,1.693C22.879,1.717 27.062,3.481 29.936,6.529C31.373,8.046 32.507,9.84 33.249,11.772C33.964,13.717 34.318,15.786 34.205,17.829L34.146,17.829C34.14,15.791 33.736,13.774 32.958,11.891C32.178,10.01 31.04,8.299 29.606,6.853C28.172,5.409 26.467,4.261 24.589,3.475C22.712,2.691 20.698,2.287 18.664,2.287C16.629,2.287 14.615,2.691 12.738,3.475C10.86,4.261 9.155,5.409 7.721,6.853C6.286,8.298 5.148,10.009 4.369,11.891C3.591,13.774 3.187,15.791 3.182,17.829L3.125,17.829Z" fill="#E08F00"/>
<path d="M18.667,0.209C9.262,0.209 1.639,7.833 1.639,17.238C1.639,26.643 9.262,34.267 18.667,34.267C28.072,34.267 35.696,26.643 35.696,17.238C35.696,7.833 28.072,0.209 18.667,0.209ZM18.667,32.749C10.1,32.749 3.156,25.806 3.156,17.238C3.156,8.667 10.1,1.723 18.667,1.723C27.235,1.723 34.179,8.667 34.179,17.235C34.179,25.803 27.235,32.749 18.667,32.749Z" fill="#FFF176"/>
<path d="M10.945,5.338L11.322,6.505L12.551,6.036L12.551,6.505L11.556,7.226L11.936,7.921L11.936,8.393L10.945,7.671L9.95,8.393L9.95,7.921L10.33,7.226L9.339,6.505L9.339,6.036L10.565,6.505L10.945,5.338ZM6.201,12.035L6.581,13.202L7.807,12.733L7.807,13.202L6.815,13.924L7.195,14.621L7.195,15.09L6.201,14.369L5.209,15.09L5.209,14.621L5.589,13.924L4.595,13.202L4.595,12.733L5.824,13.202L6.201,12.035ZM6.061,20.291L6.441,21.458L7.667,20.989L7.667,21.458L6.676,22.18L7.056,22.877L7.056,23.346L6.061,22.625L5.07,23.346L5.07,22.877L5.45,22.18L4.455,21.458L4.455,20.989L5.684,21.458L6.061,20.291ZM11.126,26.846L11.506,28.013L12.732,27.544L12.732,28.013L11.74,28.735L12.12,29.429L12.12,29.901L11.126,29.18L10.134,29.901L10.134,29.429L10.514,28.735L9.52,28.013L9.52,27.544L10.749,28.013L11.126,26.846ZM26.388,5.338L26.011,6.505L24.782,6.036L24.782,6.505L25.777,7.226L25.397,7.921L25.397,8.393L26.388,7.671L27.383,8.393L27.383,7.921L27.003,7.226L27.994,6.505L27.994,6.036L26.768,6.505L26.388,5.338ZM31.132,12.035L30.752,13.202L29.526,12.733L29.526,13.202L30.518,13.924L30.138,14.621L30.138,15.09L31.132,14.369L32.124,15.09L32.124,14.621L31.744,13.924L32.738,13.202L32.738,12.733L31.509,13.202L31.132,12.035ZM31.272,20.291L30.892,21.458L29.666,20.989L29.666,21.458L30.657,22.18L30.277,22.877L30.277,23.346L31.272,22.625L32.263,23.346L32.263,22.877L31.883,22.18L32.878,21.458L32.878,20.989L31.649,21.458L31.272,20.291ZM26.207,26.846L25.827,28.013L24.601,27.544L24.601,28.013L25.593,28.735L25.213,29.429L25.213,29.901L26.207,29.18L27.199,29.901L27.199,29.429L26.819,28.735L27.813,28.013L27.813,27.544L26.584,28.013L26.207,26.846Z" fill="#D38200"/>
<path d="M26.208,26.375L26.585,27.542L27.814,27.542L26.819,28.263L27.199,29.43L26.208,28.708L25.213,29.43L25.593,28.263L24.602,27.542L25.828,27.542L26.208,26.375ZM31.272,19.823L31.649,20.989L32.878,20.989L31.884,21.711L32.264,22.878L31.272,22.156L30.278,22.878L30.658,21.711L29.666,20.989L30.892,20.989L31.272,19.823ZM31.133,11.567L31.51,12.733L32.739,12.733L31.744,13.455L32.124,14.622L31.133,13.9L30.138,14.622L30.518,13.455L29.527,12.733L30.753,12.733L31.133,11.567ZM26.389,4.866L26.769,6.033L27.995,6.033L27.003,6.754L27.383,7.921L26.389,7.2L25.397,7.921L25.777,6.754L24.783,6.033L26.012,6.033L26.389,4.866Z" fill="#FFF176"/>
<path d="M18.682,29.43L19.062,30.596L20.288,30.127L20.288,30.596L19.297,31.318L19.677,32.015L19.677,32.485L18.682,31.763L17.691,32.485L17.691,32.015L18.071,31.318L17.076,30.596L17.076,30.127L18.305,30.596L18.682,29.43Z" fill="#D38200"/>
<path d="M18.682,28.807L19.062,29.973L20.288,29.973L19.297,30.695L19.677,31.861L18.682,31.14L17.691,31.861L18.071,30.695L17.076,29.973L18.305,29.973L18.682,28.807Z" fill="#FFF176"/>
<path d="M18.682,2.827L19.062,3.994L20.288,3.525L20.288,3.994L19.297,4.715L19.677,5.413L19.677,5.882L18.682,5.161L17.691,5.882L17.691,5.413L18.071,4.715L17.076,3.994L17.076,3.525L18.305,3.994L18.682,2.827Z" fill="#D38200"/>
<path d="M18.681,2.357L19.061,3.524L20.287,3.524L19.296,4.246L19.676,5.412L18.681,4.691L17.69,5.412L18.07,4.246L17.075,3.524L18.304,3.524L18.681,2.357ZM11.126,26.375L10.749,27.541L9.52,27.541L10.514,28.263L10.134,29.429L11.126,28.708L12.12,29.429L11.74,28.263L12.732,27.541L11.506,27.541L11.126,26.375ZM6.061,19.823L5.684,20.989L4.455,20.989L5.45,21.711L5.07,22.877L6.061,22.156L7.056,22.877L6.676,21.711L7.667,20.989L6.441,20.989L6.061,19.823ZM6.201,11.566L5.824,12.733L4.595,12.733L5.589,13.455L5.209,14.621L6.201,13.9L7.195,14.621L6.815,13.455L7.807,12.733L6.581,12.733L6.201,11.566ZM10.945,4.866L10.565,6.033L9.339,6.033L10.33,6.754L9.95,7.921L10.945,7.199L11.936,7.921L11.556,6.754L12.551,6.033L11.322,6.033L10.945,4.866Z" fill="#FFF176"/>
<path d="M27.935,13.31C27.935,13.206 9.416,13.31 9.416,13.31L9.249,13.809L9.249,14.661C9.249,14.815 9.374,14.94 9.528,14.94L27.804,14.94C27.958,14.94 28.083,14.815 28.083,14.661L28.083,13.832L27.935,13.31ZM27.961,24.383L9.493,24.383L8.258,25.004L8.273,25.802C8.276,25.888 8.347,25.96 8.436,25.96L28.9,25.96C28.986,25.96 29.06,25.891 29.063,25.802L29.078,25.019L27.961,24.383Z" fill="#D38200"/>
<path d="M12.469,21.954L11.406,21.954C11.231,21.954 11.088,21.402 11.088,21.227L12.784,21.173C12.784,21.348 12.641,21.954 12.469,21.954ZM12.831,16.221L11.041,16.221C10.907,16.221 10.791,16.132 10.753,16.005L10.613,14.838L13.235,14.838L13.116,16.005C13.08,16.132 12.965,16.221 12.831,16.221ZM11.041,22.307L12.831,22.307C12.965,22.307 13.229,22.39 13.264,22.518C13.264,22.518 13.256,23.073 13.256,23.293C13.256,23.513 13.166,23.673 12.968,23.673L10.904,23.673C10.705,23.673 10.616,23.495 10.616,23.293C10.616,23.091 10.607,22.524 10.607,22.524C10.646,22.396 10.907,22.307 11.041,22.307ZM26.274,21.954L25.211,21.954C25.036,21.954 24.893,21.402 24.893,21.227L26.588,21.173C26.588,21.348 26.449,21.954 26.274,21.954ZM26.636,16.221L24.846,16.221C24.712,16.221 24.596,16.132 24.558,16.005L24.418,14.838L27.039,14.838L26.921,16.005C26.885,16.132 26.769,16.221 26.636,16.221ZM24.846,22.307L26.636,22.307C26.769,22.307 27.034,22.39 27.069,22.518C27.069,22.518 27.06,23.073 27.06,23.293C27.06,23.513 26.971,23.673 26.772,23.673L24.709,23.673C24.51,23.673 24.421,23.495 24.421,23.293C24.421,23.091 24.412,22.524 24.412,22.524C24.451,22.396 24.712,22.307 24.846,22.307ZM21.672,21.954L20.609,21.954C20.434,21.954 20.291,21.402 20.291,21.227L21.987,21.173C21.987,21.348 21.847,21.954 21.672,21.954ZM22.034,16.221L20.244,16.221C20.11,16.221 19.995,16.132 19.956,16.005L19.816,14.838L22.438,14.838L22.319,16.005C22.284,16.132 22.168,16.221 22.034,16.221ZM20.244,22.307L22.034,22.307C22.168,22.307 22.432,22.39 22.468,22.518C22.468,22.518 22.459,23.073 22.459,23.293C22.459,23.513 22.37,23.673 22.171,23.673L20.107,23.673C19.909,23.673 19.819,23.495 19.819,23.293C19.819,23.091 19.811,22.524 19.811,22.524C19.849,22.396 20.11,22.307 20.244,22.307ZM17.07,21.954L16.008,21.954C15.832,21.954 15.69,21.402 15.69,21.227L17.385,21.173C17.385,21.348 17.246,21.954 17.07,21.954ZM17.433,16.221L15.642,16.221C15.509,16.221 15.393,16.132 15.354,16.005L15.215,14.838L17.836,14.838L17.718,16.005C17.682,16.132 17.566,16.221 17.433,16.221ZM15.642,22.307L17.433,22.307C17.566,22.307 17.83,22.39 17.866,22.518C17.866,22.518 17.857,23.073 17.857,23.293C17.857,23.513 17.768,23.673 17.569,23.673L15.506,23.673C15.307,23.673 15.218,23.495 15.218,23.293C15.218,23.091 15.209,22.524 15.209,22.524C15.248,22.396 15.509,22.307 15.642,22.307Z" fill="#D38200"/>
<path d="M28.069,12.514C28.069,12.41 28.015,12.312 27.935,12.264L18.679,7.01L9.41,12.259C9.321,12.312 9.265,12.41 9.265,12.514L9.25,13.811C9.25,13.974 9.384,14.108 9.547,14.108L27.784,14.108C27.947,14.108 28.081,13.974 28.081,13.811L28.069,12.514Z" fill="#FFF176"/>
<path d="M25.743,12.16L18.665,8.144L11.588,12.16L25.743,12.16Z" fill="#F2BC1A"/>
<path d="M23.141,11.671L18.667,9.13L14.193,11.671L23.141,11.671ZM27.392,23.35L9.942,23.35C9.77,23.35 9.606,23.424 9.49,23.552L8.291,24.891C8.208,24.983 8.273,25.128 8.398,25.128L28.936,25.128C29.058,25.128 29.123,24.983 29.043,24.891L27.84,23.552C27.727,23.424 27.561,23.35 27.392,23.35ZM26.276,21.418L25.213,21.418C25.038,21.418 24.895,21.275 24.895,21.1L24.895,16.356C24.895,16.181 25.038,16.038 25.213,16.038L26.276,16.038C26.451,16.038 26.593,16.181 26.593,16.356L26.593,21.103C26.593,21.278 26.451,21.418 26.276,21.418ZM26.641,15.685L24.851,15.685C24.717,15.685 24.601,15.596 24.563,15.468L24.426,14.996C24.37,14.806 24.515,14.616 24.714,14.616L26.777,14.616C26.976,14.616 27.119,14.806 27.065,14.996L26.929,15.468C26.89,15.596 26.772,15.685 26.641,15.685ZM24.848,21.774L26.638,21.774C26.772,21.774 26.887,21.863 26.926,21.991L27.062,22.463C27.119,22.653 26.973,22.843 26.775,22.843L24.711,22.843C24.512,22.843 24.37,22.653 24.423,22.463L24.56,21.991C24.598,21.86 24.717,21.774 24.848,21.774ZM12.471,21.418L11.408,21.418C11.233,21.418 11.091,21.275 11.091,21.1L11.091,16.356C11.091,16.181 11.233,16.038 11.408,16.038L12.471,16.038C12.646,16.038 12.789,16.181 12.789,16.356L12.789,21.103C12.786,21.278 12.643,21.418 12.471,21.418ZM12.833,15.685L11.043,15.685C10.91,15.685 10.794,15.596 10.755,15.468L10.619,14.996C10.562,14.806 10.708,14.616 10.907,14.616L12.97,14.616C13.169,14.616 13.311,14.806 13.258,14.996L13.121,15.468C13.083,15.596 12.967,15.685 12.833,15.685ZM11.043,21.774L12.833,21.774C12.967,21.774 13.083,21.863 13.121,21.991L13.258,22.463C13.314,22.653 13.169,22.843 12.97,22.843L10.907,22.843C10.708,22.843 10.565,22.653 10.619,22.463L10.755,21.991C10.794,21.86 10.91,21.774 11.043,21.774ZM17.073,21.418L16.01,21.418C15.835,21.418 15.692,21.275 15.692,21.1L15.692,16.356C15.692,16.181 15.835,16.038 16.01,16.038L17.073,16.038C17.248,16.038 17.39,16.181 17.39,16.356L17.39,21.103C17.39,21.187 17.356,21.267 17.296,21.326C17.237,21.384 17.156,21.418 17.073,21.418ZM17.435,15.685L15.645,15.685C15.511,15.685 15.395,15.596 15.357,15.468L15.22,14.996C15.164,14.806 15.309,14.616 15.508,14.616L17.571,14.616C17.77,14.616 17.913,14.806 17.859,14.996L17.723,15.468C17.684,15.596 17.568,15.685 17.435,15.685ZM15.645,21.774L17.435,21.774C17.568,21.774 17.684,21.863 17.723,21.991L17.859,22.463C17.916,22.653 17.77,22.843 17.571,22.843L15.508,22.843C15.309,22.843 15.167,22.653 15.22,22.463L15.357,21.991C15.395,21.86 15.511,21.774 15.645,21.774ZM21.674,21.418L20.611,21.418C20.436,21.418 20.294,21.275 20.294,21.1L20.294,16.356C20.294,16.181 20.436,16.038 20.611,16.038L21.674,16.038C21.849,16.038 21.992,16.181 21.992,16.356L21.992,21.103C21.991,21.187 21.957,21.267 21.898,21.326C21.838,21.384 21.758,21.418 21.674,21.418ZM22.036,15.685L20.246,15.685C20.113,15.685 19.997,15.596 19.958,15.468L19.822,14.996C19.765,14.806 19.911,14.616 20.11,14.616L22.173,14.616C22.372,14.616 22.514,14.806 22.461,14.996L22.324,15.468C22.286,15.596 22.17,15.685 22.036,15.685ZM20.246,21.774L22.036,21.774C22.17,21.774 22.286,21.863 22.324,21.991L22.461,22.463C22.517,22.653 22.372,22.843 22.173,22.843L20.11,22.843C19.911,22.843 19.768,22.653 19.822,22.463L19.958,21.991C19.997,21.86 20.116,21.774 20.246,21.774Z" fill="#FFF176"/>
</svg>
