<svg width="38" height="38" viewBox="0 0 38 38" fill="none" xmlns="http://www.w3.org/2000/svg" xmlns:xlink="http://www.w3.org/1999/xlink">
<circle cx="18.001" cy="19.766" r="17.029" fill="#D68F30"/>
<path d="M2.129,24.189L2.129,25.929C2.307,26.389 2.506,26.844 2.723,27.283L2.723,24.189L2.129,24.189ZM4.07,27.464L4.07,29.554C4.308,29.889 4.554,30.219 4.813,30.537L4.813,27.464L4.07,27.464ZM6.641,30.195L6.641,32.449C6.929,32.707 7.226,32.953 7.532,33.191L7.532,30.195L6.641,30.195ZM9.806,32.27L9.806,34.693C10.097,34.853 10.394,35.005 10.697,35.15L10.697,32.27L9.806,32.27ZM13.395,33.592L13.395,36.157C13.689,36.24 13.986,36.314 14.286,36.382L14.286,33.592L13.395,33.592ZM17.596,34.049L17.596,36.783C17.73,36.786 17.863,36.792 18,36.792C18.163,36.792 18.326,36.783 18.487,36.78L18.487,34.049L17.596,34.049ZM21.797,33.571L21.797,36.361C22.097,36.293 22.394,36.216 22.688,36.133L22.688,33.571L21.797,33.571ZM25.377,32.232L25.377,35.114C25.68,34.969 25.977,34.812 26.268,34.648L26.268,32.232L25.377,32.232ZM28.533,30.139L28.533,33.137C28.839,32.898 29.136,32.649 29.424,32.389L29.424,30.139L28.533,30.139ZM31.98,27.399L31.238,27.399L31.238,30.471C31.496,30.151 31.745,29.821 31.98,29.483L31.98,27.399ZM33.909,24.112L33.316,24.112L33.316,27.212C33.532,26.763 33.731,26.303 33.909,25.837L33.909,24.112Z" fill="#BC6F00"/>
<circle cx="18.001" cy="18.234" r="17.029" fill="#FFF176"/>
<circle cx="18" cy="18.234" r="15.512" fill="#F2BC1A"/>
<path d="M2.459,18.829C2.349,16.786 2.703,14.714 3.415,12.772C4.157,10.837 5.294,9.046 6.728,7.526C9.608,4.481 13.788,2.714 18.001,2.693C22.213,2.717 26.396,4.481 29.27,7.529C30.707,9.046 31.841,10.84 32.583,12.772C33.298,14.717 33.652,16.786 33.539,18.829L33.48,18.829C33.474,16.791 33.07,14.774 32.292,12.891C31.512,11.01 30.374,9.299 28.94,7.853C27.506,6.409 25.801,5.261 23.923,4.475C22.046,3.691 20.032,3.287 17.998,3.287C15.963,3.287 13.949,3.691 12.072,4.475C10.194,5.261 8.489,6.409 7.055,7.853C5.62,9.298 4.482,11.009 3.703,12.891C2.925,14.774 2.521,16.791 2.516,18.829L2.459,18.829Z" fill="#E08F00"/>
<path d="M18.001,1.209C8.596,1.209 0.973,8.833 0.973,18.238C0.973,27.643 8.596,35.267 18.001,35.267C27.406,35.267 35.03,27.643 35.03,18.238C35.03,8.833 27.406,1.209 18.001,1.209ZM18.001,33.749C9.434,33.749 2.49,26.806 2.49,18.238C2.49,9.667 9.434,2.723 18.001,2.723C26.569,2.723 33.513,9.667 33.513,18.235C33.513,26.803 26.569,33.749 18.001,33.749Z" fill="#FFF176"/>
<path d="M10.279,6.338L10.656,7.505L11.885,7.036L11.885,7.505L10.89,8.226L11.27,8.921L11.27,9.393L10.279,8.671L9.284,9.393L9.284,8.921L9.664,8.226L8.673,7.505L8.673,7.036L9.899,7.505L10.279,6.338ZM5.535,13.035L5.915,14.202L7.141,13.733L7.141,14.202L6.149,14.924L6.529,15.621L6.529,16.09L5.535,15.369L4.543,16.09L4.543,15.621L4.923,14.924L3.929,14.202L3.929,13.733L5.158,14.202L5.535,13.035ZM5.395,21.291L5.775,22.458L7.001,21.989L7.001,22.458L6.01,23.18L6.39,23.877L6.39,24.346L5.395,23.625L4.404,24.346L4.404,23.877L4.784,23.18L3.789,22.458L3.789,21.989L5.018,22.458L5.395,21.291ZM10.46,27.846L10.84,29.013L12.066,28.544L12.066,29.013L11.074,29.735L11.454,30.429L11.454,30.901L10.46,30.18L9.468,30.901L9.468,30.429L9.848,29.735L8.854,29.013L8.854,28.544L10.083,29.013L10.46,27.846ZM25.722,6.338L25.345,7.505L24.116,7.036L24.116,7.505L25.111,8.226L24.731,8.921L24.731,9.393L25.722,8.671L26.717,9.393L26.717,8.921L26.337,8.226L27.328,7.505L27.328,7.036L26.102,7.505L25.722,6.338ZM30.466,13.035L30.086,14.202L28.86,13.733L28.86,14.202L29.852,14.924L29.472,15.621L29.472,16.09L30.466,15.369L31.458,16.09L31.458,15.621L31.078,14.924L32.072,14.202L32.072,13.733L30.843,14.202L30.466,13.035ZM30.606,21.291L30.226,22.458L29,21.989L29,22.458L29.991,23.18L29.611,23.877L29.611,24.346L30.606,23.625L31.597,24.346L31.597,23.877L31.217,23.18L32.212,22.458L32.212,21.989L30.983,22.458L30.606,21.291ZM25.541,27.846L25.161,29.013L23.935,28.544L23.935,29.013L24.927,29.735L24.547,30.429L24.547,30.901L25.541,30.18L26.533,30.901L26.533,30.429L26.153,29.735L27.147,29.013L27.147,28.544L25.918,29.013L25.541,27.846Z" fill="#D38200"/>
<path d="M25.542,27.375L25.919,28.542L27.148,28.542L26.153,29.263L26.533,30.43L25.542,29.708L24.547,30.43L24.927,29.263L23.936,28.542L25.162,28.542L25.542,27.375ZM30.606,20.823L30.983,21.989L32.212,21.989L31.218,22.711L31.598,23.878L30.606,23.156L29.612,23.878L29.992,22.711L29,21.989L30.226,21.989L30.606,20.823ZM30.467,12.567L30.844,13.733L32.073,13.733L31.078,14.455L31.458,15.622L30.467,14.9L29.472,15.622L29.852,14.455L28.861,13.733L30.087,13.733L30.467,12.567ZM25.723,5.866L26.103,7.033L27.329,7.033L26.337,7.754L26.717,8.921L25.723,8.2L24.731,8.921L25.111,7.754L24.117,7.033L25.346,7.033L25.723,5.866Z" fill="#FFF176"/>
<path d="M18.016,30.43L18.396,31.596L19.622,31.127L19.622,31.596L18.631,32.318L19.011,33.015L19.011,33.485L18.016,32.763L17.025,33.485L17.025,33.015L17.405,32.318L16.41,31.596L16.41,31.127L17.639,31.596L18.016,30.43Z" fill="#D38200"/>
<path d="M18.016,29.807L18.396,30.973L19.622,30.973L18.631,31.695L19.011,32.861L18.016,32.14L17.025,32.861L17.405,31.695L16.41,30.973L17.639,30.973L18.016,29.807Z" fill="#FFF176"/>
<path d="M18.016,3.827L18.396,4.994L19.622,4.525L19.622,4.994L18.631,5.715L19.011,6.413L19.011,6.882L18.016,6.161L17.025,6.882L17.025,6.413L17.405,5.715L16.41,4.994L16.41,4.525L17.639,4.994L18.016,3.827Z" fill="#D38200"/>
<path d="M18.015,3.357L18.395,4.524L19.621,4.524L18.63,5.246L19.01,6.412L18.015,5.691L17.024,6.412L17.404,5.246L16.409,4.524L17.638,4.524L18.015,3.357ZM10.46,27.375L10.083,28.541L8.854,28.541L9.848,29.263L9.468,30.429L10.46,29.708L11.454,30.429L11.074,29.263L12.066,28.541L10.84,28.541L10.46,27.375ZM5.395,20.823L5.018,21.989L3.789,21.989L4.784,22.711L4.404,23.877L5.395,23.156L6.39,23.877L6.01,22.711L7.001,21.989L5.775,21.989L5.395,20.823ZM5.535,12.566L5.158,13.733L3.929,13.733L4.923,14.455L4.543,15.621L5.535,14.9L6.529,15.621L6.149,14.455L7.141,13.733L5.915,13.733L5.535,12.566ZM10.279,5.866L9.899,7.033L8.673,7.033L9.664,7.754L9.284,8.921L10.279,8.199L11.27,8.921L10.89,7.754L11.885,7.033L10.656,7.033L10.279,5.866Z" fill="#FFF176"/>
<path d="M27.269,14.31C27.269,14.206 8.75,14.31 8.75,14.31L8.583,14.809L8.583,15.661C8.583,15.815 8.708,15.94 8.862,15.94L27.138,15.94C27.292,15.94 27.417,15.815 27.417,15.661L27.417,14.832L27.269,14.31ZM27.295,25.383L8.827,25.383L7.592,26.004L7.607,26.802C7.61,26.888 7.681,26.96 7.77,26.96L28.234,26.96C28.32,26.96 28.394,26.891 28.397,26.802L28.412,26.019L27.295,25.383Z" fill="#D38200"/>
<path d="M11.803,22.954L10.74,22.954C10.565,22.954 10.422,22.402 10.422,22.227L12.118,22.173C12.118,22.348 11.975,22.954 11.803,22.954ZM12.165,17.221L10.375,17.221C10.241,17.221 10.125,17.132 10.087,17.005L9.947,15.838L12.569,15.838L12.45,17.005C12.414,17.132 12.299,17.221 12.165,17.221ZM10.375,23.307L12.165,23.307C12.299,23.307 12.563,23.39 12.598,23.518C12.598,23.518 12.59,24.073 12.59,24.293C12.59,24.513 12.5,24.673 12.302,24.673L10.238,24.673C10.039,24.673 9.95,24.495 9.95,24.293C9.95,24.091 9.941,23.524 9.941,23.524C9.98,23.396 10.241,23.307 10.375,23.307ZM25.608,22.954L24.545,22.954C24.37,22.954 24.227,22.402 24.227,22.227L25.922,22.173C25.922,22.348 25.783,22.954 25.608,22.954ZM25.97,17.221L24.18,17.221C24.046,17.221 23.93,17.132 23.892,17.005L23.752,15.838L26.373,15.838L26.255,17.005C26.219,17.132 26.103,17.221 25.97,17.221ZM24.18,23.307L25.97,23.307C26.103,23.307 26.368,23.39 26.403,23.518C26.403,23.518 26.394,24.073 26.394,24.293C26.394,24.513 26.305,24.673 26.106,24.673L24.043,24.673C23.844,24.673 23.755,24.495 23.755,24.293C23.755,24.091 23.746,23.524 23.746,23.524C23.785,23.396 24.046,23.307 24.18,23.307ZM21.006,22.954L19.943,22.954C19.768,22.954 19.625,22.402 19.625,22.227L21.321,22.173C21.321,22.348 21.181,22.954 21.006,22.954ZM21.368,17.221L19.578,17.221C19.444,17.221 19.329,17.132 19.29,17.005L19.15,15.838L21.772,15.838L21.653,17.005C21.618,17.132 21.502,17.221 21.368,17.221ZM19.578,23.307L21.368,23.307C21.502,23.307 21.766,23.39 21.802,23.518C21.802,23.518 21.793,24.073 21.793,24.293C21.793,24.513 21.704,24.673 21.505,24.673L19.441,24.673C19.243,24.673 19.153,24.495 19.153,24.293C19.153,24.091 19.145,23.524 19.145,23.524C19.183,23.396 19.444,23.307 19.578,23.307ZM16.404,22.954L15.342,22.954C15.166,22.954 15.024,22.402 15.024,22.227L16.719,22.173C16.719,22.348 16.58,22.954 16.404,22.954ZM16.767,17.221L14.976,17.221C14.843,17.221 14.727,17.132 14.688,17.005L14.549,15.838L17.17,15.838L17.052,17.005C17.016,17.132 16.9,17.221 16.767,17.221ZM14.976,23.307L16.767,23.307C16.9,23.307 17.164,23.39 17.2,23.518C17.2,23.518 17.191,24.073 17.191,24.293C17.191,24.513 17.102,24.673 16.903,24.673L14.84,24.673C14.641,24.673 14.552,24.495 14.552,24.293C14.552,24.091 14.543,23.524 14.543,23.524C14.582,23.396 14.843,23.307 14.976,23.307Z" fill="#D38200"/>
<path d="M27.403,13.514C27.403,13.41 27.349,13.312 27.269,13.264L18.013,8.01L8.744,13.259C8.655,13.312 8.599,13.41 8.599,13.514L8.584,14.811C8.584,14.974 8.718,15.108 8.881,15.108L27.118,15.108C27.281,15.108 27.415,14.974 27.415,14.811L27.403,13.514Z" fill="#FFF176"/>
<path d="M25.077,13.16L17.999,9.144L10.922,13.16L25.077,13.16Z" fill="#F2BC1A"/>
<path d="M22.475,12.671L18.001,10.13L13.527,12.671L22.475,12.671ZM26.726,24.35L9.276,24.35C9.103,24.35 8.94,24.424 8.824,24.552L7.625,25.891C7.542,25.983 7.607,26.128 7.732,26.128L28.27,26.128C28.391,26.128 28.457,25.983 28.377,25.891L27.174,24.552C27.061,24.424 26.895,24.35 26.726,24.35ZM25.61,22.418L24.547,22.418C24.372,22.418 24.229,22.275 24.229,22.1L24.229,17.356C24.229,17.181 24.372,17.038 24.547,17.038L25.61,17.038C25.785,17.038 25.927,17.181 25.927,17.356L25.927,22.103C25.927,22.278 25.785,22.418 25.61,22.418ZM25.975,16.685L24.185,16.685C24.051,16.685 23.935,16.596 23.897,16.468L23.76,15.996C23.704,15.806 23.849,15.616 24.048,15.616L26.111,15.616C26.31,15.616 26.453,15.806 26.399,15.996L26.263,16.468C26.224,16.596 26.106,16.685 25.975,16.685ZM24.182,22.774L25.972,22.774C26.106,22.774 26.221,22.863 26.26,22.991L26.396,23.463C26.453,23.653 26.307,23.843 26.108,23.843L24.045,23.843C23.846,23.843 23.704,23.653 23.757,23.463L23.894,22.991C23.932,22.86 24.051,22.774 24.182,22.774ZM11.805,22.418L10.742,22.418C10.567,22.418 10.425,22.275 10.425,22.1L10.425,17.356C10.425,17.181 10.567,17.038 10.742,17.038L11.805,17.038C11.98,17.038 12.123,17.181 12.123,17.356L12.123,22.103C12.12,22.278 11.977,22.418 11.805,22.418ZM12.167,16.685L10.377,16.685C10.243,16.685 10.128,16.596 10.089,16.468L9.953,15.996C9.896,15.806 10.042,15.616 10.241,15.616L12.304,15.616C12.503,15.616 12.645,15.806 12.592,15.996L12.455,16.468C12.417,16.596 12.301,16.685 12.167,16.685ZM10.377,22.774L12.167,22.774C12.301,22.774 12.417,22.863 12.455,22.991L12.592,23.463C12.648,23.653 12.503,23.843 12.304,23.843L10.241,23.843C10.042,23.843 9.899,23.653 9.953,23.463L10.089,22.991C10.128,22.86 10.243,22.774 10.377,22.774ZM16.407,22.418L15.344,22.418C15.169,22.418 15.026,22.275 15.026,22.1L15.026,17.356C15.026,17.181 15.169,17.038 15.344,17.038L16.407,17.038C16.582,17.038 16.724,17.181 16.724,17.356L16.724,22.103C16.723,22.187 16.69,22.267 16.63,22.326C16.571,22.384 16.49,22.418 16.407,22.418ZM16.769,16.685L14.979,16.685C14.845,16.685 14.729,16.596 14.691,16.468L14.554,15.996C14.498,15.806 14.643,15.616 14.842,15.616L16.905,15.616C17.104,15.616 17.247,15.806 17.193,15.996L17.057,16.468C17.018,16.596 16.902,16.685 16.769,16.685ZM14.979,22.774L16.769,22.774C16.902,22.774 17.018,22.863 17.057,22.991L17.193,23.463C17.25,23.653 17.104,23.843 16.905,23.843L14.842,23.843C14.643,23.843 14.501,23.653 14.554,23.463L14.691,22.991C14.729,22.86 14.845,22.774 14.979,22.774ZM21.008,22.418L19.945,22.418C19.77,22.418 19.628,22.275 19.628,22.1L19.628,17.356C19.628,17.181 19.77,17.038 19.945,17.038L21.008,17.038C21.183,17.038 21.326,17.181 21.326,17.356L21.326,22.103C21.325,22.187 21.291,22.267 21.232,22.326C21.172,22.384 21.092,22.418 21.008,22.418ZM21.37,16.685L19.58,16.685C19.447,16.685 19.331,16.596 19.292,16.468L19.156,15.996C19.099,15.806 19.245,15.616 19.444,15.616L21.507,15.616C21.706,15.616 21.848,15.806 21.795,15.996L21.658,16.468C21.62,16.596 21.504,16.685 21.37,16.685ZM19.58,22.774L21.37,22.774C21.504,22.774 21.62,22.863 21.658,22.991L21.795,23.463C21.851,23.653 21.706,23.843 21.507,23.843L19.444,23.843C19.245,23.843 19.102,23.653 19.156,23.463L19.292,22.991C19.331,22.86 19.45,22.774 19.58,22.774Z" fill="#FFF176"/>
</svg>
