<svg width="36" height="34" viewBox="0 0 36 34" fill="none" xmlns="http://www.w3.org/2000/svg" xmlns:xlink="http://www.w3.org/1999/xlink">
<circle cx="18" cy="16.685" r="15.236" fill="#D68F30"/>
<path d="M3.8,20.643L3.8,22.2C3.959,22.612 4.137,23.018 4.331,23.411L4.331,20.643L3.8,20.643ZM5.537,23.573L5.537,25.443C5.749,25.743 5.97,26.038 6.201,26.322L6.201,23.573L5.537,23.573ZM7.837,26.017L7.837,28.033C8.095,28.264 8.36,28.485 8.634,28.697L8.634,26.017L7.837,26.017ZM10.669,27.874L10.669,30.041C10.929,30.185 11.195,30.32 11.466,30.45L11.466,27.874L10.669,27.874ZM13.88,29.056L13.88,31.351C14.143,31.425 14.409,31.491 14.677,31.552L14.677,29.056L13.88,29.056ZM17.639,29.465L17.639,31.911C17.758,31.914 17.878,31.919 18,31.919C18.146,31.919 18.292,31.911 18.436,31.908L18.436,29.465L17.639,29.465ZM21.397,29.037L21.397,31.534C21.666,31.473 21.931,31.404 22.194,31.329L22.194,29.037L21.397,29.037ZM24.601,27.839L24.601,30.418C24.872,30.288 25.137,30.147 25.398,30.001L25.398,27.839L24.601,27.839ZM27.424,25.966L27.424,28.649C27.698,28.436 27.963,28.212 28.221,27.98L28.221,25.966L27.424,25.966ZM30.508,23.515L29.844,23.515L29.844,26.264C30.075,25.977 30.298,25.682 30.508,25.379L30.508,23.515ZM32.235,20.574L31.704,20.574L31.704,23.347C31.897,22.946 32.075,22.535 32.235,22.117L32.235,20.574Z" fill="#BC6F00"/>
<circle cx="18" cy="15.314" r="15.236" fill="#FFF176"/>
<circle cx="18" cy="15.314" r="13.879" fill="#F2BC1A"/>
<path d="M4.095,15.847C3.996,14.019 4.312,12.165 4.95,10.428C5.614,8.696 6.631,7.095 7.914,5.735C10.491,3.009 14.231,1.429 18,1.41C21.769,1.431 25.512,3.009 28.083,5.737C29.369,7.095 30.383,8.699 31.047,10.428C31.688,12.168 32.004,14.019 31.903,15.847L31.85,15.847C31.844,14.024 31.483,12.219 30.787,10.534C30.09,8.851 29.071,7.32 27.788,6.027C26.505,4.734 24.979,3.707 23.299,3.004C21.62,2.303 19.818,1.942 17.997,1.942C16.177,1.942 14.375,2.303 12.695,3.004C11.015,3.707 9.49,4.734 8.206,6.027C6.923,7.32 5.904,8.851 5.207,10.534C4.511,12.219 4.15,14.024 4.145,15.847L4.095,15.847Z" fill="#E08F00"/>
<path d="M18,0.082C9.585,0.082 2.764,6.903 2.764,15.318C2.764,23.733 9.585,30.554 18,30.554C26.415,30.554 33.236,23.733 33.236,15.318C33.236,6.903 26.415,0.082 18,0.082ZM18,29.197C10.334,29.197 4.121,22.984 4.121,15.318C4.121,7.65 10.334,1.437 18,1.437C25.666,1.437 31.879,7.65 31.879,15.316C31.879,22.982 25.666,29.197 18,29.197Z" fill="#FFF176"/>
<path d="M11.091,4.672L11.428,5.716L12.528,5.296L12.528,5.716L11.638,6.361L11.978,6.983L11.978,7.405L11.091,6.76L10.201,7.405L10.201,6.983L10.541,6.361L9.654,5.716L9.654,5.296L10.751,5.716L11.091,4.672ZM6.846,10.664L7.186,11.708L8.283,11.289L8.283,11.708L7.396,12.354L7.736,12.978L7.736,13.398L6.846,12.752L5.959,13.398L5.959,12.978L6.299,12.354L5.409,11.708L5.409,11.289L6.509,11.708L6.846,10.664ZM6.722,18.051L7.062,19.095L8.159,18.676L8.159,19.095L7.271,19.741L7.611,20.365L7.611,20.785L6.722,20.139L5.834,20.785L5.834,20.365L6.174,19.741L5.285,19.095L5.285,18.676L6.384,19.095L6.722,18.051ZM11.253,23.916L11.593,24.96L12.69,24.541L12.69,24.96L11.803,25.606L12.143,26.227L12.143,26.65L11.253,26.004L10.366,26.65L10.366,26.227L10.706,25.606L9.816,24.96L9.816,24.541L10.916,24.96L11.253,23.916ZM24.909,4.672L24.572,5.716L23.472,5.296L23.472,5.716L24.362,6.361L24.022,6.983L24.022,7.405L24.909,6.76L25.799,7.405L25.799,6.983L25.459,6.361L26.346,5.716L26.346,5.296L25.249,5.716L24.909,4.672ZM29.154,10.664L28.814,11.708L27.717,11.289L27.717,11.708L28.604,12.354L28.264,12.978L28.264,13.398L29.154,12.752L30.041,13.398L30.041,12.978L29.701,12.354L30.591,11.708L30.591,11.289L29.491,11.708L29.154,10.664ZM29.279,18.051L28.939,19.095L27.841,18.676L27.841,19.095L28.729,19.741L28.389,20.365L28.389,20.785L29.279,20.139L30.166,20.785L30.166,20.365L29.826,19.741L30.716,19.095L30.716,18.676L29.616,19.095L29.279,18.051ZM24.747,23.916L24.407,24.96L23.31,24.541L23.31,24.96L24.197,25.606L23.857,26.227L23.857,26.65L24.747,26.004L25.634,26.65L25.634,26.227L25.294,25.606L26.184,24.96L26.184,24.541L25.084,24.96L24.747,23.916Z" fill="#D38200"/>
<path d="M24.747,23.493L25.084,24.536L26.184,24.536L25.294,25.182L25.634,26.226L24.747,25.58L23.857,26.226L24.197,25.182L23.31,24.536L24.407,24.536L24.747,23.493ZM29.278,17.63L29.616,18.674L30.715,18.674L29.826,19.32L30.166,20.364L29.278,19.718L28.389,20.364L28.729,19.32L27.841,18.674L28.938,18.674L29.278,17.63ZM29.154,10.243L29.491,11.287L30.591,11.287L29.701,11.933L30.041,12.976L29.154,12.331L28.264,12.976L28.604,11.933L27.717,11.287L28.814,11.287L29.154,10.243ZM24.909,4.248L25.249,5.292L26.346,5.292L25.459,5.937L25.799,6.981L24.909,6.336L24.022,6.981L24.362,5.937L23.472,5.292L24.572,5.292L24.909,4.248Z" fill="#FFF176"/>
<path d="M18.013,26.227L18.353,27.27L19.45,26.851L19.45,27.27L18.563,27.916L18.903,28.54L18.903,28.96L18.013,28.314L17.126,28.96L17.126,28.54L17.466,27.916L16.576,27.27L16.576,26.851L17.676,27.27L18.013,26.227Z" fill="#D38200"/>
<path d="M18.013,25.668L18.353,26.712L19.45,26.712L18.563,27.357L18.903,28.401L18.013,27.756L17.126,28.401L17.466,27.357L16.576,26.712L17.676,26.712L18.013,25.668Z" fill="#FFF176"/>
<path d="M18.013,2.424L18.353,3.468L19.45,3.048L19.45,3.468L18.563,4.113L18.903,4.737L18.903,5.157L18.013,4.512L17.126,5.157L17.126,4.737L17.466,4.113L16.576,3.468L16.576,3.048L17.676,3.468L18.013,2.424Z" fill="#D38200"/>
<path d="M18.013,2.004L18.353,3.048L19.45,3.048L18.563,3.693L18.903,4.737L18.013,4.092L17.126,4.737L17.466,3.693L16.576,3.048L17.676,3.048L18.013,2.004ZM11.253,23.493L10.916,24.537L9.816,24.537L10.706,25.182L10.366,26.226L11.253,25.581L12.143,26.226L11.803,25.182L12.69,24.537L11.593,24.537L11.253,23.493ZM6.722,17.631L6.384,18.675L5.285,18.675L6.174,19.32L5.834,20.364L6.722,19.718L7.611,20.364L7.271,19.32L8.159,18.675L7.062,18.675L6.722,17.631ZM6.846,10.244L6.509,11.288L5.409,11.288L6.299,11.933L5.959,12.977L6.846,12.331L7.736,12.977L7.396,11.933L8.283,11.288L7.186,11.288L6.846,10.244ZM11.091,4.248L10.751,5.292L9.654,5.292L10.541,5.938L10.201,6.982L11.091,6.336L11.978,6.982L11.638,5.938L12.528,5.292L11.428,5.292L11.091,4.248Z" fill="#FFF176"/>
<path d="M26.293,11.803C26.293,11.71 9.723,11.803 9.723,11.803L9.574,12.249L9.574,13.012C9.574,13.15 9.686,13.261 9.824,13.261L26.176,13.261C26.314,13.261 26.426,13.15 26.426,13.012L26.426,12.271L26.293,11.803ZM26.317,21.711L9.792,21.711L8.687,22.266L8.7,22.981C8.703,23.058 8.767,23.121 8.847,23.121L27.156,23.121C27.233,23.121 27.3,23.06 27.302,22.981L27.315,22.279L26.317,21.711Z" fill="#D38200"/>
<path d="M12.456,19.539L11.505,19.539C11.349,19.539 11.221,19.045 11.221,18.888L12.738,18.84C12.738,18.997 12.61,19.539 12.456,19.539ZM12.78,14.41L11.179,14.41C11.059,14.41 10.956,14.33 10.921,14.216L10.796,13.172L13.142,13.172L13.035,14.216C13.004,14.33 12.9,14.41 12.78,14.41ZM11.179,19.855L12.78,19.855C12.9,19.855 13.136,19.929 13.168,20.044C13.168,20.044 13.16,20.54 13.16,20.737C13.16,20.933 13.081,21.077 12.903,21.077L11.057,21.077C10.879,21.077 10.799,20.917 10.799,20.737C10.799,20.556 10.791,20.049 10.791,20.049C10.825,19.935 11.059,19.855 11.179,19.855ZM24.808,19.539L23.857,19.539C23.7,19.539 23.573,19.045 23.573,18.888L25.09,18.84C25.09,18.997 24.965,19.539 24.808,19.539ZM25.132,14.41L23.53,14.41C23.411,14.41 23.307,14.33 23.273,14.216L23.148,13.172L25.493,13.172L25.387,14.216C25.355,14.33 25.252,14.41 25.132,14.41ZM23.53,19.855L25.132,19.855C25.252,19.855 25.488,19.929 25.52,20.044C25.52,20.044 25.512,20.54 25.512,20.737C25.512,20.933 25.432,21.077 25.254,21.077L23.408,21.077C23.23,21.077 23.15,20.917 23.15,20.737C23.15,20.556 23.142,20.049 23.142,20.049C23.177,19.935 23.411,19.855 23.53,19.855ZM20.691,19.539L19.74,19.539C19.583,19.539 19.456,19.045 19.456,18.888L20.972,18.84C20.972,18.997 20.847,19.539 20.691,19.539ZM21.015,14.41L19.413,14.41C19.294,14.41 19.19,14.33 19.155,14.216L19.031,13.172L21.376,13.172L21.27,14.216C21.238,14.33 21.134,14.41 21.015,14.41ZM19.413,19.855L21.015,19.855C21.134,19.855 21.371,19.929 21.403,20.044C21.403,20.044 21.395,20.54 21.395,20.737C21.395,20.933 21.315,21.077 21.137,21.077L19.291,21.077C19.113,21.077 19.033,20.917 19.033,20.737C19.033,20.556 19.025,20.049 19.025,20.049C19.06,19.935 19.294,19.855 19.413,19.855ZM16.574,19.539L15.623,19.539C15.466,19.539 15.338,19.045 15.338,18.888L16.855,18.84C16.855,18.997 16.73,19.539 16.574,19.539ZM16.898,14.41L15.296,14.41C15.176,14.41 15.073,14.33 15.038,14.216L14.913,13.172L17.259,13.172L17.153,14.216C17.121,14.33 17.017,14.41 16.898,14.41ZM15.296,19.855L16.898,19.855C17.017,19.855 17.254,19.929 17.285,20.044C17.285,20.044 17.277,20.54 17.277,20.737C17.277,20.933 17.198,21.077 17.02,21.077L15.174,21.077C14.996,21.077 14.916,20.917 14.916,20.737C14.916,20.556 14.908,20.049 14.908,20.049C14.943,19.935 15.176,19.855 15.296,19.855Z" fill="#D38200"/>
<path d="M26.412,11.091C26.412,10.998 26.365,10.91 26.293,10.868L18.011,6.166L9.718,10.862C9.638,10.91 9.588,10.998 9.588,11.091L9.574,12.251C9.574,12.398 9.694,12.517 9.84,12.517L26.157,12.517C26.303,12.517 26.423,12.398 26.423,12.251L26.412,11.091Z" fill="#FFF176"/>
<path d="M24.333,10.776L18,7.182L11.668,10.776L24.333,10.776Z" fill="#F2BC1A"/>
<path d="M22.003,10.336L18,8.063L13.997,10.336L22.003,10.336ZM25.807,20.786L10.193,20.786C10.039,20.786 9.893,20.852 9.79,20.967L8.716,22.165C8.642,22.247 8.7,22.377 8.812,22.377L27.188,22.377C27.297,22.377 27.355,22.247 27.284,22.165L26.208,20.967C26.107,20.852 25.958,20.786 25.807,20.786ZM24.808,19.057L23.857,19.057C23.7,19.057 23.573,18.929 23.573,18.772L23.573,14.528C23.573,14.371 23.7,14.244 23.857,14.244L24.808,14.244C24.965,14.244 25.092,14.371 25.092,14.528L25.092,18.775C25.092,18.932 24.965,19.057 24.808,19.057ZM25.135,13.928L23.533,13.928C23.413,13.928 23.31,13.848 23.275,13.734L23.153,13.311C23.103,13.141 23.233,12.971 23.411,12.971L25.257,12.971C25.435,12.971 25.562,13.141 25.515,13.311L25.392,13.734C25.358,13.848 25.252,13.928 25.135,13.928ZM23.53,19.375L25.132,19.375C25.252,19.375 25.355,19.455 25.39,19.569L25.512,19.992C25.562,20.162 25.432,20.332 25.254,20.332L23.408,20.332C23.23,20.332 23.103,20.162 23.15,19.992L23.273,19.569C23.307,19.452 23.413,19.375 23.53,19.375ZM12.456,19.057L11.505,19.057C11.349,19.057 11.221,18.929 11.221,18.772L11.221,14.528C11.221,14.371 11.349,14.244 11.505,14.244L12.456,14.244C12.613,14.244 12.741,14.371 12.741,14.528L12.741,18.775C12.738,18.932 12.61,19.057 12.456,19.057ZM12.78,13.928L11.179,13.928C11.059,13.928 10.956,13.848 10.921,13.734L10.799,13.311C10.748,13.141 10.879,12.971 11.057,12.971L12.903,12.971C13.081,12.971 13.208,13.141 13.16,13.311L13.038,13.734C13.004,13.848 12.9,13.928 12.78,13.928ZM11.179,19.375L12.78,19.375C12.9,19.375 13.004,19.455 13.038,19.569L13.16,19.992C13.211,20.162 13.081,20.332 12.903,20.332L11.057,20.332C10.879,20.332 10.751,20.162 10.799,19.992L10.921,19.569C10.956,19.452 11.059,19.375 11.179,19.375ZM16.574,19.057L15.623,19.057C15.466,19.057 15.338,18.929 15.338,18.772L15.338,14.528C15.338,14.371 15.466,14.244 15.623,14.244L16.574,14.244C16.73,14.244 16.858,14.371 16.858,14.528L16.858,18.775C16.857,18.85 16.827,18.922 16.774,18.974C16.72,19.027 16.649,19.057 16.574,19.057ZM16.898,13.928L15.296,13.928C15.176,13.928 15.073,13.848 15.038,13.734L14.916,13.311C14.866,13.141 14.996,12.971 15.174,12.971L17.02,12.971C17.198,12.971 17.325,13.141 17.277,13.311L17.155,13.734C17.121,13.848 17.017,13.928 16.898,13.928ZM15.296,19.375L16.898,19.375C17.017,19.375 17.121,19.455 17.155,19.569L17.277,19.992C17.328,20.162 17.198,20.332 17.02,20.332L15.174,20.332C14.996,20.332 14.868,20.162 14.916,19.992L15.038,19.569C15.073,19.452 15.176,19.375 15.296,19.375ZM20.691,19.057L19.74,19.057C19.583,19.057 19.456,18.929 19.456,18.772L19.456,14.528C19.456,14.371 19.583,14.244 19.74,14.244L20.691,14.244C20.847,14.244 20.975,14.371 20.975,14.528L20.975,18.775C20.974,18.85 20.944,18.922 20.891,18.974C20.838,19.027 20.766,19.057 20.691,19.057ZM21.015,13.928L19.413,13.928C19.294,13.928 19.19,13.848 19.155,13.734L19.033,13.311C18.983,13.141 19.113,12.971 19.291,12.971L21.137,12.971C21.315,12.971 21.442,13.141 21.395,13.311L21.272,13.734C21.238,13.848 21.134,13.928 21.015,13.928ZM19.413,19.375L21.015,19.375C21.134,19.375 21.238,19.455 21.272,19.569L21.395,19.992C21.445,20.162 21.315,20.332 21.137,20.332L19.291,20.332C19.113,20.332 18.985,20.162 19.033,19.992L19.155,19.569C19.19,19.452 19.296,19.375 19.413,19.375Z" fill="#FFF176"/>
</svg>
