<svg width="22" height="22" viewBox="0 0 22 22" fill="none" xmlns="http://www.w3.org/2000/svg" xmlns:xlink="http://www.w3.org/1999/xlink">
<circle cx="10" cy="11.443" r="9.859" fill="#D68F30"/>
<path d="M0.812,14.004L0.812,15.011C0.915,15.277 1.03,15.54 1.155,15.795L1.155,14.004L0.812,14.004ZM1.936,15.899L1.936,17.109C2.073,17.304 2.216,17.494 2.365,17.678L2.365,15.899L1.936,15.899ZM3.424,17.481L3.424,18.785C3.591,18.935 3.763,19.077 3.94,19.215L3.94,17.481L3.424,17.481ZM5.256,18.682L5.256,20.085C5.425,20.177 5.597,20.265 5.772,20.349L5.772,18.682L5.256,18.682ZM7.334,19.447L7.334,20.932C7.504,20.98 7.676,21.023 7.85,21.063L7.85,19.447L7.334,19.447ZM9.766,19.712L9.766,21.295C9.844,21.296 9.921,21.3 10,21.3C10.094,21.3 10.189,21.295 10.282,21.293L10.282,19.712L9.766,19.712ZM12.198,19.435L12.198,21.051C12.372,21.011 12.544,20.966 12.714,20.918L12.714,19.435L12.198,19.435ZM14.271,18.66L14.271,20.329C14.446,20.244 14.618,20.153 14.787,20.059L14.787,18.66L14.271,18.66ZM16.098,17.448L16.098,19.184C16.275,19.046 16.447,18.901 16.614,18.751L16.614,17.448L16.098,17.448ZM18.094,15.862L17.664,15.862L17.664,17.641C17.813,17.455 17.958,17.264 18.094,17.068L18.094,15.862ZM19.211,13.959L18.867,13.959L18.867,15.753C18.992,15.494 19.108,15.227 19.211,14.958L19.211,13.959Z" fill="#BC6F00"/>
<circle cx="10" cy="10.556" r="9.859" fill="#FFF176"/>
<circle cx="10" cy="10.557" r="8.98" fill="#F2BC1A"/>
<path d="M1.002,10.9C0.939,9.717 1.143,8.518 1.556,7.394C1.986,6.273 2.644,5.237 3.474,4.357C5.141,2.593 7.561,1.571 10,1.559C12.439,1.572 14.861,2.593 16.524,4.358C17.356,5.237 18.013,6.275 18.443,7.394C18.857,8.52 19.061,9.717 18.996,10.9L18.962,10.9C18.958,9.72 18.725,8.553 18.274,7.462C17.823,6.374 17.164,5.383 16.334,4.546C15.503,3.71 14.516,3.045 13.429,2.59C12.342,2.136 11.176,1.902 9.998,1.902C8.821,1.902 7.655,2.136 6.568,2.59C5.481,3.045 4.494,3.71 3.663,4.546C2.832,5.382 2.173,6.373 1.723,7.462C1.272,8.553 1.038,9.72 1.035,10.9L1.002,10.9Z" fill="#E08F00"/>
<path d="M10,0.699C4.555,0.699 0.141,5.113 0.141,10.558C0.141,16.003 4.555,20.417 10,20.417C15.445,20.417 19.859,16.003 19.859,10.558C19.859,5.113 15.445,0.699 10,0.699ZM10,19.538C5.04,19.538 1.02,15.518 1.02,10.558C1.02,5.596 5.04,1.576 10,1.576C14.96,1.576 18.981,5.596 18.981,10.556C18.981,15.517 14.96,19.538 10,19.538Z" fill="#FFF176"/>
<path d="M5.53,3.67L5.748,4.345L6.46,4.074L6.46,4.345L5.884,4.763L6.104,5.165L6.104,5.439L5.53,5.021L4.954,5.439L4.954,5.165L5.174,4.763L4.6,4.345L4.6,4.074L5.31,4.345L5.53,3.67ZM2.783,7.547L3.003,8.223L3.713,7.951L3.713,8.223L3.139,8.641L3.359,9.044L3.359,9.316L2.783,8.898L2.209,9.316L2.209,9.044L2.429,8.641L1.853,8.223L1.853,7.951L2.565,8.223L2.783,7.547ZM2.702,12.327L2.922,13.003L3.632,12.731L3.632,13.003L3.058,13.42L3.278,13.824L3.278,14.096L2.702,13.678L2.128,14.096L2.128,13.824L2.348,13.42L1.772,13.003L1.772,12.731L2.484,13.003L2.702,12.327ZM5.635,16.122L5.855,16.798L6.564,16.526L6.564,16.798L5.99,17.215L6.21,17.618L6.21,17.891L5.635,17.473L5.06,17.891L5.06,17.618L5.28,17.215L4.705,16.798L4.705,16.526L5.416,16.798L5.635,16.122ZM14.471,3.67L14.252,4.345L13.541,4.074L13.541,4.345L14.117,4.763L13.897,5.165L13.897,5.439L14.471,5.021L15.046,5.439L15.046,5.165L14.826,4.763L15.4,4.345L15.4,4.074L14.691,4.345L14.471,3.67ZM17.217,7.547L16.997,8.223L16.287,7.951L16.287,8.223L16.861,8.641L16.641,9.044L16.641,9.316L17.217,8.898L17.791,9.316L17.791,9.044L17.571,8.641L18.147,8.223L18.147,7.951L17.435,8.223L17.217,7.547ZM17.298,12.327L17.078,13.003L16.368,12.731L16.368,13.003L16.942,13.42L16.722,13.824L16.722,14.096L17.298,13.678L17.872,14.096L17.872,13.824L17.652,13.42L18.228,13.003L18.228,12.731L17.516,13.003L17.298,12.327ZM14.366,16.122L14.146,16.798L13.436,16.526L13.436,16.798L14.01,17.215L13.79,17.618L13.79,17.891L14.366,17.473L14.94,17.891L14.94,17.618L14.72,17.215L15.296,16.798L15.296,16.526L14.584,16.798L14.366,16.122Z" fill="#D38200"/>
<path d="M14.366,15.849L14.584,16.524L15.295,16.524L14.72,16.942L14.94,17.617L14.366,17.2L13.79,17.617L14.01,16.942L13.436,16.524L14.146,16.524L14.366,15.849ZM17.298,12.056L17.516,12.731L18.228,12.731L17.652,13.149L17.872,13.824L17.298,13.406L16.722,13.824L16.942,13.149L16.368,12.731L17.078,12.731L17.298,12.056ZM17.217,7.276L17.435,7.951L18.147,7.951L17.571,8.369L17.791,9.044L17.217,8.627L16.641,9.044L16.861,8.369L16.287,7.951L16.997,7.951L17.217,7.276ZM14.47,3.396L14.69,4.072L15.4,4.072L14.826,4.49L15.046,5.165L14.47,4.747L13.896,5.165L14.116,4.49L13.541,4.072L14.252,4.072L14.47,3.396Z" fill="#FFF176"/>
<path d="M10.009,17.617L10.229,18.293L10.939,18.021L10.939,18.293L10.364,18.71L10.584,19.114L10.584,19.386L10.009,18.968L9.435,19.386L9.435,19.114L9.655,18.71L9.079,18.293L9.079,18.021L9.79,18.293L10.009,17.617Z" fill="#D38200"/>
<path d="M10.009,17.256L10.229,17.931L10.939,17.931L10.364,18.349L10.584,19.024L10.009,18.607L9.435,19.024L9.655,18.349L9.079,17.931L9.79,17.931L10.009,17.256Z" fill="#FFF176"/>
<path d="M10.009,2.215L10.229,2.89L10.939,2.619L10.939,2.89L10.364,3.308L10.584,3.712L10.584,3.983L10.009,3.566L9.435,3.983L9.435,3.712L9.655,3.308L9.079,2.89L9.079,2.619L9.79,2.89L10.009,2.215Z" fill="#D38200"/>
<path d="M10.009,1.943L10.229,2.619L10.939,2.619L10.365,3.036L10.585,3.712L10.009,3.294L9.435,3.712L9.655,3.036L9.079,2.619L9.79,2.619L10.009,1.943ZM5.635,15.848L5.416,16.524L4.705,16.524L5.28,16.941L5.06,17.617L5.635,17.199L6.21,17.617L5.99,16.941L6.564,16.524L5.855,16.524L5.635,15.848ZM2.702,12.055L2.484,12.73L1.772,12.73L2.348,13.148L2.128,13.823L2.702,13.406L3.278,13.823L3.058,13.148L3.632,12.73L2.922,12.73L2.702,12.055ZM2.783,7.275L2.565,7.95L1.853,7.95L2.429,8.368L2.209,9.044L2.783,8.626L3.359,9.044L3.139,8.368L3.713,7.95L3.003,7.95L2.783,7.275ZM5.53,3.396L5.31,4.071L4.6,4.071L5.174,4.489L4.954,5.164L5.53,4.747L6.104,5.164L5.884,4.489L6.46,4.071L5.748,4.071L5.53,3.396Z" fill="#FFF176"/>
<path d="M15.366,8.285C15.366,8.224 4.644,8.285 4.644,8.285L4.548,8.573L4.548,9.067C4.548,9.156 4.62,9.228 4.71,9.228L15.29,9.228C15.38,9.228 15.452,9.156 15.452,9.067L15.452,8.587L15.366,8.285ZM15.381,14.695L4.689,14.695L3.974,15.055L3.983,15.517C3.984,15.567 4.026,15.608 4.077,15.608L15.925,15.608C15.974,15.608 16.017,15.569 16.019,15.517L16.028,15.063L15.381,14.695Z" fill="#D38200"/>
<path d="M6.413,13.29L5.798,13.29C5.696,13.29 5.614,12.97 5.614,12.869L6.595,12.838C6.595,12.939 6.513,13.29 6.413,13.29ZM6.623,9.971L5.586,9.971C5.509,9.971 5.442,9.919 5.419,9.845L5.339,9.17L6.856,9.17L6.788,9.845C6.767,9.919 6.7,9.971 6.623,9.971ZM5.586,13.494L6.623,13.494C6.7,13.494 6.853,13.542 6.873,13.616C6.873,13.616 6.868,13.938 6.868,14.065C6.868,14.192 6.817,14.285 6.702,14.285L5.507,14.285C5.392,14.285 5.34,14.182 5.34,14.065C5.34,13.948 5.335,13.62 5.335,13.62C5.358,13.546 5.509,13.494 5.586,13.494ZM14.405,13.29L13.79,13.29C13.688,13.29 13.606,12.97 13.606,12.869L14.587,12.838C14.587,12.939 14.506,13.29 14.405,13.29ZM14.615,9.971L13.578,9.971C13.501,9.971 13.434,9.919 13.412,9.845L13.331,9.17L14.848,9.17L14.78,9.845C14.759,9.919 14.692,9.971 14.615,9.971ZM13.578,13.494L14.615,13.494C14.692,13.494 14.845,13.542 14.866,13.616C14.866,13.616 14.861,13.938 14.861,14.065C14.861,14.192 14.809,14.285 14.694,14.285L13.499,14.285C13.384,14.285 13.333,14.182 13.333,14.065C13.333,13.948 13.327,13.62 13.327,13.62C13.35,13.546 13.501,13.494 13.578,13.494ZM11.741,13.29L11.126,13.29C11.024,13.29 10.942,12.97 10.942,12.869L11.923,12.838C11.923,12.939 11.842,13.29 11.741,13.29ZM11.951,9.971L10.914,9.971C10.837,9.971 10.77,9.919 10.748,9.845L10.667,9.17L12.184,9.17L12.116,9.845C12.095,9.919 12.028,9.971 11.951,9.971ZM10.914,13.494L11.951,13.494C12.028,13.494 12.181,13.542 12.202,13.616C12.202,13.616 12.196,13.938 12.196,14.065C12.196,14.192 12.145,14.285 12.03,14.285L10.835,14.285C10.72,14.285 10.668,14.182 10.668,14.065C10.668,13.948 10.663,13.62 10.663,13.62C10.686,13.546 10.837,13.494 10.914,13.494ZM9.077,13.29L8.462,13.29C8.36,13.29 8.278,12.97 8.278,12.869L9.259,12.838C9.259,12.939 9.178,13.29 9.077,13.29ZM9.287,9.971L8.25,9.971C8.173,9.971 8.106,9.919 8.083,9.845L8.003,9.17L9.52,9.17L9.452,9.845C9.431,9.919 9.364,9.971 9.287,9.971ZM8.25,13.494L9.287,13.494C9.364,13.494 9.517,13.542 9.538,13.616C9.538,13.616 9.532,13.938 9.532,14.065C9.532,14.192 9.481,14.285 9.366,14.285L8.171,14.285C8.056,14.285 8.004,14.182 8.004,14.065C8.004,13.948 7.999,13.62 7.999,13.62C8.022,13.546 8.173,13.494 8.25,13.494Z" fill="#D38200"/>
<path d="M15.443,7.823C15.443,7.763 15.412,7.706 15.366,7.679L10.007,4.637L4.641,7.675C4.589,7.706 4.557,7.763 4.557,7.823L4.548,8.574C4.548,8.669 4.625,8.746 4.72,8.746L15.278,8.746C15.373,8.746 15.45,8.669 15.45,8.574L15.443,7.823Z" fill="#FFF176"/>
<path d="M14.098,7.62L10,5.295L5.903,7.62L14.098,7.62Z" fill="#F2BC1A"/>
<path d="M12.59,7.335L10,5.863L7.41,7.335L12.59,7.335ZM15.051,14.096L4.949,14.096C4.849,14.096 4.754,14.139 4.687,14.213L3.993,14.988C3.945,15.041 3.983,15.126 4.055,15.126L15.945,15.126C16.016,15.126 16.053,15.041 16.007,14.988L15.311,14.213C15.246,14.139 15.149,14.096 15.051,14.096ZM14.405,12.977L13.79,12.977C13.688,12.977 13.606,12.895 13.606,12.793L13.606,10.047C13.606,9.945 13.688,9.863 13.79,9.863L14.405,9.863C14.507,9.863 14.589,9.945 14.589,10.047L14.589,12.795C14.589,12.896 14.507,12.977 14.405,12.977ZM14.617,9.658L13.58,9.658C13.503,9.658 13.436,9.607 13.413,9.533L13.334,9.26C13.302,9.15 13.386,9.04 13.501,9.04L14.696,9.04C14.811,9.04 14.893,9.15 14.862,9.26L14.783,9.533C14.761,9.607 14.692,9.658 14.617,9.658ZM13.578,13.183L14.615,13.183C14.692,13.183 14.759,13.235 14.782,13.309L14.861,13.582C14.893,13.692 14.809,13.802 14.694,13.802L13.499,13.802C13.384,13.802 13.302,13.692 13.333,13.582L13.412,13.309C13.434,13.233 13.503,13.183 13.578,13.183ZM6.413,12.977L5.798,12.977C5.696,12.977 5.614,12.895 5.614,12.793L5.614,10.047C5.614,9.945 5.696,9.863 5.798,9.863L6.413,9.863C6.514,9.863 6.597,9.945 6.597,10.047L6.597,12.795C6.595,12.896 6.513,12.977 6.413,12.977ZM6.623,9.658L5.586,9.658C5.509,9.658 5.442,9.607 5.42,9.533L5.34,9.26C5.308,9.15 5.392,9.04 5.507,9.04L6.702,9.04C6.817,9.04 6.899,9.15 6.868,9.26L6.789,9.533C6.767,9.607 6.7,9.658 6.623,9.658ZM5.586,13.183L6.623,13.183C6.7,13.183 6.767,13.235 6.789,13.309L6.868,13.582C6.901,13.692 6.817,13.802 6.702,13.802L5.507,13.802C5.392,13.802 5.31,13.692 5.34,13.582L5.42,13.309C5.442,13.233 5.509,13.183 5.586,13.183ZM9.077,12.977L8.462,12.977C8.36,12.977 8.278,12.895 8.278,12.793L8.278,10.047C8.278,9.945 8.36,9.863 8.462,9.863L9.077,9.863C9.178,9.863 9.261,9.945 9.261,10.047L9.261,12.795C9.26,12.843 9.241,12.89 9.206,12.924C9.172,12.958 9.125,12.977 9.077,12.977ZM9.287,9.658L8.25,9.658C8.173,9.658 8.106,9.607 8.084,9.533L8.005,9.26C7.972,9.15 8.056,9.04 8.171,9.04L9.366,9.04C9.481,9.04 9.563,9.15 9.532,9.26L9.453,9.533C9.431,9.607 9.364,9.658 9.287,9.658ZM8.25,13.183L9.287,13.183C9.364,13.183 9.431,13.235 9.453,13.309L9.532,13.582C9.565,13.692 9.481,13.802 9.366,13.802L8.171,13.802C8.056,13.802 7.974,13.692 8.005,13.582L8.084,13.309C8.106,13.233 8.173,13.183 8.25,13.183ZM11.741,12.977L11.126,12.977C11.024,12.977 10.942,12.895 10.942,12.793L10.942,10.047C10.942,9.945 11.024,9.863 11.126,9.863L11.741,9.863C11.842,9.863 11.925,9.945 11.925,10.047L11.925,12.795C11.925,12.843 11.905,12.89 11.871,12.924C11.836,12.958 11.79,12.977 11.741,12.977ZM11.951,9.658L10.914,9.658C10.837,9.658 10.77,9.607 10.748,9.533L10.669,9.26C10.636,9.15 10.72,9.04 10.835,9.04L12.03,9.04C12.145,9.04 12.227,9.15 12.197,9.26L12.117,9.533C12.095,9.607 12.028,9.658 11.951,9.658ZM10.914,13.183L11.951,13.183C12.028,13.183 12.095,13.235 12.117,13.309L12.197,13.582C12.229,13.692 12.145,13.802 12.03,13.802L10.835,13.802C10.72,13.802 10.638,13.692 10.669,13.582L10.748,13.309C10.77,13.233 10.839,13.183 10.914,13.183Z" fill="#FFF176"/>
</svg>
