<svg width="38" height="38" viewBox="0 0 38 38" fill="none" xmlns="http://www.w3.org/2000/svg" xmlns:xlink="http://www.w3.org/1999/xlink">
<circle cx="18.001" cy="18.766" r="17.029" fill="#D68F30"/>
<path d="M2.129,23.189L2.129,24.929C2.307,25.389 2.506,25.844 2.723,26.283L2.723,23.189L2.129,23.189ZM4.07,26.464L4.07,28.554C4.308,28.889 4.554,29.219 4.813,29.537L4.813,26.464L4.07,26.464ZM6.641,29.195L6.641,31.449C6.929,31.707 7.226,31.953 7.532,32.191L7.532,29.195L6.641,29.195ZM9.806,31.27L9.806,33.693C10.097,33.853 10.394,34.005 10.697,34.15L10.697,31.27L9.806,31.27ZM13.395,32.592L13.395,35.157C13.689,35.24 13.986,35.314 14.286,35.382L14.286,32.592L13.395,32.592ZM17.596,33.049L17.596,35.783C17.73,35.786 17.863,35.792 18,35.792C18.163,35.792 18.326,35.783 18.487,35.78L18.487,33.049L17.596,33.049ZM21.797,32.571L21.797,35.361C22.097,35.293 22.394,35.216 22.688,35.133L22.688,32.571L21.797,32.571ZM25.377,31.232L25.377,34.114C25.68,33.969 25.977,33.812 26.268,33.648L26.268,31.232L25.377,31.232ZM28.533,29.139L28.533,32.137C28.839,31.898 29.136,31.649 29.424,31.389L29.424,29.139L28.533,29.139ZM31.98,26.399L31.238,26.399L31.238,29.471C31.496,29.151 31.745,28.821 31.98,28.483L31.98,26.399ZM33.909,23.112L33.316,23.112L33.316,26.212C33.532,25.763 33.731,25.303 33.909,24.837L33.909,23.112Z" fill="#BC6F00"/>
<circle cx="18.001" cy="17.234" r="17.029" fill="#FFF176"/>
<circle cx="18" cy="17.234" r="15.512" fill="#F2BC1A"/>
<path d="M2.459,17.829C2.349,15.786 2.703,13.714 3.415,11.772C4.157,9.837 5.294,8.046 6.728,6.526C9.608,3.481 13.788,1.714 18.001,1.693C22.213,1.717 26.396,3.481 29.27,6.529C30.707,8.046 31.841,9.84 32.583,11.772C33.298,13.717 33.652,15.786 33.539,17.829L33.48,17.829C33.474,15.791 33.07,13.774 32.292,11.891C31.512,10.01 30.374,8.299 28.94,6.853C27.506,5.409 25.801,4.261 23.923,3.475C22.046,2.691 20.032,2.287 17.998,2.287C15.963,2.287 13.949,2.691 12.072,3.475C10.194,4.261 8.489,5.409 7.055,6.853C5.62,8.298 4.482,10.009 3.703,11.891C2.925,13.774 2.521,15.791 2.516,17.829L2.459,17.829Z" fill="#E08F00"/>
<path d="M18.001,0.209C8.596,0.209 0.973,7.833 0.973,17.238C0.973,26.643 8.596,34.267 18.001,34.267C27.406,34.267 35.03,26.643 35.03,17.238C35.03,7.833 27.406,0.209 18.001,0.209ZM18.001,32.749C9.434,32.749 2.49,25.806 2.49,17.238C2.49,8.667 9.434,1.723 18.001,1.723C26.569,1.723 33.513,8.667 33.513,17.235C33.513,25.803 26.569,32.749 18.001,32.749Z" fill="#FFF176"/>
<path d="M10.279,5.338L10.656,6.505L11.885,6.036L11.885,6.505L10.89,7.226L11.27,7.921L11.27,8.393L10.279,7.671L9.284,8.393L9.284,7.921L9.664,7.226L8.673,6.505L8.673,6.036L9.899,6.505L10.279,5.338ZM5.535,12.035L5.915,13.202L7.141,12.733L7.141,13.202L6.149,13.924L6.529,14.621L6.529,15.09L5.535,14.369L4.543,15.09L4.543,14.621L4.923,13.924L3.929,13.202L3.929,12.733L5.158,13.202L5.535,12.035ZM5.395,20.291L5.775,21.458L7.001,20.989L7.001,21.458L6.01,22.18L6.39,22.877L6.39,23.346L5.395,22.625L4.404,23.346L4.404,22.877L4.784,22.18L3.789,21.458L3.789,20.989L5.018,21.458L5.395,20.291ZM10.46,26.846L10.84,28.013L12.066,27.544L12.066,28.013L11.074,28.735L11.454,29.429L11.454,29.901L10.46,29.18L9.468,29.901L9.468,29.429L9.848,28.735L8.854,28.013L8.854,27.544L10.083,28.013L10.46,26.846ZM25.722,5.338L25.345,6.505L24.116,6.036L24.116,6.505L25.111,7.226L24.731,7.921L24.731,8.393L25.722,7.671L26.717,8.393L26.717,7.921L26.337,7.226L27.328,6.505L27.328,6.036L26.102,6.505L25.722,5.338ZM30.466,12.035L30.086,13.202L28.86,12.733L28.86,13.202L29.852,13.924L29.472,14.621L29.472,15.09L30.466,14.369L31.458,15.09L31.458,14.621L31.078,13.924L32.072,13.202L32.072,12.733L30.843,13.202L30.466,12.035ZM30.606,20.291L30.226,21.458L29,20.989L29,21.458L29.991,22.18L29.611,22.877L29.611,23.346L30.606,22.625L31.597,23.346L31.597,22.877L31.217,22.18L32.212,21.458L32.212,20.989L30.983,21.458L30.606,20.291ZM25.541,26.846L25.161,28.013L23.935,27.544L23.935,28.013L24.927,28.735L24.547,29.429L24.547,29.901L25.541,29.18L26.533,29.901L26.533,29.429L26.153,28.735L27.147,28.013L27.147,27.544L25.918,28.013L25.541,26.846Z" fill="#D38200"/>
<path d="M25.542,26.375L25.919,27.542L27.148,27.542L26.153,28.263L26.533,29.43L25.542,28.708L24.547,29.43L24.927,28.263L23.936,27.542L25.162,27.542L25.542,26.375ZM30.606,19.823L30.983,20.989L32.212,20.989L31.218,21.711L31.598,22.878L30.606,22.156L29.612,22.878L29.992,21.711L29,20.989L30.226,20.989L30.606,19.823ZM30.467,11.567L30.844,12.733L32.073,12.733L31.078,13.455L31.458,14.622L30.467,13.9L29.472,14.622L29.852,13.455L28.861,12.733L30.087,12.733L30.467,11.567ZM25.723,4.866L26.103,6.033L27.329,6.033L26.337,6.754L26.717,7.921L25.723,7.2L24.731,7.921L25.111,6.754L24.117,6.033L25.346,6.033L25.723,4.866Z" fill="#FFF176"/>
<path d="M18.016,29.43L18.396,30.596L19.622,30.127L19.622,30.596L18.631,31.318L19.011,32.015L19.011,32.485L18.016,31.763L17.025,32.485L17.025,32.015L17.405,31.318L16.41,30.596L16.41,30.127L17.639,30.596L18.016,29.43Z" fill="#D38200"/>
<path d="M18.016,28.807L18.396,29.973L19.622,29.973L18.631,30.695L19.011,31.861L18.016,31.14L17.025,31.861L17.405,30.695L16.41,29.973L17.639,29.973L18.016,28.807Z" fill="#FFF176"/>
<path d="M18.016,2.827L18.396,3.994L19.622,3.525L19.622,3.994L18.631,4.715L19.011,5.413L19.011,5.882L18.016,5.161L17.025,5.882L17.025,5.413L17.405,4.715L16.41,3.994L16.41,3.525L17.639,3.994L18.016,2.827Z" fill="#D38200"/>
<path d="M18.015,2.357L18.395,3.524L19.621,3.524L18.63,4.246L19.01,5.412L18.015,4.691L17.024,5.412L17.404,4.246L16.409,3.524L17.638,3.524L18.015,2.357ZM10.46,26.375L10.083,27.541L8.854,27.541L9.848,28.263L9.468,29.429L10.46,28.708L11.454,29.429L11.074,28.263L12.066,27.541L10.84,27.541L10.46,26.375ZM5.395,19.823L5.018,20.989L3.789,20.989L4.784,21.711L4.404,22.877L5.395,22.156L6.39,22.877L6.01,21.711L7.001,20.989L5.775,20.989L5.395,19.823ZM5.535,11.566L5.158,12.733L3.929,12.733L4.923,13.455L4.543,14.621L5.535,13.9L6.529,14.621L6.149,13.455L7.141,12.733L5.915,12.733L5.535,11.566ZM10.279,4.866L9.899,6.033L8.673,6.033L9.664,6.754L9.284,7.921L10.279,7.199L11.27,7.921L10.89,6.754L11.885,6.033L10.656,6.033L10.279,4.866Z" fill="#FFF176"/>
<path d="M27.269,13.31C27.269,13.206 8.75,13.31 8.75,13.31L8.583,13.809L8.583,14.661C8.583,14.815 8.708,14.94 8.862,14.94L27.138,14.94C27.292,14.94 27.417,14.815 27.417,14.661L27.417,13.832L27.269,13.31ZM27.295,24.383L8.827,24.383L7.592,25.004L7.607,25.802C7.61,25.888 7.681,25.96 7.77,25.96L28.234,25.96C28.32,25.96 28.394,25.891 28.397,25.802L28.412,25.019L27.295,24.383Z" fill="#D38200"/>
<path d="M11.803,21.954L10.74,21.954C10.565,21.954 10.422,21.402 10.422,21.227L12.118,21.173C12.118,21.348 11.975,21.954 11.803,21.954ZM12.165,16.221L10.375,16.221C10.241,16.221 10.125,16.132 10.087,16.005L9.947,14.838L12.569,14.838L12.45,16.005C12.414,16.132 12.299,16.221 12.165,16.221ZM10.375,22.307L12.165,22.307C12.299,22.307 12.563,22.39 12.598,22.518C12.598,22.518 12.59,23.073 12.59,23.293C12.59,23.513 12.5,23.673 12.302,23.673L10.238,23.673C10.039,23.673 9.95,23.495 9.95,23.293C9.95,23.091 9.941,22.524 9.941,22.524C9.98,22.396 10.241,22.307 10.375,22.307ZM25.608,21.954L24.545,21.954C24.37,21.954 24.227,21.402 24.227,21.227L25.922,21.173C25.922,21.348 25.783,21.954 25.608,21.954ZM25.97,16.221L24.18,16.221C24.046,16.221 23.93,16.132 23.892,16.005L23.752,14.838L26.373,14.838L26.255,16.005C26.219,16.132 26.103,16.221 25.97,16.221ZM24.18,22.307L25.97,22.307C26.103,22.307 26.368,22.39 26.403,22.518C26.403,22.518 26.394,23.073 26.394,23.293C26.394,23.513 26.305,23.673 26.106,23.673L24.043,23.673C23.844,23.673 23.755,23.495 23.755,23.293C23.755,23.091 23.746,22.524 23.746,22.524C23.785,22.396 24.046,22.307 24.18,22.307ZM21.006,21.954L19.943,21.954C19.768,21.954 19.625,21.402 19.625,21.227L21.321,21.173C21.321,21.348 21.181,21.954 21.006,21.954ZM21.368,16.221L19.578,16.221C19.444,16.221 19.329,16.132 19.29,16.005L19.15,14.838L21.772,14.838L21.653,16.005C21.618,16.132 21.502,16.221 21.368,16.221ZM19.578,22.307L21.368,22.307C21.502,22.307 21.766,22.39 21.802,22.518C21.802,22.518 21.793,23.073 21.793,23.293C21.793,23.513 21.704,23.673 21.505,23.673L19.441,23.673C19.243,23.673 19.153,23.495 19.153,23.293C19.153,23.091 19.145,22.524 19.145,22.524C19.183,22.396 19.444,22.307 19.578,22.307ZM16.404,21.954L15.342,21.954C15.166,21.954 15.024,21.402 15.024,21.227L16.719,21.173C16.719,21.348 16.58,21.954 16.404,21.954ZM16.767,16.221L14.976,16.221C14.843,16.221 14.727,16.132 14.688,16.005L14.549,14.838L17.17,14.838L17.052,16.005C17.016,16.132 16.9,16.221 16.767,16.221ZM14.976,22.307L16.767,22.307C16.9,22.307 17.164,22.39 17.2,22.518C17.2,22.518 17.191,23.073 17.191,23.293C17.191,23.513 17.102,23.673 16.903,23.673L14.84,23.673C14.641,23.673 14.552,23.495 14.552,23.293C14.552,23.091 14.543,22.524 14.543,22.524C14.582,22.396 14.843,22.307 14.976,22.307Z" fill="#D38200"/>
<path d="M27.403,12.514C27.403,12.41 27.349,12.312 27.269,12.264L18.013,7.01L8.744,12.259C8.655,12.312 8.599,12.41 8.599,12.514L8.584,13.811C8.584,13.974 8.718,14.108 8.881,14.108L27.118,14.108C27.281,14.108 27.415,13.974 27.415,13.811L27.403,12.514Z" fill="#FFF176"/>
<path d="M25.077,12.16L17.999,8.144L10.922,12.16L25.077,12.16Z" fill="#F2BC1A"/>
<path d="M22.475,11.671L18.001,9.13L13.527,11.671L22.475,11.671ZM26.726,23.35L9.276,23.35C9.103,23.35 8.94,23.424 8.824,23.552L7.625,24.891C7.542,24.983 7.607,25.128 7.732,25.128L28.27,25.128C28.391,25.128 28.457,24.983 28.377,24.891L27.174,23.552C27.061,23.424 26.895,23.35 26.726,23.35ZM25.61,21.418L24.547,21.418C24.372,21.418 24.229,21.275 24.229,21.1L24.229,16.356C24.229,16.181 24.372,16.038 24.547,16.038L25.61,16.038C25.785,16.038 25.927,16.181 25.927,16.356L25.927,21.103C25.927,21.278 25.785,21.418 25.61,21.418ZM25.975,15.685L24.185,15.685C24.051,15.685 23.935,15.596 23.897,15.468L23.76,14.996C23.704,14.806 23.849,14.616 24.048,14.616L26.111,14.616C26.31,14.616 26.453,14.806 26.399,14.996L26.263,15.468C26.224,15.596 26.106,15.685 25.975,15.685ZM24.182,21.774L25.972,21.774C26.106,21.774 26.221,21.863 26.26,21.991L26.396,22.463C26.453,22.653 26.307,22.843 26.108,22.843L24.045,22.843C23.846,22.843 23.704,22.653 23.757,22.463L23.894,21.991C23.932,21.86 24.051,21.774 24.182,21.774ZM11.805,21.418L10.742,21.418C10.567,21.418 10.425,21.275 10.425,21.1L10.425,16.356C10.425,16.181 10.567,16.038 10.742,16.038L11.805,16.038C11.98,16.038 12.123,16.181 12.123,16.356L12.123,21.103C12.12,21.278 11.977,21.418 11.805,21.418ZM12.167,15.685L10.377,15.685C10.243,15.685 10.128,15.596 10.089,15.468L9.953,14.996C9.896,14.806 10.042,14.616 10.241,14.616L12.304,14.616C12.503,14.616 12.645,14.806 12.592,14.996L12.455,15.468C12.417,15.596 12.301,15.685 12.167,15.685ZM10.377,21.774L12.167,21.774C12.301,21.774 12.417,21.863 12.455,21.991L12.592,22.463C12.648,22.653 12.503,22.843 12.304,22.843L10.241,22.843C10.042,22.843 9.899,22.653 9.953,22.463L10.089,21.991C10.128,21.86 10.243,21.774 10.377,21.774ZM16.407,21.418L15.344,21.418C15.169,21.418 15.026,21.275 15.026,21.1L15.026,16.356C15.026,16.181 15.169,16.038 15.344,16.038L16.407,16.038C16.582,16.038 16.724,16.181 16.724,16.356L16.724,21.103C16.723,21.187 16.69,21.267 16.63,21.326C16.571,21.384 16.49,21.418 16.407,21.418ZM16.769,15.685L14.979,15.685C14.845,15.685 14.729,15.596 14.691,15.468L14.554,14.996C14.498,14.806 14.643,14.616 14.842,14.616L16.905,14.616C17.104,14.616 17.247,14.806 17.193,14.996L17.057,15.468C17.018,15.596 16.902,15.685 16.769,15.685ZM14.979,21.774L16.769,21.774C16.902,21.774 17.018,21.863 17.057,21.991L17.193,22.463C17.25,22.653 17.104,22.843 16.905,22.843L14.842,22.843C14.643,22.843 14.501,22.653 14.554,22.463L14.691,21.991C14.729,21.86 14.845,21.774 14.979,21.774ZM21.008,21.418L19.945,21.418C19.77,21.418 19.628,21.275 19.628,21.1L19.628,16.356C19.628,16.181 19.77,16.038 19.945,16.038L21.008,16.038C21.183,16.038 21.326,16.181 21.326,16.356L21.326,21.103C21.325,21.187 21.291,21.267 21.232,21.326C21.172,21.384 21.092,21.418 21.008,21.418ZM21.37,15.685L19.58,15.685C19.447,15.685 19.331,15.596 19.292,15.468L19.156,14.996C19.099,14.806 19.245,14.616 19.444,14.616L21.507,14.616C21.706,14.616 21.848,14.806 21.795,14.996L21.658,15.468C21.62,15.596 21.504,15.685 21.37,15.685ZM19.58,21.774L21.37,21.774C21.504,21.774 21.62,21.863 21.658,21.991L21.795,22.463C21.851,22.653 21.706,22.843 21.507,22.843L19.444,22.843C19.245,22.843 19.102,22.653 19.156,22.463L19.292,21.991C19.331,21.86 19.45,21.774 19.58,21.774Z" fill="#FFF176"/>
</svg>
