<svg width="22" height="22" viewBox="0 0 22 22" fill="none" xmlns="http://www.w3.org/2000/svg" xmlns:xlink="http://www.w3.org/1999/xlink">
<circle cx="10.197" cy="10.415" r="9.224" fill="#D68F30"/>
<path d="M1.598,12.811L1.598,13.754C1.694,14.003 1.802,14.249 1.919,14.487L1.919,12.811L1.598,12.811ZM2.649,14.585L2.649,15.717C2.778,15.899 2.911,16.077 3.051,16.249L3.051,14.585L2.649,14.585ZM4.042,16.064L4.042,17.285C4.198,17.425 4.359,17.558 4.524,17.687L4.524,16.064L4.042,16.064ZM5.756,17.189L5.756,18.501C5.914,18.588 6.075,18.67 6.239,18.748L6.239,17.189L5.756,17.189ZM7.7,17.904L7.7,19.293C7.859,19.339 8.02,19.379 8.183,19.416L8.183,17.904L7.7,17.904ZM9.976,18.152L9.976,19.633C10.048,19.634 10.12,19.638 10.194,19.638C10.283,19.638 10.371,19.633 10.458,19.631L10.458,18.152L9.976,18.152ZM12.251,17.893L12.251,19.404C12.414,19.367 12.574,19.326 12.734,19.281L12.734,17.893L12.251,17.893ZM14.19,17.168L14.19,18.729C14.354,18.65 14.515,18.565 14.673,18.477L14.673,17.168L14.19,17.168ZM15.9,16.034L15.9,17.658C16.065,17.529 16.226,17.394 16.382,17.253L16.382,16.034L15.9,16.034ZM17.767,14.55L17.365,14.55L17.365,16.214C17.505,16.04 17.64,15.862 17.767,15.679L17.767,14.55ZM18.812,12.77L18.49,12.77L18.49,14.448C18.608,14.206 18.716,13.956 18.812,13.704L18.812,12.77Z" fill="#BC6F00"/>
<circle cx="10.197" cy="9.585" r="9.224" fill="#FFF176"/>
<circle cx="10.195" cy="9.586" r="8.402" fill="#F2BC1A"/>
<path d="M1.776,9.907C1.717,8.801 1.908,7.678 2.294,6.626C2.696,5.578 3.312,4.608 4.089,3.785C5.649,2.135 7.913,1.178 10.195,1.167C12.476,1.18 14.742,2.135 16.299,3.787C17.077,4.608 17.691,5.58 18.093,6.626C18.481,7.68 18.672,8.801 18.611,9.907L18.579,9.907C18.576,8.803 18.357,7.711 17.936,6.691C17.514,5.672 16.897,4.745 16.12,3.962C15.343,3.179 14.42,2.558 13.403,2.132C12.386,1.707 11.295,1.489 10.193,1.489C9.091,1.489 8,1.707 6.983,2.132C5.966,2.558 5.043,3.179 4.266,3.962C3.489,4.745 2.872,5.672 2.45,6.691C2.029,7.711 1.81,8.803 1.807,9.907L1.776,9.907Z" fill="#E08F00"/>
<path d="M10.197,0.363C5.102,0.363 0.973,4.493 0.973,9.587C0.973,14.682 5.102,18.811 10.197,18.811C15.291,18.811 19.42,14.682 19.42,9.587C19.42,4.493 15.291,0.363 10.197,0.363ZM10.197,17.989C5.556,17.989 1.794,14.228 1.794,9.587C1.794,4.945 5.556,1.183 10.197,1.183C14.837,1.183 18.599,4.945 18.599,9.586C18.599,14.226 14.837,17.989 10.197,17.989Z" fill="#FFF176"/>
<path d="M6.013,3.142L6.218,3.774L6.883,3.519L6.883,3.774L6.345,4.164L6.55,4.541L6.55,4.796L6.013,4.406L5.475,4.796L5.475,4.541L5.68,4.164L5.143,3.774L5.143,3.519L5.807,3.774L6.013,3.142ZM3.444,6.769L3.649,7.401L4.314,7.147L4.314,7.401L3.776,7.792L3.982,8.17L3.982,8.424L3.444,8.033L2.906,8.424L2.906,8.17L3.112,7.792L2.574,7.401L2.574,7.147L3.239,7.401L3.444,6.769ZM3.368,11.241L3.574,11.873L4.238,11.619L4.238,11.873L3.701,12.264L3.907,12.642L3.907,12.896L3.368,12.505L2.831,12.896L2.831,12.642L3.037,12.264L2.498,11.873L2.498,11.619L3.164,11.873L3.368,11.241ZM6.111,14.792L6.317,15.424L6.981,15.17L6.981,15.424L6.444,15.815L6.65,16.191L6.65,16.447L6.111,16.056L5.574,16.447L5.574,16.191L5.78,15.815L5.241,15.424L5.241,15.17L5.907,15.424L6.111,14.792ZM14.378,3.142L14.174,3.774L13.509,3.519L13.509,3.774L14.047,4.164L13.841,4.541L13.841,4.796L14.378,4.406L14.917,4.796L14.917,4.541L14.711,4.164L15.248,3.774L15.248,3.519L14.584,3.774L14.378,3.142ZM16.948,6.769L16.742,7.401L16.078,7.147L16.078,7.401L16.615,7.792L16.409,8.17L16.409,8.424L16.948,8.033L17.485,8.424L17.485,8.17L17.279,7.792L17.818,7.401L17.818,7.147L17.152,7.401L16.948,6.769ZM17.024,11.241L16.818,11.873L16.154,11.619L16.154,11.873L16.691,12.264L16.485,12.642L16.485,12.896L17.024,12.505L17.561,12.896L17.561,12.642L17.355,12.264L17.894,11.873L17.894,11.619L17.228,11.873L17.024,11.241ZM14.28,14.792L14.075,15.424L13.41,15.17L13.41,15.424L13.948,15.815L13.742,16.191L13.742,16.447L14.28,16.056L14.817,16.447L14.817,16.191L14.612,15.815L15.15,15.424L15.15,15.17L14.485,15.424L14.28,14.792Z" fill="#D38200"/>
<path d="M14.28,14.536L14.484,15.168L15.15,15.168L14.611,15.559L14.817,16.191L14.28,15.8L13.741,16.191L13.947,15.559L13.41,15.168L14.074,15.168L14.28,14.536ZM17.023,10.987L17.228,11.619L17.893,11.619L17.355,12.01L17.561,12.642L17.023,12.251L16.485,12.642L16.691,12.01L16.154,11.619L16.818,11.619L17.023,10.987ZM16.948,6.515L17.152,7.147L17.818,7.147L17.279,7.538L17.485,8.17L16.948,7.779L16.409,8.17L16.615,7.538L16.078,7.147L16.742,7.147L16.948,6.515ZM14.378,2.886L14.584,3.518L15.248,3.518L14.711,3.908L14.917,4.54L14.378,4.15L13.841,4.54L14.047,3.908L13.508,3.518L14.174,3.518L14.378,2.886Z" fill="#FFF176"/>
<path d="M10.204,16.191L10.41,16.823L11.074,16.569L11.074,16.823L10.537,17.214L10.743,17.592L10.743,17.846L10.204,17.455L9.667,17.846L9.667,17.592L9.873,17.214L9.334,16.823L9.334,16.569L10,16.823L10.204,16.191Z" fill="#D38200"/>
<path d="M10.204,15.854L10.41,16.485L11.074,16.485L10.537,16.876L10.743,17.508L10.204,17.117L9.667,17.508L9.873,16.876L9.334,16.485L10,16.485L10.204,15.854Z" fill="#FFF176"/>
<path d="M10.204,1.781L10.41,2.413L11.074,2.159L11.074,2.413L10.537,2.804L10.743,3.182L10.743,3.436L10.204,3.045L9.667,3.436L9.667,3.182L9.873,2.804L9.334,2.413L9.334,2.159L10,2.413L10.204,1.781Z" fill="#D38200"/>
<path d="M10.204,1.527L10.41,2.159L11.074,2.159L10.537,2.55L10.743,3.182L10.204,2.791L9.667,3.182L9.873,2.55L9.334,2.159L10,2.159L10.204,1.527ZM6.111,14.537L5.907,15.169L5.241,15.169L5.78,15.559L5.574,16.191L6.111,15.801L6.65,16.191L6.444,15.559L6.981,15.169L6.317,15.169L6.111,14.537ZM3.368,10.988L3.164,11.62L2.498,11.62L3.037,12.01L2.831,12.642L3.368,12.252L3.907,12.642L3.701,12.01L4.238,11.62L3.574,11.62L3.368,10.988ZM3.444,6.516L3.239,7.148L2.574,7.148L3.112,7.538L2.906,8.17L3.444,7.78L3.982,8.17L3.776,7.538L4.314,7.148L3.649,7.148L3.444,6.516ZM6.013,2.886L5.807,3.518L5.143,3.518L5.68,3.909L5.475,4.541L6.013,4.15L6.55,4.541L6.345,3.909L6.883,3.518L6.218,3.518L6.013,2.886Z" fill="#FFF176"/>
<path d="M15.215,7.46C15.215,7.403 5.184,7.46 5.184,7.46L5.094,7.73L5.094,8.191C5.094,8.275 5.161,8.342 5.245,8.342L15.144,8.342C15.228,8.342 15.295,8.275 15.295,8.191L15.295,7.743L15.215,7.46ZM15.229,13.458L5.226,13.458L4.557,13.794L4.565,14.226C4.566,14.273 4.605,14.312 4.653,14.312L15.738,14.312C15.784,14.312 15.824,14.275 15.826,14.226L15.834,13.802L15.229,13.458Z" fill="#D38200"/>
<path d="M6.838,12.142L6.263,12.142C6.168,12.142 6.091,11.843 6.091,11.748L7.009,11.719C7.009,11.814 6.932,12.142 6.838,12.142ZM7.035,9.036L6.065,9.036C5.992,9.036 5.93,8.988 5.909,8.919L5.833,8.287L7.253,8.287L7.189,8.919C7.17,8.988 7.107,9.036 7.035,9.036ZM6.065,12.333L7.035,12.333C7.107,12.333 7.25,12.378 7.269,12.447C7.269,12.447 7.264,12.748 7.264,12.867C7.264,12.986 7.216,13.073 7.108,13.073L5.991,13.073C5.883,13.073 5.835,12.976 5.835,12.867C5.835,12.758 5.83,12.45 5.83,12.45C5.851,12.381 5.992,12.333 6.065,12.333ZM14.316,12.142L13.74,12.142C13.645,12.142 13.568,11.843 13.568,11.748L14.486,11.719C14.486,11.814 14.411,12.142 14.316,12.142ZM14.512,9.036L13.542,9.036C13.47,9.036 13.407,8.988 13.386,8.919L13.311,8.287L14.731,8.287L14.666,8.919C14.647,8.988 14.584,9.036 14.512,9.036ZM13.542,12.333L14.512,12.333C14.584,12.333 14.728,12.378 14.747,12.447C14.747,12.447 14.742,12.748 14.742,12.867C14.742,12.986 14.694,13.073 14.586,13.073L13.468,13.073C13.361,13.073 13.312,12.976 13.312,12.867C13.312,12.758 13.308,12.45 13.308,12.45C13.329,12.381 13.47,12.333 13.542,12.333ZM11.823,12.142L11.248,12.142C11.153,12.142 11.076,11.843 11.076,11.748L11.994,11.719C11.994,11.814 11.918,12.142 11.823,12.142ZM12.02,9.036L11.05,9.036C10.978,9.036 10.915,8.988 10.894,8.919L10.818,8.287L12.238,8.287L12.174,8.919C12.155,8.988 12.092,9.036 12.02,9.036ZM11.05,12.333L12.02,12.333C12.092,12.333 12.235,12.378 12.254,12.447C12.254,12.447 12.249,12.748 12.249,12.867C12.249,12.986 12.201,13.073 12.094,13.073L10.976,13.073C10.868,13.073 10.82,12.976 10.82,12.867C10.82,12.758 10.815,12.45 10.815,12.45C10.836,12.381 10.978,12.333 11.05,12.333ZM9.331,12.142L8.755,12.142C8.66,12.142 8.583,11.843 8.583,11.748L9.501,11.719C9.501,11.814 9.426,12.142 9.331,12.142ZM9.527,9.036L8.557,9.036C8.485,9.036 8.422,8.988 8.401,8.919L8.326,8.287L9.746,8.287L9.681,8.919C9.662,8.988 9.599,9.036 9.527,9.036ZM8.557,12.333L9.527,12.333C9.599,12.333 9.743,12.378 9.762,12.447C9.762,12.447 9.757,12.748 9.757,12.867C9.757,12.986 9.709,13.073 9.601,13.073L8.483,13.073C8.376,13.073 8.327,12.976 8.327,12.867C8.327,12.758 8.323,12.45 8.323,12.45C8.343,12.381 8.485,12.333 8.557,12.333Z" fill="#D38200"/>
<path d="M15.287,7.028C15.287,6.972 15.258,6.919 15.215,6.893L10.201,4.047L5.181,6.89C5.132,6.919 5.102,6.972 5.102,7.028L5.094,7.731C5.094,7.819 5.166,7.892 5.255,7.892L15.133,7.892C15.221,7.892 15.294,7.819 15.294,7.731L15.287,7.028Z" fill="#FFF176"/>
<path d="M14.029,6.837L10.195,4.661L6.361,6.837L14.029,6.837Z" fill="#F2BC1A"/>
<path d="M12.618,6.572L10.195,5.195L7.772,6.572L12.618,6.572ZM14.921,12.898L5.469,12.898C5.376,12.898 5.287,12.938 5.224,13.007L4.575,13.733C4.53,13.782 4.565,13.861 4.633,13.861L15.757,13.861C15.823,13.861 15.859,13.782 15.815,13.733L15.164,13.007C15.103,12.938 15.013,12.898 14.921,12.898ZM14.317,11.851L13.741,11.851C13.646,11.851 13.569,11.774 13.569,11.679L13.569,9.109C13.569,9.014 13.646,8.937 13.741,8.937L14.317,8.937C14.411,8.937 14.489,9.014 14.489,9.109L14.489,11.681C14.489,11.776 14.411,11.851 14.317,11.851ZM14.514,8.746L13.545,8.746C13.472,8.746 13.41,8.698 13.389,8.629L13.315,8.373C13.284,8.27 13.363,8.167 13.471,8.167L14.588,8.167C14.696,8.167 14.773,8.27 14.744,8.373L14.67,8.629C14.649,8.698 14.585,8.746 14.514,8.746ZM13.543,12.044L14.513,12.044C14.585,12.044 14.648,12.092 14.669,12.161L14.743,12.417C14.773,12.52 14.694,12.623 14.587,12.623L13.469,12.623C13.361,12.623 13.284,12.52 13.313,12.417L13.387,12.161C13.408,12.091 13.472,12.044 13.543,12.044ZM6.839,11.851L6.263,11.851C6.168,11.851 6.091,11.774 6.091,11.679L6.091,9.109C6.091,9.014 6.168,8.937 6.263,8.937L6.839,8.937C6.934,8.937 7.011,9.014 7.011,9.109L7.011,11.681C7.009,11.776 6.932,11.851 6.839,11.851ZM7.035,8.746L6.066,8.746C5.993,8.746 5.93,8.698 5.91,8.629L5.836,8.373C5.805,8.27 5.884,8.167 5.992,8.167L7.109,8.167C7.217,8.167 7.294,8.27 7.265,8.373L7.191,8.629C7.17,8.698 7.108,8.746 7.035,8.746ZM6.066,12.044L7.035,12.044C7.108,12.044 7.17,12.092 7.191,12.161L7.265,12.417C7.296,12.52 7.217,12.623 7.109,12.623L5.992,12.623C5.884,12.623 5.807,12.52 5.836,12.417L5.91,12.161C5.93,12.091 5.993,12.044 6.066,12.044ZM9.332,11.851L8.756,11.851C8.661,11.851 8.584,11.774 8.584,11.679L8.584,9.109C8.584,9.014 8.661,8.937 8.756,8.937L9.332,8.937C9.426,8.937 9.504,9.014 9.504,9.109L9.504,11.681C9.503,11.726 9.485,11.769 9.453,11.801C9.42,11.833 9.377,11.851 9.332,11.851ZM9.528,8.746L8.558,8.746C8.486,8.746 8.423,8.698 8.402,8.629L8.328,8.373C8.298,8.27 8.376,8.167 8.484,8.167L9.602,8.167C9.709,8.167 9.787,8.27 9.758,8.373L9.684,8.629C9.663,8.698 9.6,8.746 9.528,8.746ZM8.558,12.044L9.528,12.044C9.6,12.044 9.663,12.092 9.684,12.161L9.758,12.417C9.788,12.52 9.709,12.623 9.602,12.623L8.484,12.623C8.376,12.623 8.299,12.52 8.328,12.417L8.402,12.161C8.423,12.091 8.486,12.044 8.558,12.044ZM11.824,11.851L11.248,11.851C11.153,11.851 11.076,11.774 11.076,11.679L11.076,9.109C11.076,9.014 11.153,8.937 11.248,8.937L11.824,8.937C11.919,8.937 11.996,9.014 11.996,9.109L11.996,11.681C11.996,11.726 11.977,11.769 11.945,11.801C11.913,11.833 11.869,11.851 11.824,11.851ZM12.02,8.746L11.051,8.746C10.978,8.746 10.915,8.698 10.895,8.629L10.821,8.373C10.79,8.27 10.869,8.167 10.977,8.167L12.094,8.167C12.202,8.167 12.279,8.27 12.25,8.373L12.176,8.629C12.155,8.698 12.093,8.746 12.02,8.746ZM11.051,12.044L12.02,12.044C12.093,12.044 12.155,12.092 12.176,12.161L12.25,12.417C12.281,12.52 12.202,12.623 12.094,12.623L10.977,12.623C10.869,12.623 10.792,12.52 10.821,12.417L10.895,12.161C10.915,12.091 10.98,12.044 11.051,12.044Z" fill="#FFF176"/>
</svg>
