<svg width="34" height="34" viewBox="0 0 34 34" fill="none" xmlns="http://www.w3.org/2000/svg" xmlns:xlink="http://www.w3.org/1999/xlink">
<circle cx="17" cy="16.685" r="15.236" fill="#D68F30"/>
<path d="M2.8,20.643L2.8,22.2C2.959,22.612 3.137,23.018 3.331,23.411L3.331,20.643L2.8,20.643ZM4.537,23.573L4.537,25.443C4.749,25.743 4.97,26.038 5.201,26.322L5.201,23.573L4.537,23.573ZM6.837,26.017L6.837,28.033C7.095,28.264 7.36,28.485 7.634,28.697L7.634,26.017L6.837,26.017ZM9.669,27.874L9.669,30.041C9.929,30.185 10.195,30.32 10.466,30.45L10.466,27.874L9.669,27.874ZM12.88,29.056L12.88,31.351C13.143,31.425 13.409,31.491 13.677,31.552L13.677,29.056L12.88,29.056ZM16.639,29.465L16.639,31.911C16.758,31.914 16.878,31.919 17,31.919C17.146,31.919 17.292,31.911 17.436,31.908L17.436,29.465L16.639,29.465ZM20.397,29.037L20.397,31.534C20.666,31.473 20.931,31.404 21.194,31.329L21.194,29.037L20.397,29.037ZM23.601,27.839L23.601,30.418C23.872,30.288 24.137,30.147 24.398,30.001L24.398,27.839L23.601,27.839ZM26.424,25.966L26.424,28.649C26.698,28.436 26.963,28.212 27.221,27.98L27.221,25.966L26.424,25.966ZM29.508,23.515L28.844,23.515L28.844,26.264C29.075,25.977 29.298,25.682 29.508,25.379L29.508,23.515ZM31.235,20.574L30.704,20.574L30.704,23.347C30.897,22.946 31.075,22.535 31.235,22.117L31.235,20.574Z" fill="#BC6F00"/>
<circle cx="17" cy="15.314" r="15.236" fill="#FFF176"/>
<circle cx="17" cy="15.314" r="13.879" fill="#F2BC1A"/>
<path d="M3.095,15.847C2.996,14.019 3.312,12.165 3.95,10.428C4.614,8.696 5.631,7.095 6.914,5.735C9.491,3.009 13.231,1.429 17,1.41C20.769,1.431 24.512,3.009 27.083,5.737C28.369,7.095 29.384,8.699 30.048,10.428C30.688,12.168 31.004,14.019 30.903,15.847L30.85,15.847C30.845,14.024 30.484,12.219 29.787,10.534C29.09,8.851 28.071,7.32 26.788,6.027C25.505,4.734 23.98,3.707 22.299,3.004C20.62,2.303 18.818,1.942 16.997,1.942C15.177,1.942 13.375,2.303 11.695,3.004C10.015,3.707 8.49,4.734 7.206,6.027C5.923,7.32 4.904,8.851 4.208,10.534C3.511,12.219 3.15,14.024 3.145,15.847L3.095,15.847Z" fill="#E08F00"/>
<path d="M17,0.082C8.585,0.082 1.764,6.903 1.764,15.318C1.764,23.733 8.585,30.554 17,30.554C25.415,30.554 32.236,23.733 32.236,15.318C32.236,6.903 25.415,0.082 17,0.082ZM17,29.197C9.334,29.197 3.121,22.984 3.121,15.318C3.121,7.65 9.334,1.437 17,1.437C24.666,1.437 30.879,7.65 30.879,15.316C30.879,22.982 24.666,29.197 17,29.197Z" fill="#FFF176"/>
<path d="M10.091,4.672L10.428,5.716L11.528,5.296L11.528,5.716L10.638,6.361L10.978,6.983L10.978,7.405L10.091,6.76L9.201,7.405L9.201,6.983L9.541,6.361L8.654,5.716L8.654,5.296L9.751,5.716L10.091,4.672ZM5.846,10.664L6.186,11.708L7.283,11.289L7.283,11.708L6.396,12.354L6.736,12.978L6.736,13.398L5.846,12.752L4.959,13.398L4.959,12.978L5.299,12.354L4.409,11.708L4.409,11.289L5.509,11.708L5.846,10.664ZM5.722,18.051L6.062,19.095L7.159,18.676L7.159,19.095L6.271,19.741L6.611,20.365L6.611,20.785L5.722,20.139L4.834,20.785L4.834,20.365L5.174,19.741L4.285,19.095L4.285,18.676L5.384,19.095L5.722,18.051ZM10.253,23.916L10.593,24.96L11.69,24.541L11.69,24.96L10.803,25.606L11.143,26.227L11.143,26.65L10.253,26.004L9.366,26.65L9.366,26.227L9.706,25.606L8.816,24.96L8.816,24.541L9.916,24.96L10.253,23.916ZM23.909,4.672L23.572,5.716L22.472,5.296L22.472,5.716L23.362,6.361L23.022,6.983L23.022,7.405L23.909,6.76L24.799,7.405L24.799,6.983L24.459,6.361L25.346,5.716L25.346,5.296L24.249,5.716L23.909,4.672ZM28.154,10.664L27.814,11.708L26.717,11.289L26.717,11.708L27.604,12.354L27.264,12.978L27.264,13.398L28.154,12.752L29.041,13.398L29.041,12.978L28.701,12.354L29.591,11.708L29.591,11.289L28.491,11.708L28.154,10.664ZM28.279,18.051L27.939,19.095L26.841,18.676L26.841,19.095L27.729,19.741L27.389,20.365L27.389,20.785L28.279,20.139L29.166,20.785L29.166,20.365L28.826,19.741L29.716,19.095L29.716,18.676L28.616,19.095L28.279,18.051ZM23.747,23.916L23.407,24.96L22.31,24.541L22.31,24.96L23.197,25.606L22.857,26.227L22.857,26.65L23.747,26.004L24.634,26.65L24.634,26.227L24.294,25.606L25.184,24.96L25.184,24.541L24.084,24.96L23.747,23.916Z" fill="#D38200"/>
<path d="M23.747,23.493L24.084,24.536L25.184,24.536L24.294,25.182L24.634,26.226L23.747,25.58L22.857,26.226L23.197,25.182L22.31,24.536L23.407,24.536L23.747,23.493ZM28.278,17.63L28.616,18.674L29.715,18.674L28.826,19.32L29.166,20.364L28.278,19.718L27.389,20.364L27.729,19.32L26.841,18.674L27.938,18.674L28.278,17.63ZM28.154,10.243L28.491,11.287L29.591,11.287L28.701,11.933L29.041,12.976L28.154,12.331L27.264,12.976L27.604,11.933L26.717,11.287L27.814,11.287L28.154,10.243ZM23.909,4.248L24.249,5.292L25.346,5.292L24.459,5.937L24.799,6.981L23.909,6.336L23.022,6.981L23.362,5.937L22.472,5.292L23.572,5.292L23.909,4.248Z" fill="#FFF176"/>
<path d="M17.013,26.227L17.353,27.27L18.45,26.851L18.45,27.27L17.563,27.916L17.903,28.54L17.903,28.96L17.013,28.314L16.126,28.96L16.126,28.54L16.466,27.916L15.576,27.27L15.576,26.851L16.676,27.27L17.013,26.227Z" fill="#D38200"/>
<path d="M17.013,25.668L17.353,26.712L18.45,26.712L17.563,27.357L17.903,28.401L17.013,27.756L16.126,28.401L16.466,27.357L15.576,26.712L16.676,26.712L17.013,25.668Z" fill="#FFF176"/>
<path d="M17.013,2.424L17.353,3.468L18.45,3.048L18.45,3.468L17.563,4.113L17.903,4.737L17.903,5.157L17.013,4.512L16.126,5.157L16.126,4.737L16.466,4.113L15.576,3.468L15.576,3.048L16.676,3.468L17.013,2.424Z" fill="#D38200"/>
<path d="M17.013,2.004L17.353,3.048L18.45,3.048L17.563,3.693L17.903,4.737L17.013,4.092L16.126,4.737L16.466,3.693L15.576,3.048L16.676,3.048L17.013,2.004ZM10.253,23.493L9.916,24.537L8.816,24.537L9.706,25.182L9.366,26.226L10.253,25.581L11.143,26.226L10.803,25.182L11.69,24.537L10.593,24.537L10.253,23.493ZM5.722,17.631L5.384,18.675L4.285,18.675L5.174,19.32L4.834,20.364L5.722,19.718L6.611,20.364L6.271,19.32L7.159,18.675L6.062,18.675L5.722,17.631ZM5.846,10.244L5.509,11.288L4.409,11.288L5.299,11.933L4.959,12.977L5.846,12.331L6.736,12.977L6.396,11.933L7.283,11.288L6.186,11.288L5.846,10.244ZM10.091,4.248L9.751,5.292L8.654,5.292L9.541,5.938L9.201,6.982L10.091,6.336L10.978,6.982L10.638,5.938L11.528,5.292L10.428,5.292L10.091,4.248Z" fill="#FFF176"/>
<path d="M25.293,11.803C25.293,11.71 8.723,11.803 8.723,11.803L8.574,12.249L8.574,13.012C8.574,13.15 8.686,13.261 8.824,13.261L25.176,13.261C25.314,13.261 25.426,13.15 25.426,13.012L25.426,12.271L25.293,11.803ZM25.317,21.711L8.792,21.711L7.687,22.266L7.7,22.981C7.703,23.058 7.767,23.121 7.847,23.121L26.156,23.121C26.233,23.121 26.299,23.06 26.302,22.981L26.315,22.279L25.317,21.711Z" fill="#D38200"/>
<path d="M11.456,19.539L10.505,19.539C10.349,19.539 10.221,19.045 10.221,18.888L11.738,18.84C11.738,18.997 11.61,19.539 11.456,19.539ZM11.78,14.41L10.179,14.41C10.059,14.41 9.956,14.33 9.921,14.216L9.796,13.172L12.142,13.172L12.035,14.216C12.004,14.33 11.9,14.41 11.78,14.41ZM10.179,19.855L11.78,19.855C11.9,19.855 12.136,19.929 12.168,20.044C12.168,20.044 12.16,20.54 12.16,20.737C12.16,20.933 12.081,21.077 11.903,21.077L10.057,21.077C9.879,21.077 9.799,20.917 9.799,20.737C9.799,20.556 9.791,20.049 9.791,20.049C9.825,19.935 10.059,19.855 10.179,19.855ZM23.808,19.539L22.857,19.539C22.7,19.539 22.573,19.045 22.573,18.888L24.089,18.84C24.089,18.997 23.965,19.539 23.808,19.539ZM24.132,14.41L22.53,14.41C22.411,14.41 22.307,14.33 22.273,14.216L22.148,13.172L24.493,13.172L24.387,14.216C24.355,14.33 24.252,14.41 24.132,14.41ZM22.53,19.855L24.132,19.855C24.252,19.855 24.488,19.929 24.52,20.044C24.52,20.044 24.512,20.54 24.512,20.737C24.512,20.933 24.432,21.077 24.254,21.077L22.408,21.077C22.23,21.077 22.15,20.917 22.15,20.737C22.15,20.556 22.142,20.049 22.142,20.049C22.177,19.935 22.411,19.855 22.53,19.855ZM19.691,19.539L18.74,19.539C18.583,19.539 18.456,19.045 18.456,18.888L19.972,18.84C19.972,18.997 19.847,19.539 19.691,19.539ZM20.015,14.41L18.413,14.41C18.294,14.41 18.19,14.33 18.155,14.216L18.031,13.172L20.376,13.172L20.27,14.216C20.238,14.33 20.134,14.41 20.015,14.41ZM18.413,19.855L20.015,19.855C20.134,19.855 20.371,19.929 20.403,20.044C20.403,20.044 20.395,20.54 20.395,20.737C20.395,20.933 20.315,21.077 20.137,21.077L18.291,21.077C18.113,21.077 18.033,20.917 18.033,20.737C18.033,20.556 18.025,20.049 18.025,20.049C18.06,19.935 18.294,19.855 18.413,19.855ZM15.574,19.539L14.623,19.539C14.466,19.539 14.338,19.045 14.338,18.888L15.855,18.84C15.855,18.997 15.73,19.539 15.574,19.539ZM15.898,14.41L14.296,14.41C14.176,14.41 14.073,14.33 14.038,14.216L13.913,13.172L16.259,13.172L16.153,14.216C16.121,14.33 16.017,14.41 15.898,14.41ZM14.296,19.855L15.898,19.855C16.017,19.855 16.254,19.929 16.285,20.044C16.285,20.044 16.277,20.54 16.277,20.737C16.277,20.933 16.198,21.077 16.02,21.077L14.174,21.077C13.996,21.077 13.916,20.917 13.916,20.737C13.916,20.556 13.908,20.049 13.908,20.049C13.943,19.935 14.176,19.855 14.296,19.855Z" fill="#D38200"/>
<path d="M25.412,11.091C25.412,10.998 25.365,10.91 25.293,10.868L17.011,6.166L8.718,10.862C8.638,10.91 8.588,10.998 8.588,11.091L8.574,12.251C8.574,12.398 8.694,12.517 8.84,12.517L25.157,12.517C25.303,12.517 25.423,12.398 25.423,12.251L25.412,11.091Z" fill="#FFF176"/>
<path d="M23.332,10.776L17,7.182L10.667,10.776L23.332,10.776Z" fill="#F2BC1A"/>
<path d="M21.003,10.336L17,8.063L12.997,10.336L21.003,10.336ZM24.807,20.786L9.193,20.786C9.039,20.786 8.893,20.852 8.789,20.967L7.716,22.165C7.642,22.247 7.7,22.377 7.812,22.377L26.188,22.377C26.297,22.377 26.355,22.247 26.284,22.165L25.208,20.967C25.107,20.852 24.958,20.786 24.807,20.786ZM23.808,19.057L22.857,19.057C22.7,19.057 22.573,18.929 22.573,18.772L22.573,14.528C22.573,14.371 22.7,14.244 22.857,14.244L23.808,14.244C23.965,14.244 24.092,14.371 24.092,14.528L24.092,18.775C24.092,18.932 23.965,19.057 23.808,19.057ZM24.135,13.928L22.533,13.928C22.413,13.928 22.31,13.848 22.275,13.734L22.153,13.311C22.103,13.141 22.233,12.971 22.411,12.971L24.257,12.971C24.435,12.971 24.562,13.141 24.514,13.311L24.392,13.734C24.358,13.848 24.252,13.928 24.135,13.928ZM22.53,19.375L24.132,19.375C24.252,19.375 24.355,19.455 24.39,19.569L24.512,19.992C24.562,20.162 24.432,20.332 24.254,20.332L22.408,20.332C22.23,20.332 22.103,20.162 22.15,19.992L22.273,19.569C22.307,19.452 22.413,19.375 22.53,19.375ZM11.456,19.057L10.505,19.057C10.349,19.057 10.221,18.929 10.221,18.772L10.221,14.528C10.221,14.371 10.349,14.244 10.505,14.244L11.456,14.244C11.613,14.244 11.741,14.371 11.741,14.528L11.741,18.775C11.738,18.932 11.61,19.057 11.456,19.057ZM11.78,13.928L10.179,13.928C10.059,13.928 9.956,13.848 9.921,13.734L9.799,13.311C9.748,13.141 9.879,12.971 10.057,12.971L11.903,12.971C12.081,12.971 12.208,13.141 12.16,13.311L12.038,13.734C12.004,13.848 11.9,13.928 11.78,13.928ZM10.179,19.375L11.78,19.375C11.9,19.375 12.004,19.455 12.038,19.569L12.16,19.992C12.211,20.162 12.081,20.332 11.903,20.332L10.057,20.332C9.879,20.332 9.751,20.162 9.799,19.992L9.921,19.569C9.956,19.452 10.059,19.375 10.179,19.375ZM15.574,19.057L14.623,19.057C14.466,19.057 14.338,18.929 14.338,18.772L14.338,14.528C14.338,14.371 14.466,14.244 14.623,14.244L15.574,14.244C15.73,14.244 15.858,14.371 15.858,14.528L15.858,18.775C15.857,18.85 15.827,18.922 15.774,18.974C15.72,19.027 15.648,19.057 15.574,19.057ZM15.898,13.928L14.296,13.928C14.176,13.928 14.073,13.848 14.038,13.734L13.916,13.311C13.866,13.141 13.996,12.971 14.174,12.971L16.02,12.971C16.198,12.971 16.325,13.141 16.277,13.311L16.155,13.734C16.121,13.848 16.017,13.928 15.898,13.928ZM14.296,19.375L15.898,19.375C16.017,19.375 16.121,19.455 16.155,19.569L16.277,19.992C16.328,20.162 16.198,20.332 16.02,20.332L14.174,20.332C13.996,20.332 13.868,20.162 13.916,19.992L14.038,19.569C14.073,19.452 14.176,19.375 14.296,19.375ZM19.691,19.057L18.74,19.057C18.583,19.057 18.456,18.929 18.456,18.772L18.456,14.528C18.456,14.371 18.583,14.244 18.74,14.244L19.691,14.244C19.847,14.244 19.975,14.371 19.975,14.528L19.975,18.775C19.974,18.85 19.944,18.922 19.891,18.974C19.838,19.027 19.766,19.057 19.691,19.057ZM20.015,13.928L18.413,13.928C18.294,13.928 18.19,13.848 18.155,13.734L18.033,13.311C17.983,13.141 18.113,12.971 18.291,12.971L20.137,12.971C20.315,12.971 20.442,13.141 20.395,13.311L20.272,13.734C20.238,13.848 20.134,13.928 20.015,13.928ZM18.413,19.375L20.015,19.375C20.134,19.375 20.238,19.455 20.272,19.569L20.395,19.992C20.445,20.162 20.315,20.332 20.137,20.332L18.291,20.332C18.113,20.332 17.985,20.162 18.033,19.992L18.155,19.569C18.19,19.452 18.296,19.375 18.413,19.375Z" fill="#FFF176"/>
</svg>
