<svg width="22" height="22" viewBox="0 0 22 22" fill="none" xmlns="http://www.w3.org/2000/svg" xmlns:xlink="http://www.w3.org/1999/xlink">
<circle cx="10.585" cy="10.415" r="9.224" fill="#D68F30"/>
<path d="M1.986,12.811L1.986,13.754C2.083,14.003 2.191,14.249 2.308,14.487L2.308,12.811L1.986,12.811ZM3.038,14.585L3.038,15.717C3.167,15.899 3.3,16.077 3.44,16.249L3.44,14.585L3.038,14.585ZM4.431,16.064L4.431,17.285C4.587,17.425 4.747,17.558 4.913,17.687L4.913,16.064L4.431,16.064ZM6.145,17.189L6.145,18.501C6.302,18.588 6.463,18.67 6.627,18.748L6.627,17.189L6.145,17.189ZM8.089,17.904L8.089,19.293C8.248,19.339 8.409,19.379 8.571,19.416L8.571,17.904L8.089,17.904ZM10.364,18.152L10.364,19.633C10.437,19.634 10.509,19.638 10.583,19.638C10.672,19.638 10.76,19.633 10.847,19.631L10.847,18.152L10.364,18.152ZM12.64,17.893L12.64,19.404C12.802,19.367 12.963,19.326 13.122,19.281L13.122,17.893L12.64,17.893ZM14.579,17.168L14.579,18.729C14.743,18.65 14.904,18.565 15.062,18.477L15.062,17.168L14.579,17.168ZM16.289,16.034L16.289,17.658C16.454,17.529 16.615,17.394 16.771,17.253L16.771,16.034L16.289,16.034ZM18.156,14.55L17.753,14.55L17.753,16.214C17.893,16.04 18.028,15.862 18.156,15.679L18.156,14.55ZM19.201,12.77L18.879,12.77L18.879,14.448C18.997,14.206 19.104,13.956 19.201,13.704L19.201,12.77Z" fill="#BC6F00"/>
<circle cx="10.585" cy="9.585" r="9.224" fill="#FFF176"/>
<circle cx="10.584" cy="9.586" r="8.402" fill="#F2BC1A"/>
<path d="M2.165,9.907C2.105,8.801 2.297,7.678 2.683,6.626C3.085,5.578 3.701,4.608 4.477,3.785C6.037,2.135 8.301,1.178 10.583,1.167C12.865,1.18 15.131,2.135 16.687,3.787C17.466,4.608 18.08,5.58 18.482,6.626C18.87,7.68 19.061,8.801 19,9.907L18.968,9.907C18.965,8.803 18.746,7.711 18.324,6.691C17.902,5.672 17.286,4.745 16.509,3.962C15.732,3.179 14.809,2.558 13.791,2.132C12.774,1.707 11.684,1.489 10.582,1.489C9.48,1.489 8.389,1.707 7.372,2.132C6.355,2.558 5.431,3.179 4.654,3.962C3.877,4.745 3.26,5.672 2.839,6.691C2.417,7.711 2.199,8.803 2.196,9.907L2.165,9.907Z" fill="#E08F00"/>
<path d="M10.585,0.363C5.491,0.363 1.361,4.493 1.361,9.587C1.361,14.682 5.491,18.811 10.585,18.811C15.68,18.811 19.809,14.682 19.809,9.587C19.809,4.493 15.68,0.363 10.585,0.363ZM10.585,17.989C5.944,17.989 2.183,14.228 2.183,9.587C2.183,4.945 5.944,1.183 10.585,1.183C15.226,1.183 18.987,4.945 18.987,9.586C18.987,14.226 15.226,17.989 10.585,17.989Z" fill="#FFF176"/>
<path d="M6.402,3.142L6.606,3.774L7.272,3.519L7.272,3.774L6.733,4.164L6.939,4.541L6.939,4.796L6.402,4.406L5.863,4.796L5.863,4.541L6.069,4.164L5.532,3.774L5.532,3.519L6.196,3.774L6.402,3.142ZM3.832,6.769L4.038,7.401L4.702,7.147L4.702,7.401L4.165,7.792L4.371,8.17L4.371,8.424L3.832,8.033L3.295,8.424L3.295,8.17L3.501,7.792L2.962,7.401L2.962,7.147L3.628,7.401L3.832,6.769ZM3.757,11.241L3.963,11.873L4.627,11.619L4.627,11.873L4.09,12.264L4.295,12.642L4.295,12.896L3.757,12.505L3.22,12.896L3.22,12.642L3.425,12.264L2.887,11.873L2.887,11.619L3.552,11.873L3.757,11.241ZM6.5,14.792L6.706,15.424L7.37,15.17L7.37,15.424L6.833,15.815L7.039,16.191L7.039,16.447L6.5,16.056L5.963,16.447L5.963,16.191L6.169,15.815L5.63,15.424L5.63,15.17L6.296,15.424L6.5,14.792ZM14.767,3.142L14.563,3.774L13.897,3.519L13.897,3.774L14.436,4.164L14.23,4.541L14.23,4.796L14.767,4.406L15.306,4.796L15.306,4.541L15.1,4.164L15.637,3.774L15.637,3.519L14.973,3.774L14.767,3.142ZM17.337,6.769L17.131,7.401L16.467,7.147L16.467,7.401L17.004,7.792L16.798,8.17L16.798,8.424L17.337,8.033L17.874,8.424L17.874,8.17L17.668,7.792L18.207,7.401L18.207,7.147L17.541,7.401L17.337,6.769ZM17.412,11.241L17.207,11.873L16.542,11.619L16.542,11.873L17.08,12.264L16.874,12.642L16.874,12.896L17.412,12.505L17.95,12.896L17.95,12.642L17.744,12.264L18.282,11.873L18.282,11.619L17.617,11.873L17.412,11.241ZM14.669,14.792L14.463,15.424L13.799,15.17L13.799,15.424L14.336,15.815L14.13,16.191L14.13,16.447L14.669,16.056L15.206,16.447L15.206,16.191L15,15.815L15.539,15.424L15.539,15.17L14.873,15.424L14.669,14.792Z" fill="#D38200"/>
<path d="M14.669,14.536L14.873,15.168L15.539,15.168L15,15.559L15.206,16.191L14.669,15.8L14.13,16.191L14.336,15.559L13.799,15.168L14.463,15.168L14.669,14.536ZM17.412,10.987L17.616,11.619L18.282,11.619L17.743,12.01L17.949,12.642L17.412,12.251L16.873,12.642L17.079,12.01L16.542,11.619L17.206,11.619L17.412,10.987ZM17.337,6.515L17.541,7.147L18.207,7.147L17.668,7.538L17.874,8.17L17.337,7.779L16.798,8.17L17.004,7.538L16.467,7.147L17.131,7.147L17.337,6.515ZM14.767,2.886L14.973,3.518L15.637,3.518L15.1,3.908L15.306,4.54L14.767,4.15L14.23,4.54L14.436,3.908L13.897,3.518L14.563,3.518L14.767,2.886Z" fill="#FFF176"/>
<path d="M10.593,16.191L10.798,16.823L11.463,16.569L11.463,16.823L10.925,17.214L11.131,17.592L11.131,17.846L10.593,17.455L10.056,17.846L10.056,17.592L10.261,17.214L9.723,16.823L9.723,16.569L10.388,16.823L10.593,16.191Z" fill="#D38200"/>
<path d="M10.593,15.854L10.798,16.485L11.463,16.485L10.925,16.876L11.131,17.508L10.593,17.117L10.056,17.508L10.261,16.876L9.723,16.485L10.388,16.485L10.593,15.854Z" fill="#FFF176"/>
<path d="M10.593,1.781L10.798,2.413L11.463,2.159L11.463,2.413L10.925,2.804L11.131,3.182L11.131,3.436L10.593,3.045L10.056,3.436L10.056,3.182L10.261,2.804L9.723,2.413L9.723,2.159L10.388,2.413L10.593,1.781Z" fill="#D38200"/>
<path d="M10.593,1.527L10.798,2.159L11.463,2.159L10.925,2.55L11.131,3.182L10.593,2.791L10.055,3.182L10.261,2.55L9.723,2.159L10.388,2.159L10.593,1.527ZM6.5,14.537L6.296,15.169L5.63,15.169L6.169,15.559L5.963,16.191L6.5,15.801L7.039,16.191L6.833,15.559L7.37,15.169L6.706,15.169L6.5,14.537ZM3.757,10.988L3.552,11.62L2.887,11.62L3.425,12.01L3.22,12.642L3.757,12.252L4.295,12.642L4.09,12.01L4.627,11.62L3.963,11.62L3.757,10.988ZM3.832,6.516L3.628,7.148L2.962,7.148L3.501,7.538L3.295,8.17L3.832,7.78L4.371,8.17L4.165,7.538L4.702,7.148L4.038,7.148L3.832,6.516ZM6.402,2.886L6.196,3.518L5.532,3.518L6.069,3.909L5.863,4.541L6.402,4.15L6.939,4.541L6.733,3.909L7.272,3.518L6.606,3.518L6.402,2.886Z" fill="#FFF176"/>
<path d="M15.604,7.46C15.604,7.403 5.572,7.46 5.572,7.46L5.482,7.73L5.482,8.191C5.482,8.275 5.55,8.342 5.634,8.342L15.533,8.342C15.616,8.342 15.684,8.275 15.684,8.191L15.684,7.743L15.604,7.46ZM15.618,13.458L5.614,13.458L4.945,13.794L4.953,14.226C4.955,14.273 4.994,14.312 5.042,14.312L16.126,14.312C16.173,14.312 16.213,14.275 16.215,14.226L16.223,13.802L15.618,13.458Z" fill="#D38200"/>
<path d="M7.227,12.142L6.651,12.142C6.556,12.142 6.479,11.843 6.479,11.748L7.397,11.719C7.397,11.814 7.32,12.142 7.227,12.142ZM7.423,9.036L6.454,9.036C6.381,9.036 6.318,8.988 6.298,8.919L6.222,8.287L7.642,8.287L7.578,8.919C7.558,8.988 7.496,9.036 7.423,9.036ZM6.454,12.333L7.423,12.333C7.496,12.333 7.639,12.378 7.658,12.447C7.658,12.447 7.653,12.748 7.653,12.867C7.653,12.986 7.605,13.073 7.497,13.073L6.38,13.073C6.272,13.073 6.224,12.976 6.224,12.867C6.224,12.758 6.219,12.45 6.219,12.45C6.24,12.381 6.381,12.333 6.454,12.333ZM14.705,12.142L14.129,12.142C14.034,12.142 13.957,11.843 13.957,11.748L14.875,11.719C14.875,11.814 14.799,12.142 14.705,12.142ZM14.901,9.036L13.931,9.036C13.859,9.036 13.796,8.988 13.775,8.919L13.7,8.287L15.119,8.287L15.055,8.919C15.036,8.988 14.973,9.036 14.901,9.036ZM13.931,12.333L14.901,12.333C14.973,12.333 15.116,12.378 15.136,12.447C15.136,12.447 15.131,12.748 15.131,12.867C15.131,12.986 15.082,13.073 14.975,13.073L13.857,13.073C13.749,13.073 13.701,12.976 13.701,12.867C13.701,12.758 13.696,12.45 13.696,12.45C13.717,12.381 13.859,12.333 13.931,12.333ZM12.212,12.142L11.636,12.142C11.541,12.142 11.464,11.843 11.464,11.748L12.382,11.719C12.382,11.814 12.307,12.142 12.212,12.142ZM12.408,9.036L11.439,9.036C11.366,9.036 11.303,8.988 11.283,8.919L11.207,8.287L12.627,8.287L12.563,8.919C12.543,8.988 12.481,9.036 12.408,9.036ZM11.439,12.333L12.408,12.333C12.481,12.333 12.624,12.378 12.643,12.447C12.643,12.447 12.638,12.748 12.638,12.867C12.638,12.986 12.59,13.073 12.482,13.073L11.365,13.073C11.257,13.073 11.209,12.976 11.209,12.867C11.209,12.758 11.204,12.45 11.204,12.45C11.225,12.381 11.366,12.333 11.439,12.333ZM9.72,12.142L9.144,12.142C9.049,12.142 8.972,11.843 8.972,11.748L9.89,11.719C9.89,11.814 9.814,12.142 9.72,12.142ZM9.916,9.036L8.946,9.036C8.874,9.036 8.811,8.988 8.79,8.919L8.714,8.287L10.134,8.287L10.07,8.919C10.051,8.988 9.988,9.036 9.916,9.036ZM8.946,12.333L9.916,12.333C9.988,12.333 10.131,12.378 10.15,12.447C10.15,12.447 10.146,12.748 10.146,12.867C10.146,12.986 10.097,13.073 9.99,13.073L8.872,13.073C8.764,13.073 8.716,12.976 8.716,12.867C8.716,12.758 8.711,12.45 8.711,12.45C8.732,12.381 8.874,12.333 8.946,12.333Z" fill="#D38200"/>
<path d="M15.676,7.028C15.676,6.972 15.647,6.919 15.604,6.893L10.59,4.047L5.569,6.89C5.521,6.919 5.49,6.972 5.49,7.028L5.482,7.731C5.482,7.819 5.555,7.892 5.643,7.892L15.522,7.892C15.61,7.892 15.682,7.819 15.682,7.731L15.676,7.028Z" fill="#FFF176"/>
<path d="M14.417,6.837L10.584,4.661L6.75,6.837L14.417,6.837Z" fill="#F2BC1A"/>
<path d="M13.007,6.572L10.584,5.195L8.16,6.572L13.007,6.572ZM15.31,12.898L5.858,12.898C5.764,12.898 5.676,12.938 5.613,13.007L4.963,13.733C4.918,13.782 4.954,13.861 5.021,13.861L16.146,13.861C16.212,13.861 16.247,13.782 16.204,13.733L15.553,13.007C15.492,12.938 15.401,12.898 15.31,12.898ZM14.705,11.851L14.129,11.851C14.035,11.851 13.957,11.774 13.957,11.679L13.957,9.109C13.957,9.014 14.035,8.937 14.129,8.937L14.705,8.937C14.8,8.937 14.877,9.014 14.877,9.109L14.877,11.681C14.877,11.776 14.8,11.851 14.705,11.851ZM14.903,8.746L13.933,8.746C13.861,8.746 13.798,8.698 13.777,8.629L13.703,8.373C13.673,8.27 13.752,8.167 13.859,8.167L14.977,8.167C15.085,8.167 15.162,8.27 15.133,8.373L15.059,8.629C15.038,8.698 14.974,8.746 14.903,8.746ZM13.932,12.044L14.901,12.044C14.974,12.044 15.036,12.092 15.057,12.161L15.131,12.417C15.162,12.52 15.083,12.623 14.975,12.623L13.858,12.623C13.75,12.623 13.673,12.52 13.702,12.417L13.776,12.161C13.797,12.091 13.861,12.044 13.932,12.044ZM7.228,11.851L6.652,11.851C6.557,11.851 6.48,11.774 6.48,11.679L6.48,9.109C6.48,9.014 6.557,8.937 6.652,8.937L7.228,8.937C7.323,8.937 7.4,9.014 7.4,9.109L7.4,11.681C7.398,11.776 7.321,11.851 7.228,11.851ZM7.424,8.746L6.454,8.746C6.382,8.746 6.319,8.698 6.298,8.629L6.224,8.373C6.194,8.27 6.272,8.167 6.38,8.167L7.498,8.167C7.606,8.167 7.683,8.27 7.654,8.373L7.58,8.629C7.559,8.698 7.496,8.746 7.424,8.746ZM6.454,12.044L7.424,12.044C7.496,12.044 7.559,12.092 7.58,12.161L7.654,12.417C7.684,12.52 7.606,12.623 7.498,12.623L6.38,12.623C6.272,12.623 6.195,12.52 6.224,12.417L6.298,12.161C6.319,12.091 6.382,12.044 6.454,12.044ZM9.72,11.851L9.144,11.851C9.05,11.851 8.972,11.774 8.972,11.679L8.972,9.109C8.972,9.014 9.05,8.937 9.144,8.937L9.72,8.937C9.815,8.937 9.892,9.014 9.892,9.109L9.892,11.681C9.892,11.726 9.873,11.769 9.841,11.801C9.809,11.833 9.766,11.851 9.72,11.851ZM9.916,8.746L8.947,8.746C8.874,8.746 8.812,8.698 8.791,8.629L8.717,8.373C8.686,8.27 8.765,8.167 8.873,8.167L9.99,8.167C10.098,8.167 10.175,8.27 10.146,8.373L10.072,8.629C10.051,8.698 9.989,8.746 9.916,8.746ZM8.947,12.044L9.916,12.044C9.989,12.044 10.051,12.092 10.072,12.161L10.146,12.417C10.177,12.52 10.098,12.623 9.99,12.623L8.873,12.623C8.765,12.623 8.688,12.52 8.717,12.417L8.791,12.161C8.812,12.091 8.874,12.044 8.947,12.044ZM12.213,11.851L11.637,11.851C11.542,11.851 11.465,11.774 11.465,11.679L11.465,9.109C11.465,9.014 11.542,8.937 11.637,8.937L12.213,8.937C12.308,8.937 12.385,9.014 12.385,9.109L12.385,11.681C12.384,11.726 12.366,11.769 12.334,11.801C12.302,11.833 12.258,11.851 12.213,11.851ZM12.409,8.746L11.439,8.746C11.367,8.746 11.304,8.698 11.283,8.629L11.209,8.373C11.179,8.27 11.257,8.167 11.365,8.167L12.483,8.167C12.591,8.167 12.668,8.27 12.639,8.373L12.565,8.629C12.544,8.698 12.481,8.746 12.409,8.746ZM11.439,12.044L12.409,12.044C12.481,12.044 12.544,12.092 12.565,12.161L12.639,12.417C12.669,12.52 12.591,12.623 12.483,12.623L11.365,12.623C11.257,12.623 11.18,12.52 11.209,12.417L11.283,12.161C11.304,12.091 11.368,12.044 11.439,12.044Z" fill="#FFF176"/>
</svg>
