<svg width="40" height="38" viewBox="0 0 40 38" fill="none" xmlns="http://www.w3.org/2000/svg" xmlns:xlink="http://www.w3.org/1999/xlink">
<circle cx="19.333" cy="18.766" r="17.029" fill="#D68F30"/>
<path d="M3.461,23.189L3.461,24.929C3.639,25.389 3.838,25.844 4.055,26.283L4.055,23.189L3.461,23.189ZM5.402,26.464L5.402,28.554C5.64,28.889 5.886,29.219 6.145,29.537L6.145,26.464L5.402,26.464ZM7.973,29.195L7.973,31.449C8.261,31.707 8.558,31.953 8.864,32.191L8.864,29.195L7.973,29.195ZM11.138,31.27L11.138,33.693C11.429,33.853 11.726,34.005 12.029,34.15L12.029,31.27L11.138,31.27ZM14.727,32.592L14.727,35.157C15.021,35.24 15.318,35.314 15.618,35.382L15.618,32.592L14.727,32.592ZM18.928,33.049L18.928,35.783C19.062,35.786 19.195,35.792 19.332,35.792C19.495,35.792 19.658,35.783 19.819,35.78L19.819,33.049L18.928,33.049ZM23.129,32.571L23.129,35.361C23.429,35.293 23.726,35.216 24.02,35.133L24.02,32.571L23.129,32.571ZM26.709,31.232L26.709,34.114C27.012,33.969 27.309,33.812 27.6,33.648L27.6,31.232L26.709,31.232ZM29.865,29.139L29.865,32.137C30.171,31.898 30.468,31.649 30.756,31.389L30.756,29.139L29.865,29.139ZM33.312,26.399L32.57,26.399L32.57,29.471C32.828,29.151 33.077,28.821 33.312,28.483L33.312,26.399ZM35.241,23.112L34.648,23.112L34.648,26.212C34.864,25.763 35.063,25.303 35.241,24.837L35.241,23.112Z" fill="#BC6F00"/>
<circle cx="19.333" cy="17.234" r="17.029" fill="#FFF176"/>
<circle cx="19.332" cy="17.234" r="15.512" fill="#F2BC1A"/>
<path d="M3.791,17.829C3.681,15.786 4.035,13.714 4.747,11.772C5.489,9.837 6.626,8.046 8.06,6.526C10.94,3.481 15.12,1.714 19.333,1.693C23.545,1.717 27.728,3.481 30.602,6.529C32.039,8.046 33.173,9.84 33.915,11.772C34.63,13.717 34.984,15.786 34.871,17.829L34.812,17.829C34.806,15.791 34.402,13.774 33.624,11.891C32.844,10.01 31.706,8.299 30.272,6.853C28.838,5.409 27.133,4.261 25.255,3.475C23.378,2.691 21.364,2.287 19.33,2.287C17.295,2.287 15.281,2.691 13.404,3.475C11.526,4.261 9.821,5.409 8.387,6.853C6.952,8.298 5.814,10.009 5.035,11.891C4.257,13.774 3.853,15.791 3.848,17.829L3.791,17.829Z" fill="#E08F00"/>
<path d="M19.333,0.209C9.928,0.209 2.305,7.833 2.305,17.238C2.305,26.643 9.928,34.267 19.333,34.267C28.738,34.267 36.362,26.643 36.362,17.238C36.362,7.833 28.738,0.209 19.333,0.209ZM19.333,32.749C10.766,32.749 3.822,25.806 3.822,17.238C3.822,8.667 10.766,1.723 19.333,1.723C27.901,1.723 34.845,8.667 34.845,17.235C34.845,25.803 27.901,32.749 19.333,32.749Z" fill="#FFF176"/>
<path d="M11.611,5.338L11.988,6.505L13.217,6.036L13.217,6.505L12.222,7.226L12.602,7.921L12.602,8.393L11.611,7.671L10.616,8.393L10.616,7.921L10.996,7.226L10.005,6.505L10.005,6.036L11.231,6.505L11.611,5.338ZM6.867,12.035L7.247,13.202L8.473,12.733L8.473,13.202L7.481,13.924L7.861,14.621L7.861,15.09L6.867,14.369L5.875,15.09L5.875,14.621L6.255,13.924L5.261,13.202L5.261,12.733L6.49,13.202L6.867,12.035ZM6.727,20.291L7.107,21.458L8.333,20.989L8.333,21.458L7.342,22.18L7.722,22.877L7.722,23.346L6.727,22.625L5.736,23.346L5.736,22.877L6.116,22.18L5.121,21.458L5.121,20.989L6.35,21.458L6.727,20.291ZM11.792,26.846L12.172,28.013L13.398,27.544L13.398,28.013L12.406,28.735L12.786,29.429L12.786,29.901L11.792,29.18L10.8,29.901L10.8,29.429L11.18,28.735L10.186,28.013L10.186,27.544L11.415,28.013L11.792,26.846ZM27.054,5.338L26.677,6.505L25.448,6.036L25.448,6.505L26.443,7.226L26.063,7.921L26.063,8.393L27.054,7.671L28.049,8.393L28.049,7.921L27.669,7.226L28.66,6.505L28.66,6.036L27.434,6.505L27.054,5.338ZM31.798,12.035L31.418,13.202L30.192,12.733L30.192,13.202L31.184,13.924L30.804,14.621L30.804,15.09L31.798,14.369L32.79,15.09L32.79,14.621L32.41,13.924L33.404,13.202L33.404,12.733L32.175,13.202L31.798,12.035ZM31.938,20.291L31.558,21.458L30.332,20.989L30.332,21.458L31.323,22.18L30.943,22.877L30.943,23.346L31.938,22.625L32.929,23.346L32.929,22.877L32.549,22.18L33.544,21.458L33.544,20.989L32.315,21.458L31.938,20.291ZM26.873,26.846L26.493,28.013L25.267,27.544L25.267,28.013L26.259,28.735L25.879,29.429L25.879,29.901L26.873,29.18L27.865,29.901L27.865,29.429L27.485,28.735L28.479,28.013L28.479,27.544L27.25,28.013L26.873,26.846Z" fill="#D38200"/>
<path d="M26.874,26.375L27.251,27.542L28.48,27.542L27.485,28.263L27.865,29.43L26.874,28.708L25.879,29.43L26.259,28.263L25.268,27.542L26.494,27.542L26.874,26.375ZM31.938,19.823L32.315,20.989L33.544,20.989L32.55,21.711L32.93,22.878L31.938,22.156L30.944,22.878L31.324,21.711L30.332,20.989L31.558,20.989L31.938,19.823ZM31.799,11.567L32.176,12.733L33.405,12.733L32.41,13.455L32.79,14.622L31.799,13.9L30.804,14.622L31.184,13.455L30.193,12.733L31.419,12.733L31.799,11.567ZM27.055,4.866L27.435,6.033L28.661,6.033L27.669,6.754L28.049,7.921L27.055,7.2L26.063,7.921L26.443,6.754L25.449,6.033L26.678,6.033L27.055,4.866Z" fill="#FFF176"/>
<path d="M19.348,29.43L19.728,30.596L20.954,30.127L20.954,30.596L19.963,31.318L20.343,32.015L20.343,32.485L19.348,31.763L18.357,32.485L18.357,32.015L18.737,31.318L17.742,30.596L17.742,30.127L18.971,30.596L19.348,29.43Z" fill="#D38200"/>
<path d="M19.348,28.807L19.728,29.973L20.954,29.973L19.963,30.695L20.343,31.861L19.348,31.14L18.357,31.861L18.737,30.695L17.742,29.973L18.971,29.973L19.348,28.807Z" fill="#FFF176"/>
<path d="M19.348,2.827L19.728,3.994L20.954,3.525L20.954,3.994L19.963,4.715L20.343,5.413L20.343,5.882L19.348,5.161L18.357,5.882L18.357,5.413L18.737,4.715L17.742,3.994L17.742,3.525L18.971,3.994L19.348,2.827Z" fill="#D38200"/>
<path d="M19.347,2.357L19.727,3.524L20.953,3.524L19.962,4.246L20.342,5.412L19.347,4.691L18.356,5.412L18.736,4.246L17.741,3.524L18.97,3.524L19.347,2.357ZM11.792,26.375L11.415,27.541L10.186,27.541L11.18,28.263L10.8,29.429L11.792,28.708L12.786,29.429L12.406,28.263L13.398,27.541L12.172,27.541L11.792,26.375ZM6.727,19.823L6.35,20.989L5.121,20.989L6.116,21.711L5.736,22.877L6.727,22.156L7.722,22.877L7.342,21.711L8.333,20.989L7.107,20.989L6.727,19.823ZM6.867,11.566L6.49,12.733L5.261,12.733L6.255,13.455L5.875,14.621L6.867,13.9L7.861,14.621L7.481,13.455L8.473,12.733L7.247,12.733L6.867,11.566ZM11.611,4.866L11.231,6.033L10.005,6.033L10.996,6.754L10.616,7.921L11.611,7.199L12.602,7.921L12.222,6.754L13.217,6.033L11.988,6.033L11.611,4.866Z" fill="#FFF176"/>
<path d="M28.601,13.31C28.601,13.206 10.082,13.31 10.082,13.31L9.915,13.809L9.915,14.661C9.915,14.815 10.04,14.94 10.194,14.94L28.47,14.94C28.624,14.94 28.749,14.815 28.749,14.661L28.749,13.832L28.601,13.31ZM28.627,24.383L10.159,24.383L8.924,25.004L8.939,25.802C8.942,25.888 9.013,25.96 9.102,25.96L29.566,25.96C29.652,25.96 29.726,25.891 29.729,25.802L29.744,25.019L28.627,24.383Z" fill="#D38200"/>
<path d="M13.135,21.954L12.072,21.954C11.897,21.954 11.754,21.402 11.754,21.227L13.45,21.173C13.45,21.348 13.307,21.954 13.135,21.954ZM13.497,16.221L11.707,16.221C11.573,16.221 11.457,16.132 11.419,16.005L11.279,14.838L13.901,14.838L13.782,16.005C13.746,16.132 13.631,16.221 13.497,16.221ZM11.707,22.307L13.497,22.307C13.631,22.307 13.895,22.39 13.93,22.518C13.93,22.518 13.922,23.073 13.922,23.293C13.922,23.513 13.832,23.673 13.634,23.673L11.57,23.673C11.371,23.673 11.282,23.495 11.282,23.293C11.282,23.091 11.273,22.524 11.273,22.524C11.312,22.396 11.573,22.307 11.707,22.307ZM26.94,21.954L25.877,21.954C25.702,21.954 25.559,21.402 25.559,21.227L27.254,21.173C27.254,21.348 27.115,21.954 26.94,21.954ZM27.302,16.221L25.512,16.221C25.378,16.221 25.262,16.132 25.224,16.005L25.084,14.838L27.705,14.838L27.587,16.005C27.551,16.132 27.435,16.221 27.302,16.221ZM25.512,22.307L27.302,22.307C27.435,22.307 27.7,22.39 27.735,22.518C27.735,22.518 27.726,23.073 27.726,23.293C27.726,23.513 27.637,23.673 27.438,23.673L25.375,23.673C25.176,23.673 25.087,23.495 25.087,23.293C25.087,23.091 25.078,22.524 25.078,22.524C25.117,22.396 25.378,22.307 25.512,22.307ZM22.338,21.954L21.275,21.954C21.1,21.954 20.957,21.402 20.957,21.227L22.653,21.173C22.653,21.348 22.513,21.954 22.338,21.954ZM22.7,16.221L20.91,16.221C20.776,16.221 20.661,16.132 20.622,16.005L20.482,14.838L23.104,14.838L22.985,16.005C22.95,16.132 22.834,16.221 22.7,16.221ZM20.91,22.307L22.7,22.307C22.834,22.307 23.098,22.39 23.134,22.518C23.134,22.518 23.125,23.073 23.125,23.293C23.125,23.513 23.036,23.673 22.837,23.673L20.773,23.673C20.575,23.673 20.485,23.495 20.485,23.293C20.485,23.091 20.477,22.524 20.477,22.524C20.515,22.396 20.776,22.307 20.91,22.307ZM17.736,21.954L16.674,21.954C16.498,21.954 16.356,21.402 16.356,21.227L18.051,21.173C18.051,21.348 17.912,21.954 17.736,21.954ZM18.099,16.221L16.308,16.221C16.175,16.221 16.059,16.132 16.02,16.005L15.881,14.838L18.502,14.838L18.384,16.005C18.348,16.132 18.232,16.221 18.099,16.221ZM16.308,22.307L18.099,22.307C18.232,22.307 18.496,22.39 18.532,22.518C18.532,22.518 18.523,23.073 18.523,23.293C18.523,23.513 18.434,23.673 18.235,23.673L16.172,23.673C15.973,23.673 15.884,23.495 15.884,23.293C15.884,23.091 15.875,22.524 15.875,22.524C15.914,22.396 16.175,22.307 16.308,22.307Z" fill="#D38200"/>
<path d="M28.735,12.514C28.735,12.41 28.681,12.312 28.601,12.264L19.345,7.01L10.076,12.259C9.987,12.312 9.931,12.41 9.931,12.514L9.916,13.811C9.916,13.974 10.05,14.108 10.213,14.108L28.45,14.108C28.613,14.108 28.747,13.974 28.747,13.811L28.735,12.514Z" fill="#FFF176"/>
<path d="M26.409,12.16L19.331,8.144L12.254,12.16L26.409,12.16Z" fill="#F2BC1A"/>
<path d="M23.807,11.671L19.333,9.13L14.859,11.671L23.807,11.671ZM28.058,23.35L10.608,23.35C10.436,23.35 10.272,23.424 10.156,23.552L8.957,24.891C8.874,24.983 8.939,25.128 9.064,25.128L29.602,25.128C29.724,25.128 29.789,24.983 29.709,24.891L28.506,23.552C28.394,23.424 28.227,23.35 28.058,23.35ZM26.942,21.418L25.879,21.418C25.704,21.418 25.561,21.275 25.561,21.1L25.561,16.356C25.561,16.181 25.704,16.038 25.879,16.038L26.942,16.038C27.117,16.038 27.259,16.181 27.259,16.356L27.259,21.103C27.259,21.278 27.117,21.418 26.942,21.418ZM27.307,15.685L25.517,15.685C25.383,15.685 25.267,15.596 25.229,15.468L25.092,14.996C25.036,14.806 25.181,14.616 25.38,14.616L27.444,14.616C27.642,14.616 27.785,14.806 27.731,14.996L27.595,15.468C27.556,15.596 27.438,15.685 27.307,15.685ZM25.514,21.774L27.304,21.774C27.438,21.774 27.553,21.863 27.592,21.991L27.729,22.463C27.785,22.653 27.639,22.843 27.441,22.843L25.377,22.843C25.178,22.843 25.036,22.653 25.089,22.463L25.226,21.991C25.264,21.86 25.383,21.774 25.514,21.774ZM13.137,21.418L12.074,21.418C11.899,21.418 11.757,21.275 11.757,21.1L11.757,16.356C11.757,16.181 11.899,16.038 12.074,16.038L13.137,16.038C13.312,16.038 13.455,16.181 13.455,16.356L13.455,21.103C13.452,21.278 13.309,21.418 13.137,21.418ZM13.499,15.685L11.709,15.685C11.576,15.685 11.46,15.596 11.421,15.468L11.285,14.996C11.228,14.806 11.374,14.616 11.573,14.616L13.636,14.616C13.835,14.616 13.977,14.806 13.924,14.996L13.787,15.468C13.749,15.596 13.633,15.685 13.499,15.685ZM11.709,21.774L13.499,21.774C13.633,21.774 13.749,21.863 13.787,21.991L13.924,22.463C13.98,22.653 13.835,22.843 13.636,22.843L11.573,22.843C11.374,22.843 11.231,22.653 11.285,22.463L11.421,21.991C11.46,21.86 11.576,21.774 11.709,21.774ZM17.739,21.418L16.676,21.418C16.501,21.418 16.358,21.275 16.358,21.1L16.358,16.356C16.358,16.181 16.501,16.038 16.676,16.038L17.739,16.038C17.914,16.038 18.056,16.181 18.056,16.356L18.056,21.103C18.056,21.187 18.022,21.267 17.962,21.326C17.903,21.384 17.822,21.418 17.739,21.418ZM18.101,15.685L16.311,15.685C16.177,15.685 16.061,15.596 16.023,15.468L15.886,14.996C15.83,14.806 15.975,14.616 16.174,14.616L18.237,14.616C18.436,14.616 18.579,14.806 18.525,14.996L18.389,15.468C18.35,15.596 18.234,15.685 18.101,15.685ZM16.311,21.774L18.101,21.774C18.234,21.774 18.35,21.863 18.389,21.991L18.525,22.463C18.582,22.653 18.436,22.843 18.237,22.843L16.174,22.843C15.975,22.843 15.833,22.653 15.886,22.463L16.023,21.991C16.061,21.86 16.177,21.774 16.311,21.774ZM22.34,21.418L21.277,21.418C21.102,21.418 20.96,21.275 20.96,21.1L20.96,16.356C20.96,16.181 21.102,16.038 21.277,16.038L22.34,16.038C22.515,16.038 22.658,16.181 22.658,16.356L22.658,21.103C22.657,21.187 22.623,21.267 22.564,21.326C22.504,21.384 22.424,21.418 22.34,21.418ZM22.702,15.685L20.912,15.685C20.779,15.685 20.663,15.596 20.624,15.468L20.488,14.996C20.431,14.806 20.577,14.616 20.776,14.616L22.839,14.616C23.038,14.616 23.18,14.806 23.127,14.996L22.99,15.468C22.952,15.596 22.836,15.685 22.702,15.685ZM20.912,21.774L22.702,21.774C22.836,21.774 22.952,21.863 22.99,21.991L23.127,22.463C23.183,22.653 23.038,22.843 22.839,22.843L20.776,22.843C20.577,22.843 20.434,22.653 20.488,22.463L20.624,21.991C20.663,21.86 20.782,21.774 20.912,21.774Z" fill="#FFF176"/>
</svg>
