<svg width="64" height="64" viewBox="0 0 64 64" fill="none" xmlns="http://www.w3.org/2000/svg" xmlns:xlink="http://www.w3.org/1999/xlink">
<path d="M55.667,32C55.667,45.623 44.623,56.666 31,56.666L31,60.666C46.832,60.666 59.667,47.832 59.667,32L55.667,32ZM31,56.666C17.377,56.666 6.333,45.623 6.333,32L2.333,32C2.333,47.832 15.168,60.666 31,60.666L31,56.666ZM6.333,32C6.333,18.377 17.377,7.333 31,7.333L31,3.333C15.168,3.333 2.333,16.168 2.333,32L6.333,32ZM31,7.333C44.623,7.333 55.667,18.377 55.667,32L59.667,32C59.667,16.168 46.832,3.333 31,3.333L31,7.333Z" fill="#010101"/>
<line x1="20.333" y1="30" x2="41.667" y2="30" stroke="#010101" stroke-width="2" stroke-miterlimit="3.999327" stroke-linecap="round" stroke-linejoin="round"/>
</svg>
