<svg width="50" height="48" viewBox="0 0 50 48" fill="none" xmlns="http://www.w3.org/2000/svg" xmlns:xlink="http://www.w3.org/1999/xlink">
<path d="M5,8C5,6.895 4.105,6 3,6C1.895,6 1,6.895 1,8L5,8ZM3,20L1,20C1,21.105 1.895,22 3,22L3,20ZM15,22C16.105,22 17,21.105 17,20C17,18.895 16.105,18 15,18L15,22ZM1,8L1,20L5,20L5,8L1,8ZM3,22L15,22L15,18L3,18L3,22Z" fill="#5C5C5C"/>
<path d="M9.906,29.336C9.539,28.295 8.397,27.748 7.355,28.115C6.314,28.482 5.767,29.624 6.134,30.666L9.906,29.336ZM12.28,11.281L13.65,12.738C13.664,12.725 13.679,12.711 13.693,12.696L12.28,11.281ZM1.63,18.543C0.825,19.3 0.786,20.565 1.542,21.37C2.299,22.175 3.565,22.215 4.37,21.458L1.63,18.543ZM6.134,30.666C7.575,34.755 10.305,38.266 13.915,40.669L16.132,37.339C13.244,35.417 11.059,32.608 9.906,29.336L6.134,30.666ZM13.915,40.669C17.525,43.071 21.817,44.236 26.146,43.987L25.917,39.993C22.453,40.193 19.019,39.261 16.132,37.339L13.915,40.669ZM26.146,43.987C30.475,43.737 34.606,42.088 37.916,39.287L35.332,36.234C32.684,38.474 29.38,39.794 25.917,39.993L26.146,43.987ZM37.916,39.287C41.226,36.486 43.536,32.685 44.499,28.457L40.598,27.57C39.829,30.952 37.98,33.993 35.332,36.234L37.916,39.287ZM44.499,28.457C45.461,24.229 45.023,19.803 43.251,15.846L39.6,17.48C41.018,20.646 41.368,24.187 40.598,27.57L44.499,28.457ZM43.251,15.846C41.478,11.888 38.468,8.614 34.673,6.516L32.738,10.017C35.774,11.695 38.182,14.314 39.6,17.48L43.251,15.846ZM34.673,6.516C30.878,4.418 26.505,3.61 22.211,4.215L22.768,8.176C26.203,7.692 29.702,8.338 32.738,10.017L34.673,6.516ZM22.211,4.215C17.917,4.819 13.936,6.802 10.867,9.865L13.693,12.696C16.148,10.245 19.333,8.659 22.768,8.176L22.211,4.215ZM10.91,9.823L1.63,18.543L4.37,21.458L13.65,12.738L10.91,9.823Z" fill="#5C5C5C"/>
</svg>
