<svg width="48" height="50" viewBox="0 0 48 50" fill="none" xmlns="http://www.w3.org/2000/svg" xmlns:xlink="http://www.w3.org/1999/xlink">
<path d="M36,23C36,30.732 29.732,37 22,37L22,41C31.941,41 40,32.941 40,23L36,23ZM22,37C14.268,37 8,30.732 8,23L4,23C4,32.941 12.059,41 22,41L22,37ZM8,23C8,15.268 14.268,9 22,9L22,5C12.059,5 4,13.059 4,23L8,23ZM22,9C29.732,9 36,15.268 36,23L40,23C40,13.059 31.941,5 22,5L22,9Z" fill="#010101"/>
<path d="M40.586,44.414C41.367,45.195 42.633,45.195 43.414,44.414C44.195,43.633 44.195,42.367 43.414,41.586L40.586,44.414ZM34.714,32.886C33.933,32.105 32.667,32.105 31.886,32.886C31.105,33.667 31.105,34.933 31.886,35.714L34.714,32.886ZM43.414,41.586L34.714,32.886L31.886,35.714L40.586,44.414L43.414,41.586Z" fill="#010101"/>
</svg>
