<svg width="36" height="36" viewBox="0 0 36 36" fill="none" xmlns="http://www.w3.org/2000/svg" xmlns:xlink="http://www.w3.org/1999/xlink">
<path d="M26,16.5C26,22.299 21.299,27 15.5,27L15.5,30C22.956,30 29,23.956 29,16.5L26,16.5ZM15.5,27C9.701,27 5,22.299 5,16.5L2,16.5C2,23.956 8.044,30 15.5,30L15.5,27ZM5,16.5C5,10.701 9.701,6 15.5,6L15.5,3C8.044,3 2,9.044 2,16.5L5,16.5ZM15.5,6C21.299,6 26,10.701 26,16.5L29,16.5C29,9.044 22.956,3 15.5,3L15.5,6Z" fill="#5C5C5C"/>
<path d="M29.439,32.56C30.025,33.146 30.975,33.146 31.561,32.56C32.146,31.974 32.146,31.025 31.561,30.439L29.439,32.56ZM25.036,23.914C24.45,23.328 23.5,23.328 22.914,23.914C22.328,24.5 22.328,25.449 22.914,26.035L25.036,23.914ZM31.561,30.439L25.036,23.914L22.914,26.035L29.439,32.56L31.561,30.439Z" fill="#5C5C5C"/>
</svg>
