<svg width="36" height="36" viewBox="0 0 36 36" fill="none" xmlns="http://www.w3.org/2000/svg" xmlns:xlink="http://www.w3.org/1999/xlink">
<path d="M27,15.5C27,21.299 22.299,26 16.5,26L16.5,29C23.956,29 30,22.956 30,15.5L27,15.5ZM16.5,26C10.701,26 6,21.299 6,15.5L3,15.5C3,22.956 9.044,29 16.5,29L16.5,26ZM6,15.5C6,9.701 10.701,5 16.5,5L16.5,2C9.044,2 3,8.044 3,15.5L6,15.5ZM16.5,5C22.299,5 27,9.701 27,15.5L30,15.5C30,8.044 23.956,2 16.5,2L16.5,5Z" fill="#010101"/>
<path d="M30.439,31.561C31.025,32.147 31.974,32.147 32.56,31.561C33.146,30.975 33.146,30.025 32.56,29.439L30.439,31.561ZM26.035,22.914C25.449,22.329 24.5,22.329 23.914,22.914C23.328,23.5 23.328,24.45 23.914,25.036L26.035,22.914ZM32.56,29.439L26.035,22.914L23.914,25.036L30.439,31.561L32.56,29.439Z" fill="#010101"/>
</svg>
