<svg width="36" height="36" viewBox="0 0 36 36" fill="none" xmlns="http://www.w3.org/2000/svg" xmlns:xlink="http://www.w3.org/1999/xlink">
<path d="M26,15.5C26,21.299 21.299,26 15.5,26L15.5,29C22.956,29 29,22.956 29,15.5L26,15.5ZM15.5,26C9.701,26 5,21.299 5,15.5L2,15.5C2,22.956 8.044,29 15.5,29L15.5,26ZM5,15.5C5,9.701 9.701,5 15.5,5L15.5,2C8.044,2 2,8.044 2,15.5L5,15.5ZM15.5,5C21.299,5 26,9.701 26,15.5L29,15.5C29,8.044 22.956,2 15.5,2L15.5,5Z" fill="#010101"/>
<path d="M29.439,31.56C30.025,32.146 30.974,32.146 31.56,31.56C32.146,30.974 32.146,30.025 31.56,29.439L29.439,31.56ZM25.035,22.914C24.449,22.328 23.5,22.328 22.914,22.914C22.328,23.5 22.328,24.449 22.914,25.035L25.035,22.914ZM31.56,29.439L25.035,22.914L22.914,25.035L29.439,31.56L31.56,29.439Z" fill="#010101"/>
</svg>
