<svg width="48" height="48" viewBox="0 0 48 48" fill="none" xmlns="http://www.w3.org/2000/svg" xmlns:xlink="http://www.w3.org/1999/xlink">
<path d="M36,21C36,28.732 29.732,35 22,35L22,39C31.941,39 40,30.941 40,21L36,21ZM22,35C14.268,35 8,28.732 8,21L4,21C4,30.941 12.059,39 22,39L22,35ZM8,21C8,13.268 14.268,7 22,7L22,3C12.059,3 4,11.059 4,21L8,21ZM22,7C29.732,7 36,13.268 36,21L40,21C40,11.059 31.941,3 22,3L22,7Z" fill="#010101"/>
<path d="M40.587,42.414C41.368,43.195 42.634,43.195 43.415,42.414C44.196,41.633 44.196,40.367 43.415,39.586L40.587,42.414ZM34.715,30.886C33.934,30.105 32.668,30.105 31.887,30.886C31.106,31.667 31.106,32.933 31.887,33.714L34.715,30.886ZM43.415,39.586L34.715,30.886L31.887,33.714L40.587,42.414L43.415,39.586Z" fill="#010101"/>
</svg>
