<svg width="48" height="48" viewBox="0 0 48 48" fill="none" xmlns="http://www.w3.org/2000/svg" xmlns:xlink="http://www.w3.org/1999/xlink">
<path d="M36,21C36,28.732 29.732,35 22,35L22,39C31.941,39 40,30.941 40,21L36,21ZM22,35C14.268,35 8,28.732 8,21L4,21C4,30.941 12.059,39 22,39L22,35ZM8,21C8,13.268 14.268,7 22,7L22,3C12.059,3 4,11.059 4,21L8,21ZM22,7C29.732,7 36,13.268 36,21L40,21C40,11.059 31.941,3 22,3L22,7Z" fill="#010101"/>
<path d="M40.587,42.415C41.368,43.196 42.634,43.196 43.415,42.415C44.196,41.634 44.196,40.368 43.415,39.587L40.587,42.415ZM34.715,30.887C33.934,30.106 32.668,30.106 31.887,30.887C31.106,31.668 31.106,32.934 31.887,33.715L34.715,30.887ZM43.415,39.587L34.715,30.887L31.887,33.715L40.587,42.415L43.415,39.587Z" fill="#010101"/>
</svg>
