<svg width="36" height="36" viewBox="0 0 36 36" fill="none" xmlns="http://www.w3.org/2000/svg" xmlns:xlink="http://www.w3.org/1999/xlink">
<path d="M27,16.5C27,22.299 22.299,27 16.5,27L16.5,30C23.956,30 30,23.956 30,16.5L27,16.5ZM16.5,27C10.701,27 6,22.299 6,16.5L3,16.5C3,23.956 9.044,30 16.5,30L16.5,27ZM6,16.5C6,10.701 10.701,6 16.5,6L16.5,3C9.044,3 3,9.044 3,16.5L6,16.5ZM16.5,6C22.299,6 27,10.701 27,16.5L30,16.5C30,9.044 23.956,3 16.5,3L16.5,6Z" fill="#5C5C5C"/>
<path d="M30.439,32.56C31.025,33.146 31.974,33.146 32.56,32.56C33.146,31.974 33.146,31.025 32.56,30.439L30.439,32.56ZM26.035,23.914C25.449,23.328 24.5,23.328 23.914,23.914C23.328,24.5 23.328,25.449 23.914,26.035L26.035,23.914ZM32.56,30.439L26.035,23.914L23.914,26.035L30.439,32.56L32.56,30.439Z" fill="#5C5C5C"/>
</svg>
