<svg width="22" height="22" viewBox="0 0 22 22" fill="none" xmlns="http://www.w3.org/2000/svg" xmlns:xlink="http://www.w3.org/1999/xlink">
<path d="M0.098,18.362C-0.524,18.984 -0.537,20.089 0.11,20.736C0.771,21.384 1.875,21.371 2.484,20.762L10,13.246L17.503,20.749C18.138,21.384 19.229,21.384 19.877,20.736C20.524,20.076 20.524,18.997 19.89,18.362L12.387,10.859L19.89,3.344C20.524,2.709 20.537,1.617 19.877,0.97C19.229,0.322 18.138,0.322 17.503,0.957L10,8.46L2.484,0.957C1.875,0.335 0.758,0.309 0.11,0.97C-0.537,1.617 -0.524,2.734 0.098,3.344L7.601,10.859L0.098,18.362Z" fill="#5C5C5C"/>
</svg>
