<svg width="36" height="32" viewBox="0 0 36 32" fill="none" xmlns="http://www.w3.org/2000/svg" xmlns:xlink="http://www.w3.org/1999/xlink">
<path d="M0.51,14.603C0.51,15.204 0.979,15.775 1.77,15.775C2.18,15.775 2.517,15.555 2.824,15.306L17.487,3.002C17.81,2.709 18.205,2.709 18.527,3.002L33.19,15.306C33.483,15.555 33.82,15.775 34.231,15.775C34.919,15.775 35.476,15.35 35.476,14.647C35.476,14.208 35.329,13.915 35.022,13.651L30.92,10.194L30.92,4.335C30.92,3.69 30.51,3.28 29.865,3.28L28.298,3.28C27.668,3.28 27.243,3.69 27.243,4.335L27.243,7.103L19.772,0.834C18.688,-0.089 17.341,-0.089 16.242,0.834L0.979,13.651C0.656,13.915 0.51,14.266 0.51,14.603ZM5.08,27.684C5.08,29.706 6.311,30.907 8.376,30.907L27.639,30.907C29.704,30.907 30.92,29.706 30.92,27.684L30.92,16.068L18.879,5.975C18.322,5.507 17.663,5.521 17.121,5.975L5.08,16.068L5.08,27.684ZM21.779,28.549L14.221,28.549L14.221,18.866C14.221,18.192 14.675,17.753 15.349,17.753L20.666,17.753C21.34,17.753 21.779,18.192 21.779,18.866L21.779,28.549Z" fill="#000000"/>
</svg>
