<svg width="22" height="22" viewBox="0 0 22 22" fill="none" xmlns="http://www.w3.org/2000/svg" xmlns:xlink="http://www.w3.org/1999/xlink">
<path d="M0.099,18.362C-0.523,18.984 -0.536,20.089 0.111,20.736C0.771,21.384 1.876,21.371 2.485,20.762L10.001,13.246L17.504,20.749C18.139,21.384 19.23,21.384 19.878,20.736C20.525,20.076 20.525,18.997 19.891,18.362L12.388,10.859L19.891,3.344C20.525,2.709 20.538,1.617 19.878,0.97C19.23,0.322 18.139,0.322 17.504,0.957L10.001,8.46L2.485,0.957C1.876,0.335 0.759,0.309 0.111,0.97C-0.536,1.617 -0.523,2.734 0.099,3.344L7.602,10.859L0.099,18.362Z" fill="#3C3C43" fill-opacity="0.6"/>
</svg>
