<svg width="16" height="28" viewBox="0 0 16 28" fill="none" xmlns="http://www.w3.org/2000/svg" xmlns:xlink="http://www.w3.org/1999/xlink">
<path d="M16,14C15.984,13.453 15.781,12.984 15.359,12.563L3.203,0.672C2.844,0.328 2.422,0.141 1.906,0.141C0.859,0.141 0.047,0.953 0.047,2C0.047,2.5 0.25,2.969 0.609,3.328L11.547,14L0.609,24.672C0.25,25.031 0.047,25.484 0.047,26C0.047,27.047 0.859,27.859 1.906,27.859C2.406,27.859 2.844,27.672 3.203,27.328L15.359,15.422C15.797,15.016 16,14.547 16,14Z" fill="#3C3C43" fill-opacity="0.6"/>
</svg>
