<svg width="30" height="32" viewBox="0 0 30 32" fill="none" xmlns="http://www.w3.org/2000/svg" xmlns:xlink="http://www.w3.org/1999/xlink">
<path d="M22.292,10.048L27.8,6.913C27.58,6.693 27.316,6.518 26.994,6.342L16.652,0.453C15.759,-0.06 14.865,-0.338 14.001,-0.338C13.122,-0.338 12.229,-0.06 11.335,0.453L8.361,2.138L22.292,10.048ZM14.001,14.75L20.256,11.205L6.384,3.28L1.008,6.342C0.686,6.518 0.422,6.693 0.188,6.913L14.001,14.75ZM14.997,31.537C15.1,31.508 15.187,31.464 15.29,31.405L26.76,24.872C28.122,24.096 28.854,23.305 28.854,21.181L28.854,9.77C28.854,9.33 28.825,8.979 28.737,8.656L14.997,16.508L14.997,31.537ZM12.99,31.537L12.99,16.508L-0.75,8.656C-0.838,8.979 -0.867,9.33 -0.867,9.77L-0.867,21.181C-0.867,23.305 -0.12,24.096 1.228,24.872L12.712,31.405C12.8,31.464 12.888,31.508 12.99,31.537Z" fill="#000000"/>
</svg>
