<svg width="30" height="32" viewBox="0 0 30 32" fill="none" xmlns="http://www.w3.org/2000/svg" xmlns:xlink="http://www.w3.org/1999/xlink">
<path d="M22.291,10.048L27.799,6.913C27.579,6.693 27.315,6.518 26.993,6.342L16.651,0.453C15.758,-0.06 14.864,-0.338 14,-0.338C13.121,-0.338 12.228,-0.06 11.334,0.453L8.36,2.138L22.291,10.048ZM14,14.75L20.255,11.205L6.383,3.28L1.007,6.342C0.685,6.518 0.421,6.693 0.187,6.913L14,14.75ZM14.996,31.537C15.099,31.508 15.187,31.464 15.289,31.405L26.759,24.872C28.121,24.096 28.853,23.305 28.853,21.181L28.853,9.77C28.853,9.33 28.824,8.979 28.736,8.656L14.996,16.508L14.996,31.537ZM12.989,31.537L12.989,16.508L-0.751,8.656C-0.839,8.979 -0.868,9.33 -0.868,9.77L-0.868,21.181C-0.868,23.305 -0.121,24.096 1.227,24.872L12.711,31.405C12.799,31.464 12.887,31.508 12.989,31.537Z" fill="#010101"/>
</svg>
