<svg width="48" height="48" viewBox="0 0 48 48" fill="none" xmlns="http://www.w3.org/2000/svg" xmlns:xlink="http://www.w3.org/1999/xlink">
<path d="M39,9C39,11.209 37.209,13 35,13L35,17C39.418,17 43,13.418 43,9L39,9ZM35,13C32.791,13 31,11.209 31,9L27,9C27,13.418 30.582,17 35,17L35,13ZM31,9C31,6.791 32.791,5 35,5L35,1C30.582,1 27,4.582 27,9L31,9ZM35,5C37.209,5 39,6.791 39,9L43,9C43,4.582 39.418,1 35,1L35,5Z" fill="#FFFFFF"/>
<path d="M15,23C15,25.209 13.209,27 11,27L11,31C15.418,31 19,27.418 19,23L15,23ZM11,27C8.791,27 7,25.209 7,23L3,23C3,27.418 6.582,31 11,31L11,27ZM7,23C7,20.791 8.791,19 11,19L11,15C6.582,15 3,18.582 3,23L7,23ZM11,19C13.209,19 15,20.791 15,23L19,23C19,18.582 15.418,15 11,15L11,19Z" fill="#FFFFFF"/>
<path d="M39,37C39,39.209 37.209,41 35,41L35,45C39.418,45 43,41.418 43,37L39,37ZM35,41C32.791,41 31,39.209 31,37L27,37C27,41.418 30.582,45 35,45L35,41ZM31,37C31,34.791 32.791,33 35,33L35,29C30.582,29 27,32.582 27,37L31,37ZM35,33C37.209,33 39,34.791 39,37L43,37C43,32.582 39.418,29 35,29L35,33Z" fill="#FFFFFF"/>
<path d="M17.187,24.292C16.232,23.735 15.008,24.058 14.452,25.013C13.896,25.967 14.218,27.191 15.173,27.748L17.187,24.292ZM28.833,35.708C29.787,36.264 31.012,35.941 31.568,34.986C32.124,34.032 31.801,32.808 30.847,32.252L28.833,35.708ZM15.173,27.748L28.833,35.708L30.847,32.252L17.187,24.292L15.173,27.748Z" fill="#FFFFFF"/>
<path d="M30.828,13.747C31.782,13.19 32.104,11.965 31.547,11.011C30.99,10.057 29.766,9.735 28.812,10.292L30.828,13.747ZM15.172,18.252C14.218,18.809 13.896,20.034 14.452,20.988C15.009,21.942 16.234,22.264 17.188,21.707L15.172,18.252ZM28.812,10.292L15.172,18.252L17.188,21.707L30.828,13.747L28.812,10.292Z" fill="#FFFFFF"/>
</svg>
