<svg width="44" height="36" viewBox="0 0 44 36" fill="none" xmlns="http://www.w3.org/2000/svg" xmlns:xlink="http://www.w3.org/1999/xlink">
<path d="M14.642,18.487L14.642,31.345L28.247,31.345L28.247,18.487L37.225,18.487L21.445,3.293L5.666,18.487L14.642,18.487ZM20.621,-0.222C21.072,-0.656 21.818,-0.656 22.269,-0.222L42.927,19.67C43.632,20.349 43.117,21.486 42.103,21.486L31.459,21.486L31.459,33.273C31.459,33.865 30.946,34.344 30.312,34.344L12.577,34.344C11.943,34.344 11.43,33.865 11.43,33.273L11.43,21.486L0.787,21.486C-0.226,21.486 -0.742,20.349 -0.036,19.67L20.621,-0.222Z" clip-rule="evenodd" fill-rule="evenodd" fill="#010101"/>
</svg>
