<svg width="44" height="36" viewBox="0 0 44 36" fill="none" xmlns="http://www.w3.org/2000/svg" xmlns:xlink="http://www.w3.org/1999/xlink">
<path d="M14.642,18.488L14.642,31.346L28.247,31.346L28.247,18.488L37.225,18.488L21.445,3.294L5.666,18.488L14.642,18.488ZM20.622,-0.221C21.072,-0.655 21.818,-0.655 22.269,-0.221L42.927,19.671C43.633,20.35 43.117,21.487 42.103,21.487L31.46,21.487L31.46,33.274C31.46,33.866 30.946,34.345 30.312,34.345L12.577,34.345C11.943,34.345 11.43,33.866 11.43,33.274L11.43,21.487L0.787,21.487C-0.226,21.487 -0.742,20.35 -0.036,19.671L20.622,-0.221Z" clip-rule="evenodd" fill-rule="evenodd" fill="#010101"/>
</svg>
