<svg width="44" height="36" viewBox="0 0 44 36" fill="none" xmlns="http://www.w3.org/2000/svg" xmlns:xlink="http://www.w3.org/1999/xlink">
<path d="M14.642,18.488L14.642,31.346L28.247,31.346L28.247,18.488L37.225,18.488L21.445,3.293L5.666,18.488L14.642,18.488ZM20.622,-0.222C21.072,-0.656 21.818,-0.656 22.269,-0.222L42.927,19.67C43.633,20.35 43.117,21.487 42.103,21.487L31.46,21.487L31.46,33.274C31.46,33.865 30.946,34.345 30.312,34.345L12.577,34.345C11.943,34.345 11.43,33.865 11.43,33.274L11.43,21.487L0.787,21.487C-0.226,21.487 -0.742,20.35 -0.036,19.67L20.622,-0.222Z" clip-rule="evenodd" fill-rule="evenodd" fill="#010101"/>
</svg>
