<svg width="48" height="48" viewBox="0 0 48 48" fill="none" xmlns="http://www.w3.org/2000/svg" xmlns:xlink="http://www.w3.org/1999/xlink">
<path d="M42,24C42,33.941 33.941,42 24,42L24,46C36.15,46 46,36.15 46,24L42,24ZM24,42C14.059,42 6,33.941 6,24L2,24C2,36.15 11.85,46 24,46L24,42ZM6,24C6,14.059 14.059,6 24,6L24,2C11.85,2 2,11.85 2,24L6,24ZM24,6C33.941,6 42,14.059 42,24L46,24C46,11.85 36.15,2 24,2L24,6Z" fill="#FFFFFF"/>
<path d="M17.6,26.8C16.937,25.916 15.684,25.737 14.8,26.4C13.916,27.063 13.737,28.316 14.4,29.2L17.6,26.8ZM33.6,29.2C34.263,28.316 34.084,27.063 33.2,26.4C32.316,25.737 31.063,25.916 30.4,26.8L33.6,29.2ZM16,28C14.4,29.2 14.4,29.201 14.401,29.201C14.401,29.202 14.402,29.202 14.402,29.203C14.403,29.204 14.404,29.205 14.404,29.206C14.406,29.208 14.408,29.21 14.41,29.213C14.414,29.218 14.419,29.225 14.424,29.232C14.435,29.246 14.45,29.265 14.467,29.286C14.501,29.33 14.548,29.388 14.607,29.458C14.724,29.597 14.89,29.787 15.103,30.009C15.527,30.451 16.147,31.034 16.949,31.617C18.545,32.778 20.949,34 24,34L24,30C22.051,30 20.455,29.222 19.301,28.383C18.728,27.966 18.285,27.549 17.991,27.241C17.844,27.088 17.737,26.965 17.671,26.886C17.638,26.847 17.615,26.819 17.603,26.804C17.597,26.796 17.594,26.792 17.593,26.791C17.593,26.791 17.593,26.791 17.595,26.793C17.595,26.794 17.596,26.795 17.597,26.796C17.597,26.796 17.598,26.797 17.598,26.798C17.599,26.798 17.599,26.799 17.599,26.799C17.6,26.799 17.6,26.8 16,28ZM24,34C27.051,34 29.455,32.778 31.051,31.617C31.853,31.034 32.473,30.451 32.897,30.009C33.11,29.787 33.276,29.597 33.393,29.458C33.452,29.388 33.499,29.33 33.533,29.286C33.55,29.265 33.565,29.246 33.576,29.232C33.581,29.225 33.586,29.218 33.59,29.213C33.592,29.21 33.594,29.208 33.596,29.206C33.596,29.205 33.597,29.204 33.598,29.203C33.598,29.202 33.599,29.202 33.599,29.201C33.6,29.201 33.6,29.2 32,28C30.4,26.8 30.4,26.799 30.401,26.799C30.401,26.799 30.401,26.798 30.402,26.798C30.402,26.797 30.403,26.796 30.403,26.796C30.404,26.795 30.405,26.794 30.405,26.793C30.407,26.791 30.407,26.791 30.407,26.791C30.406,26.792 30.403,26.796 30.397,26.804C30.385,26.819 30.362,26.847 30.329,26.886C30.263,26.965 30.156,27.088 30.009,27.241C29.715,27.549 29.272,27.966 28.699,28.383C27.545,29.222 25.949,30 24,30L24,34Z" fill="#FFFFFF"/>
<line x1="18" y1="16" x2="18.02" y2="16" stroke="#FFFFFF" stroke-width="2" stroke-miterlimit="3.999327" stroke-linecap="round" stroke-linejoin="round"/>
<line x1="30" y1="16" x2="30.02" y2="16" stroke="#FFFFFF" stroke-width="2" stroke-miterlimit="3.999327" stroke-linecap="round" stroke-linejoin="round"/>
</svg>
