<svg width="48" height="48" viewBox="0 0 48 48" fill="none" xmlns="http://www.w3.org/2000/svg" xmlns:xlink="http://www.w3.org/1999/xlink">
<path d="M34,28C34.53,28 35.039,27.789 35.414,27.414C35.789,27.039 36,26.53 36,26C36,25.47 35.789,24.961 35.414,24.586C35.039,24.211 34.53,24 34,24C33.47,24 32.961,24.211 32.586,24.586C32.211,24.961 32,25.47 32,26C32,26.53 32.211,27.039 32.586,27.414C32.961,27.789 33.47,28 34,28ZM34,36C34.53,36 35.039,35.789 35.414,35.414C35.789,35.039 36,34.53 36,34C36,33.47 35.789,32.961 35.414,32.586C35.039,32.211 34.53,32 34,32C33.47,32 32.961,32.211 32.586,32.586C32.211,32.961 32,33.47 32,34C32,34.53 32.211,35.039 32.586,35.414C32.961,35.789 33.47,36 34,36ZM26,26C26,26.53 25.789,27.039 25.414,27.414C25.039,27.789 24.53,28 24,28C23.47,28 22.961,27.789 22.586,27.414C22.211,27.039 22,26.53 22,26C22,25.47 22.211,24.961 22.586,24.586C22.961,24.211 23.47,24 24,24C24.53,24 25.039,24.211 25.414,24.586C25.789,24.961 26,25.47 26,26ZM26,34C26,34.53 25.789,35.039 25.414,35.414C25.039,35.789 24.53,36 24,36C23.47,36 22.961,35.789 22.586,35.414C22.211,35.039 22,34.53 22,34C22,33.47 22.211,32.961 22.586,32.586C22.961,32.211 23.47,32 24,32C24.53,32 25.039,32.211 25.414,32.586C25.789,32.961 26,33.47 26,34ZM14,28C14.53,28 15.039,27.789 15.414,27.414C15.789,27.039 16,26.53 16,26C16,25.47 15.789,24.961 15.414,24.586C15.039,24.211 14.53,24 14,24C13.47,24 12.961,24.211 12.586,24.586C12.211,24.961 12,25.47 12,26C12,26.53 12.211,27.039 12.586,27.414C12.961,27.789 13.47,28 14,28ZM14,36C14.53,36 15.039,35.789 15.414,35.414C15.789,35.039 16,34.53 16,34C16,33.47 15.789,32.961 15.414,32.586C15.039,32.211 14.53,32 14,32C13.47,32 12.961,32.211 12.586,32.586C12.211,32.961 12,33.47 12,34C12,34.53 12.211,35.039 12.586,35.414C12.961,35.789 13.47,36 14,36Z" fill="#010101"/>
<path d="M14,3.5C14.398,3.5 14.779,3.658 15.061,3.939C15.342,4.221 15.5,4.602 15.5,5L15.5,6.526C16.824,6.5 18.282,6.5 19.886,6.5L28.112,6.5C29.718,6.5 31.176,6.5 32.5,6.526L32.5,5C32.5,4.602 32.658,4.221 32.939,3.939C33.221,3.658 33.602,3.5 34,3.5C34.398,3.5 34.779,3.658 35.061,3.939C35.342,4.221 35.5,4.602 35.5,5L35.5,6.654C36.02,6.694 36.512,6.744 36.978,6.806C39.322,7.122 41.22,7.786 42.718,9.282C44.214,10.78 44.878,12.678 45.194,15.022C45.5,17.302 45.5,20.212 45.5,23.888L45.5,28.112C45.5,31.788 45.5,34.7 45.194,36.978C44.878,39.322 44.214,41.22 42.718,42.718C41.22,44.214 39.322,44.878 36.978,45.194C34.698,45.5 31.788,45.5 28.112,45.5L19.89,45.5C16.214,45.5 13.302,45.5 11.024,45.194C8.68,44.878 6.782,44.214 5.284,42.718C3.788,41.22 3.124,39.322 2.808,36.978C2.502,34.698 2.502,31.788 2.502,28.112L2.502,23.888C2.502,20.212 2.502,17.3 2.808,15.022C3.124,12.678 3.788,10.78 5.284,9.282C6.782,7.786 8.68,7.122 11.024,6.806C11.49,6.744 11.984,6.694 12.502,6.654L12.502,5C12.502,4.603 12.66,4.221 12.941,3.94C13.221,3.659 13.602,3.501 14,3.5ZM11.42,9.78C9.41,10.05 8.25,10.558 7.404,11.404C6.558,12.25 6.05,13.41 5.78,15.422C5.734,15.762 5.696,16.122 5.664,16.5L42.336,16.5C42.304,16.12 42.266,15.762 42.22,15.42C41.95,13.41 41.442,12.25 40.596,11.404C39.75,10.558 38.59,10.05 36.578,9.78C34.524,9.504 31.814,9.5 28,9.5L20,9.5C16.186,9.5 13.478,9.504 11.42,9.78ZM5.5,24C5.5,22.292 5.5,20.806 5.526,19.5L42.474,19.5C42.5,20.806 42.5,22.292 42.5,24L42.5,28C42.5,31.814 42.496,34.524 42.22,36.58C41.95,38.59 41.442,39.75 40.596,40.596C39.75,41.442 38.59,41.95 36.578,42.22C34.524,42.496 31.814,42.5 28,42.5L20,42.5C16.186,42.5 13.478,42.496 11.42,42.22C9.41,41.95 8.25,41.442 7.404,40.596C6.558,39.75 6.05,38.59 5.78,36.578C5.504,34.524 5.5,31.814 5.5,28L5.5,24Z" clip-rule="evenodd" fill-rule="evenodd" fill="#010101"/>
</svg>
