<svg width="48" height="48" viewBox="0 0 48 48" fill="none" xmlns="http://www.w3.org/2000/svg" xmlns:xlink="http://www.w3.org/1999/xlink">
<path d="M38,6L10,6C7.791,6 6,7.791 6,10L6,38C6,40.209 7.791,42 10,42L38,42C40.209,42 42,40.209 42,38L42,10C42,7.791 40.209,6 38,6Z" fill="#FF1515" stroke="#FF1515" stroke-width="2" stroke-miterlimit="3.999327" stroke-linecap="round" stroke-linejoin="round"/>
<path d="M35.264,16.9C35.761,16.403 35.761,15.597 35.264,15.1C34.767,14.603 33.961,14.603 33.464,15.1L35.264,16.9ZM20.364,30L19.464,30.9C19.961,31.397 20.767,31.397 21.264,30.9L20.364,30ZM14.9,22.736C14.403,22.239 13.597,22.239 13.1,22.736C12.603,23.233 12.603,24.039 13.1,24.536L14.9,22.736ZM33.464,15.1L19.464,29.1L21.264,30.9L35.264,16.9L33.464,15.1ZM21.264,29.1L14.9,22.736L13.1,24.536L19.464,30.9L21.264,29.1Z" fill="#FFFFFF"/>
</svg>
