<svg width="800" height="550" viewBox="0 0 800 550" fill="none" xmlns="http://www.w3.org/2000/svg" xmlns:xlink="http://www.w3.org/1999/xlink">
<path d="M0,30C0,13.431 13.431,0 30,0L770,0C786.568,0 800,13.431 800,30L800,295.342C785.042,295.934 773.09,308.782 773.09,324.546C773.09,340.31 785.042,353.158 800,353.75L800,520C800,536.568 786.568,550 770,550L30,550C13.431,550 0,536.568 0,520L0,353.75C0.358,353.764 0.717,353.772 1.078,353.772C16.536,353.772 29.067,340.688 29.067,324.546C29.067,308.406 16.536,295.32 1.078,295.32C0.717,295.32 0.358,295.328 0,295.342L0,30Z" clip-rule="evenodd" fill-rule="evenodd" fill="#1A1A1A"/>
</svg>
