<svg width="48" height="48" viewBox="0 0 48 48" fill="none" xmlns="http://www.w3.org/2000/svg" xmlns:xlink="http://www.w3.org/1999/xlink">
<path d="M25.2,9.198C25.044,9.2 24.889,9.171 24.745,9.113C24.6,9.055 24.468,8.969 24.357,8.86C24.245,8.751 24.156,8.621 24.095,8.477C24.034,8.334 24.002,8.18 24,8.024C24,3.48 27.763,-0.2 32.397,-0.2C32.553,-0.202 32.708,-0.173 32.853,-0.115C32.997,-0.058 33.129,0.028 33.241,0.138C33.352,0.247 33.441,0.377 33.502,0.52C33.563,0.664 33.596,0.818 33.597,0.974C33.597,5.518 29.837,9.198 25.2,9.198Z" fill="#010101"/>
<path d="M25.2,9.198C25.044,9.2 24.889,9.171 24.745,9.113C24.6,9.055 24.468,8.969 24.357,8.86C24.245,8.751 24.156,8.621 24.095,8.477C24.034,8.334 24.002,8.18 24,8.024C24,3.48 27.763,-0.2 32.397,-0.2C32.553,-0.202 32.708,-0.173 32.853,-0.115C32.997,-0.058 33.129,0.028 33.241,0.138C33.352,0.247 33.441,0.377 33.502,0.52C33.563,0.664 33.596,0.818 33.597,0.974C33.597,5.518 29.837,9.198 25.2,9.198ZM42.72,33.938C43.184,34.277 43.334,34.898 43.072,35.403C38.848,43.678 35.478,47.8 32.4,47.8C30.966,47.8 29.558,47.346 28.186,46.462C27.2,45.83 26.059,45.482 24.889,45.457C23.718,45.432 22.563,45.731 21.552,46.322C19.888,47.298 18.304,47.8 16.8,47.8C12.272,47.8 4.8,34.146 4.8,26.654C4.8,18.654 9.085,12.555 15.6,12.555C18.666,12.555 21.312,12.997 23.536,13.896C24.477,14.274 25.542,14.248 26.461,13.816C28.266,12.965 30.646,12.555 33.597,12.555C37.203,12.555 40.349,14.315 42.96,17.723C43.054,17.846 43.123,17.987 43.162,18.137C43.202,18.287 43.21,18.443 43.188,18.596C43.165,18.75 43.112,18.897 43.032,19.03C42.952,19.162 42.846,19.277 42.72,19.368C39.805,21.512 38.4,23.915 38.4,26.654C38.4,29.39 39.805,31.797 42.72,33.938Z" fill="#010101"/>
<path d="M42.72,33.938C43.184,34.277 43.334,34.898 43.072,35.403C38.848,43.678 35.478,47.8 32.4,47.8C30.966,47.8 29.558,47.346 28.186,46.462C27.2,45.83 26.059,45.482 24.889,45.457C23.718,45.432 22.563,45.731 21.552,46.322C19.888,47.298 18.304,47.8 16.8,47.8C12.272,47.8 4.8,34.146 4.8,26.654C4.8,18.654 9.085,12.555 15.6,12.555C18.666,12.555 21.312,12.997 23.536,13.896C24.477,14.274 25.542,14.248 26.461,13.816C28.266,12.965 30.646,12.555 33.597,12.555C37.203,12.555 40.349,14.315 42.96,17.723C43.054,17.846 43.123,17.987 43.162,18.137C43.202,18.287 43.21,18.443 43.188,18.596C43.165,18.75 43.112,18.897 43.032,19.03C42.952,19.162 42.846,19.277 42.72,19.368C39.805,21.512 38.4,23.915 38.4,26.654C38.4,29.39 39.805,31.797 42.72,33.938Z" fill="#010101"/>
</svg>
