<svg width="48" height="48" viewBox="0 0 48 48" fill="none" xmlns="http://www.w3.org/2000/svg" xmlns:xlink="http://www.w3.org/1999/xlink">
<path d="M47.414,12.414C48.195,11.633 48.195,10.367 47.414,9.586C46.633,8.805 45.367,8.805 44.586,9.586L47.414,12.414ZM27,30L25.586,31.414C26.367,32.195 27.633,32.195 28.414,31.414L27,30ZM17,20L18.414,18.586C17.633,17.805 16.367,17.805 15.586,18.586L17,20ZM0.586,33.586C-0.195,34.367 -0.195,35.633 0.586,36.414C1.367,37.195 2.633,37.195 3.414,36.414L0.586,33.586ZM44.586,9.586L25.586,28.586L28.414,31.414L47.414,12.414L44.586,9.586ZM28.414,28.586L18.414,18.586L15.586,21.414L25.586,31.414L28.414,28.586ZM15.586,18.586L0.586,33.586L3.414,36.414L18.414,21.414L15.586,18.586Z" fill="#FF1515"/>
<path d="M34,9C32.895,9 32,9.895 32,11C32,12.105 32.895,13 34,13L34,9ZM46,11L48,11C48,9.895 47.105,9 46,9L46,11ZM44,23C44,24.105 44.895,25 46,25C47.105,25 48,24.105 48,23L44,23ZM34,13L46,13L46,9L34,9L34,13ZM44,11L44,23L48,23L48,11L44,11Z" fill="#FF1515"/>
</svg>
