<svg width="48" height="48" viewBox="0 0 48 48" fill="none" xmlns="http://www.w3.org/2000/svg" xmlns:xlink="http://www.w3.org/1999/xlink">
<path d="M47.414,13.414C48.195,12.633 48.195,11.367 47.414,10.586C46.633,9.805 45.367,9.805 44.586,10.586L47.414,13.414ZM27,31L25.586,32.414C26.367,33.195 27.633,33.195 28.414,32.414L27,31ZM17,21L18.414,19.586C17.633,18.805 16.367,18.805 15.586,19.586L17,21ZM0.586,34.586C-0.195,35.367 -0.195,36.633 0.586,37.414C1.367,38.195 2.633,38.195 3.414,37.414L0.586,34.586ZM44.586,10.586L25.586,29.586L28.414,32.414L47.414,13.414L44.586,10.586ZM28.414,29.586L18.414,19.586L15.586,22.414L25.586,32.414L28.414,29.586ZM15.586,19.586L0.586,34.586L3.414,37.414L18.414,22.414L15.586,19.586Z" fill="#FF1515"/>
<path d="M34,10C32.895,10 32,10.895 32,12C32,13.105 32.895,14 34,14L34,10ZM46,12L48,12C48,10.895 47.105,10 46,10L46,12ZM44,24C44,25.105 44.895,26 46,26C47.105,26 48,25.105 48,24L44,24ZM34,14L46,14L46,10L34,10L34,14ZM44,12L44,24L48,24L48,12L44,12Z" fill="#FF1515"/>
</svg>
