<svg width="336" height="242" viewBox="0 0 336 242" fill="none" xmlns="http://www.w3.org/2000/svg" xmlns:xlink="http://www.w3.org/1999/xlink">
<path d="M335,133.138C335,133.371 334.81,133.56 334.574,133.56L1,133.56L1,132.716L334.574,132.716C334.81,132.716 335,132.905 335,133.138Z" fill="#E6E6E6"/>
<path d="M110.68,30.617C117.642,30.617 123.286,25.011 123.286,18.097C123.286,11.182 117.642,5.577 110.68,5.577C103.718,5.577 98.074,11.182 98.074,18.097C98.074,25.011 103.718,30.617 110.68,30.617Z" fill="#FFB6B6"/>
<path d="M117.36,33.258L100.767,37.966L98.397,43.263L93.063,68.57L93.063,108.591C93.063,108.591 86.545,122.716 90.1,135.076C93.901,148.287 107.286,132.694 117.36,134.473C127.435,136.253 143.435,138.018 143.435,138.018L133.953,95.055L131.583,42.674L117.36,33.258Z" fill="#E6E6E6"/>
<path d="M114.23,22.197L111.667,20.924C111.667,20.924 111.026,15.197 109.745,13.924C108.463,12.652 108.463,12.015 108.463,12.015L110.385,9.47C110.385,9.47 100.774,14.561 98.852,11.379C96.93,8.197 99.493,6.925 99.493,6.925L96.289,4.379C96.289,4.379 100.133,6.925 100.774,5.016C101.415,3.107 105.259,1.811 105.259,1.811C105.259,1.811 113.655,3.698 112.981,1.811C112.307,-0.075 114.87,1.834 115.511,2.47C116.152,3.107 121.918,9.47 122.559,8.834C123.2,8.197 126.404,10.106 125.763,10.743C125.122,11.379 125.122,12.015 125.763,12.652C126.404,13.288 130.248,20.288 127.044,22.833C123.841,25.378 119.355,28.56 119.996,31.106C120.637,33.651 119.996,22.833 114.23,22.197Z" fill="#2F2E41"/>
<path d="M52.087,53.718C48.852,50.948 47.668,47.045 49.443,45C51.219,42.955 55.28,43.544 58.517,46.315C59.825,47.404 60.851,48.789 61.51,50.353L75.07,62.262L69.307,68.462L56.551,56.064C54.896,55.647 53.365,54.843 52.087,53.718Z" fill="#FFB6B6"/>
<path d="M98.54,43.466L107.472,42.659L115.305,79.761C116.797,86.831 112.131,93.733 104.977,95.037L98.54,96.211L57.507,60.331L63.502,50.406L93.761,69.257L98.54,43.466Z" fill="#E6E6E6"/>
<path d="M78.598,208.464C78.598,208.464 71.514,221.53 72.02,221.028C72.526,220.525 81.129,223.541 81.129,223.541L86.189,210.474L78.598,208.464Z" fill="#FFB6B6"/>
<path d="M68.142,117C68.142,117 64.516,131.397 64.881,130.786C65.247,130.175 74.333,130.994 74.333,130.994L75.997,117.092L68.142,117Z" fill="#FFB6B6"/>
<path d="M131.225,114.579C115.215,116.813 100.755,114.866 88.972,105.69C88.972,105.69 80.369,134.336 96.056,137.352C111.743,140.367 129.201,135.184 131.225,130.159C133.25,125.133 131.225,114.579 131.225,114.579Z" fill="#2F2E41"/>
<path d="M101.37,123.625L83.912,164.489L75.815,211.73L86.442,214.243L105.45,170.771L131.226,129.153L101.37,123.625Z" fill="#2F2E41"/>
<path d="M99.093,111.972C99.093,111.972 95.044,80.813 87.454,78.803C83.754,77.823 80.294,77.918 77.719,78.273C75.125,78.63 73.056,80.599 72.602,83.161L65.705,122.117L75.459,122.117L78.598,111.563L86.948,126.043L99.093,111.972Z" fill="#2F2E41"/>
<path d="M74.297,127.049L64.653,126.044L63.165,131.572C63.165,131.572 47.478,145.644 55.574,146.649C63.671,147.654 71.261,142.126 71.261,142.126L82.399,135.78C82.399,135.78 78.093,124.379 75.056,124.379C72.02,124.379 74.297,127.049 74.297,127.049Z" fill="#2F2E41"/>
<path d="M79.357,221.279L69.713,220.274L68.225,225.802C68.225,225.802 52.538,239.873 60.634,240.879C68.731,241.884 76.321,236.356 76.321,236.356L87.459,230.01C87.459,230.01 86.695,218.106 83.659,218.106C80.622,218.106 79.357,221.279 79.357,221.279Z" fill="#2F2E41"/>
<path d="M128.19,145.199C127.027,149.159 124.027,151.774 121.489,151.039C118.951,150.303 117.837,146.497 119,142.535C119.443,140.946 120.263,139.485 121.391,138.275L126.532,121.555L134.381,124.118L128.48,140.329C128.776,141.952 128.677,143.622 128.19,145.199Z" fill="#FFB6B6"/>
<path d="M133.624,42.748L129.531,41.602C125.672,49.228 124.012,57.765 124.736,66.27L126.756,90.001L120.091,131.712L133.155,135.069L143.449,82.723L133.624,42.748Z" fill="#E6E6E6"/>
<path d="M53.944,107.962C53.765,107.417 52.406,107.657 52.276,107.17C52.146,106.685 53.449,106.278 54.449,104.91C54.629,104.663 55.765,103.108 55.33,102.454C54.504,101.215 48.757,104.302 47.378,102.569C47.075,102.189 46.951,101.537 46.049,100.322C45.69,99.839 45.46,99.606 45.185,99.612C44.795,99.622 44.655,100.107 44.042,100.985C43.122,102.302 42.79,102.137 42.184,103.216C41.735,104.017 41.681,104.529 41.357,104.559C40.898,104.602 40.708,103.605 40.147,103.566C39.575,103.526 39.002,104.512 38.718,105.282C38.186,106.727 38.516,107.831 38.589,108.932C38.668,110.128 38.482,111.879 37.173,114.126L24.83,133.657C27.481,129.675 35.005,118.818 38.037,114.836C38.912,113.686 39.853,112.532 41.3,112.315C42.694,112.105 44.389,112.79 46.756,112.75C47.033,112.746 47.802,112.723 47.989,112.318C48.144,111.983 47.76,111.692 47.899,111.378C48.087,110.955 48.93,111.137 50.079,110.856C50.89,110.659 51.44,110.332 51.914,110.051C52.056,109.966 54.183,108.687 53.944,107.962Z" fill="#F2F2F2"/>
<path d="M21.616,112.522C21.295,112.452 21.021,113.184 20.743,113.107C20.465,113.03 20.64,112.277 20.253,111.395C20.183,111.236 19.742,110.234 19.293,110.257C18.443,110.302 18.31,113.994 17.056,114.166C16.781,114.204 16.422,114.077 15.562,114.166C15.22,114.201 15.038,114.246 14.962,114.382C14.854,114.575 15.054,114.783 15.311,115.336C15.696,116.164 15.519,116.278 15.877,116.885C16.143,117.335 16.381,117.509 16.302,117.676C16.191,117.912 15.643,117.716 15.462,117.979C15.278,118.246 15.599,118.81 15.898,119.17C16.458,119.847 17.099,120.005 17.664,120.287C18.278,120.593 19.09,121.189 19.823,122.475L25.913,134.127C24.711,131.686 21.516,124.886 20.423,122.259C20.107,121.501 19.808,120.709 20.118,119.941C20.417,119.201 21.245,118.572 21.908,117.407C21.986,117.271 22.196,116.889 22.05,116.681C21.929,116.509 21.675,116.613 21.559,116.454C21.405,116.241 21.738,115.882 21.931,115.241C22.067,114.789 22.064,114.426 22.062,114.114C22.061,114.02 22.043,112.615 21.616,112.522Z" fill="#F2F2F2"/>
<path d="M27.692,115.365L27.883,113.61L28.001,113.499C28.544,112.99 28.884,112.449 29.011,111.893C29.032,111.805 29.047,111.716 29.063,111.624C29.127,111.264 29.206,110.815 29.555,110.349C29.751,110.089 30.268,109.502 30.802,109.707C30.946,109.761 31.043,109.854 31.11,109.952C31.127,109.935 31.145,109.918 31.163,109.899C31.394,109.677 31.555,109.596 31.71,109.517C31.829,109.457 31.953,109.395 32.161,109.229C32.253,109.156 32.326,109.091 32.388,109.036C32.575,108.87 32.814,108.676 33.142,108.753C33.49,108.847 33.609,109.176 33.688,109.394C33.829,109.783 33.873,110.051 33.902,110.228C33.912,110.293 33.924,110.366 33.933,110.39C34.009,110.58 34.964,110.629 35.324,110.65C36.132,110.694 36.831,110.731 36.999,111.281C37.12,111.674 36.868,112.102 36.23,112.589C36.031,112.74 35.833,112.844 35.66,112.922C35.766,113.022 35.851,113.158 35.856,113.344C35.868,113.782 35.415,114.118 34.511,114.345C34.286,114.402 33.984,114.477 33.588,114.458C33.402,114.449 33.238,114.421 33.099,114.394C33.079,114.473 33.04,114.555 32.972,114.633C32.771,114.862 32.445,114.92 32.004,114.791C31.517,114.656 31.132,114.473 30.792,114.311C30.496,114.171 30.24,114.051 30.025,114.018C29.626,113.963 29.254,114.208 28.808,114.533L27.692,115.365Z" fill="#F2F2F2"/>
<path d="M30.878,105.367L29.12,105.628L28.982,105.544C28.348,105.151 27.736,104.962 27.162,104.98C27.071,104.983 26.98,104.991 26.887,104.998C26.519,105.029 26.062,105.067 25.52,104.849C25.217,104.727 24.514,104.379 24.579,103.815C24.594,103.663 24.66,103.546 24.739,103.456C24.718,103.444 24.697,103.432 24.674,103.419C24.399,103.254 24.279,103.12 24.163,102.99C24.074,102.891 23.982,102.788 23.768,102.63C23.674,102.561 23.592,102.507 23.523,102.461C23.313,102.324 23.063,102.143 23.055,101.808C23.059,101.451 23.349,101.252 23.542,101.121C23.885,100.887 24.134,100.777 24.3,100.705C24.36,100.678 24.428,100.648 24.449,100.633C24.615,100.512 24.421,99.582 24.35,99.231C24.187,98.444 24.047,97.763 24.539,97.462C24.891,97.247 25.373,97.379 26.008,97.869C26.206,98.021 26.358,98.186 26.478,98.332C26.548,98.205 26.659,98.089 26.838,98.037C27.262,97.914 27.705,98.264 28.155,99.075C28.267,99.277 28.418,99.548 28.499,99.933C28.538,100.114 28.551,100.278 28.561,100.419C28.643,100.419 28.732,100.434 28.825,100.481C29.099,100.616 29.238,100.913 29.225,101.37C29.217,101.872 29.136,102.289 29.065,102.656C29.004,102.976 28.952,103.253 28.974,103.467C29.021,103.865 29.354,104.16 29.785,104.506L30.878,105.367Z" fill="#F2F2F2"/>
<path d="M31.115,100.123L31.307,98.368L31.424,98.257C31.967,97.747 32.307,97.207 32.435,96.651C32.455,96.563 32.471,96.473 32.487,96.382C32.55,96.021 32.629,95.573 32.979,95.107C33.174,94.847 33.691,94.26 34.225,94.465C34.369,94.519 34.466,94.611 34.534,94.71C34.551,94.693 34.568,94.676 34.586,94.657C34.817,94.435 34.978,94.353 35.133,94.275C35.253,94.215 35.376,94.152 35.584,93.987C35.676,93.914 35.749,93.849 35.811,93.794C35.998,93.628 36.237,93.434 36.565,93.511C36.913,93.605 37.032,93.934 37.111,94.152C37.253,94.541 37.296,94.809 37.325,94.986C37.335,95.051 37.347,95.124 37.356,95.148C37.432,95.338 38.388,95.387 38.747,95.408C39.555,95.451 40.254,95.489 40.422,96.039C40.543,96.432 40.291,96.86 39.653,97.347C39.455,97.498 39.256,97.602 39.083,97.68C39.189,97.78 39.274,97.916 39.279,98.101C39.291,98.54 38.838,98.876 37.934,99.103C37.709,99.16 37.407,99.235 37.011,99.216C36.825,99.207 36.662,99.179 36.523,99.152C36.502,99.231 36.464,99.313 36.395,99.391C36.194,99.619 35.869,99.678 35.428,99.549C34.94,99.414 34.555,99.23 34.216,99.069C33.919,98.929 33.663,98.809 33.449,98.776C33.049,98.721 32.677,98.965 32.232,99.291L31.115,100.123Z" fill="#F2F2F2"/>
<path d="M25.413,133.757L25.103,133.452L24.671,133.407C24.673,133.366 24.67,133.272 24.667,133.124C24.65,132.317 24.598,129.859 24.943,126.083C25.184,123.447 25.586,120.771 26.138,118.129C26.691,115.482 27.266,113.513 27.727,111.93C28.075,110.736 28.426,109.604 28.769,108.501C29.684,105.555 30.548,102.771 31.084,99.596C31.203,98.887 31.452,97.412 30.943,95.671C30.648,94.661 30.142,93.71 29.439,92.846L30.119,92.301C30.895,93.256 31.454,94.308 31.782,95.43C32.347,97.36 32.076,98.968 31.945,99.74C31.401,102.971 30.528,105.781 29.604,108.756C29.263,109.855 28.912,110.983 28.566,112.172C28.109,113.74 27.54,115.692 26.994,118.304C26.447,120.915 26.051,123.558 25.813,126.161C25.473,129.89 25.524,132.311 25.54,133.106C25.549,133.531 25.551,133.62 25.413,133.757Z" fill="#F2F2F2"/>
<path d="M27.573,93.845C27.538,93.838 27.503,93.829 27.468,93.818C26.75,93.619 26.175,93.038 25.757,92.093C25.561,91.649 25.515,91.181 25.423,90.248C25.409,90.104 25.345,89.377 25.423,88.412C25.474,87.782 25.542,87.529 25.715,87.33C25.907,87.109 26.165,86.982 26.438,86.918C26.446,86.835 26.473,86.753 26.528,86.676C26.752,86.355 27.128,86.487 27.332,86.556C27.435,86.592 27.563,86.639 27.707,86.663C27.933,86.702 28.069,86.662 28.273,86.603C28.469,86.547 28.713,86.477 29.049,86.483C29.713,86.492 30.205,86.788 30.367,86.886C31.22,87.395 31.515,88.208 31.856,89.149C31.924,89.338 32.149,90.019 32.201,90.897C32.239,91.531 32.155,91.79 32.06,91.975C31.864,92.356 31.564,92.533 30.82,92.905C30.043,93.294 29.653,93.489 29.334,93.589C28.59,93.821 28.123,93.967 27.573,93.845Z" fill="#F2F2F2"/>
<path d="M227.06,20.37C227.06,20.37 231.886,23.181 230.303,25.96C228.72,28.74 226.514,32.526 228.011,33.719C229.508,34.911 231.979,40.169 231.979,40.169C231.979,40.169 242.528,38.705 241.537,46.843C240.547,54.981 235.592,56.09 239.839,59.67C244.086,63.25 235.425,67.532 235.425,67.532C235.425,67.532 229.445,65.681 228.081,59.99C226.716,54.299 229.297,64.342 228.431,65.062C227.566,65.782 224.206,70.528 221.828,64.218C219.45,57.907 221.805,55.461 218.663,51.736C215.521,48.012 213.385,41.988 213.478,40.935C213.572,39.882 209.885,30.273 215.56,26.525C221.236,22.778 227.06,20.37 227.06,20.37Z" fill="#2F2E41"/>
<path d="M274.595,108.665C277.397,110.968 280.865,111.399 282.34,109.628C283.816,107.856 282.74,104.554 279.937,102.251C278.83,101.316 277.514,100.657 276.098,100.331L264.102,90.722L259.682,96.408L271.977,105.277C272.565,106.598 273.463,107.76 274.595,108.665Z" fill="#FFB6B6"/>
<path d="M238.643,56.26C238.643,56.26 229.229,50.008 226.146,53.074C223.063,56.139 223.8,63.797 223.8,63.797L248.487,92.371L268.062,104.729L273.311,96.566L256.854,81.981L238.643,56.26Z" fill="#3F3D56"/>
<path d="M224.843,42.716L228.259,54.774L209.512,54.774L215.685,39.917L224.843,42.716Z" fill="#FFB6B6"/>
<g opacity="0.1">
<path d="M224.843,42.716L228.259,54.774L209.512,54.774L215.685,39.917L224.843,42.716Z" fill="#000000"/>
</g>
<path d="M183.96,131.74C183.718,135.344 185.394,138.389 187.704,138.542C190.013,138.695 192.081,135.897 192.322,132.291C192.439,130.853 192.207,129.407 191.645,128.076L192.476,112.792L185.246,112.558L185.195,127.649C184.46,128.895 184.036,130.298 183.96,131.74Z" fill="#FFB6B6"/>
<path d="M205.73,72.128C205.73,72.128 205.33,60.887 201.023,60.197C196.716,59.507 190.893,64.579 190.893,64.579L181.996,101.179L183.353,124.176L193.09,123.629L195.376,101.841L205.73,72.128Z" fill="#3F3D56"/>
<path d="M247.488,206.452C247.488,206.452 254.572,219.519 254.066,219.016C253.56,218.514 244.958,221.529 244.958,221.529L239.897,208.462L247.488,206.452Z" fill="#FFB6B6"/>
<path d="M257.944,114.989C257.944,114.989 261.571,129.386 261.205,128.775C260.839,128.164 251.754,128.983 251.754,128.983L250.089,115.081L257.944,114.989Z" fill="#FFB6B6"/>
<path d="M229.777,50.753L212.09,50.753L192.837,63.819L187.271,109.552L190.307,118.599L195.873,129.152C195.873,129.152 190.307,106.035 203.969,115.081C217.632,124.127 218.644,125.634 218.644,125.634L236.862,116.588L243.693,79.148L238.633,58.543L229.777,50.753Z" fill="#3F3D56"/>
<path d="M194.861,112.568C210.87,114.801 225.331,112.854 237.114,103.679C237.114,103.679 245.717,132.325 230.03,135.34C214.343,138.355 196.885,133.173 194.861,128.147C192.836,123.121 194.861,112.568 194.861,112.568Z" fill="#2F2E41"/>
<path d="M224.717,121.614L242.175,162.479L250.272,209.719L239.645,212.232L220.637,168.761L194.861,127.142L224.717,121.614Z" fill="#2F2E41"/>
<path d="M226.994,109.961C226.994,109.961 231.042,78.802 238.633,76.792C242.333,75.812 245.793,75.907 248.368,76.262C250.962,76.619 253.031,78.588 253.484,81.151L260.382,120.106L250.628,120.106L247.488,109.553L239.139,124.033L226.994,109.961Z" fill="#2F2E41"/>
<path d="M251.789,125.038L261.433,124.033L262.922,129.561C262.922,129.561 278.609,143.633 270.512,144.638C262.416,145.643 254.825,140.115 254.825,140.115L243.688,133.769C243.688,133.769 247.994,122.368 251.03,122.368C254.066,122.368 251.789,125.038 251.789,125.038Z" fill="#2F2E41"/>
<path d="M246.729,219.268L256.374,218.263L257.862,223.791C257.862,223.791 273.549,237.863 265.453,238.868C257.356,239.873 249.766,234.345 249.766,234.345L238.628,228C238.628,228 239.392,216.096 242.428,216.096C245.464,216.096 246.729,219.268 246.729,219.268Z" fill="#2F2E41"/>
<path d="M220.389,45.337C226.625,45.337 231.679,40.317 231.679,34.125C231.679,27.932 226.625,22.912 220.389,22.912C214.154,22.912 209.1,27.932 209.1,34.125C209.1,40.317 214.154,45.337 220.389,45.337Z" fill="#FFB6B6"/>
<path d="M224.717,21.603C224.717,21.603 226.599,26.836 223.588,27.957C220.578,29.078 216.438,30.573 216.815,32.442C217.191,34.311 215.686,39.917 215.686,39.917C215.686,39.917 224.717,45.523 218.696,51.129C212.675,56.736 208.159,54.425 209.1,59.879C210.041,65.332 200.632,63.089 200.632,63.089C200.632,63.089 197.245,57.857 199.88,52.624C202.514,47.392 197.998,56.736 196.869,56.736C195.74,56.736 190.095,58.231 192.353,51.877C194.611,45.523 197.998,45.149 197.998,40.291C197.998,35.432 200.256,29.452 201.009,28.705C201.761,27.957 205.148,18.24 211.922,18.987C218.696,19.735 224.717,21.603 224.717,21.603Z" fill="#2F2E41"/>
<path d="M126.041,206.452C126.041,206.452 118.956,219.519 119.462,219.016C119.968,218.514 128.571,221.529 128.571,221.529L133.631,208.462L126.041,206.452Z" fill="#A0616A"/>
<path d="M178.668,112.568C162.658,114.801 148.197,112.854 136.414,103.679C136.414,103.679 127.812,132.325 143.499,135.34C159.186,138.355 176.644,133.173 178.668,128.147C180.692,123.121 178.668,112.568 178.668,112.568Z" fill="#2F2E41"/>
<path d="M148.812,121.614L131.354,162.479L123.258,209.719L133.884,212.232L152.892,168.761L178.668,127.142L148.812,121.614Z" fill="#2F2E41"/>
<path d="M126.8,219.268L117.155,218.263L115.667,223.791C115.667,223.791 99.98,237.863 108.077,238.868C116.173,239.873 123.764,234.345 123.764,234.345L134.901,228C134.901,228 134.137,216.096 131.101,216.096C128.065,216.096 126.8,219.268 126.8,219.268Z" fill="#2F2E41"/>
<path d="M142.037,199.578C142.037,199.578 139.357,214.177 139.683,213.544C140.008,212.911 149.127,213.144 149.127,213.144L149.882,199.164L142.037,199.578Z" fill="#A0616A"/>
<path d="M137.344,111.901L133.432,156.121L140.405,203.538L151.294,202.672L155.871,155.497L167.461,108.012L137.344,111.901Z" fill="#2F2E41"/>
<path d="M146.74,211.535L137.254,213.534L137.556,219.249C137.556,219.249 127.005,237.44 135.019,235.916C143.033,234.391 148.535,226.807 148.535,226.807L157.159,217.359C157.159,217.359 152.734,206.27 149.846,207.2C146.958,208.13 146.74,211.535 146.74,211.535Z" fill="#2F2E41"/>
<path d="M146.47,20.37C146.47,20.37 141.644,23.181 143.226,25.96C144.809,28.74 147.016,32.526 145.519,33.719C144.022,34.911 141.55,40.169 141.55,40.169C141.55,40.169 131.002,38.705 131.992,46.843C132.983,54.981 137.938,56.09 133.691,59.67C129.443,63.25 138.105,67.532 138.105,67.532C138.105,67.532 144.085,65.681 145.449,59.99C146.813,54.299 144.233,64.342 145.098,65.062C145.964,65.782 149.324,70.528 151.702,64.218C154.08,57.907 151.725,55.461 154.867,51.736C158.009,48.012 160.145,41.988 160.051,40.935C159.958,39.882 163.645,30.273 157.969,26.525C152.293,22.778 146.47,20.37 146.47,20.37Z" fill="#2F2E41"/>
<path d="M148.685,42.716L145.27,54.774L164.017,54.774L157.843,39.917L148.685,42.716Z" fill="#A0616A"/>
<g opacity="0.1">
<path d="M148.685,42.716L145.27,54.774L164.017,54.774L157.843,39.917L148.685,42.716Z" fill="#000000"/>
</g>
<path d="M189.569,131.74C189.811,135.344 188.135,138.389 185.825,138.542C183.516,138.695 181.448,135.897 181.207,132.291C181.09,130.853 181.322,129.407 181.884,128.076L181.053,112.792L188.283,112.558L188.334,127.649C189.069,128.895 189.493,130.298 189.569,131.74Z" fill="#A0616A"/>
<path d="M167.799,72.128C167.799,72.128 168.199,60.887 172.506,60.197C176.813,59.507 182.636,64.579 182.636,64.579L191.533,101.179L190.175,124.176L180.438,123.629L178.153,101.841L167.799,72.128Z" fill="#FF1515"/>
<path d="M143.752,50.753L161.439,50.753L180.692,63.819L186.259,109.552L183.222,118.599L177.656,129.152C177.656,129.152 183.222,106.035 169.56,115.081C169.423,115.171 169.288,115.261 169.154,115.35C160.359,121.184 148.754,120.585 140.612,113.88L134.138,108.547L137.68,90.958L134.897,58.543L143.752,50.753Z" fill="#FF1515"/>
<path d="M99.494,108.01C96.657,110.271 93.183,110.649 91.735,108.856C90.287,107.063 91.413,103.777 94.251,101.516C95.372,100.598 96.699,99.959 98.119,99.654L110.261,90.228L114.594,95.98L102.164,104.663C101.556,105.974 100.641,107.122 99.494,108.01Z" fill="#A0616A"/>
<path d="M136.244,56.154C136.244,56.154 145.753,50.045 148.788,53.157C151.824,56.269 150.97,63.915 150.97,63.915L125.849,92.112L106.086,104.173L100.963,95.932L117.642,81.597L136.244,56.154Z" fill="#FF1515"/>
<path d="M153.139,45.337C159.375,45.337 164.429,40.317 164.429,34.125C164.429,27.932 159.375,22.912 153.139,22.912C146.904,22.912 141.85,27.932 141.85,34.125C141.85,40.317 146.904,45.337 153.139,45.337Z" fill="#A0616A"/>
<path d="M147.519,26.609C147.519,26.609 145.856,21.103 148.628,21.103C151.4,21.103 162.489,21.653 163.597,22.754C164.706,23.856 177.827,34.908 170.065,43.718C162.304,52.528 170.065,56.784 170.065,56.784C170.065,56.784 175.795,70.108 170.251,71.209C164.706,72.31 141.965,66.013 147.519,55.791C153.547,44.699 156.352,27.191 147.519,26.609Z" fill="#2F2E41"/>
<path d="M332.261,108.465C332.082,107.92 330.724,108.16 330.593,107.673C330.463,107.188 331.767,106.78 332.766,105.412C332.947,105.166 334.083,103.611 333.647,102.957C332.821,101.718 327.075,104.805 325.695,103.072C325.393,102.692 325.268,102.04 324.366,100.825C324.008,100.342 323.777,100.108 323.502,100.115C323.112,100.125 322.973,100.61 322.359,101.488C321.44,102.805 321.108,102.64 320.502,103.719C320.052,104.52 319.999,105.032 319.674,105.062C319.215,105.105 319.026,104.107 318.465,104.069C317.892,104.029 317.32,105.015 317.036,105.785C316.503,107.23 316.833,108.334 316.906,109.435C316.986,110.631 316.799,112.382 315.49,114.629L303.147,134.159C305.798,130.178 313.323,119.321 316.354,115.339C317.229,114.189 318.17,113.035 319.618,112.817C321.011,112.608 322.707,113.293 325.074,113.253C325.35,113.249 326.119,113.226 326.306,112.821C326.461,112.486 326.077,112.195 326.217,111.88C326.404,111.458 327.247,111.639 328.397,111.359C329.207,111.161 329.758,110.835 330.231,110.554C330.374,110.469 332.5,109.19 332.261,108.465Z" fill="#F2F2F2"/>
<path d="M299.932,113.025C299.612,112.955 299.338,113.686 299.06,113.609C298.782,113.533 298.957,112.78 298.57,111.898C298.5,111.739 298.059,110.736 297.61,110.76C296.76,110.805 296.627,114.497 295.373,114.669C295.098,114.707 294.739,114.58 293.879,114.669C293.537,114.704 293.355,114.749 293.279,114.885C293.171,115.078 293.37,115.286 293.628,115.839C294.013,116.667 293.836,116.781 294.194,117.388C294.46,117.838 294.698,118.012 294.619,118.179C294.508,118.415 293.96,118.219 293.779,118.481C293.594,118.749 293.916,119.313 294.215,119.673C294.775,120.35 295.416,120.508 295.981,120.789C296.595,121.096 297.407,121.692 298.14,122.978L304.23,134.63C303.028,132.189 299.833,125.389 298.74,122.762C298.424,122.004 298.125,121.212 298.435,120.444C298.734,119.704 299.562,119.075 300.225,117.91C300.302,117.774 300.513,117.392 300.367,117.184C300.246,117.012 299.992,117.116 299.876,116.957C299.722,116.744 300.055,116.385 300.248,115.744C300.384,115.292 300.381,114.929 300.379,114.617C300.378,114.523 300.36,113.118 299.932,113.025Z" fill="#F2F2F2"/>
<path d="M306.009,115.868L306.2,114.113L306.318,114.002C306.861,113.492 307.201,112.952 307.328,112.396C307.348,112.308 307.364,112.218 307.38,112.127C307.444,111.767 307.523,111.318 307.872,110.852C308.068,110.592 308.585,110.005 309.118,110.21C309.262,110.264 309.36,110.357 309.427,110.455C309.444,110.438 309.461,110.421 309.48,110.402C309.71,110.18 309.872,110.098 310.027,110.02C310.146,109.96 310.269,109.898 310.478,109.732C310.569,109.659 310.643,109.594 310.704,109.539C310.892,109.373 311.131,109.179 311.459,109.256C311.807,109.35 311.926,109.679 312.005,109.897C312.146,110.286 312.19,110.554 312.218,110.731C312.229,110.796 312.241,110.869 312.25,110.893C312.326,111.083 313.281,111.132 313.641,111.153C314.449,111.197 315.148,111.234 315.316,111.784C315.436,112.177 315.185,112.605 314.547,113.092C314.348,113.243 314.15,113.347 313.976,113.425C314.083,113.525 314.168,113.661 314.173,113.846C314.185,114.285 313.732,114.621 312.827,114.848C312.603,114.905 312.3,114.98 311.905,114.961C311.718,114.952 311.555,114.924 311.416,114.897C311.395,114.976 311.357,115.058 311.289,115.136C311.087,115.364 310.762,115.423 310.321,115.294C309.834,115.159 309.449,114.975 309.109,114.814C308.813,114.674 308.557,114.554 308.342,114.521C307.943,114.466 307.571,114.71 307.125,115.036L306.009,115.868Z" fill="#F2F2F2"/>
<path d="M309.196,105.87L307.438,106.131L307.3,106.046C306.666,105.654 306.054,105.464 305.48,105.483C305.388,105.486 305.297,105.494 305.205,105.501C304.837,105.532 304.38,105.57 303.837,105.352C303.535,105.23 302.832,104.882 302.897,104.318C302.912,104.166 302.978,104.049 303.056,103.959C303.036,103.947 303.015,103.935 302.992,103.922C302.717,103.757 302.597,103.622 302.481,103.493C302.392,103.394 302.3,103.291 302.086,103.133C301.992,103.064 301.91,103.01 301.84,102.964C301.631,102.827 301.381,102.646 301.373,102.311C301.377,101.953 301.667,101.755 301.86,101.624C302.203,101.39 302.452,101.28 302.618,101.207C302.678,101.181 302.746,101.151 302.767,101.136C302.933,101.015 302.739,100.085 302.668,99.734C302.505,98.947 302.365,98.266 302.857,97.965C303.209,97.749 303.69,97.882 304.326,98.372C304.524,98.524 304.676,98.689 304.796,98.835C304.866,98.708 304.977,98.592 305.156,98.54C305.58,98.417 306.022,98.767 306.473,99.578C306.585,99.78 306.735,100.051 306.817,100.436C306.856,100.617 306.869,100.781 306.879,100.922C306.961,100.921 307.05,100.937 307.143,100.983C307.417,101.119 307.556,101.416 307.543,101.873C307.535,102.375 307.454,102.791 307.383,103.159C307.322,103.479 307.27,103.755 307.292,103.97C307.339,104.368 307.672,104.663 308.103,105.008L309.196,105.87Z" fill="#F2F2F2"/>
<path d="M309.433,100.626L309.624,98.87L309.741,98.76C310.285,98.25 310.625,97.71 310.752,97.154C310.772,97.066 310.788,96.976 310.804,96.885C310.868,96.524 310.947,96.076 311.296,95.61C311.492,95.35 312.009,94.763 312.542,94.968C312.686,95.022 312.783,95.114 312.851,95.213C312.868,95.196 312.885,95.179 312.904,95.16C313.134,94.938 313.295,94.856 313.451,94.778C313.57,94.717 313.693,94.655 313.902,94.49C313.993,94.417 314.067,94.352 314.128,94.297C314.315,94.131 314.555,93.936 314.883,94.013C315.231,94.108 315.35,94.437 315.429,94.655C315.57,95.044 315.614,95.312 315.642,95.489C315.653,95.554 315.665,95.627 315.674,95.65C315.75,95.841 316.705,95.89 317.065,95.911C317.872,95.954 318.572,95.992 318.74,96.541C318.86,96.934 318.609,97.363 317.971,97.849C317.772,98.001 317.573,98.105 317.4,98.183C317.507,98.283 317.592,98.419 317.597,98.604C317.608,99.043 317.156,99.379 316.251,99.606C316.027,99.663 315.724,99.738 315.329,99.719C315.142,99.71 314.979,99.682 314.84,99.655C314.819,99.734 314.781,99.816 314.713,99.893C314.511,100.122 314.186,100.18 313.745,100.051C313.258,99.917 312.873,99.733 312.533,99.572C312.236,99.432 311.981,99.312 311.766,99.279C311.367,99.223 310.995,99.468 310.549,99.794L309.433,100.626Z" fill="#F2F2F2"/>
<path d="M303.731,134.26L303.42,133.955L302.988,133.91C302.99,133.869 302.988,133.775 302.984,133.627C302.968,132.82 302.916,130.362 303.261,126.586C303.501,123.95 303.904,121.274 304.456,118.632C305.009,115.985 305.583,114.016 306.045,112.433C306.393,111.239 306.744,110.107 307.087,109.004C308.002,106.058 308.866,103.274 309.402,100.099C309.521,99.39 309.77,97.915 309.261,96.174C308.965,95.164 308.46,94.213 307.757,93.349L308.437,92.804C309.212,93.758 309.772,94.811 310.1,95.933C310.665,97.863 310.394,99.471 310.263,100.243C309.719,103.474 308.846,106.284 307.922,109.259C307.58,110.358 307.23,111.486 306.884,112.675C306.427,114.243 305.858,116.195 305.311,118.807C304.765,121.418 304.368,124.061 304.13,126.664C303.79,130.393 303.842,132.814 303.858,133.609C303.867,134.034 303.869,134.123 303.731,134.26Z" fill="#F2F2F2"/>
<path d="M305.89,94.348C305.855,94.34 305.82,94.332 305.785,94.321C305.068,94.122 304.492,93.541 304.074,92.596C303.879,92.152 303.832,91.684 303.74,90.751C303.726,90.607 303.662,89.88 303.741,88.915C303.792,88.285 303.86,88.032 304.032,87.833C304.224,87.612 304.483,87.485 304.756,87.421C304.763,87.338 304.791,87.256 304.845,87.179C305.07,86.858 305.446,86.99 305.65,87.059C305.752,87.095 305.88,87.142 306.024,87.166C306.251,87.205 306.386,87.165 306.591,87.106C306.786,87.05 307.03,86.98 307.366,86.986C308.03,86.995 308.522,87.291 308.684,87.389C309.538,87.898 309.832,88.711 310.173,89.652C310.241,89.84 310.466,90.522 310.519,91.4C310.556,92.034 310.473,92.293 310.377,92.478C310.181,92.859 309.882,93.036 309.138,93.408C308.361,93.797 307.971,93.992 307.651,94.092C306.907,94.324 306.44,94.47 305.89,94.348Z" fill="#F2F2F2"/>
<path d="M85.587,103.87L85.016,85.983C85.007,85.693 85.122,85.41 85.331,85.207C85.541,85.005 85.829,84.899 86.121,84.916L100.414,85.767C100.702,85.784 100.973,85.921 101.157,86.143C101.341,86.365 101.424,86.655 101.385,86.94L98.967,104.719C98.894,105.257 98.41,105.65 97.865,105.614L86.561,104.872C86.446,104.864 86.337,104.839 86.236,104.798C85.863,104.648 85.601,104.292 85.587,103.87Z" fill="#FF1515"/>
<path d="M85.034,84.309C85.234,84.288 85.502,84.263 85.823,84.236C85.737,84.077 85.702,83.889 85.739,83.696L85.994,82.356C86.061,82.008 86.343,81.742 86.696,81.695C88.8,81.415 96.039,80.657 100.596,82.711C100.881,82.839 101.065,83.121 101.074,83.432L101.116,84.862C101.121,85.038 101.069,85.202 100.978,85.338C101.357,85.439 101.735,85.546 102.11,85.663C102.344,85.736 102.513,85.942 102.541,86.185L102.612,86.793C102.656,87.18 102.338,87.512 101.947,87.486L84.86,86.34C84.471,86.314 84.2,85.945 84.294,85.569L84.491,84.779C84.554,84.524 84.771,84.337 85.034,84.309Z" fill="#3F3D56"/>
<path d="M42.575,53.112L42.004,35.224C41.995,34.934 42.11,34.651 42.319,34.449C42.529,34.246 42.817,34.14 43.109,34.157L57.402,35.008C57.69,35.025 57.961,35.163 58.145,35.385C58.329,35.606 58.412,35.897 58.373,36.181L55.955,53.96C55.882,54.498 55.398,54.891 54.852,54.855L43.549,54.113C43.434,54.105 43.325,54.08 43.224,54.039C42.85,53.889 42.588,53.533 42.575,53.112Z" fill="#FF1515"/>
<path d="M42.022,33.551C42.222,33.53 42.49,33.504 42.811,33.477C42.725,33.318 42.69,33.13 42.727,32.937L42.982,31.597C43.048,31.25 43.33,30.983 43.684,30.936C45.788,30.657 53.026,29.898 57.584,31.952C57.869,32.08 58.053,32.363 58.062,32.673L58.103,34.103C58.109,34.28 58.057,34.443 57.966,34.579C58.345,34.68 58.723,34.787 59.097,34.904C59.332,34.977 59.5,35.183 59.529,35.426L59.599,36.035C59.644,36.421 59.325,36.753 58.935,36.727L41.848,35.581C41.459,35.555 41.188,35.186 41.282,34.811L41.479,34.02C41.542,33.765 41.759,33.578 42.022,33.551Z" fill="#3F3D56"/>
<path d="M266.746,108.393L266.175,90.505C266.166,90.215 266.281,89.932 266.491,89.73C266.7,89.527 266.988,89.421 267.281,89.438L281.573,90.29C281.862,90.307 282.133,90.444 282.316,90.666C282.5,90.888 282.583,91.178 282.544,91.462L280.127,109.241C280.053,109.779 279.569,110.172 279.024,110.136L267.72,109.394C267.606,109.386 267.496,109.361 267.395,109.32C267.022,109.17 266.76,108.814 266.746,108.393Z" fill="#FF1515"/>
<path d="M266.193,88.832C266.393,88.811 266.661,88.785 266.983,88.758C266.897,88.599 266.861,88.411 266.898,88.218L267.153,86.879C267.22,86.531 267.502,86.264 267.855,86.217C269.959,85.938 277.198,85.18 281.755,87.233C282.041,87.362 282.224,87.644 282.233,87.955L282.275,89.384C282.28,89.561 282.228,89.725 282.138,89.86C282.517,89.962 282.894,90.069 283.269,90.185C283.504,90.258 283.672,90.464 283.7,90.707L283.771,91.316C283.816,91.702 283.497,92.034 283.106,92.008L266.019,90.862C265.63,90.836 265.36,90.468 265.453,90.092L265.65,89.301C265.713,89.047 265.931,88.859 266.193,88.832Z" fill="#3F3D56"/>
</svg>
