<svg width="588" height="464" viewBox="0 0 588 464" fill="none" xmlns="http://www.w3.org/2000/svg" xmlns:xlink="http://www.w3.org/1999/xlink">
<path d="M369.547,422.74L360.68,422.739L356.462,388.539L369.549,388.54L369.547,422.74Z" fill="#9E616A"/>
<path d="M371.808,431.335L343.218,431.334L343.218,430.973C343.218,428.021 344.39,425.191 346.477,423.104C348.564,421.017 351.395,419.845 354.346,419.845L354.346,419.845L371.808,419.845L371.808,431.335Z" fill="#010101"/>
<path d="M337.726,422.74L328.859,422.739L324.641,388.539L337.727,388.54L337.726,422.74Z" fill="#9E616A"/>
<path d="M339.985,431.335L311.395,431.334L311.395,430.973C311.395,428.021 312.567,425.191 314.654,423.104C316.741,421.017 319.571,419.845 322.523,419.845L322.523,419.845L339.985,419.845L339.985,431.335Z" fill="#010101"/>
<path d="M234.456,183.092C235.165,184.067 236.078,184.874 237.133,185.457C238.187,186.041 239.357,186.386 240.559,186.468C241.761,186.55 242.967,186.368 244.091,185.934C245.215,185.5 246.23,184.825 247.065,183.956L264.61,190.808L271.373,181.161L246.461,171.834C244.909,170.528 242.931,169.837 240.903,169.892C238.875,169.946 236.938,170.743 235.458,172.131C233.978,173.519 233.059,175.401 232.874,177.421C232.69,179.442 233.252,181.459 234.456,183.092Z" fill="#9E616A"/>
<path d="M337.612,241.539L314.513,249.074L322.229,412.667L340.057,413.108L349.181,297.74L351.252,412.652L373.296,413.867L381.422,241.539L337.612,241.539Z" fill="#010101"/>
<path d="M322.026,145.103L381.313,132.222L387.906,183.271L382.416,207.663L384.615,244.732C384.615,244.732 337.736,268.064 314.513,249.074C314.513,249.074 333.179,200.046 322.359,177.095L322.026,145.103Z" fill="#969696"/>
<path d="M332.294,152.324L322.027,145.103C322.027,145.103 321.42,144.263 312.864,154.266C304.308,164.269 286.95,180.18 286.95,180.18L258.021,169.332L252.75,188.805L286.372,204.473L333.972,172.683L332.294,152.324Z" fill="#969696"/>
<path d="M384.625,263.867C385.714,263.353 386.678,262.605 387.447,261.678C388.217,260.751 388.774,259.666 389.078,258.5C389.383,257.334 389.429,256.116 389.212,254.931C388.995,253.746 388.521,252.622 387.823,251.64L397.823,235.679L389.605,227.236L375.8,249.975C374.228,251.257 373.18,253.071 372.856,255.074C372.532,257.076 372.954,259.128 374.042,260.841C375.13,262.553 376.808,263.807 378.758,264.365C380.709,264.923 382.796,264.746 384.625,263.867Z" fill="#9E616A"/>
<path d="M372.066,142.277L381.314,132.221C381.314,132.221 391.617,128.633 400.035,147.174C408.453,165.715 417.855,203.323 417.855,203.323L395.872,245.666L378.8,238.038L395.873,203.024L377.807,177.094L372.066,142.277Z" fill="#969696"/>
<path d="M347.154,130.392C357.783,130.392 366.399,121.776 366.399,111.148C366.399,100.519 357.783,91.903 347.154,91.903C336.526,91.903 327.91,100.519 327.91,111.148C327.91,121.776 336.526,130.392 347.154,130.392Z" transform="rotate(-57.326 347.154 111.148)" fill="#9E616A"/>
<path d="M363.383,93.938C362.473,90.116 359.287,87.1 355.622,85.686C351.957,84.271 347.876,84.285 344.003,84.943C337.574,86.035 331.571,88.808 325.656,91.552L330.215,93.733L323.924,94.094L328.785,96.608C327.487,97.596 326.5,98.936 325.94,100.468C325.38,102.001 325.272,103.662 325.627,105.254C325.878,106.295 326.546,107.444 327.617,107.48C328.912,107.523 329.588,106.014 330.494,105.089C331.699,103.858 333.604,103.585 335.311,103.817C337.019,104.049 338.638,104.705 340.323,105.069C342.453,105.513 344.654,105.488 346.773,104.997C348.893,104.506 350.88,103.56 352.598,102.225L358.661,116.822C358.603,116.272 358.674,115.715 358.868,115.197C359.061,114.678 359.372,114.211 359.775,113.833C360.179,113.454 360.664,113.174 361.194,113.014C361.724,112.854 362.284,112.818 362.83,112.91C363.375,113.002 363.893,113.219 364.341,113.544C364.789,113.869 365.156,114.293 365.413,114.783C365.67,115.273 365.81,115.816 365.823,116.37C365.835,116.923 365.72,117.472 365.485,117.973C368.11,114.015 370.221,109.518 370.293,104.769C370.366,100.02 368.01,95.018 363.699,93.025Z" fill="#010101"/>
<path d="M140.353,388.822L132.156,401.71L136.931,384.932C126.849,374.412 112.892,366.717 112.892,366.717C112.892,366.717 95.707,394.961 100.332,412.335C104.958,429.71 116.902,433.026 129.643,429.634C142.384,426.242 151.097,417.426 146.472,400.052C145.442,396.185 143.206,392.388 140.353,388.822Z" fill="#F2F2F2"/>
<path d="M129.507,402.995L129.735,403.852C132.334,413.82 132.723,422.034 130.885,428.38C130.86,428.473 130.829,428.563 130.804,428.656L130.375,428.529L129.965,428.402C132.047,421.524 131.118,412.832 128.853,404.136C128.782,403.855 128.711,403.57 128.631,403.287C127.64,399.615 126.425,395.957 125.103,392.44C125.003,392.167 124.898,391.891 124.793,391.615C123.024,386.983 121.091,382.622 119.3,378.862C119.175,378.596 119.045,378.331 118.917,378.07C115.859,371.72 113.268,367.22 112.685,366.227C112.617,366.104 112.576,366.038 112.567,366.022L112.94,365.8L112.943,365.795L113.319,365.572C113.328,365.588 113.464,365.811 113.703,366.228C114.603,367.786 116.995,372.03 119.753,377.734C119.876,377.992 120.006,378.257 120.131,378.523C121.588,381.572 123.132,385.002 124.601,388.643C124.971,389.556 125.325,390.461 125.664,391.356C125.773,391.631 125.878,391.907 125.978,392.18C127.408,395.981 128.584,399.586 129.507,402.995Z" fill="#010101"/>
<path d="M119.754,377.733C119.48,377.847 119.202,377.962 118.917,378.069C118.144,378.363 117.357,378.616 116.559,378.829C113.156,379.74 109.593,379.875 106.131,379.226C106.013,379.498 105.895,379.77 105.773,380.048C109.424,380.765 113.19,380.638 116.784,379.677C117.637,379.45 118.477,379.178 119.3,378.862C119.581,378.755 119.859,378.64 120.132,378.522C122.387,377.562 124.483,376.264 126.349,374.674C126.104,374.49 125.865,374.308 125.632,374.13C123.86,375.614 121.88,376.828 119.754,377.733Z" fill="#010101"/>
<path d="M125.665,391.356C125.377,391.451 125.087,391.537 124.794,391.615C124.706,391.643 124.613,391.668 124.524,391.691C120.836,392.673 116.966,392.749 113.242,391.911C109.519,391.074 106.053,389.349 103.14,386.883C103.037,387.178 102.934,387.473 102.837,387.772C105.848,390.25 109.406,391.975 113.217,392.804C117.028,393.633 120.981,393.542 124.75,392.539C124.869,392.508 124.987,392.476 125.105,392.44C125.401,392.357 125.691,392.27 125.98,392.18C130.445,390.743 134.402,388.05 137.377,384.424C137.174,384.21 136.972,383.996 136.766,383.783C133.881,387.334 130.023,389.965 125.665,391.356Z" fill="#010101"/>
<path d="M129.507,402.994C129.217,403.099 128.924,403.195 128.631,403.287C128.316,403.384 128.001,403.477 127.683,403.562C122.726,404.875 117.477,404.548 112.721,402.629C107.966,400.709 103.96,397.301 101.303,392.915C101.204,393.309 101.104,393.699 101.013,394.091C103.842,398.419 107.964,401.746 112.792,403.599C117.621,405.451 122.91,405.735 127.908,404.41C128.226,404.325 128.543,404.236 128.853,404.136C129.151,404.047 129.444,403.951 129.735,403.851C135.604,401.786 140.47,397.568 143.346,392.05C143.173,391.76 142.989,391.478 142.804,391.191C140.075,396.705 135.305,400.939 129.507,402.994Z" fill="#010101"/>
<path d="M460.112,390.166L452.034,402.866L456.739,386.332C446.804,375.966 433.05,368.382 433.05,368.382C433.05,368.382 416.114,396.216 420.672,413.338C425.231,430.459 437.001,433.728 449.557,430.385C462.113,427.042 470.7,418.354 466.142,401.233C465.127,397.422 462.923,393.68 460.112,390.166Z" fill="#F2F2F2"/>
<path d="M449.425,404.133L449.649,404.977C452.211,414.801 452.594,422.895 450.783,429.149C450.758,429.241 450.728,429.329 450.703,429.421L450.28,429.296L449.876,429.171C451.928,422.392 451.012,413.827 448.78,405.258C448.711,404.981 448.64,404.7 448.562,404.421C447.585,400.802 446.388,397.197 445.085,393.732C444.987,393.463 444.883,393.191 444.779,392.919C443.036,388.354 441.131,384.056 439.366,380.351C439.243,380.089 439.115,379.827 438.988,379.57C435.976,373.312 433.422,368.878 432.848,367.899C432.78,367.778 432.74,367.713 432.731,367.697L433.098,367.479L433.101,367.474L433.472,367.254C433.481,367.27 433.616,367.489 433.85,367.9C434.738,369.436 437.095,373.618 439.813,379.239C439.934,379.493 440.062,379.754 440.186,380.017C441.621,383.021 443.143,386.401 444.59,389.989C444.955,390.89 445.304,391.781 445.637,392.663C445.745,392.934 445.849,393.206 445.948,393.475C447.356,397.221 448.515,400.774 449.425,404.133Z" fill="#010101"/>
<path d="M439.811,379.239C439.541,379.351 439.267,379.464 438.987,379.57C438.225,379.859 437.45,380.109 436.663,380.318C433.31,381.216 429.798,381.349 426.387,380.71C426.27,380.978 426.154,381.246 426.034,381.519C429.632,382.226 433.343,382.101 436.885,381.154C437.725,380.93 438.553,380.662 439.365,380.351C439.641,380.246 439.915,380.133 440.184,380.016C442.406,379.07 444.472,377.791 446.311,376.224C446.07,376.042 445.834,375.863 445.604,375.688C443.858,377.15 441.906,378.347 439.811,379.239Z" fill="#010101"/>
<path d="M445.636,392.663C445.352,392.756 445.066,392.841 444.778,392.918C444.691,392.945 444.599,392.97 444.512,392.993C440.877,393.961 437.063,394.035 433.394,393.21C429.724,392.385 426.309,390.685 423.439,388.255C423.337,388.546 423.236,388.837 423.14,389.131C426.107,391.573 429.614,393.273 433.369,394.09C437.124,394.907 441.02,394.817 444.734,393.829C444.851,393.798 444.968,393.767 445.084,393.731C445.375,393.649 445.661,393.564 445.946,393.475C450.346,392.059 454.246,389.405 457.177,385.832C456.978,385.621 456.779,385.41 456.575,385.2C453.733,388.699 449.931,391.293 445.636,392.663Z" fill="#010101"/>
<path d="M449.423,404.134C449.137,404.236 448.849,404.331 448.56,404.421C448.25,404.517 447.939,404.609 447.625,404.693C442.74,405.987 437.567,405.664 432.881,403.773C428.195,401.882 424.247,398.523 421.629,394.2C421.531,394.589 421.432,394.973 421.343,395.359C424.131,399.625 428.193,402.903 432.951,404.729C437.709,406.554 442.922,406.834 447.848,405.528C448.161,405.445 448.474,405.357 448.778,405.258C449.073,405.171 449.361,405.076 449.648,404.977C455.432,402.943 460.227,398.786 463.061,393.349C462.891,393.063 462.71,392.784 462.527,392.502C459.838,397.936 455.137,402.108 449.423,404.134Z" fill="#010101"/>
<path d="M292.918,74.628C292.918,44.248 271.738,19.62 245.611,19.62C219.484,19.62 198.304,44.248 198.304,74.628C198.304,102.182 215.726,125.003 238.46,129.011L238.46,134.195C238.46,135.175 238.849,136.114 239.541,136.806C240.234,137.499 241.173,137.888 242.152,137.888L249.07,137.888C250.049,137.888 250.988,137.499 251.68,136.806C252.373,136.114 252.762,135.175 252.762,134.195L252.762,129.011C275.495,125.003 292.918,102.182 292.918,74.628Z" fill="#FF1515"/>
<path d="M237.322,133.447C238.802,132.057 240.566,131.003 242.491,130.359C244.417,129.715 246.459,129.495 248.478,129.715C250.513,129.951 252.464,130.656 254.18,131.774C255.895,132.893 257.328,134.395 258.364,136.162C259.4,137.876 260.051,139.795 260.272,141.786C260.492,143.777 260.277,145.792 259.641,147.691C258.398,151.479 255.754,154.632 253.045,157.473C250.202,160.454 247.11,163.203 244.438,166.344C240.03,171.555 236.953,177.757 235.469,184.418C233.985,191.08 234.14,198.002 235.919,204.591C238.263,212.942 243.105,220.377 249.795,225.898C250.644,226.592 251.519,227.254 252.419,227.882C253.461,228.611 254.447,226.903 253.414,226.18C246.151,221.042 240.784,213.654 238.142,205.159C236.139,198.539 235.882,191.513 237.398,184.765C238.913,178.016 242.149,171.775 246.791,166.647C249.61,163.535 252.766,160.748 255.585,157.635C258.285,154.652 260.746,151.287 261.801,147.346C262.334,145.343 262.467,143.253 262.19,141.198C261.913,139.144 261.233,137.164 260.188,135.373C259.147,133.542 257.74,131.946 256.054,130.685C254.368,129.423 252.44,128.523 250.39,128.042C246.266,127.146 241.956,127.892 238.373,130.122C237.496,130.682 236.677,131.329 235.928,132.053C235.013,132.935 236.408,134.327 237.322,133.447Z" fill="#3F3D56"/>
<path d="M110.62,51.594C96.146,18.318 61.213,1.434 32.596,13.883C3.979,26.331 -7.485,63.398 6.989,96.673C20.117,126.852 50.074,143.547 76.884,137.106L79.353,142.784C79.82,143.857 80.694,144.7 81.782,145.129C82.87,145.557 84.084,145.536 85.157,145.069L92.734,141.773C93.806,141.307 94.65,140.433 95.078,139.345C95.507,138.256 95.485,137.042 95.019,135.97L92.549,130.292C115.539,115.07 123.748,81.773 110.62,51.594Z" fill="#FF1515"/>
<path d="M77.606,142.337C78.546,140.17 79.932,138.225 81.672,136.628C83.412,135.031 85.468,133.817 87.707,133.065C89.906,132.325 92.24,132.074 94.546,132.33C96.852,132.586 99.074,133.344 101.056,134.548C103.099,135.758 104.86,137.39 106.222,139.334C107.584,141.279 108.516,143.491 108.956,145.824C109.967,151.23 108.327,156.737 106.465,161.771C104.512,167.047 102.079,172.172 100.721,177.652C98.832,185.353 98.793,193.392 100.61,201.111C102.426,208.83 106.045,216.009 111.17,222.06C117.625,229.54 126.127,234.97 135.628,237.68C136.794,238.008 137.972,238.289 139.158,238.529C140.397,238.78 140.927,236.88 139.682,236.628C129.796,234.593 120.787,229.537 113.9,222.158C106.6,214.265 102.19,204.131 101.39,193.41C100.961,187.978 101.459,182.513 102.862,177.247C104.36,171.692 106.895,166.49 108.806,161.076C110.63,155.911 111.923,150.364 110.777,144.897C109.723,140.084 106.803,135.886 102.656,133.225C100.669,131.914 98.441,131.012 96.102,130.57C93.763,130.128 91.36,130.156 89.031,130.651C84.277,131.728 80.111,134.576 77.382,138.616C76.718,139.623 76.156,140.694 75.705,141.813C75.221,142.984 77.127,143.494 77.606,142.337Z" fill="#3F3D56"/>
<path d="M514.961,453.515L525.586,453.514L530.64,412.532L514.959,412.533L514.961,453.515Z" fill="#FFB6B6"/>
<path d="M512.25,450.045L533.174,450.044L533.175,450.044C536.711,450.044 540.103,451.449 542.604,453.95C545.104,456.45 546.509,459.842 546.509,463.378L546.509,463.812L512.251,463.813L512.25,450.045Z" fill="#010101"/>
<path d="M452.074,444.479L462.204,447.683L479.384,410.135L464.433,405.405L452.074,444.479Z" fill="#FFB6B6"/>
<path d="M450.537,440.354L470.487,446.664L470.488,446.664C473.859,447.731 476.669,450.093 478.299,453.232C479.929,456.37 480.246,460.027 479.179,463.399L479.049,463.812L446.385,453.481L450.537,440.354Z" fill="#010101"/>
<path d="M475.997,266.347L470.101,282.975L469.934,372.748L453.214,434.212L473.739,439.94L496.411,381.985L503.683,331.08L513.266,382.281L511.947,443.137L533.482,443.137L535.107,349.357C535.564,323.02 530.955,296.841 521.533,272.243L475.997,266.347Z" fill="#010101"/>
<path d="M468.975,198.987L503.783,198.987L518.327,213.532L522.672,273.651L470.101,282.111L453.213,224.749L462.41,200.37L468.975,198.987Z" fill="#969696"/>
<path d="M456.457,225.323L402.865,205.159L401.47,196.824L435.268,168.225L446.517,176.662L426.128,198.988L462.41,200.37L456.457,225.323Z" fill="#969696"/>
<circle cx="441.769" cy="171.255" r="8.666" fill="#FFB6B6"/>
<path d="M461.867,182.173L465.783,164.515C466.469,161.405 467.762,158.461 469.587,155.85C471.412,153.24 473.734,151.016 476.419,149.303C479.104,147.591 482.101,146.425 485.237,145.871C488.374,145.317 491.588,145.387 494.698,146.077C497.807,146.766 500.75,148.062 503.358,149.89C505.967,151.717 508.189,154.041 509.899,156.728C511.609,159.415 512.772,162.413 513.323,165.55C513.873,168.687 513.8,171.901 513.108,175.01L509.192,192.669C509.004,193.511 508.489,194.245 507.761,194.708C507.033,195.172 506.151,195.328 505.308,195.142L464.34,186.057C463.498,185.869 462.764,185.355 462.3,184.627C461.837,183.899 461.681,183.016 461.867,182.173Z" fill="#010101"/>
<path d="M483.901,189.532C493.715,189.532 501.671,181.576 501.671,171.762C501.671,161.948 493.715,153.992 483.901,153.992C474.087,153.992 466.131,161.948 466.131,171.762C466.131,181.576 474.087,189.532 483.901,189.532Z" transform="rotate(-32.319 483.901 171.762)" fill="#FFB6B6"/>
<path d="M459.871,164.686C460.977,159.724 464.006,155.404 468.294,152.673C472.581,149.942 477.777,149.024 482.741,150.119L486.272,150.902C491.234,152.008 495.554,155.037 498.285,159.324C501.016,163.612 501.934,168.807 500.839,173.771L500.761,174.124L493.297,172.469L492.332,164.776L490.243,171.792L486.385,170.936L485.898,167.055L484.844,170.594L459.793,165.039L459.871,164.686Z" fill="#010101"/>
<path d="M477.815,191.129C477.57,190.576 477.486,189.966 477.572,189.368C477.658,188.77 477.912,188.209 478.303,187.749C483.625,181.46 491.782,169.468 486.625,159.814L486.255,159.12L506.447,163.598L499.724,193.914L480.663,193.083C480.47,193.075 480.278,193.05 480.09,193.008C479.589,192.897 479.122,192.669 478.726,192.342C478.331,192.015 478.018,191.599 477.815,191.129Z" fill="#010101"/>
<path d="M502.399,199.352L559.088,207.412L562.258,215.247L535.467,250.495L522.655,244.699L537.717,218.482L501.999,225.002L502.399,199.352Z" fill="#969696"/>
<path d="M587.273,85.074C587.273,48.787 561.975,19.37 530.767,19.37C499.56,19.37 474.262,48.787 474.262,85.074C474.262,117.985 495.072,145.244 522.226,150.032L522.226,156.224C522.226,157.393 522.691,158.515 523.518,159.342C524.345,160.17 525.466,160.634 526.636,160.634L534.899,160.634C536.068,160.634 537.19,160.17 538.017,159.342C538.844,158.515 539.309,157.393 539.309,156.224L539.309,150.032C566.463,145.244 587.273,117.986 587.273,85.074Z" fill="#FF1515"/>
<path d="M520.731,155.193C522.525,153.507 524.663,152.231 526.999,151.453C529.335,150.675 531.812,150.413 534.259,150.687C536.663,150.97 538.971,151.797 541.008,153.104C543.045,154.411 544.758,156.165 546.017,158.232C547.298,160.272 548.122,162.566 548.432,164.955C548.742,167.344 548.531,169.772 547.813,172.071C546.419,176.585 543.359,180.365 540.169,183.753C536.767,187.367 533.039,190.672 529.786,194.427C524.483,200.59 520.756,207.949 518.925,215.871C517.095,223.793 517.216,232.041 519.278,239.906C522.037,250.015 527.866,259.018 535.961,265.671C536.944,266.472 537.955,267.235 538.996,267.961C540.037,268.689 541.024,266.981 539.99,266.259C531.322,260.132 524.902,251.331 521.714,241.206C519.292,233.303 518.949,224.909 520.717,216.834C522.485,208.76 526.305,201.277 531.807,195.109C535.151,191.376 538.917,188.05 542.3,184.353C545.539,180.813 548.512,176.838 549.843,172.16C550.513,169.797 550.707,167.325 550.415,164.887C550.124,162.448 549.351,160.092 548.143,157.954C546.939,155.767 545.297,153.853 543.319,152.331C541.341,150.809 539.07,149.712 536.648,149.109C531.727,147.978 526.558,148.835 522.265,151.495C521.213,152.16 520.231,152.933 519.337,153.799C518.423,154.682 519.817,156.075 520.731,155.193Z" fill="#3F3D56"/>
<path d="M527.565,260.518C532.351,260.518 536.231,256.638 536.231,251.852C536.231,247.066 532.351,243.186 527.565,243.186C522.778,243.186 518.898,247.066 518.898,251.852C518.898,256.638 522.778,260.518 527.565,260.518Z" fill="#FFB6B6"/>
<path d="M437.256,173.689C436.802,174.407 435.7,174.303 435.081,173.854C434.223,173.23 434.501,172.028 435.092,171.318C436.971,169.062 440.08,171.444 440.499,173.685C440.655,174.778 440.487,175.892 440.016,176.89C439.544,177.888 438.79,178.725 437.847,179.298C435.702,180.569 432.917,179.932 431.073,178.411C427.227,175.238 428.274,168.886 432.546,166.591C435.273,165.126 438.719,165.769 441.405,166.996C444.429,168.377 447.028,170.494 449.824,172.259C455.959,176.099 462.898,178.468 470.1,179.182C471.361,179.311 471.352,177.339 470.1,177.211C466.109,176.799 462.191,175.855 458.45,174.406C454.748,172.906 451.234,170.977 447.981,168.66C444.689,166.403 441.25,164.212 437.176,163.839C435.532,163.647 433.866,163.893 432.348,164.554C430.831,165.214 429.515,166.265 428.535,167.599C427.663,168.792 427.079,170.171 426.83,171.628C426.58,173.085 426.671,174.58 427.096,175.995C427.608,177.476 428.503,178.794 429.69,179.816C430.877,180.838 432.314,181.527 433.854,181.814C435.336,182.094 436.869,181.904 438.239,181.271C439.609,180.639 440.747,179.594 441.494,178.284C442.994,175.69 442.945,172.207 440.68,170.057C440.031,169.397 439.218,168.921 438.325,168.678C437.432,168.435 436.49,168.434 435.596,168.674C434.772,168.952 434.047,169.464 433.51,170.148C432.973,170.832 432.647,171.657 432.571,172.523C432.353,175.889 437.131,177.573 438.958,174.684C439.638,173.608 437.933,172.618 437.256,173.689Z" fill="#3F3D56"/>
<path d="M42.905,279.621L40.302,282.888L31.094,277.441L33.697,274.174L42.905,279.621Z" fill="#969696"/>
<path d="M52.513,293.654L54.812,297.086L45.139,301.898L42.84,298.466L52.513,293.654Z" fill="#969696"/>
<path d="M62.527,278.735L67.122,278.898L66.665,288.513L62.069,288.351L62.527,278.735Z" fill="#969696"/>
<path d="M151.317,19.432L148.714,22.698L139.506,17.251L142.109,13.984L151.317,19.432Z" fill="#969696"/>
<path d="M160.925,33.466L163.225,36.898L153.552,41.709L151.252,38.277L160.925,33.466Z" fill="#969696"/>
<path d="M170.938,18.548L175.533,18.71L175.076,28.325L170.48,28.163L170.938,18.548Z" fill="#969696"/>
<path d="M406.906,53.598L404.303,56.864L395.095,51.417L397.698,48.15L406.906,53.598Z" fill="#969696"/>
<path d="M416.514,67.632L418.813,71.064L409.14,75.875L406.841,72.443L416.514,67.632Z" fill="#969696"/>
<path d="M426.528,52.714L431.123,52.876L430.666,62.491L426.07,62.329L426.528,52.714Z" fill="#969696"/>
<path d="M328.718,5.634L326.115,8.9L316.907,3.453L319.51,0.187L328.718,5.634Z" fill="#969696"/>
<path d="M338.326,19.669L340.626,23.101L330.953,27.912L328.653,24.48L338.326,19.669Z" fill="#969696"/>
<path d="M348.34,4.75L352.935,4.912L352.478,14.527L347.883,14.365L348.34,4.75Z" fill="#969696"/>
<path d="M413.814,250.648L409.214,250.648L409.214,261.818L413.814,261.818L413.814,250.648Z" transform="rotate(-111.049 411.514 256.233)" fill="#969696"/>
<path d="M425.64,272.989L421.04,272.989L421.04,284.158L425.64,284.158L425.64,272.989Z" transform="rotate(-240 423.34 278.573)" fill="#969696"/>
<path d="M441.408,256.562L436.809,256.562L436.809,267.732L441.408,267.732L441.408,256.562Z" transform="rotate(-355.305 439.109 262.147)" fill="#969696"/>
<path d="M212.884,423.237L220.844,422.006L215.387,358.404L197.646,361.69L212.884,423.237Z" fill="#FFB6B6"/>
<path d="M210.451,420.951L226.128,418.527C228.778,418.117 231.483,418.777 233.646,420.361C235.809,421.945 237.255,424.323 237.665,426.973L237.715,427.298L212.046,431.267L210.451,420.951Z" fill="#010101"/>
<path d="M129.217,422.448L137.264,422.79L147.053,366.287L129.313,366.288L129.217,422.448Z" fill="#FFB6B6"/>
<path d="M127.277,419.733L143.126,420.408L143.127,420.408C145.806,420.523 148.329,421.697 150.143,423.671C151.956,425.646 152.911,428.261 152.797,430.939L152.783,431.268L126.833,430.162L127.277,419.733Z" fill="#010101"/>
<path d="M145.063,238.359C144.684,238.252 144.295,238.18 143.902,238.142L148.919,197.077L165.942,161.026C167.013,158.758 167.184,156.169 166.421,153.78C165.658,151.391 164.017,149.38 161.83,148.153C159.642,146.926 157.071,146.575 154.635,147.169C152.198,147.763 150.078,149.26 148.701,151.356C144.239,158.149 140.865,165.597 138.698,173.43L131.546,199.289L136.776,243.635C136.575,244.884 136.74,246.166 137.25,247.324C137.761,248.482 138.595,249.469 139.653,250.164C140.711,250.859 141.947,251.234 143.213,251.244C144.479,251.253 145.721,250.896 146.788,250.216C147.856,249.536 148.705,248.563 149.232,247.412C149.76,246.261 149.944,244.982 149.761,243.73C149.579,242.477 149.039,241.303 148.205,240.351C147.372,239.398 146.281,238.706 145.063,238.359Z" fill="#FFB6B6"/>
<path d="M155.4,200.552L133.893,175.948L144.547,150.888C145.942,147.606 148.565,144.999 151.855,143.624C155.145,142.249 158.843,142.215 162.158,143.528C165.473,144.841 168.144,147.397 169.601,150.652C171.057,153.907 171.184,157.603 169.954,160.95L155.4,200.552Z" fill="#010101"/>
<path d="M174.012,132.28C184.8,132.28 193.545,123.535 193.545,112.747C193.545,101.96 184.8,93.214 174.012,93.214C163.225,93.214 154.479,101.96 154.479,112.747C154.479,123.535 163.225,132.28 174.012,132.28Z" transform="rotate(-122.674 174.012 112.747)" fill="#FFB6B6"/>
<path d="M177.277,89.017L164.66,89.017C156.387,89.017 149.682,96.561 149.682,105.867L150.266,128.439C159.204,129.551 167.946,131.889 176.246,135.388L177.423,130.358L179.746,136.982C181.812,137.983 183.861,139.078 185.892,140.266C183.522,129.128 182.546,118.017 184.173,109.385L188.447,109.385L188.447,104.708L189.898,109.385L197.646,109.385C197.646,106.71 197.119,104.061 196.095,101.59C195.072,99.119 193.571,96.874 191.68,94.982C189.789,93.091 187.543,91.591 185.072,90.567C182.601,89.543 179.952,89.017 177.277,89.017Z" fill="#010101"/>
<path d="M218.42,361.859L216.592,362.301L215.058,333.765L203.888,248.35L191.076,215.826L197.317,193.158C197.317,193.158 204.545,177.389 186.476,165.234L172.021,140.923C162.036,134.395 153.821,138.664 149.442,149.761C145.626,159.43 142.664,171.662 144.426,184.288C148.372,212.571 151.653,215.826 151.653,215.826C151.653,215.826 127.014,243.093 132.27,277.917L129.341,368.079L126.661,367.969L126.367,375.131L149.782,376.091L150.075,368.929L148.133,368.849L156.581,333.108L169.065,285.801L190.747,343.621L198.04,366.769L195.637,367.347L197.316,374.315L220.098,368.829L218.42,361.859Z" fill="#010101"/>
<path d="M234.51,199.954C234.245,200.246 234.006,200.561 233.797,200.896L199.3,178.059L174.655,146.722C173.104,144.75 170.864,143.44 168.386,143.056C165.908,142.671 163.376,143.241 161.301,144.649C159.226,146.058 157.762,148.201 157.205,150.647C156.648,153.092 157.04,155.658 158.3,157.826C162.384,164.853 167.539,171.199 173.578,176.638L193.517,194.59L235.527,209.725C236.555,210.463 237.775,210.888 239.04,210.949C240.304,211.01 241.559,210.704 242.654,210.068C243.749,209.433 244.636,208.494 245.21,207.366C245.784,206.238 246.02,204.967 245.889,203.708C245.758,202.449 245.266,201.255 244.472,200.269C243.678,199.283 242.616,198.547 241.414,198.15C240.212,197.754 238.92,197.713 237.696,198.033C236.471,198.353 235.364,199.02 234.51,199.954Z" fill="#FFB6B6"/>
<path d="M205.306,173.815L173.685,182.063L156.025,161.334C153.713,158.619 152.553,155.109 152.793,151.551C153.033,147.993 154.654,144.67 157.31,142.29C159.966,139.911 163.446,138.664 167.009,138.815C170.572,138.966 173.934,140.504 176.379,143.1L205.306,173.815Z" fill="#010101"/>
<path d="M450.402,431.937L25.103,431.937C24.895,431.937 24.696,431.854 24.549,431.708C24.403,431.561 24.32,431.362 24.32,431.154C24.32,430.947 24.403,430.748 24.549,430.601C24.696,430.455 24.895,430.372 25.103,430.372L450.402,430.372C450.61,430.372 450.808,430.455 450.954,430.601C451.102,430.748 451.184,430.947 451.184,431.154C451.184,431.362 451.102,431.561 450.954,431.708C450.808,431.854 450.61,431.937 450.402,431.937Z" fill="#CACACA"/>
</svg>
