<svg width="48" height="48" viewBox="0 0 48 48" fill="none" xmlns="http://www.w3.org/2000/svg" xmlns:xlink="http://www.w3.org/1999/xlink">
<path d="M31,42C31,43.105 31.895,44 33,44C34.105,44 35,43.105 35,42L31,42ZM25,30L25,28L25,30ZM9,30L9,28L9,30ZM1,38L-1,38L1,38ZM-1,42C-1,43.105 -0.105,44 1,44C2.105,44 3,43.105 3,42L-1,42ZM35,42L35,38L31,38L31,42L35,42ZM35,38C35,35.348 33.946,32.804 32.071,30.929L29.243,33.757C30.368,34.883 31,36.409 31,38L35,38ZM32.071,30.929C30.196,29.054 27.652,28 25,28L25,32C26.591,32 28.117,32.632 29.243,33.757L32.071,30.929ZM25,28L9,28L9,32L25,32L25,28ZM9,28C6.348,28 3.804,29.054 1.929,30.929L4.757,33.757C5.883,32.632 7.409,32 9,32L9,28ZM1.929,30.929C0.054,32.804 -1,35.348 -1,38L3,38C3,36.409 3.632,34.883 4.757,33.757L1.929,30.929ZM-1,38L-1,42L3,42L3,38L-1,38Z" fill="#5C5C5C"/>
<path d="M23,14C23,17.314 20.314,20 17,20L17,24C22.523,24 27,19.523 27,14L23,14ZM17,20C13.686,20 11,17.314 11,14L7,14C7,19.523 11.477,24 17,24L17,20ZM11,14C11,10.686 13.686,8 17,8L17,4C11.477,4 7,8.477 7,14L11,14ZM17,8C20.314,8 23,10.686 23,14L27,14C27,8.477 22.523,4 17,4L17,8Z" fill="#5C5C5C"/>
<path d="M43,42C43,43.104 43.895,44 45,44C46.105,44 47,43.104 47,42L43,42ZM45,38L47,38L47,37.998L45,38ZM39.5,28.323C38.431,28.047 37.34,28.69 37.064,29.76C36.787,30.829 37.431,31.92 38.5,32.196L39.5,28.323ZM47,42L47,38L43,38L43,42L47,42ZM47,37.998C46.998,35.783 46.261,33.63 44.903,31.879L41.742,34.33C42.557,35.38 42.999,36.672 43,38.001L47,37.998ZM44.903,31.879C43.546,30.128 41.645,28.877 39.5,28.323L38.5,32.196C39.787,32.529 40.928,33.279 41.742,34.33L44.903,31.879Z" fill="#5C5C5C"/>
<path d="M31.496,4.322C30.426,4.048 29.336,4.694 29.063,5.764C28.789,6.834 29.434,7.923 30.504,8.197L31.496,4.322ZM37.016,14.01L39.016,14.01L37.016,14.01ZM30.504,19.822C29.434,20.096 28.789,21.186 29.063,22.256C29.336,23.326 30.426,23.971 31.496,23.697L30.504,19.822ZM30.504,8.197C31.795,8.528 32.938,9.278 33.755,10.331L36.915,7.878C35.554,6.124 33.647,4.873 31.496,4.322L30.504,8.197ZM33.755,10.331C34.572,11.383 35.016,12.678 35.016,14.01L39.016,14.01C39.016,11.789 38.277,9.632 36.915,7.878L33.755,10.331ZM35.016,14.01C35.016,15.342 34.572,16.636 33.755,17.689L36.915,20.141C38.277,18.387 39.016,16.23 39.016,14.01L35.016,14.01ZM33.755,17.689C32.938,18.741 31.795,19.492 30.504,19.822L31.496,23.697C33.647,23.147 35.554,21.896 36.915,20.141L33.755,17.689Z" fill="#5C5C5C"/>
</svg>
