<svg width="48" height="48" viewBox="0 0 48 48" fill="none" xmlns="http://www.w3.org/2000/svg" xmlns:xlink="http://www.w3.org/1999/xlink">
<path d="M37,42C37,43.105 37.895,44 39,44C40.105,44 41,43.105 41,42L37,42ZM31,30L31,28L31,30ZM15,30L15,28L15,30ZM7,38L5,38L7,38ZM5,42C5,43.105 5.895,44 7,44C8.105,44 9,43.105 9,42L5,42ZM41,42L41,38L37,38L37,42L41,42ZM41,38C41,35.348 39.946,32.804 38.071,30.929L35.243,33.757C36.368,34.883 37,36.409 37,38L41,38ZM38.071,30.929C36.196,29.054 33.652,28 31,28L31,32C32.591,32 34.117,32.632 35.243,33.757L38.071,30.929ZM31,28L15,28L15,32L31,32L31,28ZM15,28C12.348,28 9.804,29.054 7.929,30.929L10.757,33.757C11.883,32.632 13.409,32 15,32L15,28ZM7.929,30.929C6.054,32.804 5,35.348 5,38L9,38C9,36.409 9.632,34.883 10.757,33.757L7.929,30.929ZM5,38L5,42L9,42L9,38L5,38Z" fill="#5C5C5C"/>
<path d="M29,14C29,17.314 26.314,20 23,20L23,24C28.523,24 33,19.523 33,14L29,14ZM23,20C19.686,20 17,17.314 17,14L13,14C13,19.523 17.477,24 23,24L23,20ZM17,14C17,10.686 19.686,8 23,8L23,4C17.477,4 13,8.477 13,14L17,14ZM23,8C26.314,8 29,10.686 29,14L33,14C33,8.477 28.523,4 23,4L23,8Z" fill="#5C5C5C"/>
</svg>
