<svg width="44" height="36" viewBox="0 0 44 36" fill="none" xmlns="http://www.w3.org/2000/svg" xmlns:xlink="http://www.w3.org/1999/xlink">
<path d="M43,11.125C43,24.25 23.539,34.874 22.711,35.312C22.492,35.43 22.248,35.492 22,35.492C21.752,35.492 21.508,35.43 21.289,35.312C20.461,34.874 1,24.25 1,11.125C1.003,8.043 2.229,5.088 4.409,2.909C6.588,0.729 9.543,-0.497 12.625,-0.5C16.497,-0.5 19.887,1.165 22,3.979C24.113,1.165 27.503,-0.5 31.375,-0.5C34.457,-0.497 37.412,0.729 39.591,2.909C41.771,5.088 42.997,8.043 43,11.125Z" fill="#010101"/>
</svg>
