<svg width="42" height="28" viewBox="0 0 42 28" fill="none" xmlns="http://www.w3.org/2000/svg" xmlns:xlink="http://www.w3.org/1999/xlink">
<path d="M40.203,12.22L30.203,0.22C30.015,-0.006 29.779,-0.187 29.513,-0.312C29.247,-0.436 28.957,-0.5 28.663,-0.5L6.663,-0.5C5.071,-0.5 3.545,0.132 2.42,1.257C1.295,2.383 0.663,3.909 0.663,5.5L0.663,21.5C0.663,23.091 1.295,24.617 2.42,25.743C3.545,26.868 5.071,27.5 6.663,27.5L28.663,27.5C28.957,27.5 29.247,27.436 29.513,27.312C29.779,27.187 30.015,27.006 30.203,26.78L40.203,14.78C40.502,14.421 40.666,13.968 40.666,13.5C40.666,13.032 40.502,12.579 40.203,12.22ZM27.723,23.5L6.663,23.5C6.132,23.5 5.624,23.289 5.249,22.914C4.873,22.539 4.663,22.03 4.663,21.5L4.663,5.5C4.663,4.97 4.873,4.461 5.249,4.086C5.624,3.711 6.132,3.5 6.663,3.5L27.723,3.5L36.063,13.5L27.723,23.5ZM22.083,8.08C21.897,7.893 21.676,7.744 21.432,7.642C21.188,7.541 20.927,7.488 20.663,7.488C20.399,7.488 20.137,7.541 19.894,7.642C19.65,7.744 19.429,7.893 19.243,8.08L16.663,10.68L14.083,8.08C13.706,7.703 13.195,7.492 12.663,7.492C12.13,7.492 11.619,7.703 11.243,8.08C10.866,8.457 10.655,8.967 10.655,9.5C10.655,9.764 10.707,10.025 10.807,10.268C10.908,10.512 11.056,10.734 11.243,10.92L13.843,13.5L11.243,16.08C11.055,16.266 10.907,16.487 10.805,16.731C10.703,16.975 10.651,17.236 10.651,17.5C10.651,17.764 10.703,18.025 10.805,18.269C10.907,18.513 11.055,18.734 11.243,18.92C11.429,19.107 11.65,19.256 11.894,19.358C12.137,19.459 12.399,19.512 12.663,19.512C12.927,19.512 13.188,19.459 13.432,19.358C13.676,19.256 13.897,19.107 14.083,18.92L16.663,16.32L19.243,18.92C19.429,19.107 19.65,19.256 19.894,19.358C20.137,19.459 20.399,19.512 20.663,19.512C20.927,19.512 21.188,19.459 21.432,19.358C21.676,19.256 21.897,19.107 22.083,18.92C22.27,18.734 22.419,18.513 22.521,18.269C22.622,18.025 22.674,17.764 22.674,17.5C22.674,17.236 22.622,16.975 22.521,16.731C22.419,16.487 22.27,16.266 22.083,16.08L19.483,13.5L22.083,10.92C22.27,10.734 22.419,10.513 22.521,10.269C22.622,10.025 22.674,9.764 22.674,9.5C22.674,9.236 22.622,8.975 22.521,8.731C22.419,8.487 22.27,8.266 22.083,8.08Z" transform="rotate(-360 20.664 13.5)" fill="#010101" stroke="#FFFFFF" stroke-width="0.4" stroke-miterlimit="3.999327"/>
</svg>
