<svg width="44" height="46" viewBox="0 0 44 46" fill="none" xmlns="http://www.w3.org/2000/svg" xmlns:xlink="http://www.w3.org/1999/xlink">
<path d="M40,22.75C40,32.691 31.941,40.75 22,40.75L22,44.75C34.15,44.75 44,34.9 44,22.75L40,22.75ZM22,40.75C12.059,40.75 4,32.691 4,22.75L0,22.75C0,34.9 9.85,44.75 22,44.75L22,40.75ZM4,22.75C4,12.809 12.059,4.75 22,4.75L22,0.75C9.85,0.75 0,10.6 0,22.75L4,22.75ZM22,4.75C31.941,4.75 40,12.809 40,22.75L44,22.75C44,10.6 34.15,0.75 22,0.75L22,4.75Z" fill="#969696"/>
</svg>
