<svg width="44" height="44" viewBox="0 0 44 44" fill="none" xmlns="http://www.w3.org/2000/svg" xmlns:xlink="http://www.w3.org/1999/xlink">
<path d="M40,21.75C40,31.691 31.941,39.75 22,39.75L22,43.75C34.15,43.75 44,33.9 44,21.75L40,21.75ZM22,39.75C12.059,39.75 4,31.691 4,21.75L0,21.75C0,33.9 9.85,43.75 22,43.75L22,39.75ZM4,21.75C4,11.809 12.059,3.75 22,3.75L22,-0.25C9.85,-0.25 0,9.6 0,21.75L4,21.75ZM22,3.75C31.941,3.75 40,11.809 40,21.75L44,21.75C44,9.6 34.15,-0.25 22,-0.25L22,3.75Z" fill="#5C5C5C"/>
</svg>
