<svg width="54" height="54" viewBox="0 0 54 54" fill="none" xmlns="http://www.w3.org/2000/svg" xmlns:xlink="http://www.w3.org/1999/xlink">
<path d="M53.127,20.055C52.885,19.31 52.427,18.654 51.813,18.169C51.198,17.683 50.454,17.391 49.673,17.328L35.384,16.175L29.867,2.833C29.569,2.106 29.061,1.484 28.408,1.046C27.756,0.609 26.988,0.375 26.202,0.375C25.416,0.375 24.648,0.609 23.995,1.046C23.342,1.484 22.835,2.106 22.536,2.833L17.024,16.173L2.728,17.328C1.946,17.394 1.201,17.689 0.586,18.177C-0.029,18.665 -0.486,19.323 -0.728,20.069C-0.97,20.815 -0.987,21.616 -0.776,22.372C-0.565,23.128 -0.136,23.805 0.458,24.317L11.357,33.721L8.036,47.783C7.851,48.547 7.896,49.349 8.167,50.087C8.438,50.825 8.922,51.466 9.558,51.928C10.193,52.391 10.952,52.654 11.738,52.684C12.523,52.714 13.3,52.511 13.97,52.099L26.2,44.571L38.438,52.099C39.108,52.506 39.883,52.706 40.666,52.673C41.45,52.64 42.206,52.377 42.839,51.915C43.473,51.454 43.956,50.815 44.227,50.08C44.499,49.345 44.546,48.545 44.365,47.783L41.032,33.719L51.93,24.315C52.529,23.803 52.962,23.125 53.175,22.366C53.388,21.608 53.372,20.804 53.127,20.055ZM49.412,21.38L37.617,31.551C37.348,31.783 37.148,32.085 37.039,32.422C36.929,32.76 36.915,33.122 36.997,33.467L40.601,48.677C40.61,48.698 40.611,48.721 40.604,48.743C40.596,48.764 40.58,48.782 40.56,48.793C40.516,48.827 40.504,48.819 40.468,48.793L27.215,40.643C26.91,40.456 26.559,40.356 26.2,40.356C25.842,40.356 25.491,40.456 25.186,40.643L11.933,48.798C11.897,48.819 11.887,48.827 11.841,48.798C11.821,48.787 11.805,48.769 11.797,48.748C11.79,48.726 11.791,48.702 11.8,48.681L15.404,33.472C15.486,33.127 15.471,32.765 15.362,32.427C15.253,32.089 15.053,31.788 14.784,31.556L2.989,21.384C2.96,21.36 2.933,21.338 2.958,21.263C2.982,21.188 3.001,21.198 3.038,21.193L18.518,19.943C18.873,19.913 19.213,19.785 19.5,19.574C19.787,19.363 20.011,19.077 20.146,18.747L26.108,4.31C26.128,4.269 26.135,4.25 26.193,4.25C26.251,4.25 26.259,4.269 26.278,4.31L32.255,18.747C32.391,19.077 32.616,19.363 32.905,19.573C33.193,19.783 33.534,19.91 33.89,19.939L49.371,21.188C49.407,21.188 49.429,21.188 49.45,21.258C49.472,21.329 49.45,21.355 49.412,21.38Z" fill="#010101"/>
</svg>
