<svg width="36" height="40" viewBox="0 0 36 40" fill="none" xmlns="http://www.w3.org/2000/svg" xmlns:xlink="http://www.w3.org/1999/xlink">
<path d="M6,12C6,8.817 7.264,5.765 9.515,3.515C11.765,1.264 14.817,0 18,0C21.183,0 24.235,1.264 26.485,3.515C28.736,5.765 30,8.817 30,12L32,12C33.061,12 34.078,12.421 34.828,13.172C35.579,13.922 36,14.939 36,16L36,36C36,37.061 35.579,38.078 34.828,38.828C34.078,39.579 33.061,40 32,40L4,40C2.939,40 1.922,39.579 1.172,38.828C0.421,38.078 0,37.061 0,36L0,16C0,14.939 0.421,13.922 1.172,13.172C1.922,12.421 2.939,12 4,12L6,12ZM18,4C20.122,4 22.157,4.843 23.657,6.343C25.157,7.843 26,9.878 26,12L10,12C10,9.878 10.843,7.843 12.343,6.343C13.843,4.843 15.878,4 18,4ZM22,24C22,24.702 21.815,25.392 21.464,26C21.113,26.608 20.608,27.113 20,27.464L20,30C20,30.53 19.789,31.039 19.414,31.414C19.039,31.789 18.53,32 18,32C17.47,32 16.961,31.789 16.586,31.414C16.211,31.039 16,30.53 16,30L16,27.464C15.237,27.024 14.642,26.344 14.305,25.531C13.968,24.717 13.909,23.815 14.136,22.965C14.364,22.114 14.867,21.363 15.565,20.827C16.264,20.291 17.12,20 18,20C19.061,20 20.078,20.421 20.828,21.172C21.579,21.922 22,22.939 22,24Z" clip-rule="evenodd" fill-rule="evenodd" fill="#010101"/>
</svg>
