<svg width="48" height="48" viewBox="0 0 48 48" fill="none" xmlns="http://www.w3.org/2000/svg" xmlns:xlink="http://www.w3.org/1999/xlink">
<path d="M-1,23C-1,16.635 1.529,10.53 6.029,6.029C10.53,1.529 16.635,-1 23,-1C29.365,-1 35.47,1.529 39.971,6.029C44.471,10.53 47,16.635 47,23C47,29.365 44.471,35.47 39.971,39.971C35.47,44.471 29.365,47 23,47C16.635,47 10.53,44.471 6.029,39.971C1.529,35.47 -1,29.365 -1,23ZM21.63,33.272L35.448,15.998L32.952,14.002L21.17,28.725L12.824,21.771L10.776,24.229L21.63,33.272Z" clip-rule="evenodd" fill-rule="evenodd" fill="#FF1515"/>
</svg>
