<svg width="16" height="28" viewBox="0 0 16 28" fill="none" xmlns="http://www.w3.org/2000/svg" xmlns:xlink="http://www.w3.org/1999/xlink">
<path d="M11.586,26.414C12.367,27.195 13.633,27.195 14.414,26.414C15.195,25.633 15.195,24.367 14.414,23.586L11.586,26.414ZM1,13L-0.414,11.586C-1.195,12.367 -1.195,13.633 -0.414,14.414L1,13ZM14.414,2.414C15.195,1.633 15.195,0.367 14.414,-0.414C13.633,-1.195 12.367,-1.195 11.586,-0.414L14.414,2.414ZM14.414,23.586L2.414,11.586L-0.414,14.414L11.586,26.414L14.414,23.586ZM2.414,14.414L14.414,2.414L11.586,-0.414L-0.414,11.586L2.414,14.414Z" fill="#010101"/>
</svg>
