<svg width="42" height="38" viewBox="0 0 42 38" fill="none" xmlns="http://www.w3.org/2000/svg" xmlns:xlink="http://www.w3.org/1999/xlink">
<path d="M38.68,4.22C37.658,3.198 36.446,2.387 35.111,1.834C33.776,1.281 32.345,0.996 30.9,0.996C29.455,0.996 28.024,1.281 26.689,1.834C25.354,2.387 24.141,3.198 23.12,4.22L21,6.34L18.88,4.22C16.817,2.156 14.018,0.997 11.1,0.997C8.182,0.997 5.383,2.156 3.32,4.22C1.257,6.283 0.097,9.082 0.097,12C0.097,14.918 1.257,17.716 3.32,19.78L5.44,21.9L21,37.46L36.56,21.9L38.68,19.78C39.702,18.758 40.513,17.545 41.066,16.21C41.619,14.876 41.904,13.445 41.904,12C41.904,10.555 41.619,9.124 41.066,7.789C40.513,6.454 39.702,5.241 38.68,4.22Z" fill="#FFFFFF" stroke="#FFFFFF" stroke-width="2" stroke-miterlimit="3.999327" stroke-linecap="round" stroke-linejoin="round"/>
</svg>
