<svg width="36" height="46" viewBox="0 0 36 46" fill="none" xmlns="http://www.w3.org/2000/svg" xmlns:xlink="http://www.w3.org/1999/xlink">
<path d="M35.5,35.247L35.5,43C35.5,43.398 35.342,43.779 35.061,44.061C34.779,44.342 34.398,44.5 34,44.5C33.602,44.5 33.221,44.342 32.939,44.061C32.658,43.779 32.5,43.398 32.5,43L32.5,35.247C32.493,33.322 32.09,31.418 31.316,29.655C30.542,27.893 29.413,26.308 28,25L28,35.941C28,36.263 27.895,36.578 27.702,36.836C27.509,37.095 27.238,37.285 26.929,37.377C26.619,37.469 26.288,37.459 25.985,37.348C25.682,37.237 25.423,37.032 25.246,36.762L23.243,33.704C23.228,33.681 23.213,33.657 23.2,33.632C22.906,33.113 22.417,32.732 21.842,32.573C21.267,32.413 20.652,32.489 20.132,32.783C19.613,33.077 19.232,33.566 19.073,34.141C18.913,34.716 18.989,35.331 19.283,35.851L23.432,42.186C23.65,42.519 23.727,42.925 23.646,43.314C23.564,43.704 23.331,44.045 22.998,44.263C22.666,44.481 22.26,44.557 21.87,44.476C21.481,44.394 21.14,44.162 20.922,43.829L16.748,37.454L16.703,37.382C16.057,36.275 15.838,34.97 16.088,33.713C16.338,32.455 17.04,31.333 18.06,30.557C19.081,29.781 20.35,29.406 21.628,29.501C22.907,29.596 24.106,30.156 25,31.075L25,10L22,10C21.602,10 21.221,9.842 20.939,9.561C20.658,9.279 20.5,8.898 20.5,8.5C20.5,8.102 20.658,7.721 20.939,7.439C21.221,7.158 21.602,7 22,7L25,7C25.796,7 26.559,7.316 27.121,7.879C27.684,8.441 28,9.204 28,10L28,21.179C30.302,22.735 32.189,24.83 33.496,27.282C34.804,29.734 35.492,32.468 35.5,35.247ZM8.5,8.5C8.5,8.102 8.342,7.721 8.061,7.439C7.779,7.158 7.398,7 7,7L4,7C3.204,7 2.441,7.316 1.879,7.879C1.316,8.441 1,9.204 1,10L1,35.5C1,35.898 1.158,36.279 1.439,36.561C1.721,36.842 2.102,37 2.5,37C2.898,37 3.279,36.842 3.561,36.561C3.842,36.279 4,35.898 4,35.5L4,10L7,10C7.398,10 7.779,9.842 8.061,9.561C8.342,9.279 8.5,8.898 8.5,8.5ZM21.561,16.439C21.422,16.299 21.257,16.189 21.074,16.113C20.892,16.038 20.697,15.999 20.5,15.999C20.303,15.999 20.108,16.038 19.926,16.113C19.744,16.189 19.578,16.299 19.439,16.439L16,19.879L16,1C16,0.602 15.842,0.221 15.561,-0.061C15.279,-0.342 14.898,-0.5 14.5,-0.5C14.102,-0.5 13.721,-0.342 13.439,-0.061C13.158,0.221 13,0.602 13,1L13,19.879L9.561,16.439C9.28,16.157 8.898,15.999 8.5,15.999C8.102,15.999 7.72,16.157 7.439,16.439C7.157,16.72 6.999,17.102 6.999,17.5C6.999,17.898 7.157,18.28 7.439,18.561L13.439,24.561C13.578,24.701 13.744,24.811 13.926,24.887C14.108,24.962 14.303,25.001 14.5,25.001C14.697,25.001 14.892,24.962 15.074,24.887C15.256,24.811 15.422,24.701 15.561,24.561L21.561,18.561C21.701,18.422 21.811,18.256 21.887,18.074C21.962,17.892 22.001,17.697 22.001,17.5C22.001,17.303 21.962,17.108 21.887,16.926C21.811,16.744 21.701,16.578 21.561,16.439Z" fill="#010101"/>
</svg>
