<svg width="48" height="48" viewBox="0 0 48 48" fill="none" xmlns="http://www.w3.org/2000/svg" xmlns:xlink="http://www.w3.org/1999/xlink">
<path d="M0,23C0,16.635 2.529,10.53 7.029,6.029C11.53,1.529 17.635,-1 24,-1C30.365,-1 36.47,1.529 40.971,6.029C45.471,10.53 48,16.635 48,23C48,29.365 45.471,35.47 40.971,39.971C36.47,44.471 30.365,47 24,47C17.635,47 11.53,44.471 7.029,39.971C2.529,35.47 0,29.365 0,23ZM22.63,33.272L36.448,15.998L33.952,14.002L22.17,28.725L13.824,21.771L11.776,24.229L22.63,33.272Z" clip-rule="evenodd" fill-rule="evenodd" fill="#FF1515"/>
</svg>
