<svg width="64" height="42" viewBox="0 0 64 42" fill="none" xmlns="http://www.w3.org/2000/svg" xmlns:xlink="http://www.w3.org/1999/xlink">
<path d="M5.733,0.515L4.523,0.523C4.123,0.536 3.715,0.557 3.317,0.629C2.717,0.724 2.147,0.96 1.656,1.318C1.165,1.676 0.765,2.146 0.491,2.688C0.304,3.056 0.187,3.429 0.117,3.835C0.043,4.229 0.019,4.635 0.011,5.035L0,5.592L0,36.411C0,36.596 0.003,36.78 0.008,36.963C0.019,37.363 0.043,37.771 0.115,38.168C0.184,38.566 0.31,38.948 0.493,39.312C0.862,40.036 1.45,40.624 2.173,40.992C2.541,41.179 2.915,41.299 3.32,41.371C3.715,41.443 4.12,41.467 4.52,41.477L5.075,41.485L58.925,41.485L59.477,41.477C59.877,41.467 60.285,41.443 60.683,41.371C61.08,41.299 61.459,41.181 61.824,40.995C62.55,40.628 63.14,40.038 63.507,39.312C63.693,38.944 63.813,38.571 63.883,38.165C63.955,37.771 63.979,37.365 63.989,36.965C63.995,36.78 63.997,36.596 63.997,36.411L64,35.755L64,5.589C64,5.404 63.996,5.22 63.989,5.037C63.984,4.633 63.949,4.23 63.883,3.832C63.754,3.03 63.375,2.288 62.8,1.713C62.226,1.138 61.485,0.759 60.683,0.629C60.284,0.563 59.881,0.528 59.477,0.523C59.075,0.512 58.672,0.509 58.269,0.515L5.733,0.515ZM5.733,1.88L58.912,1.88C59.086,1.88 59.261,1.883 59.437,1.888C59.744,1.899 60.104,1.915 60.437,1.973C60.728,2.027 60.971,2.107 61.203,2.224C61.67,2.462 62.05,2.842 62.288,3.309C62.41,3.551 62.495,3.81 62.539,4.077C62.597,4.405 62.613,4.765 62.621,5.075C62.627,5.247 62.629,5.422 62.629,5.6L62.629,36.405C62.629,36.578 62.627,36.752 62.621,36.928C62.613,37.235 62.597,37.595 62.536,37.928C62.478,38.32 62.326,38.693 62.094,39.014C61.862,39.336 61.556,39.597 61.203,39.776C60.963,39.898 60.705,39.982 60.44,40.027C60.111,40.076 59.778,40.104 59.445,40.112L58.912,40.12L5.083,40.12C4.905,40.12 4.731,40.117 4.56,40.112C4.225,40.105 3.891,40.076 3.56,40.027C3.269,39.973 3.027,39.893 2.792,39.776C2.322,39.542 1.942,39.161 1.709,38.691C1.587,38.449 1.503,38.19 1.459,37.923C1.405,37.594 1.377,37.261 1.373,36.928L1.368,36.403L1.368,5.597L1.373,5.072C1.384,4.768 1.4,4.411 1.459,4.072C1.512,3.784 1.592,3.541 1.709,3.307C1.948,2.84 2.328,2.461 2.795,2.224C3.036,2.102 3.294,2.018 3.56,1.973C3.893,1.915 4.253,1.896 4.56,1.888L5.083,1.88L5.733,1.88ZM18.293,11.747C17.493,11.789 16.512,12.277 15.947,12.963C15.437,13.549 14.987,14.509 15.104,15.411C16.005,15.491 16.904,14.96 17.472,14.296C18.019,13.608 18.392,12.688 18.293,11.749L18.293,11.747ZM24.179,12.867L24.179,27.515L26.451,27.515L26.451,22.509L29.597,22.509C32.472,22.509 34.491,20.539 34.491,17.677C34.491,14.824 32.512,12.864 29.669,12.864L24.179,12.867ZM26.451,14.784L29.069,14.784C31.04,14.784 32.165,15.84 32.165,17.688C32.165,19.533 31.04,20.6 29.061,20.6L26.451,20.6L26.451,14.784ZM18.04,15.584C16.84,15.611 15.827,16.331 15.24,16.331C14.613,16.331 13.659,15.627 12.624,15.645C11.951,15.663 11.295,15.856 10.719,16.206C10.144,16.555 9.67,17.048 9.344,17.637C7.939,20.059 8.973,23.651 10.341,25.624C11.005,26.6 11.805,27.675 12.859,27.635C13.853,27.597 14.245,26.989 15.453,26.989C16.664,26.989 17.016,27.635 18.067,27.616C19.16,27.597 19.845,26.64 20.507,25.661C21.269,24.549 21.581,23.475 21.6,23.419C21.581,23.397 19.493,22.597 19.475,20.195C19.453,18.184 21.115,17.227 21.192,17.168C20.253,15.781 18.792,15.627 18.285,15.587L18.04,15.584ZM39.917,16.643C37.277,16.643 35.635,18.064 35.512,19.992L37.584,19.992C37.776,19.037 38.568,18.429 39.837,18.429C41.176,18.429 41.979,19.139 41.979,20.325L41.979,21.149L39.053,21.32C36.517,21.464 35.085,22.611 35.085,24.477C35.085,26.397 36.547,27.696 38.637,27.696C40.04,27.696 41.389,26.947 42.008,25.757L42.059,25.757L42.059,27.515L44.16,27.515L44.16,20.155C44.16,18.013 42.507,16.643 39.917,16.643ZM45.091,16.835L48.947,27.525C48.947,27.533 48.752,28.165 48.752,28.184C48.419,29.277 47.872,29.707 46.856,29.707C46.672,29.707 46.307,29.707 46.144,29.667L46.144,31.443C46.304,31.472 46.856,31.493 47.037,31.493C49.251,31.493 50.307,30.661 51.219,28.072L55.219,16.835L52.904,16.835L50.205,25.525L50.165,25.525L47.464,16.832L45.091,16.835ZM41.979,22.672L41.979,23.515C41.979,24.904 40.779,25.96 39.248,25.96C38.069,25.96 37.299,25.352 37.299,24.416C37.299,23.504 38.04,22.923 39.349,22.835L41.979,22.672Z" fill="#010101"/>
</svg>
