<svg width="34" height="42" viewBox="0 0 34 42" fill="none" xmlns="http://www.w3.org/2000/svg" xmlns:xlink="http://www.w3.org/1999/xlink">
<path d="M23.5,12.5C22.672,12.5 22,13.172 22,14C22,14.828 22.672,15.5 23.5,15.5L23.5,12.5ZM27.25,14L27.25,12.5L27.25,14ZM4.75,39.5L4.75,38L4.75,39.5ZM1,35.75L-0.5,35.75L1,35.75ZM1,17.75L-0.5,17.75L1,17.75ZM4.75,14L4.75,15.5L4.75,14ZM8.5,15.5C9.328,15.5 10,14.828 10,14C10,13.172 9.328,12.5 8.5,12.5L8.5,15.5ZM22.439,9.061C23.025,9.646 23.975,9.646 24.561,9.061C25.146,8.475 25.146,7.525 24.561,6.939L22.439,9.061ZM16,0.5L17.061,-0.561C16.475,-1.146 15.525,-1.146 14.939,-0.561L16,0.5ZM7.439,6.939C6.854,7.525 6.854,8.475 7.439,9.061C8.025,9.646 8.975,9.646 9.561,9.061L7.439,6.939ZM14.5,26.094C14.5,26.922 15.172,27.594 16,27.594C16.828,27.594 17.5,26.922 17.5,26.094L14.5,26.094ZM23.5,15.5L27.25,15.5L27.25,12.5L23.5,12.5L23.5,15.5ZM27.25,15.5C27.847,15.5 28.419,15.737 28.841,16.159L30.962,14.038C29.978,13.053 28.642,12.5 27.25,12.5L27.25,15.5ZM28.841,16.159C29.263,16.581 29.5,17.153 29.5,17.75L32.5,17.75C32.5,16.358 31.947,15.022 30.962,14.038L28.841,16.159ZM29.5,17.75L29.5,35.75L32.5,35.75L32.5,17.75L29.5,17.75ZM29.5,35.75C29.5,36.347 29.263,36.919 28.841,37.341L30.962,39.462C31.947,38.478 32.5,37.142 32.5,35.75L29.5,35.75ZM28.841,37.341C28.419,37.763 27.847,38 27.25,38L27.25,41C28.642,41 29.978,40.447 30.962,39.462L28.841,37.341ZM27.25,38L4.75,38L4.75,41L27.25,41L27.25,38ZM4.75,38C4.153,38 3.581,37.763 3.159,37.341L1.038,39.462C2.022,40.447 3.358,41 4.75,41L4.75,38ZM3.159,37.341C2.737,36.919 2.5,36.347 2.5,35.75L-0.5,35.75C-0.5,37.142 0.053,38.478 1.038,39.462L3.159,37.341ZM2.5,35.75L2.5,17.75L-0.5,17.75L-0.5,35.75L2.5,35.75ZM2.5,17.75C2.5,17.153 2.737,16.581 3.159,16.159L1.038,14.038C0.053,15.022 -0.5,16.358 -0.5,17.75L2.5,17.75ZM3.159,16.159C3.581,15.737 4.153,15.5 4.75,15.5L4.75,12.5C3.358,12.5 2.022,13.053 1.038,14.038L3.159,16.159ZM4.75,15.5L8.5,15.5L8.5,12.5L4.75,12.5L4.75,15.5ZM24.561,6.939L17.061,-0.561L14.939,1.561L22.439,9.061L24.561,6.939ZM14.939,-0.561L7.439,6.939L9.561,9.061L17.061,1.561L14.939,-0.561ZM17.5,26.094L17.5,0.5L14.5,0.5L14.5,26.094L17.5,26.094Z" fill="#010101"/>
</svg>
