<svg width="28" height="36" viewBox="0 0 28 36" fill="none" xmlns="http://www.w3.org/2000/svg" xmlns:xlink="http://www.w3.org/1999/xlink">
<path d="M19.916,10.5C19.088,10.5 18.416,11.172 18.416,12C18.416,12.828 19.088,13.5 19.916,13.5L19.916,10.5ZM23.041,12L23.041,10.5L23.041,12ZM4.291,33.25L4.291,31.75L4.291,33.25ZM1.166,30.125L-0.334,30.125L1.166,30.125ZM1.166,15.125L-0.334,15.125L1.166,15.125ZM4.291,12L4.291,13.5L4.291,12ZM7.416,13.5C8.244,13.5 8.916,12.828 8.916,12C8.916,11.172 8.244,10.5 7.416,10.5L7.416,13.5ZM18.855,8.061C19.441,8.646 20.391,8.646 20.977,8.061C21.562,7.475 21.562,6.525 20.977,5.939L18.855,8.061ZM13.666,0.75L14.727,-0.311C14.141,-0.896 13.191,-0.896 12.605,-0.311L13.666,0.75ZM6.355,5.939C5.77,6.525 5.77,7.475 6.355,8.061C6.941,8.646 7.891,8.646 8.477,8.061L6.355,5.939ZM12.166,22.078C12.166,22.907 12.838,23.578 13.666,23.578C14.494,23.578 15.166,22.907 15.166,22.078L12.166,22.078ZM19.916,13.5L23.041,13.5L23.041,10.5L19.916,10.5L19.916,13.5ZM23.041,13.5C23.472,13.5 23.885,13.671 24.19,13.976L26.311,11.855C25.444,10.987 24.268,10.5 23.041,10.5L23.041,13.5ZM24.19,13.976C24.495,14.281 24.666,14.694 24.666,15.125L27.666,15.125C27.666,13.898 27.179,12.722 26.311,11.855L24.19,13.976ZM24.666,15.125L24.666,30.125L27.666,30.125L27.666,15.125L24.666,15.125ZM24.666,30.125C24.666,30.556 24.495,30.969 24.19,31.274L26.311,33.395C27.179,32.528 27.666,31.352 27.666,30.125L24.666,30.125ZM24.19,31.274C23.885,31.579 23.472,31.75 23.041,31.75L23.041,34.75C24.268,34.75 25.444,34.263 26.311,33.395L24.19,31.274ZM23.041,31.75L4.291,31.75L4.291,34.75L23.041,34.75L23.041,31.75ZM4.291,31.75C3.86,31.75 3.447,31.579 3.142,31.274L1.021,33.395C1.888,34.263 3.064,34.75 4.291,34.75L4.291,31.75ZM3.142,31.274C2.837,30.969 2.666,30.556 2.666,30.125L-0.334,30.125C-0.334,31.352 0.153,32.528 1.021,33.395L3.142,31.274ZM2.666,30.125L2.666,15.125L-0.334,15.125L-0.334,30.125L2.666,30.125ZM2.666,15.125C2.666,14.694 2.837,14.281 3.142,13.976L1.021,11.855C0.153,12.722 -0.334,13.898 -0.334,15.125L2.666,15.125ZM3.142,13.976C3.447,13.671 3.86,13.5 4.291,13.5L4.291,10.5C3.064,10.5 1.888,10.987 1.021,11.855L3.142,13.976ZM4.291,13.5L7.416,13.5L7.416,10.5L4.291,10.5L4.291,13.5ZM20.977,5.939L14.727,-0.311L12.605,1.811L18.855,8.061L20.977,5.939ZM12.605,-0.311L6.355,5.939L8.477,8.061L14.727,1.811L12.605,-0.311ZM15.166,22.078L15.166,0.75L12.166,0.75L12.166,22.078L15.166,22.078Z" fill="#010101"/>
</svg>
