<svg width="36" height="30" viewBox="0 0 36 30" fill="none" xmlns="http://www.w3.org/2000/svg" xmlns:xlink="http://www.w3.org/1999/xlink">
<path d="M32.627,2.122C30.986,0.485 28.762,-0.434 26.443,-0.434C24.125,-0.434 21.901,0.485 20.259,2.122L17.999,4.287L15.743,2.115C14.931,1.303 13.966,0.658 12.904,0.219C11.842,-0.221 10.704,-0.447 9.555,-0.447C7.234,-0.447 5.008,0.475 3.367,2.116C1.726,3.757 0.805,5.983 0.805,8.304C0.805,10.625 1.727,12.851 3.368,14.492L17.332,28.658C17.419,28.746 17.523,28.817 17.638,28.865C17.753,28.913 17.876,28.937 18,28.937C18.125,28.937 18.248,28.913 18.362,28.865C18.477,28.817 18.581,28.746 18.668,28.658L32.626,14.497C34.265,12.855 35.186,10.63 35.186,8.31C35.186,5.989 34.266,3.764 32.627,2.122ZM31.298,13.176L17.999,26.664L4.701,13.172C3.411,11.882 2.687,10.133 2.687,8.31C2.687,6.486 3.411,4.737 4.7,3.447C5.99,2.158 7.739,1.433 9.562,1.433C11.386,1.433 13.135,2.157 14.424,3.447L14.437,3.459L16.649,5.59L14.851,7.322C14.761,7.408 14.69,7.512 14.641,7.626C14.591,7.74 14.565,7.863 14.564,7.988C14.563,8.112 14.587,8.236 14.634,8.351C14.681,8.466 14.75,8.571 14.838,8.659L19.176,13L17.338,14.837C17.25,14.924 17.18,15.028 17.132,15.142C17.084,15.256 17.059,15.378 17.059,15.502C17.058,15.626 17.083,15.748 17.13,15.863C17.177,15.977 17.246,16.081 17.334,16.169C17.421,16.256 17.525,16.325 17.64,16.372C17.754,16.419 17.877,16.443 18.001,16.443C18.125,16.442 18.247,16.417 18.361,16.369C18.475,16.321 18.578,16.251 18.665,16.162L21.165,13.662C21.252,13.575 21.321,13.472 21.368,13.358C21.416,13.244 21.44,13.122 21.44,12.999C21.44,12.876 21.416,12.754 21.368,12.64C21.321,12.526 21.252,12.423 21.165,12.336L16.84,8.009L21.565,3.459C21.57,3.456 21.574,3.452 21.577,3.447C22.868,2.158 24.617,1.434 26.441,1.435C28.265,1.436 30.013,2.161 31.302,3.451C32.591,4.742 33.315,6.491 33.314,8.315C33.313,10.139 32.588,11.887 31.298,13.176Z" fill="#010101"/>
</svg>
