<svg width="78" height="50" viewBox="0 0 78 50" fill="none" xmlns="http://www.w3.org/2000/svg" xmlns:xlink="http://www.w3.org/1999/xlink">
<path d="M5.988,0.034L4.512,0.044C4.024,0.06 3.527,0.086 3.043,0.174C2.311,0.289 1.617,0.577 1.018,1.013C0.419,1.449 -0.067,2.021 -0.402,2.683C-0.63,3.131 -0.773,3.586 -0.857,4.08C-0.948,4.561 -0.977,5.055 -0.987,5.543L-1,6.222L-1,43.782C-1,44.007 -0.997,44.232 -0.99,44.455C-0.977,44.942 -0.948,45.439 -0.86,45.924C-0.776,46.409 -0.622,46.874 -0.399,47.318C0.05,48.2 0.767,48.917 1.649,49.365C2.097,49.593 2.552,49.739 3.046,49.827C3.527,49.915 4.021,49.944 4.509,49.957L5.185,49.967L70.815,49.967L71.488,49.957C71.976,49.944 72.473,49.915 72.957,49.827C73.441,49.739 73.903,49.596 74.348,49.369C75.233,48.921 75.951,48.203 76.399,47.318C76.626,46.869 76.772,46.414 76.857,45.92C76.945,45.439 76.974,44.945 76.987,44.458C76.993,44.233 76.997,44.007 76.997,43.782L77,42.982L77,6.219C77,5.993 76.996,5.769 76.987,5.546C76.981,5.054 76.937,4.562 76.857,4.077C76.7,3.099 76.238,2.195 75.538,1.495C74.838,0.794 73.935,0.332 72.957,0.174C72.471,0.093 71.98,0.05 71.488,0.044C70.997,0.03 70.507,0.027 70.016,0.034L5.988,0.034ZM5.988,1.698L70.799,1.698C71.011,1.698 71.225,1.701 71.439,1.708C71.813,1.721 72.252,1.74 72.658,1.812C73.012,1.877 73.308,1.974 73.591,2.117C74.16,2.407 74.624,2.87 74.913,3.44C75.062,3.734 75.165,4.05 75.219,4.376C75.29,4.776 75.31,5.214 75.32,5.591C75.326,5.801 75.329,6.015 75.329,6.232L75.329,43.775C75.329,43.986 75.326,44.198 75.32,44.412C75.31,44.786 75.291,45.225 75.216,45.631C75.145,46.109 74.96,46.563 74.677,46.955C74.395,47.347 74.022,47.665 73.591,47.883C73.298,48.032 72.985,48.135 72.661,48.189C72.26,48.249 71.855,48.284 71.449,48.293L70.799,48.303L5.195,48.303C4.978,48.303 4.765,48.299 4.557,48.293C4.149,48.284 3.742,48.249 3.339,48.189C2.985,48.124 2.689,48.026 2.403,47.883C1.83,47.599 1.367,47.134 1.083,46.561C0.934,46.266 0.831,45.95 0.778,45.625C0.713,45.224 0.678,44.819 0.674,44.412L0.667,43.772L0.667,6.228L0.674,5.588C0.687,5.218 0.706,4.782 0.778,4.369C0.843,4.018 0.94,3.723 1.083,3.437C1.374,2.868 1.837,2.406 2.406,2.117C2.7,1.969 3.014,1.866 3.339,1.812C3.745,1.74 4.184,1.717 4.557,1.708L5.195,1.698L5.988,1.698ZM21.295,13.723C20.32,13.775 19.124,14.37 18.435,15.205C17.814,15.92 17.265,17.09 17.408,18.188C18.506,18.286 19.602,17.639 20.294,16.83C20.96,15.991 21.415,14.87 21.295,13.726L21.295,13.723ZM28.468,15.088L28.468,32.94L31.237,32.94L31.237,26.84L35.072,26.84C38.575,26.84 41.035,24.438 41.035,20.951C41.035,17.473 38.624,15.085 35.16,15.085L28.468,15.088ZM31.237,17.425L34.428,17.425C36.83,17.425 38.201,18.712 38.201,20.964C38.201,23.213 36.83,24.513 34.418,24.513L31.237,24.513L31.237,17.425ZM20.986,18.4C19.524,18.432 18.289,19.31 17.574,19.31C16.81,19.31 15.646,18.452 14.385,18.474C13.566,18.496 12.765,18.731 12.064,19.157C11.363,19.583 10.785,20.184 10.388,20.902C8.675,23.853 9.936,28.231 11.604,30.636C12.413,31.825 13.388,33.135 14.671,33.086C15.884,33.041 16.361,32.3 17.834,32.3C19.309,32.3 19.738,33.086 21.019,33.063C22.351,33.041 23.187,31.874 23.993,30.681C24.922,29.326 25.302,28.016 25.325,27.948C25.302,27.922 22.757,26.947 22.735,24.019C22.709,21.568 24.733,20.401 24.828,20.33C23.684,18.64 21.903,18.452 21.285,18.403L20.986,18.4ZM47.649,19.69C44.432,19.69 42.43,21.422 42.28,23.772L44.806,23.772C45.04,22.608 46.005,21.867 47.552,21.867C49.183,21.867 50.161,22.732 50.161,24.178L50.161,25.182L46.596,25.39C43.506,25.566 41.76,26.963 41.76,29.238C41.76,31.578 43.541,33.161 46.089,33.161C47.799,33.161 49.443,32.248 50.197,30.798L50.259,30.798L50.259,32.94L52.82,32.94L52.82,23.97C52.82,21.36 50.805,19.69 47.649,19.69ZM53.954,19.924L58.654,32.953C58.654,32.963 58.417,33.733 58.417,33.756C58.01,35.088 57.344,35.611 56.106,35.611C55.881,35.611 55.436,35.611 55.238,35.563L55.238,37.727C55.433,37.763 56.106,37.789 56.327,37.789C59.024,37.789 60.311,36.775 61.423,33.619L66.298,19.924L63.477,19.924L60.188,30.515L60.139,30.515L56.847,19.921L53.954,19.924ZM50.161,27.038L50.161,28.065C50.161,29.758 48.699,31.045 46.833,31.045C45.397,31.045 44.458,30.304 44.458,29.163C44.458,28.052 45.361,27.343 46.957,27.236L50.161,27.038Z" fill="#010101"/>
</svg>
