<svg width="28" height="36" viewBox="0 0 28 36" fill="none" xmlns="http://www.w3.org/2000/svg" xmlns:xlink="http://www.w3.org/1999/xlink">
<path d="M20.25,11.5C19.422,11.5 18.75,12.172 18.75,13C18.75,13.828 19.422,14.5 20.25,14.5L20.25,11.5ZM23.375,13L23.375,11.5L23.375,13ZM4.625,34.25L4.625,32.75L4.625,34.25ZM1.5,31.125L0,31.125L1.5,31.125ZM1.5,16.125L0,16.125L1.5,16.125ZM4.625,13L4.625,14.5L4.625,13ZM7.75,14.5C8.578,14.5 9.25,13.828 9.25,13C9.25,12.172 8.578,11.5 7.75,11.5L7.75,14.5ZM19.189,9.061C19.775,9.646 20.725,9.646 21.311,9.061C21.896,8.475 21.896,7.525 21.311,6.939L19.189,9.061ZM14,1.75L15.061,0.689C14.475,0.104 13.525,0.104 12.939,0.689L14,1.75ZM6.689,6.939C6.104,7.525 6.104,8.475 6.689,9.061C7.275,9.646 8.225,9.646 8.811,9.061L6.689,6.939ZM12.5,23.078C12.5,23.907 13.172,24.578 14,24.578C14.828,24.578 15.5,23.907 15.5,23.078L12.5,23.078ZM20.25,14.5L23.375,14.5L23.375,11.5L20.25,11.5L20.25,14.5ZM23.375,14.5C23.806,14.5 24.219,14.671 24.524,14.976L26.645,12.855C25.778,11.987 24.602,11.5 23.375,11.5L23.375,14.5ZM24.524,14.976C24.829,15.281 25,15.694 25,16.125L28,16.125C28,14.898 27.513,13.722 26.645,12.855L24.524,14.976ZM25,16.125L25,31.125L28,31.125L28,16.125L25,16.125ZM25,31.125C25,31.556 24.829,31.969 24.524,32.274L26.645,34.395C27.513,33.528 28,32.352 28,31.125L25,31.125ZM24.524,32.274C24.219,32.579 23.806,32.75 23.375,32.75L23.375,35.75C24.602,35.75 25.778,35.263 26.645,34.395L24.524,32.274ZM23.375,32.75L4.625,32.75L4.625,35.75L23.375,35.75L23.375,32.75ZM4.625,32.75C4.194,32.75 3.781,32.579 3.476,32.274L1.355,34.395C2.222,35.263 3.398,35.75 4.625,35.75L4.625,32.75ZM3.476,32.274C3.171,31.969 3,31.556 3,31.125L0,31.125C0,32.352 0.487,33.528 1.355,34.395L3.476,32.274ZM3,31.125L3,16.125L0,16.125L0,31.125L3,31.125ZM3,16.125C3,15.694 3.171,15.281 3.476,14.976L1.355,12.855C0.487,13.722 0,14.898 0,16.125L3,16.125ZM3.476,14.976C3.781,14.671 4.194,14.5 4.625,14.5L4.625,11.5C3.398,11.5 2.222,11.987 1.355,12.855L3.476,14.976ZM4.625,14.5L7.75,14.5L7.75,11.5L4.625,11.5L4.625,14.5ZM21.311,6.939L15.061,0.689L12.939,2.811L19.189,9.061L21.311,6.939ZM12.939,0.689L6.689,6.939L8.811,9.061L15.061,2.811L12.939,0.689ZM15.5,23.078L15.5,1.75L12.5,1.75L12.5,23.078L15.5,23.078Z" fill="#010101"/>
</svg>
