<svg width="36" height="38" viewBox="0 0 36 38" fill="none" xmlns="http://www.w3.org/2000/svg" xmlns:xlink="http://www.w3.org/1999/xlink">
<path d="M0.265,3.632C0.143,3.737 0.045,3.867 -0.022,4.014C-0.09,4.16 -0.125,4.32 -0.125,4.481L-0.125,36C-0.125,36.298 -0.006,36.584 0.205,36.795C0.415,37.006 0.702,37.125 1,37.125C1.298,37.125 1.585,37.006 1.795,36.795C2.006,36.584 2.125,36.298 2.125,36L2.125,27.521C7.39,23.248 11.853,25.458 17.001,28.003C20.024,29.503 23.281,31.112 26.751,31.112C29.296,31.112 31.956,30.249 34.731,27.845C34.854,27.741 34.952,27.611 35.02,27.465C35.088,27.319 35.124,27.161 35.125,27L35.125,4.481C35.125,4.265 35.063,4.054 34.947,3.872C34.83,3.691 34.664,3.546 34.468,3.457C34.272,3.367 34.054,3.335 33.84,3.366C33.626,3.397 33.426,3.488 33.263,3.63C27.826,8.34 23.273,6.084 17.999,3.472C12.769,0.883 6.813,-2.033 0.265,3.632ZM32.875,26.469C27.61,30.744 23.148,28.532 17.999,25.985C13.263,23.64 7.954,21.013 2.125,24.75L2.125,5.01C7.39,0.735 11.853,2.947 17.001,5.49C21.737,7.835 27.046,10.462 32.875,6.733L32.875,26.469Z" fill="#010101"/>
</svg>
