<svg width="54" height="54" viewBox="0 0 54 54" fill="none" xmlns="http://www.w3.org/2000/svg" xmlns:xlink="http://www.w3.org/1999/xlink">
<path d="M53.327,20.555C53.085,19.81 52.628,19.154 52.013,18.669C51.398,18.183 50.654,17.891 49.873,17.828L35.584,16.675L30.067,3.333C29.769,2.606 29.261,1.984 28.609,1.546C27.956,1.109 27.188,0.875 26.402,0.875C25.616,0.875 24.848,1.109 24.195,1.546C23.543,1.984 23.035,2.606 22.736,3.333L17.224,16.673L2.928,17.828C2.146,17.894 1.401,18.189 0.786,18.677C0.172,19.165 -0.286,19.823 -0.528,20.569C-0.77,21.315 -0.787,22.116 -0.576,22.872C-0.365,23.628 0.065,24.305 0.659,24.817L11.557,34.221L8.237,48.283C8.051,49.047 8.096,49.849 8.367,50.587C8.638,51.325 9.122,51.966 9.758,52.428C10.394,52.891 11.153,53.154 11.938,53.184C12.724,53.214 13.501,53.011 14.17,52.599L26.401,45.071L38.638,52.599C39.308,53.006 40.084,53.206 40.867,53.173C41.65,53.14 42.406,52.877 43.039,52.415C43.673,51.954 44.156,51.315 44.427,50.58C44.699,49.845 44.747,49.045 44.565,48.283L41.232,34.219L52.131,24.815C52.729,24.303 53.163,23.625 53.376,22.866C53.589,22.108 53.572,21.304 53.327,20.555ZM49.612,21.88L37.817,32.051C37.548,32.283 37.348,32.585 37.239,32.922C37.13,33.26 37.115,33.622 37.197,33.967L40.801,49.177C40.81,49.198 40.811,49.221 40.804,49.243C40.796,49.264 40.78,49.282 40.76,49.293C40.716,49.327 40.704,49.319 40.668,49.293L27.415,41.143C27.11,40.956 26.759,40.856 26.401,40.856C26.042,40.856 25.691,40.956 25.386,41.143L12.133,49.298C12.097,49.319 12.087,49.327 12.041,49.298C12.021,49.287 12.005,49.269 11.998,49.248C11.99,49.226 11.991,49.202 12,49.181L15.604,33.972C15.686,33.627 15.672,33.265 15.562,32.927C15.453,32.589 15.253,32.288 14.984,32.056L3.189,21.884C3.16,21.86 3.134,21.838 3.158,21.763C3.182,21.688 3.201,21.698 3.238,21.693L18.718,20.443C19.074,20.413 19.413,20.285 19.7,20.074C19.988,19.863 20.211,19.577 20.346,19.247L26.309,4.81C26.328,4.769 26.335,4.75 26.393,4.75C26.452,4.75 26.459,4.769 26.478,4.81L32.455,19.247C32.592,19.577 32.816,19.863 33.105,20.073C33.393,20.283 33.734,20.41 34.09,20.439L49.571,21.688C49.607,21.688 49.629,21.688 49.651,21.758C49.672,21.829 49.651,21.855 49.612,21.88Z" fill="#010101"/>
</svg>
