<svg width="44" height="34" viewBox="0 0 44 34" fill="none" xmlns="http://www.w3.org/2000/svg" xmlns:xlink="http://www.w3.org/1999/xlink">
<path d="M21,17C24.746,17 28.14,18.24 30.63,19.974C32.996,21.624 35,24.076 35,26.714C35,28.162 34.382,29.362 33.408,30.254C32.492,31.096 31.296,31.642 30.064,32.014C27.602,32.76 24.36,33 21,33C17.64,33 14.398,32.76 11.936,32.014C10.704,31.642 9.508,31.096 8.59,30.254C7.62,29.364 7,28.164 7,26.716C7,24.078 9.004,21.626 11.37,19.976C13.86,18.24 17.254,17 21,17ZM21,21C18.12,21 15.514,21.96 13.66,23.254C11.682,24.634 11,26.038 11,26.714C11,27.322 11.704,27.702 12.344,27.942L12.754,28.082L13.094,28.186C14.974,28.754 17.734,29 21,29C24.016,29 26.598,28.79 28.456,28.312L29.064,28.138L29.444,28.018C30.13,27.784 31,27.39 31,26.714C31,26.038 30.318,24.634 28.34,23.254C26.488,21.962 23.88,21 21,21ZM35,19C37.088,19 38.984,19.69 40.386,20.666C41.666,21.56 43,23.046 43,24.858C43,27.528 40.406,28.484 38.074,28.818L37.474,28.892L36.896,28.942C36.804,28.948 36.712,28.953 36.62,28.958C36.864,28.268 37,27.518 37,26.714C36.999,26.116 36.927,25.519 36.786,24.938C37.558,24.878 38.192,24.778 38.664,24.636C38.872,24.572 38.684,24.376 38.464,24.206L38.25,24.05L38.098,23.948C37.498,23.538 36.821,23.254 36.108,23.112C35.348,21.592 34.18,20.276 32.936,19.226C33.614,19.076 34.306,19 35,19ZM7,19C7.714,19 8.406,19.08 9.064,19.226C7.82,20.276 6.652,21.592 5.892,23.112C5.179,23.254 4.502,23.538 3.902,23.948L3.646,24.124C3.392,24.308 3.094,24.564 3.336,24.636C3.808,24.778 4.442,24.88 5.216,24.938C5.073,25.519 5.001,26.115 5,26.714C5,27.518 5.136,28.268 5.38,28.958L4.82,28.918L4.228,28.858C1.824,28.564 -1,27.644 -1,24.858C-1,23.048 0.332,21.56 1.614,20.666C3.2,19.579 5.078,18.998 7,19ZM34,7C35.326,7 36.598,7.527 37.536,8.464C38.473,9.402 39,10.674 39,12C39,13.326 38.473,14.598 37.536,15.536C36.598,16.473 35.326,17 34,17C32.674,17 31.402,16.473 30.464,15.536C29.527,14.598 29,13.326 29,12C29,10.674 29.527,9.402 30.464,8.464C31.402,7.527 32.674,7 34,7ZM8,7C9.326,7 10.598,7.527 11.536,8.464C12.473,9.402 13,10.674 13,12C13,13.326 12.473,14.598 11.536,15.536C10.598,16.473 9.326,17 8,17C6.674,17 5.402,16.473 4.464,15.536C3.527,14.598 3,13.326 3,12C3,10.674 3.527,9.402 4.464,8.464C5.402,7.527 6.674,7 8,7ZM21,-1C23.122,-1 25.157,-0.157 26.657,1.343C28.157,2.843 29,4.878 29,7C29,9.122 28.157,11.157 26.657,12.657C25.157,14.157 23.122,15 21,15C18.878,15 16.843,14.157 15.343,12.657C13.843,11.157 13,9.122 13,7C13,4.878 13.843,2.843 15.343,1.343C16.843,-0.157 18.878,-1 21,-1ZM34,11C33.735,11 33.48,11.105 33.293,11.293C33.105,11.48 33,11.735 33,12C33,12.265 33.105,12.52 33.293,12.707C33.48,12.895 33.735,13 34,13C34.265,13 34.52,12.895 34.707,12.707C34.895,12.52 35,12.265 35,12C35,11.735 34.895,11.48 34.707,11.293C34.52,11.105 34.265,11 34,11ZM8,11C7.735,11 7.48,11.105 7.293,11.293C7.105,11.48 7,11.735 7,12C7,12.265 7.105,12.52 7.293,12.707C7.48,12.895 7.735,13 8,13C8.265,13 8.52,12.895 8.707,12.707C8.895,12.52 9,12.265 9,12C9,11.735 8.895,11.48 8.707,11.293C8.52,11.105 8.265,11 8,11ZM21,3C19.939,3 18.922,3.421 18.172,4.172C17.421,4.922 17,5.939 17,7C17,8.061 17.421,9.078 18.172,9.828C18.922,10.579 19.939,11 21,11C22.061,11 23.078,10.579 23.828,9.828C24.579,9.078 25,8.061 25,7C25,5.939 24.579,4.922 23.828,4.172C23.078,3.421 22.061,3 21,3Z" clip-rule="evenodd" fill-rule="evenodd" fill="#010101" stroke="#FFFFFF" stroke-width="0.3" stroke-miterlimit="3.999327"/>
</svg>
