<svg width="36" height="34" viewBox="0 0 36 34" fill="none" xmlns="http://www.w3.org/2000/svg" xmlns:xlink="http://www.w3.org/1999/xlink">
<path d="M34.373,12.197C34.216,11.716 33.922,11.293 33.525,10.98C33.129,10.667 32.648,10.478 32.145,10.437L22.926,9.694L19.366,1.086C19.174,0.617 18.846,0.215 18.425,-0.067C18.004,-0.349 17.509,-0.5 17.002,-0.5C16.495,-0.5 15.999,-0.349 15.578,-0.067C15.157,0.215 14.829,0.617 14.637,1.086L11.081,9.692L1.857,10.437C1.353,10.48 0.872,10.671 0.475,10.985C0.079,11.3 -0.216,11.724 -0.372,12.206C-0.529,12.687 -0.539,13.204 -0.403,13.692C-0.267,14.179 0.01,14.616 0.393,14.947L7.424,21.014L5.282,30.086C5.162,30.579 5.192,31.096 5.366,31.572C5.541,32.048 5.853,32.462 6.264,32.76C6.674,33.058 7.163,33.228 7.67,33.248C8.177,33.267 8.678,33.136 9.11,32.87L17.001,28.014L24.896,32.87C25.328,33.133 25.829,33.262 26.334,33.241C26.839,33.22 27.327,33.049 27.736,32.752C28.144,32.454 28.456,32.042 28.631,31.568C28.806,31.093 28.837,30.578 28.72,30.086L26.57,21.012L33.601,14.945C33.987,14.615 34.267,14.177 34.404,13.688C34.541,13.199 34.531,12.68 34.373,12.197ZM31.976,13.051L24.367,19.614C24.193,19.763 24.064,19.958 23.993,20.176C23.923,20.394 23.914,20.627 23.967,20.85L26.292,30.662C26.298,30.676 26.298,30.691 26.293,30.705C26.288,30.719 26.278,30.731 26.265,30.737C26.237,30.759 26.229,30.754 26.206,30.737L17.656,25.479C17.459,25.358 17.232,25.294 17.001,25.294C16.77,25.294 16.543,25.358 16.346,25.479L7.796,30.74C7.773,30.754 7.766,30.759 7.737,30.74C7.724,30.734 7.713,30.722 7.709,30.708C7.704,30.694 7.704,30.679 7.71,30.665L10.035,20.853C10.088,20.63 10.079,20.397 10.008,20.179C9.938,19.961 9.809,19.767 9.635,19.617L2.026,13.054C2.007,13.039 1.99,13.025 2.006,12.976C2.021,12.928 2.034,12.934 2.057,12.931L12.045,12.125C12.274,12.105 12.493,12.023 12.678,11.887C12.863,11.75 13.007,11.566 13.095,11.353L16.941,2.039C16.954,2.012 16.959,2 16.996,2C17.034,2 17.038,2.012 17.051,2.039L20.907,11.353C20.995,11.566 21.14,11.75 21.326,11.886C21.512,12.022 21.732,12.103 21.962,12.122L31.949,12.928C31.973,12.928 31.987,12.928 32.001,12.973C32.015,13.019 32.001,13.036 31.976,13.051Z" fill="#010101"/>
</svg>
