<svg width="40" height="40" viewBox="0 0 40 40" fill="none" xmlns="http://www.w3.org/2000/svg" xmlns:xlink="http://www.w3.org/1999/xlink">
<path d="M6,3L34,3L34,1L6,1L6,3ZM34,3C35.657,3 37,4.343 37,6L39,6C39,3.239 36.761,1 34,1L34,3ZM37,6L37,34L39,34L39,6L37,6ZM37,34C37,35.657 35.657,37 34,37L34,39C36.761,39 39,36.761 39,34L37,34ZM34,37L6,37L6,39L34,39L34,37ZM6,37C4.343,37 3,35.657 3,34L1,34C1,36.761 3.239,39 6,39L6,37ZM3,34L3,6L1,6L1,34L3,34ZM3,6C3,4.343 4.343,3 6,3L6,1C3.239,1 1,3.239 1,6L3,6Z" fill="#565656"/>
</svg>
