<svg width="10" height="20" viewBox="0 0 10 20" fill="none" xmlns="http://www.w3.org/2000/svg" xmlns:xlink="http://www.w3.org/1999/xlink">
<path d="M2.372,0.807C1.57,0.601 0.752,1.085 0.547,1.888C0.341,2.69 0.825,3.507 1.628,3.713L2.372,0.807ZM8.016,10.01L9.516,10.01L8.016,10.01ZM1.628,16.307C0.825,16.512 0.341,17.329 0.547,18.132C0.752,18.934 1.57,19.418 2.372,19.213L1.628,16.307ZM1.628,3.713C3.026,4.071 4.265,4.884 5.15,6.024L7.52,4.185C6.227,2.518 4.416,1.33 2.372,0.807L1.628,3.713ZM5.15,6.024C6.035,7.164 6.516,8.566 6.516,10.01L9.516,10.01C9.516,7.9 8.814,5.851 7.52,4.185L5.15,6.024ZM6.516,10.01C6.516,11.453 6.035,12.855 5.15,13.995L7.52,15.835C8.814,14.169 9.516,12.119 9.516,10.01L6.516,10.01ZM5.15,13.995C4.265,15.136 3.026,15.949 1.628,16.307L2.372,19.213C4.416,18.69 6.227,17.501 7.52,15.835L5.15,13.995Z" fill="#010101"/>
</svg>
