<svg width="30" height="32" viewBox="0 0 30 32" fill="none" xmlns="http://www.w3.org/2000/svg" xmlns:xlink="http://www.w3.org/1999/xlink">
<path d="M0.888,3.026C0.786,3.114 0.704,3.223 0.648,3.345C0.592,3.467 0.563,3.6 0.563,3.734L0.563,30C0.563,30.248 0.661,30.487 0.837,30.663C1.013,30.838 1.251,30.937 1.5,30.937C1.749,30.937 1.987,30.838 2.163,30.663C2.339,30.487 2.438,30.248 2.438,30L2.438,22.934C6.825,19.373 10.544,21.215 14.834,23.336C17.353,24.586 20.067,25.926 22.959,25.926C25.08,25.926 27.297,25.208 29.609,23.204C29.711,23.117 29.793,23.009 29.85,22.888C29.907,22.766 29.936,22.634 29.938,22.5L29.938,3.734C29.938,3.554 29.886,3.378 29.789,3.227C29.692,3.076 29.553,2.955 29.39,2.881C29.226,2.806 29.045,2.78 28.867,2.805C28.689,2.831 28.522,2.907 28.386,3.025C23.855,6.95 20.061,5.07 15.666,2.893C11.308,0.736 6.344,-1.694 0.888,3.026ZM28.063,22.058C23.675,25.62 19.956,23.776 15.666,21.655C11.719,19.7 7.295,17.511 2.438,20.625L2.438,4.175C6.825,0.612 10.544,2.456 14.834,4.575C18.781,6.529 23.205,8.718 28.063,5.611L28.063,22.058Z" fill="#010101"/>
</svg>
