<svg width="38" height="38" viewBox="0 0 38 38" fill="none" xmlns="http://www.w3.org/2000/svg" xmlns:xlink="http://www.w3.org/1999/xlink">
<path d="M4,2L32,2L32,0L4,0L4,2ZM32,2C33.657,2 35,3.343 35,5L37,5C37,2.239 34.761,0 32,0L32,2ZM35,5L35,33L37,33L37,5L35,5ZM35,33C35,34.657 33.657,36 32,36L32,38C34.761,38 37,35.761 37,33L35,33ZM32,36L4,36L4,38L32,38L32,36ZM4,36C2.343,36 1,34.657 1,33L-1,33C-1,35.761 1.239,38 4,38L4,36ZM1,33L1,5L-1,5L-1,33L1,33ZM1,5C1,3.343 2.343,2 4,2L4,0C1.239,0 -1,2.239 -1,5L1,5Z" fill="#5C5C5C"/>
</svg>
