<svg width="30" height="14" viewBox="0 0 30 14" fill="none" xmlns="http://www.w3.org/2000/svg" xmlns:xlink="http://www.w3.org/1999/xlink">
<path d="M1.667,7.999L0.167,7.999L1.667,7.999ZM8.334,1.332L8.334,-0.168L8.334,1.332ZM21.667,1.332L21.667,-0.168L21.667,1.332ZM3.167,7.999C3.167,6.628 3.711,5.314 4.68,4.345L2.559,2.224C1.027,3.756 0.167,5.833 0.167,7.999L3.167,7.999ZM4.68,4.345C5.649,3.376 6.963,2.832 8.334,2.832L8.334,-0.168C6.168,-0.168 4.09,0.692 2.559,2.224L4.68,4.345ZM8.334,2.832L21.667,2.832L21.667,-0.168L8.334,-0.168L8.334,2.832ZM21.667,2.832C23.037,2.832 24.351,3.376 25.32,4.345L27.442,2.224C25.91,0.692 23.833,-0.168 21.667,-0.168L21.667,2.832ZM25.32,4.345C26.289,5.314 26.834,6.628 26.834,7.999L29.834,7.999C29.834,5.833 28.973,3.756 27.442,2.224L25.32,4.345ZM26.834,7.999C26.834,8.485 26.641,8.951 26.297,9.295L28.418,11.416C29.324,10.51 29.834,9.281 29.834,7.999L26.834,7.999ZM26.297,9.295C25.953,9.639 25.487,9.832 25,9.832L25,12.832C26.282,12.832 27.512,12.323 28.418,11.416L26.297,9.295ZM25,9.832L5,9.832L5,12.832L25,12.832L25,9.832ZM5,9.832C4.514,9.832 4.048,9.639 3.704,9.295L1.583,11.416C2.489,12.323 3.718,12.832 5,12.832L5,9.832ZM3.704,9.295C3.36,8.951 3.167,8.485 3.167,7.999L0.167,7.999C0.167,9.281 0.676,10.51 1.583,11.416L3.704,9.295Z" fill="#010101"/>
</svg>
