<svg width="16" height="10" viewBox="0 0 16 10" fill="none" xmlns="http://www.w3.org/2000/svg" xmlns:xlink="http://www.w3.org/1999/xlink">
<path d="M1.266,-0.016C0.843,-0.439 0.157,-0.439 -0.266,-0.016C-0.689,0.407 -0.689,1.093 -0.266,1.516L1.266,-0.016ZM7,7.25L6.234,8.016C6.657,8.439 7.343,8.439 7.766,8.016L7,7.25ZM14.266,1.516C14.689,1.093 14.689,0.407 14.266,-0.016C13.843,-0.439 13.157,-0.439 12.734,-0.016L14.266,1.516ZM-0.266,1.516L6.234,8.016L7.766,6.484L1.266,-0.016L-0.266,1.516ZM7.766,8.016L14.266,1.516L12.734,-0.016L6.234,6.484L7.766,8.016Z" fill="#5C5C5C"/>
</svg>
