<svg width="244" height="234" viewBox="0 0 244 234" fill="none" xmlns="http://www.w3.org/2000/svg" xmlns:xlink="http://www.w3.org/1999/xlink">
<path d="M-1,10C-0.991,10 -0.982,10 -0.973,10C-0.963,10 -0.953,10 -0.942,10C-0.932,10 -0.921,10 -0.909,10C-0.897,10 -0.885,10 -0.873,10C-0.86,10 -0.847,10 -0.834,10C-0.82,10 -0.806,10 -0.792,10C-0.777,10 -0.762,10 -0.747,10C-0.731,10 -0.715,10 -0.699,10C-0.683,10 -0.666,10 -0.648,10C-0.631,10 -0.613,10 -0.595,10C-0.576,10 -0.557,10 -0.538,10C-0.519,10 -0.499,10 -0.479,10C-0.458,10 -0.438,10 -0.417,10C-0.395,10 -0.374,10 -0.351,10C-0.329,10 -0.307,10 -0.284,10C-0.26,10 -0.237,10 -0.213,10C-0.189,10 -0.164,10 -0.139,10C-0.114,10 -0.089,10 -0.063,10C-0.037,10 -0.011,10 0.016,10C0.043,10 0.071,10 0.098,10C0.126,10 0.154,10 0.183,10C0.212,10 0.241,10 0.271,10C0.3,10 0.331,10 0.361,10C0.392,10 0.423,10 0.454,10C0.486,10 0.518,10 0.55,10C0.583,10 0.615,10 0.649,10C0.682,10 0.716,10 0.75,10C0.784,10 0.819,10 0.854,10C0.89,10 0.925,10 0.961,10C0.997,10 1.034,10 1.071,10C1.108,10 1.145,10 1.183,10C1.221,10 1.259,10 1.298,10C1.337,10 1.376,10 1.416,10C1.456,10 1.496,10 1.536,10C1.577,10 1.618,10 1.659,10C1.701,10 1.743,10 1.785,10C1.827,10 1.87,10 1.913,10C1.957,10 2,10 2.045,10C2.089,10 2.133,10 2.178,10C2.223,10 2.269,10 2.315,10C2.361,10 2.407,10 2.454,10C2.5,10 2.548,10 2.595,10C2.643,10 2.691,10 2.739,10C2.788,10 2.837,10 2.886,10C2.936,10 2.986,10 3.036,10C3.086,10 3.137,10 3.188,10C3.239,10 3.29,10 3.342,10C3.394,10 3.447,10 3.5,10C3.553,10 3.606,10 3.659,10C3.713,10 3.767,10 3.822,10C3.876,10 3.931,10 3.987,10C4.042,10 4.098,10 4.154,10C4.21,10 4.267,10 4.324,10C4.381,10 4.439,10 4.497,10C4.554,10 4.613,10 4.672,10C4.73,10 4.79,10 4.849,10C4.909,10 4.969,10 5.029,10C5.09,10 5.15,10 5.212,10C5.273,10 5.335,10 5.397,10C5.459,10 5.521,10 5.584,10C5.647,10 5.71,10 5.774,10C5.838,10 5.902,10 5.967,10C6.031,10 6.096,10 6.161,10C6.227,10 6.293,10 6.359,10C6.425,10 6.492,10 6.559,10C6.626,10 6.693,10 6.761,10C6.829,10 6.897,10 6.965,10C7.034,10 7.103,10 7.172,10C7.242,10 7.312,10 7.382,10C7.452,10 7.523,10 7.594,10C7.665,10 7.736,10 7.808,10C7.88,10 7.952,10 8.025,10C8.097,10 8.17,10 8.244,10C8.317,10 8.391,10 8.465,10C8.539,10 8.614,10 8.689,10C8.764,10 8.839,10 8.915,10C8.991,10 9.067,10 9.143,10C9.22,10 9.297,10 9.374,10C9.451,10 9.529,10 9.607,10C9.685,10 9.764,10 9.842,10C9.921,10 10.001,10 10.08,10C10.16,10 10.24,10 10.32,10C10.401,10 10.481,10 10.562,10C10.644,10 10.725,10 10.807,10C10.889,10 10.971,10 11.054,10C11.137,10 11.22,10 11.303,10C11.386,10 11.47,10 11.554,10C11.639,10 11.723,10 11.808,10C11.893,10 11.978,10 12.064,10C12.15,10 12.236,10 12.322,10C12.409,10 12.495,10 12.582,10C12.67,10 12.757,10 12.845,10C12.933,10 13.021,10 13.11,10C13.198,10 13.287,10 13.377,10C13.466,10 13.556,10 13.646,10C13.736,10 13.827,10 13.917,10C14.008,10 14.099,10 14.191,10C14.283,10 14.374,10 14.467,10C14.559,10 14.652,10 14.745,10C14.838,10 14.931,10 15.025,10C15.118,10 15.213,10 15.307,10C15.401,10 15.496,10 15.591,10C15.686,10 15.782,10 15.878,10C15.974,10 16.07,10 16.166,10C16.263,10 16.36,10 16.457,10C16.554,10 16.652,10 16.75,10C16.848,10 16.946,10 17.045,10C17.144,10 17.243,10 17.342,10C17.441,10 17.541,10 17.641,10C17.741,10 17.841,10 17.942,10C18.043,10 18.144,10 18.245,10C18.347,10 18.449,10 18.551,10C18.653,10 18.755,10 18.858,10C18.961,10 19.064,10 19.168,10C19.271,10 19.375,10 19.479,10C19.583,10 19.688,10 19.792,10C19.897,10 20.002,10 20.108,10C20.213,10 20.319,10 20.425,10C20.532,10 20.638,10 20.745,10C20.852,10 20.959,10 21.066,10C21.174,10 21.282,10 21.39,10C21.498,10 21.607,10 21.715,10C21.824,10 21.933,10 22.043,10C22.152,10 22.262,10 22.372,10C22.482,10 22.593,10 22.704,10C22.814,10 22.925,10 23.037,10C23.148,10 23.26,10 23.372,10C23.484,10 23.597,10 23.709,10C23.822,10 23.935,10 24.048,10C24.162,10 24.275,10 24.389,10C24.503,10 24.618,10 24.732,10C24.847,10 24.962,10 25.077,10C25.192,10 25.308,10 25.424,10C25.54,10 25.656,10 25.772,10C25.889,10 26.006,10 26.123,10C26.24,10 26.357,10 26.475,10C26.593,10 26.711,10 26.829,10C26.948,10 27.066,10 27.185,10C27.304,10 27.424,10 27.543,10C27.663,10 27.783,10 27.903,10C28.023,10 28.144,10 28.264,10C28.385,10 28.506,10 28.628,10C28.749,10 28.871,10 28.993,10C29.115,10 29.237,10 29.36,10C29.483,10 29.605,10 29.729,10C29.852,10 29.975,10 30.099,10C30.223,10 30.347,10 30.471,10C30.596,10 30.721,10 30.846,10C30.971,10 31.096,10 31.221,10C31.347,10 31.473,10 31.599,10C31.725,10 31.852,10 31.978,10C32.105,10 32.232,10 32.359,10C32.487,10 32.614,10 32.742,10C32.87,10 32.998,10 33.127,10C33.255,10 33.384,10 33.513,10C33.642,10 33.771,10 33.901,10C34.03,10 34.16,10 34.291,10C34.421,10 34.551,10 34.682,10C34.813,10 34.944,10 35.075,10C35.206,10 35.338,10 35.47,10C35.601,10 35.733,10 35.866,10C35.998,10 36.131,10 36.264,10C36.397,10 36.53,10 36.664,10C36.797,10 36.931,10 37.065,10C37.199,10 37.333,10 37.468,10C37.602,10 37.737,10 37.872,10C38.007,10 38.143,10 38.278,10C38.414,10 38.55,10 38.686,10C38.822,10 38.959,10 39.096,10C39.232,10 39.369,10 39.506,10C39.644,10 39.781,10 39.919,10C40.057,10 40.195,10 40.333,10C40.471,10 40.61,10 40.749,10C40.888,10 41.027,10 41.166,10C41.305,10 41.445,10 41.585,10C41.725,10 41.865,10 42.005,10C42.146,10 42.286,10 42.427,10C42.568,10 42.709,10 42.85,10C42.992,10 43.133,10 43.275,10C43.417,10 43.559,10 43.702,10C43.844,10 43.987,10 44.13,10C44.273,10 44.416,10 44.559,10C44.702,10 44.846,10 44.99,10C45.134,10 45.278,10 45.422,10C45.567,10 45.711,10 45.856,10C46.001,10 46.146,10 46.291,10C46.437,10 46.582,10 46.728,10C46.874,10 47.02,10 47.166,10C47.313,10 47.459,10 47.606,10C47.753,10 47.9,10 48.047,10C48.194,10 48.342,10 48.49,10C48.637,10 48.785,10 48.934,10C49.082,10 49.23,10 49.379,10C49.528,10 49.676,10 49.826,10C49.975,10 50.124,10 50.274,10C50.423,10 50.573,10 50.723,10C50.873,10 51.024,10 51.174,10C51.325,10 51.475,10 51.626,10C51.777,10 51.928,10 52.08,10C52.231,10 52.383,10 52.535,10C52.687,10 52.839,10 52.991,10C53.143,10 53.296,10 53.449,10C53.601,10 53.754,10 53.908,10C54.061,10 54.214,10 54.368,10C54.521,10 54.675,10 54.829,10C54.983,10 55.138,10 55.292,10C55.447,10 55.601,10 55.756,10C55.911,10 56.066,10 56.222,10C56.377,10 56.533,10 56.689,10C56.844,10 57,10 57.156,10C57.313,10 57.469,10 57.626,10C57.782,10 57.939,10 58.096,10C58.253,10 58.41,10 58.568,10C58.725,10 58.883,10 59.041,10C59.199,10 59.357,10 59.515,10C59.673,10 59.832,10 59.99,10C60.149,10 60.308,10 60.467,10C60.626,10 60.785,10 60.945,10C61.104,10 61.264,10 61.424,10C61.584,10 61.744,10 61.904,10C62.064,10 62.225,10 62.386,10C62.546,10 62.707,10 62.868,10C63.029,10 63.19,10 63.352,10C63.513,10 63.675,10 63.837,10C63.999,10 64.161,10 64.323,10C64.485,10 64.647,10 64.81,10C64.972,10 65.135,10 65.298,10C65.461,10 65.624,10 65.788,10C65.951,10 66.114,10 66.278,10C66.442,10 66.606,10 66.77,10C66.934,10 67.098,10 67.262,10C67.427,10 67.592,10 67.756,10C67.921,10 68.086,10 68.251,10C68.416,10 68.582,10 68.747,10C68.913,10 69.078,10 69.244,10C69.41,10 69.576,10 69.742,10C69.909,10 70.075,10 70.241,10C70.408,10 70.575,10 70.742,10C70.909,10 71.076,10 71.243,10C71.41,10 71.578,10 71.745,10C71.913,10 72.081,10 72.248,10C72.416,10 72.584,10 72.753,10C72.921,10 73.089,10 73.258,10C73.427,10 73.595,10 73.764,10C73.933,10 74.102,10 74.272,10C74.441,10 74.61,10 74.78,10C74.949,10 75.119,10 75.289,10C75.459,10 75.629,10 75.799,10C75.969,10 76.14,10 76.31,10C76.481,10 76.651,10 76.822,10C76.993,10 77.164,10 77.335,10C77.507,10 77.678,10 77.849,10C78.021,10 78.192,10 78.364,10C78.536,10 78.708,10 78.88,10C79.052,10 79.224,10 79.397,10C79.569,10 79.741,10 79.914,10C80.087,10 80.26,10 80.433,10C80.606,10 80.779,10 80.952,10C81.125,10 81.299,10 81.472,10C81.646,10 81.819,10 81.993,10C82.167,10 82.341,10 82.515,10C82.689,10 82.864,10 83.038,10C83.212,10 83.387,10 83.562,10C83.736,10 83.911,10 84.086,10C84.261,10 84.436,10 84.611,10C84.786,10 84.962,10 85.137,10C85.313,10 85.488,10 85.664,10C85.84,10 86.016,10 86.192,10C86.368,10 86.544,10 86.72,10C86.897,10 87.073,10 87.25,10C87.426,10 87.603,10 87.78,10C87.957,10 88.133,10 88.311,10C88.488,10 88.665,10 88.842,10C89.019,10 89.197,10 89.374,10C89.552,10 89.73,10 89.907,10C90.085,10 90.263,10 90.441,10C90.619,10 90.797,10 90.976,10C91.154,10 91.332,10 91.511,10C91.69,10 91.868,10 92.047,10C92.226,10 92.405,10 92.584,10C92.763,10 92.942,10 93.121,10C93.3,10 93.48,10 93.659,10C93.838,10 94.018,10 94.198,10C94.377,10 94.557,10 94.737,10C94.917,10 95.097,10 95.277,10C95.457,10 95.638,10 95.818,10C95.998,10 96.179,10 96.359,10C96.54,10 96.72,10 96.901,10C97.082,10 97.263,10 97.444,10C97.625,10 97.806,10 97.987,10C98.168,10 98.35,10 98.531,10C98.712,10 98.894,10 99.075,10C99.257,10 99.439,10 99.62,10C99.802,10 99.984,10 100.166,10C100.348,10 100.53,10 100.712,10C100.894,10 101.077,10 101.259,10C101.441,10 101.624,10 101.806,10C101.989,10 102.172,10 102.354,10C102.537,10 102.72,10 102.903,10C103.086,10 103.269,10 103.452,10C103.635,10 103.818,10 104.001,10C104.185,10 104.368,10 104.551,10C104.735,10 104.918,10 105.102,10C105.286,10 105.469,10 105.653,10C105.837,10 106.021,10 106.205,10C106.389,10 106.573,10 106.757,10C106.941,10 107.125,10 107.309,10C107.494,10 107.678,10 107.862,10C108.047,10 108.231,10 108.416,10C108.601,10 108.785,10 108.97,10C109.155,10 109.339,10 109.524,10C109.709,10 109.894,10 110.079,10C110.264,10 110.449,10 110.635,10C110.82,10 111.005,10 111.19,10C111.376,10 111.561,10 111.746,10C111.932,10 112.117,10 112.303,10C112.489,10 112.674,10 112.86,10C113.046,10 113.231,10 113.417,10C113.603,10 113.789,10 113.975,10C114.161,10 114.347,10 114.533,10C114.719,10 114.905,10 115.092,10C115.278,10 115.464,10 115.651,10C115.837,10 116.023,10 116.21,10C116.396,10 116.583,10 116.769,10C116.956,10 117.143,10 117.329,10C117.516,10 117.703,10 117.889,10C118.076,10 118.263,10 118.45,10C118.637,10 118.824,10 119.011,10C119.198,10 119.385,10 119.572,10C119.759,10 119.946,10 120.134,10C120.321,10 120.508,10 120.695,10C120.883,10 121.07,10 121.257,10C121.445,10 121.632,10 121.82,10C122.007,10 122.195,10 122.382,10C122.57,10 122.758,10 122.945,10C123.133,10 123.321,10 123.508,10C123.696,10 123.884,10 124.072,10C124.259,10 124.447,10 124.635,10C124.823,10 125.011,10 125.199,10C125.387,10 125.575,10 125.763,10C125.951,10 126.139,10 126.327,10C126.515,10 126.704,10 126.892,10C127.08,10 127.268,10 127.456,10C127.645,10 127.833,10 128.021,10C128.209,10 128.398,10 128.586,10C128.775,10 128.963,10 129.151,10C129.34,10 129.528,10 129.717,10C129.905,10 130.094,10 130.282,10C130.471,10 130.659,10 130.848,10C131.036,10 131.225,10 131.413,10C131.602,10 131.791,10 131.979,10C132.168,10 132.357,10 132.545,10C132.734,10 132.923,10 133.111,10C133.3,10 133.489,10 133.678,10C133.866,10 134.055,10 134.244,10C134.433,10 134.622,10 134.81,10C134.999,10 135.188,10 135.377,10C135.566,10 135.755,10 135.943,10C136.132,10 136.321,10 136.51,10C136.699,10 136.888,10 137.077,10C137.266,10 137.455,10 137.644,10C137.832,10 138.021,10 138.21,10C138.399,10 138.588,10 138.777,10C138.966,10 139.155,10 139.344,10C139.533,10 139.722,10 139.911,10C140.1,10 140.289,10 140.478,10C140.667,10 140.856,10 141.044,10C141.233,10 141.422,10 141.611,10C141.8,10 141.989,10 142.178,10C142.367,10 142.556,10 142.745,10C142.934,10 143.123,10 143.312,10C143.501,10 143.69,10 143.878,10C144.067,10 144.256,10 144.445,10C144.634,10 144.823,10 145.012,10C145.201,10 145.389,10 145.578,10C145.767,10 145.956,10 146.145,10C146.334,10 146.522,10 146.711,10C146.9,10 147.089,10 147.277,10C147.466,10 147.655,10 147.844,10C148.032,10 148.221,10 148.41,10C148.599,10 148.787,10 148.976,10C149.164,10 149.353,10 149.542,10C149.73,10 149.919,10 150.107,10C150.296,10 150.485,10 150.673,10C150.862,10 151.05,10 151.239,10C151.427,10 151.615,10 151.804,10C151.992,10 152.181,10 152.369,10C152.557,10 152.746,10 152.934,10C153.122,10 153.311,10 153.499,10C153.687,10 153.875,10 154.063,10C154.252,10 154.44,10 154.628,10C154.816,10 155.004,10 155.192,10C155.38,10 155.568,10 155.756,10C155.944,10 156.132,10 156.32,10C156.508,10 156.696,10 156.883,10C157.071,10 157.259,10 157.447,10C157.634,10 157.822,10 158.01,10C158.197,10 158.385,10 158.573,10C158.76,10 158.948,10 159.135,10C159.323,10 159.51,10 159.697,10C159.885,10 160.072,10 160.26,10C160.447,10 160.634,10 160.821,10C161.008,10 161.196,10 161.383,10C161.57,10 161.757,10 161.944,10C162.131,10 162.318,10 162.505,10C162.692,10 162.878,10 163.065,10C163.252,10 163.439,10 163.625,10C163.812,10 163.999,10 164.185,10C164.372,10 164.558,10 164.745,10C164.931,10 165.118,10 165.304,10C165.49,10 165.677,10 165.863,10C166.049,10 166.235,10 166.421,10C166.607,10 166.794,10 166.98,10C167.165,10 167.351,10 167.537,10C167.723,10 167.909,10 168.095,10C168.28,10 168.466,10 168.652,10C168.837,10 169.023,10 169.208,10C169.393,10 169.579,10 169.764,10C169.949,10 170.135,10 170.32,10C170.505,10 170.69,10 170.875,10C171.06,10 171.245,10 171.43,10C171.615,10 171.8,10 171.984,10C172.169,10 172.354,10 172.538,10C172.723,10 172.907,10 173.092,10C173.276,10 173.461,10 173.645,10C173.829,10 174.013,10 174.197,10C174.381,10 174.565,10 174.749,10C174.933,10 175.117,10 175.301,10C175.485,10 175.668,10 175.852,10C176.036,10 176.219,10 176.403,10C176.586,10 176.769,10 176.953,10C177.136,10 177.319,10 177.502,10C177.685,10 177.868,10 178.051,10C178.234,10 178.417,10 178.599,10C178.782,10 178.965,10 179.147,10C179.33,10 179.512,10 179.695,10C179.877,10 180.059,10 180.241,10C180.424,10 180.606,10 180.788,10C180.97,10 181.151,10 181.333,10C181.515,10 181.697,10 181.878,10C182.06,10 182.241,10 182.423,10C182.604,10 182.785,10 182.966,10C183.148,10 183.329,10 183.51,10C183.691,10 183.871,10 184.052,10C184.233,10 184.414,10 184.594,10C184.775,10 184.955,10 185.135,10C185.316,10 185.496,10 185.676,10C185.856,10 186.036,10 186.216,10C186.396,10 186.576,10 186.755,10C186.935,10 187.115,10 187.294,10C187.473,10 187.653,10 187.832,10C188.011,10 188.19,10 188.369,10C188.548,10 188.727,10 188.906,10C189.085,10 189.263,10 189.442,10C189.62,10 189.799,10 189.977,10C190.155,10 190.333,10 190.511,10C190.689,10 190.867,10 191.045,10C191.223,10 191.401,10 191.578,10C191.756,10 191.933,10 192.11,10C192.288,10 192.465,10 192.642,10C192.819,10 192.996,10 193.173,10C193.35,10 193.526,10 193.703,10C193.879,10 194.056,10 194.232,10C194.408,10 194.584,10 194.76,10C194.936,10 195.112,10 195.288,10C195.464,10 195.639,10 195.815,10C195.99,10 196.166,10 196.341,10C196.516,10 196.691,10 196.866,10C197.041,10 197.216,10 197.39,10C197.565,10 197.74,10 197.914,10C198.088,10 198.263,10 198.437,10C198.611,10 198.785,10 198.959,10C199.132,10 199.306,10 199.48,10C199.654,10 199.826,10 200,10C200.172,10 200.346,10 200.518,10C200.692,10 200.864,10 201.038,10C201.21,10 201.382,10 201.554,10C201.728,10 201.9,10 202.072,10C202.244,10 202.416,10 202.588,10C202.758,10 202.93,10 203.102,10C203.274,10 203.444,10 203.616,10C203.786,10 203.958,10 204.128,10C204.3,10 204.47,10 204.64,10C204.812,10 204.982,10 205.152,10C205.322,10 205.492,10 205.662,10C205.832,10 206.002,10 206.17,10C206.34,10 206.51,10 206.68,10C206.848,10 207.018,10 207.186,10C207.356,10 207.524,10 207.692,10C207.862,10 208.03,10 208.198,10C208.366,10 208.534,10 208.702,10C208.87,10 209.038,10 209.206,10C209.372,10 209.54,10 209.708,10C209.874,10 210.042,10 210.208,10C210.376,10 210.542,10 210.708,10C210.876,10 211.042,10 211.208,10C211.374,10 211.54,10 211.706,10C211.872,10 212.038,10 212.202,10C212.368,10 212.534,10 212.698,10C212.864,10 213.028,10 213.194,10C213.358,10 213.522,10 213.688,10C213.852,10 214.016,10 214.18,10C214.344,10 214.508,10 214.672,10C214.834,10 214.998,10 215.162,10C215.324,10 215.488,10 215.652,10C215.814,10 215.976,10 216.14,10C216.302,10 216.464,10 216.626,10C216.788,10 216.95,10 217.112,10C217.274,10 217.436,10 217.598,10C217.758,10 217.92,10 218.08,10C218.242,10 218.402,10 218.564,10C218.724,10 218.884,10 219.044,10L219.044,0C218.884,0 218.724,0 218.564,0C218.402,0 218.242,0 218.08,0C217.92,0 217.758,0 217.598,0C217.436,0 217.274,0 217.112,0C216.95,0 216.788,0 216.626,0C216.464,0 216.302,0 216.14,0C215.976,0 215.814,0 215.652,0C215.488,0 215.324,0 215.162,0C214.998,0 214.834,0 214.672,0C214.508,0 214.344,0 214.18,0C214.016,0 213.852,0 213.688,0C213.522,0 213.358,0 213.194,0C213.028,0 212.864,0 212.698,0C212.534,0 212.368,0 212.202,0C212.038,0 211.872,0 211.706,0C211.54,0 211.374,0 211.208,0C211.042,0 210.876,0 210.708,0C210.542,0 210.376,0 210.208,0C210.042,0 209.874,0 209.708,0C209.54,0 209.372,0 209.206,0C209.038,0 208.87,0 208.702,0C208.534,0 208.366,0 208.198,0C208.03,0 207.862,0 207.692,0C207.524,0 207.356,0 207.186,0C207.018,0 206.848,0 206.68,0C206.51,0 206.34,0 206.17,0C206.002,0 205.832,0 205.662,0C205.492,0 205.322,0 205.152,0C204.982,0 204.812,0 204.64,0C204.47,0 204.3,0 204.128,0C203.958,0 203.786,0 203.616,0C203.444,0 203.274,0 203.102,0C202.93,0 202.758,0 202.588,0C202.416,0 202.244,0 202.072,0C201.9,0 201.728,0 201.554,0C201.382,0 201.21,0 201.038,0C200.864,0 200.692,0 200.518,0C200.346,0 200.172,0 200,0C199.826,0 199.654,0 199.48,0C199.306,0 199.132,0 198.959,0C198.785,0 198.611,0 198.437,0C198.263,0 198.088,0 197.914,0C197.74,0 197.565,0 197.39,0C197.216,0 197.041,0 196.866,0C196.691,0 196.516,0 196.341,0C196.166,0 195.99,0 195.815,0C195.639,0 195.464,0 195.288,0C195.112,0 194.936,0 194.76,0C194.584,0 194.408,0 194.232,0C194.056,0 193.879,0 193.703,0C193.526,0 193.35,0 193.173,0C192.996,0 192.819,0 192.642,0C192.465,0 192.288,0 192.11,0C191.933,0 191.756,0 191.578,0C191.401,0 191.223,0 191.045,0C190.867,0 190.689,0 190.511,0C190.333,0 190.155,0 189.977,0C189.799,0 189.62,0 189.442,0C189.263,0 189.085,0 188.906,0C188.727,0 188.548,0 188.369,0C188.19,0 188.011,0 187.832,0C187.653,0 187.473,0 187.294,0C187.115,0 186.935,0 186.755,0C186.576,0 186.396,0 186.216,0C186.036,0 185.856,0 185.676,0C185.496,0 185.316,0 185.135,0C184.955,0 184.775,0 184.594,0C184.414,0 184.233,0 184.052,0C183.871,0 183.691,0 183.51,0C183.329,0 183.148,0 182.966,0C182.785,0 182.604,0 182.423,0C182.241,0 182.06,0 181.878,0C181.697,0 181.515,0 181.333,0C181.151,0 180.97,0 180.788,0C180.606,0 180.424,0 180.241,0C180.059,0 179.877,0 179.695,0C179.512,0 179.33,0 179.147,0C178.965,0 178.782,0 178.599,0C178.417,0 178.234,0 178.051,0C177.868,0 177.685,0 177.502,0C177.319,0 177.136,0 176.953,0C176.769,0 176.586,0 176.403,0C176.219,0 176.036,0 175.852,0C175.668,0 175.485,0 175.301,0C175.117,0 174.933,0 174.749,0C174.565,0 174.381,0 174.197,0C174.013,0 173.829,0 173.645,0C173.461,0 173.276,0 173.092,0C172.907,0 172.723,0 172.538,0C172.354,0 172.169,0 171.984,0C171.8,0 171.615,0 171.43,0C171.245,0 171.06,0 170.875,0C170.69,0 170.505,0 170.32,0C170.135,0 169.949,0 169.764,0C169.579,0 169.393,0 169.208,0C169.023,0 168.837,0 168.652,0C168.466,0 168.28,0 168.095,0C167.909,0 167.723,0 167.537,0C167.351,0 167.165,0 166.98,0C166.794,0 166.607,0 166.421,0C166.235,0 166.049,0 165.863,0C165.677,0 165.49,0 165.304,0C165.118,0 164.931,0 164.745,0C164.558,0 164.372,0 164.185,0C163.999,0 163.812,0 163.625,0C163.439,0 163.252,0 163.065,0C162.878,0 162.692,0 162.505,0C162.318,0 162.131,0 161.944,0C161.757,0 161.57,0 161.383,0C161.196,0 161.008,0 160.821,0C160.634,0 160.447,0 160.26,0C160.072,0 159.885,0 159.697,0C159.51,0 159.323,0 159.135,0C158.948,0 158.76,0 158.573,0C158.385,0 158.197,0 158.01,0C157.822,0 157.634,0 157.447,0C157.259,0 157.071,0 156.883,0C156.696,0 156.508,0 156.32,0C156.132,0 155.944,0 155.756,0C155.568,0 155.38,0 155.192,0C155.004,0 154.816,0 154.628,0C154.44,0 154.252,0 154.063,0C153.875,0 153.687,0 153.499,0C153.311,0 153.122,0 152.934,0C152.746,0 152.557,0 152.369,0C152.181,0 151.992,0 151.804,0C151.615,0 151.427,0 151.239,0C151.05,0 150.862,0 150.673,0C150.485,0 150.296,0 150.107,0C149.919,0 149.73,0 149.542,0C149.353,0 149.164,0 148.976,0C148.787,0 148.599,0 148.41,0C148.221,0 148.032,0 147.844,0C147.655,0 147.466,0 147.277,0C147.089,0 146.9,0 146.711,0C146.522,0 146.334,0 146.145,0C145.956,0 145.767,0 145.578,0C145.389,0 145.201,0 145.012,0C144.823,0 144.634,0 144.445,0C144.256,0 144.067,0 143.878,0C143.69,0 143.501,0 143.312,0C143.123,0 142.934,0 142.745,0C142.556,0 142.367,0 142.178,0C141.989,0 141.8,0 141.611,0C141.422,0 141.233,0 141.044,0C140.856,0 140.667,0 140.478,0C140.289,0 140.1,0 139.911,0C139.722,0 139.533,0 139.344,0C139.155,0 138.966,0 138.777,0C138.588,0 138.399,0 138.21,0C138.021,0 137.832,0 137.644,0C137.455,0 137.266,0 137.077,0C136.888,0 136.699,0 136.51,0C136.321,0 136.132,0 135.943,0C135.755,0 135.566,0 135.377,0C135.188,0 134.999,0 134.81,0C134.622,0 134.433,0 134.244,0C134.055,0 133.866,0 133.678,0C133.489,0 133.3,0 133.111,0C132.923,0 132.734,0 132.545,0C132.357,0 132.168,0 131.979,0C131.791,0 131.602,0 131.413,0C131.225,0 131.036,0 130.848,0C130.659,0 130.471,0 130.282,0C130.094,0 129.905,0 129.717,0C129.528,0 129.34,0 129.151,0C128.963,0 128.775,0 128.586,0C128.398,0 128.209,0 128.021,0C127.833,0 127.645,0 127.456,0C127.268,0 127.08,0 126.892,0C126.704,0 126.515,0 126.327,0C126.139,0 125.951,0 125.763,0C125.575,0 125.387,0 125.199,0C125.011,0 124.823,0 124.635,0C124.447,0 124.259,0 124.072,0C123.884,0 123.696,0 123.508,0C123.321,0 123.133,0 122.945,0C122.758,0 122.57,0 122.382,0C122.195,0 122.007,0 121.82,0C121.632,0 121.445,0 121.257,0C121.07,0 120.883,0 120.695,0C120.508,0 120.321,0 120.134,0C119.946,0 119.759,0 119.572,0C119.385,0 119.198,0 119.011,0C118.824,0 118.637,0 118.45,0C118.263,0 118.076,0 117.889,0C117.703,0 117.516,0 117.329,0C117.143,0 116.956,0 116.769,0C116.583,0 116.396,0 116.21,0C116.023,0 115.837,0 115.651,0C115.464,0 115.278,0 115.092,0C114.905,0 114.719,0 114.533,0C114.347,0 114.161,0 113.975,0C113.789,0 113.603,0 113.417,0C113.231,0 113.046,0 112.86,0C112.674,0 112.489,0 112.303,0C112.117,0 111.932,0 111.746,0C111.561,0 111.376,0 111.19,0C111.005,0 110.82,0 110.635,0C110.449,0 110.264,0 110.079,0C109.894,0 109.709,0 109.524,0C109.339,0 109.155,0 108.97,0C108.785,0 108.601,0 108.416,0C108.231,0 108.047,0 107.862,0C107.678,0 107.494,0 107.309,0C107.125,0 106.941,0 106.757,0C106.573,0 106.389,0 106.205,0C106.021,0 105.837,0 105.653,0C105.469,0 105.286,0 105.102,0C104.918,0 104.735,0 104.551,0C104.368,0 104.185,0 104.001,0C103.818,0 103.635,0 103.452,0C103.269,0 103.086,0 102.903,0C102.72,0 102.537,0 102.354,0C102.172,0 101.989,0 101.806,0C101.624,0 101.441,0 101.259,0C101.077,0 100.894,0 100.712,0C100.53,0 100.348,0 100.166,0C99.984,0 99.802,0 99.62,0C99.439,0 99.257,0 99.075,0C98.894,0 98.712,0 98.531,0C98.35,0 98.168,0 97.987,0C97.806,0 97.625,0 97.444,0C97.263,0 97.082,0 96.901,0C96.72,0 96.54,0 96.359,0C96.179,0 95.998,0 95.818,0C95.638,0 95.457,0 95.277,0C95.097,0 94.917,0 94.737,0C94.557,0 94.377,0 94.198,0C94.018,0 93.838,0 93.659,0C93.48,0 93.3,0 93.121,0C92.942,0 92.763,0 92.584,0C92.405,0 92.226,0 92.047,0C91.868,0 91.69,0 91.511,0C91.332,0 91.154,0 90.976,0C90.797,0 90.619,0 90.441,0C90.263,0 90.085,0 89.907,0C89.73,0 89.552,0 89.374,0C89.197,0 89.019,0 88.842,0C88.665,0 88.488,0 88.311,0C88.133,0 87.957,0 87.78,0C87.603,0 87.426,0 87.25,0C87.073,0 86.897,0 86.72,0C86.544,0 86.368,0 86.192,0C86.016,0 85.84,0 85.664,0C85.488,0 85.313,0 85.137,0C84.962,0 84.786,0 84.611,0C84.436,0 84.261,0 84.086,0C83.911,0 83.736,0 83.562,0C83.387,0 83.212,0 83.038,0C82.864,0 82.689,0 82.515,0C82.341,0 82.167,0 81.993,0C81.819,0 81.646,0 81.472,0C81.299,0 81.125,0 80.952,0C80.779,0 80.606,0 80.433,0C80.26,0 80.087,0 79.914,0C79.741,0 79.569,0 79.397,0C79.224,0 79.052,0 78.88,0C78.708,0 78.536,0 78.364,0C78.192,0 78.021,0 77.849,0C77.678,0 77.507,0 77.335,0C77.164,0 76.993,0 76.822,0C76.651,0 76.481,0 76.31,0C76.14,0 75.969,0 75.799,0C75.629,0 75.459,0 75.289,0C75.119,0 74.949,0 74.78,0C74.61,0 74.441,0 74.272,0C74.102,0 73.933,0 73.764,0C73.595,0 73.427,0 73.258,0C73.089,0 72.921,0 72.753,0C72.584,0 72.416,0 72.248,0C72.081,0 71.913,0 71.745,0C71.578,0 71.41,0 71.243,0C71.076,0 70.909,0 70.742,0C70.575,0 70.408,0 70.241,0C70.075,0 69.909,0 69.742,0C69.576,0 69.41,0 69.244,0C69.078,0 68.913,0 68.747,0C68.582,0 68.416,0 68.251,0C68.086,0 67.921,0 67.756,0C67.592,0 67.427,0 67.262,0C67.098,0 66.934,0 66.77,0C66.606,0 66.442,0 66.278,0C66.114,0 65.951,0 65.788,0C65.624,0 65.461,0 65.298,0C65.135,0 64.972,0 64.81,0C64.647,0 64.485,0 64.323,0C64.161,0 63.999,0 63.837,0C63.675,0 63.513,0 63.352,0C63.19,0 63.029,0 62.868,0C62.707,0 62.546,0 62.386,0C62.225,0 62.064,0 61.904,0C61.744,0 61.584,0 61.424,0C61.264,0 61.104,0 60.945,0C60.785,0 60.626,0 60.467,0C60.308,0 60.149,0 59.99,0C59.832,0 59.673,0 59.515,0C59.357,0 59.199,0 59.041,0C58.883,0 58.725,0 58.568,0C58.41,0 58.253,0 58.096,0C57.939,0 57.782,0 57.626,0C57.469,0 57.313,0 57.156,0C57,0 56.844,0 56.689,0C56.533,0 56.377,0 56.222,0C56.066,0 55.911,0 55.756,0C55.601,0 55.447,0 55.292,0C55.138,0 54.983,0 54.829,0C54.675,0 54.521,0 54.368,0C54.214,0 54.061,0 53.908,0C53.754,0 53.601,0 53.449,0C53.296,0 53.143,0 52.991,0C52.839,0 52.687,0 52.535,0C52.383,0 52.231,0 52.08,0C51.928,0 51.777,0 51.626,0C51.475,0 51.325,0 51.174,0C51.024,0 50.873,0 50.723,0C50.573,0 50.423,0 50.274,0C50.124,0 49.975,0 49.826,0C49.676,0 49.528,0 49.379,0C49.23,0 49.082,0 48.934,0C48.785,0 48.637,0 48.49,0C48.342,0 48.194,0 48.047,0C47.9,0 47.753,0 47.606,0C47.459,0 47.313,0 47.166,0C47.02,0 46.874,0 46.728,0C46.582,0 46.437,0 46.291,0C46.146,0 46.001,0 45.856,0C45.711,0 45.567,0 45.422,0C45.278,0 45.134,0 44.99,0C44.846,0 44.702,0 44.559,0C44.416,0 44.273,0 44.13,0C43.987,0 43.844,0 43.702,0C43.559,0 43.417,0 43.275,0C43.133,0 42.992,0 42.85,0C42.709,0 42.568,0 42.427,0C42.286,0 42.146,0 42.005,0C41.865,0 41.725,0 41.585,0C41.445,0 41.305,0 41.166,0C41.027,0 40.888,0 40.749,0C40.61,0 40.471,0 40.333,0C40.195,0 40.057,0 39.919,0C39.781,0 39.644,0 39.506,0C39.369,0 39.232,0 39.096,0C38.959,0 38.822,0 38.686,0C38.55,0 38.414,0 38.278,0C38.143,0 38.007,0 37.872,0C37.737,0 37.602,0 37.468,0C37.333,0 37.199,0 37.065,0C36.931,0 36.797,0 36.664,0C36.53,0 36.397,0 36.264,0C36.131,0 35.998,0 35.866,0C35.733,0 35.601,0 35.47,0C35.338,0 35.206,0 35.075,0C34.944,0 34.813,0 34.682,0C34.551,0 34.421,0 34.291,0C34.16,0 34.03,0 33.901,0C33.771,0 33.642,0 33.513,0C33.384,0 33.255,0 33.127,0C32.998,0 32.87,0 32.742,0C32.614,0 32.487,0 32.359,0C32.232,0 32.105,0 31.978,0C31.852,0 31.725,0 31.599,0C31.473,0 31.347,0 31.221,0C31.096,0 30.971,0 30.846,0C30.721,0 30.596,0 30.471,0C30.347,0 30.223,0 30.099,0C29.975,0 29.852,0 29.729,0C29.605,0 29.483,0 29.36,0C29.237,0 29.115,0 28.993,0C28.871,0 28.749,0 28.628,0C28.506,0 28.385,0 28.264,0C28.144,0 28.023,0 27.903,0C27.783,0 27.663,0 27.543,0C27.424,0 27.304,0 27.185,0C27.066,0 26.948,0 26.829,0C26.711,0 26.593,0 26.475,0C26.357,0 26.24,0 26.123,0C26.006,0 25.889,0 25.772,0C25.656,0 25.54,0 25.424,0C25.308,0 25.192,0 25.077,0C24.962,0 24.847,0 24.732,0C24.618,0 24.503,0 24.389,0C24.275,0 24.162,0 24.048,0C23.935,0 23.822,0 23.709,0C23.597,0 23.484,0 23.372,0C23.26,0 23.148,0 23.037,0C22.925,0 22.814,0 22.704,0C22.593,0 22.482,0 22.372,0C22.262,0 22.152,0 22.043,0C21.933,0 21.824,0 21.715,0C21.607,0 21.498,0 21.39,0C21.282,0 21.174,0 21.066,0C20.959,0 20.852,0 20.745,0C20.638,0 20.532,0 20.425,0C20.319,0 20.213,0 20.108,0C20.002,0 19.897,0 19.792,0C19.688,0 19.583,0 19.479,0C19.375,0 19.271,0 19.168,0C19.064,0 18.961,0 18.858,0C18.755,0 18.653,0 18.551,0C18.449,0 18.347,0 18.245,0C18.144,0 18.043,0 17.942,0C17.841,0 17.741,0 17.641,0C17.541,0 17.441,0 17.342,0C17.243,0 17.144,0 17.045,0C16.946,0 16.848,0 16.75,0C16.652,0 16.554,0 16.457,0C16.36,0 16.263,0 16.166,0C16.07,0 15.974,0 15.878,0C15.782,0 15.686,0 15.591,0C15.496,0 15.401,0 15.307,0C15.213,0 15.118,0 15.025,0C14.931,0 14.838,0 14.745,0C14.652,0 14.559,0 14.467,0C14.374,0 14.283,0 14.191,0C14.099,0 14.008,0 13.917,0C13.827,0 13.736,0 13.646,0C13.556,0 13.466,0 13.377,0C13.287,0 13.198,0 13.11,0C13.021,0 12.933,0 12.845,0C12.757,0 12.67,0 12.582,0C12.495,0 12.409,0 12.322,0C12.236,0 12.15,0 12.064,0C11.978,0 11.893,0 11.808,0C11.723,0 11.639,0 11.554,0C11.47,0 11.386,0 11.303,0C11.22,0 11.137,0 11.054,0C10.971,0 10.889,0 10.807,0C10.725,0 10.644,0 10.562,0C10.481,0 10.401,0 10.32,0C10.24,0 10.16,0 10.08,0C10.001,0 9.921,0 9.842,0C9.764,0 9.685,0 9.607,0C9.529,0 9.451,0 9.374,0C9.297,0 9.22,0 9.143,0C9.067,0 8.991,0 8.915,0C8.839,0 8.764,0 8.689,0C8.614,0 8.539,0 8.465,0C8.391,0 8.317,0 8.244,0C8.17,0 8.097,0 8.025,0C7.952,0 7.88,0 7.808,0C7.736,0 7.665,0 7.594,0C7.523,0 7.452,0 7.382,0C7.312,0 7.242,0 7.172,0C7.103,0 7.034,0 6.965,0C6.897,0 6.829,0 6.761,0C6.693,0 6.626,0 6.559,0C6.492,0 6.425,0 6.359,0C6.293,0 6.227,0 6.161,0C6.096,0 6.031,0 5.967,0C5.902,0 5.838,0 5.774,0C5.71,0 5.647,0 5.584,0C5.521,0 5.459,0 5.397,0C5.335,0 5.273,0 5.212,0C5.15,0 5.09,0 5.029,0C4.969,0 4.909,0 4.849,0C4.79,0 4.73,0 4.672,0C4.613,0 4.554,0 4.497,0C4.439,0 4.381,0 4.324,0C4.267,0 4.21,0 4.154,0C4.098,0 4.042,0 3.987,0C3.931,0 3.876,0 3.822,0C3.767,0 3.713,0 3.659,0C3.606,0 3.553,0 3.5,0C3.447,0 3.394,0 3.342,0C3.29,0 3.239,0 3.188,0C3.137,0 3.086,0 3.036,0C2.986,0 2.936,0 2.886,0C2.837,0 2.788,0 2.739,0C2.691,0 2.643,0 2.595,0C2.548,0 2.5,0 2.454,0C2.407,0 2.361,0 2.315,0C2.269,0 2.223,0 2.178,0C2.133,0 2.089,0 2.045,0C2,0 1.957,0 1.913,0C1.87,0 1.827,0 1.785,0C1.743,0 1.701,0 1.659,0C1.618,0 1.577,0 1.536,0C1.496,0 1.456,0 1.416,0C1.376,0 1.337,0 1.298,0C1.259,0 1.221,0 1.183,0C1.145,0 1.108,0 1.071,0C1.034,0 0.997,0 0.961,0C0.925,0 0.89,0 0.854,0C0.819,0 0.784,0 0.75,0C0.716,0 0.682,0 0.649,0C0.615,0 0.583,0 0.55,0C0.518,0 0.486,0 0.454,0C0.423,0 0.392,0 0.361,0C0.331,0 0.3,0 0.271,0C0.241,0 0.212,0 0.183,0C0.154,0 0.126,0 0.098,0C0.071,0 0.043,0 0.016,0C-0.011,0 -0.037,0 -0.063,0C-0.089,0 -0.114,0 -0.139,0C-0.164,0 -0.189,0 -0.213,0C-0.237,0 -0.26,0 -0.284,0C-0.307,0 -0.329,0 -0.351,0C-0.374,0 -0.395,0 -0.417,0C-0.438,0 -0.458,0 -0.479,0C-0.499,0 -0.519,0 -0.538,0C-0.557,0 -0.576,0 -0.595,0C-0.613,0 -0.631,0 -0.648,0C-0.666,0 -0.683,0 -0.699,0C-0.715,0 -0.731,0 -0.747,0C-0.762,0 -0.777,0 -0.792,0C-0.806,0 -0.82,0 -0.834,0C-0.847,0 -0.86,0 -0.873,0C-0.885,0 -0.897,0 -0.909,0C-0.921,0 -0.932,0 -0.942,0C-0.953,0 -0.963,0 -0.973,0C-0.982,0 -0.991,0 -1,0L-1,10ZM234,25L234,75L244,75L244,25L234,25ZM219,90L96,90L96,100L219,100L219,90ZM71,115L71,233L81,233L81,115L71,115ZM96,90C82.193,90 71,101.193 71,115L81,115C81,106.716 87.716,100 96,100L96,90ZM234,75C234,83.284 227.284,90 219,90L219,100C232.808,100 244,88.807 244,75L234,75ZM219.044,10C227.314,10 234,16.701 234,25L244,25C244,11.207 232.866,0 219.044,0L219.044,10Z" fill="#F2F2F2"/>
</svg>
