<svg width="30" height="34" viewBox="0 0 30 34" fill="none" xmlns="http://www.w3.org/2000/svg" xmlns:xlink="http://www.w3.org/1999/xlink">
<path d="M4,9.334C4,6.682 5.054,4.138 6.929,2.263C8.804,0.388 11.348,-0.666 14,-0.666C16.652,-0.666 19.196,0.388 21.071,2.263C22.946,4.138 24,6.682 24,9.334L25.667,9.334C26.551,9.334 27.399,9.685 28.024,10.31C28.649,10.935 29,11.783 29,12.667L29,29.334C29,30.218 28.649,31.066 28.024,31.691C27.399,32.316 26.551,32.667 25.667,32.667L2.333,32.667C1.449,32.667 0.601,32.316 -0.024,31.691C-0.649,31.066 -1,30.218 -1,29.334L-1,12.667C-1,11.783 -0.649,10.935 -0.024,10.31C0.601,9.685 1.449,9.334 2.333,9.334L4,9.334ZM14,2.667C15.768,2.667 17.464,3.37 18.714,4.62C19.964,5.87 20.667,7.566 20.667,9.334L7.333,9.334C7.333,7.566 8.036,5.87 9.286,4.62C10.536,3.37 12.232,2.667 14,2.667ZM17.333,19.334C17.333,19.919 17.179,20.494 16.887,21.001C16.594,21.507 16.173,21.928 15.667,22.221L15.667,24.334C15.667,24.776 15.491,25.2 15.179,25.513C14.866,25.825 14.442,26.001 14,26.001C13.558,26.001 13.134,25.825 12.822,25.513C12.509,25.2 12.333,24.776 12.333,24.334L12.333,22.221C11.698,21.854 11.201,21.287 10.921,20.61C10.64,19.932 10.59,19.18 10.78,18.471C10.97,17.762 11.389,17.136 11.971,16.69C12.553,16.243 13.266,16.001 14,16.001C14.884,16.001 15.732,16.352 16.357,16.977C16.982,17.602 17.333,18.45 17.333,19.334Z" clip-rule="evenodd" fill-rule="evenodd" fill="#010101"/>
</svg>
