<svg width="56" height="54" viewBox="0 0 56 54" fill="none" xmlns="http://www.w3.org/2000/svg" xmlns:xlink="http://www.w3.org/1999/xlink">
<path d="M54.527,20.555C54.285,19.81 53.828,19.154 53.213,18.669C52.599,18.183 51.854,17.891 51.074,17.828L36.785,16.675L31.268,3.333C30.969,2.606 30.461,1.984 29.809,1.546C29.156,1.109 28.388,0.875 27.602,0.875C26.816,0.875 26.048,1.109 25.395,1.546C24.743,1.984 24.235,2.606 23.937,3.333L18.424,16.673L4.128,17.828C3.346,17.894 2.601,18.189 1.987,18.677C1.372,19.165 0.915,19.823 0.672,20.569C0.43,21.315 0.413,22.116 0.624,22.872C0.835,23.628 1.265,24.305 1.859,24.817L12.757,34.221L9.437,48.283C9.251,49.047 9.297,49.849 9.567,50.587C9.838,51.325 10.322,51.966 10.958,52.428C11.594,52.891 12.353,53.154 13.138,53.184C13.924,53.214 14.701,53.011 15.37,52.599L27.601,45.071L39.839,52.599C40.508,53.006 41.284,53.206 42.067,53.173C42.85,53.14 43.606,52.877 44.24,52.415C44.873,51.954 45.356,51.315 45.628,50.58C45.899,49.845 45.947,49.045 45.765,48.283L42.432,34.219L53.331,24.815C53.93,24.303 54.363,23.625 54.576,22.866C54.789,22.108 54.772,21.304 54.527,20.555ZM50.812,21.88L39.018,32.051C38.749,32.283 38.549,32.585 38.439,32.922C38.33,33.26 38.315,33.622 38.398,33.967L42.001,49.177C42.011,49.198 42.012,49.221 42.004,49.243C41.996,49.264 41.981,49.282 41.96,49.293C41.917,49.327 41.904,49.319 41.868,49.293L28.616,41.143C28.31,40.956 27.959,40.856 27.601,40.856C27.243,40.856 26.891,40.956 26.586,41.143L13.334,49.298C13.297,49.319 13.288,49.327 13.242,49.298C13.221,49.287 13.205,49.269 13.198,49.248C13.19,49.226 13.191,49.202 13.2,49.181L16.804,33.972C16.886,33.627 16.872,33.265 16.762,32.927C16.653,32.589 16.453,32.288 16.184,32.056L4.39,21.884C4.36,21.86 4.334,21.838 4.358,21.763C4.382,21.688 4.402,21.698 4.438,21.693L19.919,20.443C20.274,20.413 20.614,20.285 20.901,20.074C21.188,19.863 21.411,19.577 21.546,19.247L27.509,4.81C27.528,4.769 27.535,4.75 27.594,4.75C27.652,4.75 27.659,4.769 27.678,4.81L33.656,19.247C33.792,19.577 34.017,19.863 34.305,20.073C34.594,20.283 34.935,20.41 35.29,20.439L50.771,21.688C50.807,21.688 50.829,21.688 50.851,21.758C50.873,21.829 50.851,21.855 50.812,21.88Z" fill="#010101"/>
</svg>
