<svg width="50" height="46" viewBox="0 0 50 46" fill="none" xmlns="http://www.w3.org/2000/svg" xmlns:xlink="http://www.w3.org/1999/xlink">
<path d="M31.5,44.5C30.395,44.5 29.5,43.605 29.5,42.5L29.5,26.5C29.5,25.395 30.395,24.5 31.5,24.5L47.5,24.5C48.605,24.5 49.5,25.395 49.5,26.5L49.5,42.5C49.5,43.605 48.605,44.5 47.5,44.5L31.5,44.5ZM34.5,37.5C34.5,38.605 35.395,39.5 36.5,39.5L42.5,39.5C43.605,39.5 44.5,38.605 44.5,37.5L44.5,31.5C44.5,30.395 43.605,29.5 42.5,29.5L36.5,29.5C35.395,29.5 34.5,30.395 34.5,31.5L34.5,37.5ZM1.5,37C0.395,37 -0.5,36.105 -0.5,35L-0.5,34C-0.5,32.895 0.395,32 1.5,32L20,32C21.105,32 22,32.895 22,34L22,35C22,36.105 21.105,37 20,37L1.5,37ZM31.5,19.5C30.395,19.5 29.5,18.605 29.5,17.5L29.5,1.5C29.5,0.395 30.395,-0.5 31.5,-0.5L47.5,-0.5C48.605,-0.5 49.5,0.395 49.5,1.5L49.5,17.5C49.5,18.605 48.605,19.5 47.5,19.5L31.5,19.5ZM34.5,12.5C34.5,13.605 35.395,14.5 36.5,14.5L42.5,14.5C43.605,14.5 44.5,13.605 44.5,12.5L44.5,6.5C44.5,5.395 43.605,4.5 42.5,4.5L36.5,4.5C35.395,4.5 34.5,5.395 34.5,6.5L34.5,12.5ZM1.5,12C0.395,12 -0.5,11.105 -0.5,10L-0.5,9C-0.5,7.895 0.395,7 1.5,7L20,7C21.105,7 22,7.895 22,9L22,10C22,11.105 21.105,12 20,12L1.5,12Z" fill="#010101" stroke="#FFFFFF" stroke-width="0.6" stroke-miterlimit="3.999327"/>
</svg>
