<svg width="54" height="52" viewBox="0 0 54 52" fill="none" xmlns="http://www.w3.org/2000/svg" xmlns:xlink="http://www.w3.org/1999/xlink">
<path d="M24.211,1.908C24.495,1.42 24.902,1.015 25.392,0.734C25.882,0.453 26.436,0.305 27.001,0.305C27.566,0.305 28.12,0.453 28.61,0.734C29.099,1.015 29.507,1.42 29.791,1.908L37.011,14.303L51.034,17.341C51.585,17.461 52.096,17.723 52.514,18.102C52.933,18.48 53.245,18.962 53.419,19.499C53.594,20.036 53.624,20.609 53.508,21.161C53.392,21.714 53.133,22.226 52.757,22.647L43.198,33.344L44.645,47.617C44.702,48.179 44.611,48.747 44.38,49.262C44.149,49.778 43.788,50.224 43.331,50.556C42.874,50.888 42.337,51.094 41.776,51.155C41.214,51.215 40.646,51.126 40.129,50.898L27.001,45.112L13.872,50.898C13.356,51.126 12.788,51.215 12.226,51.155C11.665,51.094 11.128,50.888 10.671,50.556C10.214,50.224 9.852,49.778 9.622,49.262C9.391,48.747 9.3,48.179 9.357,47.617L10.803,33.344L1.245,22.649C0.869,22.228 0.609,21.716 0.492,21.163C0.376,20.611 0.406,20.037 0.581,19.5C0.755,18.963 1.067,18.48 1.486,18.102C1.905,17.723 2.416,17.46 2.968,17.341L16.991,14.303L24.211,1.908Z" fill="#FF1515"/>
</svg>
