<svg width="50" height="40" viewBox="0 0 50 40" fill="none" xmlns="http://www.w3.org/2000/svg" xmlns:xlink="http://www.w3.org/1999/xlink">
<path d="M-0.18,30.84C-0.18,31.3 -0.02,31.68 0.32,31.98C0.66,32.3 1.08,32.44 1.56,32.44L38.78,32.44C39.26,32.44 39.66,32.28 39.98,31.98C40.32,31.66 40.48,31.28 40.48,30.84C40.48,30.36 40.32,29.94 40,29.62C39.843,29.455 39.654,29.326 39.443,29.239C39.233,29.153 39.007,29.113 38.78,29.12L1.56,29.12C1.08,29.12 0.68,29.28 0.34,29.62C0,29.96 -0.18,30.38 -0.18,30.84ZM5.04,24.62C5.04,25.1 5.22,25.48 5.56,25.8C5.84,26.16 6.22,26.34 6.74,26.34L43.96,26.34C44.42,26.34 44.8,26.18 45.12,25.84C45.44,25.5 45.58,25.1 45.58,24.62C45.585,24.405 45.547,24.192 45.468,23.993C45.389,23.794 45.27,23.612 45.12,23.46C44.967,23.309 44.786,23.191 44.587,23.112C44.387,23.033 44.174,22.995 43.96,23L6.74,23C6.26,23 5.86,23.16 5.54,23.46C5.2,23.78 5.04,24.16 5.04,24.62ZM5.34,19.78L5.34,19.68C5.26,19.98 5.34,20.12 5.58,20.12L8.46,20.12C8.58,20.12 8.7,20.02 8.84,19.82C9.32,18.78 10.02,17.94 10.96,17.28C11.9,16.62 12.94,16.24 14.06,16.16L15.12,16C15.36,16 15.5,15.88 15.5,15.64L15.62,14.64C15.84,12.48 16.74,10.7 18.34,9.24C19.94,7.8 21.84,7.08 24.02,7.08C26.16,7.08 28.06,7.8 29.66,9.22C31.26,10.64 32.2,12.42 32.42,14.56L32.56,15.7C32.56,15.94 32.7,16.06 32.98,16.06L36.14,16.06C37.42,16.06 38.6,16.4 39.64,17.1C40.68,17.78 41.48,18.7 41.98,19.82C42.12,20.02 42.26,20.12 42.42,20.12L45.26,20.12C45.5,20.12 45.6,19.98 45.56,19.68C45.12,18.56 44.82,17.86 44.64,17.56C46.08,16.26 47.1,14.54 47.64,12.42L47.98,11.1C48.007,11.05 48.02,10.994 48.016,10.937C48.013,10.88 47.993,10.826 47.96,10.78C47.9,10.7 47.82,10.64 47.72,10.64L46.48,10.2C44.7,9.68 43.34,8.64 42.4,7.04C41.46,5.44 41.22,3.74 41.66,1.92L41.92,0.76C42.02,0.58 41.94,0.42 41.66,0.3L39.98,-0.16C37.835,-0.7 35.571,-0.518 33.54,0.36C31.483,1.209 29.752,2.695 28.6,4.6C27.02,3.98 25.48,3.68 24.02,3.68C21.24,3.68 18.78,4.56 16.6,6.3C14.42,8.04 13.04,10.28 12.4,13C10.72,13.4 9.24,14.2 7.96,15.42C6.68,16.64 5.84,18.1 5.34,19.78ZM8.5,36.94C8.5,37.42 8.68,37.8 9.02,38.12C9.36,38.48 9.76,38.66 10.2,38.66L47.5,38.66C47.96,38.66 48.36,38.5 48.68,38.16C49,37.82 49.16,37.42 49.16,36.94C49.16,36.48 49,36.1 48.68,35.78C48.36,35.46 47.96,35.32 47.5,35.32L10.22,35.32C9.74,35.32 9.34,35.48 9.02,35.78C8.68,36.1 8.5,36.48 8.5,36.94ZM31.52,6.4C32.22,5.26 33.16,4.36 34.34,3.74C35.52,3.12 36.76,2.86 38.08,2.98C37.94,5.06 38.42,7.02 39.48,8.84C40.56,10.66 42.04,12 43.92,12.88C43.62,13.58 43.12,14.3 42.42,15.02C40.665,13.538 38.437,12.736 36.14,12.76L35.5,12.76C34.86,10.14 33.54,8.02 31.52,6.4Z" fill="#010101"/>
</svg>
