<svg width="36" height="36" viewBox="0 0 36 36" fill="none" xmlns="http://www.w3.org/2000/svg" xmlns:xlink="http://www.w3.org/1999/xlink">
<path d="M18,0C13.226,0 8.648,1.896 5.272,5.272C1.896,8.648 0,13.226 0,18C0,22.774 1.896,27.352 5.272,30.728C8.648,34.104 13.226,36 18,36L27,36C29.796,36 31.194,36 32.296,35.544C33.024,35.242 33.686,34.8 34.243,34.243C34.8,33.686 35.242,33.024 35.544,32.296C36,31.194 36,29.796 36,27L36,18C36,13.226 34.104,8.648 30.728,5.272C27.352,1.896 22.774,0 18,0ZM10,16C10,15.47 10.211,14.961 10.586,14.586C10.961,14.211 11.47,14 12,14L24,14C24.53,14 25.039,14.211 25.414,14.586C25.789,14.961 26,15.47 26,16C26,16.53 25.789,17.039 25.414,17.414C25.039,17.789 24.53,18 24,18L12,18C11.47,18 10.961,17.789 10.586,17.414C10.211,17.039 10,16.53 10,16ZM16,24C16,23.47 16.211,22.961 16.586,22.586C16.961,22.211 17.47,22 18,22L24,22C24.53,22 25.039,22.211 25.414,22.586C25.789,22.961 26,23.47 26,24C26,24.53 25.789,25.039 25.414,25.414C25.039,25.789 24.53,26 24,26L18,26C17.47,26 16.961,25.789 16.586,25.414C16.211,25.039 16,24.53 16,24Z" clip-rule="evenodd" fill-rule="evenodd" fill="#010101"/>
</svg>
