<svg width="16" height="28" viewBox="0 0 16 28" fill="none" xmlns="http://www.w3.org/2000/svg" xmlns:xlink="http://www.w3.org/1999/xlink">
<path d="M-0.414,23.586C-1.195,24.367 -1.195,25.633 -0.414,26.414C0.367,27.195 1.633,27.195 2.414,26.414L-0.414,23.586ZM13,13L14.414,14.414C15.195,13.633 15.195,12.367 14.414,11.586L13,13ZM2.414,-0.414C1.633,-1.195 0.367,-1.195 -0.414,-0.414C-1.195,0.367 -1.195,1.633 -0.414,2.414L2.414,-0.414ZM2.414,26.414L14.414,14.414L11.586,11.586L-0.414,23.586L2.414,26.414ZM14.414,11.586L2.414,-0.414L-0.414,2.414L11.586,14.414L14.414,11.586Z" fill="#5C5C5C"/>
</svg>
