<svg width="22" height="22" viewBox="0 0 22 22" fill="none" xmlns="http://www.w3.org/2000/svg" xmlns:xlink="http://www.w3.org/1999/xlink">
<path d="M19.333,12.36L19.333,18.193C19.333,19.121 18.965,20.012 18.308,20.668C17.652,21.324 16.762,21.693 15.833,21.693L11.167,21.693L11.167,12.36L19.333,12.36ZM8.833,12.36L8.833,21.693L4.167,21.693C3.238,21.693 2.348,21.324 1.692,20.668C1.035,20.012 0.667,19.121 0.667,18.193L0.667,12.36L8.833,12.36ZM6.5,-0.474C7.162,-0.474 7.817,-0.333 8.42,-0.06C9.023,0.212 9.562,0.61 10,1.106C10.438,0.61 10.977,0.212 11.58,-0.06C12.183,-0.333 12.838,-0.474 13.5,-0.474L14.083,-0.474C14.547,-0.474 14.993,-0.289 15.321,0.039C15.649,0.367 15.833,0.812 15.833,1.276L15.833,1.86C15.833,2.71 15.606,3.507 15.209,4.193L18.167,4.193C18.786,4.193 19.379,4.439 19.817,4.876C20.254,5.314 20.5,5.908 20.5,6.526L20.5,8.86C20.5,9.284 20.387,9.683 20.187,10.026L11.167,10.026L11.167,6.526C11.167,6.217 11.044,5.92 10.825,5.701C10.606,5.483 10.309,5.36 10,5.36C9.691,5.36 9.394,5.483 9.175,5.701C8.956,5.92 8.833,6.217 8.833,6.526L8.833,10.026L-0.187,10.026C-0.392,9.672 -0.5,9.269 -0.5,8.86L-0.5,6.526C-0.5,5.908 -0.254,5.314 0.183,4.876C0.621,4.439 1.214,4.193 1.833,4.193L4.791,4.193C4.382,3.484 4.166,2.679 4.167,1.86L4.167,1.276C4.167,0.812 4.351,0.367 4.679,0.039C5.007,-0.289 5.453,-0.474 5.917,-0.474L6.5,-0.474ZM6.5,1.86C6.5,2.479 6.746,3.072 7.183,3.51C7.621,3.947 8.214,4.193 8.833,4.193C8.833,3.574 8.588,2.981 8.15,2.543C7.712,2.106 7.119,1.86 6.5,1.86ZM13.5,1.86C12.881,1.86 12.288,2.106 11.85,2.543C11.412,2.981 11.167,3.574 11.167,4.193C11.786,4.193 12.379,3.947 12.817,3.51C13.254,3.072 13.5,2.479 13.5,1.86Z" clip-rule="evenodd" fill-rule="evenodd" fill="#FFFFFF"/>
</svg>
