<svg width="40" height="36" viewBox="0 0 40 36" fill="none" xmlns="http://www.w3.org/2000/svg" xmlns:xlink="http://www.w3.org/1999/xlink">
<path d="M25.748,18.25C25.528,18.25 25.298,18.213 25.078,18.14C24.665,18.009 24.305,17.748 24.051,17.396C23.797,17.045 23.662,16.621 23.667,16.188L23.667,13.612C21.595,13.282 20,11.476 20,9.313L20,3.354C20,0.952 21.953,-1 24.354,-1L34.896,-1C37.298,-1 39.25,0.952 39.25,3.354L39.25,9.313C39.25,11.714 37.298,13.667 34.896,13.667L30.203,13.667L27.379,17.425C26.976,17.957 26.38,18.25 25.748,18.25ZM24.354,1.292C23.218,1.292 22.292,2.217 22.292,3.354L22.292,9.313C22.292,10.449 23.218,11.375 24.354,11.375L25.958,11.375L25.958,15.5L29.057,11.375L34.905,11.375C36.042,11.375 36.967,10.449 36.967,9.313L36.967,3.354C36.967,2.217 36.042,1.292 34.905,1.292L24.354,1.292ZM12.667,20.542C8.872,20.542 5.792,17.462 5.792,13.667C5.792,9.872 8.872,6.792 12.667,6.792C16.462,6.792 19.542,9.872 19.542,13.667C19.542,17.462 16.462,20.542 12.667,20.542ZM12.667,9.083C10.137,9.083 8.083,11.137 8.083,13.667C8.083,16.197 10.137,18.25 12.667,18.25C15.197,18.25 17.25,16.197 17.25,13.667C17.25,11.137 15.197,9.083 12.667,9.083ZM0.75,27.224C0.75,27.307 0.887,35.667 12.667,35.667C24.446,35.667 24.583,27.307 24.583,27.224L24.583,26.271C24.583,24.373 23.043,22.833 21.146,22.833L4.188,22.833C2.29,22.833 0.75,24.373 0.75,26.271L0.75,27.224ZM3.042,26.271C3.042,25.638 3.555,25.125 4.188,25.125L21.146,25.125C21.778,25.125 22.292,25.638 22.292,26.271L22.292,27.215C22.292,27.462 22.09,33.375 12.667,33.375C3.243,33.375 3.042,27.463 3.042,27.224L3.042,26.271Z" fill="#010101"/>
</svg>
