<svg width="48" height="32" viewBox="0 0 48 32" fill="none" xmlns="http://www.w3.org/2000/svg" xmlns:xlink="http://www.w3.org/1999/xlink">
<path d="M47.345,10.4L42.562,0.828C42.408,0.52 42.195,0.244 41.934,0.019C41.674,-0.207 41.372,-0.38 41.045,-0.489C40.718,-0.598 40.373,-0.642 40.029,-0.618C39.685,-0.593 39.349,-0.502 39.041,-0.348L34.248,2.049L24.286,-0.588C24.098,-0.636 23.901,-0.636 23.713,-0.588L13.751,2.049L8.96,-0.348C8.652,-0.502 8.316,-0.594 7.972,-0.618C7.628,-0.643 7.282,-0.599 6.955,-0.49C6.628,-0.381 6.325,-0.208 6.065,0.018C5.804,0.244 5.591,0.519 5.437,0.828L0.654,10.4C0.343,11.022 0.292,11.743 0.512,12.403C0.732,13.064 1.205,13.61 1.828,13.921L6.918,16.467L17.345,23.915C17.458,23.996 17.585,24.056 17.72,24.091L29.72,27.091C29.812,27.114 29.905,27.125 30,27.125C30.298,27.125 30.584,27.006 30.795,26.795L41.165,16.424L46.171,13.921C46.794,13.61 47.267,13.064 47.487,12.403C47.708,11.743 47.656,11.022 47.345,10.4ZM37.408,16.992L30.695,11.615C30.479,11.442 30.206,11.354 29.929,11.37C29.652,11.386 29.391,11.503 29.195,11.699C25.698,15.222 21.789,14.778 19.297,13.184C19.248,13.154 19.207,13.113 19.176,13.064C19.146,13.015 19.127,12.96 19.121,12.903C19.114,12.85 19.119,12.797 19.136,12.747C19.152,12.697 19.18,12.651 19.216,12.612L27.455,4.625L33.804,4.625L39.131,15.279L37.408,16.992ZM2.645,11.692C2.614,11.598 2.622,11.495 2.666,11.407L7.451,1.833C7.482,1.771 7.53,1.718 7.59,1.682C7.65,1.645 7.718,1.626 7.788,1.627C7.846,1.627 7.903,1.64 7.955,1.666L12.12,3.747L6.997,14L2.833,11.919C2.788,11.895 2.748,11.863 2.716,11.824C2.683,11.785 2.659,11.74 2.645,11.692ZM29.655,24.755L18.48,21.961L8.936,15.144L14.407,4.203L24,1.664L26.775,2.399C26.562,2.44 26.367,2.543 26.212,2.694L17.643,11.009C17.365,11.287 17.153,11.624 17.022,11.995C16.892,12.366 16.847,12.762 16.89,13.153C16.933,13.544 17.063,13.92 17.271,14.254C17.479,14.588 17.759,14.871 18.091,15.082C21.883,17.504 26.482,17.049 30.054,13.977L35.812,18.594L29.655,24.755ZM45.354,11.692C45.339,11.738 45.314,11.782 45.282,11.819C45.25,11.856 45.21,11.887 45.166,11.909L41.002,14L35.88,3.747L40.044,1.666C40.088,1.644 40.136,1.631 40.185,1.627C40.235,1.624 40.284,1.63 40.331,1.645C40.378,1.661 40.421,1.685 40.458,1.718C40.496,1.75 40.526,1.789 40.548,1.833L45.333,11.407C45.378,11.495 45.385,11.598 45.354,11.692ZM24.354,30.772C24.282,31.061 24.098,31.31 23.842,31.464C23.586,31.617 23.28,31.663 22.991,31.591L15.166,29.635C15.031,29.601 14.904,29.541 14.791,29.459L9.847,25.932C9.604,25.758 9.44,25.495 9.392,25.2C9.343,24.905 9.413,24.603 9.587,24.36C9.761,24.117 10.025,23.953 10.32,23.905C10.614,23.856 10.917,23.926 11.16,24.1L15.92,27.5L23.535,29.403C23.678,29.439 23.813,29.503 23.932,29.591C24.051,29.679 24.152,29.79 24.228,29.918C24.304,30.045 24.354,30.186 24.375,30.332C24.396,30.479 24.389,30.628 24.352,30.772L24.354,30.772Z" fill="#010101"/>
</svg>
