<svg width="42" height="36" viewBox="0 0 42 36" fill="none" xmlns="http://www.w3.org/2000/svg" xmlns:xlink="http://www.w3.org/1999/xlink">
<path d="M37.554,2.946C35.583,0.982 32.915,-0.121 30.132,-0.121C27.35,-0.121 24.681,0.982 22.711,2.946L20,5.545L17.292,2.939C16.317,1.963 15.16,1.19 13.885,0.662C12.611,0.135 11.246,-0.137 9.867,-0.137C7.082,-0.137 4.411,0.97 2.441,2.939C0.472,4.909 -0.634,7.58 -0.634,10.365C-0.634,13.15 0.473,15.821 2.442,17.79L19.199,34.789C19.304,34.895 19.429,34.98 19.566,35.037C19.704,35.095 19.852,35.125 20.001,35.125C20.15,35.125 20.298,35.095 20.435,35.037C20.573,34.98 20.698,34.895 20.802,34.789L37.552,17.796C39.519,15.826 40.623,13.155 40.624,10.371C40.624,7.587 39.52,4.917 37.554,2.946ZM35.958,16.212L20,32.397L4.042,16.206C2.494,14.659 1.625,12.56 1.625,10.372C1.624,8.183 2.494,6.085 4.041,4.537C5.588,2.989 7.687,2.12 9.875,2.12C12.064,2.12 14.162,2.989 15.71,4.536L15.725,4.551L18.38,7.109L16.222,9.186C16.114,9.29 16.028,9.414 15.969,9.551C15.91,9.688 15.879,9.836 15.878,9.985C15.876,10.135 15.905,10.283 15.961,10.421C16.018,10.56 16.101,10.685 16.207,10.791L21.412,16L19.207,18.205C19.101,18.309 19.017,18.433 18.959,18.57C18.902,18.707 18.872,18.854 18.871,19.002C18.871,19.151 18.9,19.298 18.956,19.435C19.013,19.573 19.096,19.697 19.201,19.802C19.306,19.907 19.431,19.99 19.568,20.047C19.706,20.103 19.853,20.132 20.001,20.131C20.15,20.13 20.297,20.1 20.434,20.043C20.571,19.985 20.695,19.901 20.799,19.795L23.799,16.795C23.903,16.69 23.986,16.566 24.043,16.43C24.099,16.293 24.129,16.147 24.129,15.999C24.129,15.851 24.099,15.705 24.043,15.568C23.986,15.431 23.903,15.307 23.799,15.203L18.609,10.011L24.279,4.551C24.285,4.547 24.29,4.542 24.294,4.536C25.842,2.989 27.941,2.121 30.13,2.122C32.318,2.123 34.417,2.993 35.964,4.542C37.51,6.09 38.379,8.189 38.378,10.378C38.377,12.566 37.506,14.665 35.958,16.212Z" fill="#010101"/>
</svg>
