<svg width="50" height="40" viewBox="0 0 50 40" fill="none" xmlns="http://www.w3.org/2000/svg" xmlns:xlink="http://www.w3.org/1999/xlink">
<path d="M-0.18,31.84C-0.18,32.3 -0.02,32.68 0.32,32.98C0.66,33.3 1.08,33.44 1.56,33.44L38.78,33.44C39.26,33.44 39.66,33.28 39.98,32.98C40.32,32.66 40.48,32.28 40.48,31.84C40.48,31.36 40.32,30.94 40,30.62C39.843,30.456 39.653,30.326 39.443,30.24C39.233,30.154 39.007,30.113 38.78,30.12L1.56,30.12C1.08,30.12 0.68,30.28 0.34,30.62C0,30.96 -0.18,31.38 -0.18,31.84ZM5.04,25.62C5.04,26.1 5.22,26.48 5.56,26.8C5.84,27.16 6.22,27.34 6.74,27.34L43.96,27.34C44.42,27.34 44.8,27.18 45.12,26.84C45.44,26.5 45.58,26.1 45.58,25.62C45.585,25.406 45.547,25.193 45.468,24.994C45.389,24.794 45.27,24.613 45.12,24.46C44.967,24.31 44.786,24.192 44.586,24.113C44.387,24.034 44.174,23.995 43.96,24L6.74,24C6.26,24 5.86,24.16 5.54,24.46C5.2,24.78 5.04,25.16 5.04,25.62ZM5.34,20.78L5.34,20.68C5.26,20.98 5.34,21.12 5.58,21.12L8.46,21.12C8.58,21.12 8.7,21.02 8.84,20.82C9.32,19.78 10.02,18.94 10.96,18.28C11.9,17.62 12.94,17.24 14.06,17.16L15.12,17C15.36,17 15.5,16.88 15.5,16.64L15.62,15.64C15.84,13.48 16.74,11.7 18.34,10.24C19.94,8.8 21.84,8.08 24.02,8.08C26.16,8.08 28.06,8.8 29.66,10.22C31.26,11.64 32.2,13.42 32.42,15.56L32.56,16.7C32.56,16.94 32.7,17.06 32.98,17.06L36.14,17.06C37.42,17.06 38.6,17.4 39.64,18.1C40.68,18.78 41.48,19.7 41.98,20.82C42.12,21.02 42.26,21.12 42.42,21.12L45.26,21.12C45.5,21.12 45.6,20.98 45.56,20.68C45.12,19.56 44.82,18.86 44.64,18.56C46.08,17.26 47.1,15.54 47.64,13.42L47.98,12.1C48.007,12.05 48.02,11.994 48.016,11.937C48.013,11.881 47.993,11.826 47.96,11.78C47.9,11.7 47.82,11.64 47.72,11.64L46.48,11.2C44.7,10.68 43.34,9.64 42.4,8.04C41.46,6.44 41.22,4.74 41.66,2.92L41.92,1.76C42.02,1.58 41.94,1.42 41.66,1.3L39.98,0.84C37.834,0.3 35.571,0.483 33.54,1.36C31.483,2.21 29.751,3.696 28.6,5.6C27.02,4.98 25.48,4.68 24.02,4.68C21.24,4.68 18.78,5.56 16.6,7.3C14.42,9.04 13.04,11.28 12.4,14C10.72,14.4 9.24,15.2 7.96,16.42C6.68,17.64 5.84,19.1 5.34,20.78ZM8.5,37.94C8.5,38.42 8.68,38.8 9.02,39.12C9.36,39.48 9.76,39.66 10.2,39.66L47.5,39.66C47.96,39.66 48.36,39.5 48.68,39.16C49,38.82 49.16,38.42 49.16,37.94C49.16,37.48 49,37.1 48.68,36.78C48.36,36.46 47.96,36.32 47.5,36.32L10.22,36.32C9.74,36.32 9.34,36.48 9.02,36.78C8.68,37.1 8.5,37.48 8.5,37.94ZM31.52,7.4C32.22,6.26 33.16,5.36 34.34,4.74C35.52,4.12 36.76,3.86 38.08,3.98C37.94,6.06 38.42,8.02 39.48,9.84C40.56,11.66 42.04,13 43.92,13.88C43.62,14.58 43.12,15.3 42.42,16.02C40.665,14.539 38.436,13.737 36.14,13.76L35.5,13.76C34.86,11.14 33.54,9.02 31.52,7.4Z" fill="#010101"/>
</svg>
