<svg width="50" height="46" viewBox="0 0 50 46" fill="none" xmlns="http://www.w3.org/2000/svg" xmlns:xlink="http://www.w3.org/1999/xlink">
<path d="M31.5,45.5C30.395,45.5 29.5,44.605 29.5,43.5L29.5,27.5C29.5,26.395 30.395,25.5 31.5,25.5L47.5,25.5C48.605,25.5 49.5,26.395 49.5,27.5L49.5,43.5C49.5,44.605 48.605,45.5 47.5,45.5L31.5,45.5ZM34.5,38.5C34.5,39.605 35.395,40.5 36.5,40.5L42.5,40.5C43.605,40.5 44.5,39.605 44.5,38.5L44.5,32.5C44.5,31.395 43.605,30.5 42.5,30.5L36.5,30.5C35.395,30.5 34.5,31.395 34.5,32.5L34.5,38.5ZM1.5,38C0.395,38 -0.5,37.105 -0.5,36L-0.5,35C-0.5,33.895 0.395,33 1.5,33L20,33C21.105,33 22,33.895 22,35L22,36C22,37.105 21.105,38 20,38L1.5,38ZM31.5,20.5C30.395,20.5 29.5,19.605 29.5,18.5L29.5,2.5C29.5,1.395 30.395,0.5 31.5,0.5L47.5,0.5C48.605,0.5 49.5,1.395 49.5,2.5L49.5,18.5C49.5,19.605 48.605,20.5 47.5,20.5L31.5,20.5ZM34.5,13.5C34.5,14.605 35.395,15.5 36.5,15.5L42.5,15.5C43.605,15.5 44.5,14.605 44.5,13.5L44.5,7.5C44.5,6.395 43.605,5.5 42.5,5.5L36.5,5.5C35.395,5.5 34.5,6.395 34.5,7.5L34.5,13.5ZM1.5,13C0.395,13 -0.5,12.105 -0.5,11L-0.5,10C-0.5,8.895 0.395,8 1.5,8L20,8C21.105,8 22,8.895 22,10L22,11C22,12.105 21.105,13 20,13L1.5,13Z" fill="#010101" stroke="#FFFFFF" stroke-width="0.6" stroke-miterlimit="3.999327"/>
</svg>
