<svg width="48" height="42" viewBox="0 0 48 42" fill="none" xmlns="http://www.w3.org/2000/svg" xmlns:xlink="http://www.w3.org/1999/xlink">
<path d="M41.289,7.944L42.276,11.628C42.408,12.12 42.4,12.638 42.253,13.126C42.107,13.613 41.828,14.05 41.447,14.388L41.314,14.5C40.66,15.01 40.168,15.699 39.898,16.484C39.628,17.268 39.591,18.114 39.792,18.919C39.994,19.724 40.424,20.454 41.032,21.019C41.64,21.584 42.398,21.96 43.216,22.103L43.401,22.131C43.919,22.198 44.405,22.418 44.798,22.762C45.191,23.106 45.473,23.559 45.608,24.064L46.613,27.815C46.73,28.25 46.76,28.703 46.701,29.15C46.642,29.596 46.496,30.027 46.271,30.417C46.046,30.807 45.746,31.149 45.389,31.423C45.032,31.697 44.624,31.898 44.189,32.015L9.415,41.332C8.537,41.567 7.601,41.443 6.814,40.989C6.026,40.534 5.452,39.785 5.217,38.907L4.271,35.378C4.13,34.853 4.136,34.299 4.286,33.777C4.437,33.254 4.727,32.783 5.126,32.413L5.266,32.293C5.906,31.771 6.382,31.074 6.636,30.287C6.889,29.5 6.91,28.657 6.695,27.859C6.481,27.06 6.04,26.341 5.426,25.788C4.811,25.234 4.05,24.87 3.234,24.739C2.67,24.648 2.143,24.396 1.719,24.013C1.295,23.629 0.99,23.132 0.842,22.579L-0.108,19.037C-0.224,18.602 -0.254,18.148 -0.195,17.701C-0.136,17.255 0.01,16.824 0.235,16.435C0.46,16.045 0.76,15.703 1.118,15.429C1.475,15.155 1.883,14.954 2.318,14.837L37.09,5.52C37.525,5.404 37.978,5.374 38.425,5.432C38.871,5.491 39.302,5.637 39.692,5.862C40.082,6.087 40.424,6.387 40.698,6.744C40.972,7.102 41.173,7.509 41.29,7.944M37.72,8.465L3.244,17.702C2.769,17.83 2.486,18.319 2.614,18.795L3.292,21.326C4.758,21.621 6.112,22.32 7.203,23.344C8.293,24.368 9.076,25.676 9.463,27.12C9.85,28.565 9.827,30.089 9.394,31.521C8.962,32.953 8.138,34.236 7.016,35.225L7.694,37.756C7.822,38.232 8.311,38.514 8.787,38.387L43.261,29.149C43.737,29.022 44.02,28.532 43.892,28.056L43.215,25.526C41.748,25.231 40.394,24.532 39.303,23.508C38.213,22.484 37.43,21.176 37.043,19.731C36.656,18.286 36.679,16.762 37.112,15.33C37.544,13.898 38.367,12.616 39.49,11.627L38.812,9.095C38.75,8.867 38.601,8.672 38.396,8.554C38.191,8.435 37.948,8.403 37.72,8.465ZM36.619,26.944C36.706,27.27 36.729,27.61 36.684,27.945C36.64,28.28 36.531,28.603 36.362,28.895C36.193,29.188 35.968,29.444 35.7,29.649C35.432,29.855 35.126,30.006 34.8,30.093C34.474,30.18 34.134,30.203 33.799,30.158C33.464,30.114 33.141,30.005 32.849,29.836C32.556,29.667 32.3,29.442 32.095,29.174C31.889,28.906 31.738,28.6 31.651,28.274C31.475,27.615 31.567,26.913 31.908,26.323C32.249,25.732 32.811,25.301 33.47,25.125C34.129,24.949 34.831,25.041 35.421,25.382C36.012,25.723 36.443,26.285 36.619,26.944ZM34.845,20.32C35.021,20.979 34.929,21.681 34.588,22.271C34.247,22.862 33.685,23.293 33.026,23.469C32.367,23.646 31.666,23.553 31.075,23.212C30.484,22.871 30.053,22.31 29.877,21.651C29.71,20.996 29.809,20.301 30.15,19.718C30.492,19.134 31.05,18.709 31.703,18.534C32.356,18.359 33.052,18.448 33.64,18.782C34.228,19.117 34.661,19.669 34.845,20.32ZM33.069,13.697C33.156,14.023 33.178,14.363 33.134,14.698C33.09,15.033 32.981,15.356 32.812,15.648C32.643,15.94 32.418,16.197 32.15,16.402C31.882,16.608 31.576,16.759 31.25,16.846C30.924,16.934 30.584,16.956 30.249,16.912C29.914,16.868 29.591,16.758 29.299,16.589C29.006,16.42 28.75,16.196 28.544,15.928C28.339,15.66 28.188,15.354 28.101,15.028C27.924,14.369 28.017,13.667 28.358,13.076C28.699,12.486 29.26,12.055 29.919,11.878C30.578,11.702 31.28,11.794 31.871,12.135C32.461,12.476 32.892,13.038 33.069,13.697ZM24.186,2.441L26.374,5.564C26.405,5.61 26.436,5.657 26.465,5.705L5.538,11.312L19.411,1.598C20.156,1.077 21.077,0.873 21.973,1.031C22.868,1.189 23.665,1.696 24.186,2.441Z" clip-rule="evenodd" fill-rule="evenodd" fill="#010101"/>
</svg>
