<svg width="16" height="16" viewBox="0 0 16 16" fill="none" xmlns="http://www.w3.org/2000/svg" xmlns:xlink="http://www.w3.org/1999/xlink">
<path d="M0.765,5.502C0.49,6.284 0.9,7.14 1.682,7.415C2.463,7.69 3.32,7.279 3.595,6.498L0.765,5.502ZM13.84,8L12.34,7.998L12.34,8L13.84,8ZM7.365,12.577C6.579,12.839 6.155,13.689 6.417,14.475C6.679,15.26 7.528,15.685 8.314,15.423L7.365,12.577ZM3.595,6.498C3.947,5.495 4.643,4.65 5.56,4.112L4.04,1.525C2.513,2.423 1.352,3.832 0.765,5.502L3.595,6.498ZM5.56,4.112C6.476,3.573 7.553,3.376 8.6,3.556L9.108,0.599C7.362,0.3 5.567,0.628 4.04,1.525L5.56,4.112ZM8.6,3.556C9.648,3.736 10.598,4.28 11.282,5.093L13.577,3.161C12.437,1.806 10.853,0.899 9.108,0.599L8.6,3.556ZM11.282,5.093C11.967,5.906 12.341,6.935 12.34,7.998L15.34,8.002C15.342,6.231 14.718,4.516 13.577,3.161L11.282,5.093ZM12.34,8C12.34,9.204 11.417,10.312 10.008,11.252C9.349,11.691 8.679,12.027 8.168,12.254C7.915,12.367 7.706,12.451 7.564,12.505C7.493,12.532 7.439,12.551 7.405,12.563C7.388,12.569 7.376,12.574 7.369,12.576C7.366,12.577 7.364,12.578 7.363,12.578C7.363,12.578 7.363,12.578 7.363,12.578C7.363,12.578 7.364,12.578 7.364,12.578C7.364,12.578 7.364,12.577 7.365,12.577C7.365,12.577 7.365,12.577 7.84,14C8.314,15.423 8.314,15.423 8.315,15.423C8.315,15.423 8.316,15.423 8.316,15.423C8.317,15.422 8.318,15.422 8.318,15.422C8.32,15.421 8.323,15.42 8.325,15.419C8.33,15.418 8.337,15.415 8.345,15.413C8.361,15.407 8.383,15.4 8.41,15.39C8.463,15.371 8.538,15.344 8.631,15.308C8.817,15.237 9.077,15.133 9.386,14.996C10.001,14.723 10.831,14.309 11.672,13.748C13.262,12.688 15.34,10.796 15.34,8L12.34,8Z" fill="#010101"/>
</svg>
