<svg width="46" height="42" viewBox="0 0 46 42" fill="none" xmlns="http://www.w3.org/2000/svg" xmlns:xlink="http://www.w3.org/1999/xlink">
<path d="M40.68,5.22L39.266,6.634L39.266,6.634L40.68,5.22ZM32.9,1.996L32.9,3.996L32.9,1.996ZM25.12,5.22L26.534,6.634L26.535,6.634L25.12,5.22ZM23,7.34L21.586,8.754C22.367,9.535 23.633,9.535 24.414,8.754L23,7.34ZM20.88,5.22L19.466,6.634L19.466,6.634L20.88,5.22ZM5.32,20.78L3.906,22.194L3.906,22.194L5.32,20.78ZM7.44,22.9L6.026,24.314L7.44,22.9ZM23,38.46L21.586,39.874C22.367,40.655 23.633,40.655 24.414,39.874L23,38.46ZM40.68,20.78L39.266,19.365L39.266,19.366L40.68,20.78ZM42.095,3.806C40.887,2.598 39.454,1.64 37.876,0.986L36.345,4.682C37.438,5.134 38.43,5.797 39.266,6.634L42.095,3.806ZM37.876,0.986C36.299,0.333 34.608,-0.004 32.9,-0.004L32.9,3.996C34.082,3.996 35.253,4.229 36.345,4.682L37.876,0.986ZM32.9,-0.004C31.192,-0.004 29.502,0.333 27.924,0.986L29.455,4.682C30.547,4.229 31.718,3.996 32.9,3.996L32.9,-0.004ZM27.924,0.986C26.346,1.64 24.913,2.598 23.706,3.806L26.535,6.634C27.371,5.797 28.363,5.134 29.455,4.682L27.924,0.986ZM23.706,3.806L21.586,5.926L24.414,8.754L26.534,6.634L23.706,3.806ZM24.414,5.926L22.294,3.806L19.466,6.634L21.586,8.754L24.414,5.926ZM22.294,3.806C19.856,1.367 16.549,-0.003 13.1,-0.003L13.1,3.997C15.488,3.997 17.778,4.946 19.466,6.634L22.294,3.806ZM13.1,-0.003C9.652,-0.003 6.344,1.367 3.906,3.806L6.734,6.634C8.423,4.946 10.713,3.997 13.1,3.997L13.1,-0.003ZM3.906,3.806C1.468,6.244 0.098,9.551 0.098,13L4.098,13C4.098,10.612 5.046,8.322 6.734,6.634L3.906,3.806ZM0.098,13C0.098,16.448 1.468,19.755 3.906,22.194L6.734,19.366C5.046,17.677 4.098,15.387 4.098,13L0.098,13ZM3.906,22.194L6.026,24.314L8.854,21.486L6.734,19.366L3.906,22.194ZM6.026,24.314L21.586,39.874L24.414,37.045L8.854,21.486L6.026,24.314ZM24.414,39.874L39.974,24.314L37.146,21.486L21.586,37.045L24.414,39.874ZM39.974,24.314L42.094,22.194L39.266,19.366L37.146,21.486L39.974,24.314ZM42.094,22.194C43.302,20.987 44.26,19.554 44.914,17.976L41.218,16.445C40.766,17.537 40.102,18.529 39.266,19.365L42.094,22.194ZM44.914,17.976C45.567,16.398 45.904,14.707 45.904,13L41.904,13C41.904,14.182 41.671,15.353 41.218,16.445L44.914,17.976ZM45.904,13C45.904,11.292 45.567,9.601 44.914,8.023L41.218,9.555C41.671,10.647 41.904,11.817 41.904,13L45.904,13ZM44.914,8.023C44.26,6.446 43.302,5.012 42.094,3.805L39.266,6.634C40.102,7.47 40.766,8.462 41.218,9.555L44.914,8.023Z" fill="#010101"/>
</svg>
