<svg width="28" height="36" viewBox="0 0 28 36" fill="none" xmlns="http://www.w3.org/2000/svg" xmlns:xlink="http://www.w3.org/1999/xlink">
<path d="M25.319,15.4C24.859,14.8 24.299,14.28 23.779,13.76C22.439,12.56 20.919,11.7 19.639,10.44C16.659,7.52 15.999,2.7 17.899,-1C15.999,-0.54 14.339,0.5 12.919,1.64C7.739,5.8 5.699,13.14 8.139,19.44C8.219,19.64 8.299,19.84 8.299,20.1C8.299,20.54 7.999,20.94 7.599,21.1C7.139,21.3 6.659,21.18 6.279,20.86C6.166,20.765 6.071,20.65 5.999,20.52C3.739,17.66 3.379,13.56 4.899,10.28C1.559,13 -0.261,17.6 -0.001,21.94C0.119,22.94 0.239,23.94 0.579,24.94C0.859,26.14 1.399,27.34 1.999,28.4C4.159,31.86 7.899,34.34 11.919,34.84C16.199,35.38 20.779,34.6 24.059,31.64C27.719,28.32 28.999,23 27.119,18.44L26.859,17.92C26.439,17 25.319,15.4 25.319,15.4ZM18.999,28C18.439,28.48 17.519,29 16.799,29.2C14.559,30 12.319,28.88 10.999,27.56C13.379,27 14.799,25.24 15.219,23.46C15.559,21.86 14.919,20.54 14.659,19C14.419,17.52 14.459,16.26 14.999,14.88C15.379,15.64 15.779,16.4 16.259,17C17.799,19 20.219,19.88 20.739,22.6C20.819,22.88 20.859,23.16 20.859,23.46C20.919,25.1 20.199,26.9 18.999,28Z" fill="#FF1515"/>
</svg>
