<svg width="10" height="16" viewBox="0 0 10 16" fill="none" xmlns="http://www.w3.org/2000/svg" xmlns:xlink="http://www.w3.org/1999/xlink">
<path d="M6.5,14C6.5,14.828 7.172,15.5 8,15.5C8.828,15.5 9.5,14.828 9.5,14L6.5,14ZM8,10L9.5,10L9.5,9.999L8,10ZM2.375,0.807C1.573,0.6 0.755,1.083 0.548,1.885C0.341,2.687 0.823,3.505 1.625,3.712L2.375,0.807ZM9.5,14L9.5,10L6.5,10L6.5,14L9.5,14ZM9.5,9.999C9.498,7.894 8.798,5.849 7.508,4.185L5.137,6.023C6.02,7.162 6.499,8.561 6.5,10.001L9.5,9.999ZM7.508,4.185C6.219,2.522 4.413,1.334 2.375,0.807L1.625,3.712C3.019,4.072 4.255,4.885 5.137,6.023L7.508,4.185Z" fill="#010101"/>
</svg>
