<svg width="44" height="38" viewBox="0 0 44 38" fill="none" xmlns="http://www.w3.org/2000/svg" xmlns:xlink="http://www.w3.org/1999/xlink">
<path d="M38,1L38,-0.5L38,1ZM6,1L6,-0.5L6,1ZM2,5L0.5,5L2,5ZM2,25L0.5,25L2,25ZM26,30.5C26.828,30.5 27.5,29.828 27.5,29C27.5,28.172 26.828,27.5 26,27.5L26,30.5ZM10,7.5C9.172,7.5 8.5,8.172 8.5,9C8.5,9.828 9.172,10.5 10,10.5L10,7.5ZM40.5,17C40.5,17.828 41.172,18.5 42,18.5C42.828,18.5 43.5,17.828 43.5,17L40.5,17ZM42,29.2L43.5,29.2L42,29.2ZM42,33.8L43.5,33.8L42,33.8ZM40.8,35L40.8,36.5L40.8,35ZM33.2,35L33.2,36.5L33.2,35ZM32,33.8L30.5,33.8L32,33.8ZM33.2,28L33.2,26.5L33.2,28ZM43.5,9L43.5,5L40.5,5L40.5,9L43.5,9ZM43.5,5C43.5,3.541 42.921,2.142 41.889,1.111L39.768,3.232C40.237,3.701 40.5,4.337 40.5,5L43.5,5ZM41.889,1.111C40.858,0.079 39.459,-0.5 38,-0.5L38,2.5C38.663,2.5 39.299,2.763 39.768,3.232L41.889,1.111ZM38,-0.5L6,-0.5L6,2.5L38,2.5L38,-0.5ZM6,-0.5C4.541,-0.5 3.142,0.079 2.111,1.111L4.232,3.232C4.701,2.763 5.337,2.5 6,2.5L6,-0.5ZM2.111,1.111C1.079,2.142 0.5,3.541 0.5,5L3.5,5C3.5,4.337 3.763,3.701 4.232,3.232L2.111,1.111ZM0.5,5L0.5,25L3.5,25L3.5,5L0.5,5ZM0.5,25C0.5,26.459 1.079,27.858 2.111,28.889L4.232,26.768C3.763,26.299 3.5,25.663 3.5,25L0.5,25ZM2.111,28.889C3.142,29.921 4.541,30.5 6,30.5L6,27.5C5.337,27.5 4.701,27.237 4.232,26.768L2.111,28.889ZM6,30.5L26,30.5L26,27.5L6,27.5L6,30.5ZM42,7.5L10,7.5L10,10.5L42,10.5L42,7.5ZM40.5,9L40.5,17L43.5,17L43.5,9L40.5,9ZM40.334,29.5L40.8,29.5L40.8,26.5L40.334,26.5L40.334,29.5ZM40.8,29.5C40.72,29.5 40.644,29.468 40.588,29.412L42.709,27.291C42.203,26.784 41.516,26.5 40.8,26.5L40.8,29.5ZM40.588,29.412C40.532,29.356 40.5,29.28 40.5,29.2L43.5,29.2C43.5,28.484 43.216,27.797 42.709,27.291L40.588,29.412ZM40.5,29.2L40.5,33.8L43.5,33.8L43.5,29.2L40.5,29.2ZM40.5,33.8C40.5,33.72 40.532,33.644 40.588,33.588L42.709,35.709C43.216,35.203 43.5,34.516 43.5,33.8L40.5,33.8ZM40.588,33.588C40.644,33.532 40.72,33.5 40.8,33.5L40.8,36.5C41.516,36.5 42.203,36.216 42.709,35.709L40.588,33.588ZM40.8,33.5L33.2,33.5L33.2,36.5L40.8,36.5L40.8,33.5ZM33.2,33.5C33.28,33.5 33.356,33.532 33.412,33.588L31.291,35.709C31.797,36.216 32.484,36.5 33.2,36.5L33.2,33.5ZM33.412,33.588C33.468,33.644 33.5,33.72 33.5,33.8L30.5,33.8C30.5,34.516 30.784,35.203 31.291,35.709L33.412,33.588ZM33.5,33.8L33.5,29.2L30.5,29.2L30.5,33.8L33.5,33.8ZM33.5,29.2C33.5,29.28 33.468,29.356 33.412,29.412L31.291,27.291C30.784,27.797 30.5,28.484 30.5,29.2L33.5,29.2ZM33.412,29.412C33.356,29.468 33.28,29.5 33.2,29.5L33.2,26.5C32.484,26.5 31.797,26.784 31.291,27.291L33.412,29.412ZM33.2,29.5L33.666,29.5L33.666,26.5L33.2,26.5L33.2,29.5ZM41.834,28L41.834,24.5L38.834,24.5L38.834,28L41.834,28ZM41.834,24.5C41.834,23.691 41.614,22.5 40.904,21.464C40.139,20.349 38.854,19.5 37,19.5L37,22.5C37.812,22.5 38.194,22.818 38.43,23.161C38.72,23.584 38.834,24.143 38.834,24.5L41.834,24.5ZM37,19.5C35.146,19.5 33.861,20.349 33.096,21.464C32.386,22.5 32.166,23.691 32.166,24.5L35.166,24.5C35.166,24.143 35.28,23.584 35.57,23.161C35.806,22.818 36.188,22.5 37,22.5L37,19.5ZM32.166,24.5L32.166,28L35.166,28L35.166,24.5L32.166,24.5ZM40.334,26.5L33.666,26.5L33.666,29.5L40.334,29.5L40.334,26.5Z" fill="#FFFFFF"/>
</svg>
