<svg width="318" height="156" viewBox="0 0 318 156" fill="none" xmlns="http://www.w3.org/2000/svg" xmlns:xlink="http://www.w3.org/1999/xlink">
<path d="M0,0L0,131L10,131L10,0L0,0ZM25,156L91,156L91,146L25,146L25,156ZM116,131L116,91L106,91L106,131L116,131ZM131,76L146,76L146,66L131,66L131,76ZM146,76L293,76L293,66L146,66L146,76ZM318,51L318,0L308,0L308,51L318,51ZM293,76C306.808,76 318,64.807 318,51L308,51C308,59.284 301.284,66 293,66L293,76ZM116,91C116,82.716 122.716,76 131,76L131,66C117.193,66 106,77.193 106,91L116,91ZM91,156C104.807,156 116,144.807 116,131L106,131C106,139.284 99.284,146 91,146L91,156ZM0,131C0,144.807 11.193,156 25,156L25,146C16.716,146 10,139.284 10,131L0,131Z" fill="#F2F2F2"/>
</svg>
