<svg width="50" height="50" viewBox="0 0 50 50" fill="none" xmlns="http://www.w3.org/2000/svg" xmlns:xlink="http://www.w3.org/1999/xlink">
<path d="M1,25C1,18.635 3.529,12.53 8.029,8.029C12.53,3.529 18.635,1 25,1C31.365,1 37.47,3.529 41.971,8.029C46.471,12.53 49,18.635 49,25C49,31.365 46.471,37.47 41.971,41.971C37.47,46.471 31.365,49 25,49C18.635,49 12.53,46.471 8.029,41.971C3.529,37.47 1,31.365 1,25ZM23.63,35.272L37.448,17.998L34.952,16.002L23.17,30.725L14.824,23.771L12.776,26.229L23.63,35.272Z" clip-rule="evenodd" fill-rule="evenodd" fill="#FF1515"/>
</svg>
