<svg width="38" height="36" viewBox="0 0 38 36" fill="none" xmlns="http://www.w3.org/2000/svg" xmlns:xlink="http://www.w3.org/1999/xlink">
<path d="M0.456,19.782C0.242,19.931 0.091,20.156 0.032,20.411C-0.027,20.665 0.011,20.933 0.138,21.162L2.73,25.65C2.996,26.11 3.606,26.3 4.084,26.066L12,22.232L12,36L16,36L16,20.292L24.142,16.346L18.902,7.266L0.456,19.782ZM34.914,4.074C33.837,2.21 32.063,0.85 29.983,0.294C27.903,-0.263 25.687,0.029 23.822,1.106C22.002,2.156 20.806,3.824 20.22,5.684L26.172,15.996C28.074,16.42 30.118,16.216 31.942,15.166C33.807,14.089 35.168,12.315 35.726,10.235C36.283,8.155 35.991,5.939 34.914,4.074Z" fill="#010101"/>
</svg>
