<svg width="48" height="44" viewBox="0 0 48 44" fill="none" xmlns="http://www.w3.org/2000/svg" xmlns:xlink="http://www.w3.org/1999/xlink">
<path d="M29.897,22.1C29.633,22.1 29.358,22.056 29.094,21.968C28.598,21.81 28.166,21.497 27.861,21.076C27.556,20.654 27.395,20.145 27.4,19.625L27.4,16.534C24.914,16.138 23,13.971 23,11.375L23,4.225C23,1.343 25.343,-1 28.225,-1L40.875,-1C43.757,-1 46.1,1.343 46.1,4.225L46.1,11.375C46.1,14.257 43.757,16.6 40.875,16.6L35.243,16.6L31.855,21.11C31.371,21.748 30.656,22.1 29.897,22.1ZM28.225,1.75C26.861,1.75 25.75,2.861 25.75,4.225L25.75,11.375C25.75,12.739 26.861,13.85 28.225,13.85L30.15,13.85L30.15,18.8L33.868,13.85L40.886,13.85C42.25,13.85 43.361,12.739 43.361,11.375L43.361,4.225C43.361,2.861 42.25,1.75 40.886,1.75L28.225,1.75ZM14.2,24.85C9.646,24.85 5.95,21.154 5.95,16.6C5.95,12.046 9.646,8.35 14.2,8.35C18.754,8.35 22.45,12.046 22.45,16.6C22.45,21.154 18.754,24.85 14.2,24.85ZM14.2,11.1C11.164,11.1 8.7,13.564 8.7,16.6C8.7,19.636 11.164,22.1 14.2,22.1C17.236,22.1 19.7,19.636 19.7,16.6C19.7,13.564 17.236,11.1 14.2,11.1ZM-0.1,32.869C-0.1,32.968 0.065,43 14.2,43C28.335,43 28.5,32.968 28.5,32.869L28.5,31.725C28.5,29.448 26.652,27.6 24.375,27.6L4.025,27.6C1.748,27.6 -0.1,29.448 -0.1,31.725L-0.1,32.869ZM2.65,31.725C2.65,30.966 3.266,30.35 4.025,30.35L24.375,30.35C25.134,30.35 25.75,30.966 25.75,31.725L25.75,32.858C25.75,33.155 25.508,40.25 14.2,40.25C2.892,40.25 2.65,33.155 2.65,32.869L2.65,31.725Z" fill="#010101"/>
</svg>
