<svg width="40" height="40" viewBox="0 0 40 40" fill="none" xmlns="http://www.w3.org/2000/svg" xmlns:xlink="http://www.w3.org/1999/xlink">
<path d="M-1,18.999C-0.999,14.615 0.443,10.352 3.104,6.867C5.765,3.381 9.498,0.867 13.727,-0.289C17.957,-1.445 22.449,-1.178 26.513,0.469C30.577,2.116 33.986,5.053 36.217,8.827C38.449,12.602 39.377,17.006 38.861,21.36C38.344,25.714 36.411,29.778 33.359,32.926C30.307,36.074 26.304,38.132 21.968,38.783C17.632,39.433 13.202,38.641 9.36,36.527L1.584,38.895C1.237,39.001 0.868,39.01 0.516,38.923C0.165,38.835 -0.157,38.653 -0.413,38.396C-0.669,38.14 -0.851,37.819 -0.939,37.467C-1.027,37.115 -1.018,36.746 -0.912,36.399L1.456,28.611C-0.157,25.665 -1.002,22.359 -1,18.999ZM11,16.999C11,17.53 11.211,18.038 11.586,18.414C11.961,18.789 12.47,18.999 13,18.999L25,18.999C25.53,18.999 26.039,18.789 26.414,18.414C26.789,18.038 27,17.53 27,16.999C27,16.469 26.789,15.96 26.414,15.585C26.039,15.21 25.53,14.999 25,14.999L13,14.999C12.47,14.999 11.961,15.21 11.586,15.585C11.211,15.96 11,16.469 11,16.999ZM13,22.999C12.47,22.999 11.961,23.21 11.586,23.585C11.211,23.96 11,24.469 11,24.999C11,25.53 11.211,26.039 11.586,26.414C11.961,26.789 12.47,26.999 13,26.999L21,26.999C21.53,26.999 22.039,26.789 22.414,26.414C22.789,26.039 23,25.53 23,24.999C23,24.469 22.789,23.96 22.414,23.585C22.039,23.21 21.53,22.999 21,22.999L13,22.999Z" fill="#FFFFFF"/>
</svg>
