<svg width="44" height="44" viewBox="0 0 44 44" fill="none" xmlns="http://www.w3.org/2000/svg" xmlns:xlink="http://www.w3.org/1999/xlink">
<path d="M40.5,22C40.5,32.217 32.217,40.5 22,40.5L22,43.5C33.874,43.5 43.5,33.874 43.5,22L40.5,22ZM22,40.5C11.783,40.5 3.5,32.217 3.5,22L0.5,22C0.5,33.874 10.126,43.5 22,43.5L22,40.5ZM3.5,22C3.5,11.783 11.783,3.5 22,3.5L22,0.5C10.126,0.5 0.5,10.126 0.5,22L3.5,22ZM22,3.5C32.217,3.5 40.5,11.783 40.5,22L43.5,22C43.5,10.126 33.874,0.5 22,0.5L22,3.5Z" fill="#010101"/>
</svg>
