<svg width="48" height="48" viewBox="0 0 48 48" fill="none" xmlns="http://www.w3.org/2000/svg" xmlns:xlink="http://www.w3.org/1999/xlink">
<path d="M0,24C0,17.635 2.529,11.53 7.029,7.029C11.53,2.529 17.635,0 24,0C30.365,0 36.47,2.529 40.971,7.029C45.471,11.53 48,17.635 48,24C48,30.365 45.471,36.47 40.971,40.971C36.47,45.471 30.365,48 24,48C17.635,48 11.53,45.471 7.029,40.971C2.529,36.47 0,30.365 0,24ZM22.63,34.272L36.448,16.998L33.952,15.002L22.17,29.725L13.824,22.771L11.776,25.229L22.63,34.272Z" clip-rule="evenodd" fill-rule="evenodd" fill="#FF1515"/>
</svg>
