<svg width="40" height="40" viewBox="0 0 40 40" fill="none" xmlns="http://www.w3.org/2000/svg" xmlns:xlink="http://www.w3.org/1999/xlink">
<path d="M20,0C31.046,0 40,8.954 40,20C40,31.046 31.046,40 20,40C8.954,40 0,31.046 0,20C0,8.954 8.954,0 20,0ZM20,2.79C15.436,2.79 11.058,4.603 7.831,7.831C4.603,11.058 2.79,15.436 2.79,20C2.79,24.564 4.603,28.942 7.831,32.169C11.058,35.397 15.436,37.21 20,37.21C24.564,37.21 28.942,35.397 32.169,32.169C35.397,28.942 37.21,24.564 37.21,20C37.21,15.436 35.397,11.058 32.169,7.831C28.942,4.603 24.564,2.79 20,2.79ZM18.14,11.162C18.91,11.162 19.534,11.788 19.534,12.558L19.534,22.326L29.302,22.326C29.663,22.34 30.004,22.493 30.255,22.753C30.505,23.013 30.645,23.36 30.645,23.721C30.645,24.082 30.505,24.429 30.255,24.689C30.004,24.949 29.663,25.102 29.302,25.116L18.14,25.116C17.77,25.116 17.415,24.969 17.153,24.707C16.891,24.445 16.744,24.09 16.744,23.72L16.744,12.56C16.744,11.788 17.368,11.162 18.14,11.162Z" fill="#010101"/>
</svg>
