<svg width="34" height="16" viewBox="0 0 34 16" fill="none" xmlns="http://www.w3.org/2000/svg" xmlns:xlink="http://www.w3.org/1999/xlink">
<path d="M30.5,14C30.5,14.828 31.172,15.5 32,15.5C32.828,15.5 33.5,14.828 33.5,14L30.5,14ZM32,10L33.5,10L32,10ZM24,2L24,0.5L24,2ZM10,2L10,0.5L10,2ZM2,10L0.5,10L2,10ZM0.5,14C0.5,14.828 1.172,15.5 2,15.5C2.828,15.5 3.5,14.828 3.5,14L0.5,14ZM33.5,14L33.5,10L30.5,10L30.5,14L33.5,14ZM33.5,10C33.5,7.48 32.499,5.064 30.718,3.282L28.596,5.404C29.815,6.623 30.5,8.276 30.5,10L33.5,10ZM30.718,3.282C28.936,1.501 26.52,0.5 24,0.5L24,3.5C25.724,3.5 27.377,4.185 28.596,5.404L30.718,3.282ZM24,0.5L10,0.5L10,3.5L24,3.5L24,0.5ZM10,0.5C7.48,0.5 5.064,1.501 3.282,3.282L5.404,5.404C6.623,4.185 8.276,3.5 10,3.5L10,0.5ZM3.282,3.282C1.501,5.064 0.5,7.48 0.5,10L3.5,10C3.5,8.276 4.185,6.623 5.404,5.404L3.282,3.282ZM0.5,10L0.5,14L3.5,14L3.5,10L0.5,10Z" fill="#010101"/>
</svg>
