<svg width="48" height="46" viewBox="0 0 48 46" fill="none" xmlns="http://www.w3.org/2000/svg" xmlns:xlink="http://www.w3.org/1999/xlink">
<path d="M32.03,27.558C32.03,26.944 31.76,26.607 31.342,26.366C30.922,26.136 30.414,26.107 29.722,26.107L26.636,26.107L26.636,31.512L27.986,31.512L27.986,29.543L29.426,29.543C29.906,29.543 30.206,29.589 30.382,29.783C30.622,30.032 30.59,30.511 30.59,30.837L30.59,31.508L31.91,31.508L31.91,30.444C31.906,29.965 31.876,29.724 31.694,29.455C31.521,29.251 31.293,29.096 31.034,29.007L31.074,28.992C31.366,28.874 31.615,28.674 31.786,28.418C31.957,28.163 32.044,27.863 32.034,27.56L32.03,27.558ZM30.29,28.338L30.234,28.334C30.054,28.436 29.844,28.445 29.574,28.445L27.954,28.445L27.954,27.238L29.602,27.238C29.842,27.238 30.082,27.238 30.262,27.334C30.357,27.377 30.436,27.447 30.489,27.534C30.543,27.621 30.568,27.722 30.562,27.822C30.562,28.052 30.472,28.234 30.294,28.34L30.29,28.338ZM40.594,30.354L38,30.354L38,31.504L40.608,31.504C41.96,31.504 42.708,30.971 42.708,29.81C42.708,29.273 42.576,28.951 42.334,28.694C42.028,28.439 41.55,28.324 40.874,28.298L40.122,28.269C39.914,28.269 39.762,28.269 39.612,28.211C39.523,28.185 39.445,28.132 39.391,28.059C39.336,27.986 39.309,27.898 39.312,27.809C39.312,27.636 39.346,27.491 39.492,27.406C39.658,27.319 39.847,27.279 40.036,27.291L42.496,27.291L42.496,26.138L39.796,26.138C38.388,26.138 37.88,26.975 37.88,27.748C37.88,29.473 39.432,29.386 40.694,29.415C40.902,29.415 41.054,29.444 41.144,29.53C41.236,29.588 41.308,29.733 41.308,29.875C41.308,30.023 41.238,30.163 41.148,30.22C41.028,30.322 40.848,30.354 40.594,30.354ZM0,0L0,19.351L1.62,15.755L5.12,15.755L5.57,16.644L5.57,15.755L9.656,15.755L10.556,17.71L11.43,15.768L24.434,15.768C25.024,15.768 25.554,15.878 25.946,16.221L25.946,15.78L29.52,15.78L29.52,16.221C30.134,15.895 30.892,15.78 31.76,15.78L36.972,15.78L37.452,16.673L37.452,15.78L41.288,15.78L41.796,16.671L41.796,15.778L45.512,15.778L45.512,23.345L41.74,23.345L41.02,22.195L41.02,23.316L36.314,23.316L35.802,22.109L34.636,22.109L34.096,23.286L31.67,23.286C30.71,23.286 29.99,23.086 29.51,22.826L29.51,23.286L23.73,23.286L23.73,21.591C23.73,21.361 23.67,21.361 23.52,21.333L23.31,21.333L23.31,23.318L12.134,23.318L12.134,22.398L11.714,23.318L9.38,23.318L8.976,22.398L8.976,23.289L4.47,23.289L3.958,22.093L2.8,22.093L2.288,23.289L0,23.289L0,46L47.572,46L47.572,32.376C47.032,32.635 46.346,32.721 45.626,32.721L42.18,32.721L42.18,32.233C41.76,32.549 41.04,32.721 40.352,32.721L29.42,32.721L29.42,30.996C29.42,30.766 29.384,30.766 29.18,30.766L29.03,30.766L29.03,32.725L25.43,32.725L25.43,30.682C24.834,30.943 24.144,30.969 23.574,30.943L23.146,30.943L23.146,32.696L18.786,32.696L17.706,31.514L16.566,32.664L9.484,32.664L9.484,25.131L16.704,25.131L17.74,26.285L18.848,25.135L23.672,25.135C24.232,25.135 25.152,25.193 25.556,25.566L25.556,25.106L29.91,25.106C30.314,25.106 31.198,25.193 31.716,25.538L31.716,25.078L38.246,25.078L38.246,25.538C38.572,25.223 39.262,25.078 39.852,25.078L43.632,25.078L43.632,25.538C44.02,25.25 44.56,25.078 45.312,25.078L47.664,25.078L47.664,0L0,0ZM42.312,28.664C42.32,28.673 42.326,28.687 42.334,28.694C42.354,28.714 42.38,28.714 42.396,28.733L42.312,28.664ZM47.656,25.074L47.786,25.074L47.786,26.138L47.656,26.138L47.656,25.074ZM47.73,28.807L47.73,28.798C47.67,28.75 47.638,28.706 47.58,28.664C47.28,28.37 46.8,28.252 46.052,28.232L45.332,28.209C45.15,28.217 44.968,28.198 44.792,28.152C44.703,28.126 44.625,28.072 44.571,28C44.516,27.927 44.489,27.839 44.492,27.749C44.492,27.577 44.552,27.443 44.672,27.358C44.824,27.272 44.972,27.263 45.212,27.263L47.658,27.263L47.658,26.136L45.092,26.136C43.712,26.136 43.172,26.973 43.172,27.746C43.172,29.471 44.732,29.384 45.992,29.413C46.2,29.413 46.352,29.442 46.44,29.528C46.532,29.586 46.592,29.731 46.592,29.873C46.592,30.007 46.524,30.138 46.412,30.218C46.322,30.325 46.14,30.352 45.872,30.352L43.296,30.352L43.296,31.512L45.87,31.512C46.71,31.512 47.338,31.286 47.67,30.822L47.73,30.822C47.91,30.565 48,30.247 48,29.819C48,29.359 47.91,29.072 47.73,28.811L47.73,28.807ZM37.194,27.232L37.194,26.115L32.724,26.115L32.724,31.545L37.194,31.545L37.194,30.423L34.054,30.423L34.054,29.331L37.12,29.331L37.12,28.211L34.056,28.211L34.056,27.234M27.02,16.842L28.39,16.842L28.39,22.233L27.022,22.233L27.02,16.842ZM26.252,18.291L26.238,18.302C26.238,17.7 25.978,17.344 25.558,17.106C25.124,16.867 24.618,16.847 23.938,16.847L20.86,16.847L20.86,22.252L22.208,22.252L22.208,20.271L23.648,20.271C24.128,20.271 24.428,20.328 24.622,20.501C24.866,20.761 24.836,21.225 24.836,21.551L24.836,22.229L26.19,22.229L26.19,21.17C26.19,20.69 26.158,20.451 25.97,20.181C25.795,19.977 25.568,19.82 25.31,19.726C25.654,19.592 26.254,19.151 26.254,18.289L26.252,18.291ZM24.542,19.05L24.512,19.05C24.332,19.153 24.122,19.157 23.852,19.157L22.2,19.157L22.2,17.963L23.85,17.963C24.09,17.963 24.33,17.971 24.51,18.059C24.69,18.136 24.81,18.304 24.81,18.538C24.81,18.772 24.716,18.96 24.542,19.048L24.542,19.05ZM31.84,17.965L33.104,17.965L33.104,16.815L31.816,16.815C30.888,16.815 30.208,17.016 29.776,17.447C29.204,18.022 29.052,18.77 29.052,19.575C29.052,20.556 29.298,21.171 29.772,21.633C30.236,22.09 31.062,22.228 31.712,22.228L33.272,22.228L33.782,21.026L36.562,21.026L37.086,22.228L39.806,22.228L39.806,18.183L42.35,22.228L44.25,22.228L44.254,22.231L44.254,16.84L42.886,16.84L42.886,20.602L40.526,16.846L38.486,16.846L38.486,21.85L36.22,16.759L34.212,16.759L32.326,21.014L31.726,21.014C31.372,21.014 31.002,20.957 30.79,20.757C30.54,20.47 30.418,20.067 30.418,19.489C30.418,18.942 30.578,18.511 30.806,18.281C31.072,18.022 31.35,17.965 31.838,17.965L31.84,17.965ZM35.176,17.758L36.104,19.901L36.104,19.905L34.244,19.905L35.176,17.758ZM4.76,21.026L5.268,22.229L8,22.229L8,18.003L9.944,22.229L11.112,22.229L13.058,18.009L13.088,22.229L14.468,22.229L14.468,16.844L12.236,16.844L10.622,20.493L8.87,16.842L6.686,16.842L6.686,21.946L4.41,16.842L2.416,16.842L0.02,22.228L1.46,22.228L1.98,21.028L4.76,21.026ZM3.384,17.758L4.304,19.901L4.298,19.905L2.468,19.905L3.382,17.758L3.384,17.758ZM23.712,26.105L19.428,26.105L17.728,27.874L16.078,26.107L10.692,26.107L10.692,31.512L16,31.512L17.71,29.726L19.358,31.508L21.962,31.508L21.962,29.706L23.638,29.706C24.838,29.706 25.978,29.392 25.978,27.895L25.966,27.889C25.966,26.394 24.77,26.107 23.71,26.107L23.712,26.105ZM15.34,30.385L15.312,30.381L12.04,30.381L12.04,29.313L14.98,29.313L14.98,28.213L12.04,28.213L12.04,27.236L15.4,27.236L16.866,28.807L15.338,30.387L15.34,30.385ZM20.624,31.017L18.564,28.819L20.624,26.695L20.624,31.014L20.624,31.017ZM23.73,28.606L21.96,28.606L21.96,27.232L23.73,27.232C24.21,27.232 24.57,27.42 24.57,27.891C24.57,28.357 24.27,28.604 23.73,28.604L23.73,28.606ZM19.934,17.965L19.934,16.842L15.46,16.842L15.46,22.233L19.934,22.233L19.934,21.122L16.8,21.122L16.8,20.041L19.854,20.041L19.854,18.937L16.8,18.937L16.8,17.965Z" fill="#0075FF"/>
</svg>
