<svg width="20" height="12" viewBox="0 0 20 12" fill="none" xmlns="http://www.w3.org/2000/svg" xmlns:xlink="http://www.w3.org/1999/xlink">
<path d="M1.502,-0.252C0.948,-0.805 0.052,-0.805 -0.502,-0.252C-1.055,0.302 -1.055,1.198 -0.502,1.752L1.502,-0.252ZM9,9.25L7.998,10.252C8.551,10.805 9.449,10.805 10.002,10.252L9,9.25ZM18.502,1.752C19.055,1.198 19.055,0.302 18.502,-0.252C17.949,-0.805 17.051,-0.805 16.498,-0.252L18.502,1.752ZM-0.502,1.752L7.998,10.252L10.002,8.248L1.502,-0.252L-0.502,1.752ZM10.002,10.252L18.502,1.752L16.498,-0.252L7.998,8.248L10.002,10.252Z" fill="#010101"/>
</svg>
