<svg width="44" height="46" viewBox="0 0 44 46" fill="none" xmlns="http://www.w3.org/2000/svg" xmlns:xlink="http://www.w3.org/1999/xlink">
<path d="M40,22.25C40,32.191 31.941,40.25 22,40.25L22,44.25C34.15,44.25 44,34.4 44,22.25L40,22.25ZM22,40.25C12.059,40.25 4,32.191 4,22.25L0,22.25C0,34.4 9.85,44.25 22,44.25L22,40.25ZM4,22.25C4,12.309 12.059,4.25 22,4.25L22,0.25C9.85,0.25 0,10.1 0,22.25L4,22.25ZM22,4.25C31.941,4.25 40,12.309 40,22.25L44,22.25C44,10.1 34.15,0.25 22,0.25L22,4.25Z" fill="#969696"/>
</svg>
