<svg width="24" height="18" viewBox="0 0 24 18" fill="none" xmlns="http://www.w3.org/2000/svg" xmlns:xlink="http://www.w3.org/1999/xlink">
<path d="M23.264,2.9C23.761,2.403 23.761,1.597 23.264,1.1C22.767,0.603 21.961,0.603 21.464,1.1L23.264,2.9ZM8.364,16L7.464,16.9C7.961,17.397 8.767,17.397 9.264,16.9L8.364,16ZM2.9,8.736C2.403,8.239 1.597,8.239 1.1,8.736C0.603,9.233 0.603,10.039 1.1,10.536L2.9,8.736ZM21.464,1.1L7.464,15.1L9.264,16.9L23.264,2.9L21.464,1.1ZM9.264,15.1L2.9,8.736L1.1,10.536L7.464,16.9L9.264,15.1Z" fill="#010101"/>
</svg>
