<svg width="82" height="60" viewBox="0 0 82 60" fill="none" xmlns="http://www.w3.org/2000/svg" xmlns:xlink="http://www.w3.org/1999/xlink">
<path d="M80.457,7.015C82.227,5.245 82.227,2.376 80.457,0.606C78.688,-1.163 75.818,-1.163 74.049,0.606L80.457,7.015ZM27.405,53.658L24.201,56.863C25.971,58.632 28.84,58.632 30.61,56.863L27.405,53.658ZM7.952,27.796C6.182,26.026 3.313,26.026 1.543,27.796C-0.227,29.566 -0.227,32.435 1.543,34.205L7.952,27.796ZM74.049,0.606L24.201,50.454L30.61,56.863L80.457,7.015L74.049,0.606ZM30.61,50.454L7.952,27.796L1.543,34.205L24.201,56.863L30.61,50.454Z" fill="#00D215"/>
</svg>
