<svg width="48" height="36" viewBox="0 0 48 36" fill="none" xmlns="http://www.w3.org/2000/svg" xmlns:xlink="http://www.w3.org/1999/xlink">
<path d="M37.092,31.471C37.971,30.801 38.14,29.546 37.471,28.668C36.801,27.789 35.546,27.62 34.668,28.289L37.092,31.471ZM24,34L24,36C24.011,36 24.022,36 24.033,36L24,34ZM2,18L0.238,17.054C-0.07,17.627 -0.079,18.313 0.211,18.894L2,18ZM13.334,7.71C14.212,7.039 14.38,5.784 13.71,4.906C13.039,4.028 11.784,3.86 10.906,4.531L13.334,7.71ZM19.344,0.533C18.269,0.784 17.601,1.86 17.853,2.936C18.104,4.011 19.18,4.679 20.256,4.427L19.344,0.533ZM24,2L23.995,4L24,4L24,2ZM46,18L47.764,18.943C48.07,18.371 48.079,17.686 47.789,17.106L46,18ZM40.15,23.092C39.439,23.938 39.547,25.199 40.392,25.91C41.237,26.622 42.499,26.513 43.21,25.668L40.15,23.092ZM29.703,23.603C30.456,22.795 30.412,21.53 29.603,20.777C28.795,20.024 27.53,20.068 26.777,20.877L29.703,23.603ZM21.123,15.223C21.932,14.47 21.976,13.205 21.223,12.397C20.47,11.588 19.205,11.544 18.397,12.297L21.123,15.223ZM34.668,28.289C31.588,30.637 27.839,31.937 23.967,32L24.033,36C28.758,35.923 33.334,34.335 37.092,31.471L34.668,28.289ZM24,32C17.799,32 12.791,28.453 9.209,24.632C7.436,22.741 6.071,20.843 5.149,19.415C4.689,18.703 4.343,18.113 4.114,17.707C4,17.504 3.915,17.347 3.861,17.244C3.834,17.193 3.814,17.155 3.802,17.131C3.796,17.12 3.792,17.112 3.79,17.107C3.789,17.105 3.788,17.104 3.788,17.104C3.788,17.103 3.788,17.104 3.788,17.104C3.788,17.104 3.788,17.104 3.788,17.105C3.789,17.105 3.789,17.106 2,18C0.211,18.894 0.211,18.895 0.212,18.896C0.212,18.896 0.212,18.897 0.213,18.898C0.213,18.899 0.214,18.901 0.215,18.902C0.217,18.906 0.219,18.91 0.222,18.916C0.228,18.927 0.235,18.942 0.245,18.96C0.264,18.997 0.291,19.049 0.326,19.115C0.395,19.247 0.496,19.434 0.628,19.668C0.892,20.137 1.28,20.797 1.789,21.585C2.804,23.157 4.314,25.259 6.291,27.368C10.209,31.547 16.201,36 24,36L24,32ZM3.762,18.946C6.115,14.561 9.379,10.73 13.334,7.71L10.906,4.531C6.498,7.897 2.86,12.167 0.238,17.054L3.762,18.946ZM20.256,4.427C21.482,4.14 22.736,3.997 23.995,4L24.005,0C22.436,-0.004 20.872,0.175 19.344,0.533L20.256,4.427ZM24,4C30.201,4 35.209,7.547 38.791,11.368C40.564,13.259 41.929,15.157 42.851,16.585C43.311,17.297 43.657,17.887 43.886,18.293C44,18.496 44.085,18.653 44.139,18.756C44.166,18.807 44.186,18.845 44.198,18.869C44.204,18.88 44.208,18.888 44.21,18.893C44.211,18.895 44.212,18.896 44.212,18.896C44.212,18.897 44.212,18.897 44.212,18.896C44.212,18.896 44.212,18.896 44.212,18.896C44.211,18.895 44.211,18.894 46,18C47.789,17.106 47.789,17.105 47.788,17.104C47.788,17.104 47.788,17.103 47.787,17.102C47.787,17.101 47.786,17.1 47.785,17.098C47.783,17.094 47.781,17.09 47.778,17.084C47.772,17.073 47.765,17.058 47.755,17.04C47.736,17.003 47.709,16.951 47.674,16.885C47.605,16.753 47.504,16.567 47.372,16.332C47.108,15.863 46.72,15.203 46.211,14.415C45.196,12.843 43.686,10.741 41.709,8.632C37.791,4.453 31.799,0 24,0L24,4ZM44.236,17.057C43.088,19.206 41.718,21.228 40.15,23.092L43.21,25.668C44.958,23.591 46.484,21.337 47.764,18.943L44.236,17.057ZM26.777,20.877C26.411,21.27 25.969,21.585 25.478,21.803L27.106,25.457C28.088,25.02 28.971,24.389 29.703,23.603L26.777,20.877ZM25.478,21.803C24.988,22.022 24.458,22.14 23.921,22.149L23.991,26.148C25.066,26.13 26.125,25.894 27.106,25.457L25.478,21.803ZM23.921,22.149C23.384,22.159 22.85,22.06 22.352,21.859L20.854,25.567C21.85,25.97 22.917,26.167 23.991,26.148L23.921,22.149ZM22.352,21.859C21.854,21.657 21.402,21.358 21.022,20.978L18.193,23.807C18.953,24.566 19.858,25.165 20.854,25.567L22.352,21.859ZM21.022,20.978C20.642,20.598 20.343,20.146 20.141,19.648L16.433,21.146C16.835,22.142 17.434,23.047 18.193,23.807L21.022,20.978ZM20.141,19.648C19.94,19.15 19.841,18.616 19.851,18.079L15.852,18.009C15.833,19.083 16.03,20.15 16.433,21.146L20.141,19.648ZM19.851,18.079C19.86,17.542 19.978,17.012 20.197,16.522L16.543,14.894C16.106,15.875 15.871,16.934 15.852,18.009L19.851,18.079ZM20.197,16.522C20.415,16.031 20.73,15.589 21.123,15.223L18.397,12.297C17.611,13.029 16.98,13.912 16.543,14.894L20.197,16.522Z" fill="#000000"/>
</svg>
