<svg width="40" height="40" viewBox="0 0 40 40" fill="none" xmlns="http://www.w3.org/2000/svg" xmlns:xlink="http://www.w3.org/1999/xlink">
<path d="M20,37L20,35.5L19.998,35.5L20,37ZM2,19L0.5,19L2,19ZM3.88,27.014L5.223,26.346L5.222,26.345L3.88,27.014ZM3.046,33.088L4.495,33.476L4.495,33.476L3.046,33.088ZM5.912,35.954L5.524,34.505L5.524,34.505L5.912,35.954ZM11.986,35.122L11.317,36.465L11.318,36.465L11.986,35.122ZM20,38.5C23.857,38.5 27.627,37.356 30.834,35.214L29.167,32.719C26.453,34.532 23.263,35.5 20,35.5L20,38.5ZM30.834,35.214C34.04,33.071 36.54,30.025 38.016,26.462L35.244,25.314C33.995,28.329 31.88,30.906 29.167,32.719L30.834,35.214ZM38.016,26.462C39.492,22.899 39.878,18.978 39.125,15.196L36.183,15.781C36.82,18.982 36.493,22.299 35.244,25.314L38.016,26.462ZM39.125,15.196C38.373,11.413 36.516,7.939 33.789,5.211L31.667,7.333C33.975,9.64 35.546,12.58 36.183,15.781L39.125,15.196ZM33.789,5.211C31.061,2.484 27.587,0.627 23.804,-0.125L23.219,2.817C26.42,3.454 29.36,5.025 31.667,7.333L33.789,5.211ZM23.804,-0.125C20.022,-0.878 16.101,-0.492 12.538,0.984L13.686,3.756C16.701,2.507 20.018,2.18 23.219,2.817L23.804,-0.125ZM12.538,0.984C8.975,2.46 5.929,4.96 3.786,8.166L6.281,9.833C8.094,7.12 10.671,5.005 13.686,3.756L12.538,0.984ZM3.786,8.166C1.644,11.373 0.5,15.143 0.5,19L3.5,19C3.5,15.737 4.468,12.547 6.281,9.833L3.786,8.166ZM0.5,19C0.5,22.117 1.232,25.066 2.538,27.683L5.222,26.345C4.12,24.134 3.5,21.643 3.5,19L0.5,19ZM2.537,27.682C2.746,28.101 2.765,28.729 2.526,29.704C2.411,30.171 2.255,30.65 2.084,31.161C1.921,31.649 1.732,32.195 1.597,32.7L4.495,33.476C4.6,33.084 4.749,32.65 4.928,32.115C5.1,31.604 5.292,31.019 5.44,30.419C5.724,29.261 5.92,27.749 5.223,26.346L2.537,27.682ZM1.597,32.7C1.423,33.351 1.423,34.036 1.597,34.688L4.495,33.911C4.457,33.769 4.457,33.619 4.495,33.476L1.597,32.7ZM1.597,34.688C1.771,35.339 2.114,35.932 2.591,36.409L4.712,34.288C4.608,34.183 4.533,34.054 4.495,33.911L1.597,34.688ZM2.591,36.409C3.068,36.886 3.661,37.229 4.312,37.403L5.089,34.505C4.946,34.467 4.817,34.392 4.712,34.288L2.591,36.409ZM4.312,37.403C4.964,37.577 5.649,37.577 6.3,37.403L5.524,34.505C5.381,34.543 5.231,34.543 5.089,34.505L4.312,37.403ZM6.3,37.403C6.805,37.268 7.351,37.079 7.839,36.916C8.35,36.745 8.829,36.589 9.296,36.474C10.27,36.235 10.898,36.256 11.317,36.465L12.655,33.779C11.253,33.081 9.74,33.277 8.581,33.561C7.981,33.708 7.396,33.9 6.885,34.072C6.35,34.251 5.916,34.4 5.524,34.505L6.3,37.403ZM11.318,36.465C14.015,37.808 16.989,38.504 20.002,38.5L19.998,35.5C17.45,35.504 14.936,34.915 12.654,33.779L11.318,36.465Z" fill="#010101"/>
</svg>
