<svg width="14" height="14" viewBox="0 0 14 14" fill="none" xmlns="http://www.w3.org/2000/svg" xmlns:xlink="http://www.w3.org/1999/xlink">
<path d="M10.5,5.666C10.5,7.599 8.933,9.166 7,9.166L7,12.166C10.59,12.166 13.5,9.256 13.5,5.666L10.5,5.666ZM7,9.166C5.067,9.166 3.5,7.599 3.5,5.666L0.5,5.666C0.5,9.256 3.41,12.166 7,12.166L7,9.166ZM3.5,5.666C3.5,3.733 5.067,2.166 7,2.166L7,-0.834C3.41,-0.834 0.5,2.076 0.5,5.666L3.5,5.666ZM7,2.166C8.933,2.166 10.5,3.733 10.5,5.666L13.5,5.666C13.5,2.076 10.59,-0.834 7,-0.834L7,2.166Z" fill="#010101"/>
</svg>
