<svg width="48" height="44" viewBox="0 0 48 44" fill="none" xmlns="http://www.w3.org/2000/svg" xmlns:xlink="http://www.w3.org/1999/xlink">
<path d="M30.897,23.1C30.633,23.1 30.358,23.056 30.094,22.968C29.598,22.81 29.166,22.497 28.861,22.076C28.556,21.654 28.395,21.145 28.4,20.625L28.4,17.534C25.914,17.138 24,14.971 24,12.375L24,5.225C24,2.343 26.343,0 29.225,0L41.875,0C44.757,0 47.1,2.343 47.1,5.225L47.1,12.375C47.1,15.257 44.757,17.6 41.875,17.6L36.243,17.6L32.855,22.11C32.371,22.748 31.656,23.1 30.897,23.1ZM29.225,2.75C27.861,2.75 26.75,3.861 26.75,5.225L26.75,12.375C26.75,13.739 27.861,14.85 29.225,14.85L31.15,14.85L31.15,19.8L34.868,14.85L41.886,14.85C43.25,14.85 44.361,13.739 44.361,12.375L44.361,5.225C44.361,3.861 43.25,2.75 41.886,2.75L29.225,2.75ZM15.2,25.85C10.646,25.85 6.95,22.154 6.95,17.6C6.95,13.046 10.646,9.35 15.2,9.35C19.754,9.35 23.45,13.046 23.45,17.6C23.45,22.154 19.754,25.85 15.2,25.85ZM15.2,12.1C12.164,12.1 9.7,14.564 9.7,17.6C9.7,20.636 12.164,23.1 15.2,23.1C18.236,23.1 20.7,20.636 20.7,17.6C20.7,14.564 18.236,12.1 15.2,12.1ZM0.9,33.869C0.9,33.968 1.065,44 15.2,44C29.335,44 29.5,33.968 29.5,33.869L29.5,32.725C29.5,30.448 27.652,28.6 25.375,28.6L5.025,28.6C2.748,28.6 0.9,30.448 0.9,32.725L0.9,33.869ZM3.65,32.725C3.65,31.966 4.266,31.35 5.025,31.35L25.375,31.35C26.134,31.35 26.75,31.966 26.75,32.725L26.75,33.858C26.75,34.155 26.508,41.25 15.2,41.25C3.892,41.25 3.65,34.155 3.65,33.869L3.65,32.725Z" fill="#010101"/>
</svg>
