<svg width="28" height="36" viewBox="0 0 28 36" fill="none" xmlns="http://www.w3.org/2000/svg" xmlns:xlink="http://www.w3.org/1999/xlink">
<path d="M26.504,0.854C26.656,0.767 26.829,0.722 27.004,0.722C27.179,0.723 27.351,0.77 27.503,0.858C27.654,0.946 27.78,1.073 27.867,1.225C27.955,1.377 28,1.549 28,1.724L28,34.276C28,34.451 27.954,34.623 27.866,34.775C27.779,34.927 27.653,35.053 27.502,35.141C27.35,35.229 27.178,35.275 27.003,35.276C26.828,35.276 26.656,35.231 26.504,35.144L21.992,32.568C21.69,32.396 21.348,32.305 21,32.305C20.652,32.305 20.31,32.396 20.008,32.568L15.588,35.092C15.104,35.369 14.557,35.514 14,35.514C13.443,35.514 12.896,35.369 12.412,35.092L7.992,32.568C7.69,32.396 7.348,32.305 7,32.305C6.652,32.305 6.31,32.396 6.008,32.568L1.496,35.146C1.344,35.233 1.171,35.279 0.996,35.278C0.821,35.277 0.649,35.23 0.497,35.142C0.346,35.054 0.22,34.928 0.133,34.776C0.045,34.624 0,34.452 0,34.276L0,1.724C0,1.549 0.045,1.377 0.133,1.225C0.22,1.073 0.346,0.946 0.497,0.858C0.649,0.77 0.821,0.723 0.996,0.722C1.171,0.722 1.344,0.767 1.496,0.854L6.008,3.434C6.31,3.607 6.652,3.698 7,3.698C7.348,3.698 7.69,3.607 7.992,3.434L12.412,0.908C12.896,0.632 13.443,0.486 14,0.486C14.557,0.486 15.104,0.632 15.588,0.908L20.008,3.432C20.31,3.605 20.652,3.696 21,3.696C21.348,3.696 21.69,3.605 21.992,3.432L26.504,0.854ZM9,12C8.735,12 8.48,12.106 8.293,12.293C8.105,12.481 8,12.735 8,13C8,13.265 8.105,13.52 8.293,13.707C8.48,13.895 8.735,14 9,14L19,14C19.265,14 19.52,13.895 19.707,13.707C19.895,13.52 20,13.265 20,13C20,12.735 19.895,12.481 19.707,12.293C19.52,12.106 19.265,12 19,12L9,12ZM9,17C8.735,17 8.48,17.106 8.293,17.293C8.105,17.481 8,17.735 8,18C8,18.265 8.105,18.52 8.293,18.707C8.48,18.895 8.735,19 9,19L19,19C19.265,19 19.52,18.895 19.707,18.707C19.895,18.52 20,18.265 20,18C20,17.735 19.895,17.481 19.707,17.293C19.52,17.106 19.265,17 19,17L9,17ZM9,22C8.735,22 8.48,22.106 8.293,22.293C8.105,22.481 8,22.735 8,23C8,23.265 8.105,23.52 8.293,23.707C8.48,23.895 8.735,24 9,24L19,24C19.265,24 19.52,23.895 19.707,23.707C19.895,23.52 20,23.265 20,23C20,22.735 19.895,22.481 19.707,22.293C19.52,22.106 19.265,22 19,22L9,22Z" clip-rule="evenodd" fill-rule="evenodd" fill="#010101"/>
</svg>
