<svg width="26" height="18" viewBox="0 0 26 18" fill="none" xmlns="http://www.w3.org/2000/svg" xmlns:xlink="http://www.w3.org/1999/xlink">
<path d="M23.778,3.414C24.559,2.633 24.559,1.367 23.778,0.586C22.997,-0.195 21.73,-0.195 20.949,0.586L23.778,3.414ZM8.364,16L6.949,17.414C7.73,18.195 8.997,18.195 9.778,17.414L8.364,16ZM3.414,8.222C2.633,7.441 1.367,7.441 0.586,8.222C-0.195,9.003 -0.195,10.27 0.586,11.051L3.414,8.222ZM20.949,0.586L6.949,14.586L9.778,17.414L23.778,3.414L20.949,0.586ZM9.778,14.586L3.414,8.222L0.586,11.051L6.949,17.414L9.778,14.586Z" fill="#FFFFFF"/>
</svg>
