<svg width="56" height="54" viewBox="0 0 56 54" fill="none" xmlns="http://www.w3.org/2000/svg" xmlns:xlink="http://www.w3.org/1999/xlink">
<path d="M54.127,20.555C53.885,19.81 53.427,19.154 52.813,18.669C52.198,18.183 51.454,17.891 50.673,17.828L36.384,16.675L30.867,3.333C30.569,2.606 30.061,1.984 29.408,1.546C28.756,1.109 27.988,0.875 27.202,0.875C26.416,0.875 25.648,1.109 24.995,1.546C24.342,1.984 23.835,2.606 23.536,3.333L18.024,16.673L3.728,17.828C2.946,17.894 2.201,18.189 1.586,18.677C0.971,19.165 0.514,19.823 0.272,20.569C0.03,21.315 0.013,22.116 0.224,22.872C0.435,23.628 0.864,24.305 1.458,24.817L12.357,34.221L9.036,48.283C8.851,49.047 8.896,49.849 9.167,50.587C9.438,51.325 9.922,51.966 10.558,52.428C11.193,52.891 11.952,53.154 12.738,53.184C13.523,53.214 14.3,53.011 14.97,52.599L27.2,45.071L39.438,52.599C40.108,53.006 40.883,53.206 41.666,53.173C42.45,53.14 43.206,52.877 43.839,52.415C44.473,51.954 44.956,51.315 45.227,50.58C45.499,49.845 45.546,49.045 45.365,48.283L42.032,34.219L52.93,24.815C53.529,24.303 53.962,23.625 54.175,22.866C54.388,22.108 54.372,21.304 54.127,20.555ZM50.412,21.88L38.617,32.051C38.348,32.283 38.148,32.585 38.039,32.922C37.929,33.26 37.915,33.622 37.997,33.967L41.601,49.177C41.61,49.198 41.611,49.221 41.604,49.243C41.596,49.264 41.58,49.282 41.56,49.293C41.516,49.327 41.504,49.319 41.468,49.293L28.215,41.143C27.91,40.956 27.559,40.856 27.2,40.856C26.842,40.856 26.491,40.956 26.186,41.143L12.933,49.298C12.897,49.319 12.887,49.327 12.841,49.298C12.821,49.287 12.805,49.269 12.797,49.248C12.79,49.226 12.791,49.202 12.8,49.181L16.404,33.972C16.486,33.627 16.471,33.265 16.362,32.927C16.253,32.589 16.053,32.288 15.784,32.056L3.989,21.884C3.96,21.86 3.933,21.838 3.958,21.763C3.982,21.688 4.001,21.698 4.038,21.693L19.518,20.443C19.873,20.413 20.213,20.285 20.5,20.074C20.787,19.863 21.011,19.577 21.146,19.247L27.108,4.81C27.128,4.769 27.135,4.75 27.193,4.75C27.251,4.75 27.259,4.769 27.278,4.81L33.255,19.247C33.391,19.577 33.616,19.863 33.905,20.073C34.193,20.283 34.534,20.41 34.89,20.439L50.371,21.688C50.407,21.688 50.429,21.688 50.45,21.758C50.472,21.829 50.45,21.855 50.412,21.88Z" fill="#010101"/>
</svg>
