<svg width="16" height="28" viewBox="0 0 16 28" fill="none" xmlns="http://www.w3.org/2000/svg" xmlns:xlink="http://www.w3.org/1999/xlink">
<path d="M0.586,23.586C-0.195,24.367 -0.195,25.633 0.586,26.414C1.367,27.195 2.633,27.195 3.414,26.414L0.586,23.586ZM14,13L15.414,14.414C16.195,13.633 16.195,12.367 15.414,11.586L14,13ZM3.414,-0.414C2.633,-1.195 1.367,-1.195 0.586,-0.414C-0.195,0.367 -0.195,1.633 0.586,2.414L3.414,-0.414ZM3.414,26.414L15.414,14.414L12.586,11.586L0.586,23.586L3.414,26.414ZM15.414,11.586L3.414,-0.414L0.586,2.414L12.586,14.414L15.414,11.586Z" fill="#F2F2F2"/>
</svg>
