<svg width="56" height="54" viewBox="0 0 56 54" fill="none" xmlns="http://www.w3.org/2000/svg" xmlns:xlink="http://www.w3.org/1999/xlink">
<path d="M54.927,20.555C54.684,19.81 54.227,19.154 53.613,18.669C52.998,18.183 52.254,17.891 51.473,17.828L37.184,16.675L31.667,3.333C31.369,2.606 30.861,1.984 30.208,1.546C29.555,1.109 28.787,0.875 28.001,0.875C27.216,0.875 26.448,1.109 25.795,1.546C25.142,1.984 24.634,2.606 24.336,3.333L18.824,16.673L4.527,17.828C3.746,17.894 3.001,18.189 2.386,18.677C1.771,19.165 1.314,19.823 1.072,20.569C0.829,21.315 0.813,22.116 1.024,22.872C1.235,23.628 1.664,24.305 2.258,24.817L13.157,34.221L9.836,48.283C9.65,49.047 9.696,49.849 9.967,50.587C10.238,51.325 10.722,51.966 11.357,52.428C11.993,52.891 12.752,53.154 13.538,53.184C14.323,53.214 15.1,53.011 15.77,52.599L28,45.071L40.238,52.599C40.908,53.006 41.683,53.206 42.466,53.173C43.249,53.14 44.005,52.877 44.639,52.415C45.273,51.954 45.756,51.315 46.027,50.58C46.298,49.845 46.346,49.045 46.164,48.283L42.832,34.219L53.73,24.815C54.329,24.303 54.762,23.625 54.975,22.866C55.188,22.108 55.171,21.304 54.927,20.555ZM51.212,21.88L39.417,32.051C39.148,32.283 38.948,32.585 38.839,32.922C38.729,33.26 38.715,33.622 38.797,33.967L42.401,49.177C42.41,49.198 42.411,49.221 42.403,49.243C42.396,49.264 42.38,49.282 42.36,49.293C42.316,49.327 42.304,49.319 42.268,49.293L29.015,41.143C28.71,40.956 28.359,40.856 28,40.856C27.642,40.856 27.291,40.956 26.986,41.143L13.733,49.298C13.697,49.319 13.687,49.327 13.641,49.298C13.62,49.287 13.605,49.269 13.597,49.248C13.589,49.226 13.59,49.202 13.6,49.181L17.204,33.972C17.286,33.627 17.271,33.265 17.162,32.927C17.053,32.589 16.852,32.288 16.584,32.056L4.789,21.884C4.76,21.86 4.733,21.838 4.757,21.763C4.782,21.688 4.801,21.698 4.837,21.693L20.318,20.443C20.673,20.413 21.013,20.285 21.3,20.074C21.587,19.863 21.811,19.577 21.946,19.247L27.908,4.81C27.928,4.769 27.935,4.75 27.993,4.75C28.051,4.75 28.058,4.769 28.078,4.81L34.055,19.247C34.191,19.577 34.416,19.863 34.704,20.073C34.993,20.283 35.334,20.41 35.69,20.439L51.17,21.688C51.207,21.688 51.228,21.688 51.25,21.758C51.272,21.829 51.25,21.855 51.212,21.88Z" fill="#010101"/>
</svg>
