<svg width="48" height="40" viewBox="0 0 48 40" fill="none" xmlns="http://www.w3.org/2000/svg" xmlns:xlink="http://www.w3.org/1999/xlink">
<path d="M5.606,13.5C5.33,14.281 5.739,15.138 6.52,15.414C7.301,15.691 8.158,15.282 8.434,14.501L5.606,13.5ZM36.72,7.28L35.659,8.341C35.67,8.352 35.681,8.363 35.693,8.373L36.72,7.28ZM44.973,17.093C45.577,17.661 46.526,17.631 47.093,17.027C47.66,16.424 47.631,15.474 47.027,14.907L44.973,17.093ZM3.027,22.907C2.423,22.34 1.474,22.369 0.907,22.973C0.34,23.577 0.369,24.526 0.973,25.093L3.027,22.907ZM11.28,32.72L12.341,31.66C12.33,31.649 12.319,31.638 12.307,31.627L11.28,32.72ZM42.394,26.5C42.67,25.719 42.261,24.862 41.48,24.586C40.699,24.31 39.842,24.719 39.566,25.5L42.394,26.5ZM8.434,14.501C9.364,11.873 10.944,9.524 13.027,7.672L11.034,5.43C8.572,7.618 6.705,10.394 5.606,13.5L8.434,14.501ZM13.027,7.672C15.111,5.821 17.629,4.527 20.348,3.912L19.686,0.986C16.473,1.713 13.496,3.242 11.034,5.43L13.027,7.672ZM20.348,3.912C23.066,3.297 25.896,3.38 28.574,4.155L29.407,1.273C26.243,0.357 22.898,0.259 19.686,0.986L20.348,3.912ZM28.574,4.155C31.251,4.929 33.689,6.369 35.659,8.341L37.781,6.22C35.452,3.89 32.571,2.188 29.407,1.273L28.574,4.155ZM35.693,8.373L44.973,17.093L47.027,14.907L37.747,6.187L35.693,8.373ZM0.973,25.093L10.253,33.813L12.307,31.627L3.027,22.907L0.973,25.093ZM10.219,33.78C12.548,36.11 15.429,37.812 18.593,38.727L19.426,35.846C16.749,35.071 14.311,33.631 12.341,31.66L10.219,33.78ZM18.593,38.727C21.757,39.643 25.102,39.742 28.314,39.015L27.652,36.089C24.934,36.704 22.104,36.62 19.426,35.846L18.593,38.727ZM28.314,39.015C31.527,38.288 34.504,36.759 36.966,34.57L34.973,32.328C32.889,34.18 30.371,35.473 27.652,36.089L28.314,39.015ZM36.966,34.57C39.428,32.382 41.295,29.606 42.394,26.5L39.566,25.5C38.636,28.127 37.056,30.476 34.973,32.328L36.966,34.57Z" fill="#010101"/>
</svg>
