<svg width="34" height="44" viewBox="0 0 34 44" fill="none" xmlns="http://www.w3.org/2000/svg" xmlns:xlink="http://www.w3.org/1999/xlink">
<path d="M24.5,13.356C23.591,13.356 22.854,14.093 22.854,15.002C22.854,15.911 23.591,16.648 24.5,16.648L24.5,13.356ZM28.25,15.002L28.25,13.356L28.25,15.002ZM5.75,40.502L5.75,38.856L5.75,40.502ZM2,36.752L0.354,36.752L2,36.752ZM2,18.752L0.354,18.752L2,18.752ZM5.75,15.002L5.75,16.648L5.75,15.002ZM9.5,16.648C10.409,16.648 11.146,15.911 11.146,15.002C11.146,14.093 10.409,13.356 9.5,13.356L9.5,16.648ZM23.336,10.166C23.979,10.809 25.021,10.809 25.664,10.166C26.307,9.523 26.307,8.481 25.664,7.838L23.336,10.166ZM17,1.502L18.164,0.338C17.855,0.029 17.437,-0.144 17,-0.144C16.563,-0.144 16.145,0.029 15.836,0.338L17,1.502ZM8.336,7.838C7.693,8.481 7.693,9.523 8.336,10.166C8.979,10.809 10.021,10.809 10.664,10.166L8.336,7.838ZM15.354,27.096C15.354,28.005 16.091,28.742 17,28.742C17.909,28.742 18.646,28.005 18.646,27.096L15.354,27.096ZM24.5,16.648L28.25,16.648L28.25,13.356L24.5,13.356L24.5,16.648ZM28.25,16.648C28.808,16.648 29.343,16.87 29.738,17.264L32.066,14.936C31.054,13.924 29.681,13.356 28.25,13.356L28.25,16.648ZM29.738,17.264C30.132,17.659 30.354,18.194 30.354,18.752L33.646,18.752C33.646,17.321 33.078,15.948 32.066,14.936L29.738,17.264ZM30.354,18.752L30.354,36.752L33.646,36.752L33.646,18.752L30.354,18.752ZM30.354,36.752C30.354,37.31 30.132,37.845 29.738,38.24L32.066,40.568C33.078,39.556 33.646,38.183 33.646,36.752L30.354,36.752ZM29.738,38.24C29.343,38.634 28.808,38.856 28.25,38.856L28.25,42.148C29.681,42.148 31.054,41.58 32.066,40.568L29.738,38.24ZM28.25,38.856L5.75,38.856L5.75,42.148L28.25,42.148L28.25,38.856ZM5.75,38.856C5.192,38.856 4.657,38.634 4.262,38.24L1.934,40.568C2.946,41.58 4.319,42.148 5.75,42.148L5.75,38.856ZM4.262,38.24C3.868,37.845 3.646,37.31 3.646,36.752L0.354,36.752C0.354,38.183 0.922,39.556 1.934,40.568L4.262,38.24ZM3.646,36.752L3.646,18.752L0.354,18.752L0.354,36.752L3.646,36.752ZM3.646,18.752C3.646,18.194 3.868,17.659 4.262,17.264L1.934,14.936C0.922,15.948 0.354,17.321 0.354,18.752L3.646,18.752ZM4.262,17.264C4.657,16.87 5.192,16.648 5.75,16.648L5.75,13.356C4.319,13.356 2.946,13.924 1.934,14.936L4.262,17.264ZM5.75,16.648L9.5,16.648L9.5,13.356L5.75,13.356L5.75,16.648ZM25.664,7.838L18.164,0.338L15.836,2.666L23.336,10.166L25.664,7.838ZM15.836,0.338L8.336,7.838L10.664,10.166L18.164,2.666L15.836,0.338ZM18.646,27.096L18.646,1.502L15.354,1.502L15.354,27.096L18.646,27.096Z" fill="#010101"/>
</svg>
