<svg width="42" height="42" viewBox="0 0 42 42" fill="none" xmlns="http://www.w3.org/2000/svg" xmlns:xlink="http://www.w3.org/1999/xlink">
<path d="M40.846,16.236C40.658,15.659 40.304,15.151 39.829,14.776C39.353,14.4 38.776,14.173 38.172,14.125L27.11,13.232L22.838,2.903C22.607,2.34 22.214,1.859 21.709,1.52C21.204,1.181 20.609,1 20.001,1C19.392,1 18.798,1.181 18.292,1.52C17.787,1.859 17.394,2.34 17.163,2.903L12.895,13.23L1.827,14.125C1.222,14.176 0.645,14.405 0.169,14.782C-0.307,15.16 -0.661,15.669 -0.848,16.247C-1.036,16.825 -1.049,17.445 -0.885,18.03C-0.722,18.615 -0.39,19.139 0.07,19.536L8.508,26.817L5.937,37.703C5.793,38.294 5.829,38.915 6.038,39.486C6.248,40.058 6.623,40.554 7.115,40.912C7.607,41.27 8.195,41.474 8.803,41.497C9.411,41.521 10.012,41.363 10.531,41.044L20,35.217L29.474,41.044C29.993,41.359 30.593,41.514 31.199,41.489C31.805,41.463 32.391,41.259 32.881,40.902C33.372,40.545 33.746,40.05 33.956,39.481C34.166,38.912 34.203,38.293 34.062,37.703L31.482,26.815L39.92,19.534C40.383,19.138 40.719,18.613 40.883,18.026C41.048,17.439 41.035,16.816 40.846,16.236ZM37.97,17.262L28.838,25.137C28.63,25.316 28.475,25.549 28.391,25.811C28.306,26.072 28.295,26.352 28.358,26.62L31.148,38.395C31.156,38.411 31.156,38.429 31.15,38.446C31.144,38.463 31.132,38.477 31.117,38.485C31.083,38.511 31.073,38.505 31.045,38.485L20.785,32.175C20.549,32.03 20.277,31.953 20,31.953C19.722,31.953 19.45,32.03 19.214,32.175L8.954,38.488C8.926,38.505 8.918,38.511 8.883,38.488C8.867,38.48 8.855,38.467 8.849,38.45C8.843,38.433 8.844,38.415 8.851,38.398L11.641,26.623C11.704,26.356 11.693,26.076 11.609,25.815C11.524,25.553 11.369,25.32 11.161,25.14L2.03,17.265C2.007,17.247 1.987,17.23 2.005,17.172C2.024,17.113 2.039,17.121 2.067,17.117L14.052,16.15C14.327,16.126 14.59,16.027 14.812,15.864C15.035,15.7 15.208,15.479 15.312,15.224L19.928,4.047C19.943,4.015 19.949,4 19.994,4C20.039,4 20.045,4.015 20.06,4.047L24.687,15.224C24.793,15.479 24.967,15.7 25.19,15.863C25.413,16.026 25.677,16.124 25.953,16.146L37.938,17.113C37.966,17.113 37.983,17.113 38,17.168C38.017,17.222 38,17.243 37.97,17.262Z" fill="#010101"/>
</svg>
