<svg width="54" height="52" viewBox="0 0 54 52" fill="none" xmlns="http://www.w3.org/2000/svg" xmlns:xlink="http://www.w3.org/1999/xlink">
<path d="M23.811,1.908C24.095,1.42 24.502,1.015 24.992,0.734C25.481,0.453 26.036,0.305 26.601,0.305C27.165,0.305 27.72,0.453 28.209,0.734C28.699,1.015 29.106,1.42 29.391,1.908L36.611,14.303L50.633,17.341C51.185,17.461 51.695,17.723 52.114,18.102C52.533,18.48 52.845,18.962 53.019,19.499C53.193,20.036 53.224,20.609 53.108,21.161C52.991,21.714 52.732,22.226 52.356,22.647L42.798,33.344L44.245,47.617C44.302,48.179 44.21,48.747 43.98,49.262C43.749,49.778 43.387,50.224 42.93,50.556C42.473,50.888 41.937,51.094 41.375,51.155C40.814,51.215 40.246,51.126 39.729,50.898L26.601,45.112L13.472,50.898C12.955,51.126 12.388,51.215 11.826,51.155C11.264,51.094 10.728,50.888 10.271,50.556C9.814,50.224 9.452,49.778 9.221,49.262C8.991,48.747 8.899,48.179 8.956,47.617L10.403,33.344L0.845,22.649C0.468,22.228 0.209,21.716 0.092,21.163C-0.025,20.611 0.006,20.037 0.18,19.5C0.355,18.963 0.667,18.48 1.086,18.102C1.505,17.723 2.016,17.46 2.568,17.341L16.59,14.303L23.811,1.908Z" fill="#FF1515"/>
</svg>
