<svg width="82" height="60" viewBox="0 0 82 60" fill="none" xmlns="http://www.w3.org/2000/svg" xmlns:xlink="http://www.w3.org/1999/xlink">
<path d="M80.458,7.015C82.228,5.245 82.228,2.376 80.458,0.606C78.688,-1.163 75.819,-1.163 74.049,0.606L80.458,7.015ZM27.406,53.658L24.202,56.863C25.971,58.632 28.841,58.632 30.61,56.863L27.406,53.658ZM7.952,27.796C6.183,26.026 3.313,26.026 1.544,27.796C-0.226,29.566 -0.226,32.435 1.544,34.205L7.952,27.796ZM74.049,0.606L24.202,50.454L30.61,56.863L80.458,7.015L74.049,0.606ZM30.61,50.454L7.952,27.796L1.544,34.205L24.202,56.863L30.61,50.454Z" fill="#00D215"/>
</svg>
