<svg width="44" height="38" viewBox="0 0 44 38" fill="none" xmlns="http://www.w3.org/2000/svg" xmlns:xlink="http://www.w3.org/1999/xlink">
<path d="M6.245,10.354L18.872,1.561C19.55,1.089 20.388,0.904 21.203,1.047C22.018,1.19 22.742,1.649 23.217,2.323L25.209,5.151C25.238,5.192 25.266,5.235 25.292,5.277L6.245,10.354ZM1.97,20.551L1.106,17.345C0.892,16.55 1.005,15.703 1.419,14.99C1.833,14.277 2.514,13.757 3.314,13.545L34.963,5.111C35.762,4.898 36.614,5.01 37.331,5.421C38.048,5.833 38.571,6.51 38.785,7.305L39.683,10.64C39.81,11.111 39.794,11.608 39.639,12.07C39.483,12.533 39.195,12.939 38.808,13.239C38.201,13.71 37.748,14.349 37.505,15.075C37.263,15.801 37.241,16.583 37.444,17.321C37.647,18.06 38.065,18.722 38.646,19.225C39.226,19.727 39.943,20.048 40.706,20.146C41.178,20.207 41.621,20.406 41.979,20.717C42.336,21.029 42.593,21.439 42.716,21.896L43.63,25.292C43.845,26.087 43.733,26.934 43.319,27.647C42.905,28.359 42.224,28.879 41.424,29.093L9.774,37.526C8.974,37.739 8.123,37.627 7.406,37.216C6.69,36.804 6.167,36.127 5.952,35.332L5.092,32.137C4.956,31.634 4.969,31.103 5.13,30.608C5.291,30.112 5.592,29.673 5.997,29.344C6.58,28.871 7.012,28.24 7.243,27.528C7.474,26.816 7.493,26.053 7.297,25.33C7.102,24.608 6.701,23.957 6.142,23.456C5.583,22.955 4.891,22.626 4.148,22.507C3.634,22.425 3.155,22.196 2.769,21.849C2.382,21.503 2.105,21.052 1.97,20.552M29.649,15.362C29.949,15.287 30.231,15.152 30.479,14.967C30.727,14.782 30.935,14.549 31.092,14.283C31.248,14.018 31.35,13.723 31.392,13.418C31.433,13.112 31.413,12.802 31.333,12.504C31.253,12.206 31.114,11.927 30.925,11.684C30.735,11.44 30.499,11.236 30.229,11.083C29.96,10.931 29.663,10.833 29.355,10.796C29.047,10.759 28.735,10.783 28.437,10.866C27.845,11.033 27.342,11.424 27.038,11.956C26.734,12.488 26.652,13.118 26.812,13.709C26.971,14.3 27.358,14.805 27.889,15.115C28.42,15.424 29.052,15.513 29.649,15.362ZM31.264,21.358C31.56,21.279 31.839,21.143 32.083,20.957C32.327,20.771 32.531,20.539 32.685,20.274C32.839,20.009 32.938,19.717 32.979,19.414C33.019,19.111 32.999,18.803 32.919,18.508C32.84,18.212 32.702,17.936 32.515,17.693C32.328,17.451 32.095,17.247 31.829,17.094C31.563,16.941 31.269,16.842 30.964,16.802C30.659,16.762 30.35,16.782 30.053,16.861C29.453,17.021 28.942,17.411 28.631,17.946C28.321,18.481 28.237,19.116 28.398,19.712C28.558,20.309 28.951,20.817 29.488,21.126C30.026,21.434 30.664,21.518 31.264,21.358ZM32.88,27.353C33.181,27.278 33.464,27.144 33.713,26.959C33.962,26.774 34.171,26.542 34.328,26.276C34.486,26.009 34.588,25.715 34.63,25.409C34.672,25.103 34.652,24.792 34.572,24.493C34.491,24.195 34.352,23.916 34.162,23.671C33.972,23.427 33.735,23.223 33.465,23.071C33.195,22.918 32.897,22.821 32.589,22.784C32.28,22.748 31.968,22.772 31.669,22.857C31.079,23.025 30.578,23.416 30.275,23.948C29.972,24.479 29.891,25.108 30.05,25.698C30.209,26.288 30.595,26.792 31.124,27.102C31.654,27.411 32.284,27.502 32.88,27.353Z" clip-rule="evenodd" fill-rule="evenodd" fill="#FF1515"/>
</svg>
