<svg width="566" height="444" viewBox="0 0 566 444" fill="none" xmlns="http://www.w3.org/2000/svg" xmlns:xlink="http://www.w3.org/1999/xlink">
<path d="M138.577,108.769L141.652,104.827L138.577,108.769ZM-0.075,6.942L135.501,112.711L141.652,104.827L6.075,-0.942L-0.075,6.942ZM150.879,118L332,118L332,108L150.879,108L150.879,118ZM347,133L347,237L357,237L357,133L347,133ZM372,262L540,262L540,252L372,252L372,262ZM555,277L555,444L565,444L565,277L555,277ZM540,262C548.284,262 555,268.716 555,277L565,277C565,263.192 553.808,252 540,252L540,262ZM347,237C347,250.808 358.192,262 372,262L372,252C363.716,252 357,245.284 357,237L347,237ZM332,118C340.284,118 347,124.716 347,133L357,133C357,119.193 345.808,108 332,108L332,118ZM135.501,112.711C139.894,116.139 145.307,118 150.879,118L150.879,108C147.535,108 144.288,106.883 141.652,104.827L135.501,112.711Z" fill="#F2F2F2"/>
</svg>
