<svg width="40" height="40" viewBox="0 0 40 40" fill="none" xmlns="http://www.w3.org/2000/svg" xmlns:xlink="http://www.w3.org/1999/xlink">
<path d="M2.85,1.151C2.738,1.039 2.606,0.951 2.46,0.89C2.314,0.83 2.158,0.799 2,0.799C1.843,0.799 1.686,0.83 1.541,0.89C1.395,0.951 1.262,1.039 1.151,1.151C1.039,1.262 0.951,1.395 0.89,1.541C0.83,1.686 0.799,1.843 0.799,2C0.799,2.158 0.83,2.314 0.89,2.46C0.951,2.606 1.039,2.738 1.151,2.85L8.704,10.4L4.4,10.4C3.446,10.4 2.53,10.78 1.855,11.455C1.18,12.13 0.8,13.046 0.8,14L0.8,26C0.8,26.955 1.18,27.871 1.855,28.546C2.53,29.221 3.446,29.6 4.4,29.6L10.657,29.6C10.96,29.6 11.251,29.714 11.473,29.92L20.768,38.545C22.304,39.971 24.8,38.881 24.8,36.786L24.8,26.497L37.151,38.85C37.376,39.075 37.682,39.202 38,39.202C38.319,39.202 38.625,39.075 38.85,38.85C39.075,38.625 39.202,38.319 39.202,38C39.202,37.682 39.075,37.376 38.85,37.151L32.694,30.997L2.85,1.151ZM34.304,7.199C37.16,10.392 38.866,14.449 39.151,18.724C39.437,22.998 38.285,27.246 35.879,30.791L34.148,29.056C36.124,25.964 37.034,22.31 36.74,18.653C36.445,14.996 34.962,11.535 32.516,8.8C32.409,8.682 32.327,8.545 32.273,8.396C32.22,8.247 32.196,8.089 32.204,7.93C32.212,7.772 32.252,7.617 32.32,7.474C32.388,7.331 32.484,7.203 32.602,7.097C32.721,6.991 32.858,6.91 33.008,6.858C33.158,6.805 33.316,6.784 33.475,6.793C33.633,6.802 33.788,6.843 33.93,6.913C34.072,6.982 34.2,7.08 34.304,7.199ZM31.424,13.4C32.567,15.378 33.177,17.619 33.194,19.903C33.211,22.188 32.635,24.437 31.523,26.432L29.742,24.652C30.496,23.07 30.855,21.328 30.786,19.577C30.717,17.826 30.222,16.118 29.346,14.6C29.266,14.464 29.214,14.313 29.192,14.156C29.171,13.999 29.181,13.84 29.221,13.687C29.261,13.534 29.332,13.39 29.428,13.265C29.524,13.139 29.644,13.033 29.781,12.954C29.918,12.875 30.07,12.824 30.226,12.803C30.383,12.783 30.543,12.794 30.696,12.835C30.848,12.877 30.991,12.948 31.116,13.045C31.241,13.142 31.346,13.263 31.424,13.4ZM24.8,3.215L24.8,19.712L13.391,8.3L20.768,1.456C22.304,0.03 24.8,1.12 24.8,3.215Z" fill="#FFFFFF"/>
</svg>
