<svg width="54" height="52" viewBox="0 0 54 52" fill="none" xmlns="http://www.w3.org/2000/svg" xmlns:xlink="http://www.w3.org/1999/xlink">
<path d="M24.611,1.908C24.896,1.42 25.303,1.015 25.792,0.734C26.282,0.453 26.837,0.305 27.401,0.305C27.966,0.305 28.521,0.453 29.01,0.734C29.5,1.015 29.907,1.42 30.191,1.908L37.412,14.303L51.434,17.341C51.986,17.461 52.496,17.723 52.915,18.102C53.333,18.48 53.645,18.962 53.82,19.499C53.994,20.036 54.025,20.609 53.908,21.161C53.792,21.714 53.533,22.226 53.157,22.647L43.599,33.344L45.046,47.617C45.103,48.179 45.011,48.747 44.781,49.262C44.55,49.778 44.188,50.224 43.731,50.556C43.274,50.888 42.738,51.094 42.176,51.155C41.614,51.215 41.047,51.126 40.53,50.898L27.401,45.112L14.273,50.898C13.756,51.126 13.188,51.215 12.627,51.155C12.065,51.094 11.529,50.888 11.072,50.556C10.615,50.224 10.253,49.778 10.022,49.262C9.792,48.747 9.7,48.179 9.757,47.617L11.204,33.344L1.646,22.649C1.269,22.228 1.009,21.716 0.893,21.163C0.776,20.611 0.807,20.037 0.981,19.5C1.155,18.963 1.468,18.48 1.887,18.102C2.306,17.723 2.817,17.46 3.369,17.341L17.391,14.303L24.611,1.908Z" fill="#FF1515"/>
</svg>
