<svg width="30" height="38" viewBox="0 0 30 38" fill="none" xmlns="http://www.w3.org/2000/svg" xmlns:xlink="http://www.w3.org/1999/xlink">
<path d="M29.25,30.039L29.25,36.5C29.25,36.832 29.118,37.149 28.884,37.384C28.649,37.618 28.332,37.75 28,37.75C27.668,37.75 27.351,37.618 27.116,37.384C26.882,37.149 26.75,36.832 26.75,36.5L26.75,30.039C26.744,28.435 26.408,26.849 25.763,25.38C25.118,23.91 24.177,22.59 23,21.5L23,30.617C23,30.886 22.913,31.148 22.752,31.364C22.591,31.579 22.365,31.737 22.107,31.814C21.849,31.891 21.574,31.883 21.321,31.79C21.068,31.698 20.852,31.527 20.705,31.302L19.036,28.753C19.023,28.734 19.011,28.714 19,28.694C18.755,28.261 18.348,27.943 17.868,27.81C17.389,27.678 16.877,27.741 16.444,27.986C16.011,28.231 15.693,28.638 15.56,29.117C15.428,29.597 15.491,30.109 15.736,30.542L19.194,35.822C19.375,36.099 19.439,36.438 19.371,36.762C19.303,37.087 19.109,37.371 18.832,37.552C18.555,37.734 18.216,37.798 17.892,37.73C17.567,37.662 17.283,37.468 17.102,37.191L13.623,31.878L13.586,31.819C13.048,30.896 12.865,29.808 13.074,28.761C13.282,27.713 13.866,26.777 14.717,26.131C15.567,25.484 16.625,25.171 17.69,25.251C18.756,25.33 19.755,25.797 20.5,26.562L20.5,9L18,9C17.668,9 17.351,8.868 17.116,8.634C16.882,8.399 16.75,8.082 16.75,7.75C16.75,7.418 16.882,7.101 17.116,6.866C17.351,6.632 17.668,6.5 18,6.5L20.5,6.5C21.163,6.5 21.799,6.763 22.268,7.232C22.737,7.701 23,8.337 23,9L23,18.316C24.919,19.612 26.491,21.358 27.58,23.401C28.67,25.445 29.243,27.723 29.25,30.039ZM6.75,7.75C6.75,7.418 6.618,7.101 6.384,6.866C6.149,6.632 5.832,6.5 5.5,6.5L3,6.5C2.337,6.5 1.701,6.763 1.232,7.232C0.763,7.701 0.5,8.337 0.5,9L0.5,30.25C0.5,30.582 0.632,30.899 0.866,31.134C1.101,31.368 1.418,31.5 1.75,31.5C2.082,31.5 2.399,31.368 2.634,31.134C2.868,30.899 3,30.582 3,30.25L3,9L5.5,9C5.832,9 6.149,8.868 6.384,8.634C6.618,8.399 6.75,8.082 6.75,7.75ZM17.634,14.366C17.518,14.249 17.38,14.157 17.229,14.094C17.077,14.031 16.914,13.999 16.75,13.999C16.586,13.999 16.423,14.031 16.271,14.094C16.12,14.157 15.982,14.249 15.866,14.366L13,17.233L13,1.5C13,1.168 12.868,0.851 12.634,0.616C12.399,0.382 12.082,0.25 11.75,0.25C11.418,0.25 11.101,0.382 10.866,0.616C10.632,0.851 10.5,1.168 10.5,1.5L10.5,17.233L7.634,14.366C7.4,14.131 7.082,13.999 6.75,13.999C6.418,13.999 6.1,14.131 5.866,14.366C5.631,14.6 5.499,14.918 5.499,15.25C5.499,15.582 5.631,15.9 5.866,16.134L10.866,21.134C10.982,21.251 11.12,21.343 11.271,21.406C11.423,21.469 11.586,21.501 11.75,21.501C11.914,21.501 12.077,21.469 12.229,21.406C12.38,21.343 12.518,21.251 12.634,21.134L17.634,16.134C17.751,16.018 17.843,15.88 17.906,15.729C17.969,15.577 18.001,15.414 18.001,15.25C18.001,15.086 17.969,14.923 17.906,14.771C17.843,14.62 17.751,14.482 17.634,14.366Z" fill="#010101"/>
</svg>
