<svg width="28" height="36" viewBox="0 0 28 36" fill="none" xmlns="http://www.w3.org/2000/svg" xmlns:xlink="http://www.w3.org/1999/xlink">
<path d="M25.32,15.4C24.86,14.8 24.3,14.28 23.78,13.76C22.44,12.56 20.92,11.7 19.64,10.44C16.66,7.52 16,2.7 17.9,-1C16,-0.54 14.34,0.5 12.92,1.64C7.74,5.8 5.7,13.14 8.14,19.44C8.22,19.64 8.3,19.84 8.3,20.1C8.3,20.54 8,20.94 7.6,21.1C7.14,21.3 6.66,21.18 6.28,20.86C6.167,20.765 6.072,20.65 6,20.52C3.74,17.66 3.38,13.56 4.9,10.28C1.56,13 -0.26,17.6 0,21.94C0.12,22.94 0.24,23.94 0.58,24.94C0.86,26.14 1.4,27.34 2,28.4C4.16,31.86 7.9,34.34 11.92,34.84C16.2,35.38 20.78,34.6 24.06,31.64C27.72,28.32 29,23 27.12,18.44L26.86,17.92C26.44,17 25.32,15.4 25.32,15.4ZM19,28C18.44,28.48 17.52,29 16.8,29.2C14.56,30 12.32,28.88 11,27.56C13.38,27 14.8,25.24 15.22,23.46C15.56,21.86 14.92,20.54 14.66,19C14.42,17.52 14.46,16.26 15,14.88C15.38,15.64 15.78,16.4 16.26,17C17.8,19 20.22,19.88 20.74,22.6C20.82,22.88 20.86,23.16 20.86,23.46C20.92,25.1 20.2,26.9 19,28Z" fill="#FF1515"/>
</svg>
