<svg width="298" height="110" viewBox="0 0 298 110" fill="none" xmlns="http://www.w3.org/2000/svg" xmlns:xlink="http://www.w3.org/1999/xlink">
<path d="M9,110L9,68L-1,68L-1,110L9,110ZM24,53L143,53L143,43L24,43L24,53ZM168,28L168,24L158,24L158,28L168,28ZM183,9L250,9L250,-1L183,-1L183,9ZM250,9L272,9L272,-1L250,-1L250,9ZM287,24L287,110L297,110L297,24L287,24ZM272,9C280.284,9 287,15.716 287,24L297,24C297,10.193 285.808,-1 272,-1L272,9ZM168,24C168,15.716 174.716,9 183,9L183,-1C169.193,-1 158,10.193 158,24L168,24ZM143,53C156.807,53 168,41.807 168,28L158,28C158,36.284 151.284,43 143,43L143,53ZM9,68C9,59.716 15.716,53 24,53L24,43C10.193,43 -1,54.193 -1,68L9,68Z" fill="#F2F2F2"/>
</svg>
