<svg width="36" height="32" viewBox="0 0 36 32" fill="none" xmlns="http://www.w3.org/2000/svg" xmlns:xlink="http://www.w3.org/1999/xlink">
<path d="M35.5,9.938C35.5,20.875 19.283,29.728 18.592,30.094C18.41,30.192 18.207,30.243 18,30.243C17.793,30.243 17.59,30.192 17.408,30.094C16.717,29.728 0.5,20.875 0.5,9.938C0.503,7.369 1.524,4.907 3.341,3.091C5.157,1.274 7.619,0.253 10.188,0.25C13.414,0.25 16.239,1.638 18,3.983C19.761,1.638 22.586,0.25 25.812,0.25C28.381,0.253 30.843,1.274 32.659,3.091C34.476,4.907 35.497,7.369 35.5,9.938Z" fill="#010101"/>
</svg>
