<svg width="46" height="46" viewBox="0 0 46 46" fill="none" xmlns="http://www.w3.org/2000/svg" xmlns:xlink="http://www.w3.org/1999/xlink">
<path d="M6,45.5C5.292,45.5 4.698,45.26 4.22,44.78C3.742,44.3 3.502,43.707 3.5,43L3.5,35.5C3.5,34.125 3.99,32.948 4.97,31.97C5.95,30.992 7.127,30.502 8.5,30.5L38.5,30.5C39.875,30.5 41.053,30.99 42.033,31.97C43.013,32.95 43.502,34.127 43.5,35.5L43.5,43C43.5,43.708 43.26,44.302 42.78,44.782C42.3,45.262 41.707,45.502 41,45.5C40.293,45.498 39.7,45.258 39.22,44.78C38.74,44.302 38.5,43.708 38.5,43L38.5,35.5L8.5,35.5L8.5,43C8.5,43.708 8.26,44.302 7.78,44.782C7.3,45.262 6.707,45.502 6,45.5ZM4.75,28C3.708,28 2.823,27.636 2.095,26.907C1.367,26.179 1.002,25.293 1,24.25C0.998,23.207 1.363,22.322 2.095,21.595C2.827,20.868 3.712,20.503 4.75,20.5C5.788,20.497 6.674,20.862 7.408,21.595C8.141,22.328 8.505,23.213 8.5,24.25C8.495,25.287 8.131,26.172 7.408,26.907C6.684,27.642 5.798,28.007 4.75,28ZM11,28L11,5.5C11,4.125 11.49,2.948 12.47,1.97C13.45,0.992 14.627,0.502 16,0.5L31,0.5C32.375,0.5 33.553,0.99 34.533,1.97C35.513,2.95 36.002,4.127 36,5.5L36,28L11,28ZM42.25,28C41.208,28 40.323,27.636 39.595,26.907C38.867,26.179 38.502,25.293 38.5,24.25C38.498,23.207 38.863,22.322 39.595,21.595C40.327,20.868 41.212,20.503 42.25,20.5C43.288,20.497 44.174,20.862 44.908,21.595C45.641,22.328 46.005,23.213 46,24.25C45.995,25.287 45.631,26.172 44.908,26.907C44.184,27.642 43.298,28.007 42.25,28ZM16,23L31,23L31,5.5L16,5.5L16,23Z" fill="#010101" stroke="#FFFFFF" stroke-width="0.6" stroke-miterlimit="3.999327"/>
</svg>
