<svg width="48" height="42" viewBox="0 0 48 42" fill="none" xmlns="http://www.w3.org/2000/svg" xmlns:xlink="http://www.w3.org/1999/xlink">
<path d="M24,39.2L22.867,40.333C23.016,40.482 23.192,40.6 23.387,40.681C23.581,40.762 23.79,40.803 24,40.803C24.21,40.803 24.419,40.762 24.613,40.681C24.808,40.6 24.984,40.482 25.133,40.333L24,39.2ZM24,7.2L22.867,8.333C23.016,8.482 23.192,8.6 23.387,8.681C23.581,8.762 23.79,8.803 24,8.803C24.21,8.803 24.419,8.762 24.613,8.681C24.808,8.6 24.984,8.482 25.133,8.333L24,7.2ZM25.133,38.067L6.045,18.983L3.782,21.245L22.867,40.333L25.133,38.067ZM41.955,18.983L22.867,38.067L25.133,40.333L44.218,21.245L41.955,18.983ZM19.782,5.245L22.867,8.333L25.133,6.067L22.045,2.983L19.782,5.245ZM25.133,8.333L28.218,5.245L25.955,2.983L22.867,6.067L25.133,8.333ZM35.085,-0.8C31.661,-0.8 28.378,0.56 25.955,2.983L28.218,5.245C30.039,3.424 32.509,2.401 35.085,2.4L35.085,-0.8ZM44.8,12.115C44.8,14.691 43.776,17.162 41.952,18.983L44.218,21.245C46.639,18.824 47.999,15.54 48,12.115L44.8,12.115ZM48,12.115C48,8.69 46.639,5.405 44.217,2.983C41.795,0.561 38.51,-0.8 35.085,-0.8L35.085,2.4C37.661,2.4 40.133,3.424 41.954,5.246C43.776,7.068 44.8,9.539 44.8,12.115L48,12.115ZM12.915,2.4C15.491,2.4 17.962,3.424 19.782,5.248L22.045,2.983C19.623,0.561 16.34,-0.799 12.915,-0.8L12.915,2.4ZM3.2,12.115C3.2,9.539 4.224,7.068 6.046,5.246C7.867,3.424 10.339,2.4 12.915,2.4L12.915,-0.8C9.49,-0.8 6.205,0.561 3.783,2.983C1.361,5.405 0,8.69 0,12.115L3.2,12.115ZM6.045,18.983C5.142,18.081 4.43,17.011 3.941,15.832C3.452,14.654 3.2,13.391 3.2,12.115L0,12.115C0,15.539 1.36,18.823 3.782,21.245L6.045,18.983Z" fill="#010101"/>
</svg>
