<svg width="30" height="30" viewBox="0 0 30 30" fill="none" xmlns="http://www.w3.org/2000/svg" xmlns:xlink="http://www.w3.org/1999/xlink">
<path d="M15,0C11.023,-0.001 7.209,1.578 4.396,4.389C1.583,7.2 0.002,11.013 0,14.99C0.001,16.959 0.389,18.909 1.143,20.728C1.897,22.548 3.002,24.2 4.395,25.593C5.788,26.985 7.441,28.089 9.261,28.842C11.081,29.595 13.031,29.983 15,29.982C17.612,29.982 20.82,29.326 23.108,28.088L28.688,29.932C28.864,29.99 29.053,29.998 29.233,29.954C29.414,29.911 29.578,29.818 29.709,29.687C29.84,29.555 29.932,29.39 29.974,29.209C30.016,29.029 30.007,28.84 29.948,28.664L28.096,23.122C29.44,20.776 30,17.71 30,14.99C29.998,11.013 28.417,7.2 25.604,4.389C22.791,1.578 18.977,-0.001 15,0Z" fill="#000000"/>
</svg>
