<svg width="48" height="44" viewBox="0 0 48 44" fill="none" xmlns="http://www.w3.org/2000/svg" xmlns:xlink="http://www.w3.org/1999/xlink">
<path d="M47.983,21.957C47.983,23.504 46.733,24.716 45.317,24.716L42.65,24.716L42.708,38.483C42.708,38.715 42.692,38.947 42.667,39.179L42.667,40.562C42.667,42.462 41.175,44 39.333,44L38,44C37.908,44 37.817,44 37.725,43.991C37.608,44 37.492,44 37.375,44L32.667,44C30.825,44 29.333,42.462 29.333,40.562L29.333,33C29.333,31.479 28.142,30.25 26.667,30.25L21.333,30.25C19.858,30.25 18.667,31.479 18.667,33L18.667,40.562C18.667,42.462 17.175,44 15.333,44L10.675,44C10.55,44 10.425,43.991 10.3,43.983C10.2,43.991 10.1,44 10,44L8.667,44C6.825,44 5.333,42.462 5.333,40.562L5.333,30.938C5.333,30.86 5.333,30.774 5.342,30.697L5.342,24.716L2.667,24.716C1.167,24.716 0,23.513 0,21.957C0,21.184 0.25,20.496 0.833,19.895L22.2,0.688C22.783,0.086 23.45,0 24.033,0C24.617,0 25.283,0.172 25.783,0.602L47.067,19.895C47.733,20.496 48.067,21.184 47.983,21.957Z" fill="#010101"/>
</svg>
