<svg width="36" height="34" viewBox="0 0 36 34" fill="none" xmlns="http://www.w3.org/2000/svg" xmlns:xlink="http://www.w3.org/1999/xlink">
<path d="M35.039,12.197C34.882,11.716 34.587,11.293 34.191,10.98C33.794,10.667 33.314,10.478 32.81,10.437L23.592,9.694L20.032,1.086C19.84,0.617 19.512,0.215 19.091,-0.067C18.67,-0.349 18.174,-0.5 17.667,-0.5C17.16,-0.5 16.665,-0.349 16.244,-0.067C15.823,0.215 15.495,0.617 15.303,1.086L11.746,9.692L2.523,10.437C2.018,10.48 1.538,10.671 1.141,10.985C0.745,11.3 0.45,11.724 0.293,12.206C0.137,12.687 0.126,13.204 0.262,13.692C0.399,14.179 0.676,14.616 1.059,14.947L8.09,21.014L5.948,30.086C5.828,30.579 5.857,31.096 6.032,31.572C6.207,32.048 6.519,32.462 6.929,32.76C7.34,33.058 7.829,33.228 8.336,33.248C8.843,33.267 9.344,33.136 9.776,32.87L17.667,28.014L25.562,32.87C25.994,33.133 26.494,33.262 27,33.241C27.505,33.22 27.993,33.049 28.401,32.752C28.81,32.454 29.122,32.042 29.297,31.568C29.472,31.093 29.503,30.578 29.385,30.086L27.235,21.012L34.267,14.945C34.653,14.615 34.932,14.177 35.07,13.688C35.207,13.199 35.196,12.68 35.039,12.197ZM32.642,13.051L25.032,19.614C24.859,19.763 24.73,19.958 24.659,20.176C24.589,20.394 24.579,20.627 24.632,20.85L26.957,30.662C26.963,30.676 26.964,30.691 26.959,30.705C26.954,30.719 26.944,30.731 26.931,30.737C26.903,30.759 26.895,30.754 26.871,30.737L18.321,25.479C18.124,25.358 17.898,25.294 17.667,25.294C17.435,25.294 17.209,25.358 17.012,25.479L8.462,30.74C8.438,30.754 8.432,30.759 8.403,30.74C8.389,30.734 8.379,30.722 8.374,30.708C8.369,30.694 8.37,30.679 8.376,30.665L10.701,20.853C10.754,20.63 10.745,20.397 10.674,20.179C10.604,19.961 10.475,19.767 10.301,19.617L2.692,13.054C2.673,13.039 2.656,13.025 2.671,12.976C2.687,12.928 2.699,12.934 2.723,12.931L12.71,12.125C12.939,12.105 13.159,12.023 13.344,11.887C13.529,11.75 13.673,11.566 13.76,11.353L17.607,2.039C17.62,2.012 17.624,2 17.662,2C17.699,2 17.704,2.012 17.717,2.039L21.573,11.353C21.661,11.566 21.806,11.75 21.992,11.886C22.178,12.022 22.398,12.103 22.628,12.122L32.615,12.928C32.639,12.928 32.653,12.928 32.667,12.973C32.681,13.019 32.667,13.036 32.642,13.051Z" fill="#010101"/>
</svg>
