<svg width="48" height="36" viewBox="0 0 48 36" fill="none" xmlns="http://www.w3.org/2000/svg" xmlns:xlink="http://www.w3.org/1999/xlink">
<path d="M2,18L0.211,17.106C-0.07,17.669 -0.07,18.331 0.211,18.894L2,18ZM46,18L47.789,18.894C48.07,18.331 48.07,17.669 47.789,17.106L46,18ZM2,18C3.789,18.894 3.789,18.895 3.788,18.895C3.788,18.896 3.788,18.896 3.788,18.896C3.788,18.896 3.788,18.897 3.788,18.896C3.788,18.896 3.789,18.895 3.79,18.893C3.792,18.888 3.796,18.88 3.802,18.869C3.814,18.845 3.834,18.807 3.861,18.756C3.915,18.653 4,18.496 4.114,18.293C4.343,17.887 4.689,17.297 5.149,16.585C6.071,15.157 7.436,13.259 9.209,11.368C12.791,7.547 17.799,4 24,4L24,0C16.201,0 10.209,4.453 6.291,8.632C4.314,10.741 2.804,12.843 1.789,14.415C1.28,15.203 0.892,15.863 0.628,16.332C0.496,16.566 0.395,16.753 0.326,16.885C0.291,16.951 0.264,17.003 0.245,17.04C0.235,17.058 0.228,17.073 0.222,17.084C0.219,17.09 0.217,17.094 0.215,17.098C0.214,17.1 0.213,17.101 0.213,17.102C0.212,17.103 0.212,17.104 0.212,17.104C0.211,17.105 0.211,17.106 2,18ZM24,4C30.201,4 35.209,7.547 38.791,11.368C40.564,13.259 41.929,15.157 42.851,16.585C43.311,17.297 43.657,17.887 43.886,18.293C44,18.496 44.085,18.653 44.139,18.756C44.166,18.807 44.186,18.845 44.198,18.869C44.204,18.88 44.208,18.888 44.21,18.893C44.211,18.895 44.212,18.896 44.212,18.896C44.212,18.897 44.212,18.896 44.212,18.896C44.212,18.896 44.212,18.896 44.212,18.895C44.211,18.895 44.211,18.894 46,18C47.789,17.106 47.789,17.105 47.788,17.104C47.788,17.104 47.788,17.103 47.787,17.102C47.787,17.101 47.786,17.1 47.785,17.098C47.783,17.094 47.781,17.09 47.778,17.084C47.772,17.073 47.765,17.058 47.755,17.04C47.736,17.003 47.709,16.951 47.674,16.885C47.605,16.753 47.504,16.566 47.372,16.332C47.108,15.863 46.72,15.203 46.211,14.415C45.196,12.843 43.686,10.741 41.709,8.632C37.791,4.453 31.799,0 24,0L24,4ZM46,18C44.211,17.106 44.211,17.105 44.212,17.105C44.212,17.104 44.212,17.104 44.212,17.104C44.212,17.104 44.212,17.103 44.212,17.104C44.212,17.104 44.211,17.105 44.21,17.107C44.208,17.112 44.204,17.12 44.198,17.131C44.186,17.155 44.166,17.193 44.139,17.244C44.085,17.347 44,17.504 43.886,17.707C43.657,18.113 43.311,18.703 42.851,19.415C41.929,20.843 40.564,22.741 38.791,24.632C35.209,28.453 30.201,32 24,32L24,36C31.799,36 37.791,31.547 41.709,27.368C43.686,25.259 45.196,23.157 46.211,21.585C46.72,20.797 47.108,20.137 47.372,19.668C47.504,19.434 47.605,19.247 47.674,19.115C47.709,19.049 47.736,18.997 47.755,18.96C47.765,18.942 47.772,18.927 47.778,18.916C47.781,18.91 47.783,18.906 47.785,18.902C47.786,18.9 47.787,18.899 47.787,18.898C47.788,18.897 47.788,18.896 47.788,18.896C47.789,18.895 47.789,18.894 46,18ZM24,32C17.799,32 12.791,28.453 9.209,24.632C7.436,22.741 6.071,20.843 5.149,19.415C4.689,18.703 4.343,18.113 4.114,17.707C4,17.504 3.915,17.347 3.861,17.244C3.834,17.193 3.814,17.155 3.802,17.131C3.796,17.12 3.792,17.112 3.79,17.107C3.789,17.105 3.788,17.104 3.788,17.104C3.788,17.103 3.788,17.104 3.788,17.104C3.788,17.104 3.788,17.104 3.788,17.105C3.789,17.105 3.789,17.106 2,18C0.211,18.894 0.211,18.895 0.212,18.896C0.212,18.896 0.212,18.897 0.213,18.898C0.213,18.899 0.214,18.9 0.215,18.902C0.217,18.906 0.219,18.91 0.222,18.916C0.228,18.927 0.235,18.942 0.245,18.96C0.264,18.997 0.291,19.049 0.326,19.115C0.395,19.247 0.496,19.434 0.628,19.668C0.892,20.137 1.28,20.797 1.789,21.585C2.804,23.157 4.314,25.259 6.291,27.368C10.209,31.547 16.201,36 24,36L24,32Z" fill="#000000"/>
</svg>
