<svg width="16" height="28" viewBox="0 0 16 28" fill="none" xmlns="http://www.w3.org/2000/svg" xmlns:xlink="http://www.w3.org/1999/xlink">
<path d="M-0.414,24.586C-1.195,25.367 -1.195,26.633 -0.414,27.414C0.367,28.195 1.633,28.195 2.414,27.414L-0.414,24.586ZM13,14L14.414,15.414C15.195,14.633 15.195,13.367 14.414,12.586L13,14ZM2.414,0.586C1.633,-0.195 0.367,-0.195 -0.414,0.586C-1.195,1.367 -1.195,2.633 -0.414,3.414L2.414,0.586ZM2.414,27.414L14.414,15.414L11.586,12.586L-0.414,24.586L2.414,27.414ZM14.414,12.586L2.414,0.586L-0.414,3.414L11.586,15.414L14.414,12.586Z" fill="#5C5C5C"/>
</svg>
