<svg width="46" height="46" viewBox="0 0 46 46" fill="none" xmlns="http://www.w3.org/2000/svg" xmlns:xlink="http://www.w3.org/1999/xlink">
<path d="M34,27.636L37,30.636L37,20.5L34,20.5L34,27.636ZM39.25,20.5L42.25,20.5L42.25,31.75L39.25,31.75L39.25,20.5ZM32.074,8.693C31.227,9.685 30.727,10.927 30.648,12.229C30.57,13.531 30.917,14.823 31.638,15.911L32.197,16.75L35.803,16.75L34.134,14.247C33.774,13.704 33.601,13.059 33.64,12.41C33.68,11.76 33.929,11.141 34.352,10.645C35.225,9.63 35.731,8.351 35.79,7.013C35.85,5.675 35.458,4.356 34.678,3.268L34.129,2.5L30.7,2.5L30.529,2.622L32.236,5.012C32.626,5.555 32.821,6.213 32.792,6.88C32.762,7.548 32.509,8.186 32.074,8.693ZM38.824,8.693C37.977,9.685 37.477,10.927 37.398,12.229C37.32,13.531 37.667,14.823 38.388,15.911L38.947,16.75L42.553,16.75L40.884,14.247C40.524,13.704 40.351,13.059 40.39,12.41C40.43,11.76 40.679,11.141 41.102,10.645C41.975,9.63 42.481,8.351 42.54,7.013C42.6,5.675 42.208,4.356 41.428,3.268L40.879,2.5L37.45,2.5L37.279,2.622L38.986,5.012C39.376,5.555 39.571,6.213 39.542,6.88C39.512,7.548 39.259,8.186 38.824,8.693ZM22.621,20.5L1.621,-0.5L-0.5,-0.5L-0.5,1.621L18.379,20.5L-0.5,20.5L-0.5,31.75L29.629,31.75L42.379,44.5L44.5,44.5L44.5,42.379L22.621,20.5ZM2.5,28.75L2.5,23.5L21.379,23.5L26.629,28.75L2.5,28.75Z" fill="#010101"/>
</svg>
