<svg width="458" height="22" viewBox="0 0 458 22" fill="none" xmlns="http://www.w3.org/2000/svg" xmlns:xlink="http://www.w3.org/1999/xlink">
<path d="M0.333,10C0.333,15.891 5.109,20.667 11,20.667C16.891,20.667 21.667,15.891 21.667,10C21.667,4.109 16.891,-0.667 11,-0.667C5.109,-0.667 0.333,4.109 0.333,10ZM436.334,10C436.334,15.891 441.108,20.667 447,20.667C452.892,20.667 457.666,15.891 457.666,10C457.666,4.109 452.892,-0.667 447,-0.667C441.108,-0.667 436.334,4.109 436.334,10ZM11,12L447,12L447,8L11,8L11,12Z" transform="rotate(0 229 10)" fill="#FF1515"/>
</svg>
