<svg width="40" height="40" viewBox="0 0 40 40" fill="none" xmlns="http://www.w3.org/2000/svg" xmlns:xlink="http://www.w3.org/1999/xlink">
<path d="M39.986,19.961C39.986,21.347 38.944,22.432 37.764,22.432L35.542,22.432L35.59,34.765C35.59,34.973 35.576,35.181 35.556,35.389L35.556,36.628C35.556,38.33 34.312,39.708 32.778,39.708L31.667,39.708C31.59,39.708 31.514,39.708 31.438,39.7C31.34,39.708 31.243,39.708 31.146,39.708L27.222,39.708C25.688,39.708 24.444,38.33 24.444,36.628L24.444,29.853C24.444,28.491 23.451,27.39 22.222,27.39L17.778,27.39C16.549,27.39 15.556,28.491 15.556,29.853L15.556,36.628C15.556,38.33 14.313,39.708 12.778,39.708L8.896,39.708C8.792,39.708 8.688,39.7 8.583,39.692C8.5,39.7 8.417,39.708 8.333,39.708L7.222,39.708C5.688,39.708 4.444,38.33 4.444,36.628L4.444,28.006C4.444,27.937 4.444,27.86 4.451,27.79L4.451,22.432L2.222,22.432C0.972,22.432 0,21.354 0,19.961C0,19.268 0.208,18.652 0.694,18.113L18.5,0.907C18.986,0.368 19.542,0.291 20.028,0.291C20.514,0.291 21.069,0.445 21.486,0.83L39.222,18.113C39.778,18.652 40.056,19.268 39.986,19.961Z" fill="#010101"/>
</svg>
