<svg width="44" height="32" viewBox="0 0 44 32" fill="none" xmlns="http://www.w3.org/2000/svg" xmlns:xlink="http://www.w3.org/1999/xlink">
<path d="M32,4C32,3.172 31.328,2.5 30.5,2.5C29.672,2.5 29,3.172 29,4L32,4ZM29,5.5C29,6.328 29.672,7 30.5,7C31.328,7 32,6.328 32,5.5L29,5.5ZM32,11.5C32,10.672 31.328,10 30.5,10C29.672,10 29,10.672 29,11.5L32,11.5ZM29,13C29,13.828 29.672,14.5 30.5,14.5C31.328,14.5 32,13.828 32,13L29,13ZM32,19C32,18.172 31.328,17.5 30.5,17.5C29.672,17.5 29,18.172 29,19L32,19ZM29,20.5C29,21.328 29.672,22 30.5,22C31.328,22 32,21.328 32,20.5L29,20.5ZM32,26.5C32,25.672 31.328,25 30.5,25C29.672,25 29,25.672 29,26.5L32,26.5ZM29,28C29,28.828 29.672,29.5 30.5,29.5C31.328,29.5 32,28.828 32,28L29,28ZM12.5,16C11.672,16 11,16.672 11,17.5C11,18.328 11.672,19 12.5,19L12.5,16ZM23,19C23.828,19 24.5,18.328 24.5,17.5C24.5,16.672 23.828,16 23,16L23,19ZM12.5,20.5C11.672,20.5 11,21.172 11,22C11,22.828 11.672,23.5 12.5,23.5L12.5,20.5ZM18.5,23.5C19.328,23.5 20,22.828 20,22C20,21.172 19.328,20.5 18.5,20.5L18.5,23.5ZM2,10.802L0.5,10.802C0.5,11.339 0.787,11.834 1.252,12.102L2,10.802ZM5.005,16L3.505,16L5.005,16ZM2,21.198L1.252,19.898C0.787,20.166 0.5,20.661 0.5,21.198L2,21.198ZM41,21.198L42.5,21.198C42.5,20.661 42.213,20.166 41.748,19.898L41,21.198ZM41,10.802L41.748,12.102C42.213,11.834 42.5,11.339 42.5,10.802L41,10.802ZM29,4L29,5.5L32,5.5L32,4L29,4ZM29,11.5L29,13L32,13L32,11.5L29,11.5ZM29,19L29,20.5L32,20.5L32,19L29,19ZM29,26.5L29,28L32,28L32,26.5L29,26.5ZM12.5,19L23,19L23,16L12.5,16L12.5,19ZM12.5,23.5L18.5,23.5L18.5,20.5L12.5,20.5L12.5,23.5ZM4.25,1C2.18,1 0.5,2.68 0.5,4.75L3.5,4.75C3.5,4.336 3.836,4 4.25,4L4.25,1ZM0.5,4.75L0.5,10.802L3.5,10.802L3.5,4.75L0.5,4.75ZM1.252,12.102C1.937,12.496 2.506,13.064 2.901,13.749L5.498,12.247C4.839,11.106 3.89,10.16 2.748,9.502L1.252,12.102ZM2.901,13.749C3.297,14.433 3.505,15.21 3.505,16L6.505,16C6.505,14.682 6.158,13.388 5.498,12.247L2.901,13.749ZM3.505,16C3.505,16.79 3.297,17.567 2.901,18.251L5.498,19.753C6.158,18.612 6.505,17.318 6.505,16L3.505,16ZM2.901,18.251C2.506,18.936 1.937,19.504 1.252,19.898L2.748,22.498C3.89,21.84 4.839,20.894 5.498,19.753L2.901,18.251ZM0.5,21.198L0.5,27.25L3.5,27.25L3.5,21.198L0.5,21.198ZM0.5,27.25C0.5,29.32 2.18,31 4.25,31L4.25,28C3.836,28 3.5,27.664 3.5,27.25L0.5,27.25ZM4.25,31L38.75,31L38.75,28L4.25,28L4.25,31ZM38.75,31C40.82,31 42.5,29.32 42.5,27.25L39.5,27.25C39.5,27.664 39.164,28 38.75,28L38.75,31ZM42.5,27.25L42.5,21.198L39.5,21.198L39.5,27.25L42.5,27.25ZM41.748,19.898C41.063,19.504 40.494,18.936 40.099,18.251L37.502,19.753C38.161,20.894 39.11,21.84 40.252,22.498L41.748,19.898ZM40.099,18.251C39.703,17.567 39.495,16.79 39.495,16L36.495,16C36.495,17.318 36.842,18.612 37.502,19.753L40.099,18.251ZM39.495,16C39.495,15.21 39.703,14.433 40.099,13.749L37.502,12.247C36.842,13.388 36.495,14.682 36.495,16L39.495,16ZM40.099,13.749C40.494,13.064 41.063,12.496 41.748,12.102L40.252,9.502C39.11,10.16 38.161,11.106 37.502,12.247L40.099,13.749ZM42.5,10.802L42.5,4.75L39.5,4.75L39.5,10.802L42.5,10.802ZM42.5,4.75C42.5,2.68 40.82,1 38.75,1L38.75,4C39.164,4 39.5,4.336 39.5,4.75L42.5,4.75ZM38.75,1L4.25,1L4.25,4L38.75,4L38.75,1Z" fill="#010101"/>
</svg>
