<svg width="46" height="46" viewBox="0 0 46 46" fill="none" xmlns="http://www.w3.org/2000/svg" xmlns:xlink="http://www.w3.org/1999/xlink">
<path d="M41,5.5L36,5.5L36,0.5L11,0.5L11,5.5L6,5.5C3.25,5.5 1,7.75 1,10.5L1,13C1,19.375 5.8,24.575 11.975,25.35C12.766,27.223 14,28.876 15.573,30.165C17.145,31.455 19.008,32.342 21,32.75L21,40.5L11,40.5L11,45.5L36,45.5L36,40.5L26,40.5L26,32.75C27.992,32.342 29.855,31.455 31.427,30.165C32.999,28.876 34.234,27.223 35.025,25.35C41.2,24.575 46,19.375 46,13L46,10.5C46,7.75 43.75,5.5 41,5.5ZM6,13L6,10.5L11,10.5L11,20.05C8.1,19 6,16.25 6,13ZM23.5,28C19.375,28 16,24.625 16,20.5L16,5.5L31,5.5L31,20.5C31,24.625 27.625,28 23.5,28ZM41,13C41,16.25 38.9,19 36,20.05L36,10.5L41,10.5L41,13Z" fill="#010101" stroke="#FFFFFF" stroke-width="0.6" stroke-miterlimit="3.999327"/>
</svg>
