<svg width="42" height="28" viewBox="0 0 42 28" fill="none" xmlns="http://www.w3.org/2000/svg" xmlns:xlink="http://www.w3.org/1999/xlink">
<path d="M40.203,12.22L30.203,0.22C30.015,-0.006 29.78,-0.187 29.514,-0.312C29.248,-0.436 28.957,-0.5 28.663,-0.5L6.663,-0.5C5.072,-0.5 3.546,0.132 2.421,1.257C1.296,2.383 0.663,3.909 0.663,5.5L0.663,21.5C0.663,23.091 1.296,24.617 2.421,25.743C3.546,26.868 5.072,27.5 6.663,27.5L28.663,27.5C28.957,27.5 29.248,27.436 29.514,27.312C29.78,27.187 30.015,27.006 30.203,26.78L40.203,14.78C40.503,14.421 40.667,13.968 40.667,13.5C40.667,13.032 40.503,12.579 40.203,12.22ZM27.723,23.5L6.663,23.5C6.133,23.5 5.624,23.289 5.249,22.914C4.874,22.539 4.663,22.03 4.663,21.5L4.663,5.5C4.663,4.97 4.874,4.461 5.249,4.086C5.624,3.711 6.133,3.5 6.663,3.5L27.723,3.5L36.063,13.5L27.723,23.5ZM22.083,8.08C21.897,7.893 21.676,7.744 21.433,7.642C21.189,7.541 20.927,7.488 20.663,7.488C20.399,7.488 20.138,7.541 19.894,7.642C19.651,7.744 19.429,7.893 19.243,8.08L16.663,10.68L14.083,8.08C13.707,7.703 13.196,7.492 12.663,7.492C12.131,7.492 11.62,7.703 11.243,8.08C10.867,8.457 10.655,8.967 10.655,9.5C10.655,9.764 10.707,10.025 10.808,10.268C10.909,10.512 11.057,10.734 11.243,10.92L13.843,13.5L11.243,16.08C11.056,16.266 10.907,16.487 10.806,16.731C10.704,16.975 10.652,17.236 10.652,17.5C10.652,17.764 10.704,18.025 10.806,18.269C10.907,18.513 11.056,18.734 11.243,18.92C11.429,19.107 11.651,19.256 11.894,19.358C12.138,19.459 12.399,19.512 12.663,19.512C12.928,19.512 13.189,19.459 13.433,19.358C13.676,19.256 13.898,19.107 14.083,18.92L16.663,16.32L19.243,18.92C19.429,19.107 19.651,19.256 19.894,19.358C20.138,19.459 20.399,19.512 20.663,19.512C20.927,19.512 21.189,19.459 21.433,19.358C21.676,19.256 21.897,19.107 22.083,18.92C22.271,18.734 22.42,18.513 22.521,18.269C22.623,18.025 22.675,17.764 22.675,17.5C22.675,17.236 22.623,16.975 22.521,16.731C22.42,16.487 22.271,16.266 22.083,16.08L19.483,13.5L22.083,10.92C22.271,10.734 22.42,10.513 22.521,10.269C22.623,10.025 22.675,9.764 22.675,9.5C22.675,9.236 22.623,8.975 22.521,8.731C22.42,8.487 22.271,8.266 22.083,8.08Z" transform="rotate(-360 20.665 13.5)" fill="#010101" stroke="#FFFFFF" stroke-width="0.4" stroke-miterlimit="3.999327"/>
</svg>
