<svg width="82" height="90" viewBox="0 0 82 90" fill="none" xmlns="http://www.w3.org/2000/svg" xmlns:xlink="http://www.w3.org/1999/xlink">
<path d="M13,27C13,19.839 15.845,12.972 20.908,7.908C25.972,2.845 32.839,0 40,0C47.161,0 54.028,2.845 59.092,7.908C64.155,12.972 67,19.839 67,27L71.5,27C73.887,27 76.176,27.948 77.864,29.636C79.552,31.324 80.5,33.613 80.5,36L80.5,81C80.5,83.387 79.552,85.676 77.864,87.364C76.176,89.052 73.887,90 71.5,90L8.5,90C6.113,90 3.824,89.052 2.136,87.364C0.448,85.676 -0.5,83.387 -0.5,81L-0.5,36C-0.5,33.613 0.448,31.324 2.136,29.636C3.824,27.948 6.113,27 8.5,27L13,27ZM40,9C44.774,9 49.352,10.896 52.728,14.272C56.104,17.648 58,22.226 58,27L22,27C22,22.226 23.896,17.648 27.272,14.272C30.648,10.896 35.226,9 40,9ZM49,54C49,55.58 48.584,57.132 47.794,58.5C47.004,59.868 45.868,61.004 44.5,61.794L44.5,67.5C44.5,68.693 44.026,69.838 43.182,70.682C42.338,71.526 41.193,72 40,72C38.807,72 37.662,71.526 36.818,70.682C35.974,69.838 35.5,68.693 35.5,67.5L35.5,61.794C33.784,60.803 32.443,59.274 31.685,57.444C30.927,55.614 30.794,53.584 31.307,51.671C31.82,49.757 32.95,48.066 34.521,46.86C36.093,45.654 38.019,45 40,45C42.387,45 44.676,45.948 46.364,47.636C48.052,49.324 49,51.613 49,54Z" clip-rule="evenodd" fill-rule="evenodd" fill="#010101"/>
</svg>
