<svg width="28" height="36" viewBox="0 0 28 36" fill="none" xmlns="http://www.w3.org/2000/svg" xmlns:xlink="http://www.w3.org/1999/xlink">
<path d="M19.25,11.5C18.422,11.5 17.75,12.172 17.75,13C17.75,13.828 18.422,14.5 19.25,14.5L19.25,11.5ZM22.375,13L22.375,11.5L22.375,13ZM3.625,34.25L3.625,32.75L3.625,34.25ZM0.5,31.125L-1,31.125L0.5,31.125ZM0.5,16.125L-1,16.125L0.5,16.125ZM3.625,13L3.625,14.5L3.625,13ZM6.75,14.5C7.578,14.5 8.25,13.828 8.25,13C8.25,12.172 7.578,11.5 6.75,11.5L6.75,14.5ZM18.189,9.061C18.775,9.646 19.725,9.646 20.311,9.061C20.896,8.475 20.896,7.525 20.311,6.939L18.189,9.061ZM13,1.75L14.061,0.689C13.475,0.104 12.525,0.104 11.939,0.689L13,1.75ZM5.689,6.939C5.104,7.525 5.104,8.475 5.689,9.061C6.275,9.646 7.225,9.646 7.811,9.061L5.689,6.939ZM11.5,23.078C11.5,23.907 12.172,24.578 13,24.578C13.828,24.578 14.5,23.907 14.5,23.078L11.5,23.078ZM19.25,14.5L22.375,14.5L22.375,11.5L19.25,11.5L19.25,14.5ZM22.375,14.5C22.806,14.5 23.219,14.671 23.524,14.976L25.645,12.855C24.778,11.987 23.602,11.5 22.375,11.5L22.375,14.5ZM23.524,14.976C23.829,15.281 24,15.694 24,16.125L27,16.125C27,14.898 26.513,13.722 25.645,12.855L23.524,14.976ZM24,16.125L24,31.125L27,31.125L27,16.125L24,16.125ZM24,31.125C24,31.556 23.829,31.969 23.524,32.274L25.645,34.395C26.513,33.528 27,32.352 27,31.125L24,31.125ZM23.524,32.274C23.219,32.579 22.806,32.75 22.375,32.75L22.375,35.75C23.602,35.75 24.778,35.263 25.645,34.395L23.524,32.274ZM22.375,32.75L3.625,32.75L3.625,35.75L22.375,35.75L22.375,32.75ZM3.625,32.75C3.194,32.75 2.781,32.579 2.476,32.274L0.355,34.395C1.222,35.263 2.398,35.75 3.625,35.75L3.625,32.75ZM2.476,32.274C2.171,31.969 2,31.556 2,31.125L-1,31.125C-1,32.352 -0.513,33.528 0.355,34.395L2.476,32.274ZM2,31.125L2,16.125L-1,16.125L-1,31.125L2,31.125ZM2,16.125C2,15.694 2.171,15.281 2.476,14.976L0.355,12.855C-0.513,13.722 -1,14.898 -1,16.125L2,16.125ZM2.476,14.976C2.781,14.671 3.194,14.5 3.625,14.5L3.625,11.5C2.398,11.5 1.222,11.987 0.355,12.855L2.476,14.976ZM3.625,14.5L6.75,14.5L6.75,11.5L3.625,11.5L3.625,14.5ZM20.311,6.939L14.061,0.689L11.939,2.811L18.189,9.061L20.311,6.939ZM11.939,0.689L5.689,6.939L7.811,9.061L14.061,2.811L11.939,0.689ZM14.5,23.078L14.5,1.75L11.5,1.75L11.5,23.078L14.5,23.078Z" fill="#010101"/>
</svg>
