<svg width="16" height="12" viewBox="0 0 16 12" fill="none" xmlns="http://www.w3.org/2000/svg" xmlns:xlink="http://www.w3.org/1999/xlink">
<path d="M3.061,4.939C2.475,4.354 1.525,4.354 0.939,4.939C0.354,5.525 0.354,6.475 0.939,7.061L3.061,4.939ZM6,10L4.939,11.061C5.525,11.646 6.475,11.646 7.061,11.061L6,10ZM15.061,3.061C15.646,2.475 15.646,1.525 15.061,0.939C14.475,0.354 13.525,0.354 12.939,0.939L15.061,3.061ZM0.939,7.061L4.939,11.061L7.061,8.939L3.061,4.939L0.939,7.061ZM7.061,11.061L15.061,3.061L12.939,0.939L4.939,8.939L7.061,11.061Z" fill="#010101"/>
</svg>
