<svg width="42" height="42" viewBox="0 0 42 42" fill="none" xmlns="http://www.w3.org/2000/svg" xmlns:xlink="http://www.w3.org/1999/xlink">
<path d="M41.847,15.236C41.659,14.659 41.305,14.151 40.83,13.776C40.354,13.4 39.777,13.173 39.173,13.125L28.111,12.232L23.839,1.903C23.608,1.34 23.215,0.859 22.71,0.52C22.205,0.181 21.61,0 21.002,0C20.393,0 19.798,0.181 19.293,0.52C18.788,0.859 18.395,1.34 18.164,1.903L13.896,12.23L2.828,13.125C2.223,13.176 1.646,13.405 1.17,13.782C0.694,14.16 0.34,14.669 0.153,15.247C-0.035,15.825 -0.048,16.445 0.116,17.03C0.279,17.615 0.611,18.139 1.071,18.536L9.509,25.817L6.938,36.703C6.794,37.294 6.83,37.915 7.039,38.486C7.249,39.058 7.624,39.554 8.116,39.912C8.608,40.27 9.196,40.474 9.804,40.497C10.412,40.521 11.013,40.363 11.532,40.044L21.001,34.217L30.475,40.044C30.994,40.359 31.594,40.514 32.2,40.489C32.806,40.463 33.392,40.259 33.882,39.902C34.373,39.545 34.747,39.05 34.957,38.481C35.167,37.912 35.204,37.293 35.063,36.703L32.483,25.815L40.921,18.534C41.384,18.138 41.72,17.613 41.884,17.026C42.049,16.439 42.036,15.816 41.847,15.236ZM38.971,16.262L29.839,24.137C29.631,24.316 29.476,24.549 29.392,24.811C29.307,25.072 29.296,25.352 29.359,25.62L32.149,37.395C32.157,37.411 32.157,37.429 32.151,37.446C32.145,37.463 32.133,37.477 32.118,37.485C32.084,37.511 32.074,37.505 32.046,37.485L21.786,31.175C21.55,31.03 21.278,30.953 21.001,30.953C20.723,30.953 20.451,31.03 20.215,31.175L9.955,37.488C9.927,37.505 9.919,37.511 9.884,37.488C9.868,37.48 9.856,37.467 9.85,37.45C9.844,37.433 9.845,37.415 9.852,37.398L12.642,25.623C12.705,25.356 12.694,25.076 12.61,24.815C12.525,24.553 12.37,24.32 12.162,24.14L3.031,16.265C3.008,16.247 2.987,16.23 3.006,16.172C3.025,16.113 3.04,16.121 3.068,16.117L15.053,15.15C15.328,15.126 15.591,15.027 15.813,14.864C16.036,14.7 16.209,14.479 16.313,14.224L20.929,3.047C20.944,3.015 20.95,3 20.995,3C21.04,3 21.046,3.015 21.061,3.047L25.688,14.224C25.794,14.479 25.968,14.7 26.191,14.863C26.414,15.026 26.678,15.124 26.954,15.146L38.939,16.113C38.967,16.113 38.984,16.113 39.001,16.168C39.018,16.222 39.001,16.243 38.971,16.262Z" fill="#010101"/>
</svg>
