<svg width="36" height="34" viewBox="0 0 36 34" fill="none" xmlns="http://www.w3.org/2000/svg" xmlns:xlink="http://www.w3.org/1999/xlink">
<path d="M34.039,12.197C33.882,11.716 33.588,11.293 33.191,10.98C32.795,10.667 32.314,10.478 31.811,10.437L22.592,9.694L19.032,1.086C18.84,0.617 18.512,0.215 18.091,-0.067C17.67,-0.349 17.175,-0.5 16.668,-0.5C16.161,-0.5 15.665,-0.349 15.244,-0.067C14.823,0.215 14.495,0.617 14.303,1.086L10.747,9.692L1.523,10.437C1.019,10.48 0.538,10.671 0.142,10.985C-0.255,11.3 -0.55,11.724 -0.706,12.206C-0.863,12.687 -0.873,13.204 -0.737,13.692C-0.601,14.179 -0.324,14.616 0.059,14.947L7.09,21.014L4.948,30.086C4.828,30.579 4.858,31.096 5.032,31.572C5.207,32.048 5.519,32.462 5.93,32.76C6.34,33.058 6.829,33.228 7.336,33.248C7.843,33.267 8.344,33.136 8.776,32.87L16.667,28.014L24.562,32.87C24.994,33.133 25.495,33.262 26,33.241C26.505,33.22 26.993,33.049 27.402,32.752C27.81,32.454 28.122,32.042 28.297,31.568C28.472,31.093 28.503,30.578 28.386,30.086L26.236,21.012L33.267,14.945C33.653,14.615 33.933,14.177 34.07,13.688C34.207,13.199 34.197,12.68 34.039,12.197ZM31.642,13.051L24.033,19.614C23.859,19.763 23.73,19.958 23.659,20.176C23.589,20.394 23.58,20.627 23.633,20.85L25.958,30.662C25.964,30.676 25.964,30.691 25.959,30.705C25.954,30.719 25.944,30.731 25.931,30.737C25.903,30.759 25.895,30.754 25.872,30.737L17.322,25.479C17.125,25.358 16.898,25.294 16.667,25.294C16.436,25.294 16.209,25.358 16.012,25.479L7.462,30.74C7.439,30.754 7.432,30.759 7.403,30.74C7.39,30.734 7.379,30.722 7.375,30.708C7.37,30.694 7.37,30.679 7.376,30.665L9.701,20.853C9.754,20.63 9.745,20.397 9.674,20.179C9.604,19.961 9.475,19.767 9.301,19.617L1.692,13.054C1.673,13.039 1.656,13.025 1.672,12.976C1.687,12.928 1.7,12.934 1.723,12.931L11.711,12.125C11.94,12.105 12.159,12.023 12.344,11.887C12.529,11.75 12.674,11.566 12.761,11.353L16.607,2.039C16.62,2.012 16.625,2 16.662,2C16.7,2 16.704,2.012 16.717,2.039L20.573,11.353C20.661,11.566 20.806,11.75 20.992,11.886C21.178,12.022 21.398,12.103 21.628,12.122L31.615,12.928C31.639,12.928 31.653,12.928 31.667,12.973C31.681,13.019 31.667,13.036 31.642,13.051Z" fill="#010101"/>
</svg>
