<svg width="80" height="50" viewBox="0 0 80 50" fill="none" xmlns="http://www.w3.org/2000/svg" xmlns:xlink="http://www.w3.org/1999/xlink">
<path d="M7.987,0.034L6.512,0.044C6.024,0.06 5.527,0.086 5.043,0.174C4.311,0.289 3.617,0.577 3.018,1.013C2.419,1.449 1.933,2.021 1.598,2.683C1.371,3.131 1.228,3.586 1.143,4.08C1.052,4.561 1.023,5.055 1.013,5.543L1,6.222L1,43.782C1,44.007 1.003,44.232 1.01,44.455C1.023,44.942 1.052,45.439 1.14,45.924C1.224,46.409 1.378,46.874 1.601,47.318C2.05,48.2 2.767,48.917 3.649,49.365C4.097,49.593 4.552,49.739 5.046,49.827C5.527,49.915 6.021,49.944 6.509,49.957L7.185,49.967L72.815,49.967L73.488,49.957C73.976,49.944 74.473,49.915 74.957,49.827C75.441,49.739 75.903,49.596 76.348,49.369C77.233,48.921 77.951,48.203 78.399,47.318C78.626,46.869 78.772,46.414 78.857,45.92C78.945,45.439 78.974,44.945 78.987,44.458C78.993,44.233 78.997,44.007 78.997,43.782L79,42.982L79,6.219C79,5.993 78.996,5.769 78.987,5.546C78.981,5.054 78.937,4.562 78.857,4.077C78.7,3.099 78.238,2.195 77.538,1.495C76.838,0.794 75.935,0.332 74.957,0.174C74.471,0.093 73.98,0.05 73.488,0.044C72.997,0.03 72.507,0.027 72.016,0.034L7.987,0.034ZM7.987,1.698L72.799,1.698C73.011,1.698 73.225,1.701 73.439,1.708C73.813,1.721 74.252,1.74 74.658,1.812C75.012,1.877 75.308,1.974 75.591,2.117C76.16,2.407 76.624,2.87 76.913,3.44C77.062,3.734 77.165,4.05 77.219,4.376C77.29,4.776 77.31,5.214 77.32,5.591C77.326,5.801 77.329,6.015 77.329,6.232L77.329,43.775C77.329,43.986 77.326,44.198 77.32,44.412C77.31,44.786 77.291,45.225 77.216,45.631C77.145,46.109 76.96,46.563 76.677,46.955C76.395,47.347 76.022,47.665 75.591,47.883C75.298,48.032 74.985,48.135 74.661,48.189C74.26,48.249 73.855,48.284 73.449,48.293L72.799,48.303L7.194,48.303C6.978,48.303 6.765,48.299 6.558,48.293C6.149,48.284 5.742,48.249 5.339,48.189C4.985,48.124 4.689,48.026 4.403,47.883C3.83,47.599 3.367,47.134 3.083,46.561C2.934,46.266 2.831,45.95 2.778,45.625C2.713,45.224 2.678,44.819 2.674,44.412L2.667,43.772L2.667,6.228L2.674,5.588C2.687,5.218 2.706,4.782 2.778,4.369C2.843,4.018 2.94,3.723 3.083,3.437C3.374,2.868 3.837,2.406 4.406,2.117C4.7,1.969 5.014,1.866 5.339,1.812C5.745,1.74 6.184,1.717 6.558,1.708L7.194,1.698L7.987,1.698ZM23.295,13.723C22.32,13.775 21.124,14.37 20.435,15.205C19.814,15.92 19.265,17.09 19.408,18.188C20.506,18.286 21.602,17.639 22.294,16.83C22.96,15.991 23.415,14.87 23.295,13.726L23.295,13.723ZM30.468,15.088L30.468,32.94L33.237,32.94L33.237,26.84L37.072,26.84C40.575,26.84 43.035,24.438 43.035,20.951C43.035,17.473 40.624,15.085 37.16,15.085L30.468,15.088ZM33.237,17.425L36.428,17.425C38.83,17.425 40.201,18.712 40.201,20.964C40.201,23.213 38.83,24.513 36.418,24.513L33.237,24.513L33.237,17.425ZM22.986,18.4C21.524,18.432 20.289,19.31 19.574,19.31C18.81,19.31 17.647,18.452 16.386,18.474C15.566,18.496 14.765,18.731 14.064,19.157C13.363,19.583 12.785,20.184 12.388,20.902C10.675,23.853 11.936,28.231 13.603,30.636C14.413,31.825 15.388,33.135 16.672,33.086C17.884,33.041 18.362,32.3 19.834,32.3C21.309,32.3 21.738,33.086 23.019,33.063C24.351,33.041 25.187,31.874 25.993,30.681C26.922,29.326 27.302,28.016 27.325,27.948C27.302,27.922 24.757,26.947 24.735,24.019C24.709,21.568 26.733,20.401 26.828,20.33C25.684,18.64 23.903,18.452 23.285,18.403L22.986,18.4ZM49.649,19.69C46.432,19.69 44.43,21.422 44.28,23.772L46.806,23.772C47.04,22.608 48.005,21.867 49.552,21.867C51.183,21.867 52.161,22.732 52.161,24.178L52.161,25.182L48.596,25.39C45.506,25.566 43.76,26.963 43.76,29.238C43.76,31.578 45.541,33.161 48.089,33.161C49.799,33.161 51.443,32.248 52.197,30.798L52.259,30.798L52.259,32.94L54.82,32.94L54.82,23.97C54.82,21.36 52.805,19.69 49.649,19.69ZM55.954,19.924L60.654,32.953C60.654,32.963 60.417,33.733 60.417,33.756C60.01,35.088 59.344,35.611 58.106,35.611C57.881,35.611 57.436,35.611 57.238,35.563L57.238,37.727C57.433,37.763 58.106,37.789 58.327,37.789C61.024,37.789 62.311,36.775 63.423,33.619L68.298,19.924L65.477,19.924L62.188,30.515L62.139,30.515L58.847,19.921L55.954,19.924ZM52.161,27.038L52.161,28.065C52.161,29.758 50.699,31.045 48.833,31.045C47.397,31.045 46.458,30.304 46.458,29.163C46.458,28.052 47.361,27.343 48.957,27.236L52.161,27.038Z" fill="#010101"/>
</svg>
