<svg width="42" height="36" viewBox="0 0 42 36" fill="none" xmlns="http://www.w3.org/2000/svg" xmlns:xlink="http://www.w3.org/1999/xlink">
<path d="M15,18C17.387,18 19.676,17.052 21.364,15.364C23.052,13.676 24,11.387 24,9C24,6.613 23.052,4.324 21.364,2.636C19.676,0.948 17.387,0 15,0C12.613,0 10.324,0.948 8.636,2.636C6.948,4.324 6,6.613 6,9C6,11.387 6.948,13.676 8.636,15.364C10.324,17.052 12.613,18 15,18ZM38,12C38,13.591 37.368,15.117 36.243,16.243C35.117,17.368 33.591,18 32,18C30.409,18 28.883,17.368 27.757,16.243C26.632,15.117 26,13.591 26,12C26,10.409 26.632,8.883 27.757,7.757C28.883,6.632 30.409,6 32,6C33.591,6 35.117,6.632 36.243,7.757C37.368,8.883 38,10.409 38,12ZM15,20C18.986,20 22.61,21.216 25.274,22.932C26.608,23.792 27.75,24.806 28.58,25.912C29.394,27.002 30,28.312 30,29.714C30,31.224 29.3,32.434 28.272,33.308C27.302,34.128 26.038,34.66 24.732,35.026C22.106,35.76 18.632,36 15,36C11.368,36 7.894,35.76 5.27,35.026C3.962,34.66 2.698,34.128 1.73,33.308C0.698,32.436 0,31.224 0,29.714C0,28.31 0.606,27.002 1.42,25.914C2.25,24.806 3.392,23.79 4.726,22.934C7.39,21.214 11.014,20 15,20ZM32,20C34.64,20 37.036,20.872 38.8,22.102C40.444,23.248 42,25.056 42,27.142C42,28.316 41.494,29.288 40.724,29.994C40.01,30.65 39.106,31.05 38.236,31.314C36.496,31.84 34.256,32 32,32L31.594,32C31.854,31.304 32,30.54 32,29.714C32,27.734 31.154,26.014 30.18,24.714C29.208,23.416 27.92,22.274 26.482,21.332C28.19,20.457 30.081,20.001 32,20Z" fill="#010101"/>
</svg>
