<svg width="38" height="38" viewBox="0 0 38 38" fill="none" xmlns="http://www.w3.org/2000/svg" xmlns:xlink="http://www.w3.org/1999/xlink">
<path d="M4,1L32,1L32,-1L4,-1L4,1ZM32,1C33.657,1 35,2.343 35,4L37,4C37,1.239 34.761,-1 32,-1L32,1ZM35,4L35,32L37,32L37,4L35,4ZM35,32C35,33.657 33.657,35 32,35L32,37C34.761,37 37,34.761 37,32L35,32ZM32,35L4,35L4,37L32,37L32,35ZM4,35C2.343,35 1,33.657 1,32L-1,32C-1,34.761 1.239,37 4,37L4,35ZM1,32L1,4L-1,4L-1,32L1,32ZM1,4C1,2.343 2.343,1 4,1L4,-1C1.239,-1 -1,1.239 -1,4L1,4Z" fill="#5C5C5C"/>
</svg>
