<svg width="38" height="42" viewBox="0 0 38 42" fill="none" xmlns="http://www.w3.org/2000/svg" xmlns:xlink="http://www.w3.org/1999/xlink">
<path d="M29.902,12.572L33.259,12.572L33.646,12.112C33.899,11.81 34.091,11.461 34.209,11.086C34.328,10.71 34.371,10.314 34.337,9.922C34.302,9.529 34.191,9.147 34.009,8.798C33.827,8.448 33.578,8.138 33.276,7.885L25.397,1.274C25.095,1.021 24.746,0.83 24.37,0.711C23.995,0.593 23.599,0.549 23.206,0.584C22.814,0.618 22.432,0.729 22.082,0.912C21.733,1.094 21.423,1.343 21.169,1.645L12,12.572L15.356,12.572L23.139,3.297C23.212,3.21 23.317,3.156 23.43,3.146C23.543,3.136 23.656,3.171 23.743,3.244L25.268,4.521L18.514,12.572L21.869,12.572L27.236,6.176L31.623,9.854C31.71,9.928 31.764,10.032 31.774,10.145C31.783,10.259 31.748,10.371 31.675,10.458L29.902,12.572ZM26.143,26.286C25.802,26.286 25.475,26.421 25.233,26.662C24.992,26.903 24.857,27.23 24.857,27.571C24.857,27.912 24.992,28.239 25.233,28.481C25.475,28.722 25.802,28.857 26.143,28.857L30.428,28.857C30.769,28.857 31.096,28.722 31.337,28.481C31.579,28.239 31.714,27.912 31.714,27.571C31.714,27.23 31.579,26.903 31.337,26.662C31.096,26.421 30.769,26.286 30.428,26.286L26.143,26.286ZM3.428,8.286L13.354,8.286L11.194,10.857L3.428,10.857C2.974,10.857 2.538,11.038 2.216,11.359C1.895,11.681 1.714,12.117 1.714,12.572C1.714,13.026 1.895,13.462 2.216,13.784C2.538,14.105 2.974,14.286 3.428,14.286L30.428,14.286C32.133,14.286 33.768,14.963 34.974,16.169C36.18,17.374 36.857,19.009 36.857,20.714L36.857,34.429C36.857,36.134 36.18,37.769 34.974,38.974C33.768,40.18 32.133,40.857 30.428,40.857L5.571,40.857C3.866,40.857 2.231,40.18 1.025,38.974C-0.18,37.769 -0.857,36.134 -0.857,34.429L-0.857,12.572C-0.857,11.435 -0.406,10.345 0.398,9.541C1.202,8.737 2.292,8.286 3.428,8.286ZM1.714,16.501L1.714,34.429C1.714,35.452 2.12,36.433 2.844,37.156C3.567,37.879 4.548,38.286 5.571,38.286L30.428,38.286C31.451,38.286 32.432,37.879 33.156,37.156C33.879,36.433 34.285,35.452 34.285,34.429L34.285,20.714C34.285,19.691 33.879,18.71 33.156,17.987C32.432,17.264 31.451,16.857 30.428,16.857L3.428,16.857C2.818,16.857 2.239,16.73 1.714,16.501Z" fill="#010101"/>
</svg>
