<svg width="24" height="30" viewBox="0 0 24 30" fill="none" xmlns="http://www.w3.org/2000/svg" xmlns:xlink="http://www.w3.org/1999/xlink">
<path d="M22.42,-0.289C22.547,-0.362 22.691,-0.399 22.837,-0.399C22.983,-0.398 23.126,-0.359 23.252,-0.286C23.379,-0.213 23.483,-0.107 23.556,0.019C23.629,0.146 23.667,0.29 23.667,0.436L23.667,27.562C23.667,27.708 23.628,27.852 23.555,27.978C23.483,28.105 23.378,28.21 23.252,28.283C23.125,28.356 22.982,28.395 22.836,28.395C22.69,28.396 22.547,28.358 22.42,28.286L18.66,26.139C18.408,25.995 18.123,25.92 17.833,25.92C17.544,25.92 17.259,25.995 17.007,26.139L13.323,28.242C12.92,28.473 12.464,28.594 12,28.594C11.536,28.594 11.08,28.473 10.677,28.242L6.993,26.139C6.742,25.995 6.457,25.92 6.167,25.92C5.877,25.92 5.592,25.995 5.34,26.139L1.58,28.287C1.453,28.36 1.31,28.398 1.164,28.397C1.018,28.397 0.874,28.358 0.748,28.284C0.622,28.211 0.517,28.105 0.444,27.979C0.371,27.852 0.333,27.708 0.333,27.562L0.333,0.436C0.333,0.29 0.371,0.146 0.444,0.019C0.517,-0.107 0.622,-0.213 0.748,-0.286C0.874,-0.359 1.018,-0.398 1.164,-0.399C1.31,-0.399 1.453,-0.362 1.58,-0.289L5.34,1.861C5.592,2.005 5.877,2.08 6.167,2.08C6.457,2.08 6.742,2.005 6.993,1.861L10.677,-0.244C11.08,-0.475 11.536,-0.596 12,-0.596C12.464,-0.596 12.92,-0.475 13.323,-0.244L17.007,1.859C17.259,2.003 17.544,2.079 17.833,2.079C18.123,2.079 18.408,2.003 18.66,1.859L22.42,-0.289ZM7.833,8.999C7.612,8.999 7.401,9.087 7.244,9.243C7.088,9.4 7,9.611 7,9.832C7,10.053 7.088,10.265 7.244,10.422C7.401,10.578 7.612,10.666 7.833,10.666L16.167,10.666C16.388,10.666 16.6,10.578 16.756,10.422C16.912,10.265 17,10.053 17,9.832C17,9.611 16.912,9.4 16.756,9.243C16.6,9.087 16.388,8.999 16.167,8.999L7.833,8.999ZM7.833,13.166C7.612,13.166 7.401,13.254 7.244,13.41C7.088,13.566 7,13.778 7,13.999C7,14.22 7.088,14.432 7.244,14.588C7.401,14.745 7.612,14.832 7.833,14.832L16.167,14.832C16.388,14.832 16.6,14.745 16.756,14.588C16.912,14.432 17,14.22 17,13.999C17,13.778 16.912,13.566 16.756,13.41C16.6,13.254 16.388,13.166 16.167,13.166L7.833,13.166ZM7.833,17.332C7.612,17.332 7.401,17.42 7.244,17.577C7.088,17.733 7,17.945 7,18.166C7,18.387 7.088,18.599 7.244,18.755C7.401,18.911 7.612,18.999 7.833,18.999L16.167,18.999C16.388,18.999 16.6,18.911 16.756,18.755C16.912,18.599 17,18.387 17,18.166C17,17.945 16.912,17.733 16.756,17.577C16.6,17.42 16.388,17.332 16.167,17.332L7.833,17.332Z" clip-rule="evenodd" fill-rule="evenodd" fill="#010101"/>
</svg>
