<svg width="44" height="44" viewBox="0 0 44 44" fill="none" xmlns="http://www.w3.org/2000/svg" xmlns:xlink="http://www.w3.org/1999/xlink">
<path d="M40,21.25C40,31.191 31.941,39.25 22,39.25L22,43.25C34.15,43.25 44,33.4 44,21.25L40,21.25ZM22,39.25C12.059,39.25 4,31.191 4,21.25L0,21.25C0,33.4 9.85,43.25 22,43.25L22,39.25ZM4,21.25C4,11.309 12.059,3.25 22,3.25L22,-0.75C9.85,-0.75 0,9.1 0,21.25L4,21.25ZM22,3.25C31.941,3.25 40,11.309 40,21.25L44,21.25C44,9.1 34.15,-0.75 22,-0.75L22,3.25Z" fill="#FFFFFF"/>
</svg>
