<svg width="40" height="36" viewBox="0 0 40 36" fill="none" xmlns="http://www.w3.org/2000/svg" xmlns:xlink="http://www.w3.org/1999/xlink">
<path d="M24.748,18.25C24.528,18.25 24.298,18.213 24.078,18.14C23.665,18.009 23.305,17.748 23.051,17.396C22.797,17.045 22.662,16.621 22.667,16.188L22.667,13.612C20.595,13.282 19,11.476 19,9.313L19,3.354C19,0.952 20.953,-1 23.354,-1L33.896,-1C36.298,-1 38.25,0.952 38.25,3.354L38.25,9.313C38.25,11.714 36.298,13.667 33.896,13.667L29.203,13.667L26.379,17.425C25.976,17.957 25.38,18.25 24.748,18.25ZM23.354,1.292C22.218,1.292 21.292,2.217 21.292,3.354L21.292,9.313C21.292,10.449 22.218,11.375 23.354,11.375L24.958,11.375L24.958,15.5L28.057,11.375L33.905,11.375C35.042,11.375 35.967,10.449 35.967,9.313L35.967,3.354C35.967,2.217 35.042,1.292 33.905,1.292L23.354,1.292ZM11.667,20.542C7.872,20.542 4.792,17.462 4.792,13.667C4.792,9.872 7.872,6.792 11.667,6.792C15.462,6.792 18.542,9.872 18.542,13.667C18.542,17.462 15.462,20.542 11.667,20.542ZM11.667,9.083C9.137,9.083 7.083,11.137 7.083,13.667C7.083,16.197 9.137,18.25 11.667,18.25C14.197,18.25 16.25,16.197 16.25,13.667C16.25,11.137 14.197,9.083 11.667,9.083ZM-0.25,27.224C-0.25,27.307 -0.113,35.667 11.667,35.667C23.446,35.667 23.583,27.307 23.583,27.224L23.583,26.271C23.583,24.373 22.043,22.833 20.146,22.833L3.188,22.833C1.29,22.833 -0.25,24.373 -0.25,26.271L-0.25,27.224ZM2.042,26.271C2.042,25.638 2.555,25.125 3.188,25.125L20.146,25.125C20.778,25.125 21.292,25.638 21.292,26.271L21.292,27.215C21.292,27.462 21.09,33.375 11.667,33.375C2.243,33.375 2.042,27.463 2.042,27.224L2.042,26.271Z" fill="#010101"/>
</svg>
