<svg width="46" height="36" viewBox="0 0 46 36" fill="none" xmlns="http://www.w3.org/2000/svg" xmlns:xlink="http://www.w3.org/1999/xlink">
<path d="M23,19C26.746,19 30.14,20.24 32.63,21.974C34.996,23.624 37,26.076 37,28.714C37,30.162 36.382,31.362 35.408,32.254C34.492,33.096 33.296,33.642 32.064,34.014C29.602,34.76 26.36,35 23,35C19.64,35 16.398,34.76 13.936,34.014C12.704,33.642 11.508,33.096 10.59,32.254C9.62,31.364 9,30.164 9,28.716C9,26.078 11.004,23.626 13.37,21.976C15.86,20.24 19.254,19 23,19ZM23,23C20.12,23 17.514,23.96 15.66,25.254C13.682,26.634 13,28.038 13,28.714C13,29.322 13.704,29.702 14.344,29.942L14.754,30.082L15.094,30.186C16.974,30.754 19.734,31 23,31C26.016,31 28.598,30.79 30.456,30.312L31.064,30.138L31.444,30.018C32.13,29.784 33,29.39 33,28.714C33,28.038 32.318,26.634 30.34,25.254C28.488,23.962 25.88,23 23,23ZM37,21C39.088,21 40.984,21.69 42.386,22.666C43.666,23.56 45,25.046 45,26.858C45,29.528 42.406,30.484 40.074,30.818L39.474,30.892L38.896,30.942C38.804,30.948 38.712,30.953 38.62,30.958C38.864,30.268 39,29.518 39,28.714C38.999,28.116 38.927,27.519 38.786,26.938C39.558,26.878 40.192,26.778 40.664,26.636C40.872,26.572 40.684,26.376 40.464,26.206L40.25,26.05L40.098,25.948C39.498,25.538 38.821,25.254 38.108,25.112C37.348,23.592 36.18,22.276 34.936,21.226C35.614,21.076 36.306,21 37,21ZM9,21C9.714,21 10.406,21.08 11.064,21.226C9.82,22.276 8.652,23.592 7.892,25.112C7.179,25.254 6.502,25.538 5.902,25.948L5.646,26.124C5.392,26.308 5.094,26.564 5.336,26.636C5.808,26.778 6.442,26.88 7.216,26.938C7.073,27.519 7.001,28.115 7,28.714C7,29.518 7.136,30.268 7.38,30.958L6.82,30.918L6.228,30.858C3.824,30.564 1,29.644 1,26.858C1,25.048 2.332,23.56 3.614,22.666C5.2,21.579 7.078,20.998 9,21ZM36,9C37.326,9 38.598,9.527 39.536,10.464C40.473,11.402 41,12.674 41,14C41,15.326 40.473,16.598 39.536,17.536C38.598,18.473 37.326,19 36,19C34.674,19 33.402,18.473 32.464,17.536C31.527,16.598 31,15.326 31,14C31,12.674 31.527,11.402 32.464,10.464C33.402,9.527 34.674,9 36,9ZM10,9C11.326,9 12.598,9.527 13.536,10.464C14.473,11.402 15,12.674 15,14C15,15.326 14.473,16.598 13.536,17.536C12.598,18.473 11.326,19 10,19C8.674,19 7.402,18.473 6.464,17.536C5.527,16.598 5,15.326 5,14C5,12.674 5.527,11.402 6.464,10.464C7.402,9.527 8.674,9 10,9ZM23,1C25.122,1 27.157,1.843 28.657,3.343C30.157,4.843 31,6.878 31,9C31,11.122 30.157,13.157 28.657,14.657C27.157,16.157 25.122,17 23,17C20.878,17 18.843,16.157 17.343,14.657C15.843,13.157 15,11.122 15,9C15,6.878 15.843,4.843 17.343,3.343C18.843,1.843 20.878,1 23,1ZM36,13C35.735,13 35.48,13.105 35.293,13.293C35.105,13.48 35,13.735 35,14C35,14.265 35.105,14.52 35.293,14.707C35.48,14.895 35.735,15 36,15C36.265,15 36.52,14.895 36.707,14.707C36.895,14.52 37,14.265 37,14C37,13.735 36.895,13.48 36.707,13.293C36.52,13.105 36.265,13 36,13ZM10,13C9.735,13 9.48,13.105 9.293,13.293C9.105,13.48 9,13.735 9,14C9,14.265 9.105,14.52 9.293,14.707C9.48,14.895 9.735,15 10,15C10.265,15 10.52,14.895 10.707,14.707C10.895,14.52 11,14.265 11,14C11,13.735 10.895,13.48 10.707,13.293C10.52,13.105 10.265,13 10,13ZM23,5C21.939,5 20.922,5.421 20.172,6.172C19.421,6.922 19,7.939 19,9C19,10.061 19.421,11.078 20.172,11.828C20.922,12.579 21.939,13 23,13C24.061,13 25.078,12.579 25.828,11.828C26.579,11.078 27,10.061 27,9C27,7.939 26.579,6.922 25.828,6.172C25.078,5.421 24.061,5 23,5Z" clip-rule="evenodd" fill-rule="evenodd" fill="#010101" stroke="#FFFFFF" stroke-width="0.3" stroke-miterlimit="3.999327"/>
</svg>
