<svg width="18" height="16" viewBox="0 0 18 16" fill="none" xmlns="http://www.w3.org/2000/svg" xmlns:xlink="http://www.w3.org/1999/xlink">
<path d="M13.848,3.5L8.46,3.5C5.612,3.5 3.498,5.618 3.498,8C3.498,10.382 5.612,12.5 8.458,12.5L13.894,12.5C14.306,12.474 14.484,12.196 14.498,12.028L14.498,3.972C14.484,3.804 14.306,3.526 13.894,3.502L13.848,3.5ZM13.7,0.5C13.832,0.5 13.96,0.5 14.08,0.508C15.82,0.614 17.362,1.928 17.492,3.764C17.5,3.884 17.5,4.014 17.5,4.134L17.5,11.866C17.5,11.986 17.5,12.116 17.492,12.236C17.362,14.072 15.82,15.386 14.078,15.494C13.96,15.5 13.832,15.5 13.698,15.5L8.462,15.5C4.172,15.5 0.5,12.244 0.5,8C0.5,3.756 4.172,0.5 8.46,0.5L13.666,0.5L13.7,0.5Z" clip-rule="evenodd" fill-rule="evenodd" fill="#010101"/>
</svg>
