<svg width="42" height="42" viewBox="0 0 42 42" fill="none" xmlns="http://www.w3.org/2000/svg" xmlns:xlink="http://www.w3.org/1999/xlink">
<path d="M20,2C10.06,2 2,10.059 2,20C2,23.247 2.858,26.289 4.36,28.917C4.459,29.091 4.522,29.282 4.547,29.481C4.571,29.679 4.555,29.88 4.501,30.073L2.342,37.661L9.934,35.501C10.126,35.446 10.327,35.431 10.525,35.455C10.724,35.479 10.915,35.543 11.089,35.642C13.802,37.192 16.875,38.005 20,38C29.942,38 38,29.941 38,20C38,10.059 29.942,2 20,2ZM-1,20C-1,8.402 8.402,-1 20,-1C31.598,-1 41,8.402 41,20C41,31.598 31.598,41 20,41C16.448,41 13.097,40.117 10.16,38.556L1.868,40.915C1.483,41.024 1.075,41.028 0.687,40.927C0.3,40.826 -0.054,40.624 -0.337,40.34C-0.62,40.057 -0.823,39.703 -0.923,39.316C-1.024,38.928 -1.019,38.52 -0.91,38.135L1.448,29.844C-0.164,26.814 -1.004,23.433 -1,20ZM11,15.5C11,15.102 11.158,14.721 11.439,14.439C11.721,14.158 12.102,14 12.5,14L27.5,14C27.898,14 28.279,14.158 28.561,14.439C28.842,14.721 29,15.102 29,15.5C29,15.898 28.842,16.279 28.561,16.561C28.279,16.842 27.898,17 27.5,17L12.5,17C12.102,17 11.721,16.842 11.439,16.561C11.158,16.279 11,15.898 11,15.5ZM12.5,23C12.102,23 11.721,23.158 11.439,23.439C11.158,23.721 11,24.102 11,24.5C11,24.898 11.158,25.279 11.439,25.561C11.721,25.842 12.102,26 12.5,26L21.5,26C21.898,26 22.279,25.842 22.561,25.561C22.842,25.279 23,24.898 23,24.5C23,24.102 22.842,23.721 22.561,23.439C22.279,23.158 21.898,23 21.5,23L12.5,23Z" fill="#FFFFFF"/>
</svg>
