<svg width="30" height="14" viewBox="0 0 30 14" fill="none" xmlns="http://www.w3.org/2000/svg" xmlns:xlink="http://www.w3.org/1999/xlink">
<path d="M0.667,7.999L-0.833,7.999L0.667,7.999ZM7.333,1.332L7.333,-0.168L7.333,1.332ZM20.667,1.332L20.667,-0.168L20.667,1.332ZM2.167,7.999C2.167,6.628 2.711,5.314 3.68,4.345L1.559,2.224C0.027,3.756 -0.833,5.833 -0.833,7.999L2.167,7.999ZM3.68,4.345C4.649,3.376 5.963,2.832 7.333,2.832L7.333,-0.168C5.167,-0.168 3.09,0.692 1.559,2.224L3.68,4.345ZM7.333,2.832L20.667,2.832L20.667,-0.168L7.333,-0.168L7.333,2.832ZM20.667,2.832C22.037,2.832 23.351,3.376 24.32,4.345L26.441,2.224C24.91,0.692 22.833,-0.168 20.667,-0.168L20.667,2.832ZM24.32,4.345C25.289,5.314 25.833,6.628 25.833,7.999L28.833,7.999C28.833,5.833 27.973,3.756 26.441,2.224L24.32,4.345ZM25.833,7.999C25.833,8.485 25.64,8.951 25.296,9.295L27.418,11.416C28.324,10.51 28.833,9.281 28.833,7.999L25.833,7.999ZM25.296,9.295C24.952,9.639 24.486,9.832 24,9.832L24,12.832C25.282,12.832 26.511,12.323 27.418,11.416L25.296,9.295ZM24,9.832L4,9.832L4,12.832L24,12.832L24,9.832ZM4,9.832C3.514,9.832 3.047,9.639 2.704,9.295L0.582,11.416C1.489,12.323 2.718,12.832 4,12.832L4,9.832ZM2.704,9.295C2.36,8.951 2.167,8.485 2.167,7.999L-0.833,7.999C-0.833,9.281 -0.324,10.51 0.582,11.416L2.704,9.295Z" fill="#010101"/>
</svg>
