<svg width="36" height="30" viewBox="0 0 36 30" fill="none" xmlns="http://www.w3.org/2000/svg" xmlns:xlink="http://www.w3.org/1999/xlink">
<path d="M11.833,14C13.822,14 15.73,13.21 17.136,11.803C18.543,10.397 19.333,8.489 19.333,6.5C19.333,4.511 18.543,2.603 17.136,1.197C15.73,-0.21 13.822,-1 11.833,-1C9.844,-1 7.936,-0.21 6.53,1.197C5.123,2.603 4.333,4.511 4.333,6.5C4.333,8.489 5.123,10.397 6.53,11.803C7.936,13.21 9.844,14 11.833,14ZM31,9C31,10.326 30.473,11.598 29.535,12.536C28.598,13.473 27.326,14 26,14C24.674,14 23.402,13.473 22.464,12.536C21.526,11.598 21,10.326 21,9C21,7.674 21.526,6.402 22.464,5.464C23.402,4.527 24.674,4 26,4C27.326,4 28.598,4.527 29.535,5.464C30.473,6.402 31,7.674 31,9ZM11.833,15.667C15.155,15.667 18.175,16.68 20.395,18.11C21.506,18.827 22.458,19.672 23.15,20.593C23.828,21.502 24.333,22.593 24.333,23.762C24.333,25.02 23.75,26.028 22.893,26.757C22.085,27.44 21.031,27.883 19.943,28.188C17.755,28.8 14.86,29 11.833,29C8.806,29 5.911,28.8 3.725,28.188C2.635,27.883 1.581,27.44 0.775,26.757C-0.085,26.03 -0.667,25.02 -0.667,23.762C-0.667,22.592 -0.162,21.502 0.516,20.595C1.208,19.672 2.16,18.825 3.271,18.112C5.491,16.678 8.511,15.667 11.833,15.667ZM26,15.667C28.2,15.667 30.196,16.393 31.666,17.418C33.036,18.373 34.333,19.88 34.333,21.618C34.333,22.597 33.911,23.407 33.27,23.995C32.675,24.542 31.921,24.875 31.196,25.095C29.746,25.533 27.88,25.667 26,25.667L25.661,25.667C25.878,25.087 26,24.45 26,23.762C26,22.112 25.295,20.678 24.483,19.595C23.673,18.513 22.6,17.562 21.401,16.777C22.825,16.048 24.401,15.667 26,15.667Z" fill="#010101"/>
</svg>
