<svg width="30" height="36" viewBox="0 0 30 36" fill="none" xmlns="http://www.w3.org/2000/svg" xmlns:xlink="http://www.w3.org/1999/xlink">
<path d="M20.917,10.5C20.088,10.5 19.417,11.172 19.417,12C19.417,12.828 20.088,13.5 20.917,13.5L20.917,10.5ZM24.042,12L24.042,10.5L24.042,12ZM5.292,33.25L5.292,31.75L5.292,33.25ZM2.167,30.125L0.667,30.125L2.167,30.125ZM2.167,15.125L0.667,15.125L2.167,15.125ZM5.292,12L5.292,13.5L5.292,12ZM8.417,13.5C9.245,13.5 9.917,12.828 9.917,12C9.917,11.172 9.245,10.5 8.417,10.5L8.417,13.5ZM19.856,8.061C20.442,8.646 21.392,8.646 21.977,8.061C22.563,7.475 22.563,6.525 21.977,5.939L19.856,8.061ZM14.667,0.75L15.727,-0.311C15.142,-0.896 14.192,-0.896 13.606,-0.311L14.667,0.75ZM7.356,5.939C6.77,6.525 6.77,7.475 7.356,8.061C7.942,8.646 8.892,8.646 9.477,8.061L7.356,5.939ZM13.167,22.078C13.167,22.907 13.838,23.578 14.667,23.578C15.495,23.578 16.167,22.907 16.167,22.078L13.167,22.078ZM20.917,13.5L24.042,13.5L24.042,10.5L20.917,10.5L20.917,13.5ZM24.042,13.5C24.473,13.5 24.886,13.671 25.191,13.976L27.312,11.855C26.445,10.987 25.268,10.5 24.042,10.5L24.042,13.5ZM25.191,13.976C25.495,14.281 25.667,14.694 25.667,15.125L28.667,15.125C28.667,13.898 28.179,12.722 27.312,11.855L25.191,13.976ZM25.667,15.125L25.667,30.125L28.667,30.125L28.667,15.125L25.667,15.125ZM25.667,30.125C25.667,30.556 25.495,30.969 25.191,31.274L27.312,33.395C28.179,32.528 28.667,31.352 28.667,30.125L25.667,30.125ZM25.191,31.274C24.886,31.579 24.473,31.75 24.042,31.75L24.042,34.75C25.268,34.75 26.445,34.263 27.312,33.395L25.191,31.274ZM24.042,31.75L5.292,31.75L5.292,34.75L24.042,34.75L24.042,31.75ZM5.292,31.75C4.861,31.75 4.447,31.579 4.143,31.274L2.021,33.395C2.889,34.263 4.065,34.75 5.292,34.75L5.292,31.75ZM4.143,31.274C3.838,30.969 3.667,30.556 3.667,30.125L0.667,30.125C0.667,31.352 1.154,32.528 2.021,33.395L4.143,31.274ZM3.667,30.125L3.667,15.125L0.667,15.125L0.667,30.125L3.667,30.125ZM3.667,15.125C3.667,14.694 3.838,14.281 4.143,13.976L2.021,11.855C1.154,12.722 0.667,13.898 0.667,15.125L3.667,15.125ZM4.143,13.976C4.447,13.671 4.861,13.5 5.292,13.5L5.292,10.5C4.065,10.5 2.889,10.987 2.021,11.855L4.143,13.976ZM5.292,13.5L8.417,13.5L8.417,10.5L5.292,10.5L5.292,13.5ZM21.977,5.939L15.727,-0.311L13.606,1.811L19.856,8.061L21.977,5.939ZM13.606,-0.311L7.356,5.939L9.477,8.061L15.727,1.811L13.606,-0.311ZM16.167,22.078L16.167,0.75L13.167,0.75L13.167,22.078L16.167,22.078Z" fill="#010101"/>
</svg>
