<svg width="44" height="30" viewBox="0 0 44 30" fill="none" xmlns="http://www.w3.org/2000/svg" xmlns:xlink="http://www.w3.org/1999/xlink">
<path d="M32,2C32,1.172 31.328,0.5 30.5,0.5C29.672,0.5 29,1.172 29,2L32,2ZM29,3.5C29,4.328 29.672,5 30.5,5C31.328,5 32,4.328 32,3.5L29,3.5ZM32,9.5C32,8.672 31.328,8 30.5,8C29.672,8 29,8.672 29,9.5L32,9.5ZM29,11C29,11.828 29.672,12.5 30.5,12.5C31.328,12.5 32,11.828 32,11L29,11ZM32,17C32,16.172 31.328,15.5 30.5,15.5C29.672,15.5 29,16.172 29,17L32,17ZM29,18.5C29,19.328 29.672,20 30.5,20C31.328,20 32,19.328 32,18.5L29,18.5ZM32,24.5C32,23.672 31.328,23 30.5,23C29.672,23 29,23.672 29,24.5L32,24.5ZM29,26C29,26.828 29.672,27.5 30.5,27.5C31.328,27.5 32,26.828 32,26L29,26ZM12.5,14C11.672,14 11,14.672 11,15.5C11,16.328 11.672,17 12.5,17L12.5,14ZM23,17C23.828,17 24.5,16.328 24.5,15.5C24.5,14.672 23.828,14 23,14L23,17ZM12.5,18.5C11.672,18.5 11,19.172 11,20C11,20.828 11.672,21.5 12.5,21.5L12.5,18.5ZM18.5,21.5C19.328,21.5 20,20.828 20,20C20,19.172 19.328,18.5 18.5,18.5L18.5,21.5ZM2,8.802L0.5,8.802C0.5,9.339 0.787,9.834 1.252,10.102L2,8.802ZM5.005,14L3.505,14L5.005,14ZM2,19.198L1.252,17.898C0.787,18.166 0.5,18.661 0.5,19.198L2,19.198ZM41,19.198L42.5,19.198C42.5,18.661 42.213,18.166 41.748,17.898L41,19.198ZM41,8.802L41.748,10.102C42.213,9.834 42.5,9.339 42.5,8.802L41,8.802ZM29,2L29,3.5L32,3.5L32,2L29,2ZM29,9.5L29,11L32,11L32,9.5L29,9.5ZM29,17L29,18.5L32,18.5L32,17L29,17ZM29,24.5L29,26L32,26L32,24.5L29,24.5ZM12.5,17L23,17L23,14L12.5,14L12.5,17ZM12.5,21.5L18.5,21.5L18.5,18.5L12.5,18.5L12.5,21.5ZM4.25,-1C2.18,-1 0.5,0.68 0.5,2.75L3.5,2.75C3.5,2.336 3.836,2 4.25,2L4.25,-1ZM0.5,2.75L0.5,8.802L3.5,8.802L3.5,2.75L0.5,2.75ZM1.252,10.102C1.937,10.496 2.506,11.064 2.901,11.749L5.498,10.247C4.839,9.106 3.89,8.16 2.748,7.502L1.252,10.102ZM2.901,11.749C3.297,12.433 3.505,13.21 3.505,14L6.505,14C6.505,12.682 6.158,11.388 5.498,10.247L2.901,11.749ZM3.505,14C3.505,14.79 3.297,15.567 2.901,16.251L5.498,17.753C6.158,16.612 6.505,15.318 6.505,14L3.505,14ZM2.901,16.251C2.506,16.936 1.937,17.504 1.252,17.898L2.748,20.498C3.89,19.84 4.839,18.894 5.498,17.753L2.901,16.251ZM0.5,19.198L0.5,25.25L3.5,25.25L3.5,19.198L0.5,19.198ZM0.5,25.25C0.5,27.32 2.18,29 4.25,29L4.25,26C3.836,26 3.5,25.664 3.5,25.25L0.5,25.25ZM4.25,29L38.75,29L38.75,26L4.25,26L4.25,29ZM38.75,29C40.82,29 42.5,27.32 42.5,25.25L39.5,25.25C39.5,25.664 39.164,26 38.75,26L38.75,29ZM42.5,25.25L42.5,19.198L39.5,19.198L39.5,25.25L42.5,25.25ZM41.748,17.898C41.063,17.504 40.494,16.936 40.099,16.251L37.502,17.753C38.161,18.894 39.11,19.84 40.252,20.498L41.748,17.898ZM40.099,16.251C39.703,15.567 39.495,14.79 39.495,14L36.495,14C36.495,15.318 36.842,16.612 37.502,17.753L40.099,16.251ZM39.495,14C39.495,13.21 39.703,12.433 40.099,11.749L37.502,10.247C36.842,11.388 36.495,12.682 36.495,14L39.495,14ZM40.099,11.749C40.494,11.064 41.063,10.496 41.748,10.102L40.252,7.502C39.11,8.16 38.161,9.106 37.502,10.247L40.099,11.749ZM42.5,8.802L42.5,2.75L39.5,2.75L39.5,8.802L42.5,8.802ZM42.5,2.75C42.5,0.68 40.82,-1 38.75,-1L38.75,2C39.164,2 39.5,2.336 39.5,2.75L42.5,2.75ZM38.75,-1L4.25,-1L4.25,2L38.75,2L38.75,-1Z" fill="#010101"/>
</svg>
