<svg width="36" height="34" viewBox="0 0 36 34" fill="none" xmlns="http://www.w3.org/2000/svg" xmlns:xlink="http://www.w3.org/1999/xlink">
<path d="M35.372,12.197C35.215,11.716 34.921,11.293 34.524,10.98C34.128,10.667 33.647,10.478 33.144,10.437L23.925,9.694L20.366,1.086C20.173,0.617 19.845,0.215 19.424,-0.067C19.003,-0.349 18.508,-0.5 18.001,-0.5C17.494,-0.5 16.998,-0.349 16.577,-0.067C16.156,0.215 15.828,0.617 15.636,1.086L12.08,9.692L2.856,10.437C2.352,10.48 1.871,10.671 1.475,10.985C1.078,11.3 0.783,11.724 0.627,12.206C0.47,12.687 0.46,13.204 0.596,13.692C0.732,14.179 1.009,14.616 1.392,14.947L8.423,21.014L6.281,30.086C6.161,30.579 6.191,31.096 6.366,31.572C6.54,32.048 6.853,32.462 7.263,32.76C7.673,33.058 8.162,33.228 8.669,33.248C9.176,33.267 9.677,33.136 10.109,32.87L18,28.014L25.895,32.87C26.327,33.133 26.828,33.262 27.333,33.241C27.838,33.22 28.326,33.049 28.735,32.752C29.143,32.454 29.455,32.042 29.63,31.568C29.805,31.093 29.836,30.578 29.719,30.086L27.569,21.012L34.6,14.945C34.986,14.615 35.266,14.177 35.403,13.688C35.54,13.199 35.53,12.68 35.372,12.197ZM32.975,13.051L25.366,19.614C25.192,19.763 25.063,19.958 24.992,20.176C24.922,20.394 24.913,20.627 24.966,20.85L27.291,30.662C27.297,30.676 27.297,30.691 27.292,30.705C27.287,30.719 27.277,30.731 27.264,30.737C27.236,30.759 27.228,30.754 27.205,30.737L18.655,25.479C18.458,25.358 18.231,25.294 18,25.294C17.769,25.294 17.542,25.358 17.345,25.479L8.795,30.74C8.772,30.754 8.766,30.759 8.736,30.74C8.723,30.734 8.713,30.722 8.708,30.708C8.703,30.694 8.703,30.679 8.709,30.665L11.034,20.853C11.087,20.63 11.078,20.397 11.008,20.179C10.937,19.961 10.808,19.767 10.634,19.617L3.025,13.054C3.006,13.039 2.989,13.025 3.005,12.976C3.02,12.928 3.033,12.934 3.056,12.931L13.044,12.125C13.273,12.105 13.492,12.023 13.677,11.887C13.863,11.75 14.007,11.566 14.094,11.353L17.941,2.039C17.953,2.012 17.958,2 17.995,2C18.033,2 18.037,2.012 18.05,2.039L21.906,11.353C21.994,11.566 22.139,11.75 22.325,11.886C22.511,12.022 22.731,12.103 22.961,12.122L32.948,12.928C32.972,12.928 32.986,12.928 33,12.973C33.014,13.019 33,13.036 32.975,13.051Z" fill="#010101"/>
</svg>
