<svg width="36" height="16" viewBox="0 0 36 16" fill="none" xmlns="http://www.w3.org/2000/svg" xmlns:xlink="http://www.w3.org/1999/xlink">
<path d="M32.5,14C32.5,14.828 33.172,15.5 34,15.5C34.828,15.5 35.5,14.828 35.5,14L32.5,14ZM26,2L26,0.5L26,2ZM10,2L10,0.5L10,2ZM2,10L0.5,10L2,10ZM0.5,14C0.5,14.828 1.172,15.5 2,15.5C2.828,15.5 3.5,14.828 3.5,14L0.5,14ZM35.5,14L35.5,10L32.5,10L32.5,14L35.5,14ZM35.5,10C35.5,7.48 34.499,5.064 32.718,3.282L30.596,5.404C31.815,6.623 32.5,8.276 32.5,10L35.5,10ZM32.718,3.282C30.936,1.501 28.52,0.5 26,0.5L26,3.5C27.724,3.5 29.377,4.185 30.596,5.404L32.718,3.282ZM26,0.5L10,0.5L10,3.5L26,3.5L26,0.5ZM10,0.5C7.48,0.5 5.064,1.501 3.282,3.282L5.404,5.404C6.623,4.185 8.276,3.5 10,3.5L10,0.5ZM3.282,3.282C1.501,5.064 0.5,7.48 0.5,10L3.5,10C3.5,8.276 4.185,6.623 5.404,5.404L3.282,3.282ZM0.5,10L0.5,14L3.5,14L3.5,10L0.5,10Z" fill="#010101"/>
</svg>
