<svg width="38" height="40" viewBox="0 0 38 40" fill="none" xmlns="http://www.w3.org/2000/svg" xmlns:xlink="http://www.w3.org/1999/xlink">
<path d="M4.465,2.395L32.465,2.395L32.465,0.395L4.465,0.395L4.465,2.395ZM32.465,2.395C34.122,2.395 35.465,3.738 35.465,5.395L37.465,5.395C37.465,2.633 35.226,0.395 32.465,0.395L32.465,2.395ZM35.465,5.395L35.465,33.395L37.465,33.395L37.465,5.395L35.465,5.395ZM35.465,33.395C35.465,35.051 34.122,36.395 32.465,36.395L32.465,38.395C35.226,38.395 37.465,36.156 37.465,33.395L35.465,33.395ZM32.465,36.395L4.465,36.395L4.465,38.395L32.465,38.395L32.465,36.395ZM4.465,36.395C2.808,36.395 1.465,35.051 1.465,33.395L-0.535,33.395C-0.535,36.156 1.703,38.395 4.465,38.395L4.465,36.395ZM1.465,33.395L1.465,5.395L-0.535,5.395L-0.535,33.395L1.465,33.395ZM1.465,5.395C1.465,3.738 2.808,2.395 4.465,2.395L4.465,0.395C1.703,0.395 -0.535,2.633 -0.535,5.395L1.465,5.395Z" fill="#565656"/>
</svg>
