<svg width="48" height="16" viewBox="0 0 48 16" fill="none" xmlns="http://www.w3.org/2000/svg" xmlns:xlink="http://www.w3.org/1999/xlink">
<path d="M18.224,-0.164L11.94,14.203L7.84,14.203L4.748,2.736C4.56,2.03 4.398,1.772 3.826,1.475C2.894,0.99 1.354,0.535 0,0.252L0.092,-0.164L6.692,-0.164C7.123,-0.165 7.541,-0.017 7.868,0.251C8.196,0.52 8.413,0.892 8.48,1.3L10.114,9.615L14.15,-0.164L18.224,-0.164ZM34.29,9.513C34.306,5.72 28.818,5.511 28.856,3.817C28.868,3.301 29.38,2.753 30.5,2.613C31.813,2.494 33.134,2.716 34.326,3.257L35.006,0.21C33.846,-0.208 32.617,-0.425 31.378,-0.429C27.544,-0.429 24.846,1.526 24.822,4.323C24.798,6.391 26.748,7.543 28.218,8.233C29.73,8.936 30.238,9.388 30.23,10.017C30.22,10.983 29.026,11.407 27.91,11.424C25.96,11.453 24.83,10.92 23.926,10.517L23.224,13.665C24.13,14.063 25.802,14.412 27.536,14.427C31.61,14.427 34.276,12.499 34.29,9.513ZM44.412,14.203L48,14.203L44.87,-0.164L41.558,-0.164C41.204,-0.167 40.857,-0.069 40.563,0.119C40.268,0.307 40.039,0.576 39.906,0.89L34.088,14.203L38.16,14.203L38.97,12.056L43.946,12.056L44.412,14.203ZM40.086,9.112L42.126,3.717L43.302,9.112L40.086,9.112ZM23.766,-0.164L20.56,14.203L16.68,14.203L19.89,-0.164L23.766,-0.164Z" fill="#0075FF"/>
</svg>
