<svg width="46" height="34" viewBox="0 0 46 34" fill="none" xmlns="http://www.w3.org/2000/svg" xmlns:xlink="http://www.w3.org/1999/xlink">
<path d="M23,17C26.746,17 30.14,18.24 32.63,19.974C34.996,21.624 37,24.076 37,26.714C37,28.162 36.382,29.362 35.408,30.254C34.492,31.096 33.296,31.642 32.064,32.014C29.602,32.76 26.36,33 23,33C19.64,33 16.398,32.76 13.936,32.014C12.704,31.642 11.508,31.096 10.59,30.254C9.62,29.364 9,28.164 9,26.716C9,24.078 11.004,21.626 13.37,19.976C15.86,18.24 19.254,17 23,17ZM37,19C39.088,19 40.984,19.69 42.386,20.666C43.666,21.56 45,23.046 45,24.858C45,25.892 44.55,26.75 43.88,27.364C43.268,27.926 42.512,28.256 41.822,28.464C40.882,28.748 39.772,28.894 38.62,28.958C38.864,28.268 39,27.518 39,26.714C39,23.644 37.082,21.036 34.936,19.226C35.614,19.076 36.306,19 37,19ZM9,19C9.714,19 10.406,19.08 11.064,19.226C8.92,21.036 7,23.644 7,26.714C7,27.518 7.136,28.268 7.38,28.958C6.228,28.894 5.12,28.748 4.178,28.464C3.488,28.256 2.732,27.926 2.118,27.364C1.766,27.049 1.484,26.663 1.291,26.231C1.099,25.8 0.999,25.333 1,24.86C1,23.05 2.332,21.562 3.614,20.668C5.2,19.58 7.077,18.999 9,19ZM36,7C37.326,7 38.598,7.527 39.536,8.464C40.473,9.402 41,10.674 41,12C41,13.326 40.473,14.598 39.536,15.536C38.598,16.473 37.326,17 36,17C34.674,17 33.402,16.473 32.464,15.536C31.527,14.598 31,13.326 31,12C31,10.674 31.527,9.402 32.464,8.464C33.402,7.527 34.674,7 36,7ZM10,7C11.326,7 12.598,7.527 13.536,8.464C14.473,9.402 15,10.674 15,12C15,13.326 14.473,14.598 13.536,15.536C12.598,16.473 11.326,17 10,17C8.674,17 7.402,16.473 6.464,15.536C5.527,14.598 5,13.326 5,12C5,10.674 5.527,9.402 6.464,8.464C7.402,7.527 8.674,7 10,7ZM23,-1C25.122,-1 27.157,-0.157 28.657,1.343C30.157,2.843 31,4.878 31,7C31,9.122 30.157,11.157 28.657,12.657C27.157,14.157 25.122,15 23,15C20.878,15 18.843,14.157 17.343,12.657C15.843,11.157 15,9.122 15,7C15,4.878 15.843,2.843 17.343,1.343C18.843,-0.157 20.878,-1 23,-1Z" fill="#FF1515"/>
</svg>
