<svg width="36" height="16" viewBox="0 0 36 16" fill="none" xmlns="http://www.w3.org/2000/svg" xmlns:xlink="http://www.w3.org/1999/xlink">
<path d="M2,9L0.5,9L2,9ZM10,1L10,-0.5L10,1ZM26,1L26,-0.5L26,1ZM3.5,9C3.5,7.276 4.185,5.623 5.404,4.404L3.282,2.282C1.501,4.064 0.5,6.48 0.5,9L3.5,9ZM5.404,4.404C6.623,3.185 8.276,2.5 10,2.5L10,-0.5C7.48,-0.5 5.064,0.501 3.282,2.282L5.404,4.404ZM10,2.5L26,2.5L26,-0.5L10,-0.5L10,2.5ZM26,2.5C27.724,2.5 29.377,3.185 30.596,4.404L32.718,2.282C30.936,0.501 28.52,-0.5 26,-0.5L26,2.5ZM30.596,4.404C31.815,5.623 32.5,7.276 32.5,9L35.5,9C35.5,6.48 34.499,4.064 32.718,2.282L30.596,4.404ZM32.5,9C32.5,9.663 32.237,10.299 31.768,10.768L33.889,12.889C34.921,11.858 35.5,10.459 35.5,9L32.5,9ZM31.768,10.768C31.299,11.237 30.663,11.5 30,11.5L30,14.5C31.459,14.5 32.858,13.921 33.889,12.889L31.768,10.768ZM30,11.5L6,11.5L6,14.5L30,14.5L30,11.5ZM6,11.5C5.337,11.5 4.701,11.237 4.232,10.768L2.111,12.889C3.142,13.921 4.541,14.5 6,14.5L6,11.5ZM4.232,10.768C3.763,10.299 3.5,9.663 3.5,9L0.5,9C0.5,10.459 1.079,11.858 2.111,12.889L4.232,10.768Z" fill="#010101"/>
</svg>
