<svg width="30" height="14" viewBox="0 0 30 14" fill="none" xmlns="http://www.w3.org/2000/svg" xmlns:xlink="http://www.w3.org/1999/xlink">
<path d="M1.666,7.999L0.166,7.999L1.666,7.999ZM8.333,1.332L8.333,-0.168L8.333,1.332ZM21.666,1.332L21.666,-0.168L21.666,1.332ZM3.166,7.999C3.166,6.628 3.71,5.314 4.679,4.345L2.558,2.224C1.026,3.756 0.166,5.833 0.166,7.999L3.166,7.999ZM4.679,4.345C5.648,3.376 6.962,2.832 8.333,2.832L8.333,-0.168C6.167,-0.168 4.09,0.692 2.558,2.224L4.679,4.345ZM8.333,2.832L21.666,2.832L21.666,-0.168L8.333,-0.168L8.333,2.832ZM21.666,2.832C23.036,2.832 24.35,3.376 25.319,4.345L27.441,2.224C25.909,0.692 23.832,-0.168 21.666,-0.168L21.666,2.832ZM25.319,4.345C26.288,5.314 26.833,6.628 26.833,7.999L29.833,7.999C29.833,5.833 28.972,3.756 27.441,2.224L25.319,4.345ZM26.833,7.999C26.833,8.485 26.64,8.951 26.296,9.295L28.417,11.416C29.323,10.51 29.833,9.281 29.833,7.999L26.833,7.999ZM26.296,9.295C25.952,9.639 25.486,9.832 24.999,9.832L24.999,12.832C26.281,12.832 27.511,12.323 28.417,11.416L26.296,9.295ZM24.999,9.832L4.999,9.832L4.999,12.832L24.999,12.832L24.999,9.832ZM4.999,9.832C4.513,9.832 4.047,9.639 3.703,9.295L1.582,11.416C2.488,12.323 3.717,12.832 4.999,12.832L4.999,9.832ZM3.703,9.295C3.359,8.951 3.166,8.485 3.166,7.999L0.166,7.999C0.166,9.281 0.675,10.51 1.582,11.416L3.703,9.295Z" fill="#010101"/>
</svg>
