<svg width="54" height="52" viewBox="0 0 54 52" fill="none" xmlns="http://www.w3.org/2000/svg" xmlns:xlink="http://www.w3.org/1999/xlink">
<path d="M23.011,1.908C23.295,1.42 23.702,1.015 24.192,0.734C24.681,0.453 25.236,0.305 25.801,0.305C26.365,0.305 26.92,0.453 27.41,0.734C27.899,1.015 28.306,1.42 28.591,1.908L35.811,14.303L49.833,17.341C50.385,17.461 50.896,17.723 51.314,18.102C51.733,18.48 52.045,18.962 52.219,19.499C52.393,20.036 52.424,20.609 52.308,21.161C52.191,21.714 51.932,22.226 51.557,22.647L41.998,33.344L43.445,47.617C43.502,48.179 43.411,48.747 43.18,49.262C42.949,49.778 42.587,50.224 42.13,50.556C41.673,50.888 41.137,51.094 40.575,51.155C40.014,51.215 39.446,51.126 38.929,50.898L25.801,45.112L12.672,50.898C12.155,51.126 11.588,51.215 11.026,51.155C10.464,51.094 9.928,50.888 9.471,50.556C9.014,50.224 8.652,49.778 8.422,49.262C8.191,48.747 8.1,48.179 8.157,47.617L9.603,33.344L0.045,22.649C-0.332,22.228 -0.591,21.716 -0.708,21.163C-0.824,20.611 -0.794,20.037 -0.62,19.5C-0.445,18.963 -0.133,18.48 0.286,18.102C0.705,17.723 1.216,17.46 1.768,17.341L15.79,14.303L23.011,1.908Z" fill="#FF1515"/>
</svg>
