<svg width="62" height="58" viewBox="0 0 62 58" fill="none" xmlns="http://www.w3.org/2000/svg" xmlns:xlink="http://www.w3.org/1999/xlink">
<path d="M-0.377,48.73C-1.472,51.147 -0.401,53.995 2.016,55.091C4.433,56.187 7.281,55.116 8.377,52.698L-0.377,48.73ZM50.35,6.942C51.423,4.514 50.324,1.677 47.897,0.604C45.469,-0.468 42.632,0.631 41.559,3.058L50.35,6.942ZM55.918,38.669L51.733,41.029L55.918,38.669ZM39.469,9.498L35.283,11.859L39.469,9.498ZM8.377,52.698L26.721,12.235L17.968,8.267L-0.377,48.73L8.377,52.698ZM35.283,11.859L51.733,41.029L60.104,36.308L43.655,7.138L35.283,11.859ZM47.547,48.195L39.504,48.195L39.504,57.805L47.547,57.805L47.547,48.195ZM35.108,41.448L50.35,6.942L41.559,3.058L26.317,37.564L35.108,41.448ZM39.504,48.195C36.031,48.195 33.705,44.624 35.108,41.448L26.317,37.564C22.107,47.094 29.086,57.805 39.504,57.805L39.504,48.195ZM51.733,41.029C53.539,44.232 51.225,48.195 47.547,48.195L47.547,57.805C58.58,57.805 65.523,45.918 60.104,36.308L51.733,41.029ZM26.721,12.235C28.345,8.652 33.351,8.432 35.283,11.859L43.655,7.138C37.858,-3.141 22.841,-2.482 17.968,8.267L26.721,12.235Z" fill="#010101"/>
</svg>
