<svg width="48" height="38" viewBox="0 0 48 38" fill="none" xmlns="http://www.w3.org/2000/svg" xmlns:xlink="http://www.w3.org/1999/xlink">
<path d="M22.286,36.386C23.641,36.386 24.618,35.389 24.618,34.054L24.618,2.26C24.618,0.925 23.641,-0.191 22.246,-0.191C21.269,-0.191 20.612,0.247 19.555,1.243L10.764,9.556C10.619,9.676 10.435,9.74 10.246,9.735L4.325,9.735C1.515,9.735 0,11.269 0,14.26L0,21.994C0,24.985 1.515,26.52 4.326,26.52L10.246,26.52C10.445,26.52 10.624,26.58 10.764,26.699L19.555,35.09C20.511,35.988 21.309,36.386 22.286,36.386ZM41.562,32.32C42.339,32.838 43.296,32.639 43.854,31.842C46.485,28.173 48,23.29 48,18.187C48,13.064 46.505,8.18 43.854,4.513C43.276,3.735 42.339,3.535 41.562,4.054C40.804,4.573 40.684,5.549 41.283,6.406C43.455,9.595 44.791,13.782 44.791,18.187C44.791,22.592 43.495,26.818 41.262,29.968C40.705,30.825 40.804,31.802 41.562,32.32ZM33.608,26.937C34.286,27.416 35.262,27.257 35.841,26.479C37.395,24.386 38.332,21.316 38.332,18.187C38.332,15.058 37.376,12.007 35.841,9.875C35.263,9.097 34.306,8.938 33.608,9.416C32.731,9.994 32.631,11.011 33.269,11.887C34.425,13.442 35.123,15.815 35.123,18.187C35.123,20.559 34.386,22.931 33.249,24.505C32.651,25.363 32.751,26.34 33.608,26.938Z" fill="#FFFFFF"/>
</svg>
