<svg width="46" height="52" viewBox="0 0 46 52" fill="none" xmlns="http://www.w3.org/2000/svg" xmlns:xlink="http://www.w3.org/1999/xlink">
<path d="M18.975,34.625L27.662,25.938C28.162,25.438 28.767,25.188 29.475,25.188C30.183,25.188 30.788,25.438 31.288,25.938C31.788,26.438 32.038,27.042 32.038,27.75C32.038,28.458 31.788,29.063 31.288,29.563L20.725,40.125C20.225,40.625 19.642,40.875 18.975,40.875C18.308,40.875 17.725,40.625 17.225,40.125L11.913,34.813C11.413,34.313 11.163,33.708 11.163,33C11.163,32.292 11.413,31.688 11.913,31.188C12.413,30.688 13.017,30.438 13.725,30.438C14.433,30.438 15.038,30.688 15.538,31.188L18.975,34.625ZM4.1,51C2.725,51 1.548,50.511 0.57,49.533C-0.408,48.554 -0.898,47.377 -0.9,46L-0.9,11C-0.9,9.625 -0.41,8.448 0.57,7.47C1.55,6.492 2.727,6.002 4.1,6L6.6,6L6.6,3.5C6.6,2.792 6.84,2.198 7.32,1.72C7.8,1.242 8.393,1.002 9.1,1C9.807,0.998 10.401,1.238 10.883,1.72C11.364,2.202 11.603,2.795 11.6,3.5L11.6,6L31.6,6L31.6,3.5C31.6,2.792 31.84,2.198 32.32,1.72C32.8,1.242 33.393,1.002 34.1,1C34.807,0.998 35.401,1.238 35.882,1.72C36.364,2.202 36.603,2.795 36.6,3.5L36.6,6L39.1,6C40.475,6 41.653,6.49 42.633,7.47C43.613,8.45 44.102,9.627 44.1,11L44.1,46C44.1,47.375 43.611,48.553 42.633,49.533C41.654,50.513 40.477,51.002 39.1,51L4.1,51ZM4.1,46L39.1,46L39.1,21L4.1,21L4.1,46ZM4.1,16L39.1,16L39.1,11L4.1,11L4.1,16Z" fill="#010101" stroke="#FFFFFF" stroke-width="0.6" stroke-miterlimit="3.999327"/>
</svg>
