<svg width="34" height="24" viewBox="0 0 34 24" fill="none" xmlns="http://www.w3.org/2000/svg" xmlns:xlink="http://www.w3.org/1999/xlink">
<path d="M16.121,5.217C21.014,5.217 25.72,6.92 29.266,9.973C29.533,10.209 29.959,10.206 30.222,9.967L32.775,7.633C32.908,7.512 32.982,7.347 32.981,7.176C32.98,7.005 32.904,6.841 32.769,6.721C23.462,-1.358 8.779,-1.358 -0.528,6.721C-0.663,6.841 -0.739,7.005 -0.74,7.176C-0.742,7.347 -0.667,7.512 -0.534,7.633L2.019,9.967C2.282,10.207 2.709,10.21 2.976,9.973C6.522,6.92 11.228,5.217 16.121,5.217ZM16.121,12.808C18.81,12.808 21.402,13.713 23.395,15.347C23.664,15.579 24.089,15.574 24.351,15.336L26.901,13.003C27.035,12.88 27.11,12.714 27.108,12.542C27.106,12.369 27.028,12.205 26.891,12.085C20.823,6.972 11.425,6.972 5.357,12.085C5.22,12.205 5.142,12.369 5.14,12.542C5.138,12.715 5.213,12.881 5.348,13.003L7.897,15.336C8.159,15.574 8.584,15.579 8.853,15.347C10.845,13.714 13.435,12.809 16.121,12.808ZM21.229,17.916C21.232,18.089 21.157,18.256 21.021,18.377L16.611,22.408C16.482,22.527 16.305,22.593 16.121,22.593C15.938,22.593 15.761,22.527 15.632,22.408L11.221,18.377C11.085,18.255 11.01,18.089 11.014,17.916C11.018,17.743 11.101,17.579 11.242,17.463C14.059,15.305 18.184,15.305 21,17.463C21.142,17.579 21.225,17.743 21.229,17.916Z" clip-rule="evenodd" fill-rule="evenodd" fill="#010101"/>
</svg>
