<svg width="36" height="24" viewBox="0 0 36 24" fill="none" xmlns="http://www.w3.org/2000/svg" xmlns:xlink="http://www.w3.org/1999/xlink">
<path d="M18.339,5.209C23.397,5.21 28.262,6.913 31.928,9.966C32.204,10.202 32.645,10.199 32.917,9.959L35.556,7.626C35.693,7.505 35.77,7.34 35.769,7.169C35.768,6.998 35.689,6.834 35.55,6.714C25.928,-1.365 10.749,-1.365 1.127,6.714C0.988,6.834 0.909,6.998 0.907,7.169C0.906,7.34 0.983,7.505 1.12,7.626L3.76,9.959C4.031,10.199 4.473,10.202 4.749,9.966C8.415,6.912 13.28,5.209 18.339,5.209ZM18.339,12.807C21.118,12.806 23.798,13.712 25.858,15.346C26.137,15.578 26.576,15.573 26.847,15.335L29.483,13.001C29.622,12.879 29.699,12.713 29.697,12.54C29.695,12.368 29.614,12.203 29.472,12.083C23.199,6.971 13.484,6.971 7.211,12.083C7.069,12.203 6.988,12.368 6.987,12.54C6.985,12.713 7.062,12.879 7.201,13.001L9.836,15.335C10.108,15.573 10.547,15.578 10.825,15.346C12.884,13.713 15.562,12.808 18.339,12.807ZM23.619,17.914C23.623,18.087 23.545,18.254 23.404,18.375L18.845,22.406C18.711,22.525 18.529,22.592 18.339,22.592C18.149,22.592 17.967,22.525 17.833,22.406L13.273,18.375C13.132,18.254 13.055,18.087 13.059,17.914C13.063,17.741 13.149,17.577 13.295,17.461C16.207,15.303 20.471,15.303 23.383,17.461C23.53,17.577 23.615,17.741 23.619,17.914Z" clip-rule="evenodd" fill-rule="evenodd" fill="#FFFFFF"/>
</svg>
