<svg width="30" height="24" viewBox="0 0 30 24" fill="none" xmlns="http://www.w3.org/2000/svg" xmlns:xlink="http://www.w3.org/1999/xlink">
<path d="M14.409,5.216C18.752,5.216 22.929,6.919 26.077,9.972C26.314,10.208 26.693,10.205 26.926,9.966L29.192,7.632C29.31,7.511 29.376,7.347 29.375,7.175C29.374,7.004 29.306,6.84 29.187,6.72C20.925,-1.359 7.892,-1.359 -0.369,6.72C-0.489,6.84 -0.557,7.004 -0.558,7.175C-0.559,7.346 -0.493,7.511 -0.375,7.632L1.892,9.966C2.125,10.206 2.504,10.209 2.741,9.972C5.889,6.919 10.066,5.216 14.409,5.216ZM14.41,12.808C16.796,12.807 19.097,13.713 20.866,15.347C21.105,15.579 21.482,15.574 21.715,15.336L23.978,13.002C24.097,12.88 24.163,12.714 24.162,12.541C24.16,12.369 24.09,12.204 23.969,12.084C18.583,6.971 10.241,6.971 4.855,12.084C4.734,12.204 4.664,12.369 4.662,12.541C4.661,12.714 4.727,12.88 4.847,13.002L7.109,15.336C7.342,15.574 7.719,15.579 7.958,15.347C9.726,13.714 12.025,12.809 14.41,12.808ZM18.943,17.915C18.946,18.088 18.88,18.255 18.759,18.376L14.844,22.408C14.729,22.526 14.573,22.593 14.41,22.593C14.247,22.593 14.09,22.526 13.975,22.408L10.06,18.376C9.939,18.255 9.873,18.088 9.876,17.915C9.88,17.742 9.953,17.578 10.079,17.462C12.579,15.304 16.24,15.304 18.74,17.462C18.866,17.578 18.94,17.742 18.943,17.915Z" clip-rule="evenodd" fill-rule="evenodd" fill="#000000"/>
</svg>
