<svg width="30" height="24" viewBox="0 0 30 24" fill="none" xmlns="http://www.w3.org/2000/svg" xmlns:xlink="http://www.w3.org/1999/xlink">
<path d="M14.409,5.215C18.752,5.215 22.929,6.918 26.077,9.971C26.314,10.207 26.693,10.204 26.926,9.965L29.192,7.631C29.31,7.51 29.376,7.346 29.375,7.174C29.374,7.003 29.306,6.839 29.187,6.719C20.925,-1.36 7.892,-1.36 -0.369,6.719C-0.489,6.839 -0.557,7.003 -0.558,7.174C-0.559,7.345 -0.493,7.51 -0.375,7.631L1.892,9.965C2.125,10.205 2.504,10.208 2.741,9.971C5.889,6.918 10.066,5.215 14.409,5.215ZM14.41,12.807C16.796,12.806 19.097,13.712 20.866,15.346C21.105,15.578 21.482,15.573 21.715,15.335L23.978,13.001C24.097,12.879 24.163,12.713 24.162,12.54C24.16,12.368 24.09,12.203 23.969,12.083C18.583,6.971 10.241,6.971 4.855,12.083C4.734,12.203 4.664,12.368 4.662,12.54C4.661,12.713 4.727,12.879 4.847,13.001L7.109,15.335C7.342,15.573 7.719,15.578 7.958,15.346C9.726,13.713 12.025,12.808 14.41,12.807ZM18.943,17.914C18.946,18.087 18.88,18.254 18.759,18.375L14.844,22.407C14.729,22.525 14.573,22.592 14.41,22.592C14.247,22.592 14.09,22.525 13.975,22.407L10.06,18.375C9.939,18.254 9.873,18.087 9.876,17.914C9.88,17.741 9.953,17.577 10.079,17.461C12.579,15.303 16.24,15.303 18.74,17.461C18.866,17.577 18.94,17.741 18.943,17.914Z" clip-rule="evenodd" fill-rule="evenodd" fill="#000000"/>
</svg>
