<svg width="34" height="24" viewBox="0 0 34 24" fill="none" xmlns="http://www.w3.org/2000/svg" xmlns:xlink="http://www.w3.org/1999/xlink">
<path d="M16.121,5.216C21.014,5.216 25.72,6.919 29.266,9.972C29.533,10.208 29.959,10.205 30.222,9.966L32.775,7.632C32.908,7.511 32.982,7.347 32.981,7.175C32.98,7.004 32.904,6.84 32.769,6.72C23.462,-1.359 8.779,-1.359 -0.528,6.72C-0.663,6.84 -0.739,7.004 -0.74,7.175C-0.742,7.346 -0.667,7.511 -0.534,7.632L2.019,9.966C2.282,10.206 2.709,10.209 2.976,9.972C6.522,6.919 11.228,5.216 16.121,5.216ZM16.121,12.807C18.81,12.807 21.402,13.712 23.395,15.346C23.664,15.578 24.089,15.573 24.351,15.335L26.901,13.002C27.035,12.879 27.11,12.713 27.108,12.541C27.106,12.368 27.028,12.204 26.891,12.084C20.823,6.971 11.425,6.971 5.357,12.084C5.22,12.204 5.142,12.368 5.14,12.541C5.138,12.714 5.213,12.88 5.348,13.002L7.897,15.335C8.159,15.573 8.584,15.578 8.853,15.346C10.845,13.713 13.435,12.808 16.121,12.807ZM21.229,17.915C21.232,18.088 21.157,18.255 21.021,18.376L16.611,22.407C16.482,22.526 16.305,22.592 16.121,22.592C15.938,22.592 15.761,22.526 15.632,22.407L11.221,18.376C11.085,18.254 11.01,18.088 11.014,17.915C11.018,17.742 11.101,17.578 11.242,17.462C14.059,15.304 18.184,15.304 21,17.462C21.142,17.578 21.225,17.742 21.229,17.915Z" clip-rule="evenodd" fill-rule="evenodd" fill="#010101"/>
</svg>
