<svg width="40" height="40" viewBox="0 0 40 40" fill="none" xmlns="http://www.w3.org/2000/svg" xmlns:xlink="http://www.w3.org/1999/xlink">
<path d="M31.246,10.246C31.934,9.558 31.934,8.442 31.246,7.754C30.558,7.066 29.442,7.066 28.754,7.754L31.246,10.246ZM8.754,27.754C8.066,28.442 8.066,29.558 8.754,30.246C9.442,30.934 10.558,30.934 11.246,30.246L8.754,27.754ZM28.754,7.754L8.754,27.754L11.246,30.246L31.246,10.246L28.754,7.754Z" fill="#F2F2F2"/>
<path d="M11.246,7.754C10.558,7.066 9.442,7.066 8.754,7.754C8.066,8.442 8.066,9.558 8.754,10.246L11.246,7.754ZM28.754,30.246C29.442,30.934 30.558,30.934 31.246,30.246C31.934,29.558 31.934,28.442 31.246,27.754L28.754,30.246ZM8.754,10.246L28.754,30.246L31.246,27.754L11.246,7.754L8.754,10.246Z" fill="#F2F2F2"/>
</svg>
