<svg width="48" height="48" viewBox="0 0 48 48" fill="none" xmlns="http://www.w3.org/2000/svg" xmlns:xlink="http://www.w3.org/1999/xlink">
<path d="M37.414,12.414C38.195,11.633 38.195,10.367 37.414,9.586C36.633,8.805 35.367,8.805 34.586,9.586L37.414,12.414ZM10.586,33.586C9.805,34.367 9.805,35.633 10.586,36.414C11.367,37.195 12.633,37.195 13.414,36.414L10.586,33.586ZM34.586,9.586L10.586,33.586L13.414,36.414L37.414,12.414L34.586,9.586Z" fill="#000000"/>
<path d="M13.414,9.586C12.633,8.805 11.367,8.805 10.586,9.586C9.805,10.367 9.805,11.633 10.586,12.414L13.414,9.586ZM34.586,36.414C35.367,37.195 36.633,37.195 37.414,36.414C38.195,35.633 38.195,34.367 37.414,33.586L34.586,36.414ZM10.586,12.414L34.586,36.414L37.414,33.586L13.414,9.586L10.586,12.414Z" fill="#000000"/>
</svg>
