<svg width="40" height="40" viewBox="0 0 40 40" fill="none" xmlns="http://www.w3.org/2000/svg" xmlns:xlink="http://www.w3.org/1999/xlink">
<path d="M31.246,11.246C31.934,10.558 31.934,9.442 31.246,8.754C30.558,8.066 29.442,8.066 28.754,8.754L31.246,11.246ZM8.754,28.754C8.066,29.442 8.066,30.558 8.754,31.246C9.442,31.934 10.558,31.934 11.246,31.246L8.754,28.754ZM28.754,8.754L8.754,28.754L11.246,31.246L31.246,11.246L28.754,8.754Z" fill="#5C5C5C"/>
<path d="M11.246,8.754C10.558,8.066 9.442,8.066 8.754,8.754C8.066,9.442 8.066,10.558 8.754,11.246L11.246,8.754ZM28.754,31.246C29.442,31.934 30.558,31.934 31.246,31.246C31.934,30.558 31.934,29.442 31.246,28.754L28.754,31.246ZM8.754,11.246L28.754,31.246L31.246,28.754L11.246,8.754L8.754,11.246Z" fill="#5C5C5C"/>
</svg>
