<svg width="36" height="36" viewBox="0 0 36 36" fill="none" xmlns="http://www.w3.org/2000/svg" xmlns:xlink="http://www.w3.org/1999/xlink">
<path d="M31.542,17C31.542,24.479 25.479,30.542 18,30.542L18,33.458C27.09,33.458 34.458,26.09 34.458,17L31.542,17ZM18,30.542C10.521,30.542 4.458,24.479 4.458,17L1.542,17C1.542,26.09 8.91,33.458 18,33.458L18,30.542ZM4.458,17C4.458,9.521 10.521,3.458 18,3.458L18,0.542C8.91,0.542 1.542,7.91 1.542,17L4.458,17ZM18,3.458C25.479,3.458 31.542,9.521 31.542,17L34.458,17C34.458,7.91 27.09,0.542 18,0.542L18,3.458Z" fill="#5C5C5C"/>
<path d="M23.531,13.531C24.101,12.962 24.101,12.038 23.531,11.469C22.962,10.899 22.038,10.899 21.469,11.469L23.531,13.531ZM12.469,20.469C11.899,21.038 11.899,21.962 12.469,22.531C13.038,23.101 13.962,23.101 14.531,22.531L12.469,20.469ZM21.469,11.469L12.469,20.469L14.531,22.531L23.531,13.531L21.469,11.469Z" fill="#5C5C5C"/>
<path d="M14.531,11.469C13.962,10.899 13.038,10.899 12.469,11.469C11.899,12.038 11.899,12.962 12.469,13.531L14.531,11.469ZM21.469,22.531C22.038,23.101 22.962,23.101 23.531,22.531C24.101,21.962 24.101,21.038 23.531,20.469L21.469,22.531ZM12.469,13.531L21.469,22.531L23.531,20.469L14.531,11.469L12.469,13.531Z" fill="#5C5C5C"/>
</svg>
