<svg width="48" height="48" viewBox="0 0 48 48" fill="none" xmlns="http://www.w3.org/2000/svg" xmlns:xlink="http://www.w3.org/1999/xlink">
<path d="M41,24C41,33.941 32.941,42 23,42L23,46C35.15,46 45,36.15 45,24L41,24ZM23,42C13.059,42 5,33.941 5,24L1,24C1,36.15 10.85,46 23,46L23,42ZM5,24C5,14.059 13.059,6 23,6L23,2C10.85,2 1,11.85 1,24L5,24ZM23,6C32.941,6 41,14.059 41,24L45,24C45,11.85 35.15,2 23,2L23,6Z" fill="#5C5C5C"/>
<path d="M30.414,19.414C31.195,18.633 31.195,17.367 30.414,16.586C29.633,15.805 28.367,15.805 27.586,16.586L30.414,19.414ZM15.586,28.586C14.805,29.367 14.805,30.633 15.586,31.414C16.367,32.195 17.633,32.195 18.414,31.414L15.586,28.586ZM27.586,16.586L15.586,28.586L18.414,31.414L30.414,19.414L27.586,16.586Z" fill="#5C5C5C"/>
<path d="M18.414,16.586C17.633,15.805 16.367,15.805 15.586,16.586C14.805,17.367 14.805,18.633 15.586,19.414L18.414,16.586ZM27.586,31.414C28.367,32.195 29.633,32.195 30.414,31.414C31.195,30.633 31.195,29.367 30.414,28.586L27.586,31.414ZM15.586,19.414L27.586,31.414L30.414,28.586L18.414,16.586L15.586,19.414Z" fill="#5C5C5C"/>
</svg>
